G75*
%MOIN*%
%OFA0B0*%
%FSLAX25Y25*%
%IPPOS*%
%LPD*%
%AMOC8*
5,1,8,0,0,1.08239X$1,22.5*
%
%ADD10OC8,0.06700*%
%ADD11C,0.05600*%
%ADD12R,0.05943X0.05943*%
%ADD13C,0.05943*%
%ADD14R,0.05550X0.05550*%
%ADD15C,0.05550*%
%ADD16C,0.17400*%
%ADD17C,0.06400*%
%ADD18OC8,0.07000*%
%ADD19OC8,0.05600*%
%ADD20OC8,0.08900*%
%ADD21C,0.06896*%
%ADD22R,0.03943X0.06246*%
%ADD23C,0.05550*%
%ADD24R,0.04337X0.05912*%
%ADD25R,0.02600X0.05600*%
%ADD26R,0.09100X0.02800*%
%ADD27C,0.12211*%
%ADD28C,0.04337*%
%ADD29C,0.06337*%
%ADD30C,0.12998*%
%ADD31C,0.09000*%
%ADD32OC8,0.09000*%
%ADD33R,0.03156X0.06306*%
%ADD34R,0.04337X0.06306*%
D10*
X0127094Y0098933D03*
X0127094Y0118933D03*
X0177094Y0148933D03*
X0197094Y0148933D03*
X0202094Y0118933D03*
X0202094Y0098933D03*
X0234594Y0116433D03*
X0254594Y0116433D03*
X0264594Y0116433D03*
X0284594Y0116433D03*
X0232094Y0203933D03*
X0232094Y0223933D03*
X0272094Y0218933D03*
X0272094Y0228933D03*
X0292094Y0228933D03*
X0292094Y0218933D03*
X0162094Y0223933D03*
X0162094Y0203933D03*
X0114594Y0191433D03*
X0104594Y0191433D03*
X0104594Y0171433D03*
X0114594Y0171433D03*
X0069594Y0141433D03*
X0059594Y0141433D03*
X0059594Y0121433D03*
X0069594Y0121433D03*
D11*
X0086994Y0160183D02*
X0092194Y0160183D01*
X0092194Y0167683D02*
X0086994Y0167683D01*
D12*
X0142094Y0241433D03*
X0202094Y0241433D03*
D13*
X0212094Y0241433D03*
X0222094Y0241433D03*
X0232094Y0241433D03*
X0172094Y0241433D03*
X0162094Y0241433D03*
X0152094Y0241433D03*
D14*
X0085283Y0246433D03*
D15*
X0093157Y0246433D03*
X0101031Y0246433D03*
X0108906Y0246433D03*
D16*
X0093157Y0142870D03*
X0111661Y0131059D03*
X0093157Y0119248D03*
D17*
X0252094Y0243433D02*
X0252094Y0249433D01*
X0262094Y0249433D02*
X0262094Y0243433D01*
X0272094Y0243433D02*
X0272094Y0249433D01*
X0282094Y0249433D02*
X0282094Y0243433D01*
D18*
X0224594Y0186433D03*
X0214594Y0186433D03*
X0197094Y0186433D03*
X0187094Y0186433D03*
X0169594Y0186433D03*
X0159594Y0186433D03*
X0213354Y0108618D03*
X0223354Y0108618D03*
D19*
X0235844Y0126433D03*
X0255844Y0126433D03*
X0263344Y0126433D03*
X0283344Y0126433D03*
X0232094Y0166433D03*
X0232094Y0176433D03*
X0212094Y0166433D03*
X0204594Y0176433D03*
X0204594Y0196433D03*
X0212094Y0203933D03*
X0222094Y0203933D03*
X0232094Y0196433D03*
X0252094Y0216433D03*
X0262094Y0216433D03*
X0262094Y0236433D03*
X0272094Y0236433D03*
X0252094Y0236433D03*
X0222094Y0223933D03*
X0212094Y0223933D03*
X0199594Y0218933D03*
X0192094Y0213933D03*
X0199594Y0208933D03*
X0184594Y0203933D03*
X0174594Y0203933D03*
X0177094Y0196433D03*
X0177094Y0176433D03*
X0168344Y0163933D03*
X0159594Y0163933D03*
X0150844Y0163933D03*
X0149594Y0171433D03*
X0139594Y0171433D03*
X0139594Y0191433D03*
X0149594Y0191433D03*
X0152094Y0203933D03*
X0142094Y0203933D03*
X0129594Y0208933D03*
X0122094Y0213933D03*
X0129594Y0218933D03*
X0142094Y0223933D03*
X0152094Y0223933D03*
X0174594Y0223933D03*
X0184594Y0223933D03*
X0114594Y0223933D03*
X0104594Y0223933D03*
X0104594Y0203933D03*
X0114594Y0203933D03*
X0114594Y0163933D03*
X0114594Y0143933D03*
X0150844Y0143933D03*
X0159594Y0143933D03*
X0168344Y0143933D03*
X0292094Y0236433D03*
D20*
X0087099Y0203323D03*
X0061499Y0203323D03*
D21*
X0231799Y0103933D03*
X0257390Y0103933D03*
X0264299Y0103933D03*
X0289890Y0103933D03*
D22*
X0288827Y0138569D03*
X0294732Y0138569D03*
X0282921Y0138569D03*
X0277016Y0138569D03*
X0271110Y0138569D03*
X0265205Y0138569D03*
X0259299Y0138569D03*
X0253394Y0138569D03*
X0247488Y0138569D03*
X0247488Y0208589D03*
X0253394Y0208589D03*
X0259299Y0208589D03*
X0265205Y0208589D03*
X0271110Y0208589D03*
X0277016Y0208589D03*
X0282921Y0208589D03*
X0288827Y0208589D03*
X0294732Y0208589D03*
D23*
X0072169Y0171433D02*
X0067020Y0171433D01*
X0067020Y0161433D02*
X0072169Y0161433D01*
X0072169Y0151433D02*
X0067020Y0151433D01*
D24*
X0289604Y0130764D03*
X0297085Y0130764D03*
X0293344Y0122102D03*
D25*
X0130794Y0176333D03*
X0127094Y0176333D03*
X0123394Y0176333D03*
X0123394Y0186533D03*
X0127094Y0186533D03*
X0130794Y0186533D03*
D26*
X0179294Y0171433D03*
X0179294Y0166433D03*
X0179294Y0161433D03*
X0179294Y0156433D03*
X0199894Y0156433D03*
X0199894Y0161433D03*
X0199894Y0166433D03*
X0199894Y0171433D03*
D27*
X0189811Y0110587D03*
X0165205Y0107437D03*
X0140598Y0110587D03*
D28*
X0155362Y0101925D03*
X0175047Y0101925D03*
X0184890Y0131846D03*
X0145520Y0131846D03*
D29*
X0151819Y0132240D03*
X0151819Y0122398D03*
X0170323Y0122398D03*
X0178591Y0122398D03*
X0178591Y0132240D03*
D30*
X0062843Y0104681D03*
X0062843Y0242476D03*
X0306937Y0242476D03*
X0306937Y0104681D03*
D31*
X0207094Y0138933D03*
D32*
X0227094Y0138933D03*
D33*
X0139250Y0146650D03*
X0127439Y0146650D03*
X0127439Y0161217D03*
X0139250Y0161217D03*
D34*
X0133344Y0161217D03*
X0133344Y0146650D03*
M02*
