%
M48
M72
T01C0.0120
T02C0.0240
T03C0.0315
T04C0.0320
T05C0.0354
T06C0.0360
T07C0.0394
T08C0.0400
T09C0.0433
T10C0.0787
T11C0.1180
T12C0.1260
%
T01
X12964Y14093
X12379Y16303
X19594Y19228
X23234Y18188
X27914Y21373
X26679Y22283
X25769Y22283
X25899Y14418
X25379Y14418
T02
X27849Y15393
X13939Y15458
T03
X6959Y15143
X6959Y16143
X6959Y17143
X8528Y24643
X9316Y24643
X10103Y24643
X10891Y24643
T04
X12709Y9893
X12709Y11893
X11459Y14393
X11459Y16393
X11459Y17143
X10459Y17143
X8959Y16768
X8959Y16018
X6959Y14143
X5959Y14143
X5959Y12143
X6959Y12143
X13959Y17143
X14959Y17143
X15084Y16393
X15959Y16393
X16834Y16393
X17709Y17643
X16959Y18643
X15959Y18643
X14959Y19143
X13959Y19143
X14209Y20393
X15209Y20393
X16209Y20393
X17459Y20393
X18459Y20393
X17709Y19643
X18709Y18643
X19709Y18643
X20459Y19643
X21209Y20393
X22209Y20393
X23209Y20393
X23209Y19643
X22459Y18643
X21459Y18643
X20459Y17643
X21209Y16643
X23209Y16643
X23209Y17643
X19709Y14893
X17709Y14893
X16834Y14393
X15959Y14393
X15084Y14393
X20209Y11893
X21335Y10862
X22335Y10862
X23459Y11643
X23584Y12643
X25584Y12643
X26334Y12643
X26459Y11643
X25459Y11643
X28459Y11643
X28334Y12643
X20209Y9893
X11459Y19143
X10459Y19143
X10459Y20393
X11459Y20393
X12209Y21393
X12959Y20893
X12959Y21893
X14209Y22393
X15209Y22393
X16209Y22393
X17459Y22393
X18459Y22393
X19209Y21393
X19959Y20893
X19959Y21893
X21209Y22393
X22209Y22393
X23209Y22393
X25209Y21643
X26209Y21643
X27209Y21893
X27209Y22893
X27209Y23643
X26209Y23643
X25209Y23643
X29209Y23643
X29209Y22893
X29209Y21893
X11459Y22393
X10459Y22393
T05
X14209Y24143
X15209Y24143
X16209Y24143
X17209Y24143
X20209Y24143
X21209Y24143
X22209Y24143
X23209Y24143
T06
X8710Y20332
X6150Y20332
T07
X14552Y13185
X15182Y13224
X15182Y12240
X17032Y12240
X17859Y12240
X17859Y13224
X18489Y13185
X17505Y10193
X15536Y10193
T08
X20709Y13893
X22709Y13893
X25209Y24643
X26209Y24643
X27209Y24643
X28209Y24643
T09
X28989Y10393
X26430Y10393
X25739Y10393
X23180Y10393
T10
X18981Y11059
X16520Y10744
X14060Y11059
T11
X11166Y13106
X9316Y14287
X9316Y11925
T12
X6284Y10468
X6284Y24248
X30694Y24248
X30694Y10468
M30
