G75*
%MOIN*%
%OFA0B0*%
%FSLAX25Y25*%
%IPPOS*%
%LPD*%
%AMOC8*
5,1,8,0,0,1.08239X$1,22.5*
%
%ADD10C,0.00000*%
D10*
X0062843Y0088933D02*
X0306937Y0088933D01*
X0300638Y0104681D02*
X0300640Y0104839D01*
X0300646Y0104997D01*
X0300656Y0105155D01*
X0300670Y0105313D01*
X0300688Y0105470D01*
X0300709Y0105627D01*
X0300735Y0105783D01*
X0300765Y0105939D01*
X0300798Y0106094D01*
X0300836Y0106247D01*
X0300877Y0106400D01*
X0300922Y0106552D01*
X0300971Y0106703D01*
X0301024Y0106852D01*
X0301080Y0107000D01*
X0301140Y0107146D01*
X0301204Y0107291D01*
X0301272Y0107434D01*
X0301343Y0107576D01*
X0301417Y0107716D01*
X0301495Y0107853D01*
X0301577Y0107989D01*
X0301661Y0108123D01*
X0301750Y0108254D01*
X0301841Y0108383D01*
X0301936Y0108510D01*
X0302033Y0108635D01*
X0302134Y0108757D01*
X0302238Y0108876D01*
X0302345Y0108993D01*
X0302455Y0109107D01*
X0302568Y0109218D01*
X0302683Y0109327D01*
X0302801Y0109432D01*
X0302922Y0109534D01*
X0303045Y0109634D01*
X0303171Y0109730D01*
X0303299Y0109823D01*
X0303429Y0109913D01*
X0303562Y0109999D01*
X0303697Y0110083D01*
X0303833Y0110162D01*
X0303972Y0110239D01*
X0304113Y0110311D01*
X0304255Y0110381D01*
X0304399Y0110446D01*
X0304545Y0110508D01*
X0304692Y0110566D01*
X0304841Y0110621D01*
X0304991Y0110672D01*
X0305142Y0110719D01*
X0305294Y0110762D01*
X0305447Y0110801D01*
X0305602Y0110837D01*
X0305757Y0110868D01*
X0305913Y0110896D01*
X0306069Y0110920D01*
X0306226Y0110940D01*
X0306384Y0110956D01*
X0306541Y0110968D01*
X0306700Y0110976D01*
X0306858Y0110980D01*
X0307016Y0110980D01*
X0307174Y0110976D01*
X0307333Y0110968D01*
X0307490Y0110956D01*
X0307648Y0110940D01*
X0307805Y0110920D01*
X0307961Y0110896D01*
X0308117Y0110868D01*
X0308272Y0110837D01*
X0308427Y0110801D01*
X0308580Y0110762D01*
X0308732Y0110719D01*
X0308883Y0110672D01*
X0309033Y0110621D01*
X0309182Y0110566D01*
X0309329Y0110508D01*
X0309475Y0110446D01*
X0309619Y0110381D01*
X0309761Y0110311D01*
X0309902Y0110239D01*
X0310041Y0110162D01*
X0310177Y0110083D01*
X0310312Y0109999D01*
X0310445Y0109913D01*
X0310575Y0109823D01*
X0310703Y0109730D01*
X0310829Y0109634D01*
X0310952Y0109534D01*
X0311073Y0109432D01*
X0311191Y0109327D01*
X0311306Y0109218D01*
X0311419Y0109107D01*
X0311529Y0108993D01*
X0311636Y0108876D01*
X0311740Y0108757D01*
X0311841Y0108635D01*
X0311938Y0108510D01*
X0312033Y0108383D01*
X0312124Y0108254D01*
X0312213Y0108123D01*
X0312297Y0107989D01*
X0312379Y0107853D01*
X0312457Y0107716D01*
X0312531Y0107576D01*
X0312602Y0107434D01*
X0312670Y0107291D01*
X0312734Y0107146D01*
X0312794Y0107000D01*
X0312850Y0106852D01*
X0312903Y0106703D01*
X0312952Y0106552D01*
X0312997Y0106400D01*
X0313038Y0106247D01*
X0313076Y0106094D01*
X0313109Y0105939D01*
X0313139Y0105783D01*
X0313165Y0105627D01*
X0313186Y0105470D01*
X0313204Y0105313D01*
X0313218Y0105155D01*
X0313228Y0104997D01*
X0313234Y0104839D01*
X0313236Y0104681D01*
X0313234Y0104523D01*
X0313228Y0104365D01*
X0313218Y0104207D01*
X0313204Y0104049D01*
X0313186Y0103892D01*
X0313165Y0103735D01*
X0313139Y0103579D01*
X0313109Y0103423D01*
X0313076Y0103268D01*
X0313038Y0103115D01*
X0312997Y0102962D01*
X0312952Y0102810D01*
X0312903Y0102659D01*
X0312850Y0102510D01*
X0312794Y0102362D01*
X0312734Y0102216D01*
X0312670Y0102071D01*
X0312602Y0101928D01*
X0312531Y0101786D01*
X0312457Y0101646D01*
X0312379Y0101509D01*
X0312297Y0101373D01*
X0312213Y0101239D01*
X0312124Y0101108D01*
X0312033Y0100979D01*
X0311938Y0100852D01*
X0311841Y0100727D01*
X0311740Y0100605D01*
X0311636Y0100486D01*
X0311529Y0100369D01*
X0311419Y0100255D01*
X0311306Y0100144D01*
X0311191Y0100035D01*
X0311073Y0099930D01*
X0310952Y0099828D01*
X0310829Y0099728D01*
X0310703Y0099632D01*
X0310575Y0099539D01*
X0310445Y0099449D01*
X0310312Y0099363D01*
X0310177Y0099279D01*
X0310041Y0099200D01*
X0309902Y0099123D01*
X0309761Y0099051D01*
X0309619Y0098981D01*
X0309475Y0098916D01*
X0309329Y0098854D01*
X0309182Y0098796D01*
X0309033Y0098741D01*
X0308883Y0098690D01*
X0308732Y0098643D01*
X0308580Y0098600D01*
X0308427Y0098561D01*
X0308272Y0098525D01*
X0308117Y0098494D01*
X0307961Y0098466D01*
X0307805Y0098442D01*
X0307648Y0098422D01*
X0307490Y0098406D01*
X0307333Y0098394D01*
X0307174Y0098386D01*
X0307016Y0098382D01*
X0306858Y0098382D01*
X0306700Y0098386D01*
X0306541Y0098394D01*
X0306384Y0098406D01*
X0306226Y0098422D01*
X0306069Y0098442D01*
X0305913Y0098466D01*
X0305757Y0098494D01*
X0305602Y0098525D01*
X0305447Y0098561D01*
X0305294Y0098600D01*
X0305142Y0098643D01*
X0304991Y0098690D01*
X0304841Y0098741D01*
X0304692Y0098796D01*
X0304545Y0098854D01*
X0304399Y0098916D01*
X0304255Y0098981D01*
X0304113Y0099051D01*
X0303972Y0099123D01*
X0303833Y0099200D01*
X0303697Y0099279D01*
X0303562Y0099363D01*
X0303429Y0099449D01*
X0303299Y0099539D01*
X0303171Y0099632D01*
X0303045Y0099728D01*
X0302922Y0099828D01*
X0302801Y0099930D01*
X0302683Y0100035D01*
X0302568Y0100144D01*
X0302455Y0100255D01*
X0302345Y0100369D01*
X0302238Y0100486D01*
X0302134Y0100605D01*
X0302033Y0100727D01*
X0301936Y0100852D01*
X0301841Y0100979D01*
X0301750Y0101108D01*
X0301661Y0101239D01*
X0301577Y0101373D01*
X0301495Y0101509D01*
X0301417Y0101646D01*
X0301343Y0101786D01*
X0301272Y0101928D01*
X0301204Y0102071D01*
X0301140Y0102216D01*
X0301080Y0102362D01*
X0301024Y0102510D01*
X0300971Y0102659D01*
X0300922Y0102810D01*
X0300877Y0102962D01*
X0300836Y0103115D01*
X0300798Y0103268D01*
X0300765Y0103423D01*
X0300735Y0103579D01*
X0300709Y0103735D01*
X0300688Y0103892D01*
X0300670Y0104049D01*
X0300656Y0104207D01*
X0300646Y0104365D01*
X0300640Y0104523D01*
X0300638Y0104681D01*
X0306937Y0088933D02*
X0307318Y0088938D01*
X0307698Y0088951D01*
X0308078Y0088974D01*
X0308457Y0089007D01*
X0308835Y0089048D01*
X0309212Y0089098D01*
X0309588Y0089158D01*
X0309963Y0089226D01*
X0310335Y0089304D01*
X0310706Y0089391D01*
X0311074Y0089486D01*
X0311440Y0089591D01*
X0311803Y0089704D01*
X0312164Y0089826D01*
X0312521Y0089956D01*
X0312875Y0090096D01*
X0313226Y0090243D01*
X0313573Y0090400D01*
X0313916Y0090564D01*
X0314255Y0090737D01*
X0314590Y0090918D01*
X0314921Y0091107D01*
X0315246Y0091304D01*
X0315567Y0091508D01*
X0315883Y0091721D01*
X0316193Y0091941D01*
X0316499Y0092168D01*
X0316798Y0092403D01*
X0317092Y0092645D01*
X0317380Y0092893D01*
X0317662Y0093149D01*
X0317937Y0093412D01*
X0318206Y0093681D01*
X0318469Y0093956D01*
X0318725Y0094238D01*
X0318973Y0094526D01*
X0319215Y0094820D01*
X0319450Y0095119D01*
X0319677Y0095425D01*
X0319897Y0095735D01*
X0320110Y0096051D01*
X0320314Y0096372D01*
X0320511Y0096697D01*
X0320700Y0097028D01*
X0320881Y0097363D01*
X0321054Y0097702D01*
X0321218Y0098045D01*
X0321375Y0098392D01*
X0321522Y0098743D01*
X0321662Y0099097D01*
X0321792Y0099454D01*
X0321914Y0099815D01*
X0322027Y0100178D01*
X0322132Y0100544D01*
X0322227Y0100912D01*
X0322314Y0101283D01*
X0322392Y0101655D01*
X0322460Y0102030D01*
X0322520Y0102406D01*
X0322570Y0102783D01*
X0322611Y0103161D01*
X0322644Y0103540D01*
X0322667Y0103920D01*
X0322680Y0104300D01*
X0322685Y0104681D01*
X0322685Y0242476D01*
X0300638Y0242476D02*
X0300640Y0242634D01*
X0300646Y0242792D01*
X0300656Y0242950D01*
X0300670Y0243108D01*
X0300688Y0243265D01*
X0300709Y0243422D01*
X0300735Y0243578D01*
X0300765Y0243734D01*
X0300798Y0243889D01*
X0300836Y0244042D01*
X0300877Y0244195D01*
X0300922Y0244347D01*
X0300971Y0244498D01*
X0301024Y0244647D01*
X0301080Y0244795D01*
X0301140Y0244941D01*
X0301204Y0245086D01*
X0301272Y0245229D01*
X0301343Y0245371D01*
X0301417Y0245511D01*
X0301495Y0245648D01*
X0301577Y0245784D01*
X0301661Y0245918D01*
X0301750Y0246049D01*
X0301841Y0246178D01*
X0301936Y0246305D01*
X0302033Y0246430D01*
X0302134Y0246552D01*
X0302238Y0246671D01*
X0302345Y0246788D01*
X0302455Y0246902D01*
X0302568Y0247013D01*
X0302683Y0247122D01*
X0302801Y0247227D01*
X0302922Y0247329D01*
X0303045Y0247429D01*
X0303171Y0247525D01*
X0303299Y0247618D01*
X0303429Y0247708D01*
X0303562Y0247794D01*
X0303697Y0247878D01*
X0303833Y0247957D01*
X0303972Y0248034D01*
X0304113Y0248106D01*
X0304255Y0248176D01*
X0304399Y0248241D01*
X0304545Y0248303D01*
X0304692Y0248361D01*
X0304841Y0248416D01*
X0304991Y0248467D01*
X0305142Y0248514D01*
X0305294Y0248557D01*
X0305447Y0248596D01*
X0305602Y0248632D01*
X0305757Y0248663D01*
X0305913Y0248691D01*
X0306069Y0248715D01*
X0306226Y0248735D01*
X0306384Y0248751D01*
X0306541Y0248763D01*
X0306700Y0248771D01*
X0306858Y0248775D01*
X0307016Y0248775D01*
X0307174Y0248771D01*
X0307333Y0248763D01*
X0307490Y0248751D01*
X0307648Y0248735D01*
X0307805Y0248715D01*
X0307961Y0248691D01*
X0308117Y0248663D01*
X0308272Y0248632D01*
X0308427Y0248596D01*
X0308580Y0248557D01*
X0308732Y0248514D01*
X0308883Y0248467D01*
X0309033Y0248416D01*
X0309182Y0248361D01*
X0309329Y0248303D01*
X0309475Y0248241D01*
X0309619Y0248176D01*
X0309761Y0248106D01*
X0309902Y0248034D01*
X0310041Y0247957D01*
X0310177Y0247878D01*
X0310312Y0247794D01*
X0310445Y0247708D01*
X0310575Y0247618D01*
X0310703Y0247525D01*
X0310829Y0247429D01*
X0310952Y0247329D01*
X0311073Y0247227D01*
X0311191Y0247122D01*
X0311306Y0247013D01*
X0311419Y0246902D01*
X0311529Y0246788D01*
X0311636Y0246671D01*
X0311740Y0246552D01*
X0311841Y0246430D01*
X0311938Y0246305D01*
X0312033Y0246178D01*
X0312124Y0246049D01*
X0312213Y0245918D01*
X0312297Y0245784D01*
X0312379Y0245648D01*
X0312457Y0245511D01*
X0312531Y0245371D01*
X0312602Y0245229D01*
X0312670Y0245086D01*
X0312734Y0244941D01*
X0312794Y0244795D01*
X0312850Y0244647D01*
X0312903Y0244498D01*
X0312952Y0244347D01*
X0312997Y0244195D01*
X0313038Y0244042D01*
X0313076Y0243889D01*
X0313109Y0243734D01*
X0313139Y0243578D01*
X0313165Y0243422D01*
X0313186Y0243265D01*
X0313204Y0243108D01*
X0313218Y0242950D01*
X0313228Y0242792D01*
X0313234Y0242634D01*
X0313236Y0242476D01*
X0313234Y0242318D01*
X0313228Y0242160D01*
X0313218Y0242002D01*
X0313204Y0241844D01*
X0313186Y0241687D01*
X0313165Y0241530D01*
X0313139Y0241374D01*
X0313109Y0241218D01*
X0313076Y0241063D01*
X0313038Y0240910D01*
X0312997Y0240757D01*
X0312952Y0240605D01*
X0312903Y0240454D01*
X0312850Y0240305D01*
X0312794Y0240157D01*
X0312734Y0240011D01*
X0312670Y0239866D01*
X0312602Y0239723D01*
X0312531Y0239581D01*
X0312457Y0239441D01*
X0312379Y0239304D01*
X0312297Y0239168D01*
X0312213Y0239034D01*
X0312124Y0238903D01*
X0312033Y0238774D01*
X0311938Y0238647D01*
X0311841Y0238522D01*
X0311740Y0238400D01*
X0311636Y0238281D01*
X0311529Y0238164D01*
X0311419Y0238050D01*
X0311306Y0237939D01*
X0311191Y0237830D01*
X0311073Y0237725D01*
X0310952Y0237623D01*
X0310829Y0237523D01*
X0310703Y0237427D01*
X0310575Y0237334D01*
X0310445Y0237244D01*
X0310312Y0237158D01*
X0310177Y0237074D01*
X0310041Y0236995D01*
X0309902Y0236918D01*
X0309761Y0236846D01*
X0309619Y0236776D01*
X0309475Y0236711D01*
X0309329Y0236649D01*
X0309182Y0236591D01*
X0309033Y0236536D01*
X0308883Y0236485D01*
X0308732Y0236438D01*
X0308580Y0236395D01*
X0308427Y0236356D01*
X0308272Y0236320D01*
X0308117Y0236289D01*
X0307961Y0236261D01*
X0307805Y0236237D01*
X0307648Y0236217D01*
X0307490Y0236201D01*
X0307333Y0236189D01*
X0307174Y0236181D01*
X0307016Y0236177D01*
X0306858Y0236177D01*
X0306700Y0236181D01*
X0306541Y0236189D01*
X0306384Y0236201D01*
X0306226Y0236217D01*
X0306069Y0236237D01*
X0305913Y0236261D01*
X0305757Y0236289D01*
X0305602Y0236320D01*
X0305447Y0236356D01*
X0305294Y0236395D01*
X0305142Y0236438D01*
X0304991Y0236485D01*
X0304841Y0236536D01*
X0304692Y0236591D01*
X0304545Y0236649D01*
X0304399Y0236711D01*
X0304255Y0236776D01*
X0304113Y0236846D01*
X0303972Y0236918D01*
X0303833Y0236995D01*
X0303697Y0237074D01*
X0303562Y0237158D01*
X0303429Y0237244D01*
X0303299Y0237334D01*
X0303171Y0237427D01*
X0303045Y0237523D01*
X0302922Y0237623D01*
X0302801Y0237725D01*
X0302683Y0237830D01*
X0302568Y0237939D01*
X0302455Y0238050D01*
X0302345Y0238164D01*
X0302238Y0238281D01*
X0302134Y0238400D01*
X0302033Y0238522D01*
X0301936Y0238647D01*
X0301841Y0238774D01*
X0301750Y0238903D01*
X0301661Y0239034D01*
X0301577Y0239168D01*
X0301495Y0239304D01*
X0301417Y0239441D01*
X0301343Y0239581D01*
X0301272Y0239723D01*
X0301204Y0239866D01*
X0301140Y0240011D01*
X0301080Y0240157D01*
X0301024Y0240305D01*
X0300971Y0240454D01*
X0300922Y0240605D01*
X0300877Y0240757D01*
X0300836Y0240910D01*
X0300798Y0241063D01*
X0300765Y0241218D01*
X0300735Y0241374D01*
X0300709Y0241530D01*
X0300688Y0241687D01*
X0300670Y0241844D01*
X0300656Y0242002D01*
X0300646Y0242160D01*
X0300640Y0242318D01*
X0300638Y0242476D01*
X0306937Y0258224D02*
X0307318Y0258219D01*
X0307698Y0258206D01*
X0308078Y0258183D01*
X0308457Y0258150D01*
X0308835Y0258109D01*
X0309212Y0258059D01*
X0309588Y0257999D01*
X0309963Y0257931D01*
X0310335Y0257853D01*
X0310706Y0257766D01*
X0311074Y0257671D01*
X0311440Y0257566D01*
X0311803Y0257453D01*
X0312164Y0257331D01*
X0312521Y0257201D01*
X0312875Y0257061D01*
X0313226Y0256914D01*
X0313573Y0256757D01*
X0313916Y0256593D01*
X0314255Y0256420D01*
X0314590Y0256239D01*
X0314921Y0256050D01*
X0315246Y0255853D01*
X0315567Y0255649D01*
X0315883Y0255436D01*
X0316193Y0255216D01*
X0316499Y0254989D01*
X0316798Y0254754D01*
X0317092Y0254512D01*
X0317380Y0254264D01*
X0317662Y0254008D01*
X0317937Y0253745D01*
X0318206Y0253476D01*
X0318469Y0253201D01*
X0318725Y0252919D01*
X0318973Y0252631D01*
X0319215Y0252337D01*
X0319450Y0252038D01*
X0319677Y0251732D01*
X0319897Y0251422D01*
X0320110Y0251106D01*
X0320314Y0250785D01*
X0320511Y0250460D01*
X0320700Y0250129D01*
X0320881Y0249794D01*
X0321054Y0249455D01*
X0321218Y0249112D01*
X0321375Y0248765D01*
X0321522Y0248414D01*
X0321662Y0248060D01*
X0321792Y0247703D01*
X0321914Y0247342D01*
X0322027Y0246979D01*
X0322132Y0246613D01*
X0322227Y0246245D01*
X0322314Y0245874D01*
X0322392Y0245502D01*
X0322460Y0245127D01*
X0322520Y0244751D01*
X0322570Y0244374D01*
X0322611Y0243996D01*
X0322644Y0243617D01*
X0322667Y0243237D01*
X0322680Y0242857D01*
X0322685Y0242476D01*
X0306937Y0258224D02*
X0062843Y0258224D01*
X0056544Y0242476D02*
X0056546Y0242634D01*
X0056552Y0242792D01*
X0056562Y0242950D01*
X0056576Y0243108D01*
X0056594Y0243265D01*
X0056615Y0243422D01*
X0056641Y0243578D01*
X0056671Y0243734D01*
X0056704Y0243889D01*
X0056742Y0244042D01*
X0056783Y0244195D01*
X0056828Y0244347D01*
X0056877Y0244498D01*
X0056930Y0244647D01*
X0056986Y0244795D01*
X0057046Y0244941D01*
X0057110Y0245086D01*
X0057178Y0245229D01*
X0057249Y0245371D01*
X0057323Y0245511D01*
X0057401Y0245648D01*
X0057483Y0245784D01*
X0057567Y0245918D01*
X0057656Y0246049D01*
X0057747Y0246178D01*
X0057842Y0246305D01*
X0057939Y0246430D01*
X0058040Y0246552D01*
X0058144Y0246671D01*
X0058251Y0246788D01*
X0058361Y0246902D01*
X0058474Y0247013D01*
X0058589Y0247122D01*
X0058707Y0247227D01*
X0058828Y0247329D01*
X0058951Y0247429D01*
X0059077Y0247525D01*
X0059205Y0247618D01*
X0059335Y0247708D01*
X0059468Y0247794D01*
X0059603Y0247878D01*
X0059739Y0247957D01*
X0059878Y0248034D01*
X0060019Y0248106D01*
X0060161Y0248176D01*
X0060305Y0248241D01*
X0060451Y0248303D01*
X0060598Y0248361D01*
X0060747Y0248416D01*
X0060897Y0248467D01*
X0061048Y0248514D01*
X0061200Y0248557D01*
X0061353Y0248596D01*
X0061508Y0248632D01*
X0061663Y0248663D01*
X0061819Y0248691D01*
X0061975Y0248715D01*
X0062132Y0248735D01*
X0062290Y0248751D01*
X0062447Y0248763D01*
X0062606Y0248771D01*
X0062764Y0248775D01*
X0062922Y0248775D01*
X0063080Y0248771D01*
X0063239Y0248763D01*
X0063396Y0248751D01*
X0063554Y0248735D01*
X0063711Y0248715D01*
X0063867Y0248691D01*
X0064023Y0248663D01*
X0064178Y0248632D01*
X0064333Y0248596D01*
X0064486Y0248557D01*
X0064638Y0248514D01*
X0064789Y0248467D01*
X0064939Y0248416D01*
X0065088Y0248361D01*
X0065235Y0248303D01*
X0065381Y0248241D01*
X0065525Y0248176D01*
X0065667Y0248106D01*
X0065808Y0248034D01*
X0065947Y0247957D01*
X0066083Y0247878D01*
X0066218Y0247794D01*
X0066351Y0247708D01*
X0066481Y0247618D01*
X0066609Y0247525D01*
X0066735Y0247429D01*
X0066858Y0247329D01*
X0066979Y0247227D01*
X0067097Y0247122D01*
X0067212Y0247013D01*
X0067325Y0246902D01*
X0067435Y0246788D01*
X0067542Y0246671D01*
X0067646Y0246552D01*
X0067747Y0246430D01*
X0067844Y0246305D01*
X0067939Y0246178D01*
X0068030Y0246049D01*
X0068119Y0245918D01*
X0068203Y0245784D01*
X0068285Y0245648D01*
X0068363Y0245511D01*
X0068437Y0245371D01*
X0068508Y0245229D01*
X0068576Y0245086D01*
X0068640Y0244941D01*
X0068700Y0244795D01*
X0068756Y0244647D01*
X0068809Y0244498D01*
X0068858Y0244347D01*
X0068903Y0244195D01*
X0068944Y0244042D01*
X0068982Y0243889D01*
X0069015Y0243734D01*
X0069045Y0243578D01*
X0069071Y0243422D01*
X0069092Y0243265D01*
X0069110Y0243108D01*
X0069124Y0242950D01*
X0069134Y0242792D01*
X0069140Y0242634D01*
X0069142Y0242476D01*
X0069140Y0242318D01*
X0069134Y0242160D01*
X0069124Y0242002D01*
X0069110Y0241844D01*
X0069092Y0241687D01*
X0069071Y0241530D01*
X0069045Y0241374D01*
X0069015Y0241218D01*
X0068982Y0241063D01*
X0068944Y0240910D01*
X0068903Y0240757D01*
X0068858Y0240605D01*
X0068809Y0240454D01*
X0068756Y0240305D01*
X0068700Y0240157D01*
X0068640Y0240011D01*
X0068576Y0239866D01*
X0068508Y0239723D01*
X0068437Y0239581D01*
X0068363Y0239441D01*
X0068285Y0239304D01*
X0068203Y0239168D01*
X0068119Y0239034D01*
X0068030Y0238903D01*
X0067939Y0238774D01*
X0067844Y0238647D01*
X0067747Y0238522D01*
X0067646Y0238400D01*
X0067542Y0238281D01*
X0067435Y0238164D01*
X0067325Y0238050D01*
X0067212Y0237939D01*
X0067097Y0237830D01*
X0066979Y0237725D01*
X0066858Y0237623D01*
X0066735Y0237523D01*
X0066609Y0237427D01*
X0066481Y0237334D01*
X0066351Y0237244D01*
X0066218Y0237158D01*
X0066083Y0237074D01*
X0065947Y0236995D01*
X0065808Y0236918D01*
X0065667Y0236846D01*
X0065525Y0236776D01*
X0065381Y0236711D01*
X0065235Y0236649D01*
X0065088Y0236591D01*
X0064939Y0236536D01*
X0064789Y0236485D01*
X0064638Y0236438D01*
X0064486Y0236395D01*
X0064333Y0236356D01*
X0064178Y0236320D01*
X0064023Y0236289D01*
X0063867Y0236261D01*
X0063711Y0236237D01*
X0063554Y0236217D01*
X0063396Y0236201D01*
X0063239Y0236189D01*
X0063080Y0236181D01*
X0062922Y0236177D01*
X0062764Y0236177D01*
X0062606Y0236181D01*
X0062447Y0236189D01*
X0062290Y0236201D01*
X0062132Y0236217D01*
X0061975Y0236237D01*
X0061819Y0236261D01*
X0061663Y0236289D01*
X0061508Y0236320D01*
X0061353Y0236356D01*
X0061200Y0236395D01*
X0061048Y0236438D01*
X0060897Y0236485D01*
X0060747Y0236536D01*
X0060598Y0236591D01*
X0060451Y0236649D01*
X0060305Y0236711D01*
X0060161Y0236776D01*
X0060019Y0236846D01*
X0059878Y0236918D01*
X0059739Y0236995D01*
X0059603Y0237074D01*
X0059468Y0237158D01*
X0059335Y0237244D01*
X0059205Y0237334D01*
X0059077Y0237427D01*
X0058951Y0237523D01*
X0058828Y0237623D01*
X0058707Y0237725D01*
X0058589Y0237830D01*
X0058474Y0237939D01*
X0058361Y0238050D01*
X0058251Y0238164D01*
X0058144Y0238281D01*
X0058040Y0238400D01*
X0057939Y0238522D01*
X0057842Y0238647D01*
X0057747Y0238774D01*
X0057656Y0238903D01*
X0057567Y0239034D01*
X0057483Y0239168D01*
X0057401Y0239304D01*
X0057323Y0239441D01*
X0057249Y0239581D01*
X0057178Y0239723D01*
X0057110Y0239866D01*
X0057046Y0240011D01*
X0056986Y0240157D01*
X0056930Y0240305D01*
X0056877Y0240454D01*
X0056828Y0240605D01*
X0056783Y0240757D01*
X0056742Y0240910D01*
X0056704Y0241063D01*
X0056671Y0241218D01*
X0056641Y0241374D01*
X0056615Y0241530D01*
X0056594Y0241687D01*
X0056576Y0241844D01*
X0056562Y0242002D01*
X0056552Y0242160D01*
X0056546Y0242318D01*
X0056544Y0242476D01*
X0047095Y0242476D02*
X0047100Y0242857D01*
X0047113Y0243237D01*
X0047136Y0243617D01*
X0047169Y0243996D01*
X0047210Y0244374D01*
X0047260Y0244751D01*
X0047320Y0245127D01*
X0047388Y0245502D01*
X0047466Y0245874D01*
X0047553Y0246245D01*
X0047648Y0246613D01*
X0047753Y0246979D01*
X0047866Y0247342D01*
X0047988Y0247703D01*
X0048118Y0248060D01*
X0048258Y0248414D01*
X0048405Y0248765D01*
X0048562Y0249112D01*
X0048726Y0249455D01*
X0048899Y0249794D01*
X0049080Y0250129D01*
X0049269Y0250460D01*
X0049466Y0250785D01*
X0049670Y0251106D01*
X0049883Y0251422D01*
X0050103Y0251732D01*
X0050330Y0252038D01*
X0050565Y0252337D01*
X0050807Y0252631D01*
X0051055Y0252919D01*
X0051311Y0253201D01*
X0051574Y0253476D01*
X0051843Y0253745D01*
X0052118Y0254008D01*
X0052400Y0254264D01*
X0052688Y0254512D01*
X0052982Y0254754D01*
X0053281Y0254989D01*
X0053587Y0255216D01*
X0053897Y0255436D01*
X0054213Y0255649D01*
X0054534Y0255853D01*
X0054859Y0256050D01*
X0055190Y0256239D01*
X0055525Y0256420D01*
X0055864Y0256593D01*
X0056207Y0256757D01*
X0056554Y0256914D01*
X0056905Y0257061D01*
X0057259Y0257201D01*
X0057616Y0257331D01*
X0057977Y0257453D01*
X0058340Y0257566D01*
X0058706Y0257671D01*
X0059074Y0257766D01*
X0059445Y0257853D01*
X0059817Y0257931D01*
X0060192Y0257999D01*
X0060568Y0258059D01*
X0060945Y0258109D01*
X0061323Y0258150D01*
X0061702Y0258183D01*
X0062082Y0258206D01*
X0062462Y0258219D01*
X0062843Y0258224D01*
X0047094Y0242476D02*
X0047094Y0104681D01*
X0056544Y0104681D02*
X0056546Y0104839D01*
X0056552Y0104997D01*
X0056562Y0105155D01*
X0056576Y0105313D01*
X0056594Y0105470D01*
X0056615Y0105627D01*
X0056641Y0105783D01*
X0056671Y0105939D01*
X0056704Y0106094D01*
X0056742Y0106247D01*
X0056783Y0106400D01*
X0056828Y0106552D01*
X0056877Y0106703D01*
X0056930Y0106852D01*
X0056986Y0107000D01*
X0057046Y0107146D01*
X0057110Y0107291D01*
X0057178Y0107434D01*
X0057249Y0107576D01*
X0057323Y0107716D01*
X0057401Y0107853D01*
X0057483Y0107989D01*
X0057567Y0108123D01*
X0057656Y0108254D01*
X0057747Y0108383D01*
X0057842Y0108510D01*
X0057939Y0108635D01*
X0058040Y0108757D01*
X0058144Y0108876D01*
X0058251Y0108993D01*
X0058361Y0109107D01*
X0058474Y0109218D01*
X0058589Y0109327D01*
X0058707Y0109432D01*
X0058828Y0109534D01*
X0058951Y0109634D01*
X0059077Y0109730D01*
X0059205Y0109823D01*
X0059335Y0109913D01*
X0059468Y0109999D01*
X0059603Y0110083D01*
X0059739Y0110162D01*
X0059878Y0110239D01*
X0060019Y0110311D01*
X0060161Y0110381D01*
X0060305Y0110446D01*
X0060451Y0110508D01*
X0060598Y0110566D01*
X0060747Y0110621D01*
X0060897Y0110672D01*
X0061048Y0110719D01*
X0061200Y0110762D01*
X0061353Y0110801D01*
X0061508Y0110837D01*
X0061663Y0110868D01*
X0061819Y0110896D01*
X0061975Y0110920D01*
X0062132Y0110940D01*
X0062290Y0110956D01*
X0062447Y0110968D01*
X0062606Y0110976D01*
X0062764Y0110980D01*
X0062922Y0110980D01*
X0063080Y0110976D01*
X0063239Y0110968D01*
X0063396Y0110956D01*
X0063554Y0110940D01*
X0063711Y0110920D01*
X0063867Y0110896D01*
X0064023Y0110868D01*
X0064178Y0110837D01*
X0064333Y0110801D01*
X0064486Y0110762D01*
X0064638Y0110719D01*
X0064789Y0110672D01*
X0064939Y0110621D01*
X0065088Y0110566D01*
X0065235Y0110508D01*
X0065381Y0110446D01*
X0065525Y0110381D01*
X0065667Y0110311D01*
X0065808Y0110239D01*
X0065947Y0110162D01*
X0066083Y0110083D01*
X0066218Y0109999D01*
X0066351Y0109913D01*
X0066481Y0109823D01*
X0066609Y0109730D01*
X0066735Y0109634D01*
X0066858Y0109534D01*
X0066979Y0109432D01*
X0067097Y0109327D01*
X0067212Y0109218D01*
X0067325Y0109107D01*
X0067435Y0108993D01*
X0067542Y0108876D01*
X0067646Y0108757D01*
X0067747Y0108635D01*
X0067844Y0108510D01*
X0067939Y0108383D01*
X0068030Y0108254D01*
X0068119Y0108123D01*
X0068203Y0107989D01*
X0068285Y0107853D01*
X0068363Y0107716D01*
X0068437Y0107576D01*
X0068508Y0107434D01*
X0068576Y0107291D01*
X0068640Y0107146D01*
X0068700Y0107000D01*
X0068756Y0106852D01*
X0068809Y0106703D01*
X0068858Y0106552D01*
X0068903Y0106400D01*
X0068944Y0106247D01*
X0068982Y0106094D01*
X0069015Y0105939D01*
X0069045Y0105783D01*
X0069071Y0105627D01*
X0069092Y0105470D01*
X0069110Y0105313D01*
X0069124Y0105155D01*
X0069134Y0104997D01*
X0069140Y0104839D01*
X0069142Y0104681D01*
X0069140Y0104523D01*
X0069134Y0104365D01*
X0069124Y0104207D01*
X0069110Y0104049D01*
X0069092Y0103892D01*
X0069071Y0103735D01*
X0069045Y0103579D01*
X0069015Y0103423D01*
X0068982Y0103268D01*
X0068944Y0103115D01*
X0068903Y0102962D01*
X0068858Y0102810D01*
X0068809Y0102659D01*
X0068756Y0102510D01*
X0068700Y0102362D01*
X0068640Y0102216D01*
X0068576Y0102071D01*
X0068508Y0101928D01*
X0068437Y0101786D01*
X0068363Y0101646D01*
X0068285Y0101509D01*
X0068203Y0101373D01*
X0068119Y0101239D01*
X0068030Y0101108D01*
X0067939Y0100979D01*
X0067844Y0100852D01*
X0067747Y0100727D01*
X0067646Y0100605D01*
X0067542Y0100486D01*
X0067435Y0100369D01*
X0067325Y0100255D01*
X0067212Y0100144D01*
X0067097Y0100035D01*
X0066979Y0099930D01*
X0066858Y0099828D01*
X0066735Y0099728D01*
X0066609Y0099632D01*
X0066481Y0099539D01*
X0066351Y0099449D01*
X0066218Y0099363D01*
X0066083Y0099279D01*
X0065947Y0099200D01*
X0065808Y0099123D01*
X0065667Y0099051D01*
X0065525Y0098981D01*
X0065381Y0098916D01*
X0065235Y0098854D01*
X0065088Y0098796D01*
X0064939Y0098741D01*
X0064789Y0098690D01*
X0064638Y0098643D01*
X0064486Y0098600D01*
X0064333Y0098561D01*
X0064178Y0098525D01*
X0064023Y0098494D01*
X0063867Y0098466D01*
X0063711Y0098442D01*
X0063554Y0098422D01*
X0063396Y0098406D01*
X0063239Y0098394D01*
X0063080Y0098386D01*
X0062922Y0098382D01*
X0062764Y0098382D01*
X0062606Y0098386D01*
X0062447Y0098394D01*
X0062290Y0098406D01*
X0062132Y0098422D01*
X0061975Y0098442D01*
X0061819Y0098466D01*
X0061663Y0098494D01*
X0061508Y0098525D01*
X0061353Y0098561D01*
X0061200Y0098600D01*
X0061048Y0098643D01*
X0060897Y0098690D01*
X0060747Y0098741D01*
X0060598Y0098796D01*
X0060451Y0098854D01*
X0060305Y0098916D01*
X0060161Y0098981D01*
X0060019Y0099051D01*
X0059878Y0099123D01*
X0059739Y0099200D01*
X0059603Y0099279D01*
X0059468Y0099363D01*
X0059335Y0099449D01*
X0059205Y0099539D01*
X0059077Y0099632D01*
X0058951Y0099728D01*
X0058828Y0099828D01*
X0058707Y0099930D01*
X0058589Y0100035D01*
X0058474Y0100144D01*
X0058361Y0100255D01*
X0058251Y0100369D01*
X0058144Y0100486D01*
X0058040Y0100605D01*
X0057939Y0100727D01*
X0057842Y0100852D01*
X0057747Y0100979D01*
X0057656Y0101108D01*
X0057567Y0101239D01*
X0057483Y0101373D01*
X0057401Y0101509D01*
X0057323Y0101646D01*
X0057249Y0101786D01*
X0057178Y0101928D01*
X0057110Y0102071D01*
X0057046Y0102216D01*
X0056986Y0102362D01*
X0056930Y0102510D01*
X0056877Y0102659D01*
X0056828Y0102810D01*
X0056783Y0102962D01*
X0056742Y0103115D01*
X0056704Y0103268D01*
X0056671Y0103423D01*
X0056641Y0103579D01*
X0056615Y0103735D01*
X0056594Y0103892D01*
X0056576Y0104049D01*
X0056562Y0104207D01*
X0056552Y0104365D01*
X0056546Y0104523D01*
X0056544Y0104681D01*
X0047095Y0104681D02*
X0047100Y0104300D01*
X0047113Y0103920D01*
X0047136Y0103540D01*
X0047169Y0103161D01*
X0047210Y0102783D01*
X0047260Y0102406D01*
X0047320Y0102030D01*
X0047388Y0101655D01*
X0047466Y0101283D01*
X0047553Y0100912D01*
X0047648Y0100544D01*
X0047753Y0100178D01*
X0047866Y0099815D01*
X0047988Y0099454D01*
X0048118Y0099097D01*
X0048258Y0098743D01*
X0048405Y0098392D01*
X0048562Y0098045D01*
X0048726Y0097702D01*
X0048899Y0097363D01*
X0049080Y0097028D01*
X0049269Y0096697D01*
X0049466Y0096372D01*
X0049670Y0096051D01*
X0049883Y0095735D01*
X0050103Y0095425D01*
X0050330Y0095119D01*
X0050565Y0094820D01*
X0050807Y0094526D01*
X0051055Y0094238D01*
X0051311Y0093956D01*
X0051574Y0093681D01*
X0051843Y0093412D01*
X0052118Y0093149D01*
X0052400Y0092893D01*
X0052688Y0092645D01*
X0052982Y0092403D01*
X0053281Y0092168D01*
X0053587Y0091941D01*
X0053897Y0091721D01*
X0054213Y0091508D01*
X0054534Y0091304D01*
X0054859Y0091107D01*
X0055190Y0090918D01*
X0055525Y0090737D01*
X0055864Y0090564D01*
X0056207Y0090400D01*
X0056554Y0090243D01*
X0056905Y0090096D01*
X0057259Y0089956D01*
X0057616Y0089826D01*
X0057977Y0089704D01*
X0058340Y0089591D01*
X0058706Y0089486D01*
X0059074Y0089391D01*
X0059445Y0089304D01*
X0059817Y0089226D01*
X0060192Y0089158D01*
X0060568Y0089098D01*
X0060945Y0089048D01*
X0061323Y0089007D01*
X0061702Y0088974D01*
X0062082Y0088951D01*
X0062462Y0088938D01*
X0062843Y0088933D01*
X0143551Y0131846D02*
X0143553Y0131934D01*
X0143559Y0132022D01*
X0143569Y0132110D01*
X0143583Y0132198D01*
X0143600Y0132284D01*
X0143622Y0132370D01*
X0143647Y0132454D01*
X0143677Y0132538D01*
X0143709Y0132620D01*
X0143746Y0132700D01*
X0143786Y0132779D01*
X0143830Y0132856D01*
X0143877Y0132931D01*
X0143927Y0133003D01*
X0143981Y0133074D01*
X0144037Y0133141D01*
X0144097Y0133207D01*
X0144159Y0133269D01*
X0144225Y0133329D01*
X0144292Y0133385D01*
X0144363Y0133439D01*
X0144435Y0133489D01*
X0144510Y0133536D01*
X0144587Y0133580D01*
X0144666Y0133620D01*
X0144746Y0133657D01*
X0144828Y0133689D01*
X0144912Y0133719D01*
X0144996Y0133744D01*
X0145082Y0133766D01*
X0145168Y0133783D01*
X0145256Y0133797D01*
X0145344Y0133807D01*
X0145432Y0133813D01*
X0145520Y0133815D01*
X0145608Y0133813D01*
X0145696Y0133807D01*
X0145784Y0133797D01*
X0145872Y0133783D01*
X0145958Y0133766D01*
X0146044Y0133744D01*
X0146128Y0133719D01*
X0146212Y0133689D01*
X0146294Y0133657D01*
X0146374Y0133620D01*
X0146453Y0133580D01*
X0146530Y0133536D01*
X0146605Y0133489D01*
X0146677Y0133439D01*
X0146748Y0133385D01*
X0146815Y0133329D01*
X0146881Y0133269D01*
X0146943Y0133207D01*
X0147003Y0133141D01*
X0147059Y0133074D01*
X0147113Y0133003D01*
X0147163Y0132931D01*
X0147210Y0132856D01*
X0147254Y0132779D01*
X0147294Y0132700D01*
X0147331Y0132620D01*
X0147363Y0132538D01*
X0147393Y0132454D01*
X0147418Y0132370D01*
X0147440Y0132284D01*
X0147457Y0132198D01*
X0147471Y0132110D01*
X0147481Y0132022D01*
X0147487Y0131934D01*
X0147489Y0131846D01*
X0147487Y0131758D01*
X0147481Y0131670D01*
X0147471Y0131582D01*
X0147457Y0131494D01*
X0147440Y0131408D01*
X0147418Y0131322D01*
X0147393Y0131238D01*
X0147363Y0131154D01*
X0147331Y0131072D01*
X0147294Y0130992D01*
X0147254Y0130913D01*
X0147210Y0130836D01*
X0147163Y0130761D01*
X0147113Y0130689D01*
X0147059Y0130618D01*
X0147003Y0130551D01*
X0146943Y0130485D01*
X0146881Y0130423D01*
X0146815Y0130363D01*
X0146748Y0130307D01*
X0146677Y0130253D01*
X0146605Y0130203D01*
X0146530Y0130156D01*
X0146453Y0130112D01*
X0146374Y0130072D01*
X0146294Y0130035D01*
X0146212Y0130003D01*
X0146128Y0129973D01*
X0146044Y0129948D01*
X0145958Y0129926D01*
X0145872Y0129909D01*
X0145784Y0129895D01*
X0145696Y0129885D01*
X0145608Y0129879D01*
X0145520Y0129877D01*
X0145432Y0129879D01*
X0145344Y0129885D01*
X0145256Y0129895D01*
X0145168Y0129909D01*
X0145082Y0129926D01*
X0144996Y0129948D01*
X0144912Y0129973D01*
X0144828Y0130003D01*
X0144746Y0130035D01*
X0144666Y0130072D01*
X0144587Y0130112D01*
X0144510Y0130156D01*
X0144435Y0130203D01*
X0144363Y0130253D01*
X0144292Y0130307D01*
X0144225Y0130363D01*
X0144159Y0130423D01*
X0144097Y0130485D01*
X0144037Y0130551D01*
X0143981Y0130618D01*
X0143927Y0130689D01*
X0143877Y0130761D01*
X0143830Y0130836D01*
X0143786Y0130913D01*
X0143746Y0130992D01*
X0143709Y0131072D01*
X0143677Y0131154D01*
X0143647Y0131238D01*
X0143622Y0131322D01*
X0143600Y0131408D01*
X0143583Y0131494D01*
X0143569Y0131582D01*
X0143559Y0131670D01*
X0143553Y0131758D01*
X0143551Y0131846D01*
X0153393Y0101925D02*
X0153395Y0102013D01*
X0153401Y0102101D01*
X0153411Y0102189D01*
X0153425Y0102277D01*
X0153442Y0102363D01*
X0153464Y0102449D01*
X0153489Y0102533D01*
X0153519Y0102617D01*
X0153551Y0102699D01*
X0153588Y0102779D01*
X0153628Y0102858D01*
X0153672Y0102935D01*
X0153719Y0103010D01*
X0153769Y0103082D01*
X0153823Y0103153D01*
X0153879Y0103220D01*
X0153939Y0103286D01*
X0154001Y0103348D01*
X0154067Y0103408D01*
X0154134Y0103464D01*
X0154205Y0103518D01*
X0154277Y0103568D01*
X0154352Y0103615D01*
X0154429Y0103659D01*
X0154508Y0103699D01*
X0154588Y0103736D01*
X0154670Y0103768D01*
X0154754Y0103798D01*
X0154838Y0103823D01*
X0154924Y0103845D01*
X0155010Y0103862D01*
X0155098Y0103876D01*
X0155186Y0103886D01*
X0155274Y0103892D01*
X0155362Y0103894D01*
X0155450Y0103892D01*
X0155538Y0103886D01*
X0155626Y0103876D01*
X0155714Y0103862D01*
X0155800Y0103845D01*
X0155886Y0103823D01*
X0155970Y0103798D01*
X0156054Y0103768D01*
X0156136Y0103736D01*
X0156216Y0103699D01*
X0156295Y0103659D01*
X0156372Y0103615D01*
X0156447Y0103568D01*
X0156519Y0103518D01*
X0156590Y0103464D01*
X0156657Y0103408D01*
X0156723Y0103348D01*
X0156785Y0103286D01*
X0156845Y0103220D01*
X0156901Y0103153D01*
X0156955Y0103082D01*
X0157005Y0103010D01*
X0157052Y0102935D01*
X0157096Y0102858D01*
X0157136Y0102779D01*
X0157173Y0102699D01*
X0157205Y0102617D01*
X0157235Y0102533D01*
X0157260Y0102449D01*
X0157282Y0102363D01*
X0157299Y0102277D01*
X0157313Y0102189D01*
X0157323Y0102101D01*
X0157329Y0102013D01*
X0157331Y0101925D01*
X0157329Y0101837D01*
X0157323Y0101749D01*
X0157313Y0101661D01*
X0157299Y0101573D01*
X0157282Y0101487D01*
X0157260Y0101401D01*
X0157235Y0101317D01*
X0157205Y0101233D01*
X0157173Y0101151D01*
X0157136Y0101071D01*
X0157096Y0100992D01*
X0157052Y0100915D01*
X0157005Y0100840D01*
X0156955Y0100768D01*
X0156901Y0100697D01*
X0156845Y0100630D01*
X0156785Y0100564D01*
X0156723Y0100502D01*
X0156657Y0100442D01*
X0156590Y0100386D01*
X0156519Y0100332D01*
X0156447Y0100282D01*
X0156372Y0100235D01*
X0156295Y0100191D01*
X0156216Y0100151D01*
X0156136Y0100114D01*
X0156054Y0100082D01*
X0155970Y0100052D01*
X0155886Y0100027D01*
X0155800Y0100005D01*
X0155714Y0099988D01*
X0155626Y0099974D01*
X0155538Y0099964D01*
X0155450Y0099958D01*
X0155362Y0099956D01*
X0155274Y0099958D01*
X0155186Y0099964D01*
X0155098Y0099974D01*
X0155010Y0099988D01*
X0154924Y0100005D01*
X0154838Y0100027D01*
X0154754Y0100052D01*
X0154670Y0100082D01*
X0154588Y0100114D01*
X0154508Y0100151D01*
X0154429Y0100191D01*
X0154352Y0100235D01*
X0154277Y0100282D01*
X0154205Y0100332D01*
X0154134Y0100386D01*
X0154067Y0100442D01*
X0154001Y0100502D01*
X0153939Y0100564D01*
X0153879Y0100630D01*
X0153823Y0100697D01*
X0153769Y0100768D01*
X0153719Y0100840D01*
X0153672Y0100915D01*
X0153628Y0100992D01*
X0153588Y0101071D01*
X0153551Y0101151D01*
X0153519Y0101233D01*
X0153489Y0101317D01*
X0153464Y0101401D01*
X0153442Y0101487D01*
X0153425Y0101573D01*
X0153411Y0101661D01*
X0153401Y0101749D01*
X0153395Y0101837D01*
X0153393Y0101925D01*
X0173078Y0101925D02*
X0173080Y0102013D01*
X0173086Y0102101D01*
X0173096Y0102189D01*
X0173110Y0102277D01*
X0173127Y0102363D01*
X0173149Y0102449D01*
X0173174Y0102533D01*
X0173204Y0102617D01*
X0173236Y0102699D01*
X0173273Y0102779D01*
X0173313Y0102858D01*
X0173357Y0102935D01*
X0173404Y0103010D01*
X0173454Y0103082D01*
X0173508Y0103153D01*
X0173564Y0103220D01*
X0173624Y0103286D01*
X0173686Y0103348D01*
X0173752Y0103408D01*
X0173819Y0103464D01*
X0173890Y0103518D01*
X0173962Y0103568D01*
X0174037Y0103615D01*
X0174114Y0103659D01*
X0174193Y0103699D01*
X0174273Y0103736D01*
X0174355Y0103768D01*
X0174439Y0103798D01*
X0174523Y0103823D01*
X0174609Y0103845D01*
X0174695Y0103862D01*
X0174783Y0103876D01*
X0174871Y0103886D01*
X0174959Y0103892D01*
X0175047Y0103894D01*
X0175135Y0103892D01*
X0175223Y0103886D01*
X0175311Y0103876D01*
X0175399Y0103862D01*
X0175485Y0103845D01*
X0175571Y0103823D01*
X0175655Y0103798D01*
X0175739Y0103768D01*
X0175821Y0103736D01*
X0175901Y0103699D01*
X0175980Y0103659D01*
X0176057Y0103615D01*
X0176132Y0103568D01*
X0176204Y0103518D01*
X0176275Y0103464D01*
X0176342Y0103408D01*
X0176408Y0103348D01*
X0176470Y0103286D01*
X0176530Y0103220D01*
X0176586Y0103153D01*
X0176640Y0103082D01*
X0176690Y0103010D01*
X0176737Y0102935D01*
X0176781Y0102858D01*
X0176821Y0102779D01*
X0176858Y0102699D01*
X0176890Y0102617D01*
X0176920Y0102533D01*
X0176945Y0102449D01*
X0176967Y0102363D01*
X0176984Y0102277D01*
X0176998Y0102189D01*
X0177008Y0102101D01*
X0177014Y0102013D01*
X0177016Y0101925D01*
X0177014Y0101837D01*
X0177008Y0101749D01*
X0176998Y0101661D01*
X0176984Y0101573D01*
X0176967Y0101487D01*
X0176945Y0101401D01*
X0176920Y0101317D01*
X0176890Y0101233D01*
X0176858Y0101151D01*
X0176821Y0101071D01*
X0176781Y0100992D01*
X0176737Y0100915D01*
X0176690Y0100840D01*
X0176640Y0100768D01*
X0176586Y0100697D01*
X0176530Y0100630D01*
X0176470Y0100564D01*
X0176408Y0100502D01*
X0176342Y0100442D01*
X0176275Y0100386D01*
X0176204Y0100332D01*
X0176132Y0100282D01*
X0176057Y0100235D01*
X0175980Y0100191D01*
X0175901Y0100151D01*
X0175821Y0100114D01*
X0175739Y0100082D01*
X0175655Y0100052D01*
X0175571Y0100027D01*
X0175485Y0100005D01*
X0175399Y0099988D01*
X0175311Y0099974D01*
X0175223Y0099964D01*
X0175135Y0099958D01*
X0175047Y0099956D01*
X0174959Y0099958D01*
X0174871Y0099964D01*
X0174783Y0099974D01*
X0174695Y0099988D01*
X0174609Y0100005D01*
X0174523Y0100027D01*
X0174439Y0100052D01*
X0174355Y0100082D01*
X0174273Y0100114D01*
X0174193Y0100151D01*
X0174114Y0100191D01*
X0174037Y0100235D01*
X0173962Y0100282D01*
X0173890Y0100332D01*
X0173819Y0100386D01*
X0173752Y0100442D01*
X0173686Y0100502D01*
X0173624Y0100564D01*
X0173564Y0100630D01*
X0173508Y0100697D01*
X0173454Y0100768D01*
X0173404Y0100840D01*
X0173357Y0100915D01*
X0173313Y0100992D01*
X0173273Y0101071D01*
X0173236Y0101151D01*
X0173204Y0101233D01*
X0173174Y0101317D01*
X0173149Y0101401D01*
X0173127Y0101487D01*
X0173110Y0101573D01*
X0173096Y0101661D01*
X0173086Y0101749D01*
X0173080Y0101837D01*
X0173078Y0101925D01*
X0182921Y0131846D02*
X0182923Y0131934D01*
X0182929Y0132022D01*
X0182939Y0132110D01*
X0182953Y0132198D01*
X0182970Y0132284D01*
X0182992Y0132370D01*
X0183017Y0132454D01*
X0183047Y0132538D01*
X0183079Y0132620D01*
X0183116Y0132700D01*
X0183156Y0132779D01*
X0183200Y0132856D01*
X0183247Y0132931D01*
X0183297Y0133003D01*
X0183351Y0133074D01*
X0183407Y0133141D01*
X0183467Y0133207D01*
X0183529Y0133269D01*
X0183595Y0133329D01*
X0183662Y0133385D01*
X0183733Y0133439D01*
X0183805Y0133489D01*
X0183880Y0133536D01*
X0183957Y0133580D01*
X0184036Y0133620D01*
X0184116Y0133657D01*
X0184198Y0133689D01*
X0184282Y0133719D01*
X0184366Y0133744D01*
X0184452Y0133766D01*
X0184538Y0133783D01*
X0184626Y0133797D01*
X0184714Y0133807D01*
X0184802Y0133813D01*
X0184890Y0133815D01*
X0184978Y0133813D01*
X0185066Y0133807D01*
X0185154Y0133797D01*
X0185242Y0133783D01*
X0185328Y0133766D01*
X0185414Y0133744D01*
X0185498Y0133719D01*
X0185582Y0133689D01*
X0185664Y0133657D01*
X0185744Y0133620D01*
X0185823Y0133580D01*
X0185900Y0133536D01*
X0185975Y0133489D01*
X0186047Y0133439D01*
X0186118Y0133385D01*
X0186185Y0133329D01*
X0186251Y0133269D01*
X0186313Y0133207D01*
X0186373Y0133141D01*
X0186429Y0133074D01*
X0186483Y0133003D01*
X0186533Y0132931D01*
X0186580Y0132856D01*
X0186624Y0132779D01*
X0186664Y0132700D01*
X0186701Y0132620D01*
X0186733Y0132538D01*
X0186763Y0132454D01*
X0186788Y0132370D01*
X0186810Y0132284D01*
X0186827Y0132198D01*
X0186841Y0132110D01*
X0186851Y0132022D01*
X0186857Y0131934D01*
X0186859Y0131846D01*
X0186857Y0131758D01*
X0186851Y0131670D01*
X0186841Y0131582D01*
X0186827Y0131494D01*
X0186810Y0131408D01*
X0186788Y0131322D01*
X0186763Y0131238D01*
X0186733Y0131154D01*
X0186701Y0131072D01*
X0186664Y0130992D01*
X0186624Y0130913D01*
X0186580Y0130836D01*
X0186533Y0130761D01*
X0186483Y0130689D01*
X0186429Y0130618D01*
X0186373Y0130551D01*
X0186313Y0130485D01*
X0186251Y0130423D01*
X0186185Y0130363D01*
X0186118Y0130307D01*
X0186047Y0130253D01*
X0185975Y0130203D01*
X0185900Y0130156D01*
X0185823Y0130112D01*
X0185744Y0130072D01*
X0185664Y0130035D01*
X0185582Y0130003D01*
X0185498Y0129973D01*
X0185414Y0129948D01*
X0185328Y0129926D01*
X0185242Y0129909D01*
X0185154Y0129895D01*
X0185066Y0129885D01*
X0184978Y0129879D01*
X0184890Y0129877D01*
X0184802Y0129879D01*
X0184714Y0129885D01*
X0184626Y0129895D01*
X0184538Y0129909D01*
X0184452Y0129926D01*
X0184366Y0129948D01*
X0184282Y0129973D01*
X0184198Y0130003D01*
X0184116Y0130035D01*
X0184036Y0130072D01*
X0183957Y0130112D01*
X0183880Y0130156D01*
X0183805Y0130203D01*
X0183733Y0130253D01*
X0183662Y0130307D01*
X0183595Y0130363D01*
X0183529Y0130423D01*
X0183467Y0130485D01*
X0183407Y0130551D01*
X0183351Y0130618D01*
X0183297Y0130689D01*
X0183247Y0130761D01*
X0183200Y0130836D01*
X0183156Y0130913D01*
X0183116Y0130992D01*
X0183079Y0131072D01*
X0183047Y0131154D01*
X0183017Y0131238D01*
X0182992Y0131322D01*
X0182970Y0131408D01*
X0182953Y0131494D01*
X0182939Y0131582D01*
X0182929Y0131670D01*
X0182923Y0131758D01*
X0182921Y0131846D01*
M02*
