G75*
%MOIN*%
%OFA0B0*%
%FSLAX25Y25*%
%IPPOS*%
%LPD*%
%AMOC8*
5,1,8,0,0,1.08239X$1,22.5*
%
%ADD10C,0.00400*%
%ADD11OC8,0.06300*%
%ADD12C,0.05200*%
%ADD13R,0.05543X0.05543*%
%ADD14C,0.05543*%
%ADD15R,0.05150X0.05150*%
%ADD16C,0.05150*%
%ADD17C,0.17000*%
%ADD18C,0.06000*%
%ADD19OC8,0.06600*%
%ADD20OC8,0.05200*%
%ADD21OC8,0.08500*%
%ADD22C,0.06496*%
%ADD23C,0.05150*%
%ADD24C,0.11811*%
%ADD25C,0.05937*%
%ADD26C,0.08600*%
%ADD27OC8,0.08600*%
%ADD28C,0.02400*%
%ADD29C,0.03600*%
%ADD30C,0.01600*%
%ADD31C,0.02200*%
%ADD32C,0.02400*%
D10*
X0079865Y0096633D02*
X0079098Y0097400D01*
X0079098Y0098168D01*
X0079865Y0098935D01*
X0082167Y0098935D01*
X0083702Y0098168D02*
X0083702Y0097400D01*
X0084469Y0096633D01*
X0086004Y0096633D01*
X0086771Y0097400D01*
X0088306Y0096633D02*
X0091375Y0096633D01*
X0089840Y0096633D02*
X0089840Y0101237D01*
X0091375Y0099702D01*
X0092910Y0100470D02*
X0095979Y0097400D01*
X0095211Y0096633D01*
X0093677Y0096633D01*
X0092910Y0097400D01*
X0092910Y0100470D01*
X0093677Y0101237D01*
X0095211Y0101237D01*
X0095979Y0100470D01*
X0095979Y0097400D01*
X0097513Y0100470D02*
X0100583Y0097400D01*
X0100583Y0096633D01*
X0102117Y0096633D02*
X0105187Y0096633D01*
X0103652Y0096633D02*
X0103652Y0101237D01*
X0105187Y0099702D01*
X0106721Y0100470D02*
X0106721Y0097400D01*
X0107489Y0096633D01*
X0109791Y0096633D01*
X0109791Y0101237D01*
X0107489Y0101237D01*
X0106721Y0100470D01*
X0111325Y0096633D02*
X0114394Y0096633D01*
X0114394Y0101237D01*
X0100583Y0101237D02*
X0097513Y0101237D01*
X0097513Y0100470D01*
X0086771Y0100470D02*
X0086004Y0101237D01*
X0084469Y0101237D01*
X0083702Y0100470D01*
X0083702Y0099702D01*
X0084469Y0098935D01*
X0083702Y0098168D01*
X0084469Y0098935D02*
X0085236Y0098935D01*
X0082167Y0096633D02*
X0079865Y0096633D01*
X0082167Y0096633D02*
X0082167Y0101237D01*
X0079865Y0101237D01*
X0079098Y0100470D01*
X0079098Y0099702D01*
X0079865Y0098935D01*
D11*
X0069594Y0121433D03*
X0059594Y0121433D03*
X0059594Y0141433D03*
X0069594Y0141433D03*
X0104594Y0171433D03*
X0114594Y0171433D03*
X0114594Y0191433D03*
X0104594Y0191433D03*
X0162094Y0203933D03*
X0162094Y0223933D03*
X0232094Y0223933D03*
X0232094Y0203933D03*
X0272094Y0218933D03*
X0272094Y0228933D03*
X0292094Y0228933D03*
X0292094Y0218933D03*
X0197094Y0148933D03*
X0177094Y0148933D03*
X0202094Y0118933D03*
X0202094Y0098933D03*
X0234594Y0116433D03*
X0254594Y0116433D03*
X0264594Y0116433D03*
X0284594Y0116433D03*
X0127094Y0118933D03*
X0127094Y0098933D03*
D12*
X0092194Y0160183D02*
X0086994Y0160183D01*
X0086994Y0167683D02*
X0092194Y0167683D01*
D13*
X0142094Y0241433D03*
X0202094Y0241433D03*
D14*
X0212094Y0241433D03*
X0222094Y0241433D03*
X0232094Y0241433D03*
X0172094Y0241433D03*
X0162094Y0241433D03*
X0152094Y0241433D03*
D15*
X0085283Y0246433D03*
D16*
X0093157Y0246433D03*
X0101031Y0246433D03*
X0108906Y0246433D03*
D17*
X0093157Y0142870D03*
X0111661Y0131059D03*
X0093157Y0119248D03*
D18*
X0252094Y0243433D02*
X0252094Y0249433D01*
X0262094Y0249433D02*
X0262094Y0243433D01*
X0272094Y0243433D02*
X0272094Y0249433D01*
X0282094Y0249433D02*
X0282094Y0243433D01*
D19*
X0224594Y0186433D03*
X0214594Y0186433D03*
X0197094Y0186433D03*
X0187094Y0186433D03*
X0169594Y0186433D03*
X0159594Y0186433D03*
X0213354Y0108618D03*
X0223354Y0108618D03*
D20*
X0235844Y0126433D03*
X0255844Y0126433D03*
X0263344Y0126433D03*
X0283344Y0126433D03*
X0232094Y0166433D03*
X0232094Y0176433D03*
X0212094Y0166433D03*
X0204594Y0176433D03*
X0204594Y0196433D03*
X0212094Y0203933D03*
X0222094Y0203933D03*
X0232094Y0196433D03*
X0252094Y0216433D03*
X0262094Y0216433D03*
X0262094Y0236433D03*
X0272094Y0236433D03*
X0252094Y0236433D03*
X0222094Y0223933D03*
X0212094Y0223933D03*
X0199594Y0218933D03*
X0192094Y0213933D03*
X0199594Y0208933D03*
X0184594Y0203933D03*
X0174594Y0203933D03*
X0177094Y0196433D03*
X0177094Y0176433D03*
X0168344Y0163933D03*
X0159594Y0163933D03*
X0150844Y0163933D03*
X0149594Y0171433D03*
X0139594Y0171433D03*
X0139594Y0191433D03*
X0149594Y0191433D03*
X0152094Y0203933D03*
X0142094Y0203933D03*
X0129594Y0208933D03*
X0122094Y0213933D03*
X0129594Y0218933D03*
X0142094Y0223933D03*
X0152094Y0223933D03*
X0174594Y0223933D03*
X0184594Y0223933D03*
X0114594Y0223933D03*
X0104594Y0223933D03*
X0104594Y0203933D03*
X0114594Y0203933D03*
X0114594Y0163933D03*
X0114594Y0143933D03*
X0150844Y0143933D03*
X0159594Y0143933D03*
X0168344Y0143933D03*
X0292094Y0236433D03*
D21*
X0087099Y0203323D03*
X0061499Y0203323D03*
D22*
X0231799Y0103933D03*
X0257390Y0103933D03*
X0264299Y0103933D03*
X0289890Y0103933D03*
D23*
X0072169Y0151433D02*
X0067020Y0151433D01*
X0067020Y0161433D02*
X0072169Y0161433D01*
X0072169Y0171433D02*
X0067020Y0171433D01*
D24*
X0140598Y0110587D03*
X0165205Y0107437D03*
X0189811Y0110587D03*
D25*
X0178591Y0122398D03*
X0170323Y0122398D03*
X0178591Y0132240D03*
X0151819Y0132240D03*
X0151819Y0122398D03*
D26*
X0207094Y0138933D03*
D27*
X0227094Y0138933D03*
D28*
X0256394Y0132483D02*
X0256394Y0126633D01*
X0255844Y0126433D01*
X0256394Y0132483D02*
X0278169Y0154258D01*
X0278494Y0153933D01*
X0204594Y0176433D02*
X0204394Y0176683D01*
X0177094Y0176683D01*
X0177094Y0176433D01*
X0162094Y0203933D02*
X0161494Y0203983D01*
X0159544Y0203983D01*
X0144594Y0218933D01*
X0129594Y0218933D01*
X0108844Y0235833D02*
X0099094Y0226083D01*
X0099094Y0209183D01*
X0104294Y0203983D01*
X0104594Y0203933D01*
X0114594Y0191433D02*
X0114044Y0190983D01*
X0114044Y0180583D01*
X0104944Y0171483D01*
X0104594Y0171433D01*
X0077644Y0153283D02*
X0069844Y0161083D01*
X0069594Y0161433D01*
X0077644Y0153283D02*
X0077644Y0141583D01*
X0069844Y0133783D01*
X0069844Y0121433D01*
X0069594Y0121433D01*
X0139394Y0131833D02*
X0148494Y0122733D01*
X0151744Y0122733D01*
X0151819Y0122398D01*
X0139394Y0131833D02*
X0139394Y0154583D01*
X0169944Y0133133D02*
X0170594Y0132483D01*
X0182944Y0144833D01*
X0192694Y0144833D01*
X0196594Y0148733D01*
X0197094Y0148933D01*
X0170594Y0132483D02*
X0170594Y0122733D01*
X0170323Y0122398D01*
X0271994Y0218933D02*
X0272094Y0218933D01*
X0271994Y0218933D02*
X0271994Y0228033D01*
X0272094Y0228933D01*
X0271994Y0229333D01*
X0244044Y0229333D01*
X0232344Y0241033D02*
X0232094Y0241433D01*
X0108906Y0246433D02*
X0108844Y0246233D01*
X0108844Y0235833D01*
D29*
X0139394Y0154583D03*
X0278494Y0153933D03*
D30*
X0075454Y0104383D02*
X0075454Y0090733D01*
X0294326Y0090733D01*
X0294326Y0100947D01*
X0292863Y0099484D01*
X0290934Y0098685D01*
X0288846Y0098685D01*
X0286917Y0099484D01*
X0285441Y0100960D01*
X0284642Y0102889D01*
X0284642Y0103346D01*
X0275973Y0094677D01*
X0275100Y0093805D01*
X0273961Y0093333D01*
X0224923Y0093333D01*
X0223783Y0093805D01*
X0214270Y0103318D01*
X0211159Y0103318D01*
X0208054Y0106423D01*
X0208054Y0110813D01*
X0211159Y0113918D01*
X0212695Y0113918D01*
X0213994Y0115217D01*
X0213994Y0150149D01*
X0212060Y0152083D01*
X0200945Y0152083D01*
X0202044Y0150983D01*
X0202044Y0148933D01*
X0197095Y0148933D01*
X0197095Y0148933D01*
X0202044Y0148933D01*
X0202044Y0146883D01*
X0199145Y0143983D01*
X0197095Y0143983D01*
X0197095Y0148933D01*
X0197094Y0148933D01*
X0192144Y0148933D01*
X0192144Y0146883D01*
X0195044Y0143983D01*
X0197094Y0143983D01*
X0197094Y0148933D01*
X0197094Y0148933D01*
X0192144Y0148933D01*
X0192144Y0149599D01*
X0189723Y0147177D01*
X0188850Y0146305D01*
X0187711Y0145833D01*
X0181278Y0145833D01*
X0179228Y0143783D01*
X0174961Y0143783D01*
X0172944Y0145800D01*
X0172944Y0142028D01*
X0170250Y0139333D01*
X0166439Y0139333D01*
X0163969Y0141803D01*
X0161500Y0139333D01*
X0157689Y0139333D01*
X0155078Y0141944D01*
X0152667Y0139533D01*
X0150845Y0139533D01*
X0150845Y0143933D01*
X0150844Y0143933D01*
X0146444Y0143933D01*
X0146444Y0142111D01*
X0149022Y0139533D01*
X0150844Y0139533D01*
X0150844Y0143933D01*
X0150844Y0143933D01*
X0146444Y0143933D01*
X0146444Y0145756D01*
X0149022Y0148333D01*
X0150844Y0148333D01*
X0150844Y0143933D01*
X0150845Y0143933D01*
X0150845Y0148333D01*
X0152667Y0148333D01*
X0155078Y0145922D01*
X0157689Y0148533D01*
X0161500Y0148533D01*
X0163969Y0146063D01*
X0166439Y0148533D01*
X0170250Y0148533D01*
X0171944Y0146838D01*
X0171944Y0151066D01*
X0173994Y0153116D01*
X0173994Y0161399D01*
X0172944Y0162449D01*
X0172944Y0162028D01*
X0170250Y0159333D01*
X0166439Y0159333D01*
X0163969Y0161803D01*
X0161500Y0159333D01*
X0157689Y0159333D01*
X0155219Y0161803D01*
X0152750Y0159333D01*
X0148939Y0159333D01*
X0146244Y0162028D01*
X0146244Y0165838D01*
X0147464Y0167058D01*
X0146189Y0168333D01*
X0143000Y0168333D01*
X0141500Y0166833D01*
X0139379Y0166833D01*
X0129723Y0157177D01*
X0128850Y0156305D01*
X0127711Y0155833D01*
X0112711Y0155833D01*
X0111478Y0155833D01*
X0110338Y0156305D01*
X0105338Y0161305D01*
X0104560Y0162083D01*
X0098978Y0162083D01*
X0097838Y0162555D01*
X0095810Y0164583D01*
X0095600Y0164583D01*
X0094800Y0163783D01*
X0094752Y0163763D01*
X0095061Y0163539D01*
X0095551Y0163049D01*
X0095958Y0162489D01*
X0096272Y0161872D01*
X0096486Y0161213D01*
X0096594Y0160529D01*
X0096594Y0160183D01*
X0089595Y0160183D01*
X0089595Y0160183D01*
X0096594Y0160183D01*
X0096594Y0159837D01*
X0096486Y0159153D01*
X0096272Y0158494D01*
X0095958Y0157877D01*
X0095551Y0157317D01*
X0095061Y0156827D01*
X0094501Y0156420D01*
X0093884Y0156105D01*
X0093225Y0155891D01*
X0092541Y0155783D01*
X0089595Y0155783D01*
X0089595Y0160183D01*
X0089594Y0160183D01*
X0082594Y0160183D01*
X0082594Y0159837D01*
X0082703Y0159153D01*
X0082917Y0158494D01*
X0083231Y0157877D01*
X0083638Y0157317D01*
X0084128Y0156827D01*
X0084688Y0156420D01*
X0085305Y0156105D01*
X0085964Y0155891D01*
X0086648Y0155783D01*
X0089594Y0155783D01*
X0089594Y0160183D01*
X0089594Y0160183D01*
X0082594Y0160183D01*
X0082594Y0160529D01*
X0082703Y0161213D01*
X0082917Y0161872D01*
X0083231Y0162489D01*
X0083638Y0163049D01*
X0084128Y0163539D01*
X0084437Y0163763D01*
X0084389Y0163783D01*
X0083314Y0164858D01*
X0082838Y0165055D01*
X0081966Y0165927D01*
X0081966Y0165927D01*
X0079560Y0168333D01*
X0075539Y0168333D01*
X0074761Y0167555D01*
X0073079Y0166858D01*
X0066110Y0166858D01*
X0064428Y0167555D01*
X0063141Y0168842D01*
X0062445Y0170523D01*
X0062445Y0172343D01*
X0063141Y0174024D01*
X0064428Y0175311D01*
X0066110Y0176008D01*
X0066494Y0176008D01*
X0066494Y0199762D01*
X0064005Y0197273D01*
X0061599Y0197273D01*
X0061599Y0203223D01*
X0061399Y0203223D01*
X0061399Y0197273D01*
X0058993Y0197273D01*
X0057694Y0198572D01*
X0057694Y0147717D01*
X0058829Y0146583D01*
X0061728Y0146583D01*
X0064594Y0143716D01*
X0067461Y0146583D01*
X0071728Y0146583D01*
X0074744Y0143566D01*
X0074744Y0139300D01*
X0071728Y0136283D01*
X0067461Y0136283D01*
X0064594Y0139150D01*
X0061728Y0136283D01*
X0057461Y0136283D01*
X0054444Y0139300D01*
X0054444Y0142199D01*
X0051966Y0144677D01*
X0051494Y0145816D01*
X0051494Y0224550D01*
X0051966Y0225689D01*
X0056143Y0229865D01*
X0048894Y0229865D01*
X0048894Y0117292D01*
X0056735Y0117292D01*
X0054644Y0119383D01*
X0054644Y0121433D01*
X0059594Y0121433D01*
X0059594Y0121433D01*
X0054644Y0121433D01*
X0054644Y0123483D01*
X0057544Y0126383D01*
X0059594Y0126383D01*
X0059594Y0121433D01*
X0059595Y0121433D01*
X0059595Y0121433D01*
X0064544Y0121433D01*
X0064544Y0119383D01*
X0062454Y0117292D01*
X0062544Y0117292D01*
X0062569Y0117314D01*
X0062871Y0117292D01*
X0063174Y0117292D01*
X0063197Y0117269D01*
X0064315Y0117189D01*
X0064370Y0117224D01*
X0064638Y0117166D01*
X0064911Y0117146D01*
X0064954Y0117097D01*
X0066080Y0116852D01*
X0066139Y0116879D01*
X0066396Y0116783D01*
X0066664Y0116725D01*
X0066699Y0116670D01*
X0067779Y0116267D01*
X0067842Y0116286D01*
X0068082Y0116154D01*
X0068339Y0116059D01*
X0068366Y0115999D01*
X0069378Y0115447D01*
X0069442Y0115456D01*
X0069662Y0115292D01*
X0069902Y0115160D01*
X0069921Y0115098D01*
X0070843Y0114407D01*
X0070908Y0114407D01*
X0071102Y0114213D01*
X0071322Y0114049D01*
X0071331Y0113985D01*
X0072146Y0113170D01*
X0072211Y0113160D01*
X0072375Y0112941D01*
X0072569Y0112747D01*
X0072569Y0112682D01*
X0073259Y0111759D01*
X0073322Y0111741D01*
X0073453Y0111500D01*
X0073618Y0111281D01*
X0073608Y0111216D01*
X0074161Y0110205D01*
X0074220Y0110178D01*
X0074316Y0109921D01*
X0074447Y0109680D01*
X0074429Y0109618D01*
X0074832Y0108538D01*
X0074886Y0108502D01*
X0074945Y0108235D01*
X0075040Y0107978D01*
X0075013Y0107919D01*
X0075258Y0106792D01*
X0075308Y0106750D01*
X0075327Y0106476D01*
X0075385Y0106208D01*
X0075350Y0106153D01*
X0075430Y0105036D01*
X0075454Y0105012D01*
X0075454Y0104710D01*
X0075475Y0104408D01*
X0075454Y0104383D01*
X0075454Y0104918D02*
X0086725Y0104918D01*
X0086915Y0103437D02*
X0085994Y0103437D01*
X0085092Y0103437D01*
X0083558Y0103437D01*
X0083318Y0103197D01*
X0083078Y0103437D01*
X0078954Y0103437D01*
X0078186Y0102670D01*
X0076898Y0101381D01*
X0076898Y0098312D01*
X0076898Y0098312D01*
X0076898Y0097391D01*
X0076898Y0096489D01*
X0076913Y0096474D01*
X0078186Y0095200D01*
X0078186Y0095200D01*
X0078954Y0094433D01*
X0079856Y0094433D01*
X0083078Y0094433D01*
X0083318Y0094673D01*
X0083558Y0094433D01*
X0084460Y0094433D01*
X0086915Y0094433D01*
X0087155Y0094673D01*
X0087394Y0094433D01*
X0092286Y0094433D01*
X0092526Y0094673D01*
X0092766Y0094433D01*
X0093667Y0094433D01*
X0096123Y0094433D01*
X0098160Y0096470D01*
X0098179Y0096489D01*
X0098179Y0096693D01*
X0098383Y0096489D01*
X0098383Y0095722D01*
X0099671Y0094433D01*
X0106098Y0094433D01*
X0106338Y0094673D01*
X0106577Y0094433D01*
X0106577Y0094433D01*
X0106577Y0094433D01*
X0107498Y0094433D01*
X0115306Y0094433D01*
X0116594Y0095722D01*
X0116594Y0102148D01*
X0115410Y0103333D01*
X0118310Y0103333D01*
X0121944Y0099699D01*
X0121944Y0096800D01*
X0124961Y0093783D01*
X0129228Y0093783D01*
X0132244Y0096800D01*
X0132244Y0101066D01*
X0129228Y0104083D01*
X0126329Y0104083D01*
X0122223Y0108189D01*
X0121350Y0109061D01*
X0120211Y0109533D01*
X0096579Y0109533D01*
X0097105Y0109717D01*
X0098148Y0110219D01*
X0099127Y0110835D01*
X0100032Y0111556D01*
X0100850Y0112374D01*
X0101571Y0113278D01*
X0102186Y0114258D01*
X0102688Y0115300D01*
X0103071Y0116392D01*
X0103328Y0117520D01*
X0103432Y0118448D01*
X0093958Y0118448D01*
X0093958Y0120048D01*
X0103432Y0120048D01*
X0103328Y0120976D01*
X0103071Y0122104D01*
X0102688Y0123196D01*
X0102186Y0124238D01*
X0101571Y0125218D01*
X0100850Y0126122D01*
X0100032Y0126940D01*
X0099127Y0127662D01*
X0098148Y0128277D01*
X0097105Y0128779D01*
X0096013Y0129161D01*
X0094886Y0129418D01*
X0093957Y0129523D01*
X0093957Y0120048D01*
X0092357Y0120048D01*
X0092357Y0129523D01*
X0091429Y0129418D01*
X0090302Y0129161D01*
X0089210Y0128779D01*
X0088167Y0128277D01*
X0087188Y0127662D01*
X0086283Y0126940D01*
X0085465Y0126122D01*
X0085194Y0125783D01*
X0085194Y0130149D01*
X0088487Y0133442D01*
X0089105Y0133086D01*
X0091775Y0132370D01*
X0094540Y0132370D01*
X0097210Y0133086D01*
X0099605Y0134468D01*
X0101560Y0136423D01*
X0102942Y0138817D01*
X0103657Y0141488D01*
X0103657Y0144252D01*
X0102942Y0146923D01*
X0101560Y0149317D01*
X0099605Y0151272D01*
X0097210Y0152655D01*
X0094540Y0153370D01*
X0091775Y0153370D01*
X0089105Y0152655D01*
X0086710Y0151272D01*
X0084755Y0149317D01*
X0083373Y0146923D01*
X0082657Y0144252D01*
X0082657Y0141488D01*
X0083373Y0138817D01*
X0084003Y0137726D01*
X0079466Y0133189D01*
X0078994Y0132050D01*
X0078994Y0113316D01*
X0079466Y0112177D01*
X0080338Y0111305D01*
X0087838Y0103805D01*
X0088870Y0103378D01*
X0087922Y0102430D01*
X0086915Y0103437D01*
X0087032Y0103320D02*
X0088812Y0103320D01*
X0085092Y0103437D02*
X0085092Y0103437D01*
X0083440Y0103320D02*
X0083196Y0103320D01*
X0085127Y0106517D02*
X0075324Y0106517D01*
X0074989Y0108115D02*
X0083528Y0108115D01*
X0081930Y0109714D02*
X0074429Y0109714D01*
X0073594Y0111312D02*
X0080331Y0111312D01*
X0079163Y0112911D02*
X0072405Y0112911D01*
X0070707Y0114509D02*
X0078994Y0114509D01*
X0078994Y0116108D02*
X0068207Y0116108D01*
X0067544Y0116483D02*
X0064644Y0119383D01*
X0064644Y0121433D01*
X0069594Y0121433D01*
X0069594Y0121433D01*
X0064644Y0121433D01*
X0064644Y0123483D01*
X0067544Y0126383D01*
X0069594Y0126383D01*
X0069594Y0121433D01*
X0069595Y0121433D01*
X0069595Y0121433D01*
X0074544Y0121433D01*
X0074544Y0119383D01*
X0071645Y0116483D01*
X0069595Y0116483D01*
X0069595Y0121433D01*
X0074544Y0121433D01*
X0074544Y0123483D01*
X0071645Y0126383D01*
X0069595Y0126383D01*
X0069595Y0121433D01*
X0069594Y0121433D01*
X0069594Y0116483D01*
X0067544Y0116483D01*
X0066321Y0117706D02*
X0062868Y0117706D01*
X0064467Y0119305D02*
X0064722Y0119305D01*
X0064644Y0120903D02*
X0064544Y0120903D01*
X0064544Y0121433D02*
X0059595Y0121433D01*
X0059595Y0126383D01*
X0061645Y0126383D01*
X0064544Y0123483D01*
X0064544Y0121433D01*
X0064544Y0122502D02*
X0064644Y0122502D01*
X0065261Y0124100D02*
X0063928Y0124100D01*
X0062329Y0125699D02*
X0066860Y0125699D01*
X0069594Y0125699D02*
X0069595Y0125699D01*
X0069594Y0124100D02*
X0069595Y0124100D01*
X0069594Y0122502D02*
X0069595Y0122502D01*
X0069594Y0120903D02*
X0069595Y0120903D01*
X0069594Y0119305D02*
X0069595Y0119305D01*
X0069594Y0117706D02*
X0069595Y0117706D01*
X0072868Y0117706D02*
X0078994Y0117706D01*
X0078994Y0119305D02*
X0074467Y0119305D01*
X0074544Y0120903D02*
X0078994Y0120903D01*
X0078994Y0122502D02*
X0074544Y0122502D01*
X0073928Y0124100D02*
X0078994Y0124100D01*
X0078994Y0125699D02*
X0072329Y0125699D01*
X0078994Y0127297D02*
X0048894Y0127297D01*
X0048894Y0125699D02*
X0056860Y0125699D01*
X0055261Y0124100D02*
X0048894Y0124100D01*
X0048894Y0122502D02*
X0054644Y0122502D01*
X0054644Y0120903D02*
X0048894Y0120903D01*
X0048894Y0119305D02*
X0054722Y0119305D01*
X0056321Y0117706D02*
X0048894Y0117706D01*
X0059594Y0122502D02*
X0059595Y0122502D01*
X0059594Y0124100D02*
X0059595Y0124100D01*
X0059594Y0125699D02*
X0059595Y0125699D01*
X0048894Y0128896D02*
X0078994Y0128896D01*
X0078994Y0130494D02*
X0048894Y0130494D01*
X0048894Y0132093D02*
X0079012Y0132093D01*
X0079969Y0133691D02*
X0048894Y0133691D01*
X0048894Y0135290D02*
X0081567Y0135290D01*
X0083166Y0136888D02*
X0072333Y0136888D01*
X0073932Y0138487D02*
X0083564Y0138487D01*
X0083033Y0140085D02*
X0074744Y0140085D01*
X0074744Y0141684D02*
X0082657Y0141684D01*
X0082657Y0143282D02*
X0074744Y0143282D01*
X0073430Y0144881D02*
X0082826Y0144881D01*
X0083254Y0146479D02*
X0071831Y0146479D01*
X0073079Y0146858D02*
X0066110Y0146858D01*
X0064428Y0147555D01*
X0063141Y0148842D01*
X0062445Y0150523D01*
X0062445Y0152343D01*
X0063141Y0154024D01*
X0064428Y0155311D01*
X0066110Y0156008D01*
X0073079Y0156008D01*
X0074761Y0155311D01*
X0076048Y0154024D01*
X0076744Y0152343D01*
X0076744Y0150523D01*
X0076048Y0148842D01*
X0074761Y0147555D01*
X0073079Y0146858D01*
X0075284Y0148078D02*
X0084040Y0148078D01*
X0085115Y0149677D02*
X0076393Y0149677D01*
X0076744Y0151275D02*
X0086715Y0151275D01*
X0089922Y0152874D02*
X0076524Y0152874D01*
X0075600Y0154472D02*
X0135594Y0154472D01*
X0135594Y0153827D02*
X0136173Y0152431D01*
X0136194Y0152409D01*
X0136194Y0131197D01*
X0136682Y0130020D01*
X0145782Y0120920D01*
X0146682Y0120020D01*
X0147580Y0119648D01*
X0147607Y0119583D01*
X0149004Y0118186D01*
X0150831Y0117429D01*
X0152807Y0117429D01*
X0154633Y0118186D01*
X0156031Y0119583D01*
X0156787Y0121409D01*
X0156787Y0123386D01*
X0156031Y0125212D01*
X0154633Y0126610D01*
X0152921Y0127319D01*
X0154633Y0128028D01*
X0156031Y0129426D01*
X0156787Y0131252D01*
X0156787Y0133228D01*
X0156031Y0135055D01*
X0154633Y0136452D01*
X0152807Y0137209D01*
X0150831Y0137209D01*
X0149004Y0136452D01*
X0147611Y0135059D01*
X0146269Y0135615D01*
X0144770Y0135615D01*
X0143385Y0135041D01*
X0142594Y0134251D01*
X0142594Y0152409D01*
X0142616Y0152431D01*
X0143194Y0153827D01*
X0143194Y0155339D01*
X0142616Y0156736D01*
X0141547Y0157805D01*
X0140150Y0158383D01*
X0138639Y0158383D01*
X0137242Y0157805D01*
X0136173Y0156736D01*
X0135594Y0155339D01*
X0135594Y0153827D01*
X0135990Y0152874D02*
X0096393Y0152874D01*
X0099600Y0151275D02*
X0136194Y0151275D01*
X0136194Y0149677D02*
X0101200Y0149677D01*
X0102275Y0148078D02*
X0112234Y0148078D01*
X0112689Y0148533D02*
X0109994Y0145838D01*
X0109994Y0142028D01*
X0110463Y0141559D01*
X0110279Y0141559D01*
X0107609Y0140843D01*
X0105214Y0139461D01*
X0103259Y0137506D01*
X0101877Y0135112D01*
X0101161Y0132441D01*
X0101161Y0129677D01*
X0101877Y0127006D01*
X0103259Y0124612D01*
X0105214Y0122657D01*
X0107609Y0121275D01*
X0110279Y0120559D01*
X0113044Y0120559D01*
X0115714Y0121275D01*
X0118109Y0122657D01*
X0120063Y0124612D01*
X0121446Y0127006D01*
X0122161Y0129677D01*
X0122161Y0132441D01*
X0121446Y0135112D01*
X0120063Y0137506D01*
X0119437Y0138133D01*
X0128042Y0138133D01*
X0129008Y0137733D01*
X0130281Y0137733D01*
X0131457Y0138220D01*
X0132357Y0139120D01*
X0132844Y0140297D01*
X0132844Y0141570D01*
X0132357Y0142746D01*
X0131457Y0143646D01*
X0130281Y0144133D01*
X0129008Y0144133D01*
X0128042Y0143733D01*
X0119194Y0143733D01*
X0119194Y0145838D01*
X0116500Y0148533D01*
X0112689Y0148533D01*
X0110636Y0146479D02*
X0103061Y0146479D01*
X0103489Y0144881D02*
X0109994Y0144881D01*
X0109994Y0143282D02*
X0103657Y0143282D01*
X0103657Y0141684D02*
X0110338Y0141684D01*
X0106296Y0140085D02*
X0103282Y0140085D01*
X0102751Y0138487D02*
X0104240Y0138487D01*
X0102903Y0136888D02*
X0101828Y0136888D01*
X0101980Y0135290D02*
X0100427Y0135290D01*
X0101496Y0133691D02*
X0098260Y0133691D01*
X0101161Y0132093D02*
X0087138Y0132093D01*
X0085540Y0130494D02*
X0101161Y0130494D01*
X0101371Y0128896D02*
X0096771Y0128896D01*
X0093957Y0128896D02*
X0092357Y0128896D01*
X0092357Y0127297D02*
X0093957Y0127297D01*
X0093957Y0125699D02*
X0092357Y0125699D01*
X0092357Y0124100D02*
X0093957Y0124100D01*
X0093957Y0122502D02*
X0092357Y0122502D01*
X0092357Y0120903D02*
X0093957Y0120903D01*
X0093958Y0119305D02*
X0121944Y0119305D01*
X0121944Y0120903D02*
X0114328Y0120903D01*
X0117840Y0122502D02*
X0123380Y0122502D01*
X0121944Y0121066D02*
X0121944Y0116800D01*
X0124961Y0113783D01*
X0129228Y0113783D01*
X0132244Y0116800D01*
X0132244Y0121066D01*
X0129228Y0124083D01*
X0124961Y0124083D01*
X0121944Y0121066D01*
X0121944Y0117706D02*
X0103349Y0117706D01*
X0102971Y0116108D02*
X0122637Y0116108D01*
X0124235Y0114509D02*
X0102308Y0114509D01*
X0101278Y0112911D02*
X0133004Y0112911D01*
X0132693Y0112159D02*
X0133896Y0115065D01*
X0136120Y0117289D01*
X0139026Y0118492D01*
X0142171Y0118492D01*
X0145077Y0117289D01*
X0147300Y0115065D01*
X0148504Y0112159D01*
X0148504Y0109014D01*
X0147300Y0106109D01*
X0145077Y0103885D01*
X0142171Y0102681D01*
X0139026Y0102681D01*
X0136120Y0103885D01*
X0133896Y0106109D01*
X0132693Y0109014D01*
X0132693Y0112159D01*
X0132693Y0111312D02*
X0099726Y0111312D01*
X0097096Y0109714D02*
X0132693Y0109714D01*
X0133065Y0108115D02*
X0122296Y0108115D01*
X0123895Y0106517D02*
X0133727Y0106517D01*
X0135087Y0104918D02*
X0125493Y0104918D01*
X0129991Y0103320D02*
X0137484Y0103320D01*
X0131590Y0101721D02*
X0151594Y0101721D01*
X0151594Y0101176D02*
X0151594Y0102675D01*
X0152167Y0104060D01*
X0153228Y0105120D01*
X0154613Y0105694D01*
X0156112Y0105694D01*
X0157497Y0105120D01*
X0157686Y0104931D01*
X0157299Y0105864D01*
X0157299Y0109010D01*
X0158503Y0111915D01*
X0160727Y0114139D01*
X0163632Y0115343D01*
X0166777Y0115343D01*
X0169683Y0114139D01*
X0171907Y0111915D01*
X0173110Y0109010D01*
X0173110Y0105864D01*
X0172724Y0104931D01*
X0172913Y0105120D01*
X0174298Y0105694D01*
X0175797Y0105694D01*
X0177182Y0105120D01*
X0178242Y0104060D01*
X0178816Y0102675D01*
X0178816Y0101176D01*
X0178242Y0099791D01*
X0177182Y0098730D01*
X0175797Y0098157D01*
X0174298Y0098157D01*
X0172913Y0098730D01*
X0171852Y0099791D01*
X0171279Y0101176D01*
X0171279Y0102331D01*
X0169683Y0100735D01*
X0166777Y0099531D01*
X0163632Y0099531D01*
X0160727Y0100735D01*
X0159131Y0102331D01*
X0159131Y0101176D01*
X0158557Y0099791D01*
X0157497Y0098730D01*
X0156112Y0098157D01*
X0154613Y0098157D01*
X0153228Y0098730D01*
X0152167Y0099791D01*
X0151594Y0101176D01*
X0152030Y0100123D02*
X0132244Y0100123D01*
X0132244Y0098524D02*
X0153725Y0098524D01*
X0156999Y0098524D02*
X0173411Y0098524D01*
X0171715Y0100123D02*
X0168204Y0100123D01*
X0170669Y0101721D02*
X0171279Y0101721D01*
X0173110Y0106517D02*
X0182940Y0106517D01*
X0183109Y0106109D02*
X0185333Y0103885D01*
X0188239Y0102681D01*
X0191384Y0102681D01*
X0194289Y0103885D01*
X0196513Y0106109D01*
X0197717Y0109014D01*
X0197717Y0112159D01*
X0196513Y0115065D01*
X0194289Y0117289D01*
X0191384Y0118492D01*
X0188239Y0118492D01*
X0185333Y0117289D01*
X0183109Y0115065D01*
X0181906Y0112159D01*
X0181906Y0109014D01*
X0183109Y0106109D01*
X0184299Y0104918D02*
X0177384Y0104918D01*
X0178549Y0103320D02*
X0186697Y0103320D01*
X0192925Y0103320D02*
X0199198Y0103320D01*
X0199961Y0104083D02*
X0196944Y0101066D01*
X0196944Y0096800D01*
X0199961Y0093783D01*
X0204228Y0093783D01*
X0207244Y0096800D01*
X0207244Y0101066D01*
X0204228Y0104083D01*
X0199961Y0104083D01*
X0197599Y0101721D02*
X0178816Y0101721D01*
X0178380Y0100123D02*
X0196944Y0100123D01*
X0196944Y0098524D02*
X0176684Y0098524D01*
X0173110Y0108115D02*
X0182278Y0108115D01*
X0181906Y0109714D02*
X0172819Y0109714D01*
X0172156Y0111312D02*
X0181906Y0111312D01*
X0182217Y0112911D02*
X0170911Y0112911D01*
X0168789Y0114509D02*
X0182879Y0114509D01*
X0184152Y0116108D02*
X0146257Y0116108D01*
X0147530Y0114509D02*
X0161621Y0114509D01*
X0159498Y0112911D02*
X0148193Y0112911D01*
X0148504Y0111312D02*
X0158253Y0111312D01*
X0157591Y0109714D02*
X0148504Y0109714D01*
X0148132Y0108115D02*
X0157299Y0108115D01*
X0157299Y0106517D02*
X0147469Y0106517D01*
X0146110Y0104918D02*
X0153026Y0104918D01*
X0151861Y0103320D02*
X0143713Y0103320D01*
X0132244Y0096926D02*
X0196944Y0096926D01*
X0198417Y0095327D02*
X0130772Y0095327D01*
X0123417Y0095327D02*
X0116200Y0095327D01*
X0116594Y0096926D02*
X0121944Y0096926D01*
X0121944Y0098524D02*
X0116594Y0098524D01*
X0116594Y0100123D02*
X0121521Y0100123D01*
X0119922Y0101721D02*
X0116594Y0101721D01*
X0115423Y0103320D02*
X0118324Y0103320D01*
X0129954Y0114509D02*
X0133666Y0114509D01*
X0134940Y0116108D02*
X0131552Y0116108D01*
X0132244Y0117706D02*
X0137129Y0117706D01*
X0132244Y0119305D02*
X0147885Y0119305D01*
X0145799Y0120903D02*
X0132244Y0120903D01*
X0130809Y0122502D02*
X0144200Y0122502D01*
X0142602Y0124100D02*
X0119552Y0124100D01*
X0120691Y0125699D02*
X0141003Y0125699D01*
X0139405Y0127297D02*
X0121524Y0127297D01*
X0121952Y0128896D02*
X0137806Y0128896D01*
X0136485Y0130494D02*
X0122161Y0130494D01*
X0122161Y0132093D02*
X0136194Y0132093D01*
X0136194Y0133691D02*
X0121826Y0133691D01*
X0121343Y0135290D02*
X0136194Y0135290D01*
X0136194Y0136888D02*
X0120420Y0136888D01*
X0117294Y0140933D02*
X0114694Y0143533D01*
X0114594Y0143933D01*
X0117294Y0140933D02*
X0129644Y0140933D01*
X0131821Y0143282D02*
X0136194Y0143282D01*
X0136194Y0141684D02*
X0132797Y0141684D01*
X0132757Y0140085D02*
X0136194Y0140085D01*
X0136194Y0138487D02*
X0131724Y0138487D01*
X0136194Y0144881D02*
X0119194Y0144881D01*
X0118553Y0146479D02*
X0136194Y0146479D01*
X0136194Y0148078D02*
X0116955Y0148078D01*
X0110905Y0156071D02*
X0093776Y0156071D01*
X0095807Y0157669D02*
X0108974Y0157669D01*
X0107376Y0159268D02*
X0096504Y0159268D01*
X0096541Y0160866D02*
X0105777Y0160866D01*
X0098057Y0162465D02*
X0095970Y0162465D01*
X0096330Y0164063D02*
X0095080Y0164063D01*
X0095600Y0170783D02*
X0094800Y0171583D01*
X0093109Y0172283D01*
X0086079Y0172283D01*
X0084877Y0171785D01*
X0083473Y0173189D01*
X0082600Y0174061D01*
X0081461Y0174533D01*
X0075539Y0174533D01*
X0074761Y0175311D01*
X0073079Y0176008D01*
X0072694Y0176008D01*
X0072694Y0213712D01*
X0100841Y0241858D01*
X0101941Y0241858D01*
X0103623Y0242555D01*
X0104910Y0243842D01*
X0105092Y0244281D01*
X0105164Y0244140D01*
X0105569Y0243583D01*
X0106056Y0243096D01*
X0106613Y0242691D01*
X0107226Y0242379D01*
X0107881Y0242166D01*
X0108561Y0242058D01*
X0108905Y0242058D01*
X0108905Y0246433D01*
X0108906Y0246433D01*
X0108906Y0246433D01*
X0113280Y0246433D01*
X0113280Y0246089D01*
X0113173Y0245409D01*
X0112960Y0244754D01*
X0112647Y0244140D01*
X0112242Y0243583D01*
X0111755Y0243096D01*
X0111198Y0242691D01*
X0110585Y0242379D01*
X0109930Y0242166D01*
X0109250Y0242058D01*
X0108906Y0242058D01*
X0108906Y0246433D01*
X0113280Y0246433D01*
X0113280Y0246777D01*
X0113173Y0247458D01*
X0112960Y0248112D01*
X0112647Y0248726D01*
X0112242Y0249283D01*
X0111755Y0249770D01*
X0111198Y0250175D01*
X0110585Y0250487D01*
X0109930Y0250700D01*
X0109250Y0250808D01*
X0108906Y0250808D01*
X0108906Y0246433D01*
X0108905Y0246433D01*
X0108905Y0250808D01*
X0108561Y0250808D01*
X0107881Y0250700D01*
X0107226Y0250487D01*
X0106613Y0250175D01*
X0106056Y0249770D01*
X0105569Y0249283D01*
X0105164Y0248726D01*
X0105092Y0248585D01*
X0104910Y0249024D01*
X0103623Y0250311D01*
X0101941Y0251008D01*
X0100122Y0251008D01*
X0098440Y0250311D01*
X0097153Y0249024D01*
X0097094Y0248883D01*
X0097036Y0249024D01*
X0095749Y0250311D01*
X0094067Y0251008D01*
X0092247Y0251008D01*
X0090566Y0250311D01*
X0089858Y0249604D01*
X0089858Y0249836D01*
X0088687Y0251008D01*
X0083553Y0251008D01*
X0084629Y0252083D01*
X0129666Y0252083D01*
X0137452Y0245162D01*
X0137323Y0245033D01*
X0137323Y0237833D01*
X0138494Y0236661D01*
X0143363Y0236661D01*
X0140508Y0233807D01*
X0139721Y0233019D01*
X0139294Y0231990D01*
X0139294Y0227638D01*
X0137494Y0225838D01*
X0137494Y0222028D01*
X0140189Y0219333D01*
X0144000Y0219333D01*
X0146694Y0222028D01*
X0146694Y0225838D01*
X0144894Y0227638D01*
X0144894Y0230273D01*
X0151283Y0236661D01*
X0153044Y0236661D01*
X0154797Y0237388D01*
X0156140Y0238730D01*
X0156866Y0240484D01*
X0156866Y0242382D01*
X0156140Y0244136D01*
X0154797Y0245478D01*
X0153044Y0246205D01*
X0151145Y0246205D01*
X0149392Y0245478D01*
X0148049Y0244136D01*
X0147323Y0242382D01*
X0147323Y0240621D01*
X0146866Y0240164D01*
X0146866Y0245033D01*
X0146597Y0245302D01*
X0153379Y0252083D01*
X0189560Y0252083D01*
X0197323Y0244321D01*
X0197323Y0237833D01*
X0198494Y0236661D01*
X0205695Y0236661D01*
X0206866Y0237833D01*
X0206866Y0244321D01*
X0214629Y0252083D01*
X0247780Y0252083D01*
X0247094Y0250428D01*
X0247094Y0242438D01*
X0247856Y0240601D01*
X0248806Y0239650D01*
X0247494Y0238338D01*
X0247494Y0234528D01*
X0250189Y0231833D01*
X0254000Y0231833D01*
X0256694Y0234528D01*
X0256694Y0238338D01*
X0255383Y0239650D01*
X0256333Y0240601D01*
X0257094Y0242438D01*
X0257094Y0250428D01*
X0256347Y0252233D01*
X0257842Y0252233D01*
X0257094Y0250428D01*
X0257094Y0242438D01*
X0257856Y0240601D01*
X0258806Y0239650D01*
X0257494Y0238338D01*
X0257494Y0234528D01*
X0260189Y0231833D01*
X0264000Y0231833D01*
X0266694Y0234528D01*
X0266694Y0238338D01*
X0265383Y0239650D01*
X0266333Y0240601D01*
X0267094Y0242438D01*
X0267094Y0250428D01*
X0266347Y0252233D01*
X0267842Y0252233D01*
X0267094Y0250428D01*
X0267094Y0242438D01*
X0267856Y0240601D01*
X0268806Y0239650D01*
X0267494Y0238338D01*
X0267494Y0234528D01*
X0269092Y0232931D01*
X0267144Y0230983D01*
X0267144Y0228933D01*
X0267144Y0226883D01*
X0268392Y0225635D01*
X0267431Y0226033D01*
X0266158Y0226033D01*
X0264982Y0225546D01*
X0264082Y0224646D01*
X0263594Y0223470D01*
X0263594Y0222197D01*
X0263994Y0221231D01*
X0263994Y0221033D01*
X0260413Y0221033D01*
X0260894Y0222197D01*
X0260894Y0223470D01*
X0260407Y0224646D01*
X0259507Y0225546D01*
X0258331Y0226033D01*
X0257058Y0226033D01*
X0256092Y0225633D01*
X0241954Y0225633D01*
X0236668Y0230919D01*
X0235881Y0231707D01*
X0234851Y0232133D01*
X0229838Y0232133D01*
X0228808Y0231707D01*
X0224908Y0227807D01*
X0224894Y0227793D01*
X0224894Y0237485D01*
X0226140Y0238730D01*
X0226866Y0240484D01*
X0226866Y0242382D01*
X0226140Y0244136D01*
X0224797Y0245478D01*
X0223044Y0246205D01*
X0221145Y0246205D01*
X0219392Y0245478D01*
X0218049Y0244136D01*
X0217323Y0242382D01*
X0217323Y0240484D01*
X0218049Y0238730D01*
X0219294Y0237485D01*
X0219294Y0227638D01*
X0217494Y0225838D01*
X0217494Y0222028D01*
X0220189Y0219333D01*
X0220335Y0219333D01*
X0212335Y0211333D01*
X0205138Y0211333D01*
X0204121Y0210912D01*
X0201500Y0213533D01*
X0197689Y0213533D01*
X0196694Y0212538D01*
X0196694Y0215611D01*
X0197772Y0214533D01*
X0199594Y0214533D01*
X0199594Y0218933D01*
X0195194Y0218933D01*
X0195194Y0217338D01*
X0194000Y0218533D01*
X0190189Y0218533D01*
X0187494Y0215838D01*
X0187494Y0212028D01*
X0190189Y0209333D01*
X0194000Y0209333D01*
X0194994Y0210328D01*
X0194994Y0207028D01*
X0197612Y0204410D01*
X0187635Y0194433D01*
X0181600Y0194433D01*
X0181694Y0194528D01*
X0181694Y0198338D01*
X0179000Y0201033D01*
X0177917Y0201033D01*
X0178994Y0202111D01*
X0178994Y0203933D01*
X0174595Y0203933D01*
X0174595Y0203933D01*
X0178994Y0203933D01*
X0178994Y0205756D01*
X0176417Y0208333D01*
X0174595Y0208333D01*
X0174595Y0203933D01*
X0174594Y0203933D01*
X0170194Y0203933D01*
X0170194Y0202111D01*
X0172772Y0199533D01*
X0173689Y0199533D01*
X0172494Y0198338D01*
X0172494Y0194528D01*
X0172589Y0194433D01*
X0164838Y0194433D01*
X0163808Y0194007D01*
X0161535Y0191733D01*
X0157399Y0191733D01*
X0154899Y0189233D01*
X0153900Y0189233D01*
X0154194Y0189528D01*
X0154194Y0193338D01*
X0151500Y0196033D01*
X0147689Y0196033D01*
X0144994Y0193338D01*
X0144994Y0189528D01*
X0145289Y0189233D01*
X0143900Y0189233D01*
X0144194Y0189528D01*
X0144194Y0193338D01*
X0141500Y0196033D01*
X0137689Y0196033D01*
X0135072Y0193416D01*
X0122781Y0205707D01*
X0121751Y0206133D01*
X0118900Y0206133D01*
X0116500Y0208533D01*
X0112689Y0208533D01*
X0109994Y0205838D01*
X0109994Y0202028D01*
X0112689Y0199333D01*
X0116500Y0199333D01*
X0117700Y0200533D01*
X0120035Y0200533D01*
X0135721Y0184847D01*
X0136508Y0184059D01*
X0137538Y0183633D01*
X0154899Y0183633D01*
X0157399Y0181133D01*
X0161790Y0181133D01*
X0164594Y0183938D01*
X0167399Y0181133D01*
X0170335Y0181133D01*
X0167185Y0177983D01*
X0155754Y0177983D01*
X0155718Y0178019D01*
X0154931Y0178807D01*
X0153901Y0179233D01*
X0137447Y0179233D01*
X0137250Y0179284D01*
X0136895Y0179233D01*
X0136538Y0179233D01*
X0136349Y0179155D01*
X0136147Y0179126D01*
X0135839Y0178944D01*
X0135508Y0178807D01*
X0135364Y0178663D01*
X0135189Y0178559D01*
X0134974Y0178272D01*
X0134721Y0178019D01*
X0134650Y0177848D01*
X0122948Y0166146D01*
X0121982Y0165746D01*
X0121082Y0164846D01*
X0120594Y0163670D01*
X0120594Y0162397D01*
X0120745Y0162033D01*
X0118917Y0162033D01*
X0118994Y0162111D01*
X0118994Y0163933D01*
X0114595Y0163933D01*
X0114595Y0163933D01*
X0118994Y0163933D01*
X0118994Y0165756D01*
X0117597Y0167153D01*
X0119744Y0169300D01*
X0119744Y0173566D01*
X0116728Y0176583D01*
X0112461Y0176583D01*
X0109453Y0173575D01*
X0106645Y0176383D01*
X0104595Y0176383D01*
X0104595Y0171433D01*
X0104594Y0171433D01*
X0099644Y0171433D01*
X0099644Y0169517D01*
X0098850Y0170311D01*
X0097711Y0170783D01*
X0095600Y0170783D01*
X0093658Y0172056D02*
X0099644Y0172056D01*
X0099644Y0171433D02*
X0099644Y0173483D01*
X0102544Y0176383D01*
X0104594Y0176383D01*
X0104594Y0171433D01*
X0104594Y0171433D01*
X0099644Y0171433D01*
X0099644Y0170457D02*
X0098498Y0170457D01*
X0099815Y0173654D02*
X0083007Y0173654D01*
X0083473Y0173189D02*
X0083473Y0173189D01*
X0084606Y0172056D02*
X0085531Y0172056D01*
X0080633Y0167260D02*
X0074049Y0167260D01*
X0073312Y0165662D02*
X0082232Y0165662D01*
X0084109Y0164063D02*
X0075666Y0164063D01*
X0075506Y0164283D02*
X0075019Y0164770D01*
X0074462Y0165175D01*
X0073849Y0165487D01*
X0073194Y0165700D01*
X0072514Y0165808D01*
X0069595Y0165808D01*
X0069595Y0161433D01*
X0069595Y0161433D01*
X0076544Y0161433D01*
X0076544Y0161089D01*
X0076436Y0160409D01*
X0076224Y0159754D01*
X0075911Y0159140D01*
X0075506Y0158583D01*
X0075019Y0158096D01*
X0074462Y0157691D01*
X0073849Y0157379D01*
X0073194Y0157166D01*
X0072514Y0157058D01*
X0069595Y0157058D01*
X0069595Y0161433D01*
X0076544Y0161433D01*
X0076544Y0161777D01*
X0076436Y0162458D01*
X0076224Y0163112D01*
X0075911Y0163726D01*
X0075506Y0164283D01*
X0076434Y0162465D02*
X0083219Y0162465D01*
X0082648Y0160866D02*
X0076509Y0160866D01*
X0075976Y0159268D02*
X0082685Y0159268D01*
X0083382Y0157669D02*
X0074418Y0157669D01*
X0069595Y0157669D02*
X0069594Y0157669D01*
X0069594Y0157058D02*
X0069594Y0161433D01*
X0062645Y0161433D01*
X0062645Y0161089D01*
X0062753Y0160409D01*
X0062965Y0159754D01*
X0063278Y0159140D01*
X0063683Y0158583D01*
X0064170Y0158096D01*
X0064727Y0157691D01*
X0065340Y0157379D01*
X0065995Y0157166D01*
X0066675Y0157058D01*
X0069594Y0157058D01*
X0069594Y0159268D02*
X0069595Y0159268D01*
X0069594Y0160866D02*
X0069595Y0160866D01*
X0069594Y0161433D02*
X0069595Y0161433D01*
X0069594Y0161433D01*
X0069594Y0161433D01*
X0062645Y0161433D01*
X0062645Y0161777D01*
X0062753Y0162458D01*
X0062965Y0163112D01*
X0063278Y0163726D01*
X0063683Y0164283D01*
X0064170Y0164770D01*
X0064727Y0165175D01*
X0065340Y0165487D01*
X0065995Y0165700D01*
X0066675Y0165808D01*
X0069594Y0165808D01*
X0069594Y0161433D01*
X0069594Y0162465D02*
X0069595Y0162465D01*
X0069594Y0164063D02*
X0069595Y0164063D01*
X0069594Y0165662D02*
X0069595Y0165662D01*
X0065877Y0165662D02*
X0057694Y0165662D01*
X0057694Y0167260D02*
X0065140Y0167260D01*
X0063134Y0168859D02*
X0057694Y0168859D01*
X0057694Y0170457D02*
X0062472Y0170457D01*
X0062445Y0172056D02*
X0057694Y0172056D01*
X0057694Y0173654D02*
X0062988Y0173654D01*
X0064370Y0175253D02*
X0057694Y0175253D01*
X0057694Y0176851D02*
X0066494Y0176851D01*
X0066494Y0178450D02*
X0057694Y0178450D01*
X0057694Y0180048D02*
X0066494Y0180048D01*
X0066494Y0181647D02*
X0057694Y0181647D01*
X0057694Y0183245D02*
X0066494Y0183245D01*
X0066494Y0184844D02*
X0057694Y0184844D01*
X0057694Y0186442D02*
X0066494Y0186442D01*
X0066494Y0188041D02*
X0057694Y0188041D01*
X0057694Y0189639D02*
X0066494Y0189639D01*
X0066494Y0191238D02*
X0057694Y0191238D01*
X0057694Y0192836D02*
X0066494Y0192836D01*
X0066494Y0194435D02*
X0057694Y0194435D01*
X0057694Y0196033D02*
X0066494Y0196033D01*
X0066494Y0197632D02*
X0064364Y0197632D01*
X0065963Y0199230D02*
X0066494Y0199230D01*
X0061599Y0199230D02*
X0061399Y0199230D01*
X0061399Y0197632D02*
X0061599Y0197632D01*
X0058634Y0197632D02*
X0057694Y0197632D01*
X0061399Y0200829D02*
X0061599Y0200829D01*
X0061599Y0202427D02*
X0061399Y0202427D01*
X0061399Y0203423D02*
X0061399Y0209373D01*
X0058993Y0209373D01*
X0057694Y0208074D01*
X0057694Y0222649D01*
X0060879Y0225833D01*
X0070211Y0225833D01*
X0071350Y0226305D01*
X0072223Y0227177D01*
X0079723Y0234677D01*
X0080194Y0235816D01*
X0080194Y0247649D01*
X0080709Y0248163D01*
X0080709Y0243030D01*
X0081880Y0241858D01*
X0088687Y0241858D01*
X0089858Y0243030D01*
X0089858Y0243263D01*
X0090566Y0242555D01*
X0092124Y0241909D01*
X0067838Y0217624D01*
X0066966Y0216752D01*
X0066494Y0215613D01*
X0066494Y0206884D01*
X0064005Y0209373D01*
X0061599Y0209373D01*
X0061599Y0203423D01*
X0061399Y0203423D01*
X0061399Y0204026D02*
X0061599Y0204026D01*
X0061599Y0205624D02*
X0061399Y0205624D01*
X0061399Y0207223D02*
X0061599Y0207223D01*
X0061599Y0208821D02*
X0061399Y0208821D01*
X0058442Y0208821D02*
X0057694Y0208821D01*
X0057694Y0210420D02*
X0066494Y0210420D01*
X0066494Y0212018D02*
X0057694Y0212018D01*
X0057694Y0213617D02*
X0066494Y0213617D01*
X0066494Y0215215D02*
X0057694Y0215215D01*
X0057694Y0216814D02*
X0067028Y0216814D01*
X0068627Y0218412D02*
X0057694Y0218412D01*
X0057694Y0220011D02*
X0070225Y0220011D01*
X0071824Y0221610D02*
X0057694Y0221610D01*
X0058253Y0223208D02*
X0073422Y0223208D01*
X0075021Y0224807D02*
X0059852Y0224807D01*
X0055879Y0229602D02*
X0048894Y0229602D01*
X0048894Y0228004D02*
X0054281Y0228004D01*
X0052682Y0226405D02*
X0048894Y0226405D01*
X0048894Y0224807D02*
X0051601Y0224807D01*
X0051494Y0223208D02*
X0048894Y0223208D01*
X0048894Y0221610D02*
X0051494Y0221610D01*
X0051494Y0220011D02*
X0048894Y0220011D01*
X0048894Y0218412D02*
X0051494Y0218412D01*
X0051494Y0216814D02*
X0048894Y0216814D01*
X0048894Y0215215D02*
X0051494Y0215215D01*
X0051494Y0213617D02*
X0048894Y0213617D01*
X0048894Y0212018D02*
X0051494Y0212018D01*
X0051494Y0210420D02*
X0048894Y0210420D01*
X0048894Y0208821D02*
X0051494Y0208821D01*
X0051494Y0207223D02*
X0048894Y0207223D01*
X0048894Y0205624D02*
X0051494Y0205624D01*
X0051494Y0204026D02*
X0048894Y0204026D01*
X0048894Y0202427D02*
X0051494Y0202427D01*
X0051494Y0200829D02*
X0048894Y0200829D01*
X0048894Y0199230D02*
X0051494Y0199230D01*
X0051494Y0197632D02*
X0048894Y0197632D01*
X0048894Y0196033D02*
X0051494Y0196033D01*
X0051494Y0194435D02*
X0048894Y0194435D01*
X0048894Y0192836D02*
X0051494Y0192836D01*
X0051494Y0191238D02*
X0048894Y0191238D01*
X0048894Y0189639D02*
X0051494Y0189639D01*
X0051494Y0188041D02*
X0048894Y0188041D01*
X0048894Y0186442D02*
X0051494Y0186442D01*
X0051494Y0184844D02*
X0048894Y0184844D01*
X0048894Y0183245D02*
X0051494Y0183245D01*
X0051494Y0181647D02*
X0048894Y0181647D01*
X0048894Y0180048D02*
X0051494Y0180048D01*
X0051494Y0178450D02*
X0048894Y0178450D01*
X0048894Y0176851D02*
X0051494Y0176851D01*
X0051494Y0175253D02*
X0048894Y0175253D01*
X0048894Y0173654D02*
X0051494Y0173654D01*
X0051494Y0172056D02*
X0048894Y0172056D01*
X0048894Y0170457D02*
X0051494Y0170457D01*
X0051494Y0168859D02*
X0048894Y0168859D01*
X0048894Y0167260D02*
X0051494Y0167260D01*
X0051494Y0165662D02*
X0048894Y0165662D01*
X0048894Y0164063D02*
X0051494Y0164063D01*
X0051494Y0162465D02*
X0048894Y0162465D01*
X0048894Y0160866D02*
X0051494Y0160866D01*
X0051494Y0159268D02*
X0048894Y0159268D01*
X0048894Y0157669D02*
X0051494Y0157669D01*
X0051494Y0156071D02*
X0048894Y0156071D01*
X0048894Y0154472D02*
X0051494Y0154472D01*
X0051494Y0152874D02*
X0048894Y0152874D01*
X0048894Y0151275D02*
X0051494Y0151275D01*
X0051494Y0149677D02*
X0048894Y0149677D01*
X0048894Y0148078D02*
X0051494Y0148078D01*
X0051494Y0146479D02*
X0048894Y0146479D01*
X0048894Y0144881D02*
X0051882Y0144881D01*
X0053361Y0143282D02*
X0048894Y0143282D01*
X0048894Y0141684D02*
X0054444Y0141684D01*
X0054444Y0140085D02*
X0048894Y0140085D01*
X0048894Y0138487D02*
X0055257Y0138487D01*
X0056856Y0136888D02*
X0048894Y0136888D01*
X0062333Y0136888D02*
X0066856Y0136888D01*
X0065257Y0138487D02*
X0063932Y0138487D01*
X0063430Y0144881D02*
X0065759Y0144881D01*
X0067358Y0146479D02*
X0061831Y0146479D01*
X0063905Y0148078D02*
X0057694Y0148078D01*
X0057694Y0149677D02*
X0062796Y0149677D01*
X0062445Y0151275D02*
X0057694Y0151275D01*
X0057694Y0152874D02*
X0062665Y0152874D01*
X0063589Y0154472D02*
X0057694Y0154472D01*
X0057694Y0156071D02*
X0085413Y0156071D01*
X0089594Y0156071D02*
X0089595Y0156071D01*
X0089594Y0157669D02*
X0089595Y0157669D01*
X0089594Y0159268D02*
X0089595Y0159268D01*
X0104594Y0172056D02*
X0104595Y0172056D01*
X0104594Y0173654D02*
X0104595Y0173654D01*
X0104594Y0175253D02*
X0104595Y0175253D01*
X0107775Y0175253D02*
X0111131Y0175253D01*
X0109532Y0173654D02*
X0109374Y0173654D01*
X0118058Y0175253D02*
X0132054Y0175253D01*
X0133653Y0176851D02*
X0072694Y0176851D01*
X0072694Y0178450D02*
X0135107Y0178450D01*
X0137094Y0176433D02*
X0136794Y0176033D01*
X0123794Y0163033D01*
X0120757Y0164063D02*
X0118994Y0164063D01*
X0118994Y0162465D02*
X0120594Y0162465D01*
X0121898Y0165662D02*
X0118994Y0165662D01*
X0117705Y0167260D02*
X0124062Y0167260D01*
X0125660Y0168859D02*
X0119303Y0168859D01*
X0119744Y0170457D02*
X0127259Y0170457D01*
X0128857Y0172056D02*
X0119744Y0172056D01*
X0119657Y0173654D02*
X0130456Y0173654D01*
X0137094Y0176433D02*
X0153344Y0176433D01*
X0154594Y0175183D01*
X0168344Y0175183D01*
X0177094Y0183933D01*
X0184594Y0183933D01*
X0187094Y0186433D01*
X0187494Y0185783D01*
X0192044Y0181233D01*
X0227144Y0181233D01*
X0227794Y0181883D01*
X0232344Y0181883D01*
X0232094Y0176433D02*
X0227694Y0176433D01*
X0227694Y0174611D01*
X0230272Y0172033D01*
X0232094Y0172033D01*
X0232094Y0176433D01*
X0227694Y0176433D01*
X0227694Y0178256D01*
X0227993Y0178554D01*
X0227701Y0178433D01*
X0208817Y0178433D01*
X0208994Y0178256D01*
X0208994Y0176433D01*
X0204595Y0176433D01*
X0204595Y0176433D01*
X0208994Y0176433D01*
X0208994Y0174611D01*
X0206417Y0172033D01*
X0204595Y0172033D01*
X0204595Y0176433D01*
X0204594Y0176433D01*
X0200194Y0176433D01*
X0200194Y0174611D01*
X0202772Y0172033D01*
X0204594Y0172033D01*
X0204594Y0176433D01*
X0204594Y0176433D01*
X0200194Y0176433D01*
X0200194Y0178256D01*
X0200372Y0178433D01*
X0191488Y0178433D01*
X0190458Y0178859D01*
X0188185Y0181133D01*
X0178254Y0181133D01*
X0177954Y0180833D01*
X0178917Y0180833D01*
X0181494Y0178256D01*
X0181494Y0176433D01*
X0177095Y0176433D01*
X0177095Y0176433D01*
X0181494Y0176433D01*
X0181494Y0174611D01*
X0178917Y0172033D01*
X0177095Y0172033D01*
X0177095Y0176433D01*
X0177094Y0176433D01*
X0177094Y0172033D01*
X0175272Y0172033D01*
X0172694Y0174611D01*
X0172694Y0175573D01*
X0170718Y0173597D01*
X0170641Y0173520D01*
X0170973Y0173189D01*
X0170973Y0173189D01*
X0178850Y0165311D01*
X0179723Y0164439D01*
X0180194Y0163300D01*
X0180194Y0153116D01*
X0181278Y0152033D01*
X0185810Y0152033D01*
X0191588Y0157811D01*
X0192728Y0158283D01*
X0213961Y0158283D01*
X0215100Y0157811D01*
X0215973Y0156939D01*
X0217094Y0155817D01*
X0227494Y0166217D01*
X0227494Y0168338D01*
X0230189Y0171033D01*
X0232310Y0171033D01*
X0233310Y0172033D01*
X0232095Y0172033D01*
X0232095Y0176433D01*
X0232094Y0176433D01*
X0232094Y0176433D01*
X0232094Y0175253D02*
X0232095Y0175253D01*
X0232094Y0173654D02*
X0232095Y0173654D01*
X0232094Y0172056D02*
X0232095Y0172056D01*
X0230249Y0172056D02*
X0206440Y0172056D01*
X0204595Y0172056D02*
X0204594Y0172056D01*
X0204594Y0173654D02*
X0204595Y0173654D01*
X0204594Y0175253D02*
X0204595Y0175253D01*
X0202749Y0172056D02*
X0178940Y0172056D01*
X0177095Y0172056D02*
X0177094Y0172056D01*
X0177094Y0173654D02*
X0177095Y0173654D01*
X0177094Y0175253D02*
X0177095Y0175253D01*
X0177095Y0176433D02*
X0177095Y0179973D01*
X0177094Y0179973D01*
X0177094Y0176433D01*
X0177095Y0176433D01*
X0177094Y0176851D02*
X0177095Y0176851D01*
X0177094Y0178450D02*
X0177095Y0178450D01*
X0179702Y0180048D02*
X0189270Y0180048D01*
X0191447Y0178450D02*
X0181300Y0178450D01*
X0181494Y0176851D02*
X0200194Y0176851D01*
X0200194Y0175253D02*
X0181494Y0175253D01*
X0180538Y0173654D02*
X0201151Y0173654D01*
X0208038Y0173654D02*
X0228651Y0173654D01*
X0227694Y0175253D02*
X0208994Y0175253D01*
X0208994Y0176851D02*
X0227694Y0176851D01*
X0227742Y0178450D02*
X0227889Y0178450D01*
X0229613Y0170457D02*
X0214576Y0170457D01*
X0214000Y0171033D02*
X0216694Y0168338D01*
X0216694Y0164528D01*
X0214000Y0161833D01*
X0210189Y0161833D01*
X0207494Y0164528D01*
X0207494Y0168338D01*
X0210189Y0171033D01*
X0214000Y0171033D01*
X0216174Y0168859D02*
X0228015Y0168859D01*
X0227494Y0167260D02*
X0216694Y0167260D01*
X0216694Y0165662D02*
X0226939Y0165662D01*
X0225340Y0164063D02*
X0216230Y0164063D01*
X0214631Y0162465D02*
X0223742Y0162465D01*
X0222143Y0160866D02*
X0180194Y0160866D01*
X0180194Y0159268D02*
X0220545Y0159268D01*
X0218946Y0157669D02*
X0215243Y0157669D01*
X0216841Y0156071D02*
X0217348Y0156071D01*
X0221320Y0151275D02*
X0243194Y0151275D01*
X0243194Y0149677D02*
X0220194Y0149677D01*
X0220194Y0150149D02*
X0231879Y0161833D01*
X0234000Y0161833D01*
X0236694Y0164528D01*
X0236694Y0166649D01*
X0239723Y0169677D01*
X0240194Y0170816D01*
X0240194Y0184550D01*
X0239723Y0185689D01*
X0238850Y0186561D01*
X0233579Y0191833D01*
X0234000Y0191833D01*
X0236694Y0194528D01*
X0236694Y0198338D01*
X0235097Y0199936D01*
X0237044Y0201883D01*
X0237044Y0203933D01*
X0232095Y0203933D01*
X0232095Y0203933D01*
X0237044Y0203933D01*
X0237044Y0205983D01*
X0234145Y0208883D01*
X0232095Y0208883D01*
X0232095Y0203933D01*
X0232094Y0203933D01*
X0227144Y0203933D01*
X0227144Y0201883D01*
X0229092Y0199936D01*
X0227494Y0198338D01*
X0227494Y0197917D01*
X0225194Y0200217D01*
X0225194Y0200528D01*
X0226694Y0202028D01*
X0226694Y0205838D01*
X0224000Y0208533D01*
X0220189Y0208533D01*
X0217494Y0205838D01*
X0217494Y0202028D01*
X0218994Y0200528D01*
X0218994Y0198316D01*
X0219466Y0197177D01*
X0224910Y0191733D01*
X0222399Y0191733D01*
X0219594Y0188928D01*
X0216790Y0191733D01*
X0212399Y0191733D01*
X0209899Y0189233D01*
X0209454Y0189233D01*
X0206677Y0192010D01*
X0209194Y0194528D01*
X0209194Y0198338D01*
X0206500Y0201033D01*
X0202689Y0201033D01*
X0199994Y0198338D01*
X0199994Y0195083D01*
X0197547Y0195083D01*
X0196597Y0195476D01*
X0206854Y0205733D01*
X0207494Y0205733D01*
X0207494Y0202028D01*
X0210189Y0199333D01*
X0214000Y0199333D01*
X0216694Y0202028D01*
X0216694Y0205838D01*
X0215727Y0206806D01*
X0215868Y0206947D01*
X0228833Y0219912D01*
X0229961Y0218783D01*
X0233085Y0218783D01*
X0238644Y0213223D01*
X0238644Y0192376D01*
X0239071Y0191347D01*
X0239858Y0190559D01*
X0243194Y0187223D01*
X0243194Y0121293D01*
X0239544Y0117643D01*
X0239544Y0118483D01*
X0236645Y0121383D01*
X0234954Y0121383D01*
X0235404Y0121833D01*
X0237750Y0121833D01*
X0240444Y0124528D01*
X0240444Y0128338D01*
X0237750Y0131033D01*
X0233939Y0131033D01*
X0231244Y0128338D01*
X0231244Y0125593D01*
X0222308Y0116657D01*
X0221521Y0115869D01*
X0221094Y0114840D01*
X0221094Y0113854D01*
X0219938Y0112697D01*
X0220194Y0113316D01*
X0220194Y0150149D01*
X0220194Y0148078D02*
X0243194Y0148078D01*
X0243194Y0146479D02*
X0220194Y0146479D01*
X0220194Y0144881D02*
X0224416Y0144881D01*
X0224568Y0145033D02*
X0220994Y0141460D01*
X0220994Y0139133D01*
X0226894Y0139133D01*
X0226894Y0138733D01*
X0220994Y0138733D01*
X0220994Y0136406D01*
X0224568Y0132833D01*
X0226894Y0132833D01*
X0226894Y0138733D01*
X0227294Y0138733D01*
X0227294Y0132833D01*
X0229621Y0132833D01*
X0233194Y0136406D01*
X0233194Y0138733D01*
X0227295Y0138733D01*
X0227295Y0139133D01*
X0233194Y0139133D01*
X0233194Y0141460D01*
X0229621Y0145033D01*
X0227294Y0145033D01*
X0227294Y0139133D01*
X0226894Y0139133D01*
X0226894Y0145033D01*
X0224568Y0145033D01*
X0226894Y0144881D02*
X0227294Y0144881D01*
X0227294Y0143282D02*
X0226894Y0143282D01*
X0226894Y0141684D02*
X0227294Y0141684D01*
X0227294Y0140085D02*
X0226894Y0140085D01*
X0226894Y0138487D02*
X0227294Y0138487D01*
X0227294Y0136888D02*
X0226894Y0136888D01*
X0226894Y0135290D02*
X0227294Y0135290D01*
X0227294Y0133691D02*
X0226894Y0133691D01*
X0223709Y0133691D02*
X0220194Y0133691D01*
X0220194Y0132093D02*
X0243194Y0132093D01*
X0243194Y0133691D02*
X0230479Y0133691D01*
X0232078Y0135290D02*
X0243194Y0135290D01*
X0243194Y0136888D02*
X0233194Y0136888D01*
X0233194Y0138487D02*
X0243194Y0138487D01*
X0243194Y0140085D02*
X0233194Y0140085D01*
X0232970Y0141684D02*
X0243194Y0141684D01*
X0243194Y0143282D02*
X0231372Y0143282D01*
X0229773Y0144881D02*
X0243194Y0144881D01*
X0248794Y0144881D02*
X0250620Y0144881D01*
X0250594Y0144820D02*
X0250594Y0143547D01*
X0251082Y0142370D01*
X0251982Y0141470D01*
X0252948Y0141070D01*
X0254671Y0139347D01*
X0255458Y0138559D01*
X0256488Y0138133D01*
X0260851Y0138133D01*
X0261881Y0138559D01*
X0263831Y0140509D01*
X0264618Y0141297D01*
X0265044Y0142326D01*
X0265044Y0212878D01*
X0265667Y0213500D01*
X0267808Y0211359D01*
X0268838Y0210933D01*
X0277542Y0210933D01*
X0278508Y0210533D01*
X0279781Y0210533D01*
X0280957Y0211020D01*
X0281857Y0211920D01*
X0282344Y0213097D01*
X0282344Y0214370D01*
X0281857Y0215546D01*
X0280957Y0216446D01*
X0279781Y0216933D01*
X0278508Y0216933D01*
X0277542Y0216533D01*
X0276695Y0216533D01*
X0277044Y0216883D01*
X0277044Y0218933D01*
X0272095Y0218933D01*
X0272095Y0218933D01*
X0277044Y0218933D01*
X0277044Y0220983D01*
X0274145Y0223883D01*
X0272095Y0223883D01*
X0272095Y0218933D01*
X0272094Y0218933D01*
X0269594Y0218933D01*
X0269594Y0218933D01*
X0272094Y0218933D01*
X0272094Y0218933D01*
X0272094Y0223883D01*
X0270044Y0223883D01*
X0269888Y0223727D01*
X0269596Y0224431D01*
X0270044Y0223983D01*
X0272094Y0223983D01*
X0272094Y0228933D01*
X0267144Y0228933D01*
X0272094Y0228933D01*
X0272094Y0228933D01*
X0272095Y0228933D01*
X0272095Y0228933D01*
X0277044Y0228933D01*
X0277044Y0226883D01*
X0274145Y0223983D01*
X0272095Y0223983D01*
X0272095Y0228933D01*
X0277044Y0228933D01*
X0277044Y0230983D01*
X0275097Y0232931D01*
X0276694Y0234528D01*
X0276694Y0238338D01*
X0275383Y0239650D01*
X0276333Y0240601D01*
X0277094Y0242438D01*
X0277094Y0247149D01*
X0277094Y0247149D01*
X0277094Y0242438D01*
X0277856Y0240601D01*
X0279262Y0239194D01*
X0281100Y0238433D01*
X0283089Y0238433D01*
X0284927Y0239194D01*
X0286333Y0240601D01*
X0287094Y0242438D01*
X0287094Y0250428D01*
X0286333Y0252265D01*
X0284927Y0253672D01*
X0283089Y0254433D01*
X0281100Y0254433D01*
X0279777Y0253885D01*
X0277237Y0256424D01*
X0294326Y0256424D01*
X0294326Y0242775D01*
X0294304Y0242750D01*
X0294326Y0242448D01*
X0294326Y0242145D01*
X0294349Y0242122D01*
X0294429Y0241004D01*
X0294394Y0240949D01*
X0294452Y0240681D01*
X0294460Y0240573D01*
X0294000Y0241033D01*
X0290189Y0241033D01*
X0287494Y0238338D01*
X0287494Y0234528D01*
X0288950Y0233072D01*
X0286944Y0231066D01*
X0286944Y0226800D01*
X0288994Y0224750D01*
X0288994Y0223116D01*
X0286944Y0221066D01*
X0286944Y0216800D01*
X0288994Y0214750D01*
X0288994Y0142717D01*
X0281588Y0135311D01*
X0280716Y0134439D01*
X0280244Y0133300D01*
X0280244Y0129838D01*
X0278744Y0128338D01*
X0278744Y0124528D01*
X0281439Y0121833D01*
X0281494Y0121833D01*
X0281494Y0120616D01*
X0279444Y0118566D01*
X0279444Y0114300D01*
X0281494Y0112250D01*
X0281494Y0108967D01*
X0272060Y0099533D01*
X0266783Y0099533D01*
X0266945Y0099616D01*
X0267588Y0100083D01*
X0268150Y0100645D01*
X0268617Y0101287D01*
X0268977Y0101995D01*
X0269223Y0102751D01*
X0269347Y0103536D01*
X0269347Y0103650D01*
X0264582Y0103650D01*
X0264582Y0104216D01*
X0264017Y0104216D01*
X0264017Y0108981D01*
X0263902Y0108981D01*
X0263117Y0108857D01*
X0262361Y0108611D01*
X0261653Y0108251D01*
X0261011Y0107783D01*
X0260844Y0107617D01*
X0260678Y0107783D01*
X0260036Y0108251D01*
X0259328Y0108611D01*
X0258572Y0108857D01*
X0257787Y0108981D01*
X0257672Y0108981D01*
X0257672Y0104216D01*
X0257107Y0104216D01*
X0257107Y0108981D01*
X0256992Y0108981D01*
X0256208Y0108857D01*
X0255452Y0108611D01*
X0254744Y0108251D01*
X0254101Y0107783D01*
X0253539Y0107222D01*
X0253072Y0106579D01*
X0252712Y0105871D01*
X0252466Y0105115D01*
X0252342Y0104330D01*
X0252342Y0104216D01*
X0257107Y0104216D01*
X0257107Y0103650D01*
X0252342Y0103650D01*
X0252342Y0103536D01*
X0252466Y0102751D01*
X0252712Y0101995D01*
X0253072Y0101287D01*
X0253539Y0100645D01*
X0254101Y0100083D01*
X0254744Y0099616D01*
X0254906Y0099533D01*
X0234821Y0099533D01*
X0236248Y0100960D01*
X0237047Y0102889D01*
X0237047Y0104977D01*
X0236388Y0106567D01*
X0247581Y0117759D01*
X0248368Y0118547D01*
X0248794Y0119576D01*
X0248794Y0188940D01*
X0248368Y0189969D01*
X0244244Y0194093D01*
X0244244Y0214940D01*
X0243818Y0215969D01*
X0239413Y0220375D01*
X0240238Y0220033D01*
X0249189Y0220033D01*
X0247494Y0218338D01*
X0247494Y0214528D01*
X0250189Y0211833D01*
X0251735Y0211833D01*
X0256194Y0207373D01*
X0256194Y0146309D01*
X0255607Y0146896D01*
X0254431Y0147383D01*
X0253158Y0147383D01*
X0251982Y0146896D01*
X0251082Y0145996D01*
X0250594Y0144820D01*
X0250704Y0143282D02*
X0248794Y0143282D01*
X0248794Y0141684D02*
X0251768Y0141684D01*
X0253932Y0140085D02*
X0248794Y0140085D01*
X0248794Y0138487D02*
X0255633Y0138487D01*
X0257044Y0140933D02*
X0260294Y0140933D01*
X0262244Y0142883D01*
X0262244Y0216333D01*
X0262094Y0216433D01*
X0266794Y0216333D02*
X0266794Y0222833D01*
X0263838Y0221610D02*
X0260651Y0221610D01*
X0260894Y0223208D02*
X0263594Y0223208D01*
X0264242Y0224807D02*
X0260246Y0224807D01*
X0257694Y0222833D02*
X0240794Y0222833D01*
X0234294Y0229333D01*
X0230394Y0229333D01*
X0226494Y0225433D01*
X0226494Y0221533D01*
X0213494Y0208533D01*
X0205694Y0208533D01*
X0188794Y0191633D01*
X0165394Y0191633D01*
X0160194Y0186433D01*
X0159594Y0186433D01*
X0138094Y0186433D01*
X0121194Y0203333D01*
X0114694Y0203333D01*
X0114594Y0203933D01*
X0111379Y0207223D02*
X0107527Y0207223D01*
X0106417Y0208333D02*
X0104595Y0208333D01*
X0104595Y0203933D01*
X0104595Y0203933D01*
X0108994Y0203933D01*
X0108994Y0202111D01*
X0106417Y0199533D01*
X0104595Y0199533D01*
X0104595Y0203933D01*
X0108994Y0203933D01*
X0108994Y0205756D01*
X0106417Y0208333D01*
X0104594Y0208333D02*
X0104594Y0203933D01*
X0100194Y0203933D01*
X0100194Y0202111D01*
X0102772Y0199533D01*
X0104594Y0199533D01*
X0104594Y0203933D01*
X0104594Y0203933D01*
X0100194Y0203933D01*
X0100194Y0205756D01*
X0102772Y0208333D01*
X0104594Y0208333D01*
X0104594Y0207223D02*
X0104595Y0207223D01*
X0104594Y0205624D02*
X0104595Y0205624D01*
X0104594Y0204026D02*
X0104595Y0204026D01*
X0104595Y0203933D02*
X0104594Y0203933D01*
X0104595Y0203933D01*
X0104594Y0202427D02*
X0104595Y0202427D01*
X0104594Y0200829D02*
X0104595Y0200829D01*
X0107713Y0200829D02*
X0111193Y0200829D01*
X0109994Y0202427D02*
X0108994Y0202427D01*
X0108994Y0204026D02*
X0109994Y0204026D01*
X0109994Y0205624D02*
X0108994Y0205624D01*
X0101662Y0207223D02*
X0092038Y0207223D01*
X0093349Y0205912D02*
X0089688Y0209573D01*
X0084510Y0209573D01*
X0080849Y0205912D01*
X0080849Y0200734D01*
X0084510Y0197073D01*
X0089688Y0197073D01*
X0093349Y0200734D01*
X0093349Y0205912D01*
X0093349Y0205624D02*
X0100194Y0205624D01*
X0100194Y0204026D02*
X0093349Y0204026D01*
X0093349Y0202427D02*
X0100194Y0202427D01*
X0101476Y0200829D02*
X0093349Y0200829D01*
X0091846Y0199230D02*
X0121337Y0199230D01*
X0122936Y0197632D02*
X0090247Y0197632D01*
X0083951Y0197632D02*
X0072694Y0197632D01*
X0072694Y0199230D02*
X0082353Y0199230D01*
X0080849Y0200829D02*
X0072694Y0200829D01*
X0072694Y0202427D02*
X0080849Y0202427D01*
X0080849Y0204026D02*
X0072694Y0204026D01*
X0072694Y0205624D02*
X0080849Y0205624D01*
X0082160Y0207223D02*
X0072694Y0207223D01*
X0072694Y0208821D02*
X0083759Y0208821D01*
X0090439Y0208821D02*
X0124994Y0208821D01*
X0124000Y0209333D02*
X0124994Y0210328D01*
X0124994Y0207028D01*
X0127689Y0204333D01*
X0131500Y0204333D01*
X0134194Y0207028D01*
X0134194Y0210838D01*
X0131500Y0213533D01*
X0127689Y0213533D01*
X0126694Y0212538D01*
X0126694Y0215611D01*
X0127772Y0214533D01*
X0129594Y0214533D01*
X0129594Y0218933D01*
X0125194Y0218933D01*
X0125194Y0217338D01*
X0124000Y0218533D01*
X0120189Y0218533D01*
X0117494Y0215838D01*
X0117494Y0212028D01*
X0120189Y0209333D01*
X0124000Y0209333D01*
X0124994Y0207223D02*
X0117810Y0207223D01*
X0119102Y0210420D02*
X0072694Y0210420D01*
X0072694Y0212018D02*
X0117504Y0212018D01*
X0117494Y0213617D02*
X0072694Y0213617D01*
X0074198Y0215215D02*
X0117494Y0215215D01*
X0118470Y0216814D02*
X0075796Y0216814D01*
X0077395Y0218412D02*
X0120069Y0218412D01*
X0117178Y0220011D02*
X0125194Y0220011D01*
X0125194Y0220756D02*
X0125194Y0218933D01*
X0129594Y0218933D01*
X0129594Y0218933D01*
X0129595Y0218933D01*
X0129595Y0218933D01*
X0133994Y0218933D01*
X0133994Y0217111D01*
X0131417Y0214533D01*
X0129595Y0214533D01*
X0129595Y0218933D01*
X0133994Y0218933D01*
X0133994Y0220756D01*
X0131417Y0223333D01*
X0129595Y0223333D01*
X0129595Y0218933D01*
X0129594Y0218933D01*
X0129594Y0223333D01*
X0127772Y0223333D01*
X0125194Y0220756D01*
X0126048Y0221610D02*
X0118776Y0221610D01*
X0119194Y0222028D02*
X0119194Y0225838D01*
X0116500Y0228533D01*
X0112689Y0228533D01*
X0110889Y0226733D01*
X0108300Y0226733D01*
X0106500Y0228533D01*
X0102689Y0228533D01*
X0099994Y0225838D01*
X0099994Y0222028D01*
X0102689Y0219333D01*
X0106500Y0219333D01*
X0108300Y0221133D01*
X0110889Y0221133D01*
X0112689Y0219333D01*
X0116500Y0219333D01*
X0119194Y0222028D01*
X0119194Y0223208D02*
X0127647Y0223208D01*
X0129594Y0223208D02*
X0129595Y0223208D01*
X0129594Y0221610D02*
X0129595Y0221610D01*
X0129594Y0220011D02*
X0129595Y0220011D01*
X0129594Y0218412D02*
X0129595Y0218412D01*
X0129594Y0216814D02*
X0129595Y0216814D01*
X0129594Y0215215D02*
X0129595Y0215215D01*
X0132099Y0215215D02*
X0187494Y0215215D01*
X0187494Y0213617D02*
X0126694Y0213617D01*
X0126694Y0215215D02*
X0127090Y0215215D01*
X0125194Y0218412D02*
X0124120Y0218412D01*
X0119194Y0224807D02*
X0137494Y0224807D01*
X0137494Y0223208D02*
X0131542Y0223208D01*
X0133141Y0221610D02*
X0137913Y0221610D01*
X0139511Y0220011D02*
X0133994Y0220011D01*
X0133994Y0218412D02*
X0190069Y0218412D01*
X0188470Y0216814D02*
X0133698Y0216814D01*
X0133014Y0212018D02*
X0187504Y0212018D01*
X0189102Y0210420D02*
X0134194Y0210420D01*
X0134194Y0208821D02*
X0159982Y0208821D01*
X0160044Y0208883D02*
X0157144Y0205983D01*
X0157144Y0203933D01*
X0157144Y0201883D01*
X0160044Y0198983D01*
X0162094Y0198983D01*
X0162094Y0203933D01*
X0157144Y0203933D01*
X0162094Y0203933D01*
X0162094Y0203933D01*
X0162095Y0203933D01*
X0162095Y0203933D01*
X0167044Y0203933D01*
X0167044Y0201883D01*
X0164145Y0198983D01*
X0162095Y0198983D01*
X0162095Y0203933D01*
X0167044Y0203933D01*
X0167044Y0205983D01*
X0164145Y0208883D01*
X0162095Y0208883D01*
X0162095Y0203933D01*
X0162094Y0203933D01*
X0162094Y0208883D01*
X0160044Y0208883D01*
X0162094Y0208821D02*
X0162095Y0208821D01*
X0162094Y0207223D02*
X0162095Y0207223D01*
X0162094Y0205624D02*
X0162095Y0205624D01*
X0162094Y0204026D02*
X0162095Y0204026D01*
X0162094Y0202427D02*
X0162095Y0202427D01*
X0162094Y0200829D02*
X0162095Y0200829D01*
X0162094Y0199230D02*
X0162095Y0199230D01*
X0164392Y0199230D02*
X0173386Y0199230D01*
X0172494Y0197632D02*
X0130855Y0197632D01*
X0129257Y0199230D02*
X0159797Y0199230D01*
X0158198Y0200829D02*
X0155496Y0200829D01*
X0156694Y0202028D02*
X0154000Y0199333D01*
X0150189Y0199333D01*
X0147494Y0202028D01*
X0147494Y0205838D01*
X0150189Y0208533D01*
X0154000Y0208533D01*
X0156694Y0205838D01*
X0156694Y0202028D01*
X0156694Y0202427D02*
X0157144Y0202427D01*
X0157144Y0204026D02*
X0156694Y0204026D01*
X0156694Y0205624D02*
X0157144Y0205624D01*
X0158384Y0207223D02*
X0155310Y0207223D01*
X0148879Y0207223D02*
X0145310Y0207223D01*
X0144000Y0208533D02*
X0146694Y0205838D01*
X0146694Y0202028D01*
X0144000Y0199333D01*
X0140189Y0199333D01*
X0137494Y0202028D01*
X0137494Y0205838D01*
X0140189Y0208533D01*
X0144000Y0208533D01*
X0138879Y0207223D02*
X0134194Y0207223D01*
X0132791Y0205624D02*
X0137494Y0205624D01*
X0137494Y0204026D02*
X0124461Y0204026D01*
X0122863Y0205624D02*
X0126398Y0205624D01*
X0126060Y0202427D02*
X0137494Y0202427D01*
X0138693Y0200829D02*
X0127658Y0200829D01*
X0124534Y0196033D02*
X0116995Y0196033D01*
X0116645Y0196383D02*
X0114595Y0196383D01*
X0114595Y0191433D01*
X0114595Y0191433D01*
X0119544Y0191433D01*
X0119544Y0189383D01*
X0116645Y0186483D01*
X0114595Y0186483D01*
X0114595Y0191433D01*
X0119544Y0191433D01*
X0119544Y0193483D01*
X0116645Y0196383D01*
X0114594Y0196383D02*
X0114594Y0191433D01*
X0114595Y0191433D01*
X0114594Y0191433D01*
X0114594Y0186483D01*
X0112544Y0186483D01*
X0109736Y0189291D01*
X0106728Y0186283D01*
X0102461Y0186283D01*
X0099444Y0189300D01*
X0099444Y0193566D01*
X0102461Y0196583D01*
X0106728Y0196583D01*
X0109736Y0193575D01*
X0112544Y0196383D01*
X0114594Y0196383D01*
X0114594Y0196033D02*
X0114595Y0196033D01*
X0114594Y0194435D02*
X0114595Y0194435D01*
X0114594Y0192836D02*
X0114595Y0192836D01*
X0114594Y0191238D02*
X0114595Y0191238D01*
X0114594Y0189639D02*
X0114595Y0189639D01*
X0114594Y0188041D02*
X0114595Y0188041D01*
X0118203Y0188041D02*
X0132527Y0188041D01*
X0130928Y0189639D02*
X0119544Y0189639D01*
X0119544Y0191238D02*
X0129330Y0191238D01*
X0127731Y0192836D02*
X0119544Y0192836D01*
X0118593Y0194435D02*
X0126133Y0194435D01*
X0132454Y0196033D02*
X0172494Y0196033D01*
X0172587Y0194435D02*
X0153098Y0194435D01*
X0154194Y0192836D02*
X0162638Y0192836D01*
X0156904Y0191238D02*
X0154194Y0191238D01*
X0154194Y0189639D02*
X0155305Y0189639D01*
X0149794Y0191633D02*
X0149594Y0191433D01*
X0144994Y0191238D02*
X0144194Y0191238D01*
X0144194Y0192836D02*
X0144994Y0192836D01*
X0146091Y0194435D02*
X0143098Y0194435D01*
X0144194Y0189639D02*
X0144994Y0189639D01*
X0136091Y0194435D02*
X0134053Y0194435D01*
X0134125Y0186442D02*
X0106887Y0186442D01*
X0108485Y0188041D02*
X0110986Y0188041D01*
X0102302Y0186442D02*
X0072694Y0186442D01*
X0072694Y0184844D02*
X0135724Y0184844D01*
X0155287Y0183245D02*
X0072694Y0183245D01*
X0072694Y0181647D02*
X0156885Y0181647D01*
X0155288Y0178450D02*
X0167651Y0178450D01*
X0169250Y0180048D02*
X0072694Y0180048D01*
X0074819Y0175253D02*
X0101414Y0175253D01*
X0100704Y0188041D02*
X0072694Y0188041D01*
X0072694Y0189639D02*
X0099444Y0189639D01*
X0099444Y0191238D02*
X0072694Y0191238D01*
X0072694Y0192836D02*
X0099444Y0192836D01*
X0100313Y0194435D02*
X0072694Y0194435D01*
X0072694Y0196033D02*
X0101912Y0196033D01*
X0107277Y0196033D02*
X0112194Y0196033D01*
X0110596Y0194435D02*
X0108876Y0194435D01*
X0107178Y0220011D02*
X0112011Y0220011D01*
X0114594Y0223933D02*
X0104594Y0223933D01*
X0099994Y0223208D02*
X0082191Y0223208D01*
X0083789Y0224807D02*
X0099994Y0224807D01*
X0100561Y0226405D02*
X0085388Y0226405D01*
X0086986Y0228004D02*
X0102160Y0228004D01*
X0107029Y0228004D02*
X0112160Y0228004D01*
X0117029Y0228004D02*
X0139294Y0228004D01*
X0139294Y0229602D02*
X0088585Y0229602D01*
X0090183Y0231201D02*
X0139294Y0231201D01*
X0139630Y0232799D02*
X0091782Y0232799D01*
X0093380Y0234398D02*
X0141099Y0234398D01*
X0142698Y0235996D02*
X0094979Y0235996D01*
X0096577Y0237595D02*
X0137561Y0237595D01*
X0137323Y0239193D02*
X0098176Y0239193D01*
X0099774Y0240792D02*
X0137323Y0240792D01*
X0137323Y0242390D02*
X0110607Y0242390D01*
X0108906Y0242390D02*
X0108905Y0242390D01*
X0108905Y0243989D02*
X0108906Y0243989D01*
X0108905Y0245587D02*
X0108906Y0245587D01*
X0108905Y0247186D02*
X0108906Y0247186D01*
X0108905Y0248784D02*
X0108906Y0248784D01*
X0108905Y0250383D02*
X0108906Y0250383D01*
X0110790Y0250383D02*
X0131579Y0250383D01*
X0129780Y0251981D02*
X0084527Y0251981D01*
X0089312Y0250383D02*
X0090738Y0250383D01*
X0095577Y0250383D02*
X0098612Y0250383D01*
X0103451Y0250383D02*
X0107021Y0250383D01*
X0105206Y0248784D02*
X0105009Y0248784D01*
X0104971Y0243989D02*
X0105274Y0243989D01*
X0107204Y0242390D02*
X0103226Y0242390D01*
X0112537Y0243989D02*
X0137323Y0243989D01*
X0136974Y0245587D02*
X0113201Y0245587D01*
X0113216Y0247186D02*
X0135175Y0247186D01*
X0133377Y0248784D02*
X0112605Y0248784D01*
X0090963Y0242390D02*
X0089219Y0242390D01*
X0091006Y0240792D02*
X0080194Y0240792D01*
X0080194Y0242390D02*
X0081348Y0242390D01*
X0080709Y0243989D02*
X0080194Y0243989D01*
X0080194Y0245587D02*
X0080709Y0245587D01*
X0080709Y0247186D02*
X0080194Y0247186D01*
X0080194Y0239193D02*
X0089408Y0239193D01*
X0087809Y0237595D02*
X0080194Y0237595D01*
X0080194Y0235996D02*
X0086210Y0235996D01*
X0084612Y0234398D02*
X0079443Y0234398D01*
X0077845Y0232799D02*
X0083013Y0232799D01*
X0081415Y0231201D02*
X0076246Y0231201D01*
X0074648Y0229602D02*
X0079816Y0229602D01*
X0078218Y0228004D02*
X0073049Y0228004D01*
X0071451Y0226405D02*
X0076619Y0226405D01*
X0080592Y0221610D02*
X0100413Y0221610D01*
X0102011Y0220011D02*
X0078993Y0220011D01*
X0066494Y0208821D02*
X0064557Y0208821D01*
X0066155Y0207223D02*
X0066494Y0207223D01*
X0118628Y0226405D02*
X0138061Y0226405D01*
X0142094Y0223933D02*
X0142094Y0231433D01*
X0152094Y0241433D01*
X0147323Y0240792D02*
X0146866Y0240792D01*
X0146866Y0242390D02*
X0147326Y0242390D01*
X0146866Y0243989D02*
X0147988Y0243989D01*
X0146883Y0245587D02*
X0149654Y0245587D01*
X0148481Y0247186D02*
X0194458Y0247186D01*
X0192859Y0248784D02*
X0150080Y0248784D01*
X0151678Y0250383D02*
X0191261Y0250383D01*
X0189662Y0251981D02*
X0153277Y0251981D01*
X0154534Y0245587D02*
X0159654Y0245587D01*
X0159392Y0245478D02*
X0158049Y0244136D01*
X0157323Y0242382D01*
X0157323Y0240484D01*
X0158049Y0238730D01*
X0159294Y0237485D01*
X0159294Y0228416D01*
X0156944Y0226066D01*
X0156944Y0221800D01*
X0159961Y0218783D01*
X0164228Y0218783D01*
X0167244Y0221800D01*
X0167244Y0226066D01*
X0164894Y0228416D01*
X0164894Y0237485D01*
X0166140Y0238730D01*
X0166866Y0240484D01*
X0166866Y0242382D01*
X0166140Y0244136D01*
X0164797Y0245478D01*
X0163044Y0246205D01*
X0161145Y0246205D01*
X0159392Y0245478D01*
X0157988Y0243989D02*
X0156201Y0243989D01*
X0156863Y0242390D02*
X0157326Y0242390D01*
X0157323Y0240792D02*
X0156866Y0240792D01*
X0156331Y0239193D02*
X0157857Y0239193D01*
X0159185Y0237595D02*
X0155004Y0237595D01*
X0159294Y0235996D02*
X0150617Y0235996D01*
X0149019Y0234398D02*
X0159294Y0234398D01*
X0159294Y0232799D02*
X0147420Y0232799D01*
X0145822Y0231201D02*
X0159294Y0231201D01*
X0159294Y0229602D02*
X0144894Y0229602D01*
X0144894Y0228004D02*
X0149660Y0228004D01*
X0150189Y0228533D02*
X0147494Y0225838D01*
X0147494Y0222028D01*
X0150189Y0219333D01*
X0154000Y0219333D01*
X0156694Y0222028D01*
X0156694Y0225838D01*
X0154000Y0228533D01*
X0150189Y0228533D01*
X0148061Y0226405D02*
X0146128Y0226405D01*
X0146694Y0224807D02*
X0147494Y0224807D01*
X0147494Y0223208D02*
X0146694Y0223208D01*
X0146276Y0221610D02*
X0147913Y0221610D01*
X0149511Y0220011D02*
X0144678Y0220011D01*
X0154678Y0220011D02*
X0158733Y0220011D01*
X0157135Y0221610D02*
X0156276Y0221610D01*
X0156694Y0223208D02*
X0156944Y0223208D01*
X0156944Y0224807D02*
X0156694Y0224807D01*
X0156128Y0226405D02*
X0157283Y0226405D01*
X0158882Y0228004D02*
X0154529Y0228004D01*
X0162094Y0223933D02*
X0162094Y0241433D01*
X0166331Y0239193D02*
X0168105Y0239193D01*
X0168184Y0239037D02*
X0168607Y0238455D01*
X0169116Y0237946D01*
X0169698Y0237523D01*
X0170340Y0237196D01*
X0171024Y0236974D01*
X0171735Y0236861D01*
X0172009Y0236861D01*
X0172009Y0241347D01*
X0172180Y0241347D01*
X0172180Y0236861D01*
X0172454Y0236861D01*
X0173165Y0236974D01*
X0173849Y0237196D01*
X0174491Y0237523D01*
X0175073Y0237946D01*
X0175582Y0238455D01*
X0176005Y0239037D01*
X0176331Y0239678D01*
X0176554Y0240363D01*
X0176666Y0241073D01*
X0176666Y0241347D01*
X0172180Y0241347D01*
X0172180Y0241519D01*
X0172009Y0241519D01*
X0172009Y0246005D01*
X0171735Y0246005D01*
X0171024Y0245892D01*
X0170340Y0245670D01*
X0169698Y0245343D01*
X0169116Y0244920D01*
X0168607Y0244411D01*
X0168184Y0243829D01*
X0167858Y0243188D01*
X0167635Y0242504D01*
X0167523Y0241793D01*
X0167523Y0241519D01*
X0172009Y0241519D01*
X0172009Y0241347D01*
X0167523Y0241347D01*
X0167523Y0241073D01*
X0167635Y0240363D01*
X0167858Y0239678D01*
X0168184Y0239037D01*
X0167567Y0240792D02*
X0166866Y0240792D01*
X0166863Y0242390D02*
X0167617Y0242390D01*
X0168300Y0243989D02*
X0166201Y0243989D01*
X0164534Y0245587D02*
X0170177Y0245587D01*
X0172009Y0245587D02*
X0172180Y0245587D01*
X0172180Y0246005D02*
X0172454Y0246005D01*
X0173165Y0245892D01*
X0173849Y0245670D01*
X0174491Y0245343D01*
X0175073Y0244920D01*
X0175582Y0244411D01*
X0176005Y0243829D01*
X0176331Y0243188D01*
X0176554Y0242504D01*
X0176666Y0241793D01*
X0176666Y0241519D01*
X0172180Y0241519D01*
X0172180Y0246005D01*
X0174011Y0245587D02*
X0196056Y0245587D01*
X0197323Y0243989D02*
X0175889Y0243989D01*
X0176572Y0242390D02*
X0197323Y0242390D01*
X0197323Y0240792D02*
X0176622Y0240792D01*
X0176084Y0239193D02*
X0197323Y0239193D01*
X0197561Y0237595D02*
X0174589Y0237595D01*
X0172180Y0237595D02*
X0172009Y0237595D01*
X0172009Y0239193D02*
X0172180Y0239193D01*
X0172180Y0240792D02*
X0172009Y0240792D01*
X0172009Y0242390D02*
X0172180Y0242390D01*
X0172180Y0243989D02*
X0172009Y0243989D01*
X0169600Y0237595D02*
X0165004Y0237595D01*
X0164894Y0235996D02*
X0209294Y0235996D01*
X0209294Y0237485D02*
X0209294Y0227638D01*
X0207494Y0225838D01*
X0207494Y0222028D01*
X0210189Y0219333D01*
X0214000Y0219333D01*
X0216694Y0222028D01*
X0216694Y0225838D01*
X0214894Y0227638D01*
X0214894Y0237485D01*
X0216140Y0238730D01*
X0216866Y0240484D01*
X0216866Y0242382D01*
X0216140Y0244136D01*
X0214797Y0245478D01*
X0213044Y0246205D01*
X0211145Y0246205D01*
X0209392Y0245478D01*
X0208049Y0244136D01*
X0207323Y0242382D01*
X0207323Y0240484D01*
X0208049Y0238730D01*
X0209294Y0237485D01*
X0209185Y0237595D02*
X0206628Y0237595D01*
X0206866Y0239193D02*
X0207857Y0239193D01*
X0207323Y0240792D02*
X0206866Y0240792D01*
X0206866Y0242390D02*
X0207326Y0242390D01*
X0206866Y0243989D02*
X0207988Y0243989D01*
X0208133Y0245587D02*
X0209654Y0245587D01*
X0209731Y0247186D02*
X0247094Y0247186D01*
X0247094Y0248784D02*
X0211330Y0248784D01*
X0212928Y0250383D02*
X0247094Y0250383D01*
X0247738Y0251981D02*
X0214527Y0251981D01*
X0214534Y0245587D02*
X0219654Y0245587D01*
X0217988Y0243989D02*
X0216201Y0243989D01*
X0216863Y0242390D02*
X0217326Y0242390D01*
X0217323Y0240792D02*
X0216866Y0240792D01*
X0216331Y0239193D02*
X0217857Y0239193D01*
X0219185Y0237595D02*
X0215004Y0237595D01*
X0214894Y0235996D02*
X0219294Y0235996D01*
X0219294Y0234398D02*
X0214894Y0234398D01*
X0214894Y0232799D02*
X0219294Y0232799D01*
X0219294Y0231201D02*
X0214894Y0231201D01*
X0214894Y0229602D02*
X0219294Y0229602D01*
X0219294Y0228004D02*
X0214894Y0228004D01*
X0216128Y0226405D02*
X0218061Y0226405D01*
X0217494Y0224807D02*
X0216694Y0224807D01*
X0216694Y0223208D02*
X0217494Y0223208D01*
X0217913Y0221610D02*
X0216276Y0221610D01*
X0214678Y0220011D02*
X0219511Y0220011D01*
X0219414Y0218412D02*
X0203994Y0218412D01*
X0203994Y0218933D02*
X0199595Y0218933D01*
X0199595Y0218933D01*
X0203994Y0218933D01*
X0203994Y0217111D01*
X0201417Y0214533D01*
X0199595Y0214533D01*
X0199595Y0218933D01*
X0199594Y0218933D01*
X0199594Y0218933D01*
X0195194Y0218933D01*
X0195194Y0220756D01*
X0197772Y0223333D01*
X0199594Y0223333D01*
X0199594Y0218933D01*
X0199595Y0218933D01*
X0199595Y0223333D01*
X0201417Y0223333D01*
X0203994Y0220756D01*
X0203994Y0218933D01*
X0203994Y0220011D02*
X0209511Y0220011D01*
X0207913Y0221610D02*
X0203141Y0221610D01*
X0201542Y0223208D02*
X0207494Y0223208D01*
X0207494Y0224807D02*
X0189194Y0224807D01*
X0189194Y0225838D02*
X0189194Y0222028D01*
X0186500Y0219333D01*
X0182689Y0219333D01*
X0179994Y0222028D01*
X0179994Y0225838D01*
X0182689Y0228533D01*
X0186500Y0228533D01*
X0189194Y0225838D01*
X0188628Y0226405D02*
X0208061Y0226405D01*
X0209294Y0228004D02*
X0187029Y0228004D01*
X0182160Y0228004D02*
X0177029Y0228004D01*
X0176500Y0228533D02*
X0172689Y0228533D01*
X0169994Y0225838D01*
X0169994Y0222028D01*
X0172689Y0219333D01*
X0176500Y0219333D01*
X0179194Y0222028D01*
X0179194Y0225838D01*
X0176500Y0228533D01*
X0178628Y0226405D02*
X0180561Y0226405D01*
X0179994Y0224807D02*
X0179194Y0224807D01*
X0179194Y0223208D02*
X0179994Y0223208D01*
X0180413Y0221610D02*
X0178776Y0221610D01*
X0177178Y0220011D02*
X0182011Y0220011D01*
X0187178Y0220011D02*
X0195194Y0220011D01*
X0195194Y0218412D02*
X0194120Y0218412D01*
X0196048Y0221610D02*
X0188776Y0221610D01*
X0189194Y0223208D02*
X0197647Y0223208D01*
X0199594Y0223208D02*
X0199595Y0223208D01*
X0199594Y0221610D02*
X0199595Y0221610D01*
X0199594Y0220011D02*
X0199595Y0220011D01*
X0199594Y0218412D02*
X0199595Y0218412D01*
X0199594Y0216814D02*
X0199595Y0216814D01*
X0199594Y0215215D02*
X0199595Y0215215D01*
X0202099Y0215215D02*
X0216217Y0215215D01*
X0214619Y0213617D02*
X0196694Y0213617D01*
X0196694Y0215215D02*
X0197090Y0215215D01*
X0203014Y0212018D02*
X0213020Y0212018D01*
X0217743Y0208821D02*
X0229982Y0208821D01*
X0230044Y0208883D02*
X0227144Y0205983D01*
X0227144Y0203933D01*
X0232094Y0203933D01*
X0232094Y0203933D01*
X0232094Y0208883D01*
X0230044Y0208883D01*
X0232094Y0208821D02*
X0232095Y0208821D01*
X0232094Y0207223D02*
X0232095Y0207223D01*
X0232094Y0205624D02*
X0232095Y0205624D01*
X0232094Y0204026D02*
X0232095Y0204026D01*
X0235805Y0207223D02*
X0238644Y0207223D01*
X0238644Y0208821D02*
X0234206Y0208821D01*
X0238644Y0210420D02*
X0219341Y0210420D01*
X0220940Y0212018D02*
X0238644Y0212018D01*
X0238251Y0213617D02*
X0222538Y0213617D01*
X0224137Y0215215D02*
X0236652Y0215215D01*
X0235054Y0216814D02*
X0225735Y0216814D01*
X0227334Y0218412D02*
X0233455Y0218412D01*
X0232344Y0223483D02*
X0232094Y0223933D01*
X0232344Y0223483D02*
X0241444Y0214383D01*
X0241444Y0192933D01*
X0245994Y0188383D01*
X0245994Y0120133D01*
X0232344Y0106483D01*
X0232344Y0104533D01*
X0231799Y0103933D01*
X0235411Y0100123D02*
X0254061Y0100123D01*
X0252851Y0101721D02*
X0236563Y0101721D01*
X0237047Y0103320D02*
X0252376Y0103320D01*
X0252435Y0104918D02*
X0237047Y0104918D01*
X0236409Y0106517D02*
X0253041Y0106517D01*
X0254558Y0108115D02*
X0237936Y0108115D01*
X0239535Y0109714D02*
X0281494Y0109714D01*
X0281494Y0111312D02*
X0256757Y0111312D01*
X0256728Y0111283D02*
X0259736Y0114291D01*
X0262544Y0111483D01*
X0264594Y0111483D01*
X0264594Y0116433D01*
X0264595Y0116433D01*
X0264595Y0116433D01*
X0269544Y0116433D01*
X0269544Y0114383D01*
X0266645Y0111483D01*
X0264595Y0111483D01*
X0264595Y0116433D01*
X0269544Y0116433D01*
X0269544Y0118483D01*
X0266645Y0121383D01*
X0264595Y0121383D01*
X0264595Y0116433D01*
X0264594Y0116433D01*
X0264594Y0121383D01*
X0263504Y0121383D01*
X0263954Y0121833D01*
X0265250Y0121833D01*
X0267944Y0124528D01*
X0267944Y0128338D01*
X0265250Y0131033D01*
X0261439Y0131033D01*
X0259453Y0129047D01*
X0257667Y0130833D01*
X0255845Y0130833D01*
X0255845Y0126433D01*
X0255845Y0122033D01*
X0256235Y0122033D01*
X0255785Y0121583D01*
X0252461Y0121583D01*
X0249444Y0118566D01*
X0249444Y0114300D01*
X0252461Y0111283D01*
X0256728Y0111283D01*
X0258355Y0112911D02*
X0261116Y0112911D01*
X0264594Y0112911D02*
X0264595Y0112911D01*
X0264594Y0114509D02*
X0264595Y0114509D01*
X0264594Y0116108D02*
X0264595Y0116108D01*
X0264594Y0117706D02*
X0264595Y0117706D01*
X0264594Y0119305D02*
X0264595Y0119305D01*
X0264594Y0120903D02*
X0264595Y0120903D01*
X0265919Y0122502D02*
X0280770Y0122502D01*
X0281494Y0120903D02*
X0267125Y0120903D01*
X0268723Y0119305D02*
X0280183Y0119305D01*
X0279444Y0117706D02*
X0269544Y0117706D01*
X0269544Y0116108D02*
X0279444Y0116108D01*
X0279444Y0114509D02*
X0269544Y0114509D01*
X0268073Y0112911D02*
X0280834Y0112911D01*
X0280643Y0108115D02*
X0267131Y0108115D01*
X0266945Y0108251D02*
X0266237Y0108611D01*
X0265481Y0108857D01*
X0264697Y0108981D01*
X0264582Y0108981D01*
X0264582Y0104216D01*
X0269347Y0104216D01*
X0269347Y0104330D01*
X0269223Y0105115D01*
X0268977Y0105871D01*
X0268617Y0106579D01*
X0268150Y0107222D01*
X0267588Y0107783D01*
X0266945Y0108251D01*
X0264582Y0108115D02*
X0264017Y0108115D01*
X0264017Y0106517D02*
X0264582Y0106517D01*
X0264582Y0104918D02*
X0264017Y0104918D01*
X0264016Y0104216D02*
X0264016Y0103650D01*
X0257673Y0103650D01*
X0257673Y0104216D01*
X0262438Y0104216D01*
X0264016Y0104216D01*
X0267628Y0100123D02*
X0272650Y0100123D01*
X0274249Y0101721D02*
X0268838Y0101721D01*
X0269313Y0103320D02*
X0275847Y0103320D01*
X0277446Y0104918D02*
X0269254Y0104918D01*
X0268648Y0106517D02*
X0279044Y0106517D01*
X0283017Y0101721D02*
X0285126Y0101721D01*
X0284642Y0103320D02*
X0284615Y0103320D01*
X0286278Y0100123D02*
X0281418Y0100123D01*
X0279820Y0098524D02*
X0294326Y0098524D01*
X0294326Y0096926D02*
X0278221Y0096926D01*
X0276623Y0095327D02*
X0294326Y0095327D01*
X0294326Y0093729D02*
X0274916Y0093729D01*
X0257672Y0104918D02*
X0257107Y0104918D01*
X0257107Y0106517D02*
X0257672Y0106517D01*
X0257672Y0108115D02*
X0257107Y0108115D01*
X0260222Y0108115D02*
X0261467Y0108115D01*
X0252432Y0111312D02*
X0241133Y0111312D01*
X0242732Y0112911D02*
X0250834Y0112911D01*
X0249444Y0114509D02*
X0244330Y0114509D01*
X0245929Y0116108D02*
X0249444Y0116108D01*
X0249444Y0117706D02*
X0247527Y0117706D01*
X0247581Y0117759D02*
X0247581Y0117759D01*
X0248682Y0119305D02*
X0250183Y0119305D01*
X0248794Y0120903D02*
X0251782Y0120903D01*
X0253553Y0122502D02*
X0248794Y0122502D01*
X0248794Y0124100D02*
X0251955Y0124100D01*
X0251444Y0124611D02*
X0254022Y0122033D01*
X0255844Y0122033D01*
X0255844Y0126433D01*
X0251444Y0126433D01*
X0251444Y0124611D01*
X0251444Y0125699D02*
X0248794Y0125699D01*
X0248794Y0127297D02*
X0251444Y0127297D01*
X0251444Y0126433D02*
X0251444Y0128256D01*
X0254022Y0130833D01*
X0255844Y0130833D01*
X0255844Y0126433D01*
X0255844Y0126433D01*
X0251444Y0126433D01*
X0252085Y0128896D02*
X0248794Y0128896D01*
X0248794Y0130494D02*
X0253683Y0130494D01*
X0255844Y0130494D02*
X0255845Y0130494D01*
X0255844Y0128896D02*
X0255845Y0128896D01*
X0255844Y0127297D02*
X0255845Y0127297D01*
X0255845Y0126433D02*
X0255844Y0126433D01*
X0255845Y0126433D01*
X0255844Y0125699D02*
X0255845Y0125699D01*
X0255844Y0124100D02*
X0255845Y0124100D01*
X0255844Y0122502D02*
X0255845Y0122502D01*
X0254594Y0116433D02*
X0263344Y0125183D01*
X0263344Y0126433D01*
X0267944Y0125699D02*
X0278744Y0125699D01*
X0278744Y0127297D02*
X0267944Y0127297D01*
X0267387Y0128896D02*
X0279302Y0128896D01*
X0280244Y0130494D02*
X0265789Y0130494D01*
X0260900Y0130494D02*
X0258006Y0130494D01*
X0267517Y0124100D02*
X0279172Y0124100D01*
X0280244Y0132093D02*
X0248794Y0132093D01*
X0248794Y0133691D02*
X0280407Y0133691D01*
X0281567Y0135290D02*
X0248794Y0135290D01*
X0248794Y0136888D02*
X0283166Y0136888D01*
X0284764Y0138487D02*
X0261706Y0138487D01*
X0263407Y0140085D02*
X0286363Y0140085D01*
X0287961Y0141684D02*
X0264778Y0141684D01*
X0265044Y0143282D02*
X0288994Y0143282D01*
X0288994Y0144881D02*
X0265044Y0144881D01*
X0265044Y0146479D02*
X0288994Y0146479D01*
X0288994Y0148078D02*
X0265044Y0148078D01*
X0265044Y0149677D02*
X0288994Y0149677D01*
X0288994Y0151275D02*
X0265044Y0151275D01*
X0265044Y0152874D02*
X0288994Y0152874D01*
X0288994Y0154472D02*
X0265044Y0154472D01*
X0265044Y0156071D02*
X0288994Y0156071D01*
X0288994Y0157669D02*
X0265044Y0157669D01*
X0265044Y0159268D02*
X0288994Y0159268D01*
X0288994Y0160866D02*
X0265044Y0160866D01*
X0265044Y0162465D02*
X0288994Y0162465D01*
X0288994Y0164063D02*
X0265044Y0164063D01*
X0265044Y0165662D02*
X0288994Y0165662D01*
X0288994Y0167260D02*
X0265044Y0167260D01*
X0265044Y0168859D02*
X0288994Y0168859D01*
X0288994Y0170457D02*
X0265044Y0170457D01*
X0265044Y0172056D02*
X0288994Y0172056D01*
X0288994Y0173654D02*
X0265044Y0173654D01*
X0265044Y0175253D02*
X0288994Y0175253D01*
X0288994Y0176851D02*
X0265044Y0176851D01*
X0265044Y0178450D02*
X0288994Y0178450D01*
X0288994Y0180048D02*
X0265044Y0180048D01*
X0265044Y0181647D02*
X0288994Y0181647D01*
X0288994Y0183245D02*
X0265044Y0183245D01*
X0265044Y0184844D02*
X0288994Y0184844D01*
X0288994Y0186442D02*
X0265044Y0186442D01*
X0265044Y0188041D02*
X0288994Y0188041D01*
X0288994Y0189639D02*
X0265044Y0189639D01*
X0265044Y0191238D02*
X0288994Y0191238D01*
X0288994Y0192836D02*
X0265044Y0192836D01*
X0265044Y0194435D02*
X0288994Y0194435D01*
X0288994Y0196033D02*
X0265044Y0196033D01*
X0265044Y0197632D02*
X0288994Y0197632D01*
X0288994Y0199230D02*
X0265044Y0199230D01*
X0265044Y0200829D02*
X0288994Y0200829D01*
X0288994Y0202427D02*
X0265044Y0202427D01*
X0265044Y0204026D02*
X0288994Y0204026D01*
X0288994Y0205624D02*
X0265044Y0205624D01*
X0265044Y0207223D02*
X0288994Y0207223D01*
X0288994Y0208821D02*
X0265044Y0208821D01*
X0265044Y0210420D02*
X0288994Y0210420D01*
X0288994Y0212018D02*
X0281898Y0212018D01*
X0282344Y0213617D02*
X0288994Y0213617D01*
X0288529Y0215215D02*
X0281994Y0215215D01*
X0280069Y0216814D02*
X0286944Y0216814D01*
X0286944Y0218412D02*
X0277044Y0218412D01*
X0277044Y0220011D02*
X0286944Y0220011D01*
X0287488Y0221610D02*
X0276418Y0221610D01*
X0274820Y0223208D02*
X0288994Y0223208D01*
X0288938Y0224807D02*
X0274968Y0224807D01*
X0276567Y0226405D02*
X0287339Y0226405D01*
X0286944Y0228004D02*
X0277044Y0228004D01*
X0277044Y0229602D02*
X0286944Y0229602D01*
X0287079Y0231201D02*
X0276827Y0231201D01*
X0275229Y0232799D02*
X0288677Y0232799D01*
X0287625Y0234398D02*
X0276564Y0234398D01*
X0276694Y0235996D02*
X0287494Y0235996D01*
X0287494Y0237595D02*
X0276694Y0237595D01*
X0275840Y0239193D02*
X0279265Y0239193D01*
X0277777Y0240792D02*
X0276412Y0240792D01*
X0277074Y0242390D02*
X0277115Y0242390D01*
X0277094Y0243989D02*
X0277094Y0243989D01*
X0277094Y0245587D02*
X0277094Y0245587D01*
X0286412Y0240792D02*
X0289948Y0240792D01*
X0288349Y0239193D02*
X0284924Y0239193D01*
X0287074Y0242390D02*
X0294326Y0242390D01*
X0294326Y0243989D02*
X0287094Y0243989D01*
X0287094Y0245587D02*
X0294326Y0245587D01*
X0294326Y0247186D02*
X0287094Y0247186D01*
X0287094Y0248784D02*
X0294326Y0248784D01*
X0294326Y0250383D02*
X0287094Y0250383D01*
X0286451Y0251981D02*
X0294326Y0251981D01*
X0294326Y0253580D02*
X0285019Y0253580D01*
X0278483Y0255178D02*
X0294326Y0255178D01*
X0294241Y0240792D02*
X0294428Y0240792D01*
X0272094Y0228004D02*
X0272095Y0228004D01*
X0272094Y0226405D02*
X0272095Y0226405D01*
X0272094Y0224807D02*
X0272095Y0224807D01*
X0272094Y0223208D02*
X0272095Y0223208D01*
X0272094Y0221610D02*
X0272095Y0221610D01*
X0272094Y0220011D02*
X0272095Y0220011D01*
X0276976Y0216814D02*
X0278220Y0216814D01*
X0279144Y0213733D02*
X0269394Y0213733D01*
X0266794Y0216333D01*
X0267149Y0212018D02*
X0265044Y0212018D01*
X0258994Y0208533D02*
X0252494Y0215033D01*
X0252494Y0216333D01*
X0252094Y0216433D01*
X0247494Y0216814D02*
X0242973Y0216814D01*
X0244130Y0215215D02*
X0247494Y0215215D01*
X0248405Y0213617D02*
X0244244Y0213617D01*
X0244244Y0212018D02*
X0250004Y0212018D01*
X0253148Y0210420D02*
X0244244Y0210420D01*
X0244244Y0208821D02*
X0254746Y0208821D01*
X0256194Y0207223D02*
X0244244Y0207223D01*
X0244244Y0205624D02*
X0256194Y0205624D01*
X0256194Y0204026D02*
X0244244Y0204026D01*
X0244244Y0202427D02*
X0256194Y0202427D01*
X0256194Y0200829D02*
X0244244Y0200829D01*
X0244244Y0199230D02*
X0256194Y0199230D01*
X0256194Y0197632D02*
X0244244Y0197632D01*
X0244244Y0196033D02*
X0256194Y0196033D01*
X0256194Y0194435D02*
X0244244Y0194435D01*
X0245501Y0192836D02*
X0256194Y0192836D01*
X0256194Y0191238D02*
X0247100Y0191238D01*
X0248505Y0189639D02*
X0256194Y0189639D01*
X0256194Y0188041D02*
X0248794Y0188041D01*
X0248794Y0186442D02*
X0256194Y0186442D01*
X0256194Y0184844D02*
X0248794Y0184844D01*
X0248794Y0183245D02*
X0256194Y0183245D01*
X0256194Y0181647D02*
X0248794Y0181647D01*
X0248794Y0180048D02*
X0256194Y0180048D01*
X0256194Y0178450D02*
X0248794Y0178450D01*
X0248794Y0176851D02*
X0256194Y0176851D01*
X0256194Y0175253D02*
X0248794Y0175253D01*
X0248794Y0173654D02*
X0256194Y0173654D01*
X0256194Y0172056D02*
X0248794Y0172056D01*
X0248794Y0170457D02*
X0256194Y0170457D01*
X0256194Y0168859D02*
X0248794Y0168859D01*
X0248794Y0167260D02*
X0256194Y0167260D01*
X0256194Y0165662D02*
X0248794Y0165662D01*
X0248794Y0164063D02*
X0256194Y0164063D01*
X0256194Y0162465D02*
X0248794Y0162465D01*
X0248794Y0160866D02*
X0256194Y0160866D01*
X0256194Y0159268D02*
X0248794Y0159268D01*
X0248794Y0157669D02*
X0256194Y0157669D01*
X0256194Y0156071D02*
X0248794Y0156071D01*
X0248794Y0154472D02*
X0256194Y0154472D01*
X0256194Y0152874D02*
X0248794Y0152874D01*
X0248794Y0151275D02*
X0256194Y0151275D01*
X0256194Y0149677D02*
X0248794Y0149677D01*
X0248794Y0148078D02*
X0256194Y0148078D01*
X0256194Y0146479D02*
X0256024Y0146479D01*
X0253794Y0144183D02*
X0257044Y0140933D01*
X0258994Y0144183D02*
X0258994Y0208533D01*
X0247569Y0218412D02*
X0241375Y0218412D01*
X0239776Y0220011D02*
X0249167Y0220011D01*
X0241182Y0226405D02*
X0267622Y0226405D01*
X0267144Y0228004D02*
X0239584Y0228004D01*
X0237985Y0229602D02*
X0267144Y0229602D01*
X0267362Y0231201D02*
X0236387Y0231201D01*
X0233849Y0237196D02*
X0234491Y0237523D01*
X0235073Y0237946D01*
X0235582Y0238455D01*
X0236005Y0239037D01*
X0236331Y0239678D01*
X0236554Y0240363D01*
X0236666Y0241073D01*
X0236666Y0241347D01*
X0232180Y0241347D01*
X0232180Y0236861D01*
X0232454Y0236861D01*
X0233165Y0236974D01*
X0233849Y0237196D01*
X0234589Y0237595D02*
X0247494Y0237595D01*
X0247494Y0235996D02*
X0224894Y0235996D01*
X0224894Y0234398D02*
X0247625Y0234398D01*
X0249223Y0232799D02*
X0224894Y0232799D01*
X0224894Y0231201D02*
X0228302Y0231201D01*
X0226704Y0229602D02*
X0224894Y0229602D01*
X0224894Y0228004D02*
X0225105Y0228004D01*
X0222094Y0223933D02*
X0222094Y0241433D01*
X0226331Y0239193D02*
X0228105Y0239193D01*
X0228184Y0239037D02*
X0228607Y0238455D01*
X0229116Y0237946D01*
X0229698Y0237523D01*
X0230340Y0237196D01*
X0231024Y0236974D01*
X0231735Y0236861D01*
X0232009Y0236861D01*
X0232009Y0241347D01*
X0232180Y0241347D01*
X0232180Y0241519D01*
X0232009Y0241519D01*
X0232009Y0246005D01*
X0231735Y0246005D01*
X0231024Y0245892D01*
X0230340Y0245670D01*
X0229698Y0245343D01*
X0229116Y0244920D01*
X0228607Y0244411D01*
X0228184Y0243829D01*
X0227858Y0243188D01*
X0227635Y0242504D01*
X0227523Y0241793D01*
X0227523Y0241519D01*
X0232009Y0241519D01*
X0232009Y0241347D01*
X0227523Y0241347D01*
X0227523Y0241073D01*
X0227635Y0240363D01*
X0227858Y0239678D01*
X0228184Y0239037D01*
X0227567Y0240792D02*
X0226866Y0240792D01*
X0226863Y0242390D02*
X0227617Y0242390D01*
X0228300Y0243989D02*
X0226201Y0243989D01*
X0224534Y0245587D02*
X0230177Y0245587D01*
X0232009Y0245587D02*
X0232180Y0245587D01*
X0232180Y0246005D02*
X0232454Y0246005D01*
X0233165Y0245892D01*
X0233849Y0245670D01*
X0234491Y0245343D01*
X0235073Y0244920D01*
X0235582Y0244411D01*
X0236005Y0243829D01*
X0236331Y0243188D01*
X0236554Y0242504D01*
X0236666Y0241793D01*
X0236666Y0241519D01*
X0232180Y0241519D01*
X0232180Y0246005D01*
X0234011Y0245587D02*
X0247094Y0245587D01*
X0247094Y0243989D02*
X0235889Y0243989D01*
X0236572Y0242390D02*
X0247115Y0242390D01*
X0247777Y0240792D02*
X0236622Y0240792D01*
X0236084Y0239193D02*
X0248349Y0239193D01*
X0255840Y0239193D02*
X0258349Y0239193D01*
X0257777Y0240792D02*
X0256412Y0240792D01*
X0257074Y0242390D02*
X0257115Y0242390D01*
X0257094Y0243989D02*
X0257094Y0243989D01*
X0257094Y0245587D02*
X0257094Y0245587D01*
X0257094Y0247186D02*
X0257094Y0247186D01*
X0257094Y0248784D02*
X0257094Y0248784D01*
X0257094Y0250383D02*
X0257094Y0250383D01*
X0256451Y0251981D02*
X0257738Y0251981D01*
X0266451Y0251981D02*
X0267738Y0251981D01*
X0267094Y0250383D02*
X0267094Y0250383D01*
X0267094Y0248784D02*
X0267094Y0248784D01*
X0267094Y0247186D02*
X0267094Y0247186D01*
X0267094Y0245587D02*
X0267094Y0245587D01*
X0267094Y0243989D02*
X0267094Y0243989D01*
X0267074Y0242390D02*
X0267115Y0242390D01*
X0267777Y0240792D02*
X0266412Y0240792D01*
X0265840Y0239193D02*
X0268349Y0239193D01*
X0267494Y0237595D02*
X0266694Y0237595D01*
X0266694Y0235996D02*
X0267494Y0235996D01*
X0267625Y0234398D02*
X0266564Y0234398D01*
X0264966Y0232799D02*
X0268960Y0232799D01*
X0259223Y0232799D02*
X0254966Y0232799D01*
X0256564Y0234398D02*
X0257625Y0234398D01*
X0257494Y0235996D02*
X0256694Y0235996D01*
X0256694Y0237595D02*
X0257494Y0237595D01*
X0232180Y0237595D02*
X0232009Y0237595D01*
X0232009Y0239193D02*
X0232180Y0239193D01*
X0232180Y0240792D02*
X0232009Y0240792D01*
X0232009Y0242390D02*
X0232180Y0242390D01*
X0232180Y0243989D02*
X0232009Y0243989D01*
X0229600Y0237595D02*
X0225004Y0237595D01*
X0212094Y0241433D02*
X0212094Y0223933D01*
X0209294Y0229602D02*
X0164894Y0229602D01*
X0164894Y0231201D02*
X0209294Y0231201D01*
X0209294Y0232799D02*
X0164894Y0232799D01*
X0164894Y0234398D02*
X0209294Y0234398D01*
X0203698Y0216814D02*
X0217816Y0216814D01*
X0218879Y0207223D02*
X0216144Y0207223D01*
X0216694Y0205624D02*
X0217494Y0205624D01*
X0217494Y0204026D02*
X0216694Y0204026D01*
X0216694Y0202427D02*
X0217494Y0202427D01*
X0218693Y0200829D02*
X0215496Y0200829D01*
X0218994Y0199230D02*
X0208303Y0199230D01*
X0208693Y0200829D02*
X0206704Y0200829D01*
X0207494Y0202427D02*
X0203549Y0202427D01*
X0202485Y0200829D02*
X0201950Y0200829D01*
X0200886Y0199230D02*
X0200352Y0199230D01*
X0199994Y0197632D02*
X0198753Y0197632D01*
X0199994Y0196033D02*
X0197155Y0196033D01*
X0195944Y0192283D02*
X0202444Y0192283D01*
X0208294Y0186433D01*
X0214594Y0186433D01*
X0218884Y0189639D02*
X0220305Y0189639D01*
X0221904Y0191238D02*
X0217285Y0191238D01*
X0211904Y0191238D02*
X0207450Y0191238D01*
X0207503Y0192836D02*
X0223807Y0192836D01*
X0222209Y0194435D02*
X0209102Y0194435D01*
X0209194Y0196033D02*
X0220610Y0196033D01*
X0219278Y0197632D02*
X0209194Y0197632D01*
X0207494Y0204026D02*
X0205147Y0204026D01*
X0206746Y0205624D02*
X0207494Y0205624D01*
X0197228Y0204026D02*
X0189194Y0204026D01*
X0189194Y0205624D02*
X0196398Y0205624D01*
X0194994Y0207223D02*
X0187810Y0207223D01*
X0186500Y0208533D02*
X0182689Y0208533D01*
X0179994Y0205838D01*
X0179994Y0202028D01*
X0182689Y0199333D01*
X0186500Y0199333D01*
X0189194Y0202028D01*
X0189194Y0205838D01*
X0186500Y0208533D01*
X0181379Y0207223D02*
X0177527Y0207223D01*
X0178994Y0205624D02*
X0179994Y0205624D01*
X0179994Y0204026D02*
X0178994Y0204026D01*
X0178994Y0202427D02*
X0179994Y0202427D01*
X0179204Y0200829D02*
X0181193Y0200829D01*
X0180803Y0199230D02*
X0192432Y0199230D01*
X0190833Y0197632D02*
X0181694Y0197632D01*
X0181694Y0196033D02*
X0189235Y0196033D01*
X0187636Y0194435D02*
X0181602Y0194435D01*
X0187996Y0200829D02*
X0194030Y0200829D01*
X0195629Y0202427D02*
X0189194Y0202427D01*
X0194994Y0208821D02*
X0164206Y0208821D01*
X0165805Y0207223D02*
X0171662Y0207223D01*
X0172772Y0208333D02*
X0170194Y0205756D01*
X0170194Y0203933D01*
X0174594Y0203933D01*
X0174594Y0203933D01*
X0174594Y0208333D01*
X0172772Y0208333D01*
X0174594Y0207223D02*
X0174595Y0207223D01*
X0174594Y0205624D02*
X0174595Y0205624D01*
X0174594Y0204026D02*
X0174595Y0204026D01*
X0171476Y0200829D02*
X0165991Y0200829D01*
X0167044Y0202427D02*
X0170194Y0202427D01*
X0170194Y0204026D02*
X0167044Y0204026D01*
X0167044Y0205624D02*
X0170194Y0205624D01*
X0172011Y0220011D02*
X0165456Y0220011D01*
X0167054Y0221610D02*
X0170413Y0221610D01*
X0169994Y0223208D02*
X0167244Y0223208D01*
X0167244Y0224807D02*
X0169994Y0224807D01*
X0170561Y0226405D02*
X0166906Y0226405D01*
X0165307Y0228004D02*
X0172160Y0228004D01*
X0147494Y0205624D02*
X0146694Y0205624D01*
X0146694Y0204026D02*
X0147494Y0204026D01*
X0147494Y0202427D02*
X0146694Y0202427D01*
X0145496Y0200829D02*
X0148693Y0200829D01*
X0163902Y0183245D02*
X0165287Y0183245D01*
X0166885Y0181647D02*
X0162303Y0181647D01*
X0170775Y0173654D02*
X0173651Y0173654D01*
X0172694Y0175253D02*
X0172374Y0175253D01*
X0172106Y0172056D02*
X0175249Y0172056D01*
X0173704Y0170457D02*
X0209613Y0170457D01*
X0208015Y0168859D02*
X0175303Y0168859D01*
X0176901Y0167260D02*
X0207494Y0167260D01*
X0207494Y0165662D02*
X0178500Y0165662D01*
X0179878Y0164063D02*
X0207959Y0164063D01*
X0209558Y0162465D02*
X0180194Y0162465D01*
X0180194Y0157669D02*
X0191446Y0157669D01*
X0189848Y0156071D02*
X0180194Y0156071D01*
X0180194Y0154472D02*
X0188249Y0154472D01*
X0186651Y0152874D02*
X0180437Y0152874D01*
X0173994Y0154472D02*
X0143194Y0154472D01*
X0142891Y0156071D02*
X0173994Y0156071D01*
X0173994Y0157669D02*
X0141682Y0157669D01*
X0142799Y0152874D02*
X0173752Y0152874D01*
X0172153Y0151275D02*
X0142594Y0151275D01*
X0142594Y0149677D02*
X0171944Y0149677D01*
X0171944Y0148078D02*
X0170705Y0148078D01*
X0172944Y0144881D02*
X0173863Y0144881D01*
X0172944Y0143282D02*
X0202534Y0143282D01*
X0201754Y0142502D02*
X0200794Y0140186D01*
X0200794Y0137680D01*
X0201754Y0135364D01*
X0203526Y0133592D01*
X0205841Y0132633D01*
X0208348Y0132633D01*
X0210663Y0133592D01*
X0212435Y0135364D01*
X0213394Y0137680D01*
X0213394Y0140186D01*
X0212435Y0142502D01*
X0210663Y0144274D01*
X0208348Y0145233D01*
X0205841Y0145233D01*
X0203526Y0144274D01*
X0201754Y0142502D01*
X0201415Y0141684D02*
X0172601Y0141684D01*
X0171002Y0140085D02*
X0200794Y0140085D01*
X0200794Y0138487D02*
X0142594Y0138487D01*
X0142594Y0140085D02*
X0148470Y0140085D01*
X0146871Y0141684D02*
X0142594Y0141684D01*
X0142594Y0143282D02*
X0146444Y0143282D01*
X0146444Y0144881D02*
X0142594Y0144881D01*
X0142594Y0146479D02*
X0147168Y0146479D01*
X0148767Y0148078D02*
X0142594Y0148078D01*
X0150844Y0148078D02*
X0150845Y0148078D01*
X0150844Y0146479D02*
X0150845Y0146479D01*
X0150844Y0144881D02*
X0150845Y0144881D01*
X0150844Y0143282D02*
X0150845Y0143282D01*
X0150844Y0141684D02*
X0150845Y0141684D01*
X0150844Y0140085D02*
X0150845Y0140085D01*
X0153219Y0140085D02*
X0156937Y0140085D01*
X0155338Y0141684D02*
X0154818Y0141684D01*
X0154521Y0146479D02*
X0155636Y0146479D01*
X0157234Y0148078D02*
X0152922Y0148078D01*
X0161955Y0148078D02*
X0165984Y0148078D01*
X0164386Y0146479D02*
X0163553Y0146479D01*
X0163851Y0141684D02*
X0164088Y0141684D01*
X0165687Y0140085D02*
X0162252Y0140085D01*
X0155796Y0135290D02*
X0174614Y0135290D01*
X0174378Y0135055D02*
X0175776Y0136452D01*
X0177602Y0137209D01*
X0179579Y0137209D01*
X0181405Y0136452D01*
X0182798Y0135059D01*
X0184140Y0135615D01*
X0185639Y0135615D01*
X0187024Y0135041D01*
X0188085Y0133981D01*
X0188658Y0132596D01*
X0188658Y0131097D01*
X0188085Y0129712D01*
X0187024Y0128652D01*
X0185639Y0128078D01*
X0184140Y0128078D01*
X0182755Y0128652D01*
X0182392Y0129015D01*
X0181405Y0128028D01*
X0179693Y0127319D01*
X0181405Y0126610D01*
X0182803Y0125212D01*
X0183559Y0123386D01*
X0183559Y0121409D01*
X0182803Y0119583D01*
X0181405Y0118186D01*
X0179579Y0117429D01*
X0177602Y0117429D01*
X0175776Y0118186D01*
X0174378Y0119583D01*
X0174304Y0119764D01*
X0173960Y0119291D01*
X0173429Y0118760D01*
X0172822Y0118319D01*
X0172153Y0117978D01*
X0171439Y0117747D01*
X0170698Y0117629D01*
X0170507Y0117629D01*
X0170507Y0122213D01*
X0170139Y0122213D01*
X0170139Y0117629D01*
X0169948Y0117629D01*
X0169206Y0117747D01*
X0168492Y0117978D01*
X0167824Y0118319D01*
X0167216Y0118760D01*
X0166686Y0119291D01*
X0166244Y0119898D01*
X0165904Y0120567D01*
X0165672Y0121281D01*
X0165554Y0122022D01*
X0165554Y0122213D01*
X0170138Y0122213D01*
X0170138Y0122582D01*
X0165554Y0122582D01*
X0165554Y0122773D01*
X0165672Y0123514D01*
X0165904Y0124228D01*
X0166244Y0124897D01*
X0166686Y0125504D01*
X0167216Y0126035D01*
X0167824Y0126476D01*
X0168492Y0126817D01*
X0169206Y0127049D01*
X0169948Y0127166D01*
X0170139Y0127166D01*
X0170139Y0122582D01*
X0170507Y0122582D01*
X0170507Y0127166D01*
X0170698Y0127166D01*
X0171439Y0127049D01*
X0172153Y0126817D01*
X0172822Y0126476D01*
X0173429Y0126035D01*
X0173960Y0125504D01*
X0174304Y0125031D01*
X0174378Y0125212D01*
X0175776Y0126610D01*
X0177488Y0127319D01*
X0175776Y0128028D01*
X0174378Y0129426D01*
X0173622Y0131252D01*
X0173622Y0133228D01*
X0174378Y0135055D01*
X0173814Y0133691D02*
X0156596Y0133691D01*
X0156787Y0132093D02*
X0173622Y0132093D01*
X0173936Y0130494D02*
X0156474Y0130494D01*
X0155501Y0128896D02*
X0174908Y0128896D01*
X0177436Y0127297D02*
X0152973Y0127297D01*
X0155544Y0125699D02*
X0166880Y0125699D01*
X0165862Y0124100D02*
X0156491Y0124100D01*
X0156787Y0122502D02*
X0170138Y0122502D01*
X0170139Y0124100D02*
X0170507Y0124100D01*
X0170507Y0125699D02*
X0170139Y0125699D01*
X0173765Y0125699D02*
X0174865Y0125699D01*
X0179745Y0127297D02*
X0213994Y0127297D01*
X0213994Y0125699D02*
X0182316Y0125699D01*
X0183263Y0124100D02*
X0213994Y0124100D01*
X0213994Y0122502D02*
X0205809Y0122502D01*
X0207244Y0121066D02*
X0204228Y0124083D01*
X0199961Y0124083D01*
X0196944Y0121066D01*
X0196944Y0116800D01*
X0199961Y0113783D01*
X0204228Y0113783D01*
X0207244Y0116800D01*
X0207244Y0121066D01*
X0207244Y0120903D02*
X0213994Y0120903D01*
X0213994Y0119305D02*
X0207244Y0119305D01*
X0207244Y0117706D02*
X0213994Y0117706D01*
X0213994Y0116108D02*
X0206552Y0116108D01*
X0204954Y0114509D02*
X0213287Y0114509D01*
X0210152Y0112911D02*
X0197405Y0112911D01*
X0197717Y0111312D02*
X0208553Y0111312D01*
X0208054Y0109714D02*
X0197717Y0109714D01*
X0197344Y0108115D02*
X0208054Y0108115D01*
X0208054Y0106517D02*
X0196682Y0106517D01*
X0195323Y0104918D02*
X0209559Y0104918D01*
X0211157Y0103320D02*
X0204991Y0103320D01*
X0206590Y0101721D02*
X0215867Y0101721D01*
X0217466Y0100123D02*
X0207244Y0100123D01*
X0207244Y0098524D02*
X0219064Y0098524D01*
X0220663Y0096926D02*
X0207244Y0096926D01*
X0205772Y0095327D02*
X0222261Y0095327D01*
X0223968Y0093729D02*
X0075454Y0093729D01*
X0075454Y0095327D02*
X0078060Y0095327D01*
X0078954Y0094433D02*
X0078954Y0094433D01*
X0078954Y0094433D01*
X0076898Y0096489D02*
X0076898Y0096489D01*
X0076898Y0096926D02*
X0075454Y0096926D01*
X0075454Y0098524D02*
X0076898Y0098524D01*
X0076898Y0100123D02*
X0075454Y0100123D01*
X0075454Y0101721D02*
X0077238Y0101721D01*
X0078836Y0103320D02*
X0075454Y0103320D01*
X0083558Y0094433D02*
X0083558Y0094433D01*
X0083558Y0094433D01*
X0092766Y0094433D02*
X0092766Y0094433D01*
X0092766Y0094433D01*
X0097017Y0095327D02*
X0098777Y0095327D01*
X0075454Y0092130D02*
X0294326Y0092130D01*
X0294326Y0100123D02*
X0293501Y0100123D01*
X0243194Y0122502D02*
X0238419Y0122502D01*
X0237125Y0120903D02*
X0242805Y0120903D01*
X0241206Y0119305D02*
X0238723Y0119305D01*
X0239544Y0117706D02*
X0239608Y0117706D01*
X0240017Y0124100D02*
X0243194Y0124100D01*
X0243194Y0125699D02*
X0240444Y0125699D01*
X0240444Y0127297D02*
X0243194Y0127297D01*
X0243194Y0128896D02*
X0239887Y0128896D01*
X0238289Y0130494D02*
X0243194Y0130494D01*
X0235844Y0126433D02*
X0235594Y0125983D01*
X0223894Y0114283D01*
X0223894Y0109083D01*
X0223354Y0108618D01*
X0220152Y0112911D02*
X0220026Y0112911D01*
X0220194Y0114509D02*
X0221094Y0114509D01*
X0221759Y0116108D02*
X0220194Y0116108D01*
X0220194Y0117706D02*
X0223358Y0117706D01*
X0224956Y0119305D02*
X0220194Y0119305D01*
X0220194Y0120903D02*
X0226555Y0120903D01*
X0228153Y0122502D02*
X0220194Y0122502D01*
X0220194Y0124100D02*
X0229752Y0124100D01*
X0231244Y0125699D02*
X0220194Y0125699D01*
X0220194Y0127297D02*
X0231244Y0127297D01*
X0231802Y0128896D02*
X0220194Y0128896D01*
X0220194Y0130494D02*
X0233400Y0130494D01*
X0222111Y0135290D02*
X0220194Y0135290D01*
X0220194Y0136888D02*
X0220994Y0136888D01*
X0220994Y0138487D02*
X0220194Y0138487D01*
X0220194Y0140085D02*
X0220994Y0140085D01*
X0221219Y0141684D02*
X0220194Y0141684D01*
X0220194Y0143282D02*
X0222817Y0143282D01*
X0213994Y0143282D02*
X0211655Y0143282D01*
X0212774Y0141684D02*
X0213994Y0141684D01*
X0213994Y0140085D02*
X0213394Y0140085D01*
X0213394Y0138487D02*
X0213994Y0138487D01*
X0213994Y0136888D02*
X0213067Y0136888D01*
X0212361Y0135290D02*
X0213994Y0135290D01*
X0213994Y0133691D02*
X0210762Y0133691D01*
X0213994Y0132093D02*
X0188658Y0132093D01*
X0188409Y0130494D02*
X0213994Y0130494D01*
X0213994Y0128896D02*
X0187269Y0128896D01*
X0182511Y0128896D02*
X0182273Y0128896D01*
X0183559Y0122502D02*
X0198380Y0122502D01*
X0196944Y0120903D02*
X0183349Y0120903D01*
X0182524Y0119305D02*
X0196944Y0119305D01*
X0196944Y0117706D02*
X0193281Y0117706D01*
X0195470Y0116108D02*
X0197637Y0116108D01*
X0196743Y0114509D02*
X0199235Y0114509D01*
X0186341Y0117706D02*
X0180248Y0117706D01*
X0176933Y0117706D02*
X0171185Y0117706D01*
X0170507Y0117706D02*
X0170139Y0117706D01*
X0169461Y0117706D02*
X0153476Y0117706D01*
X0155753Y0119305D02*
X0166676Y0119305D01*
X0165794Y0120903D02*
X0156578Y0120903D01*
X0150162Y0117706D02*
X0144068Y0117706D01*
X0159131Y0101721D02*
X0159740Y0101721D01*
X0158695Y0100123D02*
X0162205Y0100123D01*
X0170139Y0119305D02*
X0170507Y0119305D01*
X0170507Y0120903D02*
X0170139Y0120903D01*
X0173970Y0119305D02*
X0174657Y0119305D01*
X0188205Y0133691D02*
X0203427Y0133691D01*
X0201828Y0135290D02*
X0186424Y0135290D01*
X0183355Y0135290D02*
X0182567Y0135290D01*
X0180352Y0136888D02*
X0201122Y0136888D01*
X0200043Y0144881D02*
X0204991Y0144881D01*
X0201641Y0146479D02*
X0213994Y0146479D01*
X0213994Y0144881D02*
X0209198Y0144881D01*
X0213994Y0148078D02*
X0202044Y0148078D01*
X0202044Y0149677D02*
X0213994Y0149677D01*
X0212868Y0151275D02*
X0201753Y0151275D01*
X0197095Y0148078D02*
X0197094Y0148078D01*
X0197094Y0146479D02*
X0197095Y0146479D01*
X0197094Y0144881D02*
X0197095Y0144881D01*
X0194146Y0144881D02*
X0180326Y0144881D01*
X0176829Y0136888D02*
X0153580Y0136888D01*
X0150057Y0136888D02*
X0142594Y0136888D01*
X0142594Y0135290D02*
X0143985Y0135290D01*
X0147054Y0135290D02*
X0147842Y0135290D01*
X0135898Y0156071D02*
X0128284Y0156071D01*
X0130215Y0157669D02*
X0137106Y0157669D01*
X0131813Y0159268D02*
X0173994Y0159268D01*
X0173994Y0160866D02*
X0171783Y0160866D01*
X0164906Y0160866D02*
X0163033Y0160866D01*
X0156156Y0160866D02*
X0154283Y0160866D01*
X0147406Y0160866D02*
X0133412Y0160866D01*
X0135010Y0162465D02*
X0146244Y0162465D01*
X0146244Y0164063D02*
X0136609Y0164063D01*
X0138207Y0165662D02*
X0146244Y0165662D01*
X0147262Y0167260D02*
X0141927Y0167260D01*
X0189025Y0146479D02*
X0192548Y0146479D01*
X0192144Y0148078D02*
X0190623Y0148078D01*
X0222919Y0152874D02*
X0243194Y0152874D01*
X0243194Y0154472D02*
X0224518Y0154472D01*
X0226116Y0156071D02*
X0243194Y0156071D01*
X0243194Y0157669D02*
X0227715Y0157669D01*
X0229313Y0159268D02*
X0243194Y0159268D01*
X0243194Y0160866D02*
X0230912Y0160866D01*
X0234631Y0162465D02*
X0243194Y0162465D01*
X0243194Y0164063D02*
X0236230Y0164063D01*
X0236694Y0165662D02*
X0243194Y0165662D01*
X0243194Y0167260D02*
X0237306Y0167260D01*
X0238904Y0168859D02*
X0243194Y0168859D01*
X0243194Y0170457D02*
X0240046Y0170457D01*
X0240194Y0172056D02*
X0243194Y0172056D01*
X0243194Y0173654D02*
X0240194Y0173654D01*
X0240194Y0175253D02*
X0243194Y0175253D01*
X0243194Y0176851D02*
X0240194Y0176851D01*
X0240194Y0178450D02*
X0243194Y0178450D01*
X0243194Y0180048D02*
X0240194Y0180048D01*
X0240194Y0181647D02*
X0243194Y0181647D01*
X0243194Y0183245D02*
X0240194Y0183245D01*
X0240073Y0184844D02*
X0243194Y0184844D01*
X0243194Y0186442D02*
X0238969Y0186442D01*
X0237371Y0188041D02*
X0242377Y0188041D01*
X0240778Y0189639D02*
X0235772Y0189639D01*
X0234174Y0191238D02*
X0239180Y0191238D01*
X0238644Y0192836D02*
X0235003Y0192836D01*
X0236602Y0194435D02*
X0238644Y0194435D01*
X0238644Y0196033D02*
X0236694Y0196033D01*
X0236694Y0197632D02*
X0238644Y0197632D01*
X0238644Y0199230D02*
X0235803Y0199230D01*
X0235991Y0200829D02*
X0238644Y0200829D01*
X0238644Y0202427D02*
X0237044Y0202427D01*
X0237044Y0204026D02*
X0238644Y0204026D01*
X0238644Y0205624D02*
X0237044Y0205624D01*
X0228384Y0207223D02*
X0225310Y0207223D01*
X0226694Y0205624D02*
X0227144Y0205624D01*
X0227144Y0204026D02*
X0226694Y0204026D01*
X0226694Y0202427D02*
X0227144Y0202427D01*
X0228198Y0200829D02*
X0225496Y0200829D01*
X0226181Y0199230D02*
X0228386Y0199230D01*
X0210305Y0189639D02*
X0209048Y0189639D01*
X0248794Y0146479D02*
X0251565Y0146479D01*
X0108994Y0120903D02*
X0103336Y0120903D01*
X0102931Y0122502D02*
X0105483Y0122502D01*
X0103771Y0124100D02*
X0102253Y0124100D01*
X0102632Y0125699D02*
X0101187Y0125699D01*
X0101799Y0127297D02*
X0099584Y0127297D01*
X0089544Y0128896D02*
X0085194Y0128896D01*
X0085194Y0127297D02*
X0086731Y0127297D01*
X0064771Y0157669D02*
X0057694Y0157669D01*
X0057694Y0159268D02*
X0063213Y0159268D01*
X0062680Y0160866D02*
X0057694Y0160866D01*
X0057694Y0162465D02*
X0062755Y0162465D01*
X0063523Y0164063D02*
X0057694Y0164063D01*
D31*
X0069594Y0171433D02*
X0069594Y0214996D01*
X0101031Y0246433D01*
X0083344Y0255183D02*
X0130844Y0255183D01*
X0142094Y0245183D01*
X0152094Y0255183D01*
X0190844Y0255183D01*
X0202094Y0243933D01*
X0213344Y0255183D01*
X0250844Y0255183D01*
X0251844Y0255333D01*
X0273944Y0255333D01*
X0277844Y0251433D01*
X0277844Y0250783D01*
X0281744Y0246883D01*
X0282094Y0246433D01*
X0292094Y0236433D02*
X0292094Y0228933D01*
X0292094Y0218933D01*
X0292094Y0141433D01*
X0283344Y0132683D01*
X0283344Y0126433D01*
X0284594Y0125183D01*
X0284594Y0116433D01*
X0284594Y0107683D01*
X0273344Y0096433D01*
X0225539Y0096433D01*
X0213354Y0108618D01*
X0213354Y0110193D01*
X0217094Y0113933D01*
X0217094Y0151433D01*
X0213344Y0155183D01*
X0193344Y0155183D01*
X0187094Y0148933D01*
X0177094Y0148933D01*
X0177094Y0162683D01*
X0168344Y0171433D01*
X0149594Y0171433D01*
X0139594Y0171433D01*
X0127094Y0158933D01*
X0112094Y0158933D01*
X0107094Y0163933D01*
X0107094Y0165183D01*
X0099594Y0165183D01*
X0097094Y0167683D01*
X0089594Y0167683D01*
X0084594Y0167683D01*
X0080844Y0171433D01*
X0069594Y0171433D01*
X0054594Y0146433D02*
X0059594Y0141433D01*
X0054594Y0146433D02*
X0054594Y0223933D01*
X0059594Y0228933D01*
X0069594Y0228933D01*
X0077094Y0236433D01*
X0077094Y0248933D01*
X0083344Y0255183D01*
X0142094Y0245183D02*
X0142094Y0241433D01*
X0202094Y0241433D02*
X0202094Y0243933D01*
X0222094Y0203933D02*
X0222094Y0198933D01*
X0237094Y0183933D01*
X0237094Y0171433D01*
X0232094Y0166433D01*
X0217094Y0151433D01*
X0127094Y0098933D02*
X0119594Y0106433D01*
X0089594Y0106433D01*
X0082094Y0113933D01*
X0082094Y0131433D01*
X0092094Y0141433D01*
X0093157Y0142870D01*
X0107094Y0165183D02*
X0113344Y0171433D01*
X0114594Y0171433D01*
D32*
X0123794Y0163033D03*
X0129644Y0140933D03*
X0195944Y0192283D03*
X0232344Y0181883D03*
X0279144Y0213733D03*
X0266794Y0222833D03*
X0257694Y0222833D03*
X0258994Y0144183D03*
X0253794Y0144183D03*
M02*
