G75*
%MOIN*%
%OFA0B0*%
%FSLAX25Y25*%
%IPPOS*%
%LPD*%
%AMOC8*
5,1,8,0,0,1.08239X$1,22.5*
%
%ADD10C,0.00400*%
%ADD11OC8,0.06300*%
%ADD12C,0.05200*%
%ADD13R,0.05543X0.05543*%
%ADD14C,0.05543*%
%ADD15R,0.05150X0.05150*%
%ADD16C,0.05150*%
%ADD17C,0.17000*%
%ADD18C,0.06000*%
%ADD19OC8,0.06600*%
%ADD20OC8,0.05200*%
%ADD21OC8,0.08500*%
%ADD22C,0.06496*%
%ADD23R,0.03543X0.05846*%
%ADD24C,0.05150*%
%ADD25R,0.03937X0.05512*%
%ADD26R,0.02200X0.05200*%
%ADD27R,0.08700X0.02400*%
%ADD28C,0.11811*%
%ADD29C,0.05937*%
%ADD30C,0.08600*%
%ADD31OC8,0.08600*%
%ADD32R,0.02756X0.05906*%
%ADD33R,0.03937X0.05906*%
%ADD34C,0.02400*%
%ADD35C,0.03600*%
%ADD36C,0.01600*%
%ADD37C,0.04000*%
%ADD38C,0.02200*%
%ADD39C,0.02400*%
D10*
X0079794Y0096633D02*
X0082864Y0096633D01*
X0084398Y0096633D02*
X0084398Y0101237D01*
X0086700Y0101237D01*
X0087468Y0100470D01*
X0087468Y0097400D01*
X0086700Y0096633D01*
X0084398Y0096633D01*
X0089002Y0096633D02*
X0092072Y0096633D01*
X0093606Y0096633D02*
X0093606Y0097400D01*
X0096676Y0100470D01*
X0096676Y0101237D01*
X0093606Y0101237D01*
X0090537Y0101237D02*
X0090537Y0096633D01*
X0089002Y0099702D02*
X0090537Y0101237D01*
X0098210Y0100470D02*
X0098210Y0097400D01*
X0101279Y0100470D01*
X0101279Y0097400D01*
X0100512Y0096633D01*
X0098977Y0096633D01*
X0098210Y0097400D01*
X0098210Y0100470D02*
X0098977Y0101237D01*
X0100512Y0101237D01*
X0101279Y0100470D01*
X0102814Y0099702D02*
X0104349Y0101237D01*
X0104349Y0096633D01*
X0105883Y0096633D02*
X0102814Y0096633D01*
X0107418Y0097400D02*
X0108185Y0096633D01*
X0109720Y0096633D01*
X0110487Y0097400D01*
X0110487Y0098168D01*
X0109720Y0098935D01*
X0108953Y0098935D01*
X0109720Y0098935D02*
X0110487Y0099702D01*
X0110487Y0100470D01*
X0109720Y0101237D01*
X0108185Y0101237D01*
X0107418Y0100470D01*
X0112022Y0099702D02*
X0112022Y0096633D01*
X0112022Y0098935D02*
X0115091Y0098935D01*
X0115091Y0099702D02*
X0115091Y0096633D01*
X0115091Y0099702D02*
X0113557Y0101237D01*
X0112022Y0099702D01*
X0079794Y0101237D02*
X0079794Y0096633D01*
D11*
X0069594Y0121433D03*
X0059594Y0121433D03*
X0059594Y0141433D03*
X0069594Y0141433D03*
X0104594Y0171433D03*
X0114594Y0171433D03*
X0114594Y0191433D03*
X0104594Y0191433D03*
X0162094Y0203933D03*
X0162094Y0223933D03*
X0232094Y0223933D03*
X0232094Y0203933D03*
X0272094Y0218933D03*
X0272094Y0228933D03*
X0292094Y0228933D03*
X0292094Y0218933D03*
X0197094Y0148933D03*
X0177094Y0148933D03*
X0202094Y0118933D03*
X0202094Y0098933D03*
X0234594Y0116433D03*
X0254594Y0116433D03*
X0264594Y0116433D03*
X0284594Y0116433D03*
X0127094Y0118933D03*
X0127094Y0098933D03*
D12*
X0092194Y0160183D02*
X0086994Y0160183D01*
X0086994Y0167683D02*
X0092194Y0167683D01*
D13*
X0142094Y0241433D03*
X0202094Y0241433D03*
D14*
X0212094Y0241433D03*
X0222094Y0241433D03*
X0232094Y0241433D03*
X0172094Y0241433D03*
X0162094Y0241433D03*
X0152094Y0241433D03*
D15*
X0085283Y0246433D03*
D16*
X0093157Y0246433D03*
X0101031Y0246433D03*
X0108906Y0246433D03*
D17*
X0093157Y0142870D03*
X0111661Y0131059D03*
X0093157Y0119248D03*
D18*
X0252094Y0243433D02*
X0252094Y0249433D01*
X0262094Y0249433D02*
X0262094Y0243433D01*
X0272094Y0243433D02*
X0272094Y0249433D01*
X0282094Y0249433D02*
X0282094Y0243433D01*
D19*
X0224594Y0186433D03*
X0214594Y0186433D03*
X0197094Y0186433D03*
X0187094Y0186433D03*
X0169594Y0186433D03*
X0159594Y0186433D03*
X0213354Y0108618D03*
X0223354Y0108618D03*
D20*
X0235844Y0126433D03*
X0255844Y0126433D03*
X0263344Y0126433D03*
X0283344Y0126433D03*
X0232094Y0166433D03*
X0232094Y0176433D03*
X0212094Y0166433D03*
X0204594Y0176433D03*
X0204594Y0196433D03*
X0212094Y0203933D03*
X0222094Y0203933D03*
X0232094Y0196433D03*
X0252094Y0216433D03*
X0262094Y0216433D03*
X0262094Y0236433D03*
X0272094Y0236433D03*
X0252094Y0236433D03*
X0222094Y0223933D03*
X0212094Y0223933D03*
X0199594Y0218933D03*
X0192094Y0213933D03*
X0199594Y0208933D03*
X0184594Y0203933D03*
X0174594Y0203933D03*
X0177094Y0196433D03*
X0177094Y0176433D03*
X0168344Y0163933D03*
X0159594Y0163933D03*
X0150844Y0163933D03*
X0149594Y0171433D03*
X0139594Y0171433D03*
X0139594Y0191433D03*
X0149594Y0191433D03*
X0152094Y0203933D03*
X0142094Y0203933D03*
X0129594Y0208933D03*
X0122094Y0213933D03*
X0129594Y0218933D03*
X0142094Y0223933D03*
X0152094Y0223933D03*
X0174594Y0223933D03*
X0184594Y0223933D03*
X0114594Y0223933D03*
X0104594Y0223933D03*
X0104594Y0203933D03*
X0114594Y0203933D03*
X0114594Y0163933D03*
X0114594Y0143933D03*
X0150844Y0143933D03*
X0159594Y0143933D03*
X0168344Y0143933D03*
X0292094Y0236433D03*
D21*
X0087099Y0203323D03*
X0061499Y0203323D03*
D22*
X0231799Y0103933D03*
X0257390Y0103933D03*
X0264299Y0103933D03*
X0289890Y0103933D03*
D23*
X0288827Y0138569D03*
X0294732Y0138569D03*
X0282921Y0138569D03*
X0277016Y0138569D03*
X0271110Y0138569D03*
X0265205Y0138569D03*
X0259299Y0138569D03*
X0253394Y0138569D03*
X0247488Y0138569D03*
X0247488Y0208589D03*
X0253394Y0208589D03*
X0259299Y0208589D03*
X0265205Y0208589D03*
X0271110Y0208589D03*
X0277016Y0208589D03*
X0282921Y0208589D03*
X0288827Y0208589D03*
X0294732Y0208589D03*
D24*
X0072169Y0171433D02*
X0067020Y0171433D01*
X0067020Y0161433D02*
X0072169Y0161433D01*
X0072169Y0151433D02*
X0067020Y0151433D01*
D25*
X0289604Y0130764D03*
X0297085Y0130764D03*
X0293344Y0122102D03*
D26*
X0130794Y0176333D03*
X0127094Y0176333D03*
X0123394Y0176333D03*
X0123394Y0186533D03*
X0127094Y0186533D03*
X0130794Y0186533D03*
D27*
X0179294Y0171433D03*
X0179294Y0166433D03*
X0179294Y0161433D03*
X0179294Y0156433D03*
X0199894Y0156433D03*
X0199894Y0161433D03*
X0199894Y0166433D03*
X0199894Y0171433D03*
D28*
X0189811Y0110587D03*
X0165205Y0107437D03*
X0140598Y0110587D03*
D29*
X0151819Y0122398D03*
X0151819Y0132240D03*
X0170323Y0122398D03*
X0178591Y0122398D03*
X0178591Y0132240D03*
D30*
X0207094Y0138933D03*
D31*
X0227094Y0138933D03*
D32*
X0139250Y0146650D03*
X0127439Y0146650D03*
X0127439Y0161217D03*
X0139250Y0161217D03*
D33*
X0133344Y0161217D03*
X0133344Y0146650D03*
D34*
X0139394Y0154583D02*
X0139394Y0161083D01*
X0139250Y0161217D01*
X0127044Y0172783D02*
X0123794Y0169533D01*
X0120544Y0169533D01*
X0114694Y0163683D01*
X0114044Y0163683D02*
X0106894Y0170833D01*
X0104944Y0170833D01*
X0104594Y0171433D01*
X0104294Y0170183D01*
X0104294Y0166933D01*
X0097144Y0159783D01*
X0090644Y0159783D01*
X0089594Y0160183D01*
X0088694Y0161083D01*
X0069844Y0161083D01*
X0069594Y0161433D01*
X0068544Y0161733D01*
X0062044Y0168233D01*
X0062044Y0202683D01*
X0061499Y0203323D01*
X0054594Y0223933D02*
X0054594Y0161433D01*
X0059594Y0156433D01*
X0080844Y0156433D01*
X0084594Y0153933D01*
X0102094Y0153933D01*
X0107094Y0148933D01*
X0107094Y0133933D01*
X0108787Y0133933D01*
X0111661Y0131059D01*
X0093157Y0119248D02*
X0092594Y0119483D01*
X0091294Y0120783D01*
X0070494Y0120783D01*
X0069594Y0121433D01*
X0059594Y0121433D01*
X0127044Y0172783D02*
X0127044Y0176033D01*
X0127094Y0176333D01*
X0114594Y0191433D02*
X0114044Y0191633D01*
X0104944Y0200733D01*
X0104944Y0203333D01*
X0104594Y0203933D01*
X0128994Y0218933D02*
X0129594Y0218933D01*
X0162094Y0203933D02*
X0162144Y0203983D01*
X0174494Y0203983D01*
X0174594Y0203933D01*
X0197244Y0218933D02*
X0183594Y0232583D01*
X0175844Y0241433D02*
X0192094Y0241433D01*
X0197094Y0246433D01*
X0197894Y0246883D02*
X0224544Y0246883D01*
X0229744Y0241683D01*
X0231044Y0241683D01*
X0232094Y0241433D01*
X0215444Y0218283D02*
X0200494Y0218283D01*
X0199594Y0218933D01*
X0197244Y0218933D01*
X0215444Y0218283D02*
X0229744Y0203983D01*
X0231694Y0203983D01*
X0232094Y0203933D01*
X0229094Y0203333D01*
X0218044Y0192283D01*
X0212194Y0192283D01*
X0208294Y0188383D01*
X0208294Y0176683D01*
X0231044Y0176683D01*
X0232094Y0176433D01*
X0232344Y0176033D01*
X0237544Y0170833D01*
X0237544Y0166933D01*
X0249894Y0154583D01*
X0278494Y0154583D01*
X0278494Y0153933D01*
X0278494Y0154583D02*
X0281094Y0154583D01*
X0294744Y0140933D01*
X0294744Y0139633D01*
X0294732Y0138569D01*
X0294732Y0133116D01*
X0297085Y0130764D01*
X0265205Y0135793D02*
X0255844Y0126433D01*
X0255844Y0125183D01*
X0264594Y0116433D01*
X0264594Y0104228D01*
X0264299Y0103933D01*
X0257390Y0103933D01*
X0257694Y0103883D01*
X0257094Y0103933D01*
X0244594Y0116433D01*
X0234594Y0116433D01*
X0227094Y0123933D01*
X0227094Y0138933D01*
X0197094Y0148933D02*
X0196594Y0149383D01*
X0192694Y0153283D01*
X0192694Y0158483D01*
X0195294Y0161083D01*
X0192694Y0163683D01*
X0192694Y0168233D01*
X0195294Y0170833D01*
X0199194Y0170833D01*
X0199894Y0171433D01*
X0200494Y0171483D01*
X0205044Y0176033D01*
X0204594Y0176433D01*
X0205694Y0176683D01*
X0208294Y0176683D01*
X0199894Y0161433D02*
X0199844Y0161083D01*
X0195294Y0161083D01*
X0265205Y0138569D02*
X0265205Y0135793D01*
X0175144Y0241033D02*
X0172544Y0241033D01*
X0172094Y0241433D01*
X0109494Y0246233D02*
X0108906Y0246433D01*
X0083344Y0255183D02*
X0077094Y0248933D01*
X0077094Y0236433D01*
X0069594Y0228933D01*
X0059594Y0228933D01*
X0054594Y0223933D01*
X0083344Y0255183D02*
X0264594Y0255183D01*
X0265494Y0254683D01*
X0271994Y0248183D01*
X0271994Y0246883D01*
X0272094Y0246433D01*
D35*
X0278494Y0153933D03*
X0139394Y0154583D03*
D36*
X0075454Y0104383D02*
X0075454Y0090733D01*
X0294326Y0090733D01*
X0294326Y0100947D01*
X0292863Y0099484D01*
X0290934Y0098685D01*
X0288846Y0098685D01*
X0286917Y0099484D01*
X0285441Y0100960D01*
X0284969Y0102099D01*
X0270508Y0116559D01*
X0270508Y0116559D01*
X0269721Y0117347D01*
X0269544Y0117773D01*
X0269544Y0116433D01*
X0264595Y0116433D01*
X0264595Y0116433D01*
X0269544Y0116433D01*
X0269544Y0114383D01*
X0266645Y0111483D01*
X0264595Y0111483D01*
X0264595Y0116433D01*
X0264594Y0116433D01*
X0264594Y0111483D01*
X0262544Y0111483D01*
X0259736Y0114291D01*
X0256728Y0111283D01*
X0252461Y0111283D01*
X0249444Y0114300D01*
X0249444Y0118566D01*
X0252461Y0121583D01*
X0256728Y0121583D01*
X0259736Y0118575D01*
X0262544Y0121383D01*
X0264594Y0121383D01*
X0264594Y0116433D01*
X0264595Y0116433D01*
X0264595Y0121383D01*
X0266645Y0121383D01*
X0269294Y0118733D01*
X0269294Y0123633D01*
X0267050Y0123633D01*
X0265250Y0121833D01*
X0261439Y0121833D01*
X0259453Y0123819D01*
X0257667Y0122033D01*
X0255845Y0122033D01*
X0255845Y0126433D01*
X0255844Y0126433D01*
X0251444Y0126433D01*
X0251444Y0124611D01*
X0254022Y0122033D01*
X0255844Y0122033D01*
X0255844Y0126433D01*
X0255844Y0126433D01*
X0251444Y0126433D01*
X0251444Y0128256D01*
X0254022Y0130833D01*
X0255844Y0130833D01*
X0255844Y0126433D01*
X0255845Y0126433D01*
X0255845Y0130833D01*
X0257667Y0130833D01*
X0259453Y0129047D01*
X0261439Y0131033D01*
X0265250Y0131033D01*
X0267050Y0129233D01*
X0270935Y0129233D01*
X0274216Y0132514D01*
X0274216Y0133846D01*
X0274063Y0133998D01*
X0273710Y0133646D01*
X0268510Y0133646D01*
X0267998Y0134157D01*
X0267671Y0133968D01*
X0267213Y0133846D01*
X0265291Y0133846D01*
X0265291Y0138483D01*
X0265119Y0138483D01*
X0265119Y0133846D01*
X0263196Y0133846D01*
X0262738Y0133968D01*
X0262411Y0134157D01*
X0261899Y0133646D01*
X0256699Y0133646D01*
X0256346Y0133998D01*
X0255994Y0133646D01*
X0250794Y0133646D01*
X0250441Y0133998D01*
X0250088Y0133646D01*
X0244888Y0133646D01*
X0243717Y0134817D01*
X0243717Y0136183D01*
X0239588Y0136183D01*
X0238558Y0136609D01*
X0229885Y0145283D01*
X0204904Y0145283D01*
X0204156Y0144535D01*
X0205841Y0145233D01*
X0208348Y0145233D01*
X0210663Y0144274D01*
X0212435Y0142502D01*
X0213394Y0140186D01*
X0213394Y0137680D01*
X0212435Y0135364D01*
X0210663Y0133592D01*
X0210194Y0133398D01*
X0210194Y0126467D01*
X0212223Y0124439D01*
X0212694Y0123300D01*
X0212694Y0115816D01*
X0212223Y0114677D01*
X0211464Y0113918D01*
X0215550Y0113918D01*
X0218354Y0111113D01*
X0221159Y0113918D01*
X0225550Y0113918D01*
X0228654Y0110813D01*
X0228654Y0108210D01*
X0228826Y0108382D01*
X0230755Y0109181D01*
X0232843Y0109181D01*
X0234772Y0108382D01*
X0236248Y0106906D01*
X0237047Y0104977D01*
X0237047Y0102889D01*
X0236248Y0100960D01*
X0234772Y0099484D01*
X0232843Y0098685D01*
X0230755Y0098685D01*
X0228826Y0099484D01*
X0227350Y0100960D01*
X0226551Y0102889D01*
X0226551Y0104320D01*
X0225550Y0103318D01*
X0221159Y0103318D01*
X0218354Y0106123D01*
X0215550Y0103318D01*
X0211159Y0103318D01*
X0208054Y0106423D01*
X0208054Y0110509D01*
X0205194Y0107649D01*
X0205194Y0103116D01*
X0207244Y0101066D01*
X0207244Y0096800D01*
X0204228Y0093783D01*
X0199961Y0093783D01*
X0199161Y0094583D01*
X0130335Y0094583D01*
X0130282Y0094561D01*
X0129829Y0094335D01*
X0129775Y0094331D01*
X0129228Y0093783D01*
X0124961Y0093783D01*
X0121944Y0096800D01*
X0121944Y0101066D01*
X0124961Y0104083D01*
X0129228Y0104083D01*
X0132244Y0101066D01*
X0132244Y0100783D01*
X0151756Y0100783D01*
X0151594Y0101176D01*
X0151594Y0102675D01*
X0152167Y0104060D01*
X0153228Y0105120D01*
X0154613Y0105694D01*
X0156112Y0105694D01*
X0157497Y0105120D01*
X0157686Y0104931D01*
X0157299Y0105864D01*
X0157299Y0109010D01*
X0158503Y0111915D01*
X0160727Y0114139D01*
X0163632Y0115343D01*
X0166777Y0115343D01*
X0169683Y0114139D01*
X0171907Y0111915D01*
X0173110Y0109010D01*
X0173110Y0105864D01*
X0172724Y0104931D01*
X0172913Y0105120D01*
X0174298Y0105694D01*
X0175797Y0105694D01*
X0177182Y0105120D01*
X0178242Y0104060D01*
X0178816Y0102675D01*
X0178816Y0101176D01*
X0178653Y0100783D01*
X0196944Y0100783D01*
X0196944Y0101066D01*
X0198994Y0103116D01*
X0198994Y0109550D01*
X0199466Y0110689D01*
X0202560Y0113783D01*
X0199961Y0113783D01*
X0197611Y0116133D01*
X0195445Y0116133D01*
X0196513Y0115065D01*
X0197717Y0112159D01*
X0197717Y0109014D01*
X0196513Y0106109D01*
X0194289Y0103885D01*
X0191384Y0102681D01*
X0188239Y0102681D01*
X0185333Y0103885D01*
X0183109Y0106109D01*
X0181906Y0109014D01*
X0181906Y0112159D01*
X0183109Y0115065D01*
X0185333Y0117289D01*
X0188239Y0118492D01*
X0188379Y0118492D01*
X0183559Y0123312D01*
X0183559Y0121409D01*
X0182803Y0119583D01*
X0181405Y0118186D01*
X0179579Y0117429D01*
X0177602Y0117429D01*
X0175776Y0118186D01*
X0174378Y0119583D01*
X0174304Y0119764D01*
X0173960Y0119291D01*
X0173429Y0118760D01*
X0172822Y0118319D01*
X0172153Y0117978D01*
X0171439Y0117747D01*
X0170698Y0117629D01*
X0170507Y0117629D01*
X0170507Y0122213D01*
X0170139Y0122213D01*
X0170139Y0117629D01*
X0169948Y0117629D01*
X0169206Y0117747D01*
X0168492Y0117978D01*
X0167824Y0118319D01*
X0167216Y0118760D01*
X0166686Y0119291D01*
X0166244Y0119898D01*
X0165904Y0120567D01*
X0165672Y0121281D01*
X0165554Y0122022D01*
X0165554Y0122213D01*
X0170138Y0122213D01*
X0170138Y0122582D01*
X0165554Y0122582D01*
X0165554Y0122773D01*
X0165672Y0123514D01*
X0165904Y0124228D01*
X0166244Y0124897D01*
X0166686Y0125504D01*
X0167216Y0126035D01*
X0167824Y0126476D01*
X0168001Y0126567D01*
X0167221Y0127347D01*
X0157221Y0137347D01*
X0156794Y0138376D01*
X0156794Y0140228D01*
X0155078Y0141944D01*
X0152667Y0139533D01*
X0150845Y0139533D01*
X0150845Y0143933D01*
X0150844Y0143933D01*
X0146444Y0143933D01*
X0146444Y0142111D01*
X0149022Y0139533D01*
X0150844Y0139533D01*
X0150844Y0143933D01*
X0150844Y0143933D01*
X0146444Y0143933D01*
X0146444Y0145756D01*
X0149022Y0148333D01*
X0150844Y0148333D01*
X0150844Y0143933D01*
X0150845Y0143933D01*
X0150845Y0148333D01*
X0152667Y0148333D01*
X0155078Y0145922D01*
X0157689Y0148533D01*
X0161500Y0148533D01*
X0163969Y0146063D01*
X0166439Y0148533D01*
X0170250Y0148533D01*
X0171944Y0146838D01*
X0171944Y0151066D01*
X0173994Y0153116D01*
X0173994Y0153355D01*
X0172944Y0154405D01*
X0172944Y0158461D01*
X0173416Y0158933D01*
X0172944Y0159405D01*
X0172944Y0163333D01*
X0172944Y0163333D01*
X0172944Y0162028D01*
X0170250Y0159333D01*
X0166439Y0159333D01*
X0164939Y0160833D01*
X0163000Y0160833D01*
X0161500Y0159333D01*
X0157689Y0159333D01*
X0155219Y0161803D01*
X0153244Y0159828D01*
X0153244Y0159226D01*
X0152818Y0158197D01*
X0152031Y0157409D01*
X0142628Y0148007D01*
X0142628Y0142868D01*
X0141456Y0141697D01*
X0137044Y0141697D01*
X0136451Y0142289D01*
X0136418Y0142256D01*
X0136008Y0142020D01*
X0135550Y0141897D01*
X0133529Y0141897D01*
X0133529Y0146465D01*
X0133160Y0146465D01*
X0133160Y0141897D01*
X0132709Y0141897D01*
X0132844Y0141570D01*
X0132844Y0140297D01*
X0132357Y0139120D01*
X0131457Y0138220D01*
X0130281Y0137733D01*
X0129008Y0137733D01*
X0127832Y0138220D01*
X0126932Y0139120D01*
X0126594Y0139934D01*
X0126594Y0125843D01*
X0128354Y0124083D01*
X0129228Y0124083D01*
X0131028Y0122283D01*
X0138235Y0122283D01*
X0144246Y0128295D01*
X0143385Y0128652D01*
X0142325Y0129712D01*
X0141751Y0131097D01*
X0141751Y0132596D01*
X0142325Y0133981D01*
X0143385Y0135041D01*
X0144770Y0135615D01*
X0146269Y0135615D01*
X0147611Y0135059D01*
X0149004Y0136452D01*
X0150831Y0137209D01*
X0152807Y0137209D01*
X0154633Y0136452D01*
X0156031Y0135055D01*
X0156787Y0133228D01*
X0156787Y0131252D01*
X0156031Y0129426D01*
X0154633Y0128028D01*
X0152921Y0127319D01*
X0154633Y0126610D01*
X0156031Y0125212D01*
X0156787Y0123386D01*
X0156787Y0121409D01*
X0156031Y0119583D01*
X0154633Y0118186D01*
X0152807Y0117429D01*
X0150831Y0117429D01*
X0149004Y0118186D01*
X0147607Y0119583D01*
X0146850Y0121409D01*
X0146850Y0122979D01*
X0142307Y0118436D01*
X0145077Y0117289D01*
X0147300Y0115065D01*
X0148504Y0112159D01*
X0148504Y0109014D01*
X0147300Y0106109D01*
X0145077Y0103885D01*
X0142171Y0102681D01*
X0139026Y0102681D01*
X0136120Y0103885D01*
X0133896Y0106109D01*
X0132693Y0109014D01*
X0132693Y0112159D01*
X0133896Y0115065D01*
X0135515Y0116683D01*
X0132128Y0116683D01*
X0129228Y0113783D01*
X0124961Y0113783D01*
X0121944Y0116800D01*
X0121944Y0121066D01*
X0122698Y0121820D01*
X0121421Y0123097D01*
X0120994Y0124126D01*
X0120994Y0126224D01*
X0120063Y0124612D01*
X0118109Y0122657D01*
X0115714Y0121275D01*
X0113044Y0120559D01*
X0110279Y0120559D01*
X0107609Y0121275D01*
X0105214Y0122657D01*
X0103259Y0124612D01*
X0101877Y0127006D01*
X0101161Y0129677D01*
X0101161Y0132441D01*
X0101877Y0135112D01*
X0103259Y0137506D01*
X0103894Y0138141D01*
X0103894Y0147608D01*
X0100769Y0150733D01*
X0100144Y0150733D01*
X0101560Y0149317D01*
X0102942Y0146923D01*
X0103657Y0144252D01*
X0103657Y0141488D01*
X0102942Y0138817D01*
X0101560Y0136423D01*
X0099605Y0134468D01*
X0097210Y0133086D01*
X0094540Y0132370D01*
X0091775Y0132370D01*
X0089105Y0133086D01*
X0086710Y0134468D01*
X0084755Y0136423D01*
X0083653Y0138333D01*
X0073778Y0138333D01*
X0071728Y0136283D01*
X0067461Y0136283D01*
X0065411Y0138333D01*
X0063778Y0138333D01*
X0061728Y0136283D01*
X0057461Y0136283D01*
X0054444Y0139300D01*
X0054444Y0143566D01*
X0057461Y0146583D01*
X0061728Y0146583D01*
X0063778Y0144533D01*
X0065411Y0144533D01*
X0066494Y0145616D01*
X0066494Y0146858D01*
X0066110Y0146858D01*
X0064428Y0147555D01*
X0063141Y0148842D01*
X0062445Y0150523D01*
X0062445Y0152343D01*
X0062814Y0153233D01*
X0058958Y0153233D01*
X0057782Y0153720D01*
X0056882Y0154620D01*
X0051882Y0159620D01*
X0051394Y0160797D01*
X0051394Y0224570D01*
X0051882Y0225746D01*
X0052782Y0226646D01*
X0056001Y0229865D01*
X0048894Y0229865D01*
X0048894Y0117292D01*
X0056735Y0117292D01*
X0054644Y0119383D01*
X0054644Y0121433D01*
X0059594Y0121433D01*
X0059594Y0121433D01*
X0054644Y0121433D01*
X0054644Y0123483D01*
X0057544Y0126383D01*
X0059594Y0126383D01*
X0059594Y0121433D01*
X0059595Y0121433D01*
X0059595Y0121433D01*
X0064544Y0121433D01*
X0064544Y0119383D01*
X0062454Y0117292D01*
X0062544Y0117292D01*
X0062569Y0117314D01*
X0062871Y0117292D01*
X0063174Y0117292D01*
X0063197Y0117269D01*
X0064315Y0117189D01*
X0064370Y0117224D01*
X0064638Y0117166D01*
X0064911Y0117146D01*
X0064954Y0117097D01*
X0066080Y0116852D01*
X0066139Y0116879D01*
X0066396Y0116783D01*
X0066664Y0116725D01*
X0066699Y0116670D01*
X0067779Y0116267D01*
X0067842Y0116286D01*
X0068082Y0116154D01*
X0068339Y0116059D01*
X0068366Y0115999D01*
X0069378Y0115447D01*
X0069442Y0115456D01*
X0069662Y0115292D01*
X0069902Y0115160D01*
X0069921Y0115098D01*
X0070843Y0114407D01*
X0070908Y0114407D01*
X0071102Y0114213D01*
X0071322Y0114049D01*
X0071331Y0113985D01*
X0072146Y0113170D01*
X0072211Y0113160D01*
X0072375Y0112941D01*
X0072569Y0112747D01*
X0072569Y0112682D01*
X0073259Y0111759D01*
X0073322Y0111741D01*
X0073453Y0111500D01*
X0073618Y0111281D01*
X0073608Y0111216D01*
X0074161Y0110205D01*
X0074220Y0110178D01*
X0074316Y0109921D01*
X0074447Y0109680D01*
X0074429Y0109618D01*
X0074832Y0108538D01*
X0074886Y0108502D01*
X0074945Y0108235D01*
X0075040Y0107978D01*
X0075013Y0107919D01*
X0075258Y0106792D01*
X0075308Y0106750D01*
X0075327Y0106476D01*
X0075385Y0106208D01*
X0075350Y0106153D01*
X0075430Y0105036D01*
X0075454Y0105012D01*
X0075454Y0104710D01*
X0075475Y0104408D01*
X0075454Y0104383D01*
X0075454Y0104918D02*
X0135087Y0104918D01*
X0133727Y0106517D02*
X0075324Y0106517D01*
X0074989Y0108115D02*
X0133065Y0108115D01*
X0132693Y0109714D02*
X0097096Y0109714D01*
X0097105Y0109717D02*
X0098148Y0110219D01*
X0099127Y0110835D01*
X0100032Y0111556D01*
X0100850Y0112374D01*
X0101571Y0113278D01*
X0102186Y0114258D01*
X0102688Y0115300D01*
X0103071Y0116392D01*
X0103328Y0117520D01*
X0103432Y0118448D01*
X0093958Y0118448D01*
X0093958Y0120048D01*
X0103432Y0120048D01*
X0103328Y0120976D01*
X0103071Y0122104D01*
X0102688Y0123196D01*
X0102186Y0124238D01*
X0101571Y0125218D01*
X0100850Y0126122D01*
X0100032Y0126940D01*
X0099127Y0127662D01*
X0098148Y0128277D01*
X0097105Y0128779D01*
X0096013Y0129161D01*
X0094886Y0129418D01*
X0093957Y0129523D01*
X0093957Y0120048D01*
X0092357Y0120048D01*
X0092357Y0118448D01*
X0082882Y0118448D01*
X0082987Y0117520D01*
X0083244Y0116392D01*
X0083627Y0115300D01*
X0084128Y0114258D01*
X0084744Y0113278D01*
X0085465Y0112374D01*
X0086283Y0111556D01*
X0087188Y0110835D01*
X0088167Y0110219D01*
X0089210Y0109717D01*
X0090302Y0109335D01*
X0091429Y0109078D01*
X0092357Y0108973D01*
X0092357Y0118448D01*
X0093957Y0118448D01*
X0093957Y0108973D01*
X0094886Y0109078D01*
X0096013Y0109335D01*
X0097105Y0109717D01*
X0099726Y0111312D02*
X0132693Y0111312D01*
X0133004Y0112911D02*
X0101278Y0112911D01*
X0102308Y0114509D02*
X0124235Y0114509D01*
X0122637Y0116108D02*
X0102971Y0116108D01*
X0103349Y0117706D02*
X0121944Y0117706D01*
X0121944Y0119305D02*
X0093958Y0119305D01*
X0093957Y0120903D02*
X0092357Y0120903D01*
X0092357Y0120048D02*
X0092357Y0129523D01*
X0091429Y0129418D01*
X0090302Y0129161D01*
X0089210Y0128779D01*
X0088167Y0128277D01*
X0087188Y0127662D01*
X0086283Y0126940D01*
X0085465Y0126122D01*
X0084744Y0125218D01*
X0084128Y0124238D01*
X0083627Y0123196D01*
X0083244Y0122104D01*
X0082987Y0120976D01*
X0082882Y0120048D01*
X0092357Y0120048D01*
X0092357Y0119305D02*
X0074467Y0119305D01*
X0074544Y0119383D02*
X0074544Y0121433D01*
X0069595Y0121433D01*
X0069595Y0121433D01*
X0074544Y0121433D01*
X0074544Y0123483D01*
X0071645Y0126383D01*
X0069595Y0126383D01*
X0069595Y0121433D01*
X0069595Y0116483D01*
X0071645Y0116483D01*
X0074544Y0119383D01*
X0074544Y0120903D02*
X0082979Y0120903D01*
X0083384Y0122502D02*
X0074544Y0122502D01*
X0073928Y0124100D02*
X0084062Y0124100D01*
X0085128Y0125699D02*
X0072329Y0125699D01*
X0069595Y0125699D02*
X0069594Y0125699D01*
X0069594Y0126383D02*
X0067544Y0126383D01*
X0064644Y0123483D01*
X0064644Y0121433D01*
X0064644Y0119383D01*
X0067544Y0116483D01*
X0069594Y0116483D01*
X0069594Y0121433D01*
X0064644Y0121433D01*
X0069594Y0121433D01*
X0069594Y0121433D01*
X0069595Y0121433D01*
X0069594Y0121433D01*
X0069594Y0126383D01*
X0069594Y0124100D02*
X0069595Y0124100D01*
X0069594Y0122502D02*
X0069595Y0122502D01*
X0069594Y0120903D02*
X0069595Y0120903D01*
X0069594Y0119305D02*
X0069595Y0119305D01*
X0069594Y0117706D02*
X0069595Y0117706D01*
X0068207Y0116108D02*
X0083344Y0116108D01*
X0082966Y0117706D02*
X0072868Y0117706D01*
X0070707Y0114509D02*
X0084007Y0114509D01*
X0085037Y0112911D02*
X0072405Y0112911D01*
X0073594Y0111312D02*
X0086589Y0111312D01*
X0089219Y0109714D02*
X0074429Y0109714D01*
X0075454Y0103320D02*
X0078766Y0103320D01*
X0078883Y0103437D02*
X0077594Y0102148D01*
X0077594Y0095722D01*
X0078883Y0094433D01*
X0086691Y0094433D01*
X0087612Y0094433D01*
X0087851Y0094673D01*
X0088091Y0094433D01*
X0094518Y0094433D01*
X0095806Y0095722D01*
X0095806Y0096489D01*
X0096010Y0096693D01*
X0096010Y0096489D01*
X0096029Y0096470D01*
X0098066Y0094433D01*
X0100521Y0094433D01*
X0101423Y0094433D01*
X0101423Y0094433D01*
X0101423Y0094433D01*
X0101663Y0094673D01*
X0101903Y0094433D01*
X0106795Y0094433D01*
X0107034Y0094673D01*
X0107274Y0094433D01*
X0109729Y0094433D01*
X0110631Y0094433D01*
X0110631Y0094433D01*
X0110631Y0094433D01*
X0110871Y0094673D01*
X0111111Y0094433D01*
X0112933Y0094433D01*
X0113557Y0095056D01*
X0114180Y0094433D01*
X0116003Y0094433D01*
X0117291Y0095722D01*
X0117291Y0100614D01*
X0116003Y0101902D01*
X0114468Y0103437D01*
X0112645Y0103437D01*
X0111638Y0102430D01*
X0111399Y0102670D01*
X0110631Y0103437D01*
X0109097Y0103437D01*
X0109097Y0103437D01*
X0108195Y0103437D01*
X0107274Y0103437D01*
X0106267Y0102430D01*
X0105260Y0103437D01*
X0103437Y0103437D01*
X0102430Y0102430D01*
X0102191Y0102670D01*
X0101423Y0103437D01*
X0099889Y0103437D01*
X0099889Y0103437D01*
X0098987Y0103437D01*
X0098066Y0103437D01*
X0097827Y0103197D01*
X0097587Y0103437D01*
X0092695Y0103437D01*
X0092072Y0102814D01*
X0091448Y0103437D01*
X0089626Y0103437D01*
X0088619Y0102430D01*
X0087612Y0103437D01*
X0083487Y0103437D01*
X0082198Y0102148D01*
X0082198Y0098833D01*
X0081994Y0098833D01*
X0081994Y0102148D01*
X0080706Y0103437D01*
X0078883Y0103437D01*
X0080823Y0103320D02*
X0083370Y0103320D01*
X0082198Y0101721D02*
X0081994Y0101721D01*
X0081994Y0100123D02*
X0082198Y0100123D01*
X0077594Y0100123D02*
X0075454Y0100123D01*
X0075454Y0101721D02*
X0077594Y0101721D01*
X0077594Y0098524D02*
X0075454Y0098524D01*
X0075454Y0096926D02*
X0077594Y0096926D01*
X0077989Y0095327D02*
X0075454Y0095327D01*
X0075454Y0093729D02*
X0294326Y0093729D01*
X0294326Y0095327D02*
X0205772Y0095327D01*
X0207244Y0096926D02*
X0294326Y0096926D01*
X0294326Y0098524D02*
X0207244Y0098524D01*
X0207244Y0100123D02*
X0228188Y0100123D01*
X0227035Y0101721D02*
X0206590Y0101721D01*
X0205194Y0103320D02*
X0211157Y0103320D01*
X0209559Y0104918D02*
X0205194Y0104918D01*
X0205194Y0106517D02*
X0208054Y0106517D01*
X0208054Y0108115D02*
X0205661Y0108115D01*
X0207259Y0109714D02*
X0208054Y0109714D01*
X0212055Y0114509D02*
X0229644Y0114509D01*
X0229644Y0114383D02*
X0232544Y0111483D01*
X0234594Y0111483D01*
X0234594Y0116433D01*
X0229644Y0116433D01*
X0229644Y0114383D01*
X0229644Y0116108D02*
X0212694Y0116108D01*
X0212694Y0117706D02*
X0229644Y0117706D01*
X0229644Y0118483D02*
X0229644Y0116433D01*
X0234594Y0116433D01*
X0234594Y0116433D01*
X0234595Y0116433D01*
X0234595Y0116433D01*
X0239544Y0116433D01*
X0239544Y0114383D01*
X0236645Y0111483D01*
X0234595Y0111483D01*
X0234595Y0116433D01*
X0239544Y0116433D01*
X0239544Y0118483D01*
X0236645Y0121383D01*
X0234595Y0121383D01*
X0234595Y0116433D01*
X0234594Y0116433D01*
X0234594Y0121383D01*
X0232544Y0121383D01*
X0229644Y0118483D01*
X0230466Y0119305D02*
X0212694Y0119305D01*
X0212694Y0120903D02*
X0232064Y0120903D01*
X0233270Y0122502D02*
X0212694Y0122502D01*
X0212363Y0124100D02*
X0231672Y0124100D01*
X0231244Y0124528D02*
X0233939Y0121833D01*
X0237750Y0121833D01*
X0240444Y0124528D01*
X0240444Y0128338D01*
X0237750Y0131033D01*
X0233939Y0131033D01*
X0231244Y0128338D01*
X0231244Y0124528D01*
X0231244Y0125699D02*
X0210963Y0125699D01*
X0210194Y0127297D02*
X0231244Y0127297D01*
X0231802Y0128896D02*
X0210194Y0128896D01*
X0210194Y0130494D02*
X0233400Y0130494D01*
X0230479Y0133691D02*
X0244842Y0133691D01*
X0243717Y0135290D02*
X0232078Y0135290D01*
X0233194Y0136406D02*
X0229621Y0132833D01*
X0227294Y0132833D01*
X0227294Y0138733D01*
X0226894Y0138733D01*
X0220994Y0138733D01*
X0220994Y0136406D01*
X0224568Y0132833D01*
X0226894Y0132833D01*
X0226894Y0138733D01*
X0226894Y0139133D01*
X0220994Y0139133D01*
X0220994Y0141460D01*
X0224568Y0145033D01*
X0226894Y0145033D01*
X0226894Y0139133D01*
X0227294Y0139133D01*
X0227294Y0145033D01*
X0229621Y0145033D01*
X0233194Y0141460D01*
X0233194Y0139133D01*
X0227295Y0139133D01*
X0227295Y0138733D01*
X0233194Y0138733D01*
X0233194Y0136406D01*
X0233194Y0136888D02*
X0238279Y0136888D01*
X0236681Y0138487D02*
X0233194Y0138487D01*
X0233194Y0140085D02*
X0235082Y0140085D01*
X0233484Y0141684D02*
X0232970Y0141684D01*
X0231885Y0143282D02*
X0231372Y0143282D01*
X0230287Y0144881D02*
X0229773Y0144881D01*
X0227294Y0144881D02*
X0226894Y0144881D01*
X0226894Y0143282D02*
X0227294Y0143282D01*
X0227294Y0141684D02*
X0226894Y0141684D01*
X0226894Y0140085D02*
X0227294Y0140085D01*
X0227294Y0138487D02*
X0226894Y0138487D01*
X0226894Y0136888D02*
X0227294Y0136888D01*
X0227294Y0135290D02*
X0226894Y0135290D01*
X0226894Y0133691D02*
X0227294Y0133691D01*
X0223709Y0133691D02*
X0210762Y0133691D01*
X0210194Y0132093D02*
X0273795Y0132093D01*
X0273756Y0133691D02*
X0274216Y0133691D01*
X0277016Y0134012D02*
X0277016Y0138569D01*
X0277016Y0131354D01*
X0277194Y0131183D01*
X0289544Y0131183D01*
X0289604Y0130764D01*
X0296900Y0130579D02*
X0296900Y0126208D01*
X0296792Y0126208D01*
X0297313Y0125687D01*
X0297313Y0118518D01*
X0296141Y0117346D01*
X0290548Y0117346D01*
X0289744Y0118150D01*
X0289744Y0114300D01*
X0286728Y0111283D01*
X0283704Y0111283D01*
X0286761Y0108226D01*
X0286917Y0108382D01*
X0288846Y0109181D01*
X0290934Y0109181D01*
X0292863Y0108382D01*
X0294339Y0106906D01*
X0294462Y0106609D01*
X0294472Y0106750D01*
X0294521Y0106792D01*
X0294766Y0107919D01*
X0294739Y0107978D01*
X0294835Y0108235D01*
X0294893Y0108502D01*
X0294948Y0108538D01*
X0295351Y0109618D01*
X0295332Y0109680D01*
X0295464Y0109921D01*
X0295560Y0110178D01*
X0295619Y0110205D01*
X0296171Y0111216D01*
X0296162Y0111281D01*
X0296326Y0111500D01*
X0296458Y0111741D01*
X0296520Y0111759D01*
X0297211Y0112682D01*
X0297211Y0112747D01*
X0297405Y0112941D01*
X0297569Y0113160D01*
X0297633Y0113170D01*
X0298448Y0113985D01*
X0298458Y0114049D01*
X0298677Y0114213D01*
X0298871Y0114407D01*
X0298936Y0114407D01*
X0299859Y0115098D01*
X0299877Y0115160D01*
X0300118Y0115292D01*
X0300337Y0115456D01*
X0300402Y0115447D01*
X0301413Y0115999D01*
X0301440Y0116059D01*
X0301697Y0116154D01*
X0301938Y0116286D01*
X0302000Y0116267D01*
X0303080Y0116670D01*
X0303116Y0116725D01*
X0303383Y0116783D01*
X0303640Y0116879D01*
X0303700Y0116852D01*
X0304826Y0117097D01*
X0304869Y0117146D01*
X0305142Y0117166D01*
X0305410Y0117224D01*
X0305465Y0117189D01*
X0306582Y0117269D01*
X0306606Y0117292D01*
X0306908Y0117292D01*
X0307210Y0117314D01*
X0307235Y0117292D01*
X0320885Y0117292D01*
X0320885Y0117411D01*
X0298628Y0117411D01*
X0298013Y0118026D01*
X0298013Y0126208D01*
X0297269Y0126208D01*
X0297269Y0130579D01*
X0296900Y0130579D01*
X0296900Y0130494D02*
X0297269Y0130494D01*
X0297269Y0128896D02*
X0296900Y0128896D01*
X0296900Y0127297D02*
X0297269Y0127297D01*
X0297301Y0125699D02*
X0298013Y0125699D01*
X0298013Y0124100D02*
X0297313Y0124100D01*
X0297313Y0122502D02*
X0298013Y0122502D01*
X0298013Y0120903D02*
X0297313Y0120903D01*
X0297313Y0119305D02*
X0298013Y0119305D01*
X0298332Y0117706D02*
X0296501Y0117706D01*
X0299072Y0114509D02*
X0289744Y0114509D01*
X0289744Y0116108D02*
X0301572Y0116108D01*
X0297375Y0112911D02*
X0288355Y0112911D01*
X0286757Y0111312D02*
X0296185Y0111312D01*
X0295351Y0109714D02*
X0285274Y0109714D01*
X0280551Y0106517D02*
X0268648Y0106517D01*
X0268617Y0106579D02*
X0268150Y0107222D01*
X0267588Y0107783D01*
X0266945Y0108251D01*
X0266237Y0108611D01*
X0265481Y0108857D01*
X0264697Y0108981D01*
X0264582Y0108981D01*
X0264582Y0104216D01*
X0264017Y0104216D01*
X0264017Y0108981D01*
X0263902Y0108981D01*
X0263117Y0108857D01*
X0262361Y0108611D01*
X0261653Y0108251D01*
X0261011Y0107783D01*
X0260844Y0107617D01*
X0260678Y0107783D01*
X0260036Y0108251D01*
X0259328Y0108611D01*
X0258572Y0108857D01*
X0257787Y0108981D01*
X0257672Y0108981D01*
X0257672Y0104216D01*
X0257107Y0104216D01*
X0257107Y0108981D01*
X0256992Y0108981D01*
X0256208Y0108857D01*
X0255452Y0108611D01*
X0254744Y0108251D01*
X0254101Y0107783D01*
X0253539Y0107222D01*
X0253072Y0106579D01*
X0252712Y0105871D01*
X0252466Y0105115D01*
X0252342Y0104330D01*
X0252342Y0104216D01*
X0257107Y0104216D01*
X0257107Y0103650D01*
X0257672Y0103650D01*
X0257672Y0098885D01*
X0257787Y0098885D01*
X0258572Y0099009D01*
X0259328Y0099255D01*
X0260036Y0099616D01*
X0260678Y0100083D01*
X0260844Y0100249D01*
X0261011Y0100083D01*
X0261653Y0099616D01*
X0262361Y0099255D01*
X0263117Y0099009D01*
X0263902Y0098885D01*
X0264017Y0098885D01*
X0264017Y0103650D01*
X0264582Y0103650D01*
X0264582Y0098885D01*
X0264697Y0098885D01*
X0265481Y0099009D01*
X0266237Y0099255D01*
X0266945Y0099616D01*
X0267588Y0100083D01*
X0268150Y0100645D01*
X0268617Y0101287D01*
X0268977Y0101995D01*
X0269223Y0102751D01*
X0269347Y0103536D01*
X0269347Y0103650D01*
X0264582Y0103650D01*
X0264582Y0104216D01*
X0269347Y0104216D01*
X0269347Y0104330D01*
X0269223Y0105115D01*
X0268977Y0105871D01*
X0268617Y0106579D01*
X0269254Y0104918D02*
X0282150Y0104918D01*
X0283748Y0103320D02*
X0269313Y0103320D01*
X0268838Y0101721D02*
X0285126Y0101721D01*
X0286278Y0100123D02*
X0267628Y0100123D01*
X0264582Y0100123D02*
X0264017Y0100123D01*
X0264017Y0101721D02*
X0264582Y0101721D01*
X0264582Y0103320D02*
X0264017Y0103320D01*
X0264016Y0103650D02*
X0257673Y0103650D01*
X0257673Y0104216D01*
X0262438Y0104216D01*
X0264016Y0104216D01*
X0264016Y0103650D01*
X0264017Y0104918D02*
X0264582Y0104918D01*
X0264582Y0106517D02*
X0264017Y0106517D01*
X0264017Y0108115D02*
X0264582Y0108115D01*
X0267131Y0108115D02*
X0278953Y0108115D01*
X0277354Y0109714D02*
X0228654Y0109714D01*
X0228156Y0111312D02*
X0252432Y0111312D01*
X0250834Y0112911D02*
X0238073Y0112911D01*
X0239544Y0114509D02*
X0249444Y0114509D01*
X0249444Y0116108D02*
X0239544Y0116108D01*
X0239544Y0117706D02*
X0249444Y0117706D01*
X0250183Y0119305D02*
X0238723Y0119305D01*
X0237125Y0120903D02*
X0251782Y0120903D01*
X0253553Y0122502D02*
X0238419Y0122502D01*
X0240017Y0124100D02*
X0251955Y0124100D01*
X0251444Y0125699D02*
X0240444Y0125699D01*
X0240444Y0127297D02*
X0251444Y0127297D01*
X0252085Y0128896D02*
X0239887Y0128896D01*
X0238289Y0130494D02*
X0253683Y0130494D01*
X0255844Y0130494D02*
X0255845Y0130494D01*
X0255844Y0128896D02*
X0255845Y0128896D01*
X0255844Y0127297D02*
X0255845Y0127297D01*
X0255844Y0125699D02*
X0255845Y0125699D01*
X0255844Y0124100D02*
X0255845Y0124100D01*
X0255844Y0122502D02*
X0255845Y0122502D01*
X0257407Y0120903D02*
X0262064Y0120903D01*
X0260770Y0122502D02*
X0258136Y0122502D01*
X0259006Y0119305D02*
X0260466Y0119305D01*
X0264594Y0119305D02*
X0264595Y0119305D01*
X0264594Y0120903D02*
X0264595Y0120903D01*
X0265919Y0122502D02*
X0269294Y0122502D01*
X0269294Y0120903D02*
X0267125Y0120903D01*
X0268723Y0119305D02*
X0269294Y0119305D01*
X0269544Y0117706D02*
X0269572Y0117706D01*
X0269544Y0116108D02*
X0270960Y0116108D01*
X0269544Y0114509D02*
X0272559Y0114509D01*
X0274157Y0112911D02*
X0268073Y0112911D01*
X0264595Y0112911D02*
X0264594Y0112911D01*
X0264594Y0114509D02*
X0264595Y0114509D01*
X0264594Y0116108D02*
X0264595Y0116108D01*
X0264594Y0117706D02*
X0264595Y0117706D01*
X0261116Y0112911D02*
X0258355Y0112911D01*
X0256757Y0111312D02*
X0275756Y0111312D01*
X0272094Y0118933D02*
X0272094Y0126433D01*
X0263344Y0126433D01*
X0260900Y0130494D02*
X0258006Y0130494D01*
X0256653Y0133691D02*
X0256039Y0133691D01*
X0250748Y0133691D02*
X0250134Y0133691D01*
X0247488Y0138569D02*
X0247294Y0138983D01*
X0240144Y0138983D01*
X0231044Y0148083D01*
X0203744Y0148083D01*
X0199194Y0143533D01*
X0194644Y0143533D01*
X0186194Y0151983D01*
X0186194Y0174083D01*
X0179044Y0181233D01*
X0156944Y0181233D01*
X0154344Y0183833D01*
X0154344Y0194883D01*
X0147194Y0202033D01*
X0147194Y0218933D01*
X0151744Y0223483D01*
X0152094Y0223933D01*
X0162094Y0223933D01*
X0158733Y0220011D02*
X0154678Y0220011D01*
X0154000Y0219333D02*
X0155800Y0221133D01*
X0157611Y0221133D01*
X0159961Y0218783D01*
X0164228Y0218783D01*
X0167244Y0221800D01*
X0167244Y0226066D01*
X0164228Y0229083D01*
X0159961Y0229083D01*
X0157611Y0226733D01*
X0155800Y0226733D01*
X0154000Y0228533D01*
X0150189Y0228533D01*
X0147494Y0225838D01*
X0147494Y0223193D01*
X0146694Y0222393D01*
X0146694Y0225838D01*
X0144000Y0228533D01*
X0140189Y0228533D01*
X0137494Y0225838D01*
X0137494Y0222028D01*
X0140189Y0219333D01*
X0144000Y0219333D01*
X0144563Y0219896D01*
X0144394Y0219490D01*
X0144394Y0208138D01*
X0144000Y0208533D01*
X0141454Y0208533D01*
X0139468Y0210519D01*
X0138681Y0211307D01*
X0137651Y0211733D01*
X0133300Y0211733D01*
X0131500Y0213533D01*
X0127689Y0213533D01*
X0126694Y0212538D01*
X0126694Y0215611D01*
X0127772Y0214533D01*
X0129594Y0214533D01*
X0129594Y0218933D01*
X0125194Y0218933D01*
X0125194Y0217338D01*
X0124000Y0218533D01*
X0123954Y0218533D01*
X0123681Y0218807D01*
X0119194Y0223293D01*
X0119194Y0225838D01*
X0116500Y0228533D01*
X0112689Y0228533D01*
X0111522Y0227366D01*
X0105254Y0233633D01*
X0238435Y0233633D01*
X0251035Y0221033D01*
X0250189Y0221033D01*
X0247494Y0218338D01*
X0247494Y0214528D01*
X0248710Y0213312D01*
X0247574Y0213312D01*
X0247574Y0208674D01*
X0247402Y0208674D01*
X0247402Y0208503D01*
X0243917Y0208503D01*
X0243917Y0205483D01*
X0243254Y0205483D01*
X0241144Y0207593D01*
X0241144Y0218240D01*
X0240718Y0219269D01*
X0239931Y0220057D01*
X0237244Y0222743D01*
X0237244Y0226066D01*
X0234228Y0229083D01*
X0229961Y0229083D01*
X0227611Y0226733D01*
X0225800Y0226733D01*
X0224000Y0228533D01*
X0220189Y0228533D01*
X0217494Y0225838D01*
X0217494Y0222028D01*
X0220189Y0219333D01*
X0224000Y0219333D01*
X0225800Y0221133D01*
X0227611Y0221133D01*
X0229961Y0218783D01*
X0233285Y0218783D01*
X0235544Y0216523D01*
X0235544Y0207483D01*
X0234145Y0208883D01*
X0232095Y0208883D01*
X0232095Y0203933D01*
X0232094Y0203933D01*
X0227144Y0203933D01*
X0227144Y0201883D01*
X0229092Y0199936D01*
X0227494Y0198338D01*
X0227494Y0194528D01*
X0227900Y0194122D01*
X0225510Y0191733D01*
X0222399Y0191733D01*
X0219594Y0188928D01*
X0216790Y0191733D01*
X0212399Y0191733D01*
X0209294Y0188628D01*
X0209294Y0184238D01*
X0212399Y0181133D01*
X0216135Y0181133D01*
X0218408Y0178859D01*
X0219438Y0178433D01*
X0227701Y0178433D01*
X0227993Y0178554D01*
X0227694Y0178256D01*
X0227694Y0176433D01*
X0227694Y0174611D01*
X0230272Y0172033D01*
X0232094Y0172033D01*
X0232094Y0176433D01*
X0227694Y0176433D01*
X0232094Y0176433D01*
X0232094Y0176433D01*
X0232095Y0176433D01*
X0232095Y0176433D01*
X0236494Y0176433D01*
X0236494Y0174611D01*
X0233917Y0172033D01*
X0232095Y0172033D01*
X0232095Y0176433D01*
X0236494Y0176433D01*
X0236494Y0178256D01*
X0235667Y0179083D01*
X0252401Y0179083D01*
X0253431Y0179509D01*
X0254218Y0180297D01*
X0277587Y0203665D01*
X0279616Y0203665D01*
X0279969Y0204018D01*
X0280321Y0203665D01*
X0285521Y0203665D01*
X0285874Y0204018D01*
X0286227Y0203665D01*
X0291427Y0203665D01*
X0291780Y0204018D01*
X0292132Y0203665D01*
X0297332Y0203665D01*
X0298013Y0204346D01*
X0298013Y0142478D01*
X0297944Y0142597D01*
X0297609Y0142932D01*
X0297199Y0143169D01*
X0296741Y0143292D01*
X0294818Y0143292D01*
X0294818Y0138655D01*
X0294646Y0138655D01*
X0294646Y0143292D01*
X0292724Y0143292D01*
X0292266Y0143169D01*
X0291938Y0142980D01*
X0291427Y0143492D01*
X0286227Y0143492D01*
X0285874Y0143139D01*
X0285521Y0143492D01*
X0280321Y0143492D01*
X0279968Y0143139D01*
X0279616Y0143492D01*
X0274416Y0143492D01*
X0274063Y0143139D01*
X0273910Y0143292D01*
X0273910Y0144224D01*
X0273484Y0145253D01*
X0269468Y0149269D01*
X0268681Y0150057D01*
X0267651Y0150483D01*
X0253254Y0150483D01*
X0249468Y0154269D01*
X0248681Y0155057D01*
X0247651Y0155483D01*
X0227004Y0155483D01*
X0216694Y0165793D01*
X0216694Y0168338D01*
X0214000Y0171033D01*
X0210189Y0171033D01*
X0208689Y0169533D01*
X0205919Y0169533D01*
X0205922Y0169538D01*
X0206044Y0169996D01*
X0206044Y0171433D01*
X0199895Y0171433D01*
X0199895Y0171433D01*
X0206044Y0171433D01*
X0206044Y0172033D01*
X0206417Y0172033D01*
X0208994Y0174611D01*
X0208994Y0176433D01*
X0204595Y0176433D01*
X0204595Y0176433D01*
X0208994Y0176433D01*
X0208994Y0178256D01*
X0206417Y0180833D01*
X0204595Y0180833D01*
X0204595Y0176433D01*
X0204594Y0176433D01*
X0200194Y0176433D01*
X0200194Y0174611D01*
X0200372Y0174433D01*
X0199895Y0174433D01*
X0199895Y0171433D01*
X0199894Y0171433D01*
X0193744Y0171433D01*
X0193744Y0169996D01*
X0193867Y0169538D01*
X0194104Y0169128D01*
X0194157Y0169074D01*
X0193544Y0168461D01*
X0193544Y0164405D01*
X0194157Y0163792D01*
X0194104Y0163738D01*
X0193867Y0163328D01*
X0193744Y0162870D01*
X0193744Y0161433D01*
X0193744Y0159996D01*
X0193867Y0159538D01*
X0194104Y0159128D01*
X0194157Y0159074D01*
X0193544Y0158461D01*
X0193544Y0154405D01*
X0194555Y0153394D01*
X0192144Y0150983D01*
X0192144Y0149993D01*
X0188994Y0153143D01*
X0188994Y0174640D01*
X0188568Y0175669D01*
X0181418Y0182819D01*
X0180631Y0183607D01*
X0179601Y0184033D01*
X0174690Y0184033D01*
X0174894Y0184238D01*
X0174894Y0187349D01*
X0178850Y0191305D01*
X0179723Y0192177D01*
X0179990Y0192824D01*
X0181694Y0194528D01*
X0181694Y0198338D01*
X0179000Y0201033D01*
X0177917Y0201033D01*
X0178994Y0202111D01*
X0178994Y0203933D01*
X0174595Y0203933D01*
X0174595Y0203933D01*
X0178994Y0203933D01*
X0178994Y0205756D01*
X0177667Y0207083D01*
X0181239Y0207083D01*
X0179994Y0205838D01*
X0179994Y0202028D01*
X0182689Y0199333D01*
X0184935Y0199333D01*
X0192832Y0191436D01*
X0193232Y0190470D01*
X0193434Y0190268D01*
X0192094Y0188928D01*
X0189290Y0191733D01*
X0184899Y0191733D01*
X0181794Y0188628D01*
X0181794Y0184238D01*
X0184899Y0181133D01*
X0189290Y0181133D01*
X0192094Y0183938D01*
X0194899Y0181133D01*
X0199290Y0181133D01*
X0202394Y0184238D01*
X0202394Y0187349D01*
X0206350Y0191305D01*
X0207223Y0192177D01*
X0207490Y0192824D01*
X0209194Y0194528D01*
X0209194Y0195833D01*
X0217711Y0195833D01*
X0218850Y0196305D01*
X0221879Y0199333D01*
X0224000Y0199333D01*
X0226694Y0202028D01*
X0226694Y0205838D01*
X0224000Y0208533D01*
X0220189Y0208533D01*
X0217494Y0205838D01*
X0217494Y0203717D01*
X0216694Y0202917D01*
X0216694Y0205838D01*
X0214000Y0208533D01*
X0211454Y0208533D01*
X0208681Y0211307D01*
X0207651Y0211733D01*
X0203300Y0211733D01*
X0201500Y0213533D01*
X0197689Y0213533D01*
X0196694Y0212538D01*
X0196694Y0215611D01*
X0197772Y0214533D01*
X0199594Y0214533D01*
X0199594Y0218933D01*
X0195194Y0218933D01*
X0195194Y0217338D01*
X0194000Y0218533D01*
X0193954Y0218533D01*
X0193681Y0218807D01*
X0189194Y0223293D01*
X0189194Y0225838D01*
X0186500Y0228533D01*
X0182689Y0228533D01*
X0180889Y0226733D01*
X0178300Y0226733D01*
X0176500Y0228533D01*
X0172689Y0228533D01*
X0169994Y0225838D01*
X0169994Y0222028D01*
X0172689Y0219333D01*
X0176500Y0219333D01*
X0178300Y0221133D01*
X0180889Y0221133D01*
X0182689Y0219333D01*
X0185235Y0219333D01*
X0188112Y0216456D01*
X0187494Y0215838D01*
X0187494Y0213283D01*
X0157728Y0213283D01*
X0156588Y0212811D01*
X0152310Y0208533D01*
X0150189Y0208533D01*
X0149994Y0208338D01*
X0149994Y0217773D01*
X0151554Y0219333D01*
X0154000Y0219333D01*
X0150634Y0218412D02*
X0186155Y0218412D01*
X0187754Y0216814D02*
X0149994Y0216814D01*
X0149994Y0215215D02*
X0187494Y0215215D01*
X0187494Y0213617D02*
X0149994Y0213617D01*
X0149994Y0212018D02*
X0155796Y0212018D01*
X0154197Y0210420D02*
X0149994Y0210420D01*
X0149994Y0208821D02*
X0152599Y0208821D01*
X0157144Y0204599D02*
X0157144Y0203933D01*
X0157144Y0201883D01*
X0160044Y0198983D01*
X0162094Y0198983D01*
X0162094Y0203933D01*
X0157144Y0203933D01*
X0162094Y0203933D01*
X0162094Y0203933D01*
X0162095Y0203933D01*
X0162095Y0203933D01*
X0167044Y0203933D01*
X0167044Y0201883D01*
X0164145Y0198983D01*
X0162095Y0198983D01*
X0162095Y0203933D01*
X0167044Y0203933D01*
X0167044Y0205983D01*
X0165945Y0207083D01*
X0171522Y0207083D01*
X0170194Y0205756D01*
X0170194Y0203933D01*
X0170194Y0202111D01*
X0172772Y0199533D01*
X0173689Y0199533D01*
X0172494Y0198338D01*
X0172494Y0194528D01*
X0172900Y0194122D01*
X0170510Y0191733D01*
X0167399Y0191733D01*
X0164594Y0188928D01*
X0161790Y0191733D01*
X0157399Y0191733D01*
X0157144Y0191478D01*
X0157144Y0195440D01*
X0156718Y0196469D01*
X0153854Y0199333D01*
X0154000Y0199333D01*
X0156694Y0202028D01*
X0156694Y0204149D01*
X0157144Y0204599D01*
X0157144Y0204026D02*
X0156694Y0204026D01*
X0156694Y0202427D02*
X0157144Y0202427D01*
X0158198Y0200829D02*
X0155496Y0200829D01*
X0153957Y0199230D02*
X0159797Y0199230D01*
X0162094Y0199230D02*
X0162095Y0199230D01*
X0162094Y0200829D02*
X0162095Y0200829D01*
X0162094Y0202427D02*
X0162095Y0202427D01*
X0164392Y0199230D02*
X0173386Y0199230D01*
X0172494Y0197632D02*
X0155555Y0197632D01*
X0156899Y0196033D02*
X0172494Y0196033D01*
X0172587Y0194435D02*
X0157144Y0194435D01*
X0157144Y0192836D02*
X0171614Y0192836D01*
X0177185Y0189639D02*
X0182805Y0189639D01*
X0181794Y0188041D02*
X0175586Y0188041D01*
X0174894Y0186442D02*
X0181794Y0186442D01*
X0181794Y0184844D02*
X0174894Y0184844D01*
X0180992Y0183245D02*
X0182787Y0183245D01*
X0182591Y0181647D02*
X0184385Y0181647D01*
X0184189Y0180048D02*
X0201987Y0180048D01*
X0202772Y0180833D02*
X0200194Y0178256D01*
X0200194Y0176433D01*
X0204594Y0176433D01*
X0204594Y0176433D01*
X0204594Y0180833D01*
X0202772Y0180833D01*
X0204594Y0180048D02*
X0204595Y0180048D01*
X0204594Y0178450D02*
X0204595Y0178450D01*
X0204594Y0176851D02*
X0204595Y0176851D01*
X0207202Y0180048D02*
X0217220Y0180048D01*
X0219397Y0178450D02*
X0208800Y0178450D01*
X0208994Y0176851D02*
X0227694Y0176851D01*
X0227694Y0175253D02*
X0208994Y0175253D01*
X0208038Y0173654D02*
X0228651Y0173654D01*
X0230249Y0172056D02*
X0206440Y0172056D01*
X0206044Y0170457D02*
X0209613Y0170457D01*
X0212094Y0166433D02*
X0225844Y0152683D01*
X0247094Y0152683D01*
X0252094Y0147683D01*
X0267094Y0147683D01*
X0271110Y0143667D01*
X0271110Y0138569D01*
X0273920Y0143282D02*
X0274206Y0143282D01*
X0273638Y0144881D02*
X0298013Y0144881D01*
X0298013Y0146479D02*
X0272258Y0146479D01*
X0270659Y0148078D02*
X0298013Y0148078D01*
X0298013Y0149677D02*
X0269061Y0149677D01*
X0265935Y0144883D02*
X0262168Y0144883D01*
X0262194Y0144820D01*
X0262194Y0143547D01*
X0262092Y0143299D01*
X0262411Y0142980D01*
X0262738Y0143169D01*
X0263196Y0143292D01*
X0265119Y0143292D01*
X0265119Y0138655D01*
X0265291Y0138655D01*
X0265291Y0143292D01*
X0267213Y0143292D01*
X0267640Y0143178D01*
X0265935Y0144883D01*
X0265937Y0144881D02*
X0262169Y0144881D01*
X0262109Y0143282D02*
X0263160Y0143282D01*
X0265119Y0143282D02*
X0265291Y0143282D01*
X0265291Y0141684D02*
X0265119Y0141684D01*
X0265119Y0140085D02*
X0265291Y0140085D01*
X0265291Y0136888D02*
X0265119Y0136888D01*
X0265119Y0135290D02*
X0265291Y0135290D01*
X0268464Y0133691D02*
X0261945Y0133691D01*
X0265789Y0130494D02*
X0272196Y0130494D01*
X0272094Y0126433D02*
X0277016Y0131354D01*
X0279825Y0143282D02*
X0280112Y0143282D01*
X0285731Y0143282D02*
X0286017Y0143282D01*
X0291637Y0143282D02*
X0292688Y0143282D01*
X0294646Y0143282D02*
X0294818Y0143282D01*
X0294818Y0141684D02*
X0294646Y0141684D01*
X0294646Y0140085D02*
X0294818Y0140085D01*
X0296777Y0143282D02*
X0298013Y0143282D01*
X0298013Y0151275D02*
X0252462Y0151275D01*
X0250864Y0152874D02*
X0298013Y0152874D01*
X0298013Y0154472D02*
X0249265Y0154472D01*
X0255891Y0155747D02*
X0256360Y0155279D01*
X0279522Y0155279D01*
X0279991Y0155747D01*
X0279991Y0178910D01*
X0279522Y0179379D01*
X0256360Y0179379D01*
X0255891Y0178910D01*
X0255891Y0155747D01*
X0255891Y0156071D02*
X0226417Y0156071D01*
X0224818Y0157669D02*
X0255891Y0157669D01*
X0255891Y0159268D02*
X0223220Y0159268D01*
X0221621Y0160866D02*
X0255891Y0160866D01*
X0255891Y0162465D02*
X0234631Y0162465D01*
X0234000Y0161833D02*
X0236694Y0164528D01*
X0236694Y0168338D01*
X0234000Y0171033D01*
X0230189Y0171033D01*
X0227494Y0168338D01*
X0227494Y0164528D01*
X0230189Y0161833D01*
X0234000Y0161833D01*
X0236230Y0164063D02*
X0255891Y0164063D01*
X0255891Y0165662D02*
X0236694Y0165662D01*
X0236694Y0167260D02*
X0255891Y0167260D01*
X0255891Y0168859D02*
X0236174Y0168859D01*
X0234576Y0170457D02*
X0255891Y0170457D01*
X0255891Y0172056D02*
X0233940Y0172056D01*
X0232095Y0172056D02*
X0232094Y0172056D01*
X0232094Y0173654D02*
X0232095Y0173654D01*
X0232094Y0175253D02*
X0232095Y0175253D01*
X0235538Y0173654D02*
X0255891Y0173654D01*
X0255891Y0175253D02*
X0236494Y0175253D01*
X0236494Y0176851D02*
X0255891Y0176851D01*
X0255891Y0178450D02*
X0236300Y0178450D01*
X0232344Y0181883D02*
X0251844Y0181883D01*
X0276544Y0206583D01*
X0276544Y0208533D01*
X0277016Y0208589D01*
X0275944Y0213512D02*
X0274416Y0213512D01*
X0274063Y0213159D01*
X0273710Y0213512D01*
X0273278Y0213512D01*
X0273083Y0213983D01*
X0274145Y0213983D01*
X0277044Y0216883D01*
X0277044Y0218933D01*
X0272095Y0218933D01*
X0272095Y0218933D01*
X0277044Y0218933D01*
X0277044Y0220983D01*
X0274145Y0223883D01*
X0272095Y0223883D01*
X0272095Y0218933D01*
X0272094Y0218933D01*
X0272094Y0223883D01*
X0270044Y0223883D01*
X0269888Y0223727D01*
X0269596Y0224431D01*
X0270044Y0223983D01*
X0272094Y0223983D01*
X0272094Y0228933D01*
X0267144Y0228933D01*
X0267144Y0226883D01*
X0268392Y0225635D01*
X0267641Y0225946D01*
X0261754Y0231833D01*
X0264000Y0231833D01*
X0266694Y0234528D01*
X0266694Y0238338D01*
X0265383Y0239650D01*
X0266333Y0240601D01*
X0267094Y0242438D01*
X0267094Y0248558D01*
X0267094Y0248558D01*
X0267094Y0242438D01*
X0267856Y0240601D01*
X0268806Y0239650D01*
X0267494Y0238338D01*
X0267494Y0234528D01*
X0269092Y0232931D01*
X0267144Y0230983D01*
X0267144Y0228933D01*
X0272094Y0228933D01*
X0272094Y0228933D01*
X0272095Y0228933D01*
X0272095Y0223983D01*
X0274145Y0223983D01*
X0275044Y0224883D01*
X0275044Y0224876D01*
X0275471Y0223847D01*
X0276258Y0223059D01*
X0285444Y0213873D01*
X0285444Y0213512D01*
X0283326Y0213512D01*
X0282257Y0214580D01*
X0281857Y0215546D01*
X0280957Y0216446D01*
X0279781Y0216933D01*
X0278508Y0216933D01*
X0277332Y0216446D01*
X0276432Y0215546D01*
X0275944Y0214370D01*
X0275944Y0213512D01*
X0275944Y0213617D02*
X0273235Y0213617D01*
X0275377Y0215215D02*
X0276295Y0215215D01*
X0276976Y0216814D02*
X0278220Y0216814D01*
X0280069Y0216814D02*
X0282504Y0216814D01*
X0281994Y0215215D02*
X0284102Y0215215D01*
X0283220Y0213617D02*
X0285444Y0213617D01*
X0288244Y0215033D02*
X0288244Y0210483D01*
X0288827Y0208589D01*
X0288244Y0209833D01*
X0288244Y0209183D02*
X0288827Y0208589D01*
X0282921Y0208589D02*
X0282394Y0207883D01*
X0282094Y0208233D02*
X0282394Y0208533D01*
X0282921Y0208589D01*
X0282394Y0209183D01*
X0282394Y0210483D01*
X0279144Y0213733D01*
X0280905Y0218412D02*
X0277044Y0218412D01*
X0277044Y0220011D02*
X0279307Y0220011D01*
X0277708Y0221610D02*
X0276418Y0221610D01*
X0276110Y0223208D02*
X0274820Y0223208D01*
X0274968Y0224807D02*
X0275073Y0224807D01*
X0277844Y0225433D02*
X0277844Y0230633D01*
X0272644Y0235833D01*
X0272094Y0236433D01*
X0267494Y0235996D02*
X0266694Y0235996D01*
X0266694Y0237595D02*
X0267494Y0237595D01*
X0268349Y0239193D02*
X0265840Y0239193D01*
X0266412Y0240792D02*
X0267777Y0240792D01*
X0267115Y0242390D02*
X0267074Y0242390D01*
X0267094Y0243989D02*
X0267094Y0243989D01*
X0267094Y0245587D02*
X0267094Y0245587D01*
X0267094Y0247186D02*
X0267094Y0247186D01*
X0262244Y0246233D02*
X0262094Y0246433D01*
X0262244Y0246233D02*
X0262244Y0236483D01*
X0262094Y0236433D01*
X0264966Y0232799D02*
X0268960Y0232799D01*
X0267625Y0234398D02*
X0266564Y0234398D01*
X0267362Y0231201D02*
X0262387Y0231201D01*
X0263985Y0229602D02*
X0267144Y0229602D01*
X0267144Y0228004D02*
X0265584Y0228004D01*
X0267182Y0226405D02*
X0267622Y0226405D01*
X0266794Y0222833D02*
X0257694Y0231933D01*
X0249244Y0231933D01*
X0229744Y0251433D01*
X0091294Y0251433D01*
X0086094Y0246233D01*
X0085283Y0246433D01*
X0085444Y0246233D01*
X0085444Y0236483D01*
X0113394Y0208533D01*
X0116644Y0208533D01*
X0128994Y0196183D01*
X0128994Y0190983D01*
X0139394Y0190983D01*
X0139594Y0191433D01*
X0144594Y0196183D02*
X0133544Y0196183D01*
X0110144Y0219583D01*
X0110144Y0224783D01*
X0098494Y0236433D01*
X0239594Y0236433D01*
X0257094Y0218933D01*
X0257094Y0211083D01*
X0258994Y0209183D01*
X0259299Y0208589D01*
X0264844Y0208533D02*
X0264844Y0206583D01*
X0243394Y0185133D01*
X0231044Y0185133D01*
X0227144Y0181233D01*
X0219994Y0181233D01*
X0214794Y0186433D01*
X0214594Y0186433D01*
X0218884Y0189639D02*
X0220305Y0189639D01*
X0221904Y0191238D02*
X0217285Y0191238D01*
X0211904Y0191238D02*
X0206283Y0191238D01*
X0207503Y0192836D02*
X0226614Y0192836D01*
X0227587Y0194435D02*
X0209102Y0194435D01*
X0210305Y0189639D02*
X0204685Y0189639D01*
X0203086Y0188041D02*
X0209294Y0188041D01*
X0209294Y0186442D02*
X0202394Y0186442D01*
X0202394Y0184844D02*
X0209294Y0184844D01*
X0210287Y0183245D02*
X0201402Y0183245D01*
X0199803Y0181647D02*
X0211885Y0181647D01*
X0200389Y0178450D02*
X0185788Y0178450D01*
X0187386Y0176851D02*
X0200194Y0176851D01*
X0200194Y0175253D02*
X0188741Y0175253D01*
X0188994Y0173654D02*
X0194056Y0173654D01*
X0194104Y0173738D02*
X0193867Y0173328D01*
X0193744Y0172870D01*
X0193744Y0171433D01*
X0199894Y0171433D01*
X0199894Y0171433D01*
X0199894Y0174433D01*
X0195308Y0174433D01*
X0194850Y0174310D01*
X0194439Y0174073D01*
X0194104Y0173738D01*
X0193744Y0172056D02*
X0188994Y0172056D01*
X0188994Y0170457D02*
X0193744Y0170457D01*
X0193942Y0168859D02*
X0188994Y0168859D01*
X0188994Y0167260D02*
X0193544Y0167260D01*
X0193544Y0165662D02*
X0188994Y0165662D01*
X0188994Y0164063D02*
X0193886Y0164063D01*
X0193744Y0162465D02*
X0188994Y0162465D01*
X0188994Y0160866D02*
X0193744Y0160866D01*
X0193744Y0161433D02*
X0199894Y0161433D01*
X0199894Y0161433D01*
X0193744Y0161433D01*
X0194023Y0159268D02*
X0188994Y0159268D01*
X0188994Y0157669D02*
X0193544Y0157669D01*
X0193544Y0156071D02*
X0188994Y0156071D01*
X0188994Y0154472D02*
X0193544Y0154472D01*
X0194035Y0152874D02*
X0189264Y0152874D01*
X0190862Y0151275D02*
X0192436Y0151275D01*
X0199795Y0153233D02*
X0202044Y0150983D01*
X0202044Y0150343D01*
X0202158Y0150457D01*
X0203188Y0150883D01*
X0204301Y0150883D01*
X0223685Y0150883D01*
X0212735Y0161833D01*
X0210189Y0161833D01*
X0208689Y0163333D01*
X0205919Y0163333D01*
X0205922Y0163328D01*
X0206044Y0162870D01*
X0206044Y0161433D01*
X0199895Y0161433D01*
X0199895Y0161433D01*
X0206044Y0161433D01*
X0206044Y0159996D01*
X0205922Y0159538D01*
X0205685Y0159128D01*
X0205631Y0159074D01*
X0206244Y0158461D01*
X0206244Y0154405D01*
X0205073Y0153233D01*
X0199795Y0153233D01*
X0200154Y0152874D02*
X0221694Y0152874D01*
X0220096Y0154472D02*
X0206244Y0154472D01*
X0206244Y0156071D02*
X0218497Y0156071D01*
X0216899Y0157669D02*
X0206244Y0157669D01*
X0205766Y0159268D02*
X0215300Y0159268D01*
X0213702Y0160866D02*
X0206044Y0160866D01*
X0206044Y0162465D02*
X0209558Y0162465D01*
X0216826Y0165662D02*
X0227494Y0165662D01*
X0227494Y0167260D02*
X0216694Y0167260D01*
X0216174Y0168859D02*
X0228015Y0168859D01*
X0229613Y0170457D02*
X0214576Y0170457D01*
X0218424Y0164063D02*
X0227959Y0164063D01*
X0229558Y0162465D02*
X0220023Y0162465D01*
X0223293Y0151275D02*
X0201753Y0151275D01*
X0204502Y0144881D02*
X0204991Y0144881D01*
X0209198Y0144881D02*
X0224416Y0144881D01*
X0222817Y0143282D02*
X0211655Y0143282D01*
X0212774Y0141684D02*
X0221219Y0141684D01*
X0220994Y0140085D02*
X0213394Y0140085D01*
X0213394Y0138487D02*
X0220994Y0138487D01*
X0220994Y0136888D02*
X0213067Y0136888D01*
X0212361Y0135290D02*
X0222111Y0135290D01*
X0234594Y0120903D02*
X0234595Y0120903D01*
X0234594Y0119305D02*
X0234595Y0119305D01*
X0234594Y0117706D02*
X0234595Y0117706D01*
X0234594Y0116108D02*
X0234595Y0116108D01*
X0234594Y0114509D02*
X0234595Y0114509D01*
X0234594Y0112911D02*
X0234595Y0112911D01*
X0231116Y0112911D02*
X0226557Y0112911D01*
X0220152Y0112911D02*
X0216557Y0112911D01*
X0218156Y0111312D02*
X0218553Y0111312D01*
X0219559Y0104918D02*
X0217150Y0104918D01*
X0215551Y0103320D02*
X0221157Y0103320D01*
X0225551Y0103320D02*
X0226551Y0103320D01*
X0235411Y0100123D02*
X0254061Y0100123D01*
X0254101Y0100083D02*
X0254744Y0099616D01*
X0255452Y0099255D01*
X0256208Y0099009D01*
X0256992Y0098885D01*
X0257107Y0098885D01*
X0257107Y0103650D01*
X0252342Y0103650D01*
X0252342Y0103536D01*
X0252466Y0102751D01*
X0252712Y0101995D01*
X0253072Y0101287D01*
X0253539Y0100645D01*
X0254101Y0100083D01*
X0252851Y0101721D02*
X0236563Y0101721D01*
X0237047Y0103320D02*
X0252376Y0103320D01*
X0252435Y0104918D02*
X0237047Y0104918D01*
X0236409Y0106517D02*
X0253041Y0106517D01*
X0254558Y0108115D02*
X0235039Y0108115D01*
X0257107Y0108115D02*
X0257672Y0108115D01*
X0257672Y0106517D02*
X0257107Y0106517D01*
X0257107Y0104918D02*
X0257672Y0104918D01*
X0257672Y0103320D02*
X0257107Y0103320D01*
X0257107Y0101721D02*
X0257672Y0101721D01*
X0257672Y0100123D02*
X0257107Y0100123D01*
X0260718Y0100123D02*
X0260971Y0100123D01*
X0261467Y0108115D02*
X0260222Y0108115D01*
X0272094Y0118933D02*
X0287094Y0103933D01*
X0289890Y0103933D01*
X0293501Y0100123D02*
X0294326Y0100123D01*
X0294326Y0092130D02*
X0075454Y0092130D01*
X0087612Y0094433D02*
X0087612Y0094433D01*
X0087612Y0094433D01*
X0095412Y0095327D02*
X0097172Y0095327D01*
X0097704Y0103320D02*
X0097949Y0103320D01*
X0101541Y0103320D02*
X0103320Y0103320D01*
X0105377Y0103320D02*
X0107157Y0103320D01*
X0110749Y0103320D02*
X0112528Y0103320D01*
X0114585Y0103320D02*
X0124198Y0103320D01*
X0122599Y0101721D02*
X0116184Y0101721D01*
X0117291Y0100123D02*
X0121944Y0100123D01*
X0121944Y0098524D02*
X0117291Y0098524D01*
X0117291Y0096926D02*
X0121944Y0096926D01*
X0123417Y0095327D02*
X0116897Y0095327D01*
X0129991Y0103320D02*
X0137484Y0103320D01*
X0131590Y0101721D02*
X0151594Y0101721D01*
X0151861Y0103320D02*
X0143713Y0103320D01*
X0146110Y0104918D02*
X0153026Y0104918D01*
X0157299Y0106517D02*
X0147469Y0106517D01*
X0148132Y0108115D02*
X0157299Y0108115D01*
X0157591Y0109714D02*
X0148504Y0109714D01*
X0148504Y0111312D02*
X0158253Y0111312D01*
X0159498Y0112911D02*
X0148193Y0112911D01*
X0147530Y0114509D02*
X0161621Y0114509D01*
X0166676Y0119305D02*
X0155753Y0119305D01*
X0156578Y0120903D02*
X0165794Y0120903D01*
X0170139Y0120903D02*
X0170507Y0120903D01*
X0170507Y0119305D02*
X0170139Y0119305D01*
X0170139Y0117706D02*
X0170507Y0117706D01*
X0171185Y0117706D02*
X0176933Y0117706D01*
X0174657Y0119305D02*
X0173970Y0119305D01*
X0169461Y0117706D02*
X0153476Y0117706D01*
X0150162Y0117706D02*
X0144068Y0117706D01*
X0143176Y0119305D02*
X0147885Y0119305D01*
X0147060Y0120903D02*
X0144774Y0120903D01*
X0146373Y0122502D02*
X0146850Y0122502D01*
X0141650Y0125699D02*
X0126739Y0125699D01*
X0126594Y0127297D02*
X0143249Y0127297D01*
X0143141Y0128896D02*
X0126594Y0128896D01*
X0126594Y0130494D02*
X0142001Y0130494D01*
X0141751Y0132093D02*
X0126594Y0132093D01*
X0126594Y0133691D02*
X0142205Y0133691D01*
X0143985Y0135290D02*
X0126594Y0135290D01*
X0126594Y0136888D02*
X0150057Y0136888D01*
X0147842Y0135290D02*
X0147054Y0135290D01*
X0148470Y0140085D02*
X0132757Y0140085D01*
X0132797Y0141684D02*
X0146871Y0141684D01*
X0146444Y0143282D02*
X0142628Y0143282D01*
X0142628Y0144881D02*
X0146444Y0144881D01*
X0147168Y0146479D02*
X0142628Y0146479D01*
X0142699Y0148078D02*
X0148767Y0148078D01*
X0150844Y0148078D02*
X0150845Y0148078D01*
X0150844Y0146479D02*
X0150845Y0146479D01*
X0150844Y0144881D02*
X0150845Y0144881D01*
X0150844Y0143282D02*
X0150845Y0143282D01*
X0150844Y0141684D02*
X0150845Y0141684D01*
X0150844Y0140085D02*
X0150845Y0140085D01*
X0153219Y0140085D02*
X0156794Y0140085D01*
X0156794Y0138487D02*
X0131724Y0138487D01*
X0129644Y0140933D02*
X0127694Y0142883D01*
X0127694Y0146133D01*
X0127439Y0146650D01*
X0123794Y0150033D02*
X0123794Y0124683D01*
X0127694Y0120783D01*
X0127094Y0118933D01*
X0127694Y0120133D01*
X0127694Y0119483D02*
X0127094Y0118933D01*
X0127694Y0119483D02*
X0139394Y0119483D01*
X0151744Y0131833D01*
X0151819Y0132240D01*
X0155501Y0128896D02*
X0165672Y0128896D01*
X0164073Y0130494D02*
X0156474Y0130494D01*
X0156787Y0132093D02*
X0162475Y0132093D01*
X0160876Y0133691D02*
X0156596Y0133691D01*
X0155796Y0135290D02*
X0159278Y0135290D01*
X0157679Y0136888D02*
X0153580Y0136888D01*
X0159594Y0138933D02*
X0169594Y0128933D01*
X0173344Y0128933D01*
X0178591Y0123687D01*
X0178591Y0122398D01*
X0183559Y0122502D02*
X0184369Y0122502D01*
X0183349Y0120903D02*
X0185968Y0120903D01*
X0187566Y0119305D02*
X0182524Y0119305D01*
X0180248Y0117706D02*
X0186341Y0117706D01*
X0184152Y0116108D02*
X0146257Y0116108D01*
X0138453Y0122502D02*
X0130809Y0122502D01*
X0128337Y0124100D02*
X0140052Y0124100D01*
X0134940Y0116108D02*
X0131552Y0116108D01*
X0129954Y0114509D02*
X0133666Y0114509D01*
X0121944Y0120903D02*
X0114328Y0120903D01*
X0117840Y0122502D02*
X0122016Y0122502D01*
X0121005Y0124100D02*
X0119552Y0124100D01*
X0120691Y0125699D02*
X0120994Y0125699D01*
X0108994Y0120903D02*
X0103336Y0120903D01*
X0102931Y0122502D02*
X0105483Y0122502D01*
X0103771Y0124100D02*
X0102253Y0124100D01*
X0102632Y0125699D02*
X0101187Y0125699D01*
X0101799Y0127297D02*
X0099584Y0127297D01*
X0101371Y0128896D02*
X0096771Y0128896D01*
X0093957Y0128896D02*
X0092357Y0128896D01*
X0092357Y0127297D02*
X0093957Y0127297D01*
X0093957Y0125699D02*
X0092357Y0125699D01*
X0092357Y0124100D02*
X0093957Y0124100D01*
X0093957Y0122502D02*
X0092357Y0122502D01*
X0092357Y0117706D02*
X0093957Y0117706D01*
X0093957Y0116108D02*
X0092357Y0116108D01*
X0092357Y0114509D02*
X0093957Y0114509D01*
X0093957Y0112911D02*
X0092357Y0112911D01*
X0092357Y0111312D02*
X0093957Y0111312D01*
X0093957Y0109714D02*
X0092357Y0109714D01*
X0092578Y0103320D02*
X0091566Y0103320D01*
X0089508Y0103320D02*
X0087729Y0103320D01*
X0066321Y0117706D02*
X0062868Y0117706D01*
X0064467Y0119305D02*
X0064722Y0119305D01*
X0064644Y0120903D02*
X0064544Y0120903D01*
X0064544Y0121433D02*
X0059595Y0121433D01*
X0059595Y0126383D01*
X0061645Y0126383D01*
X0064544Y0123483D01*
X0064544Y0121433D01*
X0064544Y0122502D02*
X0064644Y0122502D01*
X0065261Y0124100D02*
X0063928Y0124100D01*
X0062329Y0125699D02*
X0066860Y0125699D01*
X0059595Y0125699D02*
X0059594Y0125699D01*
X0059594Y0124100D02*
X0059595Y0124100D01*
X0059594Y0122502D02*
X0059595Y0122502D01*
X0056860Y0125699D02*
X0048894Y0125699D01*
X0048894Y0127297D02*
X0086731Y0127297D01*
X0089544Y0128896D02*
X0048894Y0128896D01*
X0048894Y0130494D02*
X0101161Y0130494D01*
X0101161Y0132093D02*
X0048894Y0132093D01*
X0048894Y0133691D02*
X0088055Y0133691D01*
X0085888Y0135290D02*
X0048894Y0135290D01*
X0048894Y0136888D02*
X0056856Y0136888D01*
X0055257Y0138487D02*
X0048894Y0138487D01*
X0048894Y0140085D02*
X0054444Y0140085D01*
X0054444Y0141684D02*
X0048894Y0141684D01*
X0048894Y0143282D02*
X0054444Y0143282D01*
X0055759Y0144881D02*
X0048894Y0144881D01*
X0048894Y0146479D02*
X0057358Y0146479D01*
X0061831Y0146479D02*
X0066494Y0146479D01*
X0065759Y0144881D02*
X0063430Y0144881D01*
X0063905Y0148078D02*
X0048894Y0148078D01*
X0048894Y0149677D02*
X0062796Y0149677D01*
X0062445Y0151275D02*
X0048894Y0151275D01*
X0048894Y0152874D02*
X0062665Y0152874D01*
X0057030Y0154472D02*
X0048894Y0154472D01*
X0048894Y0156071D02*
X0055432Y0156071D01*
X0053833Y0157669D02*
X0048894Y0157669D01*
X0048894Y0159268D02*
X0052234Y0159268D01*
X0051394Y0160866D02*
X0048894Y0160866D01*
X0048894Y0162465D02*
X0051394Y0162465D01*
X0051394Y0164063D02*
X0048894Y0164063D01*
X0048894Y0165662D02*
X0051394Y0165662D01*
X0051394Y0167260D02*
X0048894Y0167260D01*
X0048894Y0168859D02*
X0051394Y0168859D01*
X0051394Y0170457D02*
X0048894Y0170457D01*
X0048894Y0172056D02*
X0051394Y0172056D01*
X0051394Y0173654D02*
X0048894Y0173654D01*
X0048894Y0175253D02*
X0051394Y0175253D01*
X0051394Y0176851D02*
X0048894Y0176851D01*
X0048894Y0178450D02*
X0051394Y0178450D01*
X0051394Y0180048D02*
X0048894Y0180048D01*
X0048894Y0181647D02*
X0051394Y0181647D01*
X0051394Y0183245D02*
X0048894Y0183245D01*
X0048894Y0184844D02*
X0051394Y0184844D01*
X0051394Y0186442D02*
X0048894Y0186442D01*
X0048894Y0188041D02*
X0051394Y0188041D01*
X0051394Y0189639D02*
X0048894Y0189639D01*
X0048894Y0191238D02*
X0051394Y0191238D01*
X0051394Y0192836D02*
X0048894Y0192836D01*
X0048894Y0194435D02*
X0051394Y0194435D01*
X0051394Y0196033D02*
X0048894Y0196033D01*
X0048894Y0197632D02*
X0051394Y0197632D01*
X0051394Y0199230D02*
X0048894Y0199230D01*
X0048894Y0200829D02*
X0051394Y0200829D01*
X0051394Y0202427D02*
X0048894Y0202427D01*
X0048894Y0204026D02*
X0051394Y0204026D01*
X0051394Y0205624D02*
X0048894Y0205624D01*
X0048894Y0207223D02*
X0051394Y0207223D01*
X0051394Y0208821D02*
X0048894Y0208821D01*
X0048894Y0210420D02*
X0051394Y0210420D01*
X0051394Y0212018D02*
X0048894Y0212018D01*
X0048894Y0213617D02*
X0051394Y0213617D01*
X0051394Y0215215D02*
X0048894Y0215215D01*
X0048894Y0216814D02*
X0051394Y0216814D01*
X0051394Y0218412D02*
X0048894Y0218412D01*
X0048894Y0220011D02*
X0051394Y0220011D01*
X0051394Y0221610D02*
X0048894Y0221610D01*
X0048894Y0223208D02*
X0051394Y0223208D01*
X0051493Y0224807D02*
X0048894Y0224807D01*
X0048894Y0226405D02*
X0052541Y0226405D01*
X0054140Y0228004D02*
X0048894Y0228004D01*
X0048894Y0229602D02*
X0055738Y0229602D01*
X0060920Y0225733D02*
X0070231Y0225733D01*
X0071407Y0226220D01*
X0072307Y0227120D01*
X0079807Y0234620D01*
X0080294Y0235797D01*
X0080294Y0247608D01*
X0080709Y0248022D01*
X0080709Y0243030D01*
X0081880Y0241858D01*
X0082644Y0241858D01*
X0082644Y0235926D01*
X0083071Y0234897D01*
X0111021Y0206947D01*
X0111062Y0206906D01*
X0109994Y0205838D01*
X0109994Y0202028D01*
X0112689Y0199333D01*
X0116500Y0199333D01*
X0119192Y0202025D01*
X0126194Y0195023D01*
X0126194Y0192143D01*
X0125321Y0191269D01*
X0125264Y0191133D01*
X0121466Y0191133D01*
X0120294Y0189961D01*
X0120294Y0187220D01*
X0120244Y0187100D01*
X0120244Y0181733D01*
X0113254Y0181733D01*
X0107716Y0187271D01*
X0109736Y0189291D01*
X0112544Y0186483D01*
X0114594Y0186483D01*
X0114594Y0191433D01*
X0114595Y0191433D01*
X0114595Y0191433D01*
X0119544Y0191433D01*
X0119544Y0189383D01*
X0116645Y0186483D01*
X0114595Y0186483D01*
X0114595Y0191433D01*
X0119544Y0191433D01*
X0119544Y0193483D01*
X0116645Y0196383D01*
X0114595Y0196383D01*
X0114595Y0191433D01*
X0114594Y0191433D01*
X0114594Y0196383D01*
X0112544Y0196383D01*
X0109736Y0193575D01*
X0106728Y0196583D01*
X0103304Y0196583D01*
X0095618Y0204269D01*
X0095618Y0204269D01*
X0094831Y0205057D01*
X0093801Y0205483D01*
X0093349Y0205483D01*
X0093349Y0205912D01*
X0089688Y0209573D01*
X0084510Y0209573D01*
X0080849Y0205912D01*
X0080849Y0200734D01*
X0084510Y0197073D01*
X0089688Y0197073D01*
X0092291Y0199676D01*
X0099444Y0192523D01*
X0099444Y0189300D01*
X0101794Y0186950D01*
X0101794Y0185876D01*
X0102221Y0184847D01*
X0103008Y0184059D01*
X0110508Y0176559D01*
X0111538Y0176133D01*
X0112011Y0176133D01*
X0109453Y0173575D01*
X0106645Y0176383D01*
X0104595Y0176383D01*
X0104595Y0171433D01*
X0104595Y0166483D01*
X0106645Y0166483D01*
X0109453Y0169291D01*
X0111592Y0167153D01*
X0110194Y0165756D01*
X0110194Y0163933D01*
X0110194Y0162111D01*
X0112772Y0159533D01*
X0114594Y0159533D01*
X0114594Y0163933D01*
X0110194Y0163933D01*
X0114594Y0163933D01*
X0114594Y0163933D01*
X0114595Y0163933D01*
X0114595Y0163933D01*
X0118994Y0163933D01*
X0118994Y0162193D01*
X0120682Y0163880D01*
X0121082Y0164846D01*
X0121982Y0165746D01*
X0123158Y0166233D01*
X0124431Y0166233D01*
X0125043Y0165980D01*
X0125233Y0166169D01*
X0129645Y0166169D01*
X0130238Y0165577D01*
X0130271Y0165610D01*
X0130681Y0165847D01*
X0131139Y0165969D01*
X0133160Y0165969D01*
X0133160Y0161401D01*
X0133529Y0161401D01*
X0133529Y0165969D01*
X0135550Y0165969D01*
X0136008Y0165847D01*
X0136418Y0165610D01*
X0136451Y0165577D01*
X0137044Y0166169D01*
X0141456Y0166169D01*
X0142628Y0164998D01*
X0142628Y0157435D01*
X0142594Y0157402D01*
X0142594Y0156757D01*
X0142616Y0156736D01*
X0142856Y0156155D01*
X0147487Y0160785D01*
X0146244Y0162028D01*
X0146244Y0165838D01*
X0147464Y0167058D01*
X0144994Y0169528D01*
X0144994Y0173338D01*
X0147689Y0176033D01*
X0151500Y0176033D01*
X0154194Y0173338D01*
X0154194Y0169528D01*
X0152975Y0168308D01*
X0155219Y0166063D01*
X0157689Y0168533D01*
X0161500Y0168533D01*
X0163000Y0167033D01*
X0164939Y0167033D01*
X0166439Y0168533D01*
X0168560Y0168533D01*
X0169088Y0169061D01*
X0170228Y0169533D01*
X0172944Y0169533D01*
X0172944Y0173461D01*
X0173394Y0173911D01*
X0172694Y0174611D01*
X0172694Y0176433D01*
X0177094Y0176433D01*
X0177094Y0176433D01*
X0172694Y0176433D01*
X0172694Y0178256D01*
X0172872Y0178433D01*
X0156388Y0178433D01*
X0155358Y0178859D01*
X0152758Y0181459D01*
X0151971Y0182247D01*
X0151544Y0183276D01*
X0151544Y0186878D01*
X0151500Y0186833D01*
X0150204Y0186833D01*
X0147431Y0184059D01*
X0146401Y0183633D01*
X0133894Y0183633D01*
X0133894Y0183105D01*
X0133621Y0182831D01*
X0133944Y0182050D01*
X0133944Y0180816D01*
X0133894Y0180696D01*
X0133894Y0177617D01*
X0136584Y0174928D01*
X0137689Y0176033D01*
X0141500Y0176033D01*
X0144194Y0173338D01*
X0144194Y0169528D01*
X0141500Y0166833D01*
X0137689Y0166833D01*
X0136189Y0168333D01*
X0135078Y0168333D01*
X0133938Y0168805D01*
X0133066Y0169677D01*
X0133066Y0169677D01*
X0131010Y0171733D01*
X0128866Y0171733D01*
X0128616Y0171983D01*
X0128431Y0171933D01*
X0127095Y0171933D01*
X0127095Y0176333D01*
X0127094Y0176333D01*
X0127094Y0171933D01*
X0125758Y0171933D01*
X0125572Y0171983D01*
X0125323Y0171733D01*
X0121466Y0171733D01*
X0120294Y0172905D01*
X0120294Y0175473D01*
X0119635Y0176133D01*
X0117178Y0176133D01*
X0119744Y0173566D01*
X0119744Y0169300D01*
X0117597Y0167153D01*
X0118994Y0165756D01*
X0118994Y0163933D01*
X0114595Y0163933D01*
X0114595Y0159533D01*
X0116335Y0159533D01*
X0112321Y0155519D01*
X0111894Y0154490D01*
X0111894Y0147738D01*
X0110294Y0146138D01*
X0110294Y0149570D01*
X0109807Y0150746D01*
X0103907Y0156646D01*
X0102731Y0157133D01*
X0095367Y0157133D01*
X0095551Y0157317D01*
X0095958Y0157877D01*
X0096272Y0158494D01*
X0096486Y0159153D01*
X0096594Y0159837D01*
X0096594Y0160183D01*
X0089595Y0160183D01*
X0089595Y0160183D01*
X0096594Y0160183D01*
X0096594Y0160529D01*
X0096486Y0161213D01*
X0096272Y0161872D01*
X0095958Y0162489D01*
X0095551Y0163049D01*
X0095061Y0163539D01*
X0094752Y0163763D01*
X0094800Y0163783D01*
X0096094Y0165077D01*
X0096794Y0166768D01*
X0096794Y0168598D01*
X0096094Y0170289D01*
X0094800Y0171583D01*
X0093109Y0172283D01*
X0086079Y0172283D01*
X0084389Y0171583D01*
X0083095Y0170289D01*
X0082394Y0168598D01*
X0082394Y0166768D01*
X0083095Y0165077D01*
X0084389Y0163783D01*
X0084437Y0163763D01*
X0084128Y0163539D01*
X0083638Y0163049D01*
X0083231Y0162489D01*
X0082917Y0161872D01*
X0082703Y0161213D01*
X0082594Y0160529D01*
X0082594Y0160183D01*
X0082594Y0159837D01*
X0082703Y0159153D01*
X0082728Y0159075D01*
X0082657Y0159146D01*
X0082359Y0159270D01*
X0082090Y0159449D01*
X0081776Y0159511D01*
X0081481Y0159633D01*
X0081158Y0159633D01*
X0080841Y0159696D01*
X0080528Y0159633D01*
X0076162Y0159633D01*
X0076224Y0159754D01*
X0076436Y0160409D01*
X0076544Y0161089D01*
X0076544Y0161433D01*
X0069595Y0161433D01*
X0069595Y0161433D01*
X0076544Y0161433D01*
X0076544Y0161777D01*
X0076436Y0162458D01*
X0076224Y0163112D01*
X0075911Y0163726D01*
X0075506Y0164283D01*
X0075019Y0164770D01*
X0074462Y0165175D01*
X0073849Y0165487D01*
X0073194Y0165700D01*
X0072514Y0165808D01*
X0069595Y0165808D01*
X0069595Y0161433D01*
X0069594Y0161433D01*
X0062645Y0161433D01*
X0062645Y0161089D01*
X0062753Y0160409D01*
X0062965Y0159754D01*
X0063027Y0159633D01*
X0060920Y0159633D01*
X0057794Y0162759D01*
X0057794Y0198472D01*
X0058993Y0197273D01*
X0061399Y0197273D01*
X0061399Y0203223D01*
X0061599Y0203223D01*
X0061599Y0197273D01*
X0064005Y0197273D01*
X0067549Y0200817D01*
X0067549Y0203223D01*
X0061599Y0203223D01*
X0061599Y0203423D01*
X0061399Y0203423D01*
X0061399Y0209373D01*
X0058993Y0209373D01*
X0057794Y0208174D01*
X0057794Y0222608D01*
X0060920Y0225733D01*
X0059993Y0224807D02*
X0093161Y0224807D01*
X0091563Y0226405D02*
X0071592Y0226405D01*
X0073190Y0228004D02*
X0089964Y0228004D01*
X0088366Y0229602D02*
X0074789Y0229602D01*
X0076387Y0231201D02*
X0086767Y0231201D01*
X0085169Y0232799D02*
X0077986Y0232799D01*
X0079584Y0234398D02*
X0083570Y0234398D01*
X0082644Y0235996D02*
X0080294Y0235996D01*
X0080294Y0237595D02*
X0082644Y0237595D01*
X0082644Y0239193D02*
X0080294Y0239193D01*
X0080294Y0240792D02*
X0082644Y0240792D01*
X0081348Y0242390D02*
X0080294Y0242390D01*
X0080294Y0243989D02*
X0080709Y0243989D01*
X0080709Y0245587D02*
X0080294Y0245587D01*
X0080294Y0247186D02*
X0080709Y0247186D01*
X0093157Y0246433D02*
X0093244Y0246233D01*
X0093244Y0241683D01*
X0098494Y0236433D01*
X0099654Y0239233D02*
X0096044Y0242843D01*
X0096044Y0242850D01*
X0097036Y0243842D01*
X0097094Y0243983D01*
X0097153Y0243842D01*
X0098440Y0242555D01*
X0100122Y0241858D01*
X0101941Y0241858D01*
X0103623Y0242555D01*
X0104910Y0243842D01*
X0105092Y0244281D01*
X0105164Y0244140D01*
X0105569Y0243583D01*
X0106056Y0243096D01*
X0106613Y0242691D01*
X0107226Y0242379D01*
X0107881Y0242166D01*
X0108561Y0242058D01*
X0108905Y0242058D01*
X0108905Y0246433D01*
X0108906Y0246433D01*
X0108906Y0246433D01*
X0113280Y0246433D01*
X0113280Y0246089D01*
X0113173Y0245409D01*
X0112960Y0244754D01*
X0112647Y0244140D01*
X0112242Y0243583D01*
X0111755Y0243096D01*
X0111198Y0242691D01*
X0110585Y0242379D01*
X0109930Y0242166D01*
X0109250Y0242058D01*
X0108906Y0242058D01*
X0108906Y0246433D01*
X0113280Y0246433D01*
X0113280Y0246777D01*
X0113173Y0247458D01*
X0112960Y0248112D01*
X0112694Y0248633D01*
X0228585Y0248633D01*
X0231284Y0245933D01*
X0231024Y0245892D01*
X0230340Y0245670D01*
X0229698Y0245343D01*
X0229116Y0244920D01*
X0228607Y0244411D01*
X0228184Y0243829D01*
X0227858Y0243188D01*
X0227635Y0242504D01*
X0227523Y0241793D01*
X0227523Y0241519D01*
X0232009Y0241519D01*
X0232009Y0241347D01*
X0227523Y0241347D01*
X0227523Y0241073D01*
X0227635Y0240363D01*
X0227858Y0239678D01*
X0228085Y0239233D01*
X0226348Y0239233D01*
X0226866Y0240484D01*
X0226866Y0242382D01*
X0226140Y0244136D01*
X0224797Y0245478D01*
X0223044Y0246205D01*
X0221145Y0246205D01*
X0219392Y0245478D01*
X0218049Y0244136D01*
X0217323Y0242382D01*
X0217323Y0240484D01*
X0217841Y0239233D01*
X0216348Y0239233D01*
X0216866Y0240484D01*
X0216866Y0242382D01*
X0216140Y0244136D01*
X0214797Y0245478D01*
X0213044Y0246205D01*
X0211145Y0246205D01*
X0209392Y0245478D01*
X0208049Y0244136D01*
X0207323Y0242382D01*
X0207323Y0240484D01*
X0207841Y0239233D01*
X0206866Y0239233D01*
X0206866Y0245033D01*
X0205695Y0246205D01*
X0198494Y0246205D01*
X0197323Y0245033D01*
X0197323Y0239233D01*
X0176104Y0239233D01*
X0176331Y0239678D01*
X0176554Y0240363D01*
X0176666Y0241073D01*
X0176666Y0241347D01*
X0172180Y0241347D01*
X0172180Y0241519D01*
X0172009Y0241519D01*
X0172009Y0246005D01*
X0171735Y0246005D01*
X0171024Y0245892D01*
X0170340Y0245670D01*
X0169698Y0245343D01*
X0169116Y0244920D01*
X0168607Y0244411D01*
X0168184Y0243829D01*
X0167858Y0243188D01*
X0167635Y0242504D01*
X0167523Y0241793D01*
X0167523Y0241519D01*
X0172009Y0241519D01*
X0172009Y0241347D01*
X0167523Y0241347D01*
X0167523Y0241073D01*
X0167635Y0240363D01*
X0167858Y0239678D01*
X0168085Y0239233D01*
X0166348Y0239233D01*
X0166866Y0240484D01*
X0166866Y0242382D01*
X0166140Y0244136D01*
X0164797Y0245478D01*
X0163044Y0246205D01*
X0161145Y0246205D01*
X0159392Y0245478D01*
X0158049Y0244136D01*
X0157323Y0242382D01*
X0157323Y0240484D01*
X0157841Y0239233D01*
X0156348Y0239233D01*
X0156866Y0240484D01*
X0156866Y0242382D01*
X0156140Y0244136D01*
X0154797Y0245478D01*
X0153044Y0246205D01*
X0151145Y0246205D01*
X0149392Y0245478D01*
X0148049Y0244136D01*
X0147323Y0242382D01*
X0147323Y0240484D01*
X0147841Y0239233D01*
X0146866Y0239233D01*
X0146866Y0245033D01*
X0145695Y0246205D01*
X0138494Y0246205D01*
X0137323Y0245033D01*
X0137323Y0239233D01*
X0099654Y0239233D01*
X0098096Y0240792D02*
X0137323Y0240792D01*
X0137323Y0242390D02*
X0110607Y0242390D01*
X0108906Y0242390D02*
X0108905Y0242390D01*
X0108905Y0243989D02*
X0108906Y0243989D01*
X0108905Y0245587D02*
X0108906Y0245587D01*
X0107204Y0242390D02*
X0103226Y0242390D01*
X0104971Y0243989D02*
X0105274Y0243989D01*
X0098837Y0242390D02*
X0096497Y0242390D01*
X0106088Y0232799D02*
X0239269Y0232799D01*
X0240867Y0231201D02*
X0107687Y0231201D01*
X0109285Y0229602D02*
X0242466Y0229602D01*
X0244064Y0228004D02*
X0235307Y0228004D01*
X0236906Y0226405D02*
X0245663Y0226405D01*
X0247261Y0224807D02*
X0237244Y0224807D01*
X0237244Y0223208D02*
X0248860Y0223208D01*
X0250458Y0221610D02*
X0238378Y0221610D01*
X0239976Y0220011D02*
X0249167Y0220011D01*
X0247569Y0218412D02*
X0241073Y0218412D01*
X0241144Y0216814D02*
X0247494Y0216814D01*
X0247494Y0215215D02*
X0241144Y0215215D01*
X0241144Y0213617D02*
X0248405Y0213617D01*
X0247402Y0213312D02*
X0245480Y0213312D01*
X0245022Y0213189D01*
X0244611Y0212952D01*
X0244276Y0212617D01*
X0244039Y0212207D01*
X0243917Y0211749D01*
X0243917Y0208674D01*
X0247402Y0208674D01*
X0247402Y0213312D01*
X0247402Y0212018D02*
X0247574Y0212018D01*
X0247574Y0210420D02*
X0247402Y0210420D01*
X0247402Y0208821D02*
X0247574Y0208821D01*
X0243917Y0208821D02*
X0241144Y0208821D01*
X0241144Y0210420D02*
X0243917Y0210420D01*
X0243989Y0212018D02*
X0241144Y0212018D01*
X0241514Y0207223D02*
X0243917Y0207223D01*
X0243917Y0205624D02*
X0243113Y0205624D01*
X0242094Y0202683D02*
X0238344Y0206433D01*
X0238344Y0217683D01*
X0232094Y0223933D01*
X0222094Y0223933D01*
X0219511Y0220011D02*
X0214678Y0220011D01*
X0214000Y0219333D02*
X0216694Y0222028D01*
X0216694Y0225838D01*
X0214000Y0228533D01*
X0210189Y0228533D01*
X0207494Y0225838D01*
X0207494Y0222028D01*
X0210189Y0219333D01*
X0214000Y0219333D01*
X0216276Y0221610D02*
X0217913Y0221610D01*
X0217494Y0223208D02*
X0216694Y0223208D01*
X0216694Y0224807D02*
X0217494Y0224807D01*
X0218061Y0226405D02*
X0216128Y0226405D01*
X0214529Y0228004D02*
X0219660Y0228004D01*
X0224529Y0228004D02*
X0228882Y0228004D01*
X0228733Y0220011D02*
X0224678Y0220011D01*
X0233655Y0218412D02*
X0203994Y0218412D01*
X0203994Y0218933D02*
X0199595Y0218933D01*
X0199595Y0218933D01*
X0203994Y0218933D01*
X0203994Y0217111D01*
X0201417Y0214533D01*
X0199595Y0214533D01*
X0199595Y0218933D01*
X0199594Y0218933D01*
X0199594Y0218933D01*
X0195194Y0218933D01*
X0195194Y0220756D01*
X0197772Y0223333D01*
X0199594Y0223333D01*
X0199594Y0218933D01*
X0199595Y0218933D01*
X0199595Y0223333D01*
X0201417Y0223333D01*
X0203994Y0220756D01*
X0203994Y0218933D01*
X0203994Y0220011D02*
X0209511Y0220011D01*
X0207913Y0221610D02*
X0203141Y0221610D01*
X0201542Y0223208D02*
X0207494Y0223208D01*
X0207494Y0224807D02*
X0189194Y0224807D01*
X0189279Y0223208D02*
X0197647Y0223208D01*
X0199594Y0223208D02*
X0199595Y0223208D01*
X0199594Y0221610D02*
X0199595Y0221610D01*
X0199594Y0220011D02*
X0199595Y0220011D01*
X0199594Y0218412D02*
X0199595Y0218412D01*
X0199594Y0216814D02*
X0199595Y0216814D01*
X0199594Y0215215D02*
X0199595Y0215215D01*
X0202099Y0215215D02*
X0235544Y0215215D01*
X0235544Y0213617D02*
X0196694Y0213617D01*
X0196694Y0215215D02*
X0197090Y0215215D01*
X0195194Y0218412D02*
X0194120Y0218412D01*
X0195194Y0220011D02*
X0192476Y0220011D01*
X0190878Y0221610D02*
X0196048Y0221610D01*
X0192094Y0216433D02*
X0192094Y0213933D01*
X0192094Y0216433D02*
X0184594Y0223933D01*
X0174594Y0223933D01*
X0172011Y0220011D02*
X0165456Y0220011D01*
X0167054Y0221610D02*
X0170413Y0221610D01*
X0169994Y0223208D02*
X0167244Y0223208D01*
X0167244Y0224807D02*
X0169994Y0224807D01*
X0170561Y0226405D02*
X0166906Y0226405D01*
X0165307Y0228004D02*
X0172160Y0228004D01*
X0177029Y0228004D02*
X0182160Y0228004D01*
X0187029Y0228004D02*
X0209660Y0228004D01*
X0208061Y0226405D02*
X0188628Y0226405D01*
X0182011Y0220011D02*
X0177178Y0220011D01*
X0158882Y0228004D02*
X0154529Y0228004D01*
X0149660Y0228004D02*
X0144529Y0228004D01*
X0146128Y0226405D02*
X0148061Y0226405D01*
X0147494Y0224807D02*
X0146694Y0224807D01*
X0146694Y0223208D02*
X0147494Y0223208D01*
X0144394Y0218412D02*
X0133994Y0218412D01*
X0133994Y0218933D02*
X0129595Y0218933D01*
X0129595Y0218933D01*
X0133994Y0218933D01*
X0133994Y0217111D01*
X0131417Y0214533D01*
X0129595Y0214533D01*
X0129595Y0218933D01*
X0129594Y0218933D01*
X0129594Y0218933D01*
X0125194Y0218933D01*
X0125194Y0220756D01*
X0127772Y0223333D01*
X0129594Y0223333D01*
X0129594Y0218933D01*
X0129595Y0218933D01*
X0129595Y0223333D01*
X0131417Y0223333D01*
X0133994Y0220756D01*
X0133994Y0218933D01*
X0133994Y0220011D02*
X0139511Y0220011D01*
X0137913Y0221610D02*
X0133141Y0221610D01*
X0131542Y0223208D02*
X0137494Y0223208D01*
X0137494Y0224807D02*
X0119194Y0224807D01*
X0119279Y0223208D02*
X0127647Y0223208D01*
X0129594Y0223208D02*
X0129595Y0223208D01*
X0129594Y0221610D02*
X0129595Y0221610D01*
X0129594Y0220011D02*
X0129595Y0220011D01*
X0129594Y0218412D02*
X0129595Y0218412D01*
X0129594Y0216814D02*
X0129595Y0216814D01*
X0129594Y0215215D02*
X0129595Y0215215D01*
X0132099Y0215215D02*
X0144394Y0215215D01*
X0144394Y0213617D02*
X0126694Y0213617D01*
X0126694Y0215215D02*
X0127090Y0215215D01*
X0125194Y0218412D02*
X0124120Y0218412D01*
X0125194Y0220011D02*
X0122476Y0220011D01*
X0120878Y0221610D02*
X0126048Y0221610D01*
X0122094Y0216433D02*
X0122094Y0213933D01*
X0122094Y0216433D02*
X0114594Y0223933D01*
X0118628Y0226405D02*
X0138061Y0226405D01*
X0139660Y0228004D02*
X0117029Y0228004D01*
X0112160Y0228004D02*
X0110884Y0228004D01*
X0099555Y0218412D02*
X0057794Y0218412D01*
X0057794Y0216814D02*
X0101154Y0216814D01*
X0102752Y0215215D02*
X0057794Y0215215D01*
X0057794Y0213617D02*
X0104351Y0213617D01*
X0105949Y0212018D02*
X0057794Y0212018D01*
X0057794Y0210420D02*
X0107548Y0210420D01*
X0109146Y0208821D02*
X0090439Y0208821D01*
X0092038Y0207223D02*
X0101662Y0207223D01*
X0102772Y0208333D02*
X0100194Y0205756D01*
X0100194Y0203933D01*
X0100194Y0202111D01*
X0102772Y0199533D01*
X0104594Y0199533D01*
X0104594Y0203933D01*
X0100194Y0203933D01*
X0104594Y0203933D01*
X0104594Y0203933D01*
X0104595Y0203933D01*
X0104595Y0203933D01*
X0108994Y0203933D01*
X0108994Y0202111D01*
X0106417Y0199533D01*
X0104595Y0199533D01*
X0104595Y0203933D01*
X0108994Y0203933D01*
X0108994Y0205756D01*
X0106417Y0208333D01*
X0104595Y0208333D01*
X0104595Y0203933D01*
X0104594Y0203933D01*
X0104594Y0208333D01*
X0102772Y0208333D01*
X0104594Y0207223D02*
X0104595Y0207223D01*
X0104594Y0205624D02*
X0104595Y0205624D01*
X0104594Y0204026D02*
X0104595Y0204026D01*
X0104594Y0202427D02*
X0104595Y0202427D01*
X0104594Y0200829D02*
X0104595Y0200829D01*
X0107713Y0200829D02*
X0111193Y0200829D01*
X0109994Y0202427D02*
X0108994Y0202427D01*
X0108994Y0204026D02*
X0109994Y0204026D01*
X0109994Y0205624D02*
X0108994Y0205624D01*
X0107527Y0207223D02*
X0110745Y0207223D01*
X0117996Y0200829D02*
X0120389Y0200829D01*
X0121987Y0199230D02*
X0100657Y0199230D01*
X0101476Y0200829D02*
X0099058Y0200829D01*
X0100194Y0202427D02*
X0097460Y0202427D01*
X0095861Y0204026D02*
X0100194Y0204026D01*
X0100194Y0205624D02*
X0093349Y0205624D01*
X0093244Y0202683D02*
X0087394Y0202683D01*
X0087099Y0203323D01*
X0093244Y0202683D02*
X0104294Y0191633D01*
X0104594Y0191433D01*
X0104594Y0186433D01*
X0112094Y0178933D01*
X0120794Y0178933D01*
X0123394Y0176333D01*
X0120294Y0175253D02*
X0118058Y0175253D01*
X0119657Y0173654D02*
X0120294Y0173654D01*
X0119744Y0172056D02*
X0121143Y0172056D01*
X0119744Y0170457D02*
X0132286Y0170457D01*
X0133885Y0168859D02*
X0119303Y0168859D01*
X0117705Y0167260D02*
X0137262Y0167260D01*
X0136536Y0165662D02*
X0136328Y0165662D01*
X0133529Y0165662D02*
X0133160Y0165662D01*
X0133160Y0164063D02*
X0133529Y0164063D01*
X0133529Y0162465D02*
X0133160Y0162465D01*
X0133160Y0161032D02*
X0133529Y0161032D01*
X0133529Y0156464D01*
X0135550Y0156464D01*
X0136008Y0156586D01*
X0136144Y0156665D01*
X0135594Y0155339D01*
X0135594Y0153827D01*
X0136173Y0152431D01*
X0137022Y0151581D01*
X0136451Y0151010D01*
X0136418Y0151043D01*
X0136008Y0151280D01*
X0135550Y0151402D01*
X0133529Y0151402D01*
X0133529Y0146834D01*
X0133160Y0146834D01*
X0133160Y0151402D01*
X0131139Y0151402D01*
X0130681Y0151280D01*
X0130271Y0151043D01*
X0130238Y0151010D01*
X0129645Y0151602D01*
X0129324Y0151602D01*
X0129418Y0151697D01*
X0129844Y0152726D01*
X0129844Y0156463D01*
X0130238Y0156856D01*
X0130271Y0156823D01*
X0130681Y0156586D01*
X0131139Y0156464D01*
X0133160Y0156464D01*
X0133160Y0161032D01*
X0133160Y0160866D02*
X0133529Y0160866D01*
X0133529Y0159268D02*
X0133160Y0159268D01*
X0133160Y0157669D02*
X0133529Y0157669D01*
X0135898Y0156071D02*
X0129844Y0156071D01*
X0129844Y0154472D02*
X0135594Y0154472D01*
X0135990Y0152874D02*
X0129844Y0152874D01*
X0129973Y0151275D02*
X0130673Y0151275D01*
X0133160Y0151275D02*
X0133529Y0151275D01*
X0133529Y0149677D02*
X0133160Y0149677D01*
X0133160Y0148078D02*
X0133529Y0148078D01*
X0133529Y0144881D02*
X0133160Y0144881D01*
X0133160Y0143282D02*
X0133529Y0143282D01*
X0127565Y0138487D02*
X0126594Y0138487D01*
X0114594Y0143933D02*
X0114694Y0144183D01*
X0114694Y0153933D01*
X0123794Y0163033D01*
X0120758Y0164063D02*
X0118994Y0164063D01*
X0118994Y0162465D02*
X0119266Y0162465D01*
X0118994Y0165662D02*
X0121898Y0165662D01*
X0127044Y0161083D02*
X0127044Y0159133D01*
X0127044Y0158483D02*
X0127439Y0161217D01*
X0127044Y0161083D01*
X0127044Y0158483D02*
X0127044Y0153283D01*
X0123794Y0150033D01*
X0116069Y0159268D02*
X0096504Y0159268D01*
X0096541Y0160866D02*
X0111439Y0160866D01*
X0110194Y0162465D02*
X0095970Y0162465D01*
X0095080Y0164063D02*
X0110194Y0164063D01*
X0110194Y0165662D02*
X0096336Y0165662D01*
X0096794Y0167260D02*
X0101767Y0167260D01*
X0102544Y0166483D02*
X0104594Y0166483D01*
X0104594Y0171433D01*
X0099644Y0171433D01*
X0099644Y0169383D01*
X0102544Y0166483D01*
X0104594Y0167260D02*
X0104595Y0167260D01*
X0104594Y0168859D02*
X0104595Y0168859D01*
X0104594Y0170457D02*
X0104595Y0170457D01*
X0104594Y0171433D02*
X0104595Y0171433D01*
X0104594Y0171433D01*
X0104594Y0171433D01*
X0099644Y0171433D01*
X0099644Y0173483D01*
X0102544Y0176383D01*
X0104594Y0176383D01*
X0104594Y0171433D01*
X0104594Y0172056D02*
X0104595Y0172056D01*
X0104594Y0173654D02*
X0104595Y0173654D01*
X0104594Y0175253D02*
X0104595Y0175253D01*
X0107775Y0175253D02*
X0111131Y0175253D01*
X0110217Y0176851D02*
X0057794Y0176851D01*
X0057794Y0175253D02*
X0064370Y0175253D01*
X0064428Y0175311D02*
X0063141Y0174024D01*
X0062445Y0172343D01*
X0062445Y0170523D01*
X0063141Y0168842D01*
X0064428Y0167555D01*
X0066110Y0166858D01*
X0073079Y0166858D01*
X0074761Y0167555D01*
X0076048Y0168842D01*
X0076744Y0170523D01*
X0076744Y0172343D01*
X0076048Y0174024D01*
X0074761Y0175311D01*
X0073079Y0176008D01*
X0066110Y0176008D01*
X0064428Y0175311D01*
X0062988Y0173654D02*
X0057794Y0173654D01*
X0057794Y0172056D02*
X0062445Y0172056D01*
X0062472Y0170457D02*
X0057794Y0170457D01*
X0057794Y0168859D02*
X0063134Y0168859D01*
X0065140Y0167260D02*
X0057794Y0167260D01*
X0057794Y0165662D02*
X0065877Y0165662D01*
X0065995Y0165700D02*
X0065340Y0165487D01*
X0064727Y0165175D01*
X0064170Y0164770D01*
X0063683Y0164283D01*
X0063278Y0163726D01*
X0062965Y0163112D01*
X0062753Y0162458D01*
X0062645Y0161777D01*
X0062645Y0161433D01*
X0069594Y0161433D01*
X0069594Y0161433D01*
X0069594Y0165808D01*
X0066675Y0165808D01*
X0065995Y0165700D01*
X0063523Y0164063D02*
X0057794Y0164063D01*
X0058088Y0162465D02*
X0062755Y0162465D01*
X0062680Y0160866D02*
X0059687Y0160866D01*
X0069594Y0162465D02*
X0069595Y0162465D01*
X0069594Y0164063D02*
X0069595Y0164063D01*
X0069594Y0165662D02*
X0069595Y0165662D01*
X0073312Y0165662D02*
X0082853Y0165662D01*
X0082394Y0167260D02*
X0074049Y0167260D01*
X0076055Y0168859D02*
X0082502Y0168859D01*
X0083263Y0170457D02*
X0076717Y0170457D01*
X0076744Y0172056D02*
X0085530Y0172056D01*
X0093658Y0172056D02*
X0099644Y0172056D01*
X0099644Y0170457D02*
X0095926Y0170457D01*
X0096687Y0168859D02*
X0100169Y0168859D01*
X0099815Y0173654D02*
X0076201Y0173654D01*
X0074819Y0175253D02*
X0101414Y0175253D01*
X0107020Y0180048D02*
X0057794Y0180048D01*
X0057794Y0178450D02*
X0108618Y0178450D01*
X0105421Y0181647D02*
X0057794Y0181647D01*
X0057794Y0183245D02*
X0103823Y0183245D01*
X0102224Y0184844D02*
X0057794Y0184844D01*
X0057794Y0186442D02*
X0101794Y0186442D01*
X0100704Y0188041D02*
X0057794Y0188041D01*
X0057794Y0189639D02*
X0099444Y0189639D01*
X0099444Y0191238D02*
X0057794Y0191238D01*
X0057794Y0192836D02*
X0099131Y0192836D01*
X0097533Y0194435D02*
X0057794Y0194435D01*
X0057794Y0196033D02*
X0095934Y0196033D01*
X0094336Y0197632D02*
X0090247Y0197632D01*
X0091846Y0199230D02*
X0092737Y0199230D01*
X0083951Y0197632D02*
X0064364Y0197632D01*
X0065963Y0199230D02*
X0082353Y0199230D01*
X0080849Y0200829D02*
X0067549Y0200829D01*
X0067549Y0202427D02*
X0080849Y0202427D01*
X0080849Y0204026D02*
X0067549Y0204026D01*
X0067549Y0203423D02*
X0067549Y0205829D01*
X0064005Y0209373D01*
X0061599Y0209373D01*
X0061599Y0203423D01*
X0067549Y0203423D01*
X0067549Y0205624D02*
X0080849Y0205624D01*
X0082160Y0207223D02*
X0066155Y0207223D01*
X0064557Y0208821D02*
X0083759Y0208821D01*
X0096358Y0221610D02*
X0057794Y0221610D01*
X0057794Y0220011D02*
X0097957Y0220011D01*
X0094760Y0223208D02*
X0058395Y0223208D01*
X0058442Y0208821D02*
X0057794Y0208821D01*
X0061399Y0208821D02*
X0061599Y0208821D01*
X0061599Y0207223D02*
X0061399Y0207223D01*
X0061399Y0205624D02*
X0061599Y0205624D01*
X0061599Y0204026D02*
X0061399Y0204026D01*
X0061399Y0202427D02*
X0061599Y0202427D01*
X0061599Y0200829D02*
X0061399Y0200829D01*
X0061399Y0199230D02*
X0061599Y0199230D01*
X0061599Y0197632D02*
X0061399Y0197632D01*
X0058634Y0197632D02*
X0057794Y0197632D01*
X0075666Y0164063D02*
X0084109Y0164063D01*
X0083219Y0162465D02*
X0076434Y0162465D01*
X0076509Y0160866D02*
X0082648Y0160866D01*
X0082594Y0160183D02*
X0089594Y0160183D01*
X0082594Y0160183D01*
X0082685Y0159268D02*
X0082363Y0159268D01*
X0089594Y0160183D02*
X0089594Y0160183D01*
X0095807Y0157669D02*
X0114471Y0157669D01*
X0112872Y0156071D02*
X0104482Y0156071D01*
X0106081Y0154472D02*
X0111894Y0154472D01*
X0111894Y0152874D02*
X0107680Y0152874D01*
X0109278Y0151275D02*
X0111894Y0151275D01*
X0111894Y0149677D02*
X0110250Y0149677D01*
X0110294Y0148078D02*
X0111894Y0148078D01*
X0110636Y0146479D02*
X0110294Y0146479D01*
X0103894Y0146479D02*
X0103061Y0146479D01*
X0103424Y0148078D02*
X0102275Y0148078D01*
X0101826Y0149677D02*
X0101200Y0149677D01*
X0103489Y0144881D02*
X0103894Y0144881D01*
X0103894Y0143282D02*
X0103657Y0143282D01*
X0103657Y0141684D02*
X0103894Y0141684D01*
X0103894Y0140085D02*
X0103282Y0140085D01*
X0102751Y0138487D02*
X0103894Y0138487D01*
X0102903Y0136888D02*
X0101828Y0136888D01*
X0101980Y0135290D02*
X0100427Y0135290D01*
X0101496Y0133691D02*
X0098260Y0133691D01*
X0084487Y0136888D02*
X0072333Y0136888D01*
X0066856Y0136888D02*
X0062333Y0136888D01*
X0055261Y0124100D02*
X0048894Y0124100D01*
X0048894Y0122502D02*
X0054644Y0122502D01*
X0054644Y0120903D02*
X0048894Y0120903D01*
X0048894Y0119305D02*
X0054722Y0119305D01*
X0056321Y0117706D02*
X0048894Y0117706D01*
X0107422Y0167260D02*
X0111484Y0167260D01*
X0109886Y0168859D02*
X0109020Y0168859D01*
X0109374Y0173654D02*
X0109532Y0173654D01*
X0111742Y0183245D02*
X0120244Y0183245D01*
X0120244Y0184844D02*
X0110144Y0184844D01*
X0108545Y0186442D02*
X0120244Y0186442D01*
X0120294Y0188041D02*
X0118203Y0188041D01*
X0119544Y0189639D02*
X0120294Y0189639D01*
X0119544Y0191238D02*
X0125308Y0191238D01*
X0126194Y0192836D02*
X0119544Y0192836D01*
X0118593Y0194435D02*
X0126194Y0194435D01*
X0125184Y0196033D02*
X0116995Y0196033D01*
X0114595Y0196033D02*
X0114594Y0196033D01*
X0114594Y0194435D02*
X0114595Y0194435D01*
X0114594Y0192836D02*
X0114595Y0192836D01*
X0114594Y0191238D02*
X0114595Y0191238D01*
X0114594Y0189639D02*
X0114595Y0189639D01*
X0114594Y0188041D02*
X0114595Y0188041D01*
X0110986Y0188041D02*
X0108485Y0188041D01*
X0108876Y0194435D02*
X0110596Y0194435D01*
X0112194Y0196033D02*
X0107277Y0196033D01*
X0102255Y0197632D02*
X0123586Y0197632D01*
X0128994Y0190983D02*
X0127694Y0189683D01*
X0127694Y0187083D01*
X0127094Y0186533D01*
X0130794Y0186533D02*
X0130894Y0186433D01*
X0145844Y0186433D01*
X0149594Y0190183D01*
X0149594Y0191433D01*
X0149144Y0191633D01*
X0144594Y0196183D01*
X0142094Y0203933D02*
X0137094Y0208933D01*
X0129594Y0208933D01*
X0133014Y0212018D02*
X0144394Y0212018D01*
X0144394Y0210420D02*
X0139567Y0210420D01*
X0141166Y0208821D02*
X0144394Y0208821D01*
X0144394Y0216814D02*
X0133698Y0216814D01*
X0146866Y0240792D02*
X0147323Y0240792D01*
X0147326Y0242390D02*
X0146866Y0242390D01*
X0146866Y0243989D02*
X0147988Y0243989D01*
X0149654Y0245587D02*
X0146312Y0245587D01*
X0154534Y0245587D02*
X0159654Y0245587D01*
X0157988Y0243989D02*
X0156201Y0243989D01*
X0156863Y0242390D02*
X0157326Y0242390D01*
X0157323Y0240792D02*
X0156866Y0240792D01*
X0164534Y0245587D02*
X0170177Y0245587D01*
X0172009Y0245587D02*
X0172180Y0245587D01*
X0172180Y0246005D02*
X0172180Y0241519D01*
X0176666Y0241519D01*
X0176666Y0241793D01*
X0176554Y0242504D01*
X0176331Y0243188D01*
X0176005Y0243829D01*
X0175582Y0244411D01*
X0175073Y0244920D01*
X0174491Y0245343D01*
X0173849Y0245670D01*
X0173165Y0245892D01*
X0172454Y0246005D01*
X0172180Y0246005D01*
X0174011Y0245587D02*
X0197877Y0245587D01*
X0197323Y0243989D02*
X0175889Y0243989D01*
X0176572Y0242390D02*
X0197323Y0242390D01*
X0197323Y0240792D02*
X0176622Y0240792D01*
X0172180Y0242390D02*
X0172009Y0242390D01*
X0172009Y0243989D02*
X0172180Y0243989D01*
X0168300Y0243989D02*
X0166201Y0243989D01*
X0166863Y0242390D02*
X0167617Y0242390D01*
X0167567Y0240792D02*
X0166866Y0240792D01*
X0137877Y0245587D02*
X0113201Y0245587D01*
X0113216Y0247186D02*
X0230032Y0247186D01*
X0230177Y0245587D02*
X0224534Y0245587D01*
X0226201Y0243989D02*
X0228300Y0243989D01*
X0227617Y0242390D02*
X0226863Y0242390D01*
X0226866Y0240792D02*
X0227567Y0240792D01*
X0219654Y0245587D02*
X0214534Y0245587D01*
X0216201Y0243989D02*
X0217988Y0243989D01*
X0217326Y0242390D02*
X0216863Y0242390D01*
X0216866Y0240792D02*
X0217323Y0240792D01*
X0209654Y0245587D02*
X0206312Y0245587D01*
X0206866Y0243989D02*
X0207988Y0243989D01*
X0207326Y0242390D02*
X0206866Y0242390D01*
X0206866Y0240792D02*
X0207323Y0240792D01*
X0203698Y0216814D02*
X0235254Y0216814D01*
X0235544Y0212018D02*
X0203014Y0212018D01*
X0199594Y0208933D02*
X0207094Y0208933D01*
X0212094Y0203933D01*
X0215310Y0207223D02*
X0218879Y0207223D01*
X0217494Y0205624D02*
X0216694Y0205624D01*
X0216694Y0204026D02*
X0217494Y0204026D01*
X0221776Y0199230D02*
X0228386Y0199230D01*
X0228198Y0200829D02*
X0225496Y0200829D01*
X0226694Y0202427D02*
X0227144Y0202427D01*
X0227144Y0203933D02*
X0232094Y0203933D01*
X0232094Y0203933D01*
X0232094Y0208883D01*
X0230044Y0208883D01*
X0227144Y0205983D01*
X0227144Y0203933D01*
X0227144Y0204026D02*
X0226694Y0204026D01*
X0226694Y0205624D02*
X0227144Y0205624D01*
X0228384Y0207223D02*
X0225310Y0207223D01*
X0229982Y0208821D02*
X0211166Y0208821D01*
X0209567Y0210420D02*
X0235544Y0210420D01*
X0235544Y0208821D02*
X0234206Y0208821D01*
X0232095Y0208821D02*
X0232094Y0208821D01*
X0232094Y0207223D02*
X0232095Y0207223D01*
X0232094Y0205624D02*
X0232095Y0205624D01*
X0232094Y0204026D02*
X0232095Y0204026D01*
X0227494Y0197632D02*
X0220177Y0197632D01*
X0218195Y0196033D02*
X0227494Y0196033D01*
X0242094Y0202683D02*
X0249594Y0202683D01*
X0253394Y0206482D01*
X0253394Y0208589D01*
X0264844Y0208533D02*
X0265205Y0208589D01*
X0270694Y0209183D02*
X0270694Y0212433D01*
X0270044Y0212433D01*
X0266794Y0215683D01*
X0266794Y0218283D01*
X0262244Y0222833D01*
X0257694Y0222833D01*
X0272094Y0223208D02*
X0272095Y0223208D01*
X0272094Y0221610D02*
X0272095Y0221610D01*
X0272094Y0220011D02*
X0272095Y0220011D01*
X0272094Y0224807D02*
X0272095Y0224807D01*
X0272094Y0226405D02*
X0272095Y0226405D01*
X0272094Y0228004D02*
X0272095Y0228004D01*
X0277844Y0225433D02*
X0288244Y0215033D01*
X0297693Y0204026D02*
X0298013Y0204026D01*
X0298013Y0202427D02*
X0276349Y0202427D01*
X0274750Y0200829D02*
X0298013Y0200829D01*
X0298013Y0199230D02*
X0273152Y0199230D01*
X0271553Y0197632D02*
X0298013Y0197632D01*
X0298013Y0196033D02*
X0269955Y0196033D01*
X0268356Y0194435D02*
X0298013Y0194435D01*
X0298013Y0192836D02*
X0266758Y0192836D01*
X0265159Y0191238D02*
X0298013Y0191238D01*
X0298013Y0189639D02*
X0263560Y0189639D01*
X0261962Y0188041D02*
X0298013Y0188041D01*
X0298013Y0186442D02*
X0260363Y0186442D01*
X0258765Y0184844D02*
X0298013Y0184844D01*
X0298013Y0183245D02*
X0257166Y0183245D01*
X0255568Y0181647D02*
X0298013Y0181647D01*
X0298013Y0180048D02*
X0253969Y0180048D01*
X0227889Y0178450D02*
X0227742Y0178450D01*
X0199895Y0173654D02*
X0199894Y0173654D01*
X0199894Y0172056D02*
X0199895Y0172056D01*
X0194385Y0181647D02*
X0189803Y0181647D01*
X0191402Y0183245D02*
X0192787Y0183245D01*
X0192805Y0189639D02*
X0191384Y0189639D01*
X0192914Y0191238D02*
X0189785Y0191238D01*
X0191431Y0192836D02*
X0180003Y0192836D01*
X0178783Y0191238D02*
X0184404Y0191238D01*
X0181602Y0194435D02*
X0189833Y0194435D01*
X0188234Y0196033D02*
X0181694Y0196033D01*
X0181694Y0197632D02*
X0186636Y0197632D01*
X0185037Y0199230D02*
X0180803Y0199230D01*
X0181193Y0200829D02*
X0179204Y0200829D01*
X0178994Y0202427D02*
X0179994Y0202427D01*
X0179994Y0204026D02*
X0178994Y0204026D01*
X0178994Y0205624D02*
X0179994Y0205624D01*
X0184594Y0203933D02*
X0184894Y0203333D01*
X0195944Y0192283D01*
X0174594Y0203933D02*
X0170194Y0203933D01*
X0174594Y0203933D01*
X0174594Y0203933D01*
X0171476Y0200829D02*
X0165991Y0200829D01*
X0167044Y0202427D02*
X0170194Y0202427D01*
X0170194Y0204026D02*
X0167044Y0204026D01*
X0167044Y0205624D02*
X0170194Y0205624D01*
X0166904Y0191238D02*
X0162285Y0191238D01*
X0163884Y0189639D02*
X0165305Y0189639D01*
X0152571Y0181647D02*
X0133944Y0181647D01*
X0133894Y0183245D02*
X0151557Y0183245D01*
X0151544Y0184844D02*
X0148215Y0184844D01*
X0149813Y0186442D02*
X0151544Y0186442D01*
X0154170Y0180048D02*
X0133894Y0180048D01*
X0133894Y0178450D02*
X0156347Y0178450D01*
X0152280Y0175253D02*
X0172694Y0175253D01*
X0172694Y0176851D02*
X0134660Y0176851D01*
X0136259Y0175253D02*
X0136909Y0175253D01*
X0142280Y0175253D02*
X0146909Y0175253D01*
X0145310Y0173654D02*
X0143879Y0173654D01*
X0144194Y0172056D02*
X0144994Y0172056D01*
X0144994Y0170457D02*
X0144194Y0170457D01*
X0143525Y0168859D02*
X0145664Y0168859D01*
X0147262Y0167260D02*
X0141927Y0167260D01*
X0141964Y0165662D02*
X0146244Y0165662D01*
X0146244Y0164063D02*
X0142628Y0164063D01*
X0142628Y0162465D02*
X0146244Y0162465D01*
X0147406Y0160866D02*
X0142628Y0160866D01*
X0142628Y0159268D02*
X0145969Y0159268D01*
X0144371Y0157669D02*
X0142628Y0157669D01*
X0147495Y0152874D02*
X0173752Y0152874D01*
X0172944Y0154472D02*
X0149093Y0154472D01*
X0150692Y0156071D02*
X0172944Y0156071D01*
X0172944Y0157669D02*
X0152290Y0157669D01*
X0153244Y0159268D02*
X0173082Y0159268D01*
X0172944Y0160866D02*
X0171783Y0160866D01*
X0172944Y0162465D02*
X0172944Y0162465D01*
X0168886Y0168859D02*
X0153525Y0168859D01*
X0154023Y0167260D02*
X0156416Y0167260D01*
X0154194Y0170457D02*
X0172944Y0170457D01*
X0172944Y0172056D02*
X0154194Y0172056D01*
X0153879Y0173654D02*
X0173137Y0173654D01*
X0165166Y0167260D02*
X0162773Y0167260D01*
X0156156Y0160866D02*
X0154283Y0160866D01*
X0150444Y0159783D02*
X0150444Y0163033D01*
X0150844Y0163933D01*
X0150444Y0163683D01*
X0150444Y0159783D02*
X0139394Y0148733D01*
X0139394Y0147433D01*
X0139250Y0146650D01*
X0139394Y0146783D01*
X0136716Y0151275D02*
X0136016Y0151275D01*
X0144298Y0149677D02*
X0171944Y0149677D01*
X0171944Y0148078D02*
X0170705Y0148078D01*
X0172153Y0151275D02*
X0145896Y0151275D01*
X0152922Y0148078D02*
X0157234Y0148078D01*
X0155636Y0146479D02*
X0154521Y0146479D01*
X0154818Y0141684D02*
X0155338Y0141684D01*
X0159594Y0143933D02*
X0159594Y0138933D01*
X0163553Y0146479D02*
X0164386Y0146479D01*
X0165984Y0148078D02*
X0161955Y0148078D01*
X0178591Y0132240D02*
X0191898Y0118933D01*
X0202094Y0118933D01*
X0197637Y0116108D02*
X0195470Y0116108D01*
X0196743Y0114509D02*
X0199235Y0114509D01*
X0197405Y0112911D02*
X0201688Y0112911D01*
X0200090Y0111312D02*
X0197717Y0111312D01*
X0197717Y0109714D02*
X0199062Y0109714D01*
X0198994Y0108115D02*
X0197344Y0108115D01*
X0196682Y0106517D02*
X0198994Y0106517D01*
X0198994Y0104918D02*
X0195323Y0104918D01*
X0192925Y0103320D02*
X0198994Y0103320D01*
X0197599Y0101721D02*
X0178816Y0101721D01*
X0178549Y0103320D02*
X0186697Y0103320D01*
X0184299Y0104918D02*
X0177384Y0104918D01*
X0173110Y0106517D02*
X0182940Y0106517D01*
X0182278Y0108115D02*
X0173110Y0108115D01*
X0172819Y0109714D02*
X0181906Y0109714D01*
X0181906Y0111312D02*
X0172156Y0111312D01*
X0170911Y0112911D02*
X0182217Y0112911D01*
X0182879Y0114509D02*
X0168789Y0114509D01*
X0170138Y0122502D02*
X0156787Y0122502D01*
X0156491Y0124100D02*
X0165862Y0124100D01*
X0166880Y0125699D02*
X0155544Y0125699D01*
X0152973Y0127297D02*
X0167270Y0127297D01*
X0130361Y0165662D02*
X0130153Y0165662D01*
X0127095Y0172056D02*
X0127094Y0172056D01*
X0127094Y0173654D02*
X0127095Y0173654D01*
X0127094Y0175253D02*
X0127095Y0175253D01*
X0114595Y0162465D02*
X0114594Y0162465D01*
X0114594Y0160866D02*
X0114595Y0160866D01*
X0112537Y0243989D02*
X0137323Y0243989D01*
X0252094Y0246433D02*
X0252494Y0246233D01*
X0252494Y0236483D01*
X0252094Y0236433D01*
X0270694Y0209183D02*
X0271110Y0208589D01*
X0279991Y0178450D02*
X0298013Y0178450D01*
X0298013Y0176851D02*
X0279991Y0176851D01*
X0279991Y0175253D02*
X0298013Y0175253D01*
X0298013Y0173654D02*
X0279991Y0173654D01*
X0279991Y0172056D02*
X0298013Y0172056D01*
X0298013Y0170457D02*
X0279991Y0170457D01*
X0279991Y0168859D02*
X0298013Y0168859D01*
X0298013Y0167260D02*
X0279991Y0167260D01*
X0279991Y0165662D02*
X0298013Y0165662D01*
X0298013Y0164063D02*
X0279991Y0164063D01*
X0279991Y0162465D02*
X0298013Y0162465D01*
X0298013Y0160866D02*
X0279991Y0160866D01*
X0279991Y0159268D02*
X0298013Y0159268D01*
X0298013Y0157669D02*
X0279991Y0157669D01*
X0279991Y0156071D02*
X0298013Y0156071D01*
X0267535Y0143282D02*
X0267249Y0143282D01*
X0258994Y0144183D02*
X0258994Y0138983D01*
X0259299Y0138569D01*
X0253794Y0138983D02*
X0253794Y0144183D01*
X0253794Y0138983D02*
X0253394Y0138569D01*
X0289744Y0117706D02*
X0290188Y0117706D01*
X0293129Y0108115D02*
X0294790Y0108115D01*
D37*
X0133344Y0145183D02*
X0133344Y0166433D01*
D38*
X0135694Y0171433D02*
X0139594Y0171433D01*
X0135694Y0171433D02*
X0130794Y0176333D01*
X0130794Y0181383D01*
X0130844Y0181433D01*
X0123344Y0181433D01*
X0123344Y0186483D01*
X0123394Y0186533D01*
X0152094Y0203933D02*
X0158344Y0210183D01*
X0187094Y0210183D01*
X0195844Y0201433D01*
X0207094Y0201433D01*
X0209594Y0198933D01*
X0217094Y0198933D01*
X0222094Y0203933D01*
X0232094Y0196433D02*
X0232094Y0193933D01*
X0224594Y0186433D01*
X0204594Y0193933D02*
X0204594Y0196433D01*
X0204594Y0193933D02*
X0197094Y0186433D01*
X0177094Y0193933D02*
X0177094Y0196433D01*
X0177094Y0193933D02*
X0169594Y0186433D01*
X0170844Y0166433D02*
X0168344Y0163933D01*
X0159594Y0163933D01*
X0170844Y0166433D02*
X0179294Y0166433D01*
X0179294Y0156433D02*
X0177094Y0154233D01*
X0177094Y0148933D01*
X0168344Y0143933D02*
X0168344Y0142683D01*
X0172094Y0138933D01*
X0207094Y0138933D01*
X0207094Y0125183D01*
X0209594Y0122683D01*
X0209594Y0116433D01*
X0202094Y0108933D01*
X0202094Y0098933D01*
X0200844Y0097683D01*
X0129594Y0097683D01*
X0128994Y0097383D01*
X0127694Y0098683D01*
X0127094Y0098933D01*
X0126394Y0099333D01*
X0091720Y0141433D02*
X0069594Y0141433D01*
X0069594Y0151433D01*
X0069594Y0141433D02*
X0059594Y0141433D01*
X0091720Y0141433D02*
X0093157Y0142870D01*
X0199894Y0166433D02*
X0212094Y0166433D01*
X0283344Y0126433D02*
X0287675Y0122102D01*
X0293344Y0122102D01*
X0294732Y0208589D02*
X0294732Y0216295D01*
X0292094Y0218933D01*
D39*
X0279144Y0213733D03*
X0266794Y0222833D03*
X0257694Y0222833D03*
X0232344Y0181883D03*
X0195944Y0192283D03*
X0253794Y0144183D03*
X0258994Y0144183D03*
X0129644Y0140933D03*
X0123794Y0163033D03*
M02*
