G75*
%MOIN*%
%OFA0B0*%
%FSLAX25Y25*%
%IPPOS*%
%LPD*%
%AMOC8*
5,1,8,0,0,1.08239X$1,22.5*
%
%ADD10C,0.00000*%
D10*
X0050244Y0034156D02*
X0300244Y0034156D01*
X0428197Y0034156D02*
X0065992Y0034156D01*
X0059693Y0049904D02*
X0059695Y0050062D01*
X0059701Y0050220D01*
X0059711Y0050378D01*
X0059725Y0050536D01*
X0059743Y0050693D01*
X0059764Y0050850D01*
X0059790Y0051006D01*
X0059820Y0051162D01*
X0059853Y0051317D01*
X0059891Y0051470D01*
X0059932Y0051623D01*
X0059977Y0051775D01*
X0060026Y0051926D01*
X0060079Y0052075D01*
X0060135Y0052223D01*
X0060195Y0052369D01*
X0060259Y0052514D01*
X0060327Y0052657D01*
X0060398Y0052799D01*
X0060472Y0052939D01*
X0060550Y0053076D01*
X0060632Y0053212D01*
X0060716Y0053346D01*
X0060805Y0053477D01*
X0060896Y0053606D01*
X0060991Y0053733D01*
X0061088Y0053858D01*
X0061189Y0053980D01*
X0061293Y0054099D01*
X0061400Y0054216D01*
X0061510Y0054330D01*
X0061623Y0054441D01*
X0061738Y0054550D01*
X0061856Y0054655D01*
X0061977Y0054757D01*
X0062100Y0054857D01*
X0062226Y0054953D01*
X0062354Y0055046D01*
X0062484Y0055136D01*
X0062617Y0055222D01*
X0062752Y0055306D01*
X0062888Y0055385D01*
X0063027Y0055462D01*
X0063168Y0055534D01*
X0063310Y0055604D01*
X0063454Y0055669D01*
X0063600Y0055731D01*
X0063747Y0055789D01*
X0063896Y0055844D01*
X0064046Y0055895D01*
X0064197Y0055942D01*
X0064349Y0055985D01*
X0064502Y0056024D01*
X0064657Y0056060D01*
X0064812Y0056091D01*
X0064968Y0056119D01*
X0065124Y0056143D01*
X0065281Y0056163D01*
X0065439Y0056179D01*
X0065596Y0056191D01*
X0065755Y0056199D01*
X0065913Y0056203D01*
X0066071Y0056203D01*
X0066229Y0056199D01*
X0066388Y0056191D01*
X0066545Y0056179D01*
X0066703Y0056163D01*
X0066860Y0056143D01*
X0067016Y0056119D01*
X0067172Y0056091D01*
X0067327Y0056060D01*
X0067482Y0056024D01*
X0067635Y0055985D01*
X0067787Y0055942D01*
X0067938Y0055895D01*
X0068088Y0055844D01*
X0068237Y0055789D01*
X0068384Y0055731D01*
X0068530Y0055669D01*
X0068674Y0055604D01*
X0068816Y0055534D01*
X0068957Y0055462D01*
X0069096Y0055385D01*
X0069232Y0055306D01*
X0069367Y0055222D01*
X0069500Y0055136D01*
X0069630Y0055046D01*
X0069758Y0054953D01*
X0069884Y0054857D01*
X0070007Y0054757D01*
X0070128Y0054655D01*
X0070246Y0054550D01*
X0070361Y0054441D01*
X0070474Y0054330D01*
X0070584Y0054216D01*
X0070691Y0054099D01*
X0070795Y0053980D01*
X0070896Y0053858D01*
X0070993Y0053733D01*
X0071088Y0053606D01*
X0071179Y0053477D01*
X0071268Y0053346D01*
X0071352Y0053212D01*
X0071434Y0053076D01*
X0071512Y0052939D01*
X0071586Y0052799D01*
X0071657Y0052657D01*
X0071725Y0052514D01*
X0071789Y0052369D01*
X0071849Y0052223D01*
X0071905Y0052075D01*
X0071958Y0051926D01*
X0072007Y0051775D01*
X0072052Y0051623D01*
X0072093Y0051470D01*
X0072131Y0051317D01*
X0072164Y0051162D01*
X0072194Y0051006D01*
X0072220Y0050850D01*
X0072241Y0050693D01*
X0072259Y0050536D01*
X0072273Y0050378D01*
X0072283Y0050220D01*
X0072289Y0050062D01*
X0072291Y0049904D01*
X0072289Y0049746D01*
X0072283Y0049588D01*
X0072273Y0049430D01*
X0072259Y0049272D01*
X0072241Y0049115D01*
X0072220Y0048958D01*
X0072194Y0048802D01*
X0072164Y0048646D01*
X0072131Y0048491D01*
X0072093Y0048338D01*
X0072052Y0048185D01*
X0072007Y0048033D01*
X0071958Y0047882D01*
X0071905Y0047733D01*
X0071849Y0047585D01*
X0071789Y0047439D01*
X0071725Y0047294D01*
X0071657Y0047151D01*
X0071586Y0047009D01*
X0071512Y0046869D01*
X0071434Y0046732D01*
X0071352Y0046596D01*
X0071268Y0046462D01*
X0071179Y0046331D01*
X0071088Y0046202D01*
X0070993Y0046075D01*
X0070896Y0045950D01*
X0070795Y0045828D01*
X0070691Y0045709D01*
X0070584Y0045592D01*
X0070474Y0045478D01*
X0070361Y0045367D01*
X0070246Y0045258D01*
X0070128Y0045153D01*
X0070007Y0045051D01*
X0069884Y0044951D01*
X0069758Y0044855D01*
X0069630Y0044762D01*
X0069500Y0044672D01*
X0069367Y0044586D01*
X0069232Y0044502D01*
X0069096Y0044423D01*
X0068957Y0044346D01*
X0068816Y0044274D01*
X0068674Y0044204D01*
X0068530Y0044139D01*
X0068384Y0044077D01*
X0068237Y0044019D01*
X0068088Y0043964D01*
X0067938Y0043913D01*
X0067787Y0043866D01*
X0067635Y0043823D01*
X0067482Y0043784D01*
X0067327Y0043748D01*
X0067172Y0043717D01*
X0067016Y0043689D01*
X0066860Y0043665D01*
X0066703Y0043645D01*
X0066545Y0043629D01*
X0066388Y0043617D01*
X0066229Y0043609D01*
X0066071Y0043605D01*
X0065913Y0043605D01*
X0065755Y0043609D01*
X0065596Y0043617D01*
X0065439Y0043629D01*
X0065281Y0043645D01*
X0065124Y0043665D01*
X0064968Y0043689D01*
X0064812Y0043717D01*
X0064657Y0043748D01*
X0064502Y0043784D01*
X0064349Y0043823D01*
X0064197Y0043866D01*
X0064046Y0043913D01*
X0063896Y0043964D01*
X0063747Y0044019D01*
X0063600Y0044077D01*
X0063454Y0044139D01*
X0063310Y0044204D01*
X0063168Y0044274D01*
X0063027Y0044346D01*
X0062888Y0044423D01*
X0062752Y0044502D01*
X0062617Y0044586D01*
X0062484Y0044672D01*
X0062354Y0044762D01*
X0062226Y0044855D01*
X0062100Y0044951D01*
X0061977Y0045051D01*
X0061856Y0045153D01*
X0061738Y0045258D01*
X0061623Y0045367D01*
X0061510Y0045478D01*
X0061400Y0045592D01*
X0061293Y0045709D01*
X0061189Y0045828D01*
X0061088Y0045950D01*
X0060991Y0046075D01*
X0060896Y0046202D01*
X0060805Y0046331D01*
X0060716Y0046462D01*
X0060632Y0046596D01*
X0060550Y0046732D01*
X0060472Y0046869D01*
X0060398Y0047009D01*
X0060327Y0047151D01*
X0060259Y0047294D01*
X0060195Y0047439D01*
X0060135Y0047585D01*
X0060079Y0047733D01*
X0060026Y0047882D01*
X0059977Y0048033D01*
X0059932Y0048185D01*
X0059891Y0048338D01*
X0059853Y0048491D01*
X0059820Y0048646D01*
X0059790Y0048802D01*
X0059764Y0048958D01*
X0059743Y0049115D01*
X0059725Y0049272D01*
X0059711Y0049430D01*
X0059701Y0049588D01*
X0059695Y0049746D01*
X0059693Y0049904D01*
X0050244Y0049904D02*
X0050249Y0049523D01*
X0050262Y0049143D01*
X0050285Y0048763D01*
X0050318Y0048384D01*
X0050359Y0048006D01*
X0050409Y0047629D01*
X0050469Y0047253D01*
X0050537Y0046878D01*
X0050615Y0046506D01*
X0050702Y0046135D01*
X0050797Y0045767D01*
X0050902Y0045401D01*
X0051015Y0045038D01*
X0051137Y0044677D01*
X0051267Y0044320D01*
X0051407Y0043966D01*
X0051554Y0043615D01*
X0051711Y0043268D01*
X0051875Y0042925D01*
X0052048Y0042586D01*
X0052229Y0042251D01*
X0052418Y0041920D01*
X0052615Y0041595D01*
X0052819Y0041274D01*
X0053032Y0040958D01*
X0053252Y0040648D01*
X0053479Y0040342D01*
X0053714Y0040043D01*
X0053956Y0039749D01*
X0054204Y0039461D01*
X0054460Y0039179D01*
X0054723Y0038904D01*
X0054992Y0038635D01*
X0055267Y0038372D01*
X0055549Y0038116D01*
X0055837Y0037868D01*
X0056131Y0037626D01*
X0056430Y0037391D01*
X0056736Y0037164D01*
X0057046Y0036944D01*
X0057362Y0036731D01*
X0057683Y0036527D01*
X0058008Y0036330D01*
X0058339Y0036141D01*
X0058674Y0035960D01*
X0059013Y0035787D01*
X0059356Y0035623D01*
X0059703Y0035466D01*
X0060054Y0035319D01*
X0060408Y0035179D01*
X0060765Y0035049D01*
X0061126Y0034927D01*
X0061489Y0034814D01*
X0061855Y0034709D01*
X0062223Y0034614D01*
X0062594Y0034527D01*
X0062966Y0034449D01*
X0063341Y0034381D01*
X0063717Y0034321D01*
X0064094Y0034271D01*
X0064472Y0034230D01*
X0064851Y0034197D01*
X0065231Y0034174D01*
X0065611Y0034161D01*
X0065992Y0034156D01*
X0050244Y0049904D02*
X0050244Y0215259D01*
X0059693Y0215259D02*
X0059695Y0215417D01*
X0059701Y0215575D01*
X0059711Y0215733D01*
X0059725Y0215891D01*
X0059743Y0216048D01*
X0059764Y0216205D01*
X0059790Y0216361D01*
X0059820Y0216517D01*
X0059853Y0216672D01*
X0059891Y0216825D01*
X0059932Y0216978D01*
X0059977Y0217130D01*
X0060026Y0217281D01*
X0060079Y0217430D01*
X0060135Y0217578D01*
X0060195Y0217724D01*
X0060259Y0217869D01*
X0060327Y0218012D01*
X0060398Y0218154D01*
X0060472Y0218294D01*
X0060550Y0218431D01*
X0060632Y0218567D01*
X0060716Y0218701D01*
X0060805Y0218832D01*
X0060896Y0218961D01*
X0060991Y0219088D01*
X0061088Y0219213D01*
X0061189Y0219335D01*
X0061293Y0219454D01*
X0061400Y0219571D01*
X0061510Y0219685D01*
X0061623Y0219796D01*
X0061738Y0219905D01*
X0061856Y0220010D01*
X0061977Y0220112D01*
X0062100Y0220212D01*
X0062226Y0220308D01*
X0062354Y0220401D01*
X0062484Y0220491D01*
X0062617Y0220577D01*
X0062752Y0220661D01*
X0062888Y0220740D01*
X0063027Y0220817D01*
X0063168Y0220889D01*
X0063310Y0220959D01*
X0063454Y0221024D01*
X0063600Y0221086D01*
X0063747Y0221144D01*
X0063896Y0221199D01*
X0064046Y0221250D01*
X0064197Y0221297D01*
X0064349Y0221340D01*
X0064502Y0221379D01*
X0064657Y0221415D01*
X0064812Y0221446D01*
X0064968Y0221474D01*
X0065124Y0221498D01*
X0065281Y0221518D01*
X0065439Y0221534D01*
X0065596Y0221546D01*
X0065755Y0221554D01*
X0065913Y0221558D01*
X0066071Y0221558D01*
X0066229Y0221554D01*
X0066388Y0221546D01*
X0066545Y0221534D01*
X0066703Y0221518D01*
X0066860Y0221498D01*
X0067016Y0221474D01*
X0067172Y0221446D01*
X0067327Y0221415D01*
X0067482Y0221379D01*
X0067635Y0221340D01*
X0067787Y0221297D01*
X0067938Y0221250D01*
X0068088Y0221199D01*
X0068237Y0221144D01*
X0068384Y0221086D01*
X0068530Y0221024D01*
X0068674Y0220959D01*
X0068816Y0220889D01*
X0068957Y0220817D01*
X0069096Y0220740D01*
X0069232Y0220661D01*
X0069367Y0220577D01*
X0069500Y0220491D01*
X0069630Y0220401D01*
X0069758Y0220308D01*
X0069884Y0220212D01*
X0070007Y0220112D01*
X0070128Y0220010D01*
X0070246Y0219905D01*
X0070361Y0219796D01*
X0070474Y0219685D01*
X0070584Y0219571D01*
X0070691Y0219454D01*
X0070795Y0219335D01*
X0070896Y0219213D01*
X0070993Y0219088D01*
X0071088Y0218961D01*
X0071179Y0218832D01*
X0071268Y0218701D01*
X0071352Y0218567D01*
X0071434Y0218431D01*
X0071512Y0218294D01*
X0071586Y0218154D01*
X0071657Y0218012D01*
X0071725Y0217869D01*
X0071789Y0217724D01*
X0071849Y0217578D01*
X0071905Y0217430D01*
X0071958Y0217281D01*
X0072007Y0217130D01*
X0072052Y0216978D01*
X0072093Y0216825D01*
X0072131Y0216672D01*
X0072164Y0216517D01*
X0072194Y0216361D01*
X0072220Y0216205D01*
X0072241Y0216048D01*
X0072259Y0215891D01*
X0072273Y0215733D01*
X0072283Y0215575D01*
X0072289Y0215417D01*
X0072291Y0215259D01*
X0072289Y0215101D01*
X0072283Y0214943D01*
X0072273Y0214785D01*
X0072259Y0214627D01*
X0072241Y0214470D01*
X0072220Y0214313D01*
X0072194Y0214157D01*
X0072164Y0214001D01*
X0072131Y0213846D01*
X0072093Y0213693D01*
X0072052Y0213540D01*
X0072007Y0213388D01*
X0071958Y0213237D01*
X0071905Y0213088D01*
X0071849Y0212940D01*
X0071789Y0212794D01*
X0071725Y0212649D01*
X0071657Y0212506D01*
X0071586Y0212364D01*
X0071512Y0212224D01*
X0071434Y0212087D01*
X0071352Y0211951D01*
X0071268Y0211817D01*
X0071179Y0211686D01*
X0071088Y0211557D01*
X0070993Y0211430D01*
X0070896Y0211305D01*
X0070795Y0211183D01*
X0070691Y0211064D01*
X0070584Y0210947D01*
X0070474Y0210833D01*
X0070361Y0210722D01*
X0070246Y0210613D01*
X0070128Y0210508D01*
X0070007Y0210406D01*
X0069884Y0210306D01*
X0069758Y0210210D01*
X0069630Y0210117D01*
X0069500Y0210027D01*
X0069367Y0209941D01*
X0069232Y0209857D01*
X0069096Y0209778D01*
X0068957Y0209701D01*
X0068816Y0209629D01*
X0068674Y0209559D01*
X0068530Y0209494D01*
X0068384Y0209432D01*
X0068237Y0209374D01*
X0068088Y0209319D01*
X0067938Y0209268D01*
X0067787Y0209221D01*
X0067635Y0209178D01*
X0067482Y0209139D01*
X0067327Y0209103D01*
X0067172Y0209072D01*
X0067016Y0209044D01*
X0066860Y0209020D01*
X0066703Y0209000D01*
X0066545Y0208984D01*
X0066388Y0208972D01*
X0066229Y0208964D01*
X0066071Y0208960D01*
X0065913Y0208960D01*
X0065755Y0208964D01*
X0065596Y0208972D01*
X0065439Y0208984D01*
X0065281Y0209000D01*
X0065124Y0209020D01*
X0064968Y0209044D01*
X0064812Y0209072D01*
X0064657Y0209103D01*
X0064502Y0209139D01*
X0064349Y0209178D01*
X0064197Y0209221D01*
X0064046Y0209268D01*
X0063896Y0209319D01*
X0063747Y0209374D01*
X0063600Y0209432D01*
X0063454Y0209494D01*
X0063310Y0209559D01*
X0063168Y0209629D01*
X0063027Y0209701D01*
X0062888Y0209778D01*
X0062752Y0209857D01*
X0062617Y0209941D01*
X0062484Y0210027D01*
X0062354Y0210117D01*
X0062226Y0210210D01*
X0062100Y0210306D01*
X0061977Y0210406D01*
X0061856Y0210508D01*
X0061738Y0210613D01*
X0061623Y0210722D01*
X0061510Y0210833D01*
X0061400Y0210947D01*
X0061293Y0211064D01*
X0061189Y0211183D01*
X0061088Y0211305D01*
X0060991Y0211430D01*
X0060896Y0211557D01*
X0060805Y0211686D01*
X0060716Y0211817D01*
X0060632Y0211951D01*
X0060550Y0212087D01*
X0060472Y0212224D01*
X0060398Y0212364D01*
X0060327Y0212506D01*
X0060259Y0212649D01*
X0060195Y0212794D01*
X0060135Y0212940D01*
X0060079Y0213088D01*
X0060026Y0213237D01*
X0059977Y0213388D01*
X0059932Y0213540D01*
X0059891Y0213693D01*
X0059853Y0213846D01*
X0059820Y0214001D01*
X0059790Y0214157D01*
X0059764Y0214313D01*
X0059743Y0214470D01*
X0059725Y0214627D01*
X0059711Y0214785D01*
X0059701Y0214943D01*
X0059695Y0215101D01*
X0059693Y0215259D01*
X0050244Y0215259D02*
X0050249Y0215640D01*
X0050262Y0216020D01*
X0050285Y0216400D01*
X0050318Y0216779D01*
X0050359Y0217157D01*
X0050409Y0217534D01*
X0050469Y0217910D01*
X0050537Y0218285D01*
X0050615Y0218657D01*
X0050702Y0219028D01*
X0050797Y0219396D01*
X0050902Y0219762D01*
X0051015Y0220125D01*
X0051137Y0220486D01*
X0051267Y0220843D01*
X0051407Y0221197D01*
X0051554Y0221548D01*
X0051711Y0221895D01*
X0051875Y0222238D01*
X0052048Y0222577D01*
X0052229Y0222912D01*
X0052418Y0223243D01*
X0052615Y0223568D01*
X0052819Y0223889D01*
X0053032Y0224205D01*
X0053252Y0224515D01*
X0053479Y0224821D01*
X0053714Y0225120D01*
X0053956Y0225414D01*
X0054204Y0225702D01*
X0054460Y0225984D01*
X0054723Y0226259D01*
X0054992Y0226528D01*
X0055267Y0226791D01*
X0055549Y0227047D01*
X0055837Y0227295D01*
X0056131Y0227537D01*
X0056430Y0227772D01*
X0056736Y0227999D01*
X0057046Y0228219D01*
X0057362Y0228432D01*
X0057683Y0228636D01*
X0058008Y0228833D01*
X0058339Y0229022D01*
X0058674Y0229203D01*
X0059013Y0229376D01*
X0059356Y0229540D01*
X0059703Y0229697D01*
X0060054Y0229844D01*
X0060408Y0229984D01*
X0060765Y0230114D01*
X0061126Y0230236D01*
X0061489Y0230349D01*
X0061855Y0230454D01*
X0062223Y0230549D01*
X0062594Y0230636D01*
X0062966Y0230714D01*
X0063341Y0230782D01*
X0063717Y0230842D01*
X0064094Y0230892D01*
X0064472Y0230933D01*
X0064851Y0230966D01*
X0065231Y0230989D01*
X0065611Y0231002D01*
X0065992Y0231007D01*
X0428197Y0231007D01*
X0421898Y0215259D02*
X0421900Y0215417D01*
X0421906Y0215575D01*
X0421916Y0215733D01*
X0421930Y0215891D01*
X0421948Y0216048D01*
X0421969Y0216205D01*
X0421995Y0216361D01*
X0422025Y0216517D01*
X0422058Y0216672D01*
X0422096Y0216825D01*
X0422137Y0216978D01*
X0422182Y0217130D01*
X0422231Y0217281D01*
X0422284Y0217430D01*
X0422340Y0217578D01*
X0422400Y0217724D01*
X0422464Y0217869D01*
X0422532Y0218012D01*
X0422603Y0218154D01*
X0422677Y0218294D01*
X0422755Y0218431D01*
X0422837Y0218567D01*
X0422921Y0218701D01*
X0423010Y0218832D01*
X0423101Y0218961D01*
X0423196Y0219088D01*
X0423293Y0219213D01*
X0423394Y0219335D01*
X0423498Y0219454D01*
X0423605Y0219571D01*
X0423715Y0219685D01*
X0423828Y0219796D01*
X0423943Y0219905D01*
X0424061Y0220010D01*
X0424182Y0220112D01*
X0424305Y0220212D01*
X0424431Y0220308D01*
X0424559Y0220401D01*
X0424689Y0220491D01*
X0424822Y0220577D01*
X0424957Y0220661D01*
X0425093Y0220740D01*
X0425232Y0220817D01*
X0425373Y0220889D01*
X0425515Y0220959D01*
X0425659Y0221024D01*
X0425805Y0221086D01*
X0425952Y0221144D01*
X0426101Y0221199D01*
X0426251Y0221250D01*
X0426402Y0221297D01*
X0426554Y0221340D01*
X0426707Y0221379D01*
X0426862Y0221415D01*
X0427017Y0221446D01*
X0427173Y0221474D01*
X0427329Y0221498D01*
X0427486Y0221518D01*
X0427644Y0221534D01*
X0427801Y0221546D01*
X0427960Y0221554D01*
X0428118Y0221558D01*
X0428276Y0221558D01*
X0428434Y0221554D01*
X0428593Y0221546D01*
X0428750Y0221534D01*
X0428908Y0221518D01*
X0429065Y0221498D01*
X0429221Y0221474D01*
X0429377Y0221446D01*
X0429532Y0221415D01*
X0429687Y0221379D01*
X0429840Y0221340D01*
X0429992Y0221297D01*
X0430143Y0221250D01*
X0430293Y0221199D01*
X0430442Y0221144D01*
X0430589Y0221086D01*
X0430735Y0221024D01*
X0430879Y0220959D01*
X0431021Y0220889D01*
X0431162Y0220817D01*
X0431301Y0220740D01*
X0431437Y0220661D01*
X0431572Y0220577D01*
X0431705Y0220491D01*
X0431835Y0220401D01*
X0431963Y0220308D01*
X0432089Y0220212D01*
X0432212Y0220112D01*
X0432333Y0220010D01*
X0432451Y0219905D01*
X0432566Y0219796D01*
X0432679Y0219685D01*
X0432789Y0219571D01*
X0432896Y0219454D01*
X0433000Y0219335D01*
X0433101Y0219213D01*
X0433198Y0219088D01*
X0433293Y0218961D01*
X0433384Y0218832D01*
X0433473Y0218701D01*
X0433557Y0218567D01*
X0433639Y0218431D01*
X0433717Y0218294D01*
X0433791Y0218154D01*
X0433862Y0218012D01*
X0433930Y0217869D01*
X0433994Y0217724D01*
X0434054Y0217578D01*
X0434110Y0217430D01*
X0434163Y0217281D01*
X0434212Y0217130D01*
X0434257Y0216978D01*
X0434298Y0216825D01*
X0434336Y0216672D01*
X0434369Y0216517D01*
X0434399Y0216361D01*
X0434425Y0216205D01*
X0434446Y0216048D01*
X0434464Y0215891D01*
X0434478Y0215733D01*
X0434488Y0215575D01*
X0434494Y0215417D01*
X0434496Y0215259D01*
X0434494Y0215101D01*
X0434488Y0214943D01*
X0434478Y0214785D01*
X0434464Y0214627D01*
X0434446Y0214470D01*
X0434425Y0214313D01*
X0434399Y0214157D01*
X0434369Y0214001D01*
X0434336Y0213846D01*
X0434298Y0213693D01*
X0434257Y0213540D01*
X0434212Y0213388D01*
X0434163Y0213237D01*
X0434110Y0213088D01*
X0434054Y0212940D01*
X0433994Y0212794D01*
X0433930Y0212649D01*
X0433862Y0212506D01*
X0433791Y0212364D01*
X0433717Y0212224D01*
X0433639Y0212087D01*
X0433557Y0211951D01*
X0433473Y0211817D01*
X0433384Y0211686D01*
X0433293Y0211557D01*
X0433198Y0211430D01*
X0433101Y0211305D01*
X0433000Y0211183D01*
X0432896Y0211064D01*
X0432789Y0210947D01*
X0432679Y0210833D01*
X0432566Y0210722D01*
X0432451Y0210613D01*
X0432333Y0210508D01*
X0432212Y0210406D01*
X0432089Y0210306D01*
X0431963Y0210210D01*
X0431835Y0210117D01*
X0431705Y0210027D01*
X0431572Y0209941D01*
X0431437Y0209857D01*
X0431301Y0209778D01*
X0431162Y0209701D01*
X0431021Y0209629D01*
X0430879Y0209559D01*
X0430735Y0209494D01*
X0430589Y0209432D01*
X0430442Y0209374D01*
X0430293Y0209319D01*
X0430143Y0209268D01*
X0429992Y0209221D01*
X0429840Y0209178D01*
X0429687Y0209139D01*
X0429532Y0209103D01*
X0429377Y0209072D01*
X0429221Y0209044D01*
X0429065Y0209020D01*
X0428908Y0209000D01*
X0428750Y0208984D01*
X0428593Y0208972D01*
X0428434Y0208964D01*
X0428276Y0208960D01*
X0428118Y0208960D01*
X0427960Y0208964D01*
X0427801Y0208972D01*
X0427644Y0208984D01*
X0427486Y0209000D01*
X0427329Y0209020D01*
X0427173Y0209044D01*
X0427017Y0209072D01*
X0426862Y0209103D01*
X0426707Y0209139D01*
X0426554Y0209178D01*
X0426402Y0209221D01*
X0426251Y0209268D01*
X0426101Y0209319D01*
X0425952Y0209374D01*
X0425805Y0209432D01*
X0425659Y0209494D01*
X0425515Y0209559D01*
X0425373Y0209629D01*
X0425232Y0209701D01*
X0425093Y0209778D01*
X0424957Y0209857D01*
X0424822Y0209941D01*
X0424689Y0210027D01*
X0424559Y0210117D01*
X0424431Y0210210D01*
X0424305Y0210306D01*
X0424182Y0210406D01*
X0424061Y0210508D01*
X0423943Y0210613D01*
X0423828Y0210722D01*
X0423715Y0210833D01*
X0423605Y0210947D01*
X0423498Y0211064D01*
X0423394Y0211183D01*
X0423293Y0211305D01*
X0423196Y0211430D01*
X0423101Y0211557D01*
X0423010Y0211686D01*
X0422921Y0211817D01*
X0422837Y0211951D01*
X0422755Y0212087D01*
X0422677Y0212224D01*
X0422603Y0212364D01*
X0422532Y0212506D01*
X0422464Y0212649D01*
X0422400Y0212794D01*
X0422340Y0212940D01*
X0422284Y0213088D01*
X0422231Y0213237D01*
X0422182Y0213388D01*
X0422137Y0213540D01*
X0422096Y0213693D01*
X0422058Y0213846D01*
X0422025Y0214001D01*
X0421995Y0214157D01*
X0421969Y0214313D01*
X0421948Y0214470D01*
X0421930Y0214627D01*
X0421916Y0214785D01*
X0421906Y0214943D01*
X0421900Y0215101D01*
X0421898Y0215259D01*
X0428197Y0231007D02*
X0428578Y0231002D01*
X0428958Y0230989D01*
X0429338Y0230966D01*
X0429717Y0230933D01*
X0430095Y0230892D01*
X0430472Y0230842D01*
X0430848Y0230782D01*
X0431223Y0230714D01*
X0431595Y0230636D01*
X0431966Y0230549D01*
X0432334Y0230454D01*
X0432700Y0230349D01*
X0433063Y0230236D01*
X0433424Y0230114D01*
X0433781Y0229984D01*
X0434135Y0229844D01*
X0434486Y0229697D01*
X0434833Y0229540D01*
X0435176Y0229376D01*
X0435515Y0229203D01*
X0435850Y0229022D01*
X0436181Y0228833D01*
X0436506Y0228636D01*
X0436827Y0228432D01*
X0437143Y0228219D01*
X0437453Y0227999D01*
X0437759Y0227772D01*
X0438058Y0227537D01*
X0438352Y0227295D01*
X0438640Y0227047D01*
X0438922Y0226791D01*
X0439197Y0226528D01*
X0439466Y0226259D01*
X0439729Y0225984D01*
X0439985Y0225702D01*
X0440233Y0225414D01*
X0440475Y0225120D01*
X0440710Y0224821D01*
X0440937Y0224515D01*
X0441157Y0224205D01*
X0441370Y0223889D01*
X0441574Y0223568D01*
X0441771Y0223243D01*
X0441960Y0222912D01*
X0442141Y0222577D01*
X0442314Y0222238D01*
X0442478Y0221895D01*
X0442635Y0221548D01*
X0442782Y0221197D01*
X0442922Y0220843D01*
X0443052Y0220486D01*
X0443174Y0220125D01*
X0443287Y0219762D01*
X0443392Y0219396D01*
X0443487Y0219028D01*
X0443574Y0218657D01*
X0443652Y0218285D01*
X0443720Y0217910D01*
X0443780Y0217534D01*
X0443830Y0217157D01*
X0443871Y0216779D01*
X0443904Y0216400D01*
X0443927Y0216020D01*
X0443940Y0215640D01*
X0443945Y0215259D01*
X0443945Y0049904D01*
X0421898Y0049904D02*
X0421900Y0050062D01*
X0421906Y0050220D01*
X0421916Y0050378D01*
X0421930Y0050536D01*
X0421948Y0050693D01*
X0421969Y0050850D01*
X0421995Y0051006D01*
X0422025Y0051162D01*
X0422058Y0051317D01*
X0422096Y0051470D01*
X0422137Y0051623D01*
X0422182Y0051775D01*
X0422231Y0051926D01*
X0422284Y0052075D01*
X0422340Y0052223D01*
X0422400Y0052369D01*
X0422464Y0052514D01*
X0422532Y0052657D01*
X0422603Y0052799D01*
X0422677Y0052939D01*
X0422755Y0053076D01*
X0422837Y0053212D01*
X0422921Y0053346D01*
X0423010Y0053477D01*
X0423101Y0053606D01*
X0423196Y0053733D01*
X0423293Y0053858D01*
X0423394Y0053980D01*
X0423498Y0054099D01*
X0423605Y0054216D01*
X0423715Y0054330D01*
X0423828Y0054441D01*
X0423943Y0054550D01*
X0424061Y0054655D01*
X0424182Y0054757D01*
X0424305Y0054857D01*
X0424431Y0054953D01*
X0424559Y0055046D01*
X0424689Y0055136D01*
X0424822Y0055222D01*
X0424957Y0055306D01*
X0425093Y0055385D01*
X0425232Y0055462D01*
X0425373Y0055534D01*
X0425515Y0055604D01*
X0425659Y0055669D01*
X0425805Y0055731D01*
X0425952Y0055789D01*
X0426101Y0055844D01*
X0426251Y0055895D01*
X0426402Y0055942D01*
X0426554Y0055985D01*
X0426707Y0056024D01*
X0426862Y0056060D01*
X0427017Y0056091D01*
X0427173Y0056119D01*
X0427329Y0056143D01*
X0427486Y0056163D01*
X0427644Y0056179D01*
X0427801Y0056191D01*
X0427960Y0056199D01*
X0428118Y0056203D01*
X0428276Y0056203D01*
X0428434Y0056199D01*
X0428593Y0056191D01*
X0428750Y0056179D01*
X0428908Y0056163D01*
X0429065Y0056143D01*
X0429221Y0056119D01*
X0429377Y0056091D01*
X0429532Y0056060D01*
X0429687Y0056024D01*
X0429840Y0055985D01*
X0429992Y0055942D01*
X0430143Y0055895D01*
X0430293Y0055844D01*
X0430442Y0055789D01*
X0430589Y0055731D01*
X0430735Y0055669D01*
X0430879Y0055604D01*
X0431021Y0055534D01*
X0431162Y0055462D01*
X0431301Y0055385D01*
X0431437Y0055306D01*
X0431572Y0055222D01*
X0431705Y0055136D01*
X0431835Y0055046D01*
X0431963Y0054953D01*
X0432089Y0054857D01*
X0432212Y0054757D01*
X0432333Y0054655D01*
X0432451Y0054550D01*
X0432566Y0054441D01*
X0432679Y0054330D01*
X0432789Y0054216D01*
X0432896Y0054099D01*
X0433000Y0053980D01*
X0433101Y0053858D01*
X0433198Y0053733D01*
X0433293Y0053606D01*
X0433384Y0053477D01*
X0433473Y0053346D01*
X0433557Y0053212D01*
X0433639Y0053076D01*
X0433717Y0052939D01*
X0433791Y0052799D01*
X0433862Y0052657D01*
X0433930Y0052514D01*
X0433994Y0052369D01*
X0434054Y0052223D01*
X0434110Y0052075D01*
X0434163Y0051926D01*
X0434212Y0051775D01*
X0434257Y0051623D01*
X0434298Y0051470D01*
X0434336Y0051317D01*
X0434369Y0051162D01*
X0434399Y0051006D01*
X0434425Y0050850D01*
X0434446Y0050693D01*
X0434464Y0050536D01*
X0434478Y0050378D01*
X0434488Y0050220D01*
X0434494Y0050062D01*
X0434496Y0049904D01*
X0434494Y0049746D01*
X0434488Y0049588D01*
X0434478Y0049430D01*
X0434464Y0049272D01*
X0434446Y0049115D01*
X0434425Y0048958D01*
X0434399Y0048802D01*
X0434369Y0048646D01*
X0434336Y0048491D01*
X0434298Y0048338D01*
X0434257Y0048185D01*
X0434212Y0048033D01*
X0434163Y0047882D01*
X0434110Y0047733D01*
X0434054Y0047585D01*
X0433994Y0047439D01*
X0433930Y0047294D01*
X0433862Y0047151D01*
X0433791Y0047009D01*
X0433717Y0046869D01*
X0433639Y0046732D01*
X0433557Y0046596D01*
X0433473Y0046462D01*
X0433384Y0046331D01*
X0433293Y0046202D01*
X0433198Y0046075D01*
X0433101Y0045950D01*
X0433000Y0045828D01*
X0432896Y0045709D01*
X0432789Y0045592D01*
X0432679Y0045478D01*
X0432566Y0045367D01*
X0432451Y0045258D01*
X0432333Y0045153D01*
X0432212Y0045051D01*
X0432089Y0044951D01*
X0431963Y0044855D01*
X0431835Y0044762D01*
X0431705Y0044672D01*
X0431572Y0044586D01*
X0431437Y0044502D01*
X0431301Y0044423D01*
X0431162Y0044346D01*
X0431021Y0044274D01*
X0430879Y0044204D01*
X0430735Y0044139D01*
X0430589Y0044077D01*
X0430442Y0044019D01*
X0430293Y0043964D01*
X0430143Y0043913D01*
X0429992Y0043866D01*
X0429840Y0043823D01*
X0429687Y0043784D01*
X0429532Y0043748D01*
X0429377Y0043717D01*
X0429221Y0043689D01*
X0429065Y0043665D01*
X0428908Y0043645D01*
X0428750Y0043629D01*
X0428593Y0043617D01*
X0428434Y0043609D01*
X0428276Y0043605D01*
X0428118Y0043605D01*
X0427960Y0043609D01*
X0427801Y0043617D01*
X0427644Y0043629D01*
X0427486Y0043645D01*
X0427329Y0043665D01*
X0427173Y0043689D01*
X0427017Y0043717D01*
X0426862Y0043748D01*
X0426707Y0043784D01*
X0426554Y0043823D01*
X0426402Y0043866D01*
X0426251Y0043913D01*
X0426101Y0043964D01*
X0425952Y0044019D01*
X0425805Y0044077D01*
X0425659Y0044139D01*
X0425515Y0044204D01*
X0425373Y0044274D01*
X0425232Y0044346D01*
X0425093Y0044423D01*
X0424957Y0044502D01*
X0424822Y0044586D01*
X0424689Y0044672D01*
X0424559Y0044762D01*
X0424431Y0044855D01*
X0424305Y0044951D01*
X0424182Y0045051D01*
X0424061Y0045153D01*
X0423943Y0045258D01*
X0423828Y0045367D01*
X0423715Y0045478D01*
X0423605Y0045592D01*
X0423498Y0045709D01*
X0423394Y0045828D01*
X0423293Y0045950D01*
X0423196Y0046075D01*
X0423101Y0046202D01*
X0423010Y0046331D01*
X0422921Y0046462D01*
X0422837Y0046596D01*
X0422755Y0046732D01*
X0422677Y0046869D01*
X0422603Y0047009D01*
X0422532Y0047151D01*
X0422464Y0047294D01*
X0422400Y0047439D01*
X0422340Y0047585D01*
X0422284Y0047733D01*
X0422231Y0047882D01*
X0422182Y0048033D01*
X0422137Y0048185D01*
X0422096Y0048338D01*
X0422058Y0048491D01*
X0422025Y0048646D01*
X0421995Y0048802D01*
X0421969Y0048958D01*
X0421948Y0049115D01*
X0421930Y0049272D01*
X0421916Y0049430D01*
X0421906Y0049588D01*
X0421900Y0049746D01*
X0421898Y0049904D01*
X0428197Y0034156D02*
X0428578Y0034161D01*
X0428958Y0034174D01*
X0429338Y0034197D01*
X0429717Y0034230D01*
X0430095Y0034271D01*
X0430472Y0034321D01*
X0430848Y0034381D01*
X0431223Y0034449D01*
X0431595Y0034527D01*
X0431966Y0034614D01*
X0432334Y0034709D01*
X0432700Y0034814D01*
X0433063Y0034927D01*
X0433424Y0035049D01*
X0433781Y0035179D01*
X0434135Y0035319D01*
X0434486Y0035466D01*
X0434833Y0035623D01*
X0435176Y0035787D01*
X0435515Y0035960D01*
X0435850Y0036141D01*
X0436181Y0036330D01*
X0436506Y0036527D01*
X0436827Y0036731D01*
X0437143Y0036944D01*
X0437453Y0037164D01*
X0437759Y0037391D01*
X0438058Y0037626D01*
X0438352Y0037868D01*
X0438640Y0038116D01*
X0438922Y0038372D01*
X0439197Y0038635D01*
X0439466Y0038904D01*
X0439729Y0039179D01*
X0439985Y0039461D01*
X0440233Y0039749D01*
X0440475Y0040043D01*
X0440710Y0040342D01*
X0440937Y0040648D01*
X0441157Y0040958D01*
X0441370Y0041274D01*
X0441574Y0041595D01*
X0441771Y0041920D01*
X0441960Y0042251D01*
X0442141Y0042586D01*
X0442314Y0042925D01*
X0442478Y0043268D01*
X0442635Y0043615D01*
X0442782Y0043966D01*
X0442922Y0044320D01*
X0443052Y0044677D01*
X0443174Y0045038D01*
X0443287Y0045401D01*
X0443392Y0045767D01*
X0443487Y0046135D01*
X0443574Y0046506D01*
X0443652Y0046878D01*
X0443720Y0047253D01*
X0443780Y0047629D01*
X0443830Y0048006D01*
X0443871Y0048384D01*
X0443904Y0048763D01*
X0443927Y0049143D01*
X0443940Y0049523D01*
X0443945Y0049904D01*
M02*
