G75*
%MOIN*%
%OFA0B0*%
%FSLAX25Y25*%
%IPPOS*%
%LPD*%
%AMOC8*
5,1,8,0,0,1.08239X$1,22.5*
%
%ADD10C,0.00400*%
%ADD11C,0.00300*%
%ADD12OC8,0.06300*%
%ADD13R,0.05150X0.05150*%
%ADD14C,0.05150*%
%ADD15C,0.07400*%
%ADD16C,0.17000*%
%ADD17C,0.06000*%
%ADD18OC8,0.05200*%
%ADD19R,0.04600X0.06300*%
%ADD20C,0.06496*%
%ADD21R,0.03543X0.05846*%
%ADD22R,0.03937X0.05512*%
%ADD23OC8,0.06600*%
%ADD24R,0.22835X0.24409*%
%ADD25R,0.06299X0.11811*%
%ADD26C,0.01600*%
%ADD27C,0.03600*%
%ADD28C,0.02200*%
D10*
X0060440Y0069356D02*
X0065044Y0069356D01*
X0065044Y0072425D01*
X0065044Y0069356D01*
X0060440Y0069356D01*
X0060440Y0073960D02*
X0060440Y0076262D01*
X0061207Y0077029D01*
X0064277Y0077029D01*
X0065044Y0076262D01*
X0065044Y0073960D01*
X0060440Y0073960D01*
X0060440Y0076262D01*
X0061207Y0077029D01*
X0064277Y0077029D01*
X0065044Y0076262D01*
X0065044Y0073960D01*
X0060440Y0073960D01*
X0061975Y0078564D02*
X0060440Y0080099D01*
X0065044Y0080099D01*
X0060440Y0080099D01*
X0061975Y0078564D01*
X0065044Y0078564D02*
X0065044Y0081633D01*
X0065044Y0078564D01*
X0065044Y0083168D02*
X0064277Y0083168D01*
X0061207Y0086237D01*
X0060440Y0086237D01*
X0060440Y0083168D01*
X0060440Y0086237D01*
X0061207Y0086237D01*
X0064277Y0083168D01*
X0065044Y0083168D01*
X0064277Y0087772D02*
X0061207Y0087772D01*
X0060440Y0088539D01*
X0060440Y0090074D01*
X0061207Y0090841D01*
X0064277Y0087772D01*
X0065044Y0088539D01*
X0065044Y0090074D01*
X0064277Y0090841D01*
X0061207Y0090841D01*
X0064277Y0087772D01*
X0065044Y0088539D01*
X0065044Y0090074D01*
X0064277Y0090841D01*
X0061207Y0090841D01*
X0060440Y0090074D01*
X0060440Y0088539D01*
X0061207Y0087772D01*
X0064277Y0087772D01*
X0065044Y0092376D02*
X0065044Y0095445D01*
X0065044Y0092376D01*
X0065044Y0093910D02*
X0060440Y0093910D01*
X0061975Y0092376D01*
X0060440Y0093910D01*
X0065044Y0093910D01*
X0065044Y0096980D02*
X0065044Y0100049D01*
X0065044Y0096980D01*
X0065044Y0098514D02*
X0060440Y0098514D01*
X0061975Y0096980D01*
X0060440Y0098514D01*
X0065044Y0098514D01*
X0065044Y0101584D02*
X0061975Y0101584D01*
X0060440Y0103118D01*
X0061975Y0104653D01*
X0065044Y0104653D01*
X0061975Y0104653D01*
X0060440Y0103118D01*
X0061975Y0101584D01*
X0065044Y0101584D01*
X0062742Y0101584D02*
X0062742Y0104653D01*
X0062742Y0101584D01*
D11*
X0300394Y0078009D02*
X0302863Y0078009D01*
X0301628Y0078009D02*
X0301628Y0074306D01*
X0304077Y0074923D02*
X0304077Y0076158D01*
X0304694Y0076775D01*
X0305929Y0076775D01*
X0306546Y0076158D01*
X0306546Y0075541D01*
X0304077Y0075541D01*
X0304077Y0074923D02*
X0304694Y0074306D01*
X0305929Y0074306D01*
X0307760Y0074923D02*
X0308378Y0075541D01*
X0310229Y0075541D01*
X0310229Y0076158D02*
X0310229Y0074306D01*
X0308378Y0074306D01*
X0307760Y0074923D01*
X0308378Y0076775D02*
X0309612Y0076775D01*
X0310229Y0076158D01*
X0311444Y0076775D02*
X0312061Y0076775D01*
X0312678Y0076158D01*
X0313295Y0076775D01*
X0313912Y0076158D01*
X0313912Y0074306D01*
X0312678Y0074306D02*
X0312678Y0076158D01*
X0311444Y0076775D02*
X0311444Y0074306D01*
X0310229Y0072009D02*
X0307760Y0072009D01*
X0308995Y0072009D02*
X0308995Y0068306D01*
X0311444Y0068923D02*
X0312061Y0069541D01*
X0313912Y0069541D01*
X0313912Y0070158D02*
X0313912Y0068306D01*
X0312061Y0068306D01*
X0311444Y0068923D01*
X0312061Y0070775D02*
X0313295Y0070775D01*
X0313912Y0070158D01*
X0315127Y0069541D02*
X0316978Y0070775D01*
X0318196Y0070158D02*
X0318813Y0070775D01*
X0320048Y0070775D01*
X0320665Y0070158D01*
X0320665Y0068923D01*
X0320048Y0068306D01*
X0318813Y0068306D01*
X0318196Y0068923D01*
X0318196Y0070158D01*
X0316978Y0068306D02*
X0315127Y0069541D01*
X0315127Y0068306D02*
X0315127Y0072009D01*
X0318810Y0074923D02*
X0319427Y0074306D01*
X0320661Y0074306D01*
X0321279Y0074923D01*
X0321279Y0077392D01*
X0320661Y0078009D01*
X0319427Y0078009D01*
X0318810Y0077392D01*
X0318810Y0074923D01*
X0322493Y0074306D02*
X0322493Y0078009D01*
X0324345Y0078009D01*
X0324962Y0077392D01*
X0324962Y0076158D01*
X0324345Y0075541D01*
X0322493Y0075541D01*
X0323727Y0075541D02*
X0324962Y0074306D01*
X0327410Y0074306D02*
X0327410Y0076158D01*
X0328645Y0077392D01*
X0328645Y0078009D01*
X0329859Y0078009D02*
X0332328Y0078009D01*
X0332328Y0077392D01*
X0329859Y0074923D01*
X0329859Y0074306D01*
X0332328Y0074306D01*
X0333542Y0074306D02*
X0333542Y0076775D01*
X0334777Y0078009D01*
X0336011Y0076775D01*
X0336011Y0074306D01*
X0336011Y0076158D02*
X0333542Y0076158D01*
X0327410Y0076158D02*
X0326176Y0077392D01*
X0326176Y0078009D01*
X0326179Y0072009D02*
X0325562Y0071392D01*
X0325562Y0070775D01*
X0328031Y0068306D01*
X0326797Y0068306D02*
X0326179Y0068306D01*
X0325562Y0068923D01*
X0325562Y0069541D01*
X0326797Y0070775D01*
X0326797Y0071392D01*
X0326179Y0072009D01*
X0328031Y0069541D02*
X0326797Y0068306D01*
X0332929Y0068306D02*
X0332929Y0072009D01*
X0334780Y0072009D01*
X0335397Y0071392D01*
X0335397Y0070775D01*
X0334780Y0070158D01*
X0332929Y0070158D01*
X0334780Y0070158D02*
X0335397Y0069541D01*
X0335397Y0068923D01*
X0334780Y0068306D01*
X0332929Y0068306D01*
X0336612Y0068923D02*
X0337229Y0069541D01*
X0339080Y0069541D01*
X0339080Y0070158D02*
X0339080Y0068306D01*
X0337229Y0068306D01*
X0336612Y0068923D01*
X0337229Y0070775D02*
X0338463Y0070775D01*
X0339080Y0070158D01*
X0340295Y0070775D02*
X0342146Y0070775D01*
X0342764Y0070158D01*
X0342764Y0068923D01*
X0342146Y0068306D01*
X0340295Y0068306D01*
X0340295Y0072009D01*
X0343978Y0070775D02*
X0343978Y0068923D01*
X0344595Y0068306D01*
X0346447Y0068306D01*
X0346447Y0067689D02*
X0345830Y0067072D01*
X0345212Y0067072D01*
X0346447Y0067689D02*
X0346447Y0070775D01*
X0320051Y0064775D02*
X0320051Y0062306D01*
X0318199Y0062306D01*
X0317582Y0062923D01*
X0317582Y0064775D01*
X0316368Y0064775D02*
X0313899Y0062306D01*
X0316368Y0062306D01*
X0316368Y0064775D02*
X0313899Y0064775D01*
X0312061Y0064775D02*
X0312061Y0062306D01*
X0311444Y0062306D02*
X0312678Y0062306D01*
X0312061Y0060627D02*
X0312061Y0060009D01*
X0312061Y0058775D02*
X0312061Y0056306D01*
X0311444Y0056306D02*
X0312678Y0056306D01*
X0313899Y0056923D02*
X0314516Y0056306D01*
X0316368Y0056306D01*
X0316368Y0055689D02*
X0316368Y0058775D01*
X0314516Y0058775D01*
X0313899Y0058158D01*
X0313899Y0056923D01*
X0315133Y0055072D02*
X0315751Y0055072D01*
X0316368Y0055689D01*
X0317582Y0056923D02*
X0318199Y0056306D01*
X0319434Y0056306D01*
X0320051Y0056923D01*
X0320051Y0058158D01*
X0319434Y0058775D01*
X0318199Y0058775D01*
X0317582Y0058158D01*
X0317582Y0056923D01*
X0318810Y0054009D02*
X0318810Y0050306D01*
X0317595Y0050306D02*
X0315744Y0050306D01*
X0315127Y0050923D01*
X0315744Y0051541D01*
X0317595Y0051541D01*
X0317595Y0052158D02*
X0317595Y0050306D01*
X0318810Y0051541D02*
X0320661Y0052775D01*
X0321879Y0052775D02*
X0321879Y0050923D01*
X0322496Y0050306D01*
X0324348Y0050306D01*
X0324348Y0052775D01*
X0320661Y0050306D02*
X0318810Y0051541D01*
X0317595Y0052158D02*
X0316978Y0052775D01*
X0315744Y0052775D01*
X0313912Y0052775D02*
X0312061Y0052775D01*
X0311444Y0052158D01*
X0312061Y0051541D01*
X0313295Y0051541D01*
X0313912Y0050923D01*
X0313295Y0050306D01*
X0311444Y0050306D01*
X0310229Y0050923D02*
X0310229Y0053392D01*
X0309612Y0054009D01*
X0308378Y0054009D01*
X0307760Y0053392D01*
X0307760Y0050923D01*
X0308378Y0050306D01*
X0309612Y0050306D01*
X0310229Y0050923D01*
X0309612Y0048009D02*
X0310229Y0047392D01*
X0310229Y0044923D01*
X0309612Y0044306D01*
X0308378Y0044306D01*
X0307760Y0044923D01*
X0307760Y0047392D01*
X0308378Y0048009D01*
X0309612Y0048009D01*
X0308995Y0045541D02*
X0310229Y0044306D01*
X0310229Y0056306D02*
X0310229Y0060009D01*
X0311444Y0058775D02*
X0312061Y0058775D01*
X0310229Y0056306D02*
X0307760Y0060009D01*
X0307760Y0056306D01*
X0307760Y0062306D02*
X0307760Y0066009D01*
X0308995Y0064775D01*
X0310229Y0066009D01*
X0310229Y0062306D01*
X0311444Y0064775D02*
X0312061Y0064775D01*
X0312061Y0066009D02*
X0312061Y0066627D01*
X0335394Y0047392D02*
X0336011Y0048009D01*
X0337246Y0048009D01*
X0337863Y0047392D01*
X0337863Y0046775D01*
X0335394Y0044306D01*
X0337863Y0044306D01*
X0339077Y0044923D02*
X0341546Y0047392D01*
X0341546Y0044923D01*
X0340929Y0044306D01*
X0339694Y0044306D01*
X0339077Y0044923D01*
X0339077Y0047392D01*
X0339694Y0048009D01*
X0340929Y0048009D01*
X0341546Y0047392D01*
X0342760Y0046775D02*
X0343995Y0048009D01*
X0343995Y0044306D01*
X0345229Y0044306D02*
X0342760Y0044306D01*
X0346444Y0044306D02*
X0346444Y0044923D01*
X0348912Y0047392D01*
X0348912Y0048009D01*
X0346444Y0048009D01*
X0350127Y0044923D02*
X0350744Y0044923D01*
X0350744Y0044306D01*
X0350127Y0044306D01*
X0350127Y0044923D01*
X0351968Y0044923D02*
X0351968Y0044306D01*
X0351968Y0044923D02*
X0354437Y0047392D01*
X0354437Y0048009D01*
X0351968Y0048009D01*
D12*
X0275244Y0099156D03*
X0255244Y0099156D03*
X0185244Y0094156D03*
X0185244Y0074156D03*
X0135244Y0074156D03*
X0135244Y0064156D03*
X0135244Y0044156D03*
X0135244Y0094156D03*
X0130244Y0169156D03*
X0130244Y0189156D03*
X0195244Y0189156D03*
X0195244Y0169156D03*
X0260244Y0169156D03*
X0260244Y0189156D03*
X0390244Y0184156D03*
X0410244Y0184156D03*
X0410244Y0199156D03*
X0390244Y0199156D03*
D13*
X0303433Y0214156D03*
X0225244Y0209156D03*
X0160244Y0209156D03*
X0095244Y0209156D03*
D14*
X0105244Y0209156D03*
X0115244Y0209156D03*
X0125244Y0209156D03*
X0170244Y0209156D03*
X0180244Y0209156D03*
X0190244Y0209156D03*
X0235244Y0209156D03*
X0245244Y0209156D03*
X0255244Y0209156D03*
X0311307Y0214156D03*
X0319181Y0214156D03*
X0327055Y0214156D03*
D15*
X0220244Y0189156D03*
X0220244Y0169156D03*
X0155244Y0169156D03*
X0155244Y0189156D03*
X0090244Y0189156D03*
X0090244Y0169156D03*
D16*
X0100244Y0088093D03*
X0118748Y0076282D03*
X0100244Y0064471D03*
D17*
X0305244Y0086156D02*
X0305244Y0092156D01*
X0315244Y0092156D02*
X0315244Y0086156D01*
X0325244Y0086156D02*
X0325244Y0092156D01*
X0335244Y0092156D02*
X0335244Y0086156D01*
D18*
X0370244Y0069156D03*
X0370244Y0059156D03*
X0400244Y0059156D03*
X0400244Y0069156D03*
X0345244Y0119156D03*
X0345244Y0134156D03*
X0315244Y0134156D03*
X0315244Y0119156D03*
X0260244Y0124156D03*
X0240244Y0141656D03*
X0235244Y0149156D03*
X0245244Y0149156D03*
X0260244Y0154156D03*
X0245244Y0164156D03*
X0235244Y0164156D03*
X0220244Y0154156D03*
X0195244Y0154156D03*
X0180244Y0149156D03*
X0175244Y0141656D03*
X0170244Y0149156D03*
X0155244Y0154156D03*
X0170244Y0164156D03*
X0180244Y0164156D03*
X0130244Y0154156D03*
X0115244Y0149156D03*
X0110244Y0141656D03*
X0105244Y0149156D03*
X0090244Y0154156D03*
X0105244Y0164156D03*
X0115244Y0164156D03*
X0115244Y0194156D03*
X0105244Y0194156D03*
X0170244Y0194156D03*
X0180244Y0194156D03*
X0235244Y0194156D03*
X0245244Y0194156D03*
X0305244Y0189156D03*
X0315244Y0189156D03*
X0350244Y0184156D03*
X0380244Y0184156D03*
X0380244Y0214156D03*
X0410244Y0214156D03*
X0315244Y0159156D03*
X0305244Y0159156D03*
X0220244Y0124156D03*
X0195244Y0124156D03*
X0155244Y0124156D03*
X0130244Y0124156D03*
X0090244Y0124156D03*
X0250244Y0074156D03*
X0280244Y0074156D03*
D19*
X0402244Y0089156D03*
X0408244Y0089156D03*
D20*
X0288039Y0054156D03*
X0262449Y0054156D03*
X0248039Y0054156D03*
X0222449Y0054156D03*
D21*
X0367291Y0099146D03*
X0373197Y0099146D03*
X0379102Y0099146D03*
X0385008Y0099146D03*
X0390913Y0099146D03*
X0396819Y0099146D03*
X0402724Y0099146D03*
X0408630Y0099146D03*
X0414535Y0099146D03*
X0414535Y0169166D03*
X0408630Y0169166D03*
X0402724Y0169166D03*
X0396819Y0169166D03*
X0390913Y0169166D03*
X0385008Y0169166D03*
X0379102Y0169166D03*
X0373197Y0169166D03*
X0367291Y0169166D03*
D22*
X0188984Y0053487D03*
X0181504Y0053487D03*
X0185244Y0044825D03*
D23*
X0180244Y0124156D03*
X0170244Y0124156D03*
X0115244Y0124156D03*
X0105244Y0124156D03*
X0235244Y0124156D03*
X0245244Y0124156D03*
X0360244Y0199156D03*
X0370244Y0199156D03*
D24*
X0160244Y0054786D03*
D25*
X0151268Y0083054D03*
X0169220Y0083054D03*
D26*
X0078603Y0049606D02*
X0078603Y0035956D01*
X0415586Y0035956D01*
X0415586Y0049606D01*
X0415564Y0049631D01*
X0415586Y0049933D01*
X0415586Y0050236D01*
X0415609Y0050259D01*
X0415689Y0051377D01*
X0415654Y0051431D01*
X0415712Y0051699D01*
X0415732Y0051973D01*
X0415781Y0052015D01*
X0416026Y0053142D01*
X0415999Y0053201D01*
X0416095Y0053458D01*
X0416153Y0053726D01*
X0416208Y0053761D01*
X0416611Y0054841D01*
X0416592Y0054903D01*
X0416724Y0055144D01*
X0416819Y0055401D01*
X0416879Y0055428D01*
X0417431Y0056439D01*
X0417422Y0056504D01*
X0417586Y0056723D01*
X0417717Y0056964D01*
X0417780Y0056982D01*
X0418471Y0057905D01*
X0418471Y0057970D01*
X0418665Y0058164D01*
X0418829Y0058383D01*
X0418893Y0058393D01*
X0419708Y0059208D01*
X0419718Y0059272D01*
X0419937Y0059437D01*
X0420131Y0059630D01*
X0420196Y0059630D01*
X0421119Y0060321D01*
X0421137Y0060384D01*
X0421378Y0060515D01*
X0421597Y0060679D01*
X0421662Y0060670D01*
X0422673Y0061222D01*
X0422700Y0061282D01*
X0422957Y0061377D01*
X0423198Y0061509D01*
X0423260Y0061490D01*
X0424340Y0061893D01*
X0424375Y0061948D01*
X0424643Y0062006D01*
X0424900Y0062102D01*
X0424959Y0062075D01*
X0426086Y0062320D01*
X0426128Y0062369D01*
X0426402Y0062389D01*
X0426670Y0062447D01*
X0426724Y0062412D01*
X0427842Y0062492D01*
X0427865Y0062515D01*
X0428168Y0062515D01*
X0428470Y0062537D01*
X0428495Y0062515D01*
X0442145Y0062515D01*
X0442145Y0082556D01*
X0417081Y0082556D01*
X0416144Y0083493D01*
X0416144Y0094423D01*
X0414621Y0094423D01*
X0414621Y0099060D01*
X0414450Y0099060D01*
X0414450Y0094423D01*
X0412527Y0094423D01*
X0412069Y0094546D01*
X0411742Y0094735D01*
X0411313Y0094306D01*
X0411373Y0094306D01*
X0412544Y0093135D01*
X0412544Y0085178D01*
X0411373Y0084006D01*
X0399116Y0084006D01*
X0397944Y0085178D01*
X0397944Y0087256D01*
X0372504Y0087256D01*
X0356294Y0071046D01*
X0356294Y0070450D01*
X0355716Y0069054D01*
X0354647Y0067985D01*
X0353250Y0067406D01*
X0351738Y0067406D01*
X0350342Y0067985D01*
X0349273Y0069054D01*
X0348694Y0070450D01*
X0348694Y0071962D01*
X0349273Y0073359D01*
X0350342Y0074428D01*
X0351738Y0075006D01*
X0352334Y0075006D01*
X0369758Y0092430D01*
X0370787Y0092856D01*
X0397734Y0092856D01*
X0396367Y0094223D01*
X0394219Y0094223D01*
X0393866Y0094576D01*
X0393513Y0094223D01*
X0388313Y0094223D01*
X0387802Y0094735D01*
X0387474Y0094546D01*
X0387016Y0094423D01*
X0385094Y0094423D01*
X0385094Y0099060D01*
X0384922Y0099060D01*
X0384922Y0094423D01*
X0382999Y0094423D01*
X0382541Y0094546D01*
X0382214Y0094735D01*
X0381702Y0094223D01*
X0376502Y0094223D01*
X0376150Y0094576D01*
X0375797Y0094223D01*
X0370597Y0094223D01*
X0370244Y0094576D01*
X0369891Y0094223D01*
X0364691Y0094223D01*
X0363520Y0095395D01*
X0363520Y0096356D01*
X0338287Y0096356D01*
X0337258Y0096782D01*
X0325334Y0108706D01*
X0283037Y0108706D01*
X0282008Y0109132D01*
X0261634Y0129506D01*
X0230494Y0129506D01*
X0230494Y0127956D01*
X0231549Y0127956D01*
X0233049Y0129456D01*
X0237439Y0129456D01*
X0240244Y0126651D01*
X0243049Y0129456D01*
X0247439Y0129456D01*
X0250544Y0126351D01*
X0250544Y0125116D01*
X0252719Y0122941D01*
X0255644Y0125866D01*
X0255644Y0126062D01*
X0258339Y0128756D01*
X0262149Y0128756D01*
X0264844Y0126062D01*
X0264844Y0122251D01*
X0262149Y0119556D01*
X0258339Y0119556D01*
X0257796Y0120099D01*
X0255418Y0117720D01*
X0254630Y0116932D01*
X0253601Y0116506D01*
X0251837Y0116506D01*
X0250808Y0116932D01*
X0248162Y0119579D01*
X0247439Y0118856D01*
X0243049Y0118856D01*
X0240244Y0121661D01*
X0237439Y0118856D01*
X0233049Y0118856D01*
X0229944Y0121961D01*
X0229944Y0122356D01*
X0224844Y0122356D01*
X0224844Y0122251D01*
X0222149Y0119556D01*
X0218339Y0119556D01*
X0215644Y0122251D01*
X0215644Y0126062D01*
X0218339Y0128756D01*
X0222149Y0128756D01*
X0222949Y0127956D01*
X0224834Y0127956D01*
X0218434Y0134356D01*
X0217838Y0134356D01*
X0216442Y0134935D01*
X0215373Y0136004D01*
X0214794Y0137400D01*
X0214794Y0138912D01*
X0215373Y0140309D01*
X0216442Y0141378D01*
X0217022Y0141618D01*
X0194634Y0164006D01*
X0193111Y0164006D01*
X0190094Y0167023D01*
X0190094Y0167896D01*
X0186884Y0171106D01*
X0184768Y0171106D01*
X0184347Y0170685D01*
X0182950Y0170106D01*
X0181438Y0170106D01*
X0180042Y0170685D01*
X0178973Y0171754D01*
X0178394Y0173150D01*
X0178394Y0174662D01*
X0178682Y0175356D01*
X0153278Y0175356D01*
X0153875Y0174759D01*
X0154110Y0174856D01*
X0156378Y0174856D01*
X0158473Y0173988D01*
X0160076Y0172385D01*
X0160944Y0170290D01*
X0160944Y0168022D01*
X0160076Y0165927D01*
X0158473Y0164324D01*
X0156378Y0163456D01*
X0154110Y0163456D01*
X0152015Y0164324D01*
X0150412Y0165927D01*
X0149544Y0168022D01*
X0149544Y0170290D01*
X0149554Y0170313D01*
X0149544Y0170322D01*
X0149544Y0097706D01*
X0156811Y0097706D01*
X0157950Y0097234D01*
X0158822Y0096362D01*
X0158822Y0096362D01*
X0161850Y0093334D01*
X0161850Y0093334D01*
X0162722Y0092462D01*
X0163194Y0091323D01*
X0163194Y0090040D01*
X0164071Y0089163D01*
X0164071Y0089788D01*
X0165242Y0090959D01*
X0173198Y0090959D01*
X0174370Y0089788D01*
X0174370Y0076320D01*
X0173198Y0075148D01*
X0165242Y0075148D01*
X0164071Y0076320D01*
X0164071Y0080707D01*
X0163538Y0080928D01*
X0158338Y0086128D01*
X0157466Y0087000D01*
X0156994Y0088140D01*
X0156994Y0089422D01*
X0154910Y0091506D01*
X0141927Y0091506D01*
X0140788Y0091978D01*
X0140610Y0092156D01*
X0140394Y0092156D01*
X0140394Y0092023D01*
X0137377Y0089006D01*
X0133111Y0089006D01*
X0130094Y0092023D01*
X0130094Y0092072D01*
X0129350Y0091328D01*
X0128211Y0090856D01*
X0113928Y0090856D01*
X0110744Y0087672D01*
X0110744Y0086711D01*
X0110029Y0084040D01*
X0108646Y0081646D01*
X0106691Y0079691D01*
X0104297Y0078309D01*
X0101626Y0077593D01*
X0098862Y0077593D01*
X0096191Y0078309D01*
X0093797Y0079691D01*
X0091842Y0081646D01*
X0090460Y0084040D01*
X0089744Y0086711D01*
X0089744Y0089476D01*
X0090460Y0092146D01*
X0091842Y0094540D01*
X0093797Y0096495D01*
X0096191Y0097878D01*
X0098862Y0098593D01*
X0101626Y0098593D01*
X0104297Y0097878D01*
X0106691Y0096495D01*
X0108646Y0094540D01*
X0108719Y0094415D01*
X0110888Y0096584D01*
X0112027Y0097056D01*
X0126310Y0097056D01*
X0127138Y0097884D01*
X0128277Y0098356D01*
X0132111Y0098356D01*
X0132146Y0098341D01*
X0133111Y0099306D01*
X0137377Y0099306D01*
X0138327Y0098356D01*
X0142511Y0098356D01*
X0143344Y0098011D01*
X0143344Y0174523D01*
X0143420Y0174706D01*
X0126854Y0174706D01*
X0127682Y0173878D01*
X0128111Y0174306D01*
X0132377Y0174306D01*
X0135394Y0171289D01*
X0135394Y0167023D01*
X0132377Y0164006D01*
X0128111Y0164006D01*
X0125094Y0167023D01*
X0125094Y0168546D01*
X0122534Y0171106D01*
X0119767Y0171106D01*
X0119766Y0171104D01*
X0118697Y0170035D01*
X0117300Y0169456D01*
X0115788Y0169456D01*
X0114392Y0170035D01*
X0113323Y0171104D01*
X0112744Y0172500D01*
X0112744Y0174012D01*
X0113032Y0174706D01*
X0100278Y0174706D01*
X0095920Y0170348D01*
X0095944Y0170290D01*
X0095944Y0168022D01*
X0095076Y0165927D01*
X0093473Y0164324D01*
X0091378Y0163456D01*
X0089110Y0163456D01*
X0087015Y0164324D01*
X0085412Y0165927D01*
X0084544Y0168022D01*
X0084544Y0170290D01*
X0085412Y0172385D01*
X0087015Y0173988D01*
X0089110Y0174856D01*
X0091378Y0174856D01*
X0091577Y0174774D01*
X0096366Y0179562D01*
X0097238Y0180434D01*
X0098377Y0180906D01*
X0147061Y0180906D01*
X0148200Y0180434D01*
X0148394Y0180240D01*
X0149238Y0181084D01*
X0150377Y0181556D01*
X0211411Y0181556D01*
X0212550Y0181084D01*
X0213422Y0180212D01*
X0218875Y0174759D01*
X0219110Y0174856D01*
X0221378Y0174856D01*
X0223473Y0173988D01*
X0225076Y0172385D01*
X0225944Y0170290D01*
X0225944Y0168022D01*
X0225076Y0165927D01*
X0223473Y0164324D01*
X0221378Y0163456D01*
X0219110Y0163456D01*
X0217015Y0164324D01*
X0215412Y0165927D01*
X0214544Y0168022D01*
X0214544Y0170290D01*
X0214554Y0170313D01*
X0209510Y0175356D01*
X0190554Y0175356D01*
X0192357Y0173553D01*
X0193111Y0174306D01*
X0197377Y0174306D01*
X0200394Y0171289D01*
X0200394Y0167023D01*
X0199966Y0166594D01*
X0231454Y0135106D01*
X0242237Y0135106D01*
X0242094Y0135450D01*
X0242094Y0136962D01*
X0242133Y0137056D01*
X0238339Y0137056D01*
X0235644Y0139751D01*
X0235644Y0143562D01*
X0236839Y0144756D01*
X0235244Y0144756D01*
X0235244Y0149156D01*
X0235244Y0149156D01*
X0230844Y0149156D01*
X0230844Y0147334D01*
X0233422Y0144756D01*
X0235244Y0144756D01*
X0235244Y0149156D01*
X0235244Y0149156D01*
X0230844Y0149156D01*
X0230844Y0150979D01*
X0233422Y0153556D01*
X0235244Y0153556D01*
X0235244Y0149156D01*
X0235244Y0149156D01*
X0239644Y0149156D01*
X0239644Y0147334D01*
X0238567Y0146256D01*
X0241639Y0146256D01*
X0240644Y0147251D01*
X0240644Y0151062D01*
X0240687Y0151104D01*
X0237808Y0153982D01*
X0237020Y0154770D01*
X0236594Y0155799D01*
X0236594Y0157146D01*
X0234184Y0159556D01*
X0233339Y0159556D01*
X0230644Y0162251D01*
X0230644Y0166062D01*
X0233339Y0168756D01*
X0237149Y0168756D01*
X0239844Y0166062D01*
X0239844Y0162251D01*
X0239627Y0162033D01*
X0241768Y0159892D01*
X0242194Y0158863D01*
X0242194Y0157516D01*
X0245954Y0153756D01*
X0247149Y0153756D01*
X0249844Y0151062D01*
X0249844Y0147438D01*
X0249887Y0147456D01*
X0365634Y0147456D01*
X0382194Y0164016D01*
X0382194Y0164456D01*
X0382055Y0164595D01*
X0381702Y0164243D01*
X0376502Y0164243D01*
X0376150Y0164595D01*
X0376094Y0164540D01*
X0376094Y0162299D01*
X0375668Y0161270D01*
X0363968Y0149570D01*
X0363180Y0148782D01*
X0362151Y0148356D01*
X0279787Y0148356D01*
X0278758Y0148782D01*
X0262956Y0164585D01*
X0262377Y0164006D01*
X0258111Y0164006D01*
X0255094Y0167023D01*
X0255094Y0171289D01*
X0255998Y0172193D01*
X0253920Y0174270D01*
X0253494Y0175299D01*
X0253494Y0180546D01*
X0244484Y0189556D01*
X0243339Y0189556D01*
X0240644Y0192251D01*
X0240644Y0196062D01*
X0243339Y0198756D01*
X0243916Y0198756D01*
X0244037Y0198806D01*
X0245151Y0198806D01*
X0245272Y0198756D01*
X0247149Y0198756D01*
X0249844Y0196062D01*
X0249844Y0192251D01*
X0249777Y0192183D01*
X0258668Y0183292D01*
X0259094Y0182263D01*
X0259094Y0177016D01*
X0261780Y0174330D01*
X0261780Y0174330D01*
X0261804Y0174306D01*
X0262377Y0174306D01*
X0265394Y0171289D01*
X0265394Y0170066D01*
X0281504Y0153956D01*
X0360434Y0153956D01*
X0370494Y0164016D01*
X0370494Y0164345D01*
X0370085Y0164754D01*
X0369758Y0164565D01*
X0369300Y0164443D01*
X0367377Y0164443D01*
X0367377Y0169080D01*
X0367205Y0169080D01*
X0363720Y0169080D01*
X0363720Y0166006D01*
X0363842Y0165548D01*
X0364079Y0165138D01*
X0364414Y0164802D01*
X0364825Y0164565D01*
X0365283Y0164443D01*
X0367205Y0164443D01*
X0367205Y0169080D01*
X0367205Y0169252D01*
X0363720Y0169252D01*
X0363720Y0172326D01*
X0363842Y0172784D01*
X0364079Y0173194D01*
X0364414Y0173530D01*
X0364825Y0173767D01*
X0365283Y0173889D01*
X0367205Y0173889D01*
X0367205Y0169252D01*
X0367377Y0169252D01*
X0367377Y0173889D01*
X0369300Y0173889D01*
X0369758Y0173767D01*
X0370085Y0173578D01*
X0370597Y0174089D01*
X0374887Y0174089D01*
X0374623Y0174354D01*
X0374044Y0175750D01*
X0374044Y0177262D01*
X0374623Y0178659D01*
X0375692Y0179728D01*
X0377088Y0180306D01*
X0377872Y0180306D01*
X0375844Y0182334D01*
X0375844Y0184156D01*
X0380244Y0184156D01*
X0380244Y0184156D01*
X0380244Y0179756D01*
X0379928Y0179756D01*
X0379997Y0179728D01*
X0381066Y0178659D01*
X0381644Y0177262D01*
X0381644Y0176487D01*
X0381944Y0175763D01*
X0381944Y0173848D01*
X0382055Y0173737D01*
X0382408Y0174089D01*
X0387608Y0174089D01*
X0387961Y0173737D01*
X0388313Y0174089D01*
X0393513Y0174089D01*
X0393866Y0173737D01*
X0394219Y0174089D01*
X0396294Y0174089D01*
X0396144Y0174450D01*
X0396144Y0175962D01*
X0396723Y0177359D01*
X0397792Y0178428D01*
X0399188Y0179006D01*
X0400700Y0179006D01*
X0402097Y0178428D01*
X0403166Y0177359D01*
X0403744Y0175962D01*
X0403744Y0175366D01*
X0404594Y0174516D01*
X0404594Y0175962D01*
X0405173Y0177359D01*
X0406242Y0178428D01*
X0407638Y0179006D01*
X0408219Y0179006D01*
X0408219Y0179006D01*
X0408111Y0179006D01*
X0405094Y0182023D01*
X0405094Y0186289D01*
X0408111Y0189306D01*
X0408360Y0189306D01*
X0410835Y0191781D01*
X0408610Y0194006D01*
X0408111Y0194006D01*
X0405094Y0197023D01*
X0405094Y0201289D01*
X0405810Y0202006D01*
X0403210Y0204606D01*
X0386278Y0204606D01*
X0385450Y0203778D01*
X0384311Y0203306D01*
X0374627Y0203306D01*
X0373488Y0203778D01*
X0372660Y0204606D01*
X0368078Y0204606D01*
X0365184Y0201712D01*
X0365244Y0201651D01*
X0368049Y0204456D01*
X0372439Y0204456D01*
X0375544Y0201351D01*
X0375544Y0196961D01*
X0372439Y0193856D01*
X0370554Y0193856D01*
X0365130Y0188432D01*
X0364101Y0188006D01*
X0358854Y0188006D01*
X0354844Y0183996D01*
X0354844Y0182251D01*
X0352149Y0179556D01*
X0348339Y0179556D01*
X0345644Y0182251D01*
X0345644Y0186062D01*
X0348339Y0188756D01*
X0351684Y0188756D01*
X0355320Y0192392D01*
X0356108Y0193180D01*
X0357137Y0193606D01*
X0362384Y0193606D01*
X0365342Y0196563D01*
X0365244Y0196661D01*
X0362439Y0193856D01*
X0358049Y0193856D01*
X0354944Y0196961D01*
X0354944Y0196972D01*
X0351210Y0200706D01*
X0328294Y0200706D01*
X0328294Y0170690D01*
X0327822Y0169550D01*
X0319589Y0161317D01*
X0319844Y0161062D01*
X0319844Y0157251D01*
X0317149Y0154556D01*
X0313339Y0154556D01*
X0313184Y0154711D01*
X0312811Y0154556D01*
X0307677Y0154556D01*
X0307304Y0154711D01*
X0307149Y0154556D01*
X0303339Y0154556D01*
X0300644Y0157251D01*
X0300644Y0161062D01*
X0303339Y0163756D01*
X0307149Y0163756D01*
X0309844Y0161062D01*
X0309844Y0160756D01*
X0310644Y0160756D01*
X0310644Y0161062D01*
X0313339Y0163756D01*
X0313381Y0163756D01*
X0313466Y0163962D01*
X0314338Y0164834D01*
X0322094Y0172590D01*
X0322094Y0203172D01*
X0317366Y0207900D01*
X0316906Y0209010D01*
X0316716Y0209200D01*
X0316244Y0210340D01*
X0316244Y0210623D01*
X0315303Y0211565D01*
X0315244Y0211706D01*
X0315185Y0211565D01*
X0313898Y0210278D01*
X0313694Y0210193D01*
X0313694Y0197166D01*
X0317030Y0193830D01*
X0317104Y0193756D01*
X0317149Y0193756D01*
X0319844Y0191062D01*
X0319844Y0187251D01*
X0317149Y0184556D01*
X0313339Y0184556D01*
X0310644Y0187251D01*
X0310644Y0191062D01*
X0311262Y0191679D01*
X0308520Y0194420D01*
X0308094Y0195449D01*
X0308094Y0210899D01*
X0308008Y0210986D01*
X0308008Y0210753D01*
X0306836Y0209581D01*
X0306544Y0209581D01*
X0306544Y0193916D01*
X0306630Y0193830D01*
X0306704Y0193756D01*
X0307149Y0193756D01*
X0309844Y0191062D01*
X0309844Y0187251D01*
X0307149Y0184556D01*
X0303339Y0184556D01*
X0300644Y0187251D01*
X0300644Y0191062D01*
X0301189Y0191607D01*
X0300944Y0192199D01*
X0300944Y0209581D01*
X0300030Y0209581D01*
X0298858Y0210753D01*
X0298858Y0217559D01*
X0300030Y0218731D01*
X0306836Y0218731D01*
X0308008Y0217559D01*
X0308008Y0217327D01*
X0308716Y0218034D01*
X0310397Y0218731D01*
X0312217Y0218731D01*
X0313898Y0218034D01*
X0315185Y0216748D01*
X0315244Y0216606D01*
X0315303Y0216748D01*
X0316590Y0218034D01*
X0318271Y0218731D01*
X0320091Y0218731D01*
X0321773Y0218034D01*
X0323059Y0216748D01*
X0323242Y0216308D01*
X0323313Y0216449D01*
X0323718Y0217006D01*
X0324205Y0217493D01*
X0324762Y0217898D01*
X0325376Y0218210D01*
X0326031Y0218423D01*
X0326711Y0218531D01*
X0327055Y0218531D01*
X0327055Y0214156D01*
X0327055Y0214156D01*
X0327055Y0209781D01*
X0326711Y0209781D01*
X0326031Y0209889D01*
X0325376Y0210102D01*
X0324762Y0210414D01*
X0324205Y0210819D01*
X0323718Y0211306D01*
X0323313Y0211863D01*
X0323242Y0212004D01*
X0323059Y0211565D01*
X0322896Y0211401D01*
X0323082Y0210953D01*
X0327128Y0206906D01*
X0353111Y0206906D01*
X0354250Y0206434D01*
X0357138Y0203546D01*
X0358049Y0204456D01*
X0359160Y0204456D01*
X0359188Y0204484D01*
X0365038Y0210334D01*
X0366177Y0210806D01*
X0374561Y0210806D01*
X0375700Y0210334D01*
X0376528Y0209506D01*
X0382410Y0209506D01*
X0383238Y0210334D01*
X0384377Y0210806D01*
X0404510Y0210806D01*
X0405799Y0212095D01*
X0405644Y0212251D01*
X0405644Y0216062D01*
X0408339Y0218756D01*
X0412149Y0218756D01*
X0414844Y0216062D01*
X0414844Y0212251D01*
X0412149Y0209556D01*
X0412028Y0209556D01*
X0409528Y0207056D01*
X0412278Y0204306D01*
X0412377Y0204306D01*
X0415394Y0201289D01*
X0415394Y0197023D01*
X0414878Y0196507D01*
X0417522Y0193862D01*
X0417994Y0192723D01*
X0417994Y0190840D01*
X0417522Y0189700D01*
X0416650Y0188828D01*
X0414753Y0186931D01*
X0415394Y0186289D01*
X0415394Y0182023D01*
X0414578Y0181207D01*
X0416144Y0179640D01*
X0416144Y0184819D01*
X0417081Y0185756D01*
X0442145Y0185756D01*
X0442145Y0202648D01*
X0428495Y0202648D01*
X0428470Y0202626D01*
X0428168Y0202648D01*
X0427865Y0202648D01*
X0427842Y0202671D01*
X0426724Y0202751D01*
X0426670Y0202716D01*
X0426402Y0202774D01*
X0426128Y0202793D01*
X0426086Y0202843D01*
X0424959Y0203088D01*
X0424900Y0203061D01*
X0424643Y0203156D01*
X0424375Y0203215D01*
X0424340Y0203269D01*
X0423260Y0203672D01*
X0423198Y0203654D01*
X0422957Y0203785D01*
X0422700Y0203881D01*
X0422673Y0203940D01*
X0421662Y0204493D01*
X0421597Y0204483D01*
X0421378Y0204648D01*
X0421137Y0204779D01*
X0421119Y0204842D01*
X0420196Y0205532D01*
X0420131Y0205532D01*
X0419937Y0205726D01*
X0419718Y0205890D01*
X0419708Y0205955D01*
X0418893Y0206770D01*
X0418829Y0206779D01*
X0418665Y0206999D01*
X0418471Y0207193D01*
X0418471Y0207258D01*
X0417780Y0208180D01*
X0417717Y0208199D01*
X0417586Y0208439D01*
X0417422Y0208659D01*
X0417431Y0208723D01*
X0416879Y0209735D01*
X0416819Y0209762D01*
X0416724Y0210019D01*
X0416592Y0210259D01*
X0416611Y0210322D01*
X0416208Y0211402D01*
X0416153Y0211437D01*
X0416095Y0211705D01*
X0415999Y0211962D01*
X0416026Y0212021D01*
X0415781Y0213147D01*
X0415732Y0213190D01*
X0415712Y0213464D01*
X0415654Y0213731D01*
X0415689Y0213786D01*
X0415609Y0214904D01*
X0415586Y0214927D01*
X0415586Y0215230D01*
X0415564Y0215532D01*
X0415586Y0215557D01*
X0415586Y0229156D01*
X0078603Y0229156D01*
X0078603Y0215557D01*
X0078625Y0215532D01*
X0078603Y0215230D01*
X0078603Y0214927D01*
X0078580Y0214904D01*
X0078500Y0213786D01*
X0078535Y0213731D01*
X0078477Y0213464D01*
X0078457Y0213190D01*
X0078408Y0213147D01*
X0078163Y0212021D01*
X0078190Y0211962D01*
X0078094Y0211705D01*
X0078036Y0211437D01*
X0077981Y0211402D01*
X0077578Y0210322D01*
X0077597Y0210259D01*
X0077465Y0210019D01*
X0077370Y0209762D01*
X0077310Y0209735D01*
X0076758Y0208723D01*
X0076767Y0208659D01*
X0076603Y0208439D01*
X0076472Y0208199D01*
X0076409Y0208180D01*
X0075718Y0207258D01*
X0075718Y0207193D01*
X0075524Y0206999D01*
X0075360Y0206779D01*
X0075296Y0206770D01*
X0074481Y0205955D01*
X0074471Y0205890D01*
X0074252Y0205726D01*
X0074058Y0205532D01*
X0073993Y0205532D01*
X0073070Y0204842D01*
X0073052Y0204779D01*
X0072811Y0204648D01*
X0072592Y0204483D01*
X0072527Y0204493D01*
X0071516Y0203940D01*
X0071489Y0203881D01*
X0071232Y0203785D01*
X0070991Y0203654D01*
X0070929Y0203672D01*
X0069849Y0203269D01*
X0069814Y0203215D01*
X0069546Y0203156D01*
X0069289Y0203061D01*
X0069230Y0203088D01*
X0068103Y0202843D01*
X0068061Y0202793D01*
X0067787Y0202774D01*
X0067519Y0202716D01*
X0067464Y0202751D01*
X0066347Y0202671D01*
X0066323Y0202648D01*
X0066021Y0202648D01*
X0065719Y0202626D01*
X0065694Y0202648D01*
X0052044Y0202648D01*
X0052044Y0062515D01*
X0065694Y0062515D01*
X0065719Y0062537D01*
X0066021Y0062515D01*
X0066323Y0062515D01*
X0066347Y0062492D01*
X0067464Y0062412D01*
X0067519Y0062447D01*
X0067787Y0062389D01*
X0068061Y0062369D01*
X0068103Y0062320D01*
X0069230Y0062075D01*
X0069289Y0062102D01*
X0069546Y0062006D01*
X0069814Y0061948D01*
X0069849Y0061893D01*
X0070929Y0061490D01*
X0070991Y0061509D01*
X0071232Y0061377D01*
X0071489Y0061282D01*
X0071516Y0061222D01*
X0072527Y0060670D01*
X0072592Y0060679D01*
X0072811Y0060515D01*
X0073052Y0060384D01*
X0073070Y0060321D01*
X0073993Y0059630D01*
X0074058Y0059630D01*
X0074252Y0059437D01*
X0074471Y0059272D01*
X0074481Y0059208D01*
X0075296Y0058393D01*
X0075360Y0058383D01*
X0075524Y0058164D01*
X0075718Y0057970D01*
X0075718Y0057905D01*
X0076409Y0056982D01*
X0076472Y0056964D01*
X0076603Y0056723D01*
X0076767Y0056504D01*
X0076758Y0056439D01*
X0077310Y0055428D01*
X0077370Y0055401D01*
X0077465Y0055144D01*
X0077597Y0054903D01*
X0077578Y0054841D01*
X0077981Y0053761D01*
X0078036Y0053726D01*
X0078094Y0053458D01*
X0078190Y0053201D01*
X0078163Y0053142D01*
X0078408Y0052015D01*
X0078457Y0051973D01*
X0078477Y0051699D01*
X0078535Y0051431D01*
X0078500Y0051377D01*
X0078580Y0050259D01*
X0078603Y0050236D01*
X0078603Y0049933D01*
X0078625Y0049631D01*
X0078603Y0049606D01*
X0078603Y0050141D02*
X0133995Y0050141D01*
X0133160Y0049306D02*
X0133111Y0049306D01*
X0130094Y0046289D01*
X0130094Y0042023D01*
X0133111Y0039006D01*
X0137377Y0039006D01*
X0140394Y0042023D01*
X0140394Y0046289D01*
X0139653Y0047031D01*
X0146472Y0053850D01*
X0146944Y0054990D01*
X0146944Y0067972D01*
X0147728Y0068756D01*
X0148361Y0068756D01*
X0149500Y0069228D01*
X0150372Y0070100D01*
X0153622Y0073350D01*
X0154094Y0074490D01*
X0154094Y0075148D01*
X0155246Y0075148D01*
X0156417Y0076320D01*
X0156417Y0076349D01*
X0157644Y0075122D01*
X0157644Y0074490D01*
X0158116Y0073350D01*
X0162238Y0069228D01*
X0163294Y0068791D01*
X0161044Y0068791D01*
X0161044Y0055586D01*
X0173461Y0055586D01*
X0173461Y0067228D01*
X0173339Y0067686D01*
X0173102Y0068096D01*
X0172767Y0068431D01*
X0172356Y0068668D01*
X0172028Y0068756D01*
X0181511Y0068756D01*
X0182650Y0069228D01*
X0182770Y0069348D01*
X0183111Y0069006D01*
X0183260Y0069006D01*
X0193394Y0058872D01*
X0193394Y0050390D01*
X0191310Y0048306D01*
X0189213Y0048306D01*
X0189213Y0048410D01*
X0188691Y0048931D01*
X0188800Y0048931D01*
X0188800Y0053303D01*
X0189169Y0053303D01*
X0189169Y0053671D01*
X0192753Y0053671D01*
X0192753Y0056480D01*
X0192630Y0056938D01*
X0192393Y0057348D01*
X0192058Y0057683D01*
X0191648Y0057920D01*
X0191190Y0058043D01*
X0189169Y0058043D01*
X0189169Y0053671D01*
X0188800Y0053671D01*
X0188800Y0058043D01*
X0187001Y0058043D01*
X0187294Y0058750D01*
X0187294Y0060262D01*
X0186716Y0061659D01*
X0185647Y0062728D01*
X0184250Y0063306D01*
X0182738Y0063306D01*
X0181342Y0062728D01*
X0180273Y0061659D01*
X0179694Y0060262D01*
X0179694Y0059666D01*
X0179170Y0059142D01*
X0178798Y0058243D01*
X0178707Y0058243D01*
X0177535Y0057071D01*
X0177535Y0049903D01*
X0178707Y0048731D01*
X0181597Y0048731D01*
X0181276Y0048410D01*
X0181276Y0041241D01*
X0182447Y0040070D01*
X0188041Y0040070D01*
X0189213Y0041241D01*
X0189213Y0042106D01*
X0193211Y0042106D01*
X0194350Y0042578D01*
X0198250Y0046478D01*
X0199122Y0047350D01*
X0199594Y0048490D01*
X0199594Y0058872D01*
X0200378Y0059656D01*
X0250411Y0059656D01*
X0251550Y0060128D01*
X0252422Y0061000D01*
X0260828Y0069406D01*
X0277711Y0069406D01*
X0278261Y0069634D01*
X0278339Y0069556D01*
X0282149Y0069556D01*
X0284844Y0072251D01*
X0284844Y0076062D01*
X0282149Y0078756D01*
X0278339Y0078756D01*
X0275644Y0076062D01*
X0275644Y0075606D01*
X0258927Y0075606D01*
X0257788Y0075134D01*
X0248510Y0065856D01*
X0198477Y0065856D01*
X0197338Y0065384D01*
X0196494Y0064540D01*
X0189703Y0071332D01*
X0190394Y0072023D01*
X0190394Y0076289D01*
X0187377Y0079306D01*
X0183111Y0079306D01*
X0180094Y0076289D01*
X0180094Y0075440D01*
X0179610Y0074956D01*
X0165278Y0074956D01*
X0163844Y0076390D01*
X0163844Y0077023D01*
X0163372Y0078162D01*
X0162500Y0079034D01*
X0159250Y0082284D01*
X0158111Y0082756D01*
X0156417Y0082756D01*
X0156417Y0089788D01*
X0155246Y0090959D01*
X0147290Y0090959D01*
X0146118Y0089788D01*
X0146118Y0076320D01*
X0146971Y0075467D01*
X0146460Y0074956D01*
X0145827Y0074956D01*
X0144688Y0074484D01*
X0142088Y0071884D01*
X0141216Y0071012D01*
X0140744Y0069873D01*
X0140744Y0056890D01*
X0133160Y0049306D01*
X0132348Y0048543D02*
X0078603Y0048543D01*
X0078603Y0046944D02*
X0130749Y0046944D01*
X0130094Y0045346D02*
X0078603Y0045346D01*
X0078603Y0043747D02*
X0130094Y0043747D01*
X0130094Y0042149D02*
X0078603Y0042149D01*
X0078603Y0040550D02*
X0131567Y0040550D01*
X0138921Y0040550D02*
X0181966Y0040550D01*
X0181276Y0042149D02*
X0173409Y0042149D01*
X0173461Y0042344D02*
X0173461Y0053986D01*
X0161044Y0053986D01*
X0161044Y0040781D01*
X0171898Y0040781D01*
X0172356Y0040904D01*
X0172767Y0041141D01*
X0173102Y0041476D01*
X0173339Y0041887D01*
X0173461Y0042344D01*
X0173461Y0043747D02*
X0181276Y0043747D01*
X0181276Y0045346D02*
X0173461Y0045346D01*
X0173461Y0046944D02*
X0181276Y0046944D01*
X0181409Y0048543D02*
X0173461Y0048543D01*
X0173461Y0050141D02*
X0177535Y0050141D01*
X0177535Y0051740D02*
X0173461Y0051740D01*
X0173461Y0053338D02*
X0177535Y0053338D01*
X0177535Y0054937D02*
X0161044Y0054937D01*
X0161044Y0055586D02*
X0161044Y0053986D01*
X0159444Y0053986D01*
X0147027Y0053986D01*
X0147027Y0042344D01*
X0147149Y0041887D01*
X0147386Y0041476D01*
X0147722Y0041141D01*
X0148132Y0040904D01*
X0148590Y0040781D01*
X0159444Y0040781D01*
X0159444Y0053986D01*
X0159444Y0055586D01*
X0147027Y0055586D01*
X0147027Y0067228D01*
X0147149Y0067686D01*
X0147386Y0068096D01*
X0147722Y0068431D01*
X0148132Y0068668D01*
X0148590Y0068791D01*
X0159444Y0068791D01*
X0159444Y0055586D01*
X0161044Y0055586D01*
X0161044Y0056535D02*
X0159444Y0056535D01*
X0159444Y0054937D02*
X0146922Y0054937D01*
X0146944Y0056535D02*
X0147027Y0056535D01*
X0147027Y0058134D02*
X0146944Y0058134D01*
X0146944Y0059732D02*
X0147027Y0059732D01*
X0147027Y0061331D02*
X0146944Y0061331D01*
X0146944Y0062929D02*
X0147027Y0062929D01*
X0147027Y0064528D02*
X0146944Y0064528D01*
X0146944Y0066126D02*
X0147027Y0066126D01*
X0146944Y0067725D02*
X0147172Y0067725D01*
X0149595Y0069323D02*
X0162143Y0069323D01*
X0161044Y0067725D02*
X0159444Y0067725D01*
X0159444Y0066126D02*
X0161044Y0066126D01*
X0161044Y0064528D02*
X0159444Y0064528D01*
X0159444Y0062929D02*
X0161044Y0062929D01*
X0161044Y0061331D02*
X0159444Y0061331D01*
X0159444Y0059732D02*
X0161044Y0059732D01*
X0161044Y0058134D02*
X0159444Y0058134D01*
X0159444Y0053338D02*
X0161044Y0053338D01*
X0161044Y0051740D02*
X0159444Y0051740D01*
X0159444Y0050141D02*
X0161044Y0050141D01*
X0161044Y0048543D02*
X0159444Y0048543D01*
X0159444Y0046944D02*
X0161044Y0046944D01*
X0161044Y0045346D02*
X0159444Y0045346D01*
X0159444Y0043747D02*
X0161044Y0043747D01*
X0161044Y0042149D02*
X0159444Y0042149D01*
X0147079Y0042149D02*
X0140394Y0042149D01*
X0140394Y0043747D02*
X0147027Y0043747D01*
X0147027Y0045346D02*
X0140394Y0045346D01*
X0139739Y0046944D02*
X0147027Y0046944D01*
X0147027Y0048543D02*
X0141165Y0048543D01*
X0142763Y0050141D02*
X0147027Y0050141D01*
X0147027Y0051740D02*
X0144362Y0051740D01*
X0145960Y0053338D02*
X0147027Y0053338D01*
X0140389Y0056535D02*
X0106813Y0056535D01*
X0107118Y0056779D02*
X0107936Y0057597D01*
X0108658Y0058501D01*
X0109273Y0059481D01*
X0109775Y0060523D01*
X0110157Y0061615D01*
X0110415Y0062743D01*
X0110519Y0063671D01*
X0101044Y0063671D01*
X0101044Y0054196D01*
X0101972Y0054301D01*
X0103100Y0054558D01*
X0104192Y0054940D01*
X0105234Y0055442D01*
X0106214Y0056058D01*
X0107118Y0056779D01*
X0108364Y0058134D02*
X0140744Y0058134D01*
X0140744Y0059732D02*
X0137821Y0059732D01*
X0137294Y0059206D02*
X0140194Y0062106D01*
X0140194Y0064156D01*
X0135244Y0064156D01*
X0135244Y0064156D01*
X0135244Y0059206D01*
X0133194Y0059206D01*
X0130294Y0062106D01*
X0130294Y0064156D01*
X0135244Y0064156D01*
X0135244Y0064156D01*
X0135244Y0059206D01*
X0137294Y0059206D01*
X0135244Y0059732D02*
X0135244Y0059732D01*
X0135244Y0061331D02*
X0135244Y0061331D01*
X0135244Y0062929D02*
X0135244Y0062929D01*
X0135244Y0064156D02*
X0135244Y0064156D01*
X0130294Y0064156D01*
X0130294Y0066207D01*
X0133194Y0069106D01*
X0135244Y0069106D01*
X0135244Y0064156D01*
X0135244Y0064156D01*
X0140194Y0064156D01*
X0140194Y0066207D01*
X0137294Y0069106D01*
X0135244Y0069106D01*
X0135244Y0064156D01*
X0135244Y0064528D02*
X0135244Y0064528D01*
X0135244Y0066126D02*
X0135244Y0066126D01*
X0135244Y0067725D02*
X0135244Y0067725D01*
X0135244Y0069206D02*
X0137294Y0069206D01*
X0140194Y0072106D01*
X0140194Y0074156D01*
X0135244Y0074156D01*
X0135244Y0074156D01*
X0135244Y0069206D01*
X0133194Y0069206D01*
X0130294Y0072106D01*
X0130294Y0074156D01*
X0135244Y0074156D01*
X0135244Y0074156D01*
X0135244Y0069206D01*
X0135244Y0069323D02*
X0135244Y0069323D01*
X0135244Y0070922D02*
X0135244Y0070922D01*
X0135244Y0072520D02*
X0135244Y0072520D01*
X0135244Y0074119D02*
X0135244Y0074119D01*
X0135244Y0074156D02*
X0135244Y0074156D01*
X0130294Y0074156D01*
X0130294Y0076207D01*
X0133194Y0079106D01*
X0135244Y0079106D01*
X0135244Y0074156D01*
X0135244Y0074156D01*
X0140194Y0074156D01*
X0140194Y0076207D01*
X0137294Y0079106D01*
X0135244Y0079106D01*
X0135244Y0074156D01*
X0135244Y0075717D02*
X0135244Y0075717D01*
X0135244Y0077316D02*
X0135244Y0077316D01*
X0135244Y0078914D02*
X0135244Y0078914D01*
X0133002Y0078914D02*
X0128913Y0078914D01*
X0129248Y0077664D02*
X0128532Y0080335D01*
X0127150Y0082729D01*
X0125195Y0084684D01*
X0122801Y0086067D01*
X0120130Y0086782D01*
X0117366Y0086782D01*
X0114695Y0086067D01*
X0112301Y0084684D01*
X0110346Y0082729D01*
X0108964Y0080335D01*
X0108248Y0077664D01*
X0108248Y0074900D01*
X0108964Y0072229D01*
X0110346Y0069835D01*
X0112301Y0067880D01*
X0114695Y0066498D01*
X0117366Y0065782D01*
X0120130Y0065782D01*
X0122801Y0066498D01*
X0125195Y0067880D01*
X0127150Y0069835D01*
X0128532Y0072229D01*
X0129248Y0074900D01*
X0129248Y0077664D01*
X0129248Y0077316D02*
X0131404Y0077316D01*
X0130294Y0075717D02*
X0129248Y0075717D01*
X0129039Y0074119D02*
X0130294Y0074119D01*
X0130294Y0072520D02*
X0128610Y0072520D01*
X0127778Y0070922D02*
X0131478Y0070922D01*
X0133076Y0069323D02*
X0126639Y0069323D01*
X0124926Y0067725D02*
X0131812Y0067725D01*
X0130294Y0066126D02*
X0121415Y0066126D01*
X0116081Y0066126D02*
X0110423Y0066126D01*
X0110415Y0066199D02*
X0110157Y0067327D01*
X0109775Y0068419D01*
X0109273Y0069461D01*
X0108658Y0070441D01*
X0107936Y0071345D01*
X0107118Y0072163D01*
X0106214Y0072885D01*
X0105234Y0073500D01*
X0104192Y0074002D01*
X0103100Y0074384D01*
X0101972Y0074642D01*
X0101044Y0074746D01*
X0101044Y0065271D01*
X0110519Y0065271D01*
X0110415Y0066199D01*
X0110018Y0067725D02*
X0112570Y0067725D01*
X0110858Y0069323D02*
X0109339Y0069323D01*
X0109718Y0070922D02*
X0108274Y0070922D01*
X0108886Y0072520D02*
X0106670Y0072520D01*
X0108457Y0074119D02*
X0103858Y0074119D01*
X0101044Y0074119D02*
X0099444Y0074119D01*
X0099444Y0074746D02*
X0098516Y0074642D01*
X0097388Y0074384D01*
X0096296Y0074002D01*
X0095254Y0073500D01*
X0094274Y0072885D01*
X0093370Y0072163D01*
X0092552Y0071345D01*
X0091831Y0070441D01*
X0091215Y0069461D01*
X0090713Y0068419D01*
X0090331Y0067327D01*
X0090074Y0066199D01*
X0089969Y0065271D01*
X0099444Y0065271D01*
X0099444Y0063671D01*
X0101044Y0063671D01*
X0101044Y0065271D01*
X0099444Y0065271D01*
X0099444Y0074746D01*
X0099444Y0072520D02*
X0101044Y0072520D01*
X0101044Y0070922D02*
X0099444Y0070922D01*
X0099444Y0069323D02*
X0101044Y0069323D01*
X0101044Y0067725D02*
X0099444Y0067725D01*
X0099444Y0066126D02*
X0101044Y0066126D01*
X0101044Y0064528D02*
X0130294Y0064528D01*
X0130294Y0062929D02*
X0110436Y0062929D01*
X0110058Y0061331D02*
X0131069Y0061331D01*
X0132668Y0059732D02*
X0109394Y0059732D01*
X0104182Y0054937D02*
X0138791Y0054937D01*
X0137192Y0053338D02*
X0078139Y0053338D01*
X0078474Y0051740D02*
X0135594Y0051740D01*
X0139419Y0061331D02*
X0140744Y0061331D01*
X0140744Y0062929D02*
X0140194Y0062929D01*
X0140194Y0064528D02*
X0140744Y0064528D01*
X0140744Y0066126D02*
X0140194Y0066126D01*
X0140744Y0067725D02*
X0138676Y0067725D01*
X0137412Y0069323D02*
X0140744Y0069323D01*
X0141179Y0070922D02*
X0139010Y0070922D01*
X0140194Y0072520D02*
X0142724Y0072520D01*
X0144323Y0074119D02*
X0140194Y0074119D01*
X0140194Y0075717D02*
X0146721Y0075717D01*
X0146118Y0077316D02*
X0139085Y0077316D01*
X0137486Y0078914D02*
X0146118Y0078914D01*
X0146118Y0080513D02*
X0128430Y0080513D01*
X0127507Y0082112D02*
X0146118Y0082112D01*
X0146118Y0083710D02*
X0126169Y0083710D01*
X0124114Y0085309D02*
X0146118Y0085309D01*
X0146118Y0086907D02*
X0110744Y0086907D01*
X0110368Y0085309D02*
X0113382Y0085309D01*
X0111327Y0083710D02*
X0109838Y0083710D01*
X0109989Y0082112D02*
X0108915Y0082112D01*
X0109066Y0080513D02*
X0107513Y0080513D01*
X0108583Y0078914D02*
X0105346Y0078914D01*
X0108248Y0077316D02*
X0067101Y0077316D01*
X0067004Y0077413D02*
X0067244Y0077653D01*
X0067244Y0084079D01*
X0065955Y0085368D01*
X0065188Y0085368D01*
X0064984Y0085572D01*
X0065188Y0085572D01*
X0065207Y0085591D01*
X0067244Y0087628D01*
X0067244Y0090083D01*
X0067244Y0090985D01*
X0067004Y0091225D01*
X0067244Y0091465D01*
X0067244Y0102495D01*
X0066621Y0103118D01*
X0067244Y0103742D01*
X0067244Y0105564D01*
X0065955Y0106853D01*
X0061064Y0106853D01*
X0059529Y0105318D01*
X0058240Y0104030D01*
X0058240Y0102207D01*
X0058240Y0102207D01*
X0059529Y0100918D01*
X0059733Y0100714D01*
X0059529Y0100714D01*
X0058240Y0099426D01*
X0058240Y0097603D01*
X0059529Y0096314D01*
X0059733Y0096110D01*
X0059529Y0096110D01*
X0058240Y0094822D01*
X0058240Y0092999D01*
X0059247Y0091992D01*
X0059007Y0091752D01*
X0058240Y0090985D01*
X0058240Y0089450D01*
X0058240Y0088548D01*
X0058240Y0087628D01*
X0058480Y0087388D01*
X0058240Y0087148D01*
X0058240Y0082257D01*
X0058864Y0081633D01*
X0058240Y0081010D01*
X0058240Y0079187D01*
X0059247Y0078180D01*
X0058240Y0077173D01*
X0058240Y0073049D01*
X0059529Y0071760D01*
X0062844Y0071760D01*
X0062844Y0071556D01*
X0059529Y0071556D01*
X0058240Y0070267D01*
X0058240Y0068445D01*
X0059529Y0067156D01*
X0065955Y0067156D01*
X0067244Y0068445D01*
X0067244Y0076253D01*
X0067244Y0077173D01*
X0067244Y0077173D01*
X0067244Y0077173D01*
X0067004Y0077413D01*
X0067244Y0078914D02*
X0095142Y0078914D01*
X0092975Y0080513D02*
X0067244Y0080513D01*
X0067244Y0082112D02*
X0091573Y0082112D01*
X0090650Y0083710D02*
X0067244Y0083710D01*
X0066015Y0085309D02*
X0090120Y0085309D01*
X0089744Y0086907D02*
X0066523Y0086907D01*
X0067244Y0088506D02*
X0089744Y0088506D01*
X0089913Y0090104D02*
X0067244Y0090104D01*
X0067244Y0090985D02*
X0067244Y0090985D01*
X0067244Y0090985D01*
X0067244Y0091703D02*
X0090341Y0091703D01*
X0091127Y0093301D02*
X0067244Y0093301D01*
X0067244Y0094900D02*
X0092201Y0094900D01*
X0093802Y0096498D02*
X0067244Y0096498D01*
X0067244Y0098097D02*
X0097009Y0098097D01*
X0103480Y0098097D02*
X0127651Y0098097D01*
X0129725Y0091703D02*
X0130414Y0091703D01*
X0132013Y0090104D02*
X0113176Y0090104D01*
X0111578Y0088506D02*
X0146118Y0088506D01*
X0146434Y0090104D02*
X0138475Y0090104D01*
X0140074Y0091703D02*
X0141453Y0091703D01*
X0143137Y0098097D02*
X0143344Y0098097D01*
X0143344Y0099695D02*
X0067244Y0099695D01*
X0067244Y0101294D02*
X0143344Y0101294D01*
X0143344Y0102892D02*
X0066847Y0102892D01*
X0067244Y0104491D02*
X0143344Y0104491D01*
X0143344Y0106089D02*
X0066719Y0106089D01*
X0060300Y0106089D02*
X0052044Y0106089D01*
X0052044Y0104491D02*
X0058701Y0104491D01*
X0059529Y0105318D02*
X0059529Y0105318D01*
X0058240Y0102892D02*
X0052044Y0102892D01*
X0052044Y0101294D02*
X0059154Y0101294D01*
X0059529Y0100918D02*
X0059529Y0100918D01*
X0058510Y0099695D02*
X0052044Y0099695D01*
X0052044Y0098097D02*
X0058240Y0098097D01*
X0059345Y0096498D02*
X0052044Y0096498D01*
X0052044Y0094900D02*
X0058318Y0094900D01*
X0058240Y0093301D02*
X0052044Y0093301D01*
X0052044Y0091703D02*
X0058958Y0091703D01*
X0058240Y0090104D02*
X0052044Y0090104D01*
X0052044Y0088506D02*
X0058240Y0088506D01*
X0058240Y0089450D02*
X0058240Y0089450D01*
X0058240Y0086907D02*
X0052044Y0086907D01*
X0052044Y0085309D02*
X0058240Y0085309D01*
X0058240Y0083710D02*
X0052044Y0083710D01*
X0052044Y0082112D02*
X0058385Y0082112D01*
X0058240Y0080513D02*
X0052044Y0080513D01*
X0052044Y0078914D02*
X0058513Y0078914D01*
X0058383Y0077316D02*
X0052044Y0077316D01*
X0052044Y0075717D02*
X0058240Y0075717D01*
X0058240Y0074119D02*
X0052044Y0074119D01*
X0052044Y0072520D02*
X0058769Y0072520D01*
X0058895Y0070922D02*
X0052044Y0070922D01*
X0052044Y0069323D02*
X0058240Y0069323D01*
X0058960Y0067725D02*
X0052044Y0067725D01*
X0052044Y0066126D02*
X0090065Y0066126D01*
X0090470Y0067725D02*
X0066524Y0067725D01*
X0067244Y0069323D02*
X0091149Y0069323D01*
X0092214Y0070922D02*
X0067244Y0070922D01*
X0067244Y0072520D02*
X0093818Y0072520D01*
X0096630Y0074119D02*
X0067244Y0074119D01*
X0067244Y0075717D02*
X0108248Y0075717D01*
X0099444Y0064528D02*
X0052044Y0064528D01*
X0052044Y0062929D02*
X0090053Y0062929D01*
X0090074Y0062743D02*
X0089969Y0063671D01*
X0099444Y0063671D01*
X0099444Y0054196D01*
X0098516Y0054301D01*
X0097388Y0054558D01*
X0096296Y0054940D01*
X0095254Y0055442D01*
X0094274Y0056058D01*
X0093370Y0056779D01*
X0092552Y0057597D01*
X0091831Y0058501D01*
X0091215Y0059481D01*
X0090713Y0060523D01*
X0090331Y0061615D01*
X0090074Y0062743D01*
X0090431Y0061331D02*
X0071357Y0061331D01*
X0073857Y0059732D02*
X0091094Y0059732D01*
X0092124Y0058134D02*
X0075555Y0058134D01*
X0076744Y0056535D02*
X0093675Y0056535D01*
X0096306Y0054937D02*
X0077578Y0054937D01*
X0099444Y0054937D02*
X0101044Y0054937D01*
X0101044Y0056535D02*
X0099444Y0056535D01*
X0099444Y0058134D02*
X0101044Y0058134D01*
X0101044Y0059732D02*
X0099444Y0059732D01*
X0099444Y0061331D02*
X0101044Y0061331D01*
X0101044Y0062929D02*
X0099444Y0062929D01*
X0078603Y0038952D02*
X0415586Y0038952D01*
X0415586Y0040550D02*
X0188522Y0040550D01*
X0193313Y0042149D02*
X0415586Y0042149D01*
X0415586Y0043747D02*
X0354118Y0043747D01*
X0354118Y0044033D02*
X0356587Y0046502D01*
X0356587Y0048900D01*
X0355328Y0050159D01*
X0351078Y0050159D01*
X0350440Y0049522D01*
X0349803Y0050159D01*
X0345553Y0050159D01*
X0345219Y0049825D01*
X0344885Y0050159D01*
X0343104Y0050159D01*
X0342462Y0049517D01*
X0342437Y0049542D01*
X0341819Y0050159D01*
X0340585Y0050159D01*
X0340585Y0050159D01*
X0339704Y0050159D01*
X0338804Y0050159D01*
X0338804Y0050159D01*
X0338804Y0050159D01*
X0338470Y0049825D01*
X0338136Y0050159D01*
X0336902Y0050159D01*
X0336902Y0050159D01*
X0336002Y0050159D01*
X0335121Y0050159D01*
X0335121Y0050159D01*
X0335121Y0050159D01*
X0334486Y0049525D01*
X0333861Y0048900D01*
X0333244Y0048283D01*
X0333244Y0046502D01*
X0333897Y0045849D01*
X0333244Y0045197D01*
X0333244Y0043416D01*
X0334504Y0042156D01*
X0336285Y0042156D01*
X0338753Y0042156D01*
X0338779Y0042181D01*
X0338804Y0042156D01*
X0340938Y0042156D01*
X0341819Y0042156D01*
X0341819Y0042156D01*
X0341819Y0042156D01*
X0341845Y0042181D01*
X0341870Y0042156D01*
X0347334Y0042156D01*
X0348285Y0043107D01*
X0349236Y0042156D01*
X0352859Y0042156D01*
X0354118Y0043416D01*
X0354118Y0044033D01*
X0355431Y0045346D02*
X0415586Y0045346D01*
X0415586Y0046944D02*
X0356587Y0046944D01*
X0356587Y0048543D02*
X0415586Y0048543D01*
X0415586Y0050141D02*
X0355346Y0050141D01*
X0351060Y0050141D02*
X0349821Y0050141D01*
X0345535Y0050141D02*
X0344903Y0050141D01*
X0343086Y0050141D02*
X0341837Y0050141D01*
X0338786Y0050141D02*
X0338154Y0050141D01*
X0335103Y0050141D02*
X0326498Y0050141D01*
X0326498Y0049416D02*
X0326498Y0053665D01*
X0325238Y0054925D01*
X0323457Y0054925D01*
X0323113Y0054581D01*
X0322770Y0054925D01*
X0321093Y0054925D01*
X0321584Y0055416D01*
X0322201Y0056033D01*
X0322201Y0056932D01*
X0322201Y0057814D01*
X0322201Y0059048D01*
X0321584Y0059665D01*
X0321017Y0060232D01*
X0322201Y0061416D01*
X0322201Y0065665D01*
X0321324Y0066542D01*
X0321555Y0066773D01*
X0321555Y0066773D01*
X0321555Y0066773D01*
X0322198Y0067416D01*
X0322815Y0068033D01*
X0322815Y0068932D01*
X0322815Y0069814D01*
X0322815Y0071048D01*
X0321707Y0072156D01*
X0323384Y0072156D01*
X0323412Y0072185D01*
X0323412Y0071410D01*
X0323412Y0068033D01*
X0324672Y0066773D01*
X0325289Y0066156D01*
X0328922Y0066156D01*
X0330181Y0067416D01*
X0330181Y0070431D01*
X0328947Y0071665D01*
X0328947Y0072178D01*
X0328969Y0072156D01*
X0330779Y0072156D01*
X0330779Y0067416D01*
X0332038Y0066156D01*
X0334789Y0066156D01*
X0335671Y0066156D01*
X0336004Y0066490D01*
X0336338Y0066156D01*
X0342137Y0066156D01*
X0343037Y0066156D01*
X0343062Y0066182D01*
X0343062Y0066181D01*
X0344322Y0064922D01*
X0346720Y0064922D01*
X0347980Y0066181D01*
X0348597Y0066798D01*
X0348597Y0071665D01*
X0347337Y0072925D01*
X0345556Y0072925D01*
X0345212Y0072581D01*
X0344869Y0072925D01*
X0343087Y0072925D01*
X0343062Y0072900D01*
X0343037Y0072925D01*
X0342420Y0072925D01*
X0341185Y0074159D01*
X0339404Y0074159D01*
X0338170Y0072925D01*
X0337670Y0072925D01*
X0338161Y0073416D01*
X0338161Y0077665D01*
X0336902Y0078925D01*
X0335667Y0080159D01*
X0333886Y0080159D01*
X0333552Y0079825D01*
X0333219Y0080159D01*
X0327754Y0080159D01*
X0327410Y0079815D01*
X0327067Y0080159D01*
X0325286Y0080159D01*
X0325260Y0080134D01*
X0325235Y0080159D01*
X0321602Y0080159D01*
X0321577Y0080134D01*
X0321552Y0080159D01*
X0320318Y0080159D01*
X0320318Y0080159D01*
X0319418Y0080159D01*
X0318536Y0080159D01*
X0317902Y0079525D01*
X0317277Y0078900D01*
X0317277Y0078900D01*
X0316660Y0078283D01*
X0316660Y0078283D01*
X0316660Y0078283D01*
X0316660Y0077401D01*
X0316660Y0074033D01*
X0317277Y0073416D01*
X0317845Y0072847D01*
X0317801Y0072803D01*
X0317267Y0072910D01*
X0316062Y0074114D01*
X0316062Y0077048D01*
X0315445Y0077666D01*
X0314834Y0078277D01*
X0314803Y0078308D01*
X0314186Y0078925D01*
X0314186Y0078925D01*
X0314186Y0078925D01*
X0313304Y0078925D01*
X0310553Y0078925D01*
X0310528Y0078900D01*
X0310503Y0078925D01*
X0307487Y0078925D01*
X0307153Y0078591D01*
X0306819Y0078925D01*
X0305585Y0078925D01*
X0304988Y0078925D01*
X0303753Y0080159D01*
X0299504Y0080159D01*
X0298244Y0078900D01*
X0298244Y0077119D01*
X0299478Y0075884D01*
X0299478Y0073416D01*
X0300738Y0072156D01*
X0302519Y0072156D01*
X0303161Y0072799D01*
X0303187Y0072773D01*
X0303804Y0072156D01*
X0305610Y0072156D01*
X0305610Y0071119D01*
X0306845Y0069884D01*
X0306845Y0068134D01*
X0305610Y0066900D01*
X0305610Y0061416D01*
X0305809Y0061217D01*
X0305780Y0061069D01*
X0305610Y0060900D01*
X0305610Y0060222D01*
X0305477Y0059558D01*
X0305610Y0059358D01*
X0305610Y0055416D01*
X0306177Y0054849D01*
X0305610Y0054283D01*
X0305610Y0054283D01*
X0305610Y0053401D01*
X0305610Y0050033D01*
X0306228Y0049416D01*
X0306485Y0049158D01*
X0306228Y0048900D01*
X0306228Y0048900D01*
X0306227Y0048899D01*
X0305610Y0048283D01*
X0305610Y0048283D01*
X0305610Y0047383D01*
X0305610Y0044033D01*
X0307487Y0042156D01*
X0309639Y0042156D01*
X0310502Y0042156D01*
X0310502Y0042156D01*
X0311120Y0042156D01*
X0312379Y0043416D01*
X0312379Y0044951D01*
X0312379Y0045814D01*
X0312379Y0048156D01*
X0313286Y0048156D01*
X0314186Y0048156D01*
X0314519Y0048490D01*
X0314853Y0048156D01*
X0319700Y0048156D01*
X0319824Y0048280D01*
X0320210Y0048023D01*
X0321484Y0048278D01*
X0321606Y0048156D01*
X0325238Y0048156D01*
X0326498Y0049416D01*
X0325625Y0048543D02*
X0333504Y0048543D01*
X0333861Y0048900D02*
X0333861Y0048900D01*
X0333244Y0046944D02*
X0312379Y0046944D01*
X0312379Y0045814D02*
X0312379Y0045814D01*
X0312379Y0045346D02*
X0333393Y0045346D01*
X0333244Y0043747D02*
X0312379Y0043747D01*
X0305896Y0043747D02*
X0195519Y0043747D01*
X0197118Y0045346D02*
X0305610Y0045346D01*
X0305610Y0046944D02*
X0198716Y0046944D01*
X0199594Y0048543D02*
X0305870Y0048543D01*
X0305610Y0048283D02*
X0305610Y0048283D01*
X0305610Y0050141D02*
X0291102Y0050141D01*
X0291328Y0050306D02*
X0291890Y0050868D01*
X0292357Y0051510D01*
X0292718Y0052218D01*
X0292963Y0052974D01*
X0293087Y0053759D01*
X0293087Y0053873D01*
X0288322Y0053873D01*
X0288322Y0049108D01*
X0288437Y0049108D01*
X0289221Y0049232D01*
X0289977Y0049478D01*
X0290685Y0049839D01*
X0291328Y0050306D01*
X0292474Y0051740D02*
X0305610Y0051740D01*
X0305610Y0053338D02*
X0293021Y0053338D01*
X0293087Y0054439D02*
X0293087Y0054553D01*
X0292963Y0055338D01*
X0292718Y0056094D01*
X0292357Y0056802D01*
X0291890Y0057445D01*
X0291328Y0058007D01*
X0290685Y0058474D01*
X0289977Y0058834D01*
X0289221Y0059080D01*
X0288437Y0059204D01*
X0288322Y0059204D01*
X0288322Y0054439D01*
X0287757Y0054439D01*
X0287757Y0059204D01*
X0287642Y0059204D01*
X0286857Y0059080D01*
X0286102Y0058834D01*
X0285394Y0058474D01*
X0284751Y0058007D01*
X0284189Y0057445D01*
X0283722Y0056802D01*
X0283361Y0056094D01*
X0283116Y0055338D01*
X0282991Y0054553D01*
X0282991Y0054439D01*
X0287757Y0054439D01*
X0287757Y0053873D01*
X0288322Y0053873D01*
X0288322Y0054439D01*
X0293087Y0054439D01*
X0293027Y0054937D02*
X0306089Y0054937D01*
X0305610Y0054283D02*
X0305610Y0054283D01*
X0305610Y0056535D02*
X0292493Y0056535D01*
X0291153Y0058134D02*
X0305610Y0058134D01*
X0305512Y0059732D02*
X0250595Y0059732D01*
X0249977Y0058834D02*
X0249221Y0059080D01*
X0248437Y0059204D01*
X0248322Y0059204D01*
X0248322Y0054439D01*
X0247757Y0054439D01*
X0247757Y0059204D01*
X0247642Y0059204D01*
X0246857Y0059080D01*
X0246102Y0058834D01*
X0245394Y0058474D01*
X0244751Y0058007D01*
X0244189Y0057445D01*
X0243722Y0056802D01*
X0243361Y0056094D01*
X0243116Y0055338D01*
X0242991Y0054553D01*
X0242991Y0054439D01*
X0247757Y0054439D01*
X0247757Y0053873D01*
X0248322Y0053873D01*
X0248322Y0049108D01*
X0248437Y0049108D01*
X0249221Y0049232D01*
X0249977Y0049478D01*
X0250685Y0049839D01*
X0251328Y0050306D01*
X0251890Y0050868D01*
X0252357Y0051510D01*
X0252718Y0052218D01*
X0252963Y0052974D01*
X0253087Y0053759D01*
X0253087Y0053873D01*
X0248322Y0053873D01*
X0248322Y0054439D01*
X0253087Y0054439D01*
X0253087Y0054553D01*
X0252963Y0055338D01*
X0252718Y0056094D01*
X0252357Y0056802D01*
X0251890Y0057445D01*
X0251328Y0058007D01*
X0250685Y0058474D01*
X0249977Y0058834D01*
X0251153Y0058134D02*
X0259005Y0058134D01*
X0259476Y0058605D02*
X0258000Y0057129D01*
X0257201Y0055200D01*
X0257201Y0053112D01*
X0258000Y0051183D01*
X0259476Y0049707D01*
X0261405Y0048908D01*
X0263493Y0048908D01*
X0265422Y0049707D01*
X0266898Y0051183D01*
X0267697Y0053112D01*
X0267697Y0055200D01*
X0266898Y0057129D01*
X0265422Y0058605D01*
X0263493Y0059404D01*
X0261405Y0059404D01*
X0259476Y0058605D01*
X0257754Y0056535D02*
X0252493Y0056535D01*
X0253027Y0054937D02*
X0257201Y0054937D01*
X0257201Y0053338D02*
X0253021Y0053338D01*
X0252474Y0051740D02*
X0257769Y0051740D01*
X0259042Y0050141D02*
X0251102Y0050141D01*
X0248322Y0050141D02*
X0247757Y0050141D01*
X0247757Y0049108D02*
X0247757Y0053873D01*
X0242991Y0053873D01*
X0242991Y0053759D01*
X0243116Y0052974D01*
X0243361Y0052218D01*
X0243722Y0051510D01*
X0244189Y0050868D01*
X0244751Y0050306D01*
X0245394Y0049839D01*
X0246102Y0049478D01*
X0246857Y0049232D01*
X0247642Y0049108D01*
X0247757Y0049108D01*
X0247757Y0051740D02*
X0248322Y0051740D01*
X0248322Y0053338D02*
X0247757Y0053338D01*
X0247757Y0054937D02*
X0248322Y0054937D01*
X0248322Y0056535D02*
X0247757Y0056535D01*
X0247757Y0058134D02*
X0248322Y0058134D01*
X0244926Y0058134D02*
X0225893Y0058134D01*
X0225422Y0058605D02*
X0223493Y0059404D01*
X0221405Y0059404D01*
X0219476Y0058605D01*
X0218000Y0057129D01*
X0217201Y0055200D01*
X0217201Y0053112D01*
X0218000Y0051183D01*
X0219476Y0049707D01*
X0221405Y0048908D01*
X0223493Y0048908D01*
X0225422Y0049707D01*
X0226898Y0051183D01*
X0227697Y0053112D01*
X0227697Y0055200D01*
X0226898Y0057129D01*
X0225422Y0058605D01*
X0227144Y0056535D02*
X0243586Y0056535D01*
X0243052Y0054937D02*
X0227697Y0054937D01*
X0227697Y0053338D02*
X0243058Y0053338D01*
X0243605Y0051740D02*
X0227128Y0051740D01*
X0225856Y0050141D02*
X0244977Y0050141D01*
X0252753Y0061331D02*
X0305695Y0061331D01*
X0305610Y0062929D02*
X0254351Y0062929D01*
X0255950Y0064528D02*
X0305610Y0064528D01*
X0305610Y0066126D02*
X0257548Y0066126D01*
X0259147Y0067725D02*
X0306435Y0067725D01*
X0306845Y0069323D02*
X0260745Y0069323D01*
X0255174Y0072520D02*
X0254844Y0072520D01*
X0254844Y0072251D02*
X0254844Y0076062D01*
X0254452Y0076454D01*
X0256718Y0078720D01*
X0257144Y0079749D01*
X0257144Y0094006D01*
X0257377Y0094006D01*
X0260394Y0097023D01*
X0260394Y0101289D01*
X0257377Y0104306D01*
X0253111Y0104306D01*
X0250094Y0101289D01*
X0250094Y0097023D01*
X0251544Y0095573D01*
X0251544Y0081466D01*
X0248858Y0078780D01*
X0248834Y0078756D01*
X0248339Y0078756D01*
X0245644Y0076062D01*
X0245644Y0072251D01*
X0248339Y0069556D01*
X0252149Y0069556D01*
X0254844Y0072251D01*
X0253576Y0070922D02*
X0253515Y0070922D01*
X0251977Y0069323D02*
X0191711Y0069323D01*
X0193309Y0067725D02*
X0250379Y0067725D01*
X0248780Y0066126D02*
X0194908Y0066126D01*
X0189337Y0062929D02*
X0185160Y0062929D01*
X0186851Y0061331D02*
X0190935Y0061331D01*
X0192534Y0059732D02*
X0187294Y0059732D01*
X0187039Y0058134D02*
X0193394Y0058134D01*
X0193394Y0056535D02*
X0192738Y0056535D01*
X0192753Y0054937D02*
X0193394Y0054937D01*
X0193394Y0053338D02*
X0189169Y0053338D01*
X0189169Y0053303D02*
X0192753Y0053303D01*
X0192753Y0050494D01*
X0192630Y0050036D01*
X0192393Y0049626D01*
X0192058Y0049291D01*
X0191648Y0049054D01*
X0191190Y0048931D01*
X0189169Y0048931D01*
X0189169Y0053303D01*
X0189169Y0051740D02*
X0188800Y0051740D01*
X0188800Y0050141D02*
X0189169Y0050141D01*
X0189080Y0048543D02*
X0191547Y0048543D01*
X0192658Y0050141D02*
X0193145Y0050141D01*
X0193394Y0051740D02*
X0192753Y0051740D01*
X0189169Y0054937D02*
X0188800Y0054937D01*
X0188800Y0056535D02*
X0189169Y0056535D01*
X0183494Y0059506D02*
X0181544Y0057556D01*
X0181544Y0053656D01*
X0181504Y0053487D01*
X0177535Y0056535D02*
X0173461Y0056535D01*
X0173461Y0058134D02*
X0178598Y0058134D01*
X0179694Y0059732D02*
X0173461Y0059732D01*
X0173461Y0061331D02*
X0180137Y0061331D01*
X0181829Y0062929D02*
X0173461Y0062929D01*
X0173461Y0064528D02*
X0187738Y0064528D01*
X0186140Y0066126D02*
X0173461Y0066126D01*
X0173316Y0067725D02*
X0184541Y0067725D01*
X0182794Y0069323D02*
X0182745Y0069323D01*
X0190112Y0070922D02*
X0246973Y0070922D01*
X0245644Y0072520D02*
X0190394Y0072520D01*
X0190394Y0074119D02*
X0245644Y0074119D01*
X0245644Y0075717D02*
X0190394Y0075717D01*
X0189367Y0077316D02*
X0246899Y0077316D01*
X0248993Y0078914D02*
X0187769Y0078914D01*
X0182719Y0078914D02*
X0174370Y0078914D01*
X0174370Y0077316D02*
X0181121Y0077316D01*
X0180094Y0075717D02*
X0173768Y0075717D01*
X0174370Y0080513D02*
X0250591Y0080513D01*
X0251544Y0082112D02*
X0174370Y0082112D01*
X0174370Y0083710D02*
X0251544Y0083710D01*
X0251544Y0085309D02*
X0174370Y0085309D01*
X0174370Y0086907D02*
X0251544Y0086907D01*
X0251544Y0088506D02*
X0174370Y0088506D01*
X0174054Y0090104D02*
X0182296Y0090104D01*
X0183194Y0089206D02*
X0180294Y0092106D01*
X0180294Y0094156D01*
X0185244Y0094156D01*
X0185244Y0094156D01*
X0185244Y0089206D01*
X0183194Y0089206D01*
X0185244Y0089206D02*
X0187294Y0089206D01*
X0190194Y0092106D01*
X0190194Y0094156D01*
X0185244Y0094156D01*
X0185244Y0094156D01*
X0185244Y0089206D01*
X0185244Y0090104D02*
X0185244Y0090104D01*
X0185244Y0091703D02*
X0185244Y0091703D01*
X0185244Y0093301D02*
X0185244Y0093301D01*
X0185244Y0094156D02*
X0185244Y0094156D01*
X0180294Y0094156D01*
X0180294Y0096207D01*
X0183194Y0099106D01*
X0185244Y0099106D01*
X0185244Y0094156D01*
X0185244Y0094156D01*
X0190194Y0094156D01*
X0190194Y0096207D01*
X0187294Y0099106D01*
X0185244Y0099106D01*
X0185244Y0094156D01*
X0185244Y0094900D02*
X0185244Y0094900D01*
X0185244Y0096498D02*
X0185244Y0096498D01*
X0185244Y0098097D02*
X0185244Y0098097D01*
X0182184Y0098097D02*
X0149544Y0098097D01*
X0149544Y0099695D02*
X0250094Y0099695D01*
X0250094Y0098097D02*
X0188304Y0098097D01*
X0189902Y0096498D02*
X0250619Y0096498D01*
X0251544Y0094900D02*
X0190194Y0094900D01*
X0190194Y0093301D02*
X0251544Y0093301D01*
X0251544Y0091703D02*
X0189791Y0091703D01*
X0188192Y0090104D02*
X0251544Y0090104D01*
X0257144Y0090104D02*
X0300244Y0090104D01*
X0300244Y0088506D02*
X0257144Y0088506D01*
X0257144Y0086907D02*
X0300244Y0086907D01*
X0300244Y0085309D02*
X0257144Y0085309D01*
X0257144Y0083710D02*
X0300845Y0083710D01*
X0301005Y0083324D02*
X0302412Y0081917D01*
X0304250Y0081156D01*
X0306239Y0081156D01*
X0308076Y0081917D01*
X0309483Y0083324D01*
X0310244Y0085162D01*
X0310244Y0093151D01*
X0309483Y0094988D01*
X0308076Y0096395D01*
X0306239Y0097156D01*
X0304250Y0097156D01*
X0302412Y0096395D01*
X0301005Y0094988D01*
X0300244Y0093151D01*
X0300244Y0085162D01*
X0301005Y0083324D01*
X0302218Y0082112D02*
X0257144Y0082112D01*
X0257144Y0080513D02*
X0357841Y0080513D01*
X0356243Y0078914D02*
X0336912Y0078914D01*
X0338161Y0077316D02*
X0354644Y0077316D01*
X0353046Y0075717D02*
X0338161Y0075717D01*
X0338161Y0074119D02*
X0339364Y0074119D01*
X0341226Y0074119D02*
X0350033Y0074119D01*
X0348925Y0072520D02*
X0347742Y0072520D01*
X0348597Y0070922D02*
X0348694Y0070922D01*
X0348597Y0069323D02*
X0349161Y0069323D01*
X0348597Y0067725D02*
X0350969Y0067725D01*
X0354019Y0067725D02*
X0365644Y0067725D01*
X0365644Y0067251D02*
X0368339Y0064556D01*
X0372149Y0064556D01*
X0374844Y0067251D01*
X0374844Y0071062D01*
X0372149Y0073756D01*
X0368339Y0073756D01*
X0365644Y0071062D01*
X0365644Y0067251D01*
X0366768Y0066126D02*
X0347925Y0066126D01*
X0343117Y0066126D02*
X0321740Y0066126D01*
X0322201Y0064528D02*
X0398444Y0064528D01*
X0398444Y0064556D02*
X0398444Y0063916D01*
X0398220Y0063692D01*
X0398182Y0063599D01*
X0395644Y0061062D01*
X0395644Y0057251D01*
X0398339Y0054556D01*
X0402149Y0054556D01*
X0404844Y0057251D01*
X0404844Y0061062D01*
X0403945Y0061960D01*
X0404044Y0062199D01*
X0404044Y0066451D01*
X0404844Y0067251D01*
X0404844Y0071062D01*
X0402149Y0073756D01*
X0398339Y0073756D01*
X0395644Y0071062D01*
X0395644Y0067251D01*
X0398339Y0064556D01*
X0398444Y0064556D01*
X0397512Y0062929D02*
X0372693Y0062929D01*
X0372067Y0063556D02*
X0370244Y0063556D01*
X0368422Y0063556D01*
X0365844Y0060979D01*
X0365844Y0059156D01*
X0365844Y0057334D01*
X0368422Y0054756D01*
X0370244Y0054756D01*
X0370244Y0059156D01*
X0370244Y0059156D01*
X0365844Y0059156D01*
X0370244Y0059156D01*
X0370244Y0059156D01*
X0370244Y0054756D01*
X0372067Y0054756D01*
X0374644Y0057334D01*
X0374644Y0059156D01*
X0370244Y0059156D01*
X0370244Y0059156D01*
X0370244Y0063556D01*
X0370244Y0059156D01*
X0370244Y0059156D01*
X0374644Y0059156D01*
X0374644Y0060979D01*
X0372067Y0063556D01*
X0370244Y0062929D02*
X0370244Y0062929D01*
X0370244Y0061331D02*
X0370244Y0061331D01*
X0370244Y0059732D02*
X0370244Y0059732D01*
X0370244Y0058134D02*
X0370244Y0058134D01*
X0370244Y0056535D02*
X0370244Y0056535D01*
X0370244Y0054937D02*
X0370244Y0054937D01*
X0368241Y0054937D02*
X0321105Y0054937D01*
X0322201Y0056033D02*
X0322201Y0056033D01*
X0322201Y0056033D01*
X0322201Y0056535D02*
X0366642Y0056535D01*
X0365844Y0058134D02*
X0322201Y0058134D01*
X0322201Y0057814D02*
X0322201Y0057814D01*
X0321517Y0059732D02*
X0365844Y0059732D01*
X0366196Y0061331D02*
X0322116Y0061331D01*
X0322201Y0062929D02*
X0367795Y0062929D01*
X0373720Y0066126D02*
X0396768Y0066126D01*
X0395644Y0067725D02*
X0374844Y0067725D01*
X0374844Y0069323D02*
X0395644Y0069323D01*
X0395644Y0070922D02*
X0374844Y0070922D01*
X0373385Y0072520D02*
X0397103Y0072520D01*
X0400244Y0069156D02*
X0400594Y0068606D01*
X0400594Y0067306D01*
X0401244Y0066656D01*
X0401244Y0062756D01*
X0400594Y0062106D01*
X0400594Y0059506D01*
X0400244Y0059156D01*
X0395644Y0059732D02*
X0374644Y0059732D01*
X0374644Y0058134D02*
X0395644Y0058134D01*
X0396360Y0056535D02*
X0373846Y0056535D01*
X0372247Y0054937D02*
X0397958Y0054937D01*
X0402530Y0054937D02*
X0416611Y0054937D01*
X0416050Y0053338D02*
X0326498Y0053338D01*
X0326498Y0051740D02*
X0415715Y0051740D01*
X0417445Y0056535D02*
X0404129Y0056535D01*
X0404844Y0058134D02*
X0418634Y0058134D01*
X0420332Y0059732D02*
X0404844Y0059732D01*
X0404575Y0061331D02*
X0422832Y0061331D01*
X0404044Y0062929D02*
X0442145Y0062929D01*
X0442145Y0064528D02*
X0404044Y0064528D01*
X0404044Y0066126D02*
X0442145Y0066126D01*
X0442145Y0067725D02*
X0404844Y0067725D01*
X0404844Y0069323D02*
X0442145Y0069323D01*
X0442145Y0070922D02*
X0404844Y0070922D01*
X0403385Y0072520D02*
X0442145Y0072520D01*
X0442145Y0074119D02*
X0359367Y0074119D01*
X0360965Y0075717D02*
X0442145Y0075717D01*
X0442145Y0077316D02*
X0362564Y0077316D01*
X0364162Y0078914D02*
X0442145Y0078914D01*
X0442145Y0080513D02*
X0365761Y0080513D01*
X0367359Y0082112D02*
X0442145Y0082112D01*
X0416144Y0083710D02*
X0368958Y0083710D01*
X0370556Y0085309D02*
X0397944Y0085309D01*
X0397944Y0086907D02*
X0372155Y0086907D01*
X0371344Y0090056D02*
X0352494Y0071206D01*
X0356294Y0070922D02*
X0365644Y0070922D01*
X0365644Y0069323D02*
X0355827Y0069323D01*
X0357768Y0072520D02*
X0367103Y0072520D01*
X0359440Y0082112D02*
X0338270Y0082112D01*
X0338076Y0081917D02*
X0339483Y0083324D01*
X0340244Y0085162D01*
X0340244Y0093151D01*
X0339483Y0094988D01*
X0338076Y0096395D01*
X0336239Y0097156D01*
X0334250Y0097156D01*
X0332412Y0096395D01*
X0331005Y0094988D01*
X0330244Y0093151D01*
X0330244Y0085162D01*
X0331005Y0083324D01*
X0332412Y0081917D01*
X0334250Y0081156D01*
X0336239Y0081156D01*
X0338076Y0081917D01*
X0339643Y0083710D02*
X0361038Y0083710D01*
X0362637Y0085309D02*
X0340244Y0085309D01*
X0340244Y0086907D02*
X0364235Y0086907D01*
X0365834Y0088506D02*
X0340244Y0088506D01*
X0340244Y0090104D02*
X0367432Y0090104D01*
X0369031Y0091703D02*
X0340244Y0091703D01*
X0340182Y0093301D02*
X0397289Y0093301D01*
X0397344Y0097206D02*
X0401894Y0092656D01*
X0401894Y0089406D01*
X0402244Y0089156D01*
X0401244Y0090056D01*
X0371344Y0090056D01*
X0364015Y0094900D02*
X0339520Y0094900D01*
X0337944Y0096498D02*
X0337827Y0096498D01*
X0335944Y0098097D02*
X0280194Y0098097D01*
X0280194Y0097106D02*
X0280194Y0099156D01*
X0275244Y0099156D01*
X0275244Y0099156D01*
X0275244Y0094206D01*
X0273194Y0094206D01*
X0270294Y0097106D01*
X0270294Y0099156D01*
X0275244Y0099156D01*
X0275244Y0099156D01*
X0275244Y0094206D01*
X0277294Y0094206D01*
X0280194Y0097106D01*
X0279586Y0096498D02*
X0302661Y0096498D01*
X0300969Y0094900D02*
X0277988Y0094900D01*
X0275244Y0094900D02*
X0275244Y0094900D01*
X0275244Y0096498D02*
X0275244Y0096498D01*
X0275244Y0098097D02*
X0275244Y0098097D01*
X0275244Y0099156D02*
X0275244Y0099156D01*
X0270294Y0099156D01*
X0270294Y0101207D01*
X0273194Y0104106D01*
X0275244Y0104106D01*
X0275244Y0099156D01*
X0275244Y0099156D01*
X0280194Y0099156D01*
X0280194Y0101207D01*
X0277294Y0104106D01*
X0275244Y0104106D01*
X0275244Y0099156D01*
X0275244Y0099695D02*
X0275244Y0099695D01*
X0275244Y0101294D02*
X0275244Y0101294D01*
X0275244Y0102892D02*
X0275244Y0102892D01*
X0271980Y0102892D02*
X0258791Y0102892D01*
X0260390Y0101294D02*
X0270381Y0101294D01*
X0270294Y0099695D02*
X0260394Y0099695D01*
X0260394Y0098097D02*
X0270294Y0098097D01*
X0270902Y0096498D02*
X0259869Y0096498D01*
X0258271Y0094900D02*
X0272500Y0094900D01*
X0280194Y0099695D02*
X0334345Y0099695D01*
X0332747Y0101294D02*
X0280107Y0101294D01*
X0278508Y0102892D02*
X0331148Y0102892D01*
X0329550Y0104491D02*
X0149544Y0104491D01*
X0149544Y0106089D02*
X0327951Y0106089D01*
X0326353Y0107688D02*
X0149544Y0107688D01*
X0149544Y0109286D02*
X0281854Y0109286D01*
X0280256Y0110885D02*
X0149544Y0110885D01*
X0149544Y0112483D02*
X0278657Y0112483D01*
X0277059Y0114082D02*
X0149544Y0114082D01*
X0149544Y0115680D02*
X0275460Y0115680D01*
X0273862Y0117279D02*
X0254976Y0117279D01*
X0256575Y0118877D02*
X0272263Y0118877D01*
X0270665Y0120476D02*
X0263069Y0120476D01*
X0264668Y0122074D02*
X0269066Y0122074D01*
X0267468Y0123673D02*
X0264844Y0123673D01*
X0264844Y0125271D02*
X0265869Y0125271D01*
X0264271Y0126870D02*
X0264036Y0126870D01*
X0262672Y0128468D02*
X0262437Y0128468D01*
X0262794Y0132306D02*
X0230294Y0132306D01*
X0195844Y0166756D01*
X0195844Y0168706D01*
X0195244Y0169156D01*
X0194544Y0169356D01*
X0192594Y0169356D01*
X0188044Y0173906D01*
X0182194Y0173906D01*
X0179098Y0171628D02*
X0160390Y0171628D01*
X0160944Y0170030D02*
X0187961Y0170030D01*
X0189559Y0168431D02*
X0182475Y0168431D01*
X0182149Y0168756D02*
X0178339Y0168756D01*
X0175644Y0166062D01*
X0175644Y0162251D01*
X0178339Y0159556D01*
X0182149Y0159556D01*
X0184844Y0162251D01*
X0184844Y0166062D01*
X0182149Y0168756D01*
X0184073Y0166833D02*
X0190284Y0166833D01*
X0191883Y0165234D02*
X0184844Y0165234D01*
X0184844Y0163636D02*
X0195005Y0163636D01*
X0196603Y0162037D02*
X0184630Y0162037D01*
X0183032Y0160439D02*
X0198202Y0160439D01*
X0197067Y0158556D02*
X0195244Y0158556D01*
X0193422Y0158556D01*
X0190844Y0155979D01*
X0190844Y0154156D01*
X0190844Y0152334D01*
X0193422Y0149756D01*
X0195244Y0149756D01*
X0195244Y0154156D01*
X0195244Y0154156D01*
X0190844Y0154156D01*
X0195244Y0154156D01*
X0195244Y0154156D01*
X0195244Y0149756D01*
X0197067Y0149756D01*
X0199644Y0152334D01*
X0199644Y0154156D01*
X0195244Y0154156D01*
X0195244Y0154156D01*
X0195244Y0158556D01*
X0195244Y0154156D01*
X0195244Y0154156D01*
X0199644Y0154156D01*
X0199644Y0155979D01*
X0197067Y0158556D01*
X0198381Y0157242D02*
X0201399Y0157242D01*
X0199800Y0158840D02*
X0177194Y0158840D01*
X0177194Y0158863D02*
X0176768Y0159892D01*
X0174627Y0162033D01*
X0174844Y0162251D01*
X0174844Y0166062D01*
X0172149Y0168756D01*
X0168339Y0168756D01*
X0165644Y0166062D01*
X0165644Y0162251D01*
X0168339Y0159556D01*
X0169184Y0159556D01*
X0171594Y0157146D01*
X0171594Y0155799D01*
X0172020Y0154770D01*
X0172808Y0153982D01*
X0175687Y0151104D01*
X0175644Y0151062D01*
X0175644Y0147251D01*
X0176639Y0146256D01*
X0173567Y0146256D01*
X0174644Y0147334D01*
X0174644Y0149156D01*
X0170244Y0149156D01*
X0170244Y0149156D01*
X0170244Y0144756D01*
X0168422Y0144756D01*
X0165844Y0147334D01*
X0165844Y0149156D01*
X0170244Y0149156D01*
X0170244Y0149156D01*
X0170244Y0144756D01*
X0171839Y0144756D01*
X0170644Y0143562D01*
X0170644Y0142916D01*
X0160320Y0132592D01*
X0159894Y0131563D01*
X0159894Y0127956D01*
X0157949Y0127956D01*
X0157149Y0128756D01*
X0153339Y0128756D01*
X0150644Y0126062D01*
X0150644Y0122251D01*
X0153339Y0119556D01*
X0157149Y0119556D01*
X0159844Y0122251D01*
X0159844Y0122356D01*
X0164944Y0122356D01*
X0164944Y0121961D01*
X0168049Y0118856D01*
X0172439Y0118856D01*
X0175244Y0121661D01*
X0178049Y0118856D01*
X0182439Y0118856D01*
X0185544Y0121961D01*
X0185544Y0126351D01*
X0182439Y0129456D01*
X0178049Y0129456D01*
X0175244Y0126651D01*
X0172439Y0129456D01*
X0168049Y0129456D01*
X0166549Y0127956D01*
X0165494Y0127956D01*
X0165494Y0129846D01*
X0173021Y0137374D01*
X0173339Y0137056D01*
X0177149Y0137056D01*
X0179844Y0139751D01*
X0179844Y0143562D01*
X0178849Y0144556D01*
X0182149Y0144556D01*
X0184844Y0147251D01*
X0184844Y0151062D01*
X0182149Y0153756D01*
X0180954Y0153756D01*
X0177194Y0157516D01*
X0177194Y0158863D01*
X0177456Y0160439D02*
X0176221Y0160439D01*
X0175858Y0162037D02*
X0174630Y0162037D01*
X0174844Y0163636D02*
X0175644Y0163636D01*
X0175644Y0165234D02*
X0174844Y0165234D01*
X0174073Y0166833D02*
X0176415Y0166833D01*
X0178014Y0168431D02*
X0172475Y0168431D01*
X0168014Y0168431D02*
X0160944Y0168431D01*
X0160451Y0166833D02*
X0166415Y0166833D01*
X0165644Y0165234D02*
X0159383Y0165234D01*
X0156811Y0163636D02*
X0165644Y0163636D01*
X0165858Y0162037D02*
X0149544Y0162037D01*
X0149544Y0160439D02*
X0167456Y0160439D01*
X0169900Y0158840D02*
X0149544Y0158840D01*
X0149544Y0157242D02*
X0152107Y0157242D01*
X0150844Y0155979D02*
X0150844Y0154156D01*
X0150844Y0152334D01*
X0153422Y0149756D01*
X0155244Y0149756D01*
X0155244Y0154156D01*
X0155244Y0154156D01*
X0150844Y0154156D01*
X0155244Y0154156D01*
X0155244Y0154156D01*
X0155244Y0149756D01*
X0157067Y0149756D01*
X0159644Y0152334D01*
X0159644Y0154156D01*
X0155244Y0154156D01*
X0155244Y0154156D01*
X0155244Y0158556D01*
X0153422Y0158556D01*
X0150844Y0155979D01*
X0150844Y0155643D02*
X0149544Y0155643D01*
X0149544Y0154045D02*
X0150844Y0154045D01*
X0150844Y0152446D02*
X0149544Y0152446D01*
X0149544Y0150847D02*
X0152330Y0150847D01*
X0155244Y0150847D02*
X0155244Y0150847D01*
X0155244Y0152446D02*
X0155244Y0152446D01*
X0155244Y0154045D02*
X0155244Y0154045D01*
X0155244Y0154156D02*
X0159644Y0154156D01*
X0159644Y0155979D01*
X0157067Y0158556D01*
X0155244Y0158556D01*
X0155244Y0154156D01*
X0155244Y0154156D01*
X0155244Y0155643D02*
X0155244Y0155643D01*
X0155244Y0157242D02*
X0155244Y0157242D01*
X0158381Y0157242D02*
X0171499Y0157242D01*
X0171659Y0155643D02*
X0159644Y0155643D01*
X0159644Y0154045D02*
X0172746Y0154045D01*
X0172067Y0153556D02*
X0174644Y0150979D01*
X0174644Y0149156D01*
X0170244Y0149156D01*
X0165844Y0149156D01*
X0165844Y0150979D01*
X0168422Y0153556D01*
X0170244Y0153556D01*
X0170244Y0149156D01*
X0170244Y0149156D01*
X0170244Y0149156D01*
X0170244Y0153556D01*
X0172067Y0153556D01*
X0173177Y0152446D02*
X0174344Y0152446D01*
X0174644Y0150847D02*
X0175644Y0150847D01*
X0175644Y0149249D02*
X0174644Y0149249D01*
X0174644Y0147650D02*
X0175644Y0147650D01*
X0178952Y0144453D02*
X0214187Y0144453D01*
X0215786Y0142855D02*
X0179844Y0142855D01*
X0179844Y0141256D02*
X0216320Y0141256D01*
X0215103Y0139658D02*
X0179751Y0139658D01*
X0178153Y0138059D02*
X0214794Y0138059D01*
X0215183Y0136461D02*
X0172109Y0136461D01*
X0170510Y0134862D02*
X0216616Y0134862D01*
X0219527Y0133264D02*
X0168912Y0133264D01*
X0167313Y0131665D02*
X0221125Y0131665D01*
X0222724Y0130067D02*
X0165715Y0130067D01*
X0165494Y0128468D02*
X0167061Y0128468D01*
X0162694Y0131006D02*
X0173094Y0141406D01*
X0175044Y0141406D01*
X0175244Y0141656D01*
X0171536Y0144453D02*
X0149544Y0144453D01*
X0149544Y0142855D02*
X0170583Y0142855D01*
X0168985Y0141256D02*
X0149544Y0141256D01*
X0149544Y0139658D02*
X0167386Y0139658D01*
X0165788Y0138059D02*
X0149544Y0138059D01*
X0149544Y0136461D02*
X0164189Y0136461D01*
X0162591Y0134862D02*
X0149544Y0134862D01*
X0149544Y0133264D02*
X0160992Y0133264D01*
X0159936Y0131665D02*
X0149544Y0131665D01*
X0149544Y0130067D02*
X0159894Y0130067D01*
X0159894Y0128468D02*
X0157437Y0128468D01*
X0153051Y0128468D02*
X0149544Y0128468D01*
X0149544Y0126870D02*
X0151452Y0126870D01*
X0150644Y0125271D02*
X0149544Y0125271D01*
X0149544Y0123673D02*
X0150644Y0123673D01*
X0150821Y0122074D02*
X0149544Y0122074D01*
X0149544Y0120476D02*
X0152419Y0120476D01*
X0149544Y0118877D02*
X0168028Y0118877D01*
X0166429Y0120476D02*
X0158069Y0120476D01*
X0159668Y0122074D02*
X0164944Y0122074D01*
X0167244Y0124506D02*
X0169844Y0124506D01*
X0170244Y0124156D01*
X0167244Y0124506D02*
X0166594Y0125156D01*
X0162694Y0125156D01*
X0162694Y0131006D01*
X0173427Y0128468D02*
X0177061Y0128468D01*
X0175462Y0126870D02*
X0175026Y0126870D01*
X0183427Y0128468D02*
X0193051Y0128468D01*
X0193339Y0128756D02*
X0190644Y0126062D01*
X0190644Y0122251D01*
X0193339Y0119556D01*
X0197149Y0119556D01*
X0199844Y0122251D01*
X0199844Y0126062D01*
X0197149Y0128756D01*
X0193339Y0128756D01*
X0191452Y0126870D02*
X0185026Y0126870D01*
X0185544Y0125271D02*
X0190644Y0125271D01*
X0190644Y0123673D02*
X0185544Y0123673D01*
X0185544Y0122074D02*
X0190821Y0122074D01*
X0192419Y0120476D02*
X0184059Y0120476D01*
X0182461Y0118877D02*
X0233028Y0118877D01*
X0231429Y0120476D02*
X0223069Y0120476D01*
X0224668Y0122074D02*
X0229944Y0122074D01*
X0232244Y0124506D02*
X0234844Y0124506D01*
X0235244Y0124156D01*
X0232244Y0124506D02*
X0231594Y0125156D01*
X0227694Y0125156D01*
X0227694Y0129056D01*
X0218594Y0138156D01*
X0225304Y0141256D02*
X0235644Y0141256D01*
X0235644Y0142855D02*
X0223705Y0142855D01*
X0222107Y0144453D02*
X0236536Y0144453D01*
X0235244Y0146052D02*
X0235244Y0146052D01*
X0235244Y0147650D02*
X0235244Y0147650D01*
X0235244Y0149156D02*
X0239644Y0149156D01*
X0239644Y0150979D01*
X0237067Y0153556D01*
X0235244Y0153556D01*
X0235244Y0149156D01*
X0235244Y0149156D01*
X0235244Y0149249D02*
X0235244Y0149249D01*
X0235244Y0150847D02*
X0235244Y0150847D01*
X0235244Y0152446D02*
X0235244Y0152446D01*
X0232311Y0152446D02*
X0224644Y0152446D01*
X0224644Y0152334D02*
X0224644Y0154156D01*
X0220244Y0154156D01*
X0220244Y0154156D01*
X0220244Y0149756D01*
X0218422Y0149756D01*
X0215844Y0152334D01*
X0215844Y0154156D01*
X0220244Y0154156D01*
X0220244Y0154156D01*
X0220244Y0149756D01*
X0222067Y0149756D01*
X0224644Y0152334D01*
X0224644Y0154045D02*
X0237746Y0154045D01*
X0238177Y0152446D02*
X0239344Y0152446D01*
X0239644Y0150847D02*
X0240644Y0150847D01*
X0240644Y0149249D02*
X0239644Y0149249D01*
X0239644Y0147650D02*
X0240644Y0147650D01*
X0245244Y0149156D02*
X0245244Y0150506D01*
X0239394Y0156356D01*
X0239394Y0158306D01*
X0235494Y0162206D01*
X0235494Y0164156D01*
X0235244Y0164156D01*
X0230644Y0163636D02*
X0221811Y0163636D01*
X0224383Y0165234D02*
X0230644Y0165234D01*
X0231415Y0166833D02*
X0225451Y0166833D01*
X0225944Y0168431D02*
X0233014Y0168431D01*
X0237475Y0168431D02*
X0243014Y0168431D01*
X0243339Y0168756D02*
X0240644Y0166062D01*
X0240644Y0162251D01*
X0243339Y0159556D01*
X0247149Y0159556D01*
X0249844Y0162251D01*
X0249844Y0166062D01*
X0247149Y0168756D01*
X0243339Y0168756D01*
X0241415Y0166833D02*
X0239073Y0166833D01*
X0239844Y0165234D02*
X0240644Y0165234D01*
X0240644Y0163636D02*
X0239844Y0163636D01*
X0239630Y0162037D02*
X0240858Y0162037D01*
X0241221Y0160439D02*
X0242456Y0160439D01*
X0242194Y0158840D02*
X0268700Y0158840D01*
X0267102Y0160439D02*
X0248032Y0160439D01*
X0249630Y0162037D02*
X0265503Y0162037D01*
X0263905Y0163636D02*
X0249844Y0163636D01*
X0249844Y0165234D02*
X0256883Y0165234D01*
X0255284Y0166833D02*
X0249073Y0166833D01*
X0247475Y0168431D02*
X0255094Y0168431D01*
X0255094Y0170030D02*
X0225944Y0170030D01*
X0225390Y0171628D02*
X0255433Y0171628D01*
X0254964Y0173227D02*
X0224235Y0173227D01*
X0221453Y0174825D02*
X0253690Y0174825D01*
X0253494Y0176424D02*
X0217211Y0176424D01*
X0218809Y0174825D02*
X0219035Y0174825D01*
X0215612Y0178022D02*
X0253494Y0178022D01*
X0253494Y0179621D02*
X0214014Y0179621D01*
X0212224Y0181219D02*
X0252821Y0181219D01*
X0251223Y0182818D02*
X0052044Y0182818D01*
X0052044Y0184416D02*
X0086923Y0184416D01*
X0087015Y0184324D02*
X0089110Y0183456D01*
X0091378Y0183456D01*
X0093473Y0184324D01*
X0095076Y0185927D01*
X0095944Y0188022D01*
X0095944Y0190290D01*
X0095076Y0192385D01*
X0094929Y0192532D01*
X0098118Y0195720D01*
X0098544Y0196749D01*
X0098544Y0204581D01*
X0098647Y0204581D01*
X0099819Y0205753D01*
X0099819Y0212559D01*
X0098647Y0213731D01*
X0091841Y0213731D01*
X0090669Y0212559D01*
X0090669Y0205753D01*
X0091841Y0204581D01*
X0092944Y0204581D01*
X0092944Y0198466D01*
X0089334Y0194856D01*
X0089110Y0194856D01*
X0087015Y0193988D01*
X0085412Y0192385D01*
X0084544Y0190290D01*
X0084544Y0188022D01*
X0085412Y0185927D01*
X0087015Y0184324D01*
X0085376Y0186015D02*
X0052044Y0186015D01*
X0052044Y0187613D02*
X0084714Y0187613D01*
X0084544Y0189212D02*
X0052044Y0189212D01*
X0052044Y0190810D02*
X0084760Y0190810D01*
X0085436Y0192409D02*
X0052044Y0192409D01*
X0052044Y0194007D02*
X0087061Y0194007D01*
X0090084Y0195606D02*
X0052044Y0195606D01*
X0052044Y0197204D02*
X0091682Y0197204D01*
X0092944Y0198803D02*
X0052044Y0198803D01*
X0052044Y0200401D02*
X0092944Y0200401D01*
X0092944Y0202000D02*
X0052044Y0202000D01*
X0070731Y0203598D02*
X0092944Y0203598D01*
X0091225Y0205197D02*
X0073545Y0205197D01*
X0075372Y0206795D02*
X0090669Y0206795D01*
X0090669Y0208394D02*
X0076578Y0208394D01*
X0077455Y0209992D02*
X0090669Y0209992D01*
X0090669Y0211591D02*
X0078069Y0211591D01*
X0078457Y0213189D02*
X0091299Y0213189D01*
X0095244Y0209156D02*
X0095744Y0209006D01*
X0095744Y0197306D01*
X0090544Y0192106D01*
X0090544Y0189506D01*
X0090244Y0189156D01*
X0095944Y0189212D02*
X0125294Y0189212D01*
X0125294Y0189156D02*
X0130244Y0189156D01*
X0130244Y0189156D01*
X0130244Y0184206D01*
X0128194Y0184206D01*
X0125294Y0187106D01*
X0125294Y0189156D01*
X0130244Y0189156D01*
X0130244Y0189156D01*
X0130244Y0184206D01*
X0132294Y0184206D01*
X0135194Y0187106D01*
X0135194Y0189156D01*
X0130244Y0189156D01*
X0130244Y0189156D01*
X0130244Y0194106D01*
X0128194Y0194106D01*
X0125294Y0191207D01*
X0125294Y0189156D01*
X0125294Y0187613D02*
X0095775Y0187613D01*
X0095112Y0186015D02*
X0126385Y0186015D01*
X0127984Y0184416D02*
X0093565Y0184416D01*
X0096425Y0179621D02*
X0052044Y0179621D01*
X0052044Y0181219D02*
X0149564Y0181219D01*
X0152015Y0184324D02*
X0154110Y0183456D01*
X0156378Y0183456D01*
X0158473Y0184324D01*
X0160076Y0185927D01*
X0160944Y0188022D01*
X0160944Y0190290D01*
X0160076Y0192385D01*
X0159929Y0192532D01*
X0163118Y0195720D01*
X0163544Y0196749D01*
X0163544Y0204581D01*
X0163647Y0204581D01*
X0164819Y0205753D01*
X0164819Y0212559D01*
X0163647Y0213731D01*
X0156841Y0213731D01*
X0155669Y0212559D01*
X0155669Y0205753D01*
X0156841Y0204581D01*
X0157944Y0204581D01*
X0157944Y0198466D01*
X0154334Y0194856D01*
X0154110Y0194856D01*
X0152015Y0193988D01*
X0150412Y0192385D01*
X0149544Y0190290D01*
X0149544Y0188022D01*
X0150412Y0185927D01*
X0152015Y0184324D01*
X0151923Y0184416D02*
X0132505Y0184416D01*
X0134103Y0186015D02*
X0150376Y0186015D01*
X0149714Y0187613D02*
X0135194Y0187613D01*
X0135194Y0189156D02*
X0130244Y0189156D01*
X0130244Y0189156D01*
X0130244Y0194106D01*
X0132294Y0194106D01*
X0135194Y0191207D01*
X0135194Y0189156D01*
X0135194Y0189212D02*
X0149544Y0189212D01*
X0149760Y0190810D02*
X0135194Y0190810D01*
X0133992Y0192409D02*
X0150436Y0192409D01*
X0152061Y0194007D02*
X0132393Y0194007D01*
X0130244Y0194007D02*
X0130244Y0194007D01*
X0130244Y0192409D02*
X0130244Y0192409D01*
X0130244Y0190810D02*
X0130244Y0190810D01*
X0130244Y0189212D02*
X0130244Y0189212D01*
X0130244Y0187613D02*
X0130244Y0187613D01*
X0130244Y0186015D02*
X0130244Y0186015D01*
X0130244Y0184416D02*
X0130244Y0184416D01*
X0125294Y0190810D02*
X0118404Y0190810D01*
X0117149Y0189556D02*
X0119844Y0192251D01*
X0119844Y0196062D01*
X0117149Y0198756D01*
X0113339Y0198756D01*
X0110644Y0196062D01*
X0110644Y0192251D01*
X0113339Y0189556D01*
X0117149Y0189556D01*
X0119844Y0192409D02*
X0126496Y0192409D01*
X0128095Y0194007D02*
X0119844Y0194007D01*
X0119844Y0195606D02*
X0155084Y0195606D01*
X0156682Y0197204D02*
X0118701Y0197204D01*
X0111787Y0197204D02*
X0108701Y0197204D01*
X0109844Y0196062D02*
X0107149Y0198756D01*
X0106172Y0198756D01*
X0106051Y0198806D01*
X0104937Y0198806D01*
X0104816Y0198756D01*
X0103339Y0198756D01*
X0100644Y0196062D01*
X0100644Y0192251D01*
X0103339Y0189556D01*
X0107149Y0189556D01*
X0109844Y0192251D01*
X0109844Y0196062D01*
X0109844Y0195606D02*
X0110644Y0195606D01*
X0110644Y0194007D02*
X0109844Y0194007D01*
X0109844Y0192409D02*
X0110644Y0192409D01*
X0112085Y0190810D02*
X0108404Y0190810D01*
X0105244Y0194156D02*
X0105494Y0194706D01*
X0105494Y0196006D01*
X0104929Y0198803D02*
X0098544Y0198803D01*
X0098544Y0200401D02*
X0157944Y0200401D01*
X0157944Y0198803D02*
X0106059Y0198803D01*
X0101787Y0197204D02*
X0098544Y0197204D01*
X0098004Y0195606D02*
X0100644Y0195606D01*
X0100644Y0194007D02*
X0096405Y0194007D01*
X0095052Y0192409D02*
X0100644Y0192409D01*
X0102085Y0190810D02*
X0095729Y0190810D01*
X0098544Y0202000D02*
X0157944Y0202000D01*
X0157944Y0203598D02*
X0098544Y0203598D01*
X0099263Y0205197D02*
X0102848Y0205197D01*
X0102653Y0205278D02*
X0104334Y0204581D01*
X0106154Y0204581D01*
X0107836Y0205278D01*
X0109122Y0206565D01*
X0109819Y0208246D01*
X0109819Y0210066D01*
X0109122Y0211748D01*
X0107836Y0213034D01*
X0106154Y0213731D01*
X0104334Y0213731D01*
X0102653Y0213034D01*
X0101366Y0211748D01*
X0100669Y0210066D01*
X0100669Y0208246D01*
X0101366Y0206565D01*
X0102653Y0205278D01*
X0101270Y0206795D02*
X0099819Y0206795D01*
X0099819Y0208394D02*
X0100669Y0208394D01*
X0100669Y0209992D02*
X0099819Y0209992D01*
X0099819Y0211591D02*
X0101301Y0211591D01*
X0103027Y0213189D02*
X0099189Y0213189D01*
X0107461Y0213189D02*
X0113027Y0213189D01*
X0112653Y0213034D02*
X0111366Y0211748D01*
X0110669Y0210066D01*
X0110669Y0208246D01*
X0111366Y0206565D01*
X0112653Y0205278D01*
X0114334Y0204581D01*
X0116154Y0204581D01*
X0117836Y0205278D01*
X0119122Y0206565D01*
X0119819Y0208246D01*
X0119819Y0210066D01*
X0119122Y0211748D01*
X0117836Y0213034D01*
X0116154Y0213731D01*
X0114334Y0213731D01*
X0112653Y0213034D01*
X0111301Y0211591D02*
X0109187Y0211591D01*
X0109819Y0209992D02*
X0110669Y0209992D01*
X0110669Y0208394D02*
X0109819Y0208394D01*
X0109218Y0206795D02*
X0111270Y0206795D01*
X0112848Y0205197D02*
X0107640Y0205197D01*
X0105494Y0208356D02*
X0105494Y0209006D01*
X0105244Y0209156D01*
X0117461Y0213189D02*
X0123524Y0213189D01*
X0123565Y0213210D02*
X0122951Y0212898D01*
X0122394Y0212493D01*
X0121907Y0212006D01*
X0121502Y0211449D01*
X0121190Y0210835D01*
X0120977Y0210181D01*
X0120869Y0209500D01*
X0120869Y0209156D01*
X0120869Y0208812D01*
X0120977Y0208132D01*
X0121190Y0207477D01*
X0121502Y0206863D01*
X0121907Y0206306D01*
X0122394Y0205819D01*
X0122951Y0205414D01*
X0123565Y0205102D01*
X0124220Y0204889D01*
X0124900Y0204781D01*
X0125244Y0204781D01*
X0125244Y0209156D01*
X0125244Y0209156D01*
X0120869Y0209156D01*
X0125244Y0209156D01*
X0125244Y0209156D01*
X0125244Y0204781D01*
X0125588Y0204781D01*
X0126269Y0204889D01*
X0126923Y0205102D01*
X0127537Y0205414D01*
X0128094Y0205819D01*
X0128581Y0206306D01*
X0128986Y0206863D01*
X0129298Y0207477D01*
X0129511Y0208132D01*
X0129619Y0208812D01*
X0129619Y0209156D01*
X0125244Y0209156D01*
X0125244Y0209156D01*
X0125244Y0213531D01*
X0124900Y0213531D01*
X0124220Y0213423D01*
X0123565Y0213210D01*
X0125244Y0213189D02*
X0125244Y0213189D01*
X0125244Y0213531D02*
X0125588Y0213531D01*
X0126269Y0213423D01*
X0126923Y0213210D01*
X0127537Y0212898D01*
X0128094Y0212493D01*
X0128581Y0212006D01*
X0128986Y0211449D01*
X0129298Y0210835D01*
X0129511Y0210181D01*
X0129619Y0209500D01*
X0129619Y0209156D01*
X0125244Y0209156D01*
X0125244Y0209156D01*
X0125244Y0213531D01*
X0126965Y0213189D02*
X0156299Y0213189D01*
X0155669Y0211591D02*
X0128883Y0211591D01*
X0129541Y0209992D02*
X0155669Y0209992D01*
X0155669Y0208394D02*
X0129553Y0208394D01*
X0128936Y0206795D02*
X0155669Y0206795D01*
X0156225Y0205197D02*
X0127110Y0205197D01*
X0125244Y0205197D02*
X0125244Y0205197D01*
X0125244Y0206795D02*
X0125244Y0206795D01*
X0125244Y0208394D02*
X0125244Y0208394D01*
X0125244Y0209992D02*
X0125244Y0209992D01*
X0125244Y0211591D02*
X0125244Y0211591D01*
X0121605Y0211591D02*
X0119187Y0211591D01*
X0119819Y0209992D02*
X0120947Y0209992D01*
X0120935Y0208394D02*
X0119819Y0208394D01*
X0119218Y0206795D02*
X0121552Y0206795D01*
X0123378Y0205197D02*
X0117640Y0205197D01*
X0155544Y0192106D02*
X0155544Y0189506D01*
X0155244Y0189156D01*
X0155544Y0192106D02*
X0160744Y0197306D01*
X0160744Y0209006D01*
X0160244Y0209156D01*
X0164819Y0208394D02*
X0165669Y0208394D01*
X0165669Y0208246D02*
X0166366Y0206565D01*
X0167653Y0205278D01*
X0169334Y0204581D01*
X0171154Y0204581D01*
X0172836Y0205278D01*
X0174122Y0206565D01*
X0174819Y0208246D01*
X0174819Y0210066D01*
X0174122Y0211748D01*
X0172836Y0213034D01*
X0171154Y0213731D01*
X0169334Y0213731D01*
X0167653Y0213034D01*
X0166366Y0211748D01*
X0165669Y0210066D01*
X0165669Y0208246D01*
X0166270Y0206795D02*
X0164819Y0206795D01*
X0164263Y0205197D02*
X0167848Y0205197D01*
X0170494Y0208356D02*
X0170494Y0209006D01*
X0170244Y0209156D01*
X0174218Y0206795D02*
X0176270Y0206795D01*
X0176366Y0206565D02*
X0177653Y0205278D01*
X0179334Y0204581D01*
X0181154Y0204581D01*
X0182836Y0205278D01*
X0184122Y0206565D01*
X0184819Y0208246D01*
X0184819Y0210066D01*
X0184122Y0211748D01*
X0182836Y0213034D01*
X0181154Y0213731D01*
X0179334Y0213731D01*
X0177653Y0213034D01*
X0176366Y0211748D01*
X0175669Y0210066D01*
X0175669Y0208246D01*
X0176366Y0206565D01*
X0175669Y0208394D02*
X0174819Y0208394D01*
X0174819Y0209992D02*
X0175669Y0209992D01*
X0176301Y0211591D02*
X0174187Y0211591D01*
X0172461Y0213189D02*
X0178027Y0213189D01*
X0182461Y0213189D02*
X0188524Y0213189D01*
X0188565Y0213210D02*
X0187951Y0212898D01*
X0187394Y0212493D01*
X0186907Y0212006D01*
X0186502Y0211449D01*
X0186190Y0210835D01*
X0185977Y0210181D01*
X0185869Y0209500D01*
X0185869Y0209156D01*
X0185869Y0208812D01*
X0185977Y0208132D01*
X0186190Y0207477D01*
X0186502Y0206863D01*
X0186907Y0206306D01*
X0187394Y0205819D01*
X0187951Y0205414D01*
X0188565Y0205102D01*
X0189220Y0204889D01*
X0189900Y0204781D01*
X0190244Y0204781D01*
X0190244Y0209156D01*
X0190244Y0209156D01*
X0185869Y0209156D01*
X0190244Y0209156D01*
X0190244Y0209156D01*
X0190244Y0204781D01*
X0190588Y0204781D01*
X0191269Y0204889D01*
X0191923Y0205102D01*
X0192537Y0205414D01*
X0193094Y0205819D01*
X0193581Y0206306D01*
X0193986Y0206863D01*
X0194298Y0207477D01*
X0194511Y0208132D01*
X0194619Y0208812D01*
X0194619Y0209156D01*
X0190244Y0209156D01*
X0190244Y0209156D01*
X0190244Y0213531D01*
X0189900Y0213531D01*
X0189220Y0213423D01*
X0188565Y0213210D01*
X0190244Y0213189D02*
X0190244Y0213189D01*
X0190244Y0213531D02*
X0190588Y0213531D01*
X0191269Y0213423D01*
X0191923Y0213210D01*
X0192537Y0212898D01*
X0193094Y0212493D01*
X0193581Y0212006D01*
X0193986Y0211449D01*
X0194298Y0210835D01*
X0194511Y0210181D01*
X0194619Y0209500D01*
X0194619Y0209156D01*
X0190244Y0209156D01*
X0190244Y0209156D01*
X0190244Y0213531D01*
X0191965Y0213189D02*
X0221299Y0213189D01*
X0221841Y0213731D02*
X0220669Y0212559D01*
X0220669Y0205753D01*
X0221841Y0204581D01*
X0222944Y0204581D01*
X0222944Y0198466D01*
X0219334Y0194856D01*
X0219110Y0194856D01*
X0217015Y0193988D01*
X0215412Y0192385D01*
X0214544Y0190290D01*
X0214544Y0188022D01*
X0215412Y0185927D01*
X0217015Y0184324D01*
X0219110Y0183456D01*
X0221378Y0183456D01*
X0223473Y0184324D01*
X0225076Y0185927D01*
X0225944Y0188022D01*
X0225944Y0190290D01*
X0225076Y0192385D01*
X0224929Y0192532D01*
X0228118Y0195720D01*
X0228544Y0196749D01*
X0228544Y0204581D01*
X0228647Y0204581D01*
X0229819Y0205753D01*
X0229819Y0212559D01*
X0228647Y0213731D01*
X0221841Y0213731D01*
X0220669Y0211591D02*
X0193883Y0211591D01*
X0194541Y0209992D02*
X0220669Y0209992D01*
X0220669Y0208394D02*
X0194553Y0208394D01*
X0193936Y0206795D02*
X0220669Y0206795D01*
X0221225Y0205197D02*
X0192110Y0205197D01*
X0190244Y0205197D02*
X0190244Y0205197D01*
X0190244Y0206795D02*
X0190244Y0206795D01*
X0190244Y0208394D02*
X0190244Y0208394D01*
X0190244Y0209992D02*
X0190244Y0209992D01*
X0190244Y0211591D02*
X0190244Y0211591D01*
X0186605Y0211591D02*
X0184187Y0211591D01*
X0184819Y0209992D02*
X0185947Y0209992D01*
X0185935Y0208394D02*
X0184819Y0208394D01*
X0184218Y0206795D02*
X0186552Y0206795D01*
X0188378Y0205197D02*
X0182640Y0205197D01*
X0180244Y0208356D02*
X0180244Y0209156D01*
X0177848Y0205197D02*
X0172640Y0205197D01*
X0165669Y0209992D02*
X0164819Y0209992D01*
X0164819Y0211591D02*
X0166301Y0211591D01*
X0168027Y0213189D02*
X0164189Y0213189D01*
X0163544Y0203598D02*
X0222944Y0203598D01*
X0222944Y0202000D02*
X0163544Y0202000D01*
X0163544Y0200401D02*
X0222944Y0200401D01*
X0222944Y0198803D02*
X0180159Y0198803D01*
X0180151Y0198806D02*
X0179037Y0198806D01*
X0178916Y0198756D01*
X0178339Y0198756D01*
X0175644Y0196062D01*
X0175644Y0192251D01*
X0178339Y0189556D01*
X0182149Y0189556D01*
X0184844Y0192251D01*
X0184844Y0196062D01*
X0182149Y0198756D01*
X0180272Y0198756D01*
X0180151Y0198806D01*
X0179029Y0198803D02*
X0171059Y0198803D01*
X0171051Y0198806D02*
X0169937Y0198806D01*
X0169816Y0198756D01*
X0168339Y0198756D01*
X0165644Y0196062D01*
X0165644Y0192251D01*
X0168339Y0189556D01*
X0172149Y0189556D01*
X0174844Y0192251D01*
X0174844Y0196062D01*
X0172149Y0198756D01*
X0171172Y0198756D01*
X0171051Y0198806D01*
X0169929Y0198803D02*
X0163544Y0198803D01*
X0163544Y0197204D02*
X0166787Y0197204D01*
X0165644Y0195606D02*
X0163004Y0195606D01*
X0161405Y0194007D02*
X0165644Y0194007D01*
X0165644Y0192409D02*
X0160052Y0192409D01*
X0160729Y0190810D02*
X0167085Y0190810D01*
X0160944Y0189212D02*
X0190294Y0189212D01*
X0190294Y0189156D02*
X0195244Y0189156D01*
X0195244Y0189156D01*
X0195244Y0184206D01*
X0193194Y0184206D01*
X0190294Y0187106D01*
X0190294Y0189156D01*
X0195244Y0189156D01*
X0195244Y0189156D01*
X0195244Y0184206D01*
X0197294Y0184206D01*
X0200194Y0187106D01*
X0200194Y0189156D01*
X0195244Y0189156D01*
X0195244Y0189156D01*
X0195244Y0194106D01*
X0193194Y0194106D01*
X0190294Y0191207D01*
X0190294Y0189156D01*
X0190294Y0187613D02*
X0160775Y0187613D01*
X0160113Y0186015D02*
X0191385Y0186015D01*
X0192984Y0184416D02*
X0158565Y0184416D01*
X0173404Y0190810D02*
X0177085Y0190810D01*
X0175644Y0192409D02*
X0174844Y0192409D01*
X0174844Y0194007D02*
X0175644Y0194007D01*
X0175644Y0195606D02*
X0174844Y0195606D01*
X0173701Y0197204D02*
X0176787Y0197204D01*
X0179594Y0196006D02*
X0179594Y0195356D01*
X0180244Y0194706D01*
X0180244Y0194156D01*
X0184844Y0194007D02*
X0193095Y0194007D01*
X0195244Y0194007D02*
X0195244Y0194007D01*
X0195244Y0194106D02*
X0195244Y0189156D01*
X0195244Y0189156D01*
X0200194Y0189156D01*
X0200194Y0191207D01*
X0197294Y0194106D01*
X0195244Y0194106D01*
X0195244Y0192409D02*
X0195244Y0192409D01*
X0195244Y0190810D02*
X0195244Y0190810D01*
X0195244Y0189212D02*
X0195244Y0189212D01*
X0195244Y0187613D02*
X0195244Y0187613D01*
X0195244Y0186015D02*
X0195244Y0186015D01*
X0195244Y0184416D02*
X0195244Y0184416D01*
X0197505Y0184416D02*
X0216923Y0184416D01*
X0215376Y0186015D02*
X0199103Y0186015D01*
X0200194Y0187613D02*
X0214714Y0187613D01*
X0214544Y0189212D02*
X0200194Y0189212D01*
X0200194Y0190810D02*
X0214760Y0190810D01*
X0215436Y0192409D02*
X0198992Y0192409D01*
X0197393Y0194007D02*
X0217061Y0194007D01*
X0220084Y0195606D02*
X0184844Y0195606D01*
X0183701Y0197204D02*
X0221682Y0197204D01*
X0225744Y0197306D02*
X0220544Y0192106D01*
X0220544Y0189506D01*
X0220244Y0189156D01*
X0225944Y0189212D02*
X0244829Y0189212D01*
X0246427Y0187613D02*
X0225775Y0187613D01*
X0225112Y0186015D02*
X0248026Y0186015D01*
X0249624Y0184416D02*
X0223565Y0184416D01*
X0225729Y0190810D02*
X0232085Y0190810D01*
X0233339Y0189556D02*
X0237149Y0189556D01*
X0239844Y0192251D01*
X0239844Y0196062D01*
X0237149Y0198756D01*
X0236172Y0198756D01*
X0236051Y0198806D01*
X0234937Y0198806D01*
X0234816Y0198756D01*
X0233339Y0198756D01*
X0230644Y0196062D01*
X0230644Y0192251D01*
X0233339Y0189556D01*
X0230644Y0192409D02*
X0225052Y0192409D01*
X0226405Y0194007D02*
X0230644Y0194007D01*
X0230644Y0195606D02*
X0228004Y0195606D01*
X0228544Y0197204D02*
X0231787Y0197204D01*
X0234929Y0198803D02*
X0228544Y0198803D01*
X0228544Y0200401D02*
X0300944Y0200401D01*
X0300944Y0198803D02*
X0245159Y0198803D01*
X0244029Y0198803D02*
X0236059Y0198803D01*
X0235494Y0196006D02*
X0235494Y0194706D01*
X0235244Y0194156D01*
X0239844Y0194007D02*
X0240644Y0194007D01*
X0240644Y0192409D02*
X0239844Y0192409D01*
X0238404Y0190810D02*
X0242085Y0190810D01*
X0245244Y0193406D02*
X0245244Y0194156D01*
X0245244Y0194706D01*
X0244594Y0195356D01*
X0244594Y0196006D01*
X0245244Y0193406D02*
X0246544Y0192106D01*
X0246544Y0191456D01*
X0256294Y0181706D01*
X0256294Y0175856D01*
X0260194Y0171956D01*
X0260194Y0169356D01*
X0260244Y0169156D01*
X0260844Y0168706D01*
X0262794Y0168706D01*
X0280344Y0151156D01*
X0361594Y0151156D01*
X0373294Y0162856D01*
X0373294Y0168706D01*
X0373197Y0169166D01*
X0367377Y0168431D02*
X0367205Y0168431D01*
X0367205Y0166833D02*
X0367377Y0166833D01*
X0367377Y0165234D02*
X0367205Y0165234D01*
X0364024Y0165234D02*
X0323506Y0165234D01*
X0321908Y0163636D02*
X0370114Y0163636D01*
X0368515Y0162037D02*
X0320309Y0162037D01*
X0319844Y0160439D02*
X0366917Y0160439D01*
X0365318Y0158840D02*
X0319844Y0158840D01*
X0319835Y0157242D02*
X0363720Y0157242D01*
X0362121Y0155643D02*
X0318236Y0155643D01*
X0311620Y0162037D02*
X0308869Y0162037D01*
X0307270Y0163636D02*
X0313218Y0163636D01*
X0314738Y0165234D02*
X0270226Y0165234D01*
X0271824Y0163636D02*
X0303218Y0163636D01*
X0301620Y0162037D02*
X0273423Y0162037D01*
X0275021Y0160439D02*
X0300644Y0160439D01*
X0300644Y0158840D02*
X0276620Y0158840D01*
X0278219Y0157242D02*
X0300653Y0157242D01*
X0302252Y0155643D02*
X0279817Y0155643D01*
X0281416Y0154045D02*
X0360523Y0154045D01*
X0365245Y0150847D02*
X0369026Y0150847D01*
X0367427Y0149249D02*
X0363647Y0149249D01*
X0365829Y0147650D02*
X0249844Y0147650D01*
X0249844Y0149249D02*
X0278291Y0149249D01*
X0276693Y0150847D02*
X0263158Y0150847D01*
X0262067Y0149756D02*
X0264644Y0152334D01*
X0264644Y0154156D01*
X0260244Y0154156D01*
X0260244Y0154156D01*
X0260244Y0149756D01*
X0258422Y0149756D01*
X0255844Y0152334D01*
X0255844Y0154156D01*
X0260244Y0154156D01*
X0260244Y0154156D01*
X0260244Y0149756D01*
X0262067Y0149756D01*
X0260244Y0150847D02*
X0260244Y0150847D01*
X0260244Y0152446D02*
X0260244Y0152446D01*
X0260244Y0154045D02*
X0260244Y0154045D01*
X0260244Y0154156D02*
X0260244Y0154156D01*
X0255844Y0154156D01*
X0255844Y0155979D01*
X0258422Y0158556D01*
X0260244Y0158556D01*
X0260244Y0154156D01*
X0260244Y0154156D01*
X0264644Y0154156D01*
X0264644Y0155979D01*
X0262067Y0158556D01*
X0260244Y0158556D01*
X0260244Y0154156D01*
X0260244Y0155643D02*
X0260244Y0155643D01*
X0260244Y0157242D02*
X0260244Y0157242D01*
X0257107Y0157242D02*
X0242469Y0157242D01*
X0244067Y0155643D02*
X0255844Y0155643D01*
X0255844Y0154045D02*
X0245666Y0154045D01*
X0248460Y0152446D02*
X0255844Y0152446D01*
X0257330Y0150847D02*
X0249844Y0150847D01*
X0250444Y0144656D02*
X0246544Y0140756D01*
X0242644Y0140756D01*
X0241994Y0141406D01*
X0240694Y0141406D01*
X0240244Y0141656D01*
X0235737Y0139658D02*
X0226902Y0139658D01*
X0228501Y0138059D02*
X0237335Y0138059D01*
X0242094Y0136461D02*
X0230099Y0136461D01*
X0230494Y0128468D02*
X0232061Y0128468D01*
X0238427Y0128468D02*
X0242061Y0128468D01*
X0240462Y0126870D02*
X0240026Y0126870D01*
X0245244Y0124156D02*
X0245244Y0123856D01*
X0247844Y0123856D01*
X0252394Y0119306D01*
X0253044Y0119306D01*
X0257594Y0123856D01*
X0260194Y0123856D01*
X0260244Y0124156D01*
X0256452Y0126870D02*
X0250026Y0126870D01*
X0250544Y0125271D02*
X0255049Y0125271D01*
X0253451Y0123673D02*
X0251987Y0123673D01*
X0248863Y0118877D02*
X0247461Y0118877D01*
X0250462Y0117279D02*
X0149544Y0117279D01*
X0143344Y0117279D02*
X0124976Y0117279D01*
X0124630Y0116932D02*
X0125418Y0117720D01*
X0127796Y0120099D01*
X0128339Y0119556D01*
X0132149Y0119556D01*
X0134844Y0122251D01*
X0134844Y0126062D01*
X0132149Y0128756D01*
X0128339Y0128756D01*
X0125644Y0126062D01*
X0125644Y0125866D01*
X0122719Y0122941D01*
X0120544Y0125116D01*
X0120544Y0126351D01*
X0117439Y0129456D01*
X0113049Y0129456D01*
X0110244Y0126651D01*
X0107439Y0129456D01*
X0103049Y0129456D01*
X0101549Y0127956D01*
X0092949Y0127956D01*
X0092149Y0128756D01*
X0088339Y0128756D01*
X0085644Y0126062D01*
X0085644Y0122251D01*
X0088339Y0119556D01*
X0092149Y0119556D01*
X0094844Y0122251D01*
X0094844Y0122356D01*
X0099944Y0122356D01*
X0099944Y0121961D01*
X0103049Y0118856D01*
X0107439Y0118856D01*
X0110244Y0121661D01*
X0113049Y0118856D01*
X0117439Y0118856D01*
X0118162Y0119579D01*
X0120808Y0116932D01*
X0121837Y0116506D01*
X0123601Y0116506D01*
X0124630Y0116932D01*
X0126575Y0118877D02*
X0143344Y0118877D01*
X0143344Y0120476D02*
X0133069Y0120476D01*
X0134668Y0122074D02*
X0143344Y0122074D01*
X0143344Y0123673D02*
X0134844Y0123673D01*
X0134844Y0125271D02*
X0143344Y0125271D01*
X0143344Y0126870D02*
X0134036Y0126870D01*
X0132437Y0128468D02*
X0143344Y0128468D01*
X0143344Y0130067D02*
X0052044Y0130067D01*
X0052044Y0131665D02*
X0143344Y0131665D01*
X0143344Y0133264D02*
X0052044Y0133264D01*
X0052044Y0134862D02*
X0143344Y0134862D01*
X0143344Y0136461D02*
X0052044Y0136461D01*
X0052044Y0138059D02*
X0107335Y0138059D01*
X0108339Y0137056D02*
X0105644Y0139751D01*
X0105644Y0143562D01*
X0106839Y0144756D01*
X0105244Y0144756D01*
X0105244Y0149156D01*
X0105244Y0149156D01*
X0100844Y0149156D01*
X0100844Y0147334D01*
X0103422Y0144756D01*
X0105244Y0144756D01*
X0105244Y0149156D01*
X0105244Y0149156D01*
X0100844Y0149156D01*
X0100844Y0150979D01*
X0103422Y0153556D01*
X0105244Y0153556D01*
X0105244Y0149156D01*
X0105244Y0149156D01*
X0109644Y0149156D01*
X0109644Y0147334D01*
X0108567Y0146256D01*
X0111639Y0146256D01*
X0110644Y0147251D01*
X0110644Y0151062D01*
X0110687Y0151104D01*
X0107808Y0153982D01*
X0107020Y0154770D01*
X0106594Y0155799D01*
X0106594Y0157146D01*
X0104184Y0159556D01*
X0103339Y0159556D01*
X0100644Y0162251D01*
X0100644Y0166062D01*
X0103339Y0168756D01*
X0107149Y0168756D01*
X0109844Y0166062D01*
X0109844Y0162251D01*
X0109627Y0162033D01*
X0111768Y0159892D01*
X0112194Y0158863D01*
X0112194Y0157516D01*
X0115954Y0153756D01*
X0117149Y0153756D01*
X0119844Y0151062D01*
X0119844Y0147251D01*
X0117149Y0144556D01*
X0113849Y0144556D01*
X0114844Y0143562D01*
X0114844Y0139751D01*
X0112149Y0137056D01*
X0108339Y0137056D01*
X0105737Y0139658D02*
X0052044Y0139658D01*
X0052044Y0141256D02*
X0105644Y0141256D01*
X0105644Y0142855D02*
X0052044Y0142855D01*
X0052044Y0144453D02*
X0106536Y0144453D01*
X0105244Y0146052D02*
X0105244Y0146052D01*
X0105244Y0147650D02*
X0105244Y0147650D01*
X0105244Y0149156D02*
X0109644Y0149156D01*
X0109644Y0150979D01*
X0107067Y0153556D01*
X0105244Y0153556D01*
X0105244Y0149156D01*
X0105244Y0149156D01*
X0105244Y0149249D02*
X0105244Y0149249D01*
X0105244Y0150847D02*
X0105244Y0150847D01*
X0105244Y0152446D02*
X0105244Y0152446D01*
X0102311Y0152446D02*
X0094644Y0152446D01*
X0094644Y0152334D02*
X0094644Y0154156D01*
X0090244Y0154156D01*
X0090244Y0154156D01*
X0090244Y0149756D01*
X0088422Y0149756D01*
X0085844Y0152334D01*
X0085844Y0154156D01*
X0090244Y0154156D01*
X0090244Y0154156D01*
X0090244Y0149756D01*
X0092067Y0149756D01*
X0094644Y0152334D01*
X0094644Y0154045D02*
X0107746Y0154045D01*
X0108177Y0152446D02*
X0109344Y0152446D01*
X0109644Y0150847D02*
X0110644Y0150847D01*
X0110644Y0149249D02*
X0109644Y0149249D01*
X0109644Y0147650D02*
X0110644Y0147650D01*
X0113952Y0144453D02*
X0143344Y0144453D01*
X0143344Y0142855D02*
X0114844Y0142855D01*
X0114844Y0141256D02*
X0143344Y0141256D01*
X0143344Y0139658D02*
X0114751Y0139658D01*
X0113153Y0138059D02*
X0143344Y0138059D01*
X0143344Y0146052D02*
X0118645Y0146052D01*
X0119844Y0147650D02*
X0143344Y0147650D01*
X0143344Y0149249D02*
X0119844Y0149249D01*
X0119844Y0150847D02*
X0127330Y0150847D01*
X0128422Y0149756D02*
X0125844Y0152334D01*
X0125844Y0154156D01*
X0130244Y0154156D01*
X0130244Y0154156D01*
X0130244Y0149756D01*
X0128422Y0149756D01*
X0130244Y0149756D02*
X0132067Y0149756D01*
X0134644Y0152334D01*
X0134644Y0154156D01*
X0130244Y0154156D01*
X0130244Y0154156D01*
X0130244Y0149756D01*
X0130244Y0150847D02*
X0130244Y0150847D01*
X0130244Y0152446D02*
X0130244Y0152446D01*
X0130244Y0154045D02*
X0130244Y0154045D01*
X0130244Y0154156D02*
X0130244Y0154156D01*
X0125844Y0154156D01*
X0125844Y0155979D01*
X0128422Y0158556D01*
X0130244Y0158556D01*
X0130244Y0154156D01*
X0130244Y0154156D01*
X0134644Y0154156D01*
X0134644Y0155979D01*
X0132067Y0158556D01*
X0130244Y0158556D01*
X0130244Y0154156D01*
X0130244Y0155643D02*
X0130244Y0155643D01*
X0130244Y0157242D02*
X0130244Y0157242D01*
X0127107Y0157242D02*
X0112469Y0157242D01*
X0112194Y0158840D02*
X0143344Y0158840D01*
X0143344Y0157242D02*
X0133381Y0157242D01*
X0134644Y0155643D02*
X0143344Y0155643D01*
X0143344Y0154045D02*
X0134644Y0154045D01*
X0134644Y0152446D02*
X0143344Y0152446D01*
X0143344Y0150847D02*
X0133158Y0150847D01*
X0125844Y0152446D02*
X0118460Y0152446D01*
X0115666Y0154045D02*
X0125844Y0154045D01*
X0125844Y0155643D02*
X0114067Y0155643D01*
X0113339Y0159556D02*
X0117149Y0159556D01*
X0119844Y0162251D01*
X0119844Y0166062D01*
X0117149Y0168756D01*
X0113339Y0168756D01*
X0110644Y0166062D01*
X0110644Y0162251D01*
X0113339Y0159556D01*
X0112456Y0160439D02*
X0111221Y0160439D01*
X0110858Y0162037D02*
X0109630Y0162037D01*
X0109844Y0163636D02*
X0110644Y0163636D01*
X0110644Y0165234D02*
X0109844Y0165234D01*
X0109073Y0166833D02*
X0111415Y0166833D01*
X0113014Y0168431D02*
X0107475Y0168431D01*
X0103014Y0168431D02*
X0095944Y0168431D01*
X0095944Y0170030D02*
X0114404Y0170030D01*
X0113105Y0171628D02*
X0097200Y0171628D01*
X0098799Y0173227D02*
X0112744Y0173227D01*
X0116544Y0173256D02*
X0117194Y0173906D01*
X0123694Y0173906D01*
X0128244Y0169356D01*
X0130194Y0169356D01*
X0130244Y0169156D01*
X0126883Y0165234D02*
X0119844Y0165234D01*
X0119844Y0163636D02*
X0143344Y0163636D01*
X0143344Y0165234D02*
X0133605Y0165234D01*
X0135204Y0166833D02*
X0143344Y0166833D01*
X0143344Y0168431D02*
X0135394Y0168431D01*
X0135394Y0170030D02*
X0143344Y0170030D01*
X0143344Y0171628D02*
X0135055Y0171628D01*
X0133457Y0173227D02*
X0143344Y0173227D01*
X0149544Y0170030D02*
X0149544Y0170030D01*
X0149544Y0168431D02*
X0149544Y0168431D01*
X0149544Y0166833D02*
X0150037Y0166833D01*
X0149544Y0165234D02*
X0151105Y0165234D01*
X0149544Y0163636D02*
X0153677Y0163636D01*
X0143344Y0162037D02*
X0119630Y0162037D01*
X0118032Y0160439D02*
X0143344Y0160439D01*
X0159644Y0152446D02*
X0167311Y0152446D01*
X0165844Y0150847D02*
X0158158Y0150847D01*
X0165844Y0149249D02*
X0149544Y0149249D01*
X0149544Y0147650D02*
X0165844Y0147650D01*
X0167126Y0146052D02*
X0149544Y0146052D01*
X0170244Y0146052D02*
X0170244Y0146052D01*
X0170244Y0147650D02*
X0170244Y0147650D01*
X0170244Y0149249D02*
X0170244Y0149249D01*
X0170244Y0150847D02*
X0170244Y0150847D01*
X0170244Y0152446D02*
X0170244Y0152446D01*
X0174394Y0156356D02*
X0174394Y0158306D01*
X0170494Y0162206D01*
X0170494Y0164156D01*
X0170244Y0164156D01*
X0177469Y0157242D02*
X0192107Y0157242D01*
X0190844Y0155643D02*
X0179067Y0155643D01*
X0180666Y0154045D02*
X0190844Y0154045D01*
X0190844Y0152446D02*
X0183460Y0152446D01*
X0184844Y0150847D02*
X0192330Y0150847D01*
X0195244Y0150847D02*
X0195244Y0150847D01*
X0195244Y0152446D02*
X0195244Y0152446D01*
X0195244Y0154045D02*
X0195244Y0154045D01*
X0195244Y0155643D02*
X0195244Y0155643D01*
X0195244Y0157242D02*
X0195244Y0157242D01*
X0199644Y0155643D02*
X0202997Y0155643D01*
X0204596Y0154045D02*
X0199644Y0154045D01*
X0199644Y0152446D02*
X0206194Y0152446D01*
X0207793Y0150847D02*
X0198158Y0150847D01*
X0209391Y0149249D02*
X0184844Y0149249D01*
X0184844Y0147650D02*
X0210990Y0147650D01*
X0212589Y0146052D02*
X0183645Y0146052D01*
X0180244Y0149156D02*
X0180244Y0150506D01*
X0174394Y0156356D01*
X0200204Y0166833D02*
X0215037Y0166833D01*
X0214544Y0168431D02*
X0200394Y0168431D01*
X0200394Y0170030D02*
X0214544Y0170030D01*
X0213238Y0171628D02*
X0200055Y0171628D01*
X0198457Y0173227D02*
X0211640Y0173227D01*
X0210041Y0174825D02*
X0191085Y0174825D01*
X0178462Y0174825D02*
X0156453Y0174825D01*
X0154035Y0174825D02*
X0153809Y0174825D01*
X0159235Y0173227D02*
X0178394Y0173227D01*
X0201326Y0165234D02*
X0216105Y0165234D01*
X0218677Y0163636D02*
X0202924Y0163636D01*
X0204523Y0162037D02*
X0230858Y0162037D01*
X0232456Y0160439D02*
X0206121Y0160439D01*
X0207720Y0158840D02*
X0234900Y0158840D01*
X0236499Y0157242D02*
X0223381Y0157242D01*
X0224644Y0155979D02*
X0222067Y0158556D01*
X0220244Y0158556D01*
X0218422Y0158556D01*
X0215844Y0155979D01*
X0215844Y0154156D01*
X0220244Y0154156D01*
X0220244Y0154156D01*
X0220244Y0158556D01*
X0220244Y0154156D01*
X0220244Y0154156D01*
X0224644Y0154156D01*
X0224644Y0155979D01*
X0224644Y0155643D02*
X0236659Y0155643D01*
X0230844Y0150847D02*
X0223158Y0150847D01*
X0220244Y0150847D02*
X0220244Y0150847D01*
X0220244Y0152446D02*
X0220244Y0152446D01*
X0220244Y0154045D02*
X0220244Y0154045D01*
X0220244Y0155643D02*
X0220244Y0155643D01*
X0220244Y0157242D02*
X0220244Y0157242D01*
X0217107Y0157242D02*
X0209319Y0157242D01*
X0210917Y0155643D02*
X0215844Y0155643D01*
X0215844Y0154045D02*
X0212516Y0154045D01*
X0214114Y0152446D02*
X0215844Y0152446D01*
X0215713Y0150847D02*
X0217330Y0150847D01*
X0217311Y0149249D02*
X0230844Y0149249D01*
X0230844Y0147650D02*
X0218910Y0147650D01*
X0220508Y0146052D02*
X0232126Y0146052D01*
X0245894Y0136206D02*
X0251744Y0142056D01*
X0370694Y0142056D01*
X0390844Y0162206D01*
X0390844Y0168706D01*
X0390913Y0169166D01*
X0396694Y0168706D02*
X0396819Y0169166D01*
X0396694Y0168706D02*
X0396694Y0162206D01*
X0377844Y0143356D01*
X0375894Y0143356D01*
X0371994Y0139456D01*
X0331044Y0139456D01*
X0318044Y0126456D01*
X0272544Y0126456D01*
X0262794Y0136206D01*
X0251744Y0136206D01*
X0262794Y0132306D02*
X0283594Y0111506D01*
X0326494Y0111506D01*
X0338844Y0099156D01*
X0366794Y0099156D01*
X0367291Y0099146D01*
X0373197Y0099146D02*
X0373294Y0099156D01*
X0373294Y0105656D01*
X0364194Y0114756D01*
X0351844Y0114756D01*
X0347294Y0119306D01*
X0345344Y0119306D01*
X0345244Y0119156D01*
X0361890Y0126870D02*
X0375694Y0126870D01*
X0375694Y0128468D02*
X0360292Y0128468D01*
X0358693Y0130067D02*
X0375694Y0130067D01*
X0375694Y0131665D02*
X0357095Y0131665D01*
X0357468Y0131292D02*
X0356680Y0132080D01*
X0355651Y0132506D01*
X0353004Y0132506D01*
X0349844Y0135666D01*
X0349844Y0136062D01*
X0349249Y0136656D01*
X0372551Y0136656D01*
X0373580Y0137082D01*
X0374368Y0137870D01*
X0375694Y0139196D01*
X0375694Y0116325D01*
X0376163Y0115856D01*
X0399325Y0115856D01*
X0399794Y0116325D01*
X0399794Y0139488D01*
X0399325Y0139956D01*
X0376454Y0139956D01*
X0377054Y0140556D01*
X0378401Y0140556D01*
X0379430Y0140982D01*
X0380218Y0141770D01*
X0399068Y0160620D01*
X0399494Y0161649D01*
X0399494Y0164318D01*
X0399772Y0164595D01*
X0400124Y0164243D01*
X0405324Y0164243D01*
X0405677Y0164595D01*
X0406030Y0164243D01*
X0411230Y0164243D01*
X0411583Y0164595D01*
X0411935Y0164243D01*
X0416144Y0164243D01*
X0416144Y0103870D01*
X0414621Y0103870D01*
X0414621Y0099232D01*
X0414450Y0099232D01*
X0414450Y0103870D01*
X0412527Y0103870D01*
X0412069Y0103747D01*
X0411742Y0103558D01*
X0411230Y0104070D01*
X0406030Y0104070D01*
X0405979Y0104019D01*
X0406344Y0104900D01*
X0406344Y0106412D01*
X0405766Y0107809D01*
X0404697Y0108878D01*
X0403300Y0109456D01*
X0401788Y0109456D01*
X0400392Y0108878D01*
X0399323Y0107809D01*
X0398744Y0106412D01*
X0398744Y0104900D01*
X0399088Y0104070D01*
X0394219Y0104070D01*
X0393866Y0103717D01*
X0393644Y0103939D01*
X0393644Y0104055D01*
X0393994Y0104900D01*
X0393994Y0106412D01*
X0393416Y0107809D01*
X0392347Y0108878D01*
X0390950Y0109456D01*
X0389438Y0109456D01*
X0388042Y0108878D01*
X0386973Y0107809D01*
X0386394Y0106412D01*
X0386394Y0104900D01*
X0386821Y0103870D01*
X0385094Y0103870D01*
X0385094Y0099232D01*
X0384922Y0099232D01*
X0384922Y0103870D01*
X0382999Y0103870D01*
X0382541Y0103747D01*
X0382228Y0103566D01*
X0382594Y0104449D01*
X0382594Y0105563D01*
X0382168Y0106592D01*
X0357468Y0131292D01*
X0355094Y0129706D02*
X0351844Y0129706D01*
X0347294Y0134256D01*
X0345344Y0134256D01*
X0345244Y0134156D01*
X0349445Y0136461D02*
X0375694Y0136461D01*
X0375694Y0138059D02*
X0374557Y0138059D01*
X0375694Y0134862D02*
X0350648Y0134862D01*
X0352246Y0133264D02*
X0375694Y0133264D01*
X0375694Y0125271D02*
X0363489Y0125271D01*
X0365087Y0123673D02*
X0375694Y0123673D01*
X0375694Y0122074D02*
X0366686Y0122074D01*
X0368284Y0120476D02*
X0375694Y0120476D01*
X0375694Y0118877D02*
X0369883Y0118877D01*
X0371481Y0117279D02*
X0375694Y0117279D01*
X0373080Y0115680D02*
X0416144Y0115680D01*
X0416144Y0114082D02*
X0374678Y0114082D01*
X0376277Y0112483D02*
X0416144Y0112483D01*
X0416144Y0110885D02*
X0377875Y0110885D01*
X0379474Y0109286D02*
X0389028Y0109286D01*
X0391360Y0109286D02*
X0401378Y0109286D01*
X0403710Y0109286D02*
X0416144Y0109286D01*
X0416144Y0107688D02*
X0405816Y0107688D01*
X0406344Y0106089D02*
X0416144Y0106089D01*
X0416144Y0104491D02*
X0406174Y0104491D01*
X0402544Y0105656D02*
X0402544Y0099156D01*
X0402724Y0099146D01*
X0397344Y0098506D02*
X0396819Y0099146D01*
X0397344Y0098506D02*
X0397344Y0097206D01*
X0390913Y0099146D02*
X0390844Y0099156D01*
X0390844Y0105006D01*
X0390194Y0105656D01*
X0386564Y0104491D02*
X0382594Y0104491D01*
X0382376Y0106089D02*
X0386394Y0106089D01*
X0386923Y0107688D02*
X0381072Y0107688D01*
X0379794Y0105006D02*
X0355094Y0129706D01*
X0379704Y0141256D02*
X0416144Y0141256D01*
X0416144Y0139658D02*
X0399624Y0139658D01*
X0399794Y0138059D02*
X0416144Y0138059D01*
X0416144Y0136461D02*
X0399794Y0136461D01*
X0399794Y0134862D02*
X0416144Y0134862D01*
X0416144Y0133264D02*
X0399794Y0133264D01*
X0399794Y0131665D02*
X0416144Y0131665D01*
X0416144Y0130067D02*
X0399794Y0130067D01*
X0399794Y0128468D02*
X0416144Y0128468D01*
X0416144Y0126870D02*
X0399794Y0126870D01*
X0399794Y0125271D02*
X0416144Y0125271D01*
X0416144Y0123673D02*
X0399794Y0123673D01*
X0399794Y0122074D02*
X0416144Y0122074D01*
X0416144Y0120476D02*
X0399794Y0120476D01*
X0399794Y0118877D02*
X0416144Y0118877D01*
X0416144Y0117279D02*
X0399794Y0117279D01*
X0399273Y0107688D02*
X0393466Y0107688D01*
X0393994Y0106089D02*
X0398744Y0106089D01*
X0398914Y0104491D02*
X0393824Y0104491D01*
X0385094Y0102892D02*
X0384922Y0102892D01*
X0384922Y0101294D02*
X0385094Y0101294D01*
X0385094Y0099695D02*
X0384922Y0099695D01*
X0384922Y0098097D02*
X0385094Y0098097D01*
X0385094Y0096498D02*
X0384922Y0096498D01*
X0384922Y0094900D02*
X0385094Y0094900D01*
X0379144Y0099156D02*
X0379102Y0099146D01*
X0379144Y0099156D02*
X0379144Y0104356D01*
X0379794Y0105006D01*
X0408394Y0098506D02*
X0408630Y0099146D01*
X0408394Y0098506D02*
X0408394Y0089406D01*
X0408244Y0089156D01*
X0412544Y0088506D02*
X0416144Y0088506D01*
X0416144Y0090104D02*
X0412544Y0090104D01*
X0412544Y0091703D02*
X0416144Y0091703D01*
X0416144Y0093301D02*
X0412378Y0093301D01*
X0414450Y0094900D02*
X0414621Y0094900D01*
X0414621Y0096498D02*
X0414450Y0096498D01*
X0414450Y0098097D02*
X0414621Y0098097D01*
X0414621Y0099695D02*
X0414450Y0099695D01*
X0414450Y0101294D02*
X0414621Y0101294D01*
X0414621Y0102892D02*
X0414450Y0102892D01*
X0416144Y0086907D02*
X0412544Y0086907D01*
X0412544Y0085309D02*
X0416144Y0085309D01*
X0395913Y0061331D02*
X0374292Y0061331D01*
X0343037Y0066156D02*
X0343037Y0066156D01*
X0343037Y0066156D01*
X0335671Y0066156D02*
X0335671Y0066156D01*
X0335671Y0066156D01*
X0330779Y0067725D02*
X0330181Y0067725D01*
X0330181Y0069323D02*
X0330779Y0069323D01*
X0330779Y0070922D02*
X0329690Y0070922D01*
X0323412Y0070922D02*
X0322815Y0070922D01*
X0322815Y0069814D02*
X0322815Y0069814D01*
X0322815Y0069323D02*
X0323412Y0069323D01*
X0322815Y0068033D02*
X0322815Y0068033D01*
X0322815Y0068033D01*
X0322507Y0067725D02*
X0323720Y0067725D01*
X0316660Y0074119D02*
X0316062Y0074119D01*
X0316062Y0075717D02*
X0316660Y0075717D01*
X0316660Y0077316D02*
X0315795Y0077316D01*
X0315445Y0077666D02*
X0315445Y0077666D01*
X0314196Y0078914D02*
X0317292Y0078914D01*
X0318536Y0080159D02*
X0318536Y0080159D01*
X0318536Y0080159D01*
X0318076Y0081917D02*
X0316239Y0081156D01*
X0314250Y0081156D01*
X0312412Y0081917D01*
X0311005Y0083324D01*
X0310244Y0085162D01*
X0310244Y0093151D01*
X0311005Y0094988D01*
X0312412Y0096395D01*
X0314250Y0097156D01*
X0316239Y0097156D01*
X0318076Y0096395D01*
X0319483Y0094988D01*
X0320244Y0093151D01*
X0320244Y0085162D01*
X0319483Y0083324D01*
X0318076Y0081917D01*
X0318270Y0082112D02*
X0322645Y0082112D01*
X0322728Y0082051D02*
X0323402Y0081708D01*
X0324120Y0081474D01*
X0324866Y0081356D01*
X0325044Y0081356D01*
X0325044Y0088956D01*
X0325444Y0088956D01*
X0325444Y0081356D01*
X0325622Y0081356D01*
X0326368Y0081474D01*
X0327087Y0081708D01*
X0327760Y0082051D01*
X0328371Y0082495D01*
X0328905Y0083029D01*
X0329349Y0083640D01*
X0329692Y0084314D01*
X0329926Y0085032D01*
X0330044Y0085778D01*
X0330044Y0088956D01*
X0325444Y0088956D01*
X0325444Y0089356D01*
X0330044Y0089356D01*
X0330044Y0092534D01*
X0329926Y0093280D01*
X0329692Y0093999D01*
X0329349Y0094672D01*
X0328905Y0095283D01*
X0328371Y0095817D01*
X0327760Y0096261D01*
X0327087Y0096604D01*
X0326368Y0096838D01*
X0325622Y0096956D01*
X0325444Y0096956D01*
X0325444Y0089356D01*
X0325044Y0089356D01*
X0325044Y0088956D01*
X0320444Y0088956D01*
X0320444Y0085778D01*
X0320562Y0085032D01*
X0320796Y0084314D01*
X0321139Y0083640D01*
X0321583Y0083029D01*
X0322117Y0082495D01*
X0322728Y0082051D01*
X0325044Y0082112D02*
X0325444Y0082112D01*
X0325444Y0083710D02*
X0325044Y0083710D01*
X0325044Y0085309D02*
X0325444Y0085309D01*
X0325444Y0086907D02*
X0325044Y0086907D01*
X0325044Y0088506D02*
X0325444Y0088506D01*
X0325044Y0089356D02*
X0320444Y0089356D01*
X0320444Y0092534D01*
X0320562Y0093280D01*
X0320796Y0093999D01*
X0321139Y0094672D01*
X0321583Y0095283D01*
X0322117Y0095817D01*
X0322728Y0096261D01*
X0323402Y0096604D01*
X0324120Y0096838D01*
X0324866Y0096956D01*
X0325044Y0096956D01*
X0325044Y0089356D01*
X0325044Y0090104D02*
X0325444Y0090104D01*
X0325444Y0091703D02*
X0325044Y0091703D01*
X0325044Y0093301D02*
X0325444Y0093301D01*
X0325444Y0094900D02*
X0325044Y0094900D01*
X0325044Y0096498D02*
X0325444Y0096498D01*
X0327295Y0096498D02*
X0332661Y0096498D01*
X0330969Y0094900D02*
X0329184Y0094900D01*
X0329919Y0093301D02*
X0330306Y0093301D01*
X0330244Y0091703D02*
X0330044Y0091703D01*
X0330044Y0090104D02*
X0330244Y0090104D01*
X0330244Y0088506D02*
X0330044Y0088506D01*
X0330044Y0086907D02*
X0330244Y0086907D01*
X0330244Y0085309D02*
X0329970Y0085309D01*
X0329385Y0083710D02*
X0330845Y0083710D01*
X0332218Y0082112D02*
X0327843Y0082112D01*
X0321103Y0083710D02*
X0319643Y0083710D01*
X0320244Y0085309D02*
X0320519Y0085309D01*
X0320444Y0086907D02*
X0320244Y0086907D01*
X0320244Y0088506D02*
X0320444Y0088506D01*
X0320444Y0090104D02*
X0320244Y0090104D01*
X0320244Y0091703D02*
X0320444Y0091703D01*
X0320569Y0093301D02*
X0320182Y0093301D01*
X0319520Y0094900D02*
X0321304Y0094900D01*
X0323193Y0096498D02*
X0317827Y0096498D01*
X0312661Y0096498D02*
X0307827Y0096498D01*
X0309520Y0094900D02*
X0310969Y0094900D01*
X0310306Y0093301D02*
X0310182Y0093301D01*
X0310244Y0091703D02*
X0310244Y0091703D01*
X0310244Y0090104D02*
X0310244Y0090104D01*
X0310244Y0088506D02*
X0310244Y0088506D01*
X0310244Y0086907D02*
X0310244Y0086907D01*
X0310244Y0085309D02*
X0310244Y0085309D01*
X0309643Y0083710D02*
X0310845Y0083710D01*
X0312218Y0082112D02*
X0308270Y0082112D01*
X0307477Y0078914D02*
X0306830Y0078914D01*
X0305585Y0078925D02*
X0305585Y0078925D01*
X0310513Y0078914D02*
X0310543Y0078914D01*
X0305807Y0070922D02*
X0283515Y0070922D01*
X0284844Y0072520D02*
X0300374Y0072520D01*
X0299478Y0074119D02*
X0284844Y0074119D01*
X0284844Y0075717D02*
X0299478Y0075717D01*
X0298244Y0077316D02*
X0283590Y0077316D01*
X0276899Y0077316D02*
X0255314Y0077316D01*
X0254844Y0075717D02*
X0275644Y0075717D01*
X0256773Y0074119D02*
X0254844Y0074119D01*
X0250444Y0074456D02*
X0250444Y0076406D01*
X0254344Y0080306D01*
X0254344Y0095256D01*
X0254994Y0095906D01*
X0254994Y0099156D01*
X0255244Y0099156D01*
X0250098Y0101294D02*
X0149544Y0101294D01*
X0149544Y0102892D02*
X0251697Y0102892D01*
X0257144Y0093301D02*
X0300306Y0093301D01*
X0300244Y0091703D02*
X0257144Y0091703D01*
X0256798Y0078914D02*
X0298259Y0078914D01*
X0302883Y0072520D02*
X0303440Y0072520D01*
X0288322Y0058134D02*
X0287757Y0058134D01*
X0287757Y0056535D02*
X0288322Y0056535D01*
X0288322Y0054937D02*
X0287757Y0054937D01*
X0287757Y0053873D02*
X0282991Y0053873D01*
X0282991Y0053759D01*
X0283116Y0052974D01*
X0283361Y0052218D01*
X0283722Y0051510D01*
X0284189Y0050868D01*
X0284751Y0050306D01*
X0285394Y0049839D01*
X0286102Y0049478D01*
X0286857Y0049232D01*
X0287642Y0049108D01*
X0287757Y0049108D01*
X0287757Y0053873D01*
X0287757Y0053338D02*
X0288322Y0053338D01*
X0288322Y0051740D02*
X0287757Y0051740D01*
X0287757Y0050141D02*
X0288322Y0050141D01*
X0284977Y0050141D02*
X0265856Y0050141D01*
X0267128Y0051740D02*
X0283605Y0051740D01*
X0283058Y0053338D02*
X0267697Y0053338D01*
X0267697Y0054937D02*
X0283052Y0054937D01*
X0283586Y0056535D02*
X0267144Y0056535D01*
X0265893Y0058134D02*
X0284926Y0058134D01*
X0314186Y0048156D02*
X0314186Y0048156D01*
X0314186Y0048156D01*
X0250444Y0074456D02*
X0250244Y0074156D01*
X0219005Y0058134D02*
X0199594Y0058134D01*
X0199594Y0056535D02*
X0217754Y0056535D01*
X0217201Y0054937D02*
X0199594Y0054937D01*
X0199594Y0053338D02*
X0217201Y0053338D01*
X0217769Y0051740D02*
X0199594Y0051740D01*
X0199594Y0050141D02*
X0219042Y0050141D01*
X0164673Y0075717D02*
X0164517Y0075717D01*
X0164071Y0077316D02*
X0163723Y0077316D01*
X0164071Y0078914D02*
X0162620Y0078914D01*
X0164071Y0080513D02*
X0161021Y0080513D01*
X0162355Y0082112D02*
X0159423Y0082112D01*
X0160756Y0083710D02*
X0156417Y0083710D01*
X0156417Y0085309D02*
X0159158Y0085309D01*
X0157559Y0086907D02*
X0156417Y0086907D01*
X0156417Y0088506D02*
X0156994Y0088506D01*
X0156312Y0090104D02*
X0156101Y0090104D01*
X0161883Y0093301D02*
X0180294Y0093301D01*
X0180294Y0094900D02*
X0160285Y0094900D01*
X0158686Y0096498D02*
X0180586Y0096498D01*
X0180697Y0091703D02*
X0163037Y0091703D01*
X0163194Y0090104D02*
X0164387Y0090104D01*
X0157049Y0075717D02*
X0155815Y0075717D01*
X0153941Y0074119D02*
X0157798Y0074119D01*
X0158946Y0072520D02*
X0152792Y0072520D01*
X0151194Y0070922D02*
X0160544Y0070922D01*
X0110802Y0096498D02*
X0106686Y0096498D01*
X0108287Y0094900D02*
X0109203Y0094900D01*
X0143344Y0107688D02*
X0052044Y0107688D01*
X0052044Y0109286D02*
X0143344Y0109286D01*
X0143344Y0110885D02*
X0052044Y0110885D01*
X0052044Y0112483D02*
X0143344Y0112483D01*
X0143344Y0114082D02*
X0052044Y0114082D01*
X0052044Y0115680D02*
X0143344Y0115680D01*
X0155244Y0124156D02*
X0155544Y0124506D01*
X0157494Y0124506D01*
X0158144Y0125156D01*
X0162694Y0125156D01*
X0172461Y0118877D02*
X0178028Y0118877D01*
X0176429Y0120476D02*
X0174059Y0120476D01*
X0198069Y0120476D02*
X0217419Y0120476D01*
X0215821Y0122074D02*
X0199668Y0122074D01*
X0199844Y0123673D02*
X0215644Y0123673D01*
X0215644Y0125271D02*
X0199844Y0125271D01*
X0199036Y0126870D02*
X0216452Y0126870D01*
X0218051Y0128468D02*
X0197437Y0128468D01*
X0220244Y0124156D02*
X0220544Y0124506D01*
X0222494Y0124506D01*
X0223144Y0125156D01*
X0227694Y0125156D01*
X0224322Y0128468D02*
X0222437Y0128468D01*
X0237461Y0118877D02*
X0243028Y0118877D01*
X0241429Y0120476D02*
X0239059Y0120476D01*
X0248427Y0128468D02*
X0258051Y0128468D01*
X0250444Y0144656D02*
X0366794Y0144656D01*
X0384994Y0162856D01*
X0384994Y0168706D01*
X0385008Y0169166D01*
X0379144Y0169356D02*
X0379102Y0169166D01*
X0379144Y0169356D02*
X0379144Y0175206D01*
X0377844Y0176506D01*
X0374359Y0178022D02*
X0328294Y0178022D01*
X0328294Y0176424D02*
X0374044Y0176424D01*
X0374427Y0174825D02*
X0328294Y0174825D01*
X0328294Y0173227D02*
X0364112Y0173227D01*
X0363720Y0171628D02*
X0328294Y0171628D01*
X0328021Y0170030D02*
X0363720Y0170030D01*
X0363720Y0168431D02*
X0326703Y0168431D01*
X0325105Y0166833D02*
X0363720Y0166833D01*
X0367205Y0170030D02*
X0367377Y0170030D01*
X0367377Y0171628D02*
X0367205Y0171628D01*
X0367205Y0173227D02*
X0367377Y0173227D01*
X0375585Y0179621D02*
X0352214Y0179621D01*
X0353813Y0181219D02*
X0376959Y0181219D01*
X0375844Y0182818D02*
X0354844Y0182818D01*
X0355264Y0184416D02*
X0375844Y0184416D01*
X0375844Y0184156D02*
X0380244Y0184156D01*
X0380244Y0184156D01*
X0380244Y0179756D01*
X0382067Y0179756D01*
X0384644Y0182334D01*
X0384644Y0184156D01*
X0380244Y0184156D01*
X0380244Y0184156D01*
X0380244Y0188556D01*
X0378422Y0188556D01*
X0375844Y0185979D01*
X0375844Y0184156D01*
X0375880Y0186015D02*
X0356862Y0186015D01*
X0358461Y0187613D02*
X0377479Y0187613D01*
X0380244Y0187613D02*
X0380244Y0187613D01*
X0380244Y0188556D02*
X0380244Y0184156D01*
X0380244Y0184156D01*
X0384644Y0184156D01*
X0384644Y0185979D01*
X0382067Y0188556D01*
X0380244Y0188556D01*
X0380244Y0186015D02*
X0380244Y0186015D01*
X0380244Y0184416D02*
X0380244Y0184416D01*
X0380244Y0182818D02*
X0380244Y0182818D01*
X0380244Y0181219D02*
X0380244Y0181219D01*
X0380104Y0179621D02*
X0387779Y0179621D01*
X0388194Y0179206D02*
X0390244Y0179206D01*
X0390244Y0184156D01*
X0390244Y0184156D01*
X0385294Y0184156D01*
X0385294Y0182106D01*
X0388194Y0179206D01*
X0390244Y0179206D02*
X0392294Y0179206D01*
X0395194Y0182106D01*
X0395194Y0184156D01*
X0390244Y0184156D01*
X0390244Y0184156D01*
X0390244Y0179206D01*
X0390244Y0179621D02*
X0390244Y0179621D01*
X0390244Y0181219D02*
X0390244Y0181219D01*
X0390244Y0182818D02*
X0390244Y0182818D01*
X0390244Y0184156D02*
X0390244Y0184156D01*
X0385294Y0184156D01*
X0385294Y0186207D01*
X0388194Y0189106D01*
X0390244Y0189106D01*
X0390244Y0184156D01*
X0390244Y0184156D01*
X0395194Y0184156D01*
X0395194Y0186207D01*
X0392294Y0189106D01*
X0390244Y0189106D01*
X0390244Y0184156D01*
X0390244Y0184416D02*
X0390244Y0184416D01*
X0390244Y0186015D02*
X0390244Y0186015D01*
X0390244Y0187613D02*
X0390244Y0187613D01*
X0386701Y0187613D02*
X0383010Y0187613D01*
X0384608Y0186015D02*
X0385294Y0186015D01*
X0385294Y0184416D02*
X0384644Y0184416D01*
X0384644Y0182818D02*
X0385294Y0182818D01*
X0386181Y0181219D02*
X0383530Y0181219D01*
X0381329Y0178022D02*
X0397386Y0178022D01*
X0396335Y0176424D02*
X0381670Y0176424D01*
X0381944Y0174825D02*
X0396144Y0174825D01*
X0399944Y0175206D02*
X0402544Y0172606D01*
X0402544Y0169356D01*
X0402724Y0169166D01*
X0408394Y0169356D02*
X0408630Y0169166D01*
X0408394Y0169356D02*
X0408394Y0175206D01*
X0405836Y0178022D02*
X0402502Y0178022D01*
X0403553Y0176424D02*
X0404785Y0176424D01*
X0404594Y0174825D02*
X0404285Y0174825D01*
X0407496Y0179621D02*
X0392709Y0179621D01*
X0394307Y0181219D02*
X0405898Y0181219D01*
X0405094Y0182818D02*
X0395194Y0182818D01*
X0395194Y0184416D02*
X0405094Y0184416D01*
X0405094Y0186015D02*
X0395194Y0186015D01*
X0393787Y0187613D02*
X0406418Y0187613D01*
X0408016Y0189212D02*
X0365909Y0189212D01*
X0367508Y0190810D02*
X0409864Y0190810D01*
X0410207Y0192409D02*
X0369106Y0192409D01*
X0372591Y0194007D02*
X0408110Y0194007D01*
X0406511Y0195606D02*
X0393694Y0195606D01*
X0392294Y0194206D02*
X0395194Y0197106D01*
X0395194Y0199156D01*
X0390244Y0199156D01*
X0390244Y0199156D01*
X0390244Y0194206D01*
X0388194Y0194206D01*
X0385294Y0197106D01*
X0385294Y0199156D01*
X0390244Y0199156D01*
X0390244Y0199156D01*
X0390244Y0194206D01*
X0392294Y0194206D01*
X0390244Y0195606D02*
X0390244Y0195606D01*
X0390244Y0197204D02*
X0390244Y0197204D01*
X0390244Y0198803D02*
X0390244Y0198803D01*
X0390244Y0199156D02*
X0390244Y0199156D01*
X0385294Y0199156D01*
X0385294Y0201207D01*
X0388194Y0204106D01*
X0390244Y0204106D01*
X0390244Y0199156D01*
X0390244Y0199156D01*
X0395194Y0199156D01*
X0395194Y0201207D01*
X0392294Y0204106D01*
X0390244Y0204106D01*
X0390244Y0199156D01*
X0390244Y0200401D02*
X0390244Y0200401D01*
X0390244Y0202000D02*
X0390244Y0202000D01*
X0390244Y0203598D02*
X0390244Y0203598D01*
X0387686Y0203598D02*
X0385016Y0203598D01*
X0386087Y0202000D02*
X0374896Y0202000D01*
X0375544Y0200401D02*
X0385294Y0200401D01*
X0385294Y0198803D02*
X0375544Y0198803D01*
X0375544Y0197204D02*
X0385294Y0197204D01*
X0386794Y0195606D02*
X0374189Y0195606D01*
X0370044Y0197306D02*
X0370044Y0198606D01*
X0370244Y0199156D01*
X0370044Y0197306D02*
X0363544Y0190806D01*
X0357694Y0190806D01*
X0351194Y0184306D01*
X0350544Y0184306D01*
X0350244Y0184156D01*
X0345644Y0184416D02*
X0328294Y0184416D01*
X0328294Y0182818D02*
X0345644Y0182818D01*
X0346676Y0181219D02*
X0328294Y0181219D01*
X0328294Y0179621D02*
X0348274Y0179621D01*
X0345644Y0186015D02*
X0328294Y0186015D01*
X0328294Y0187613D02*
X0347196Y0187613D01*
X0352140Y0189212D02*
X0328294Y0189212D01*
X0328294Y0190810D02*
X0353738Y0190810D01*
X0355337Y0192409D02*
X0328294Y0192409D01*
X0328294Y0194007D02*
X0357898Y0194007D01*
X0356299Y0195606D02*
X0328294Y0195606D01*
X0328294Y0197204D02*
X0354712Y0197204D01*
X0353113Y0198803D02*
X0328294Y0198803D01*
X0328294Y0200401D02*
X0351515Y0200401D01*
X0357086Y0203598D02*
X0357191Y0203598D01*
X0355487Y0205197D02*
X0359901Y0205197D01*
X0361499Y0206795D02*
X0353378Y0206795D01*
X0363098Y0208394D02*
X0325640Y0208394D01*
X0325713Y0209992D02*
X0324042Y0209992D01*
X0323511Y0211591D02*
X0323070Y0211591D01*
X0327055Y0211591D02*
X0327055Y0211591D01*
X0327055Y0213189D02*
X0327055Y0213189D01*
X0327055Y0214156D02*
X0327055Y0209781D01*
X0327399Y0209781D01*
X0328080Y0209889D01*
X0328734Y0210102D01*
X0329348Y0210414D01*
X0329905Y0210819D01*
X0330392Y0211306D01*
X0330797Y0211863D01*
X0331109Y0212477D01*
X0331322Y0213132D01*
X0331430Y0213812D01*
X0331430Y0214156D01*
X0327055Y0214156D01*
X0327055Y0214156D01*
X0327055Y0214156D01*
X0327055Y0218531D01*
X0327399Y0218531D01*
X0328080Y0218423D01*
X0328734Y0218210D01*
X0329348Y0217898D01*
X0329905Y0217493D01*
X0330392Y0217006D01*
X0330797Y0216449D01*
X0331109Y0215835D01*
X0331322Y0215181D01*
X0331430Y0214500D01*
X0331430Y0214156D01*
X0327055Y0214156D01*
X0327055Y0214788D02*
X0327055Y0214788D01*
X0327055Y0216386D02*
X0327055Y0216386D01*
X0327055Y0217985D02*
X0327055Y0217985D01*
X0324933Y0217985D02*
X0321822Y0217985D01*
X0323209Y0216386D02*
X0323282Y0216386D01*
X0329177Y0217985D02*
X0377568Y0217985D01*
X0378339Y0218756D02*
X0375644Y0216062D01*
X0375644Y0212251D01*
X0378339Y0209556D01*
X0382149Y0209556D01*
X0384844Y0212251D01*
X0384844Y0216062D01*
X0382149Y0218756D01*
X0378339Y0218756D01*
X0375969Y0216386D02*
X0330829Y0216386D01*
X0331384Y0214788D02*
X0375644Y0214788D01*
X0375644Y0213189D02*
X0331331Y0213189D01*
X0330599Y0211591D02*
X0376304Y0211591D01*
X0376042Y0209992D02*
X0377902Y0209992D01*
X0382586Y0209992D02*
X0382896Y0209992D01*
X0384184Y0211591D02*
X0405295Y0211591D01*
X0405644Y0213189D02*
X0384844Y0213189D01*
X0384844Y0214788D02*
X0405644Y0214788D01*
X0405969Y0216386D02*
X0384519Y0216386D01*
X0382921Y0217985D02*
X0407568Y0217985D01*
X0412921Y0217985D02*
X0415586Y0217985D01*
X0415586Y0219583D02*
X0078603Y0219583D01*
X0078603Y0217985D02*
X0299284Y0217985D01*
X0298858Y0216386D02*
X0078603Y0216386D01*
X0078572Y0214788D02*
X0298858Y0214788D01*
X0298858Y0213189D02*
X0256965Y0213189D01*
X0256923Y0213210D02*
X0256269Y0213423D01*
X0255588Y0213531D01*
X0255244Y0213531D01*
X0254900Y0213531D01*
X0254220Y0213423D01*
X0253565Y0213210D01*
X0252951Y0212898D01*
X0252394Y0212493D01*
X0251907Y0212006D01*
X0251502Y0211449D01*
X0251190Y0210835D01*
X0250977Y0210181D01*
X0250869Y0209500D01*
X0250869Y0209156D01*
X0250869Y0208812D01*
X0250977Y0208132D01*
X0251190Y0207477D01*
X0251502Y0206863D01*
X0251907Y0206306D01*
X0252394Y0205819D01*
X0252951Y0205414D01*
X0253565Y0205102D01*
X0254220Y0204889D01*
X0254900Y0204781D01*
X0255244Y0204781D01*
X0255244Y0209156D01*
X0255244Y0209156D01*
X0250869Y0209156D01*
X0255244Y0209156D01*
X0255244Y0209156D01*
X0255244Y0204781D01*
X0255588Y0204781D01*
X0256269Y0204889D01*
X0256923Y0205102D01*
X0257537Y0205414D01*
X0258094Y0205819D01*
X0258581Y0206306D01*
X0258986Y0206863D01*
X0259298Y0207477D01*
X0259511Y0208132D01*
X0259619Y0208812D01*
X0259619Y0209156D01*
X0255244Y0209156D01*
X0255244Y0209156D01*
X0255244Y0213531D01*
X0255244Y0209156D01*
X0255244Y0209156D01*
X0259619Y0209156D01*
X0259619Y0209500D01*
X0259511Y0210181D01*
X0259298Y0210835D01*
X0258986Y0211449D01*
X0258581Y0212006D01*
X0258094Y0212493D01*
X0257537Y0212898D01*
X0256923Y0213210D01*
X0255244Y0213189D02*
X0255244Y0213189D01*
X0255244Y0211591D02*
X0255244Y0211591D01*
X0255244Y0209992D02*
X0255244Y0209992D01*
X0255244Y0208394D02*
X0255244Y0208394D01*
X0255244Y0206795D02*
X0255244Y0206795D01*
X0255244Y0205197D02*
X0255244Y0205197D01*
X0253378Y0205197D02*
X0247640Y0205197D01*
X0247836Y0205278D02*
X0249122Y0206565D01*
X0249819Y0208246D01*
X0249819Y0210066D01*
X0249122Y0211748D01*
X0247836Y0213034D01*
X0246154Y0213731D01*
X0244334Y0213731D01*
X0242653Y0213034D01*
X0241366Y0211748D01*
X0240669Y0210066D01*
X0240669Y0208246D01*
X0241366Y0206565D01*
X0242653Y0205278D01*
X0244334Y0204581D01*
X0246154Y0204581D01*
X0247836Y0205278D01*
X0249218Y0206795D02*
X0251552Y0206795D01*
X0250935Y0208394D02*
X0249819Y0208394D01*
X0249819Y0209992D02*
X0250947Y0209992D01*
X0251605Y0211591D02*
X0249187Y0211591D01*
X0247461Y0213189D02*
X0253524Y0213189D01*
X0258883Y0211591D02*
X0298858Y0211591D01*
X0299619Y0209992D02*
X0259541Y0209992D01*
X0259553Y0208394D02*
X0300944Y0208394D01*
X0300944Y0206795D02*
X0258936Y0206795D01*
X0257110Y0205197D02*
X0300944Y0205197D01*
X0300944Y0203598D02*
X0228544Y0203598D01*
X0228544Y0202000D02*
X0300944Y0202000D01*
X0306544Y0202000D02*
X0308094Y0202000D01*
X0308094Y0203598D02*
X0306544Y0203598D01*
X0306544Y0205197D02*
X0308094Y0205197D01*
X0308094Y0206795D02*
X0306544Y0206795D01*
X0306544Y0208394D02*
X0308094Y0208394D01*
X0308094Y0209992D02*
X0307247Y0209992D01*
X0303744Y0213556D02*
X0303433Y0214156D01*
X0303744Y0213556D02*
X0303744Y0192756D01*
X0305044Y0191456D01*
X0305044Y0189506D01*
X0305244Y0189156D01*
X0308497Y0192409D02*
X0310532Y0192409D01*
X0310644Y0190810D02*
X0309844Y0190810D01*
X0309844Y0189212D02*
X0310644Y0189212D01*
X0310644Y0187613D02*
X0309844Y0187613D01*
X0308608Y0186015D02*
X0311880Y0186015D01*
X0315244Y0189156D02*
X0315444Y0189506D01*
X0315444Y0191456D01*
X0310894Y0196006D01*
X0310894Y0213556D01*
X0311307Y0214156D01*
X0315196Y0211591D02*
X0315292Y0211591D01*
X0316388Y0209992D02*
X0313694Y0209992D01*
X0313694Y0208394D02*
X0317162Y0208394D01*
X0318471Y0206795D02*
X0313694Y0206795D01*
X0313694Y0205197D02*
X0320069Y0205197D01*
X0321668Y0203598D02*
X0313694Y0203598D01*
X0313694Y0202000D02*
X0322094Y0202000D01*
X0322094Y0200401D02*
X0313694Y0200401D01*
X0313694Y0198803D02*
X0322094Y0198803D01*
X0322094Y0197204D02*
X0313694Y0197204D01*
X0315254Y0195606D02*
X0322094Y0195606D01*
X0322094Y0194007D02*
X0316853Y0194007D01*
X0318497Y0192409D02*
X0322094Y0192409D01*
X0322094Y0190810D02*
X0319844Y0190810D01*
X0319844Y0189212D02*
X0322094Y0189212D01*
X0322094Y0187613D02*
X0319844Y0187613D01*
X0318608Y0186015D02*
X0322094Y0186015D01*
X0322094Y0184416D02*
X0262505Y0184416D01*
X0262294Y0184206D02*
X0265194Y0187106D01*
X0265194Y0189156D01*
X0260244Y0189156D01*
X0260244Y0189156D01*
X0260244Y0184206D01*
X0258194Y0184206D01*
X0255294Y0187106D01*
X0255294Y0189156D01*
X0260244Y0189156D01*
X0260244Y0189156D01*
X0260244Y0184206D01*
X0262294Y0184206D01*
X0260244Y0184416D02*
X0260244Y0184416D01*
X0260244Y0186015D02*
X0260244Y0186015D01*
X0260244Y0187613D02*
X0260244Y0187613D01*
X0260244Y0189156D02*
X0260244Y0189156D01*
X0255294Y0189156D01*
X0255294Y0191207D01*
X0258194Y0194106D01*
X0260244Y0194106D01*
X0260244Y0189156D01*
X0260244Y0189156D01*
X0265194Y0189156D01*
X0265194Y0191207D01*
X0262294Y0194106D01*
X0260244Y0194106D01*
X0260244Y0189156D01*
X0260244Y0189212D02*
X0260244Y0189212D01*
X0260244Y0190810D02*
X0260244Y0190810D01*
X0260244Y0192409D02*
X0260244Y0192409D01*
X0260244Y0194007D02*
X0260244Y0194007D01*
X0258095Y0194007D02*
X0249844Y0194007D01*
X0249844Y0192409D02*
X0256496Y0192409D01*
X0255294Y0190810D02*
X0251150Y0190810D01*
X0252748Y0189212D02*
X0255294Y0189212D01*
X0255294Y0187613D02*
X0254347Y0187613D01*
X0255945Y0186015D02*
X0256385Y0186015D01*
X0257544Y0184416D02*
X0257984Y0184416D01*
X0258864Y0182818D02*
X0322094Y0182818D01*
X0322094Y0181219D02*
X0259094Y0181219D01*
X0259094Y0179621D02*
X0322094Y0179621D01*
X0322094Y0178022D02*
X0259094Y0178022D01*
X0259686Y0176424D02*
X0322094Y0176424D01*
X0322094Y0174825D02*
X0261285Y0174825D01*
X0263457Y0173227D02*
X0322094Y0173227D01*
X0321132Y0171628D02*
X0265055Y0171628D01*
X0265430Y0170030D02*
X0319534Y0170030D01*
X0317935Y0168431D02*
X0267029Y0168431D01*
X0268627Y0166833D02*
X0316336Y0166833D01*
X0301880Y0186015D02*
X0264103Y0186015D01*
X0265194Y0187613D02*
X0300644Y0187613D01*
X0300644Y0189212D02*
X0265194Y0189212D01*
X0265194Y0190810D02*
X0300644Y0190810D01*
X0300944Y0192409D02*
X0263992Y0192409D01*
X0262393Y0194007D02*
X0300944Y0194007D01*
X0300944Y0195606D02*
X0249844Y0195606D01*
X0248701Y0197204D02*
X0300944Y0197204D01*
X0306544Y0197204D02*
X0308094Y0197204D01*
X0308094Y0195606D02*
X0306544Y0195606D01*
X0306544Y0194007D02*
X0308933Y0194007D01*
X0308094Y0198803D02*
X0306544Y0198803D01*
X0306544Y0200401D02*
X0308094Y0200401D01*
X0327055Y0209992D02*
X0327055Y0209992D01*
X0328398Y0209992D02*
X0364696Y0209992D01*
X0367070Y0203598D02*
X0367191Y0203598D01*
X0365592Y0202000D02*
X0365472Y0202000D01*
X0373297Y0203598D02*
X0373922Y0203598D01*
X0364384Y0195606D02*
X0364189Y0195606D01*
X0362785Y0194007D02*
X0362591Y0194007D01*
X0392802Y0203598D02*
X0404218Y0203598D01*
X0405805Y0202000D02*
X0394401Y0202000D01*
X0395194Y0200401D02*
X0405094Y0200401D01*
X0405094Y0198803D02*
X0395194Y0198803D01*
X0395194Y0197204D02*
X0405094Y0197204D01*
X0413085Y0203598D02*
X0423458Y0203598D01*
X0420644Y0205197D02*
X0411387Y0205197D01*
X0409789Y0206795D02*
X0418817Y0206795D01*
X0417611Y0208394D02*
X0410866Y0208394D01*
X0412586Y0209992D02*
X0416733Y0209992D01*
X0416120Y0211591D02*
X0414184Y0211591D01*
X0414844Y0213189D02*
X0415732Y0213189D01*
X0415617Y0214788D02*
X0414844Y0214788D01*
X0414519Y0216386D02*
X0415586Y0216386D01*
X0415586Y0221182D02*
X0078603Y0221182D01*
X0078603Y0222780D02*
X0415586Y0222780D01*
X0415586Y0224379D02*
X0078603Y0224379D01*
X0078603Y0225978D02*
X0415586Y0225978D01*
X0415586Y0227576D02*
X0078603Y0227576D01*
X0094826Y0178022D02*
X0052044Y0178022D01*
X0052044Y0176424D02*
X0093228Y0176424D01*
X0091629Y0174825D02*
X0091453Y0174825D01*
X0089035Y0174825D02*
X0052044Y0174825D01*
X0052044Y0173227D02*
X0086254Y0173227D01*
X0085098Y0171628D02*
X0052044Y0171628D01*
X0052044Y0170030D02*
X0084544Y0170030D01*
X0084544Y0168431D02*
X0052044Y0168431D01*
X0052044Y0166833D02*
X0085037Y0166833D01*
X0086105Y0165234D02*
X0052044Y0165234D01*
X0052044Y0163636D02*
X0088677Y0163636D01*
X0091811Y0163636D02*
X0100644Y0163636D01*
X0100644Y0165234D02*
X0094383Y0165234D01*
X0095451Y0166833D02*
X0101415Y0166833D01*
X0105244Y0164156D02*
X0105494Y0164156D01*
X0105494Y0162206D01*
X0109394Y0158306D01*
X0109394Y0156356D01*
X0115244Y0150506D01*
X0115244Y0149156D01*
X0106659Y0155643D02*
X0094644Y0155643D01*
X0094644Y0155979D02*
X0092067Y0158556D01*
X0090244Y0158556D01*
X0088422Y0158556D01*
X0085844Y0155979D01*
X0085844Y0154156D01*
X0090244Y0154156D01*
X0090244Y0154156D01*
X0090244Y0158556D01*
X0090244Y0154156D01*
X0090244Y0154156D01*
X0094644Y0154156D01*
X0094644Y0155979D01*
X0093381Y0157242D02*
X0106499Y0157242D01*
X0104900Y0158840D02*
X0052044Y0158840D01*
X0052044Y0157242D02*
X0087107Y0157242D01*
X0085844Y0155643D02*
X0052044Y0155643D01*
X0052044Y0154045D02*
X0085844Y0154045D01*
X0085844Y0152446D02*
X0052044Y0152446D01*
X0052044Y0150847D02*
X0087330Y0150847D01*
X0090244Y0150847D02*
X0090244Y0150847D01*
X0090244Y0152446D02*
X0090244Y0152446D01*
X0090244Y0154045D02*
X0090244Y0154045D01*
X0090244Y0155643D02*
X0090244Y0155643D01*
X0090244Y0157242D02*
X0090244Y0157242D01*
X0100858Y0162037D02*
X0052044Y0162037D01*
X0052044Y0160439D02*
X0102456Y0160439D01*
X0117475Y0168431D02*
X0125094Y0168431D01*
X0125284Y0166833D02*
X0119073Y0166833D01*
X0118684Y0170030D02*
X0123611Y0170030D01*
X0100844Y0150847D02*
X0093158Y0150847D01*
X0100844Y0149249D02*
X0052044Y0149249D01*
X0052044Y0147650D02*
X0100844Y0147650D01*
X0102126Y0146052D02*
X0052044Y0146052D01*
X0052044Y0128468D02*
X0088051Y0128468D01*
X0086452Y0126870D02*
X0052044Y0126870D01*
X0052044Y0125271D02*
X0085644Y0125271D01*
X0085644Y0123673D02*
X0052044Y0123673D01*
X0052044Y0122074D02*
X0085821Y0122074D01*
X0087419Y0120476D02*
X0052044Y0120476D01*
X0052044Y0118877D02*
X0103028Y0118877D01*
X0101429Y0120476D02*
X0093069Y0120476D01*
X0094668Y0122074D02*
X0099944Y0122074D01*
X0102244Y0124506D02*
X0104844Y0124506D01*
X0105244Y0124156D01*
X0102244Y0124506D02*
X0101594Y0125156D01*
X0093144Y0125156D01*
X0092494Y0124506D01*
X0090544Y0124506D01*
X0090244Y0124156D01*
X0092437Y0128468D02*
X0102061Y0128468D01*
X0108427Y0128468D02*
X0112061Y0128468D01*
X0110462Y0126870D02*
X0110026Y0126870D01*
X0115244Y0124156D02*
X0115244Y0123856D01*
X0117844Y0123856D01*
X0122394Y0119306D01*
X0123044Y0119306D01*
X0127594Y0123856D01*
X0130194Y0123856D01*
X0130244Y0124156D01*
X0126452Y0126870D02*
X0120026Y0126870D01*
X0120544Y0125271D02*
X0125049Y0125271D01*
X0123451Y0123673D02*
X0121987Y0123673D01*
X0118863Y0118877D02*
X0117461Y0118877D01*
X0120462Y0117279D02*
X0052044Y0117279D01*
X0059529Y0096314D02*
X0059529Y0096314D01*
X0107461Y0118877D02*
X0113028Y0118877D01*
X0111429Y0120476D02*
X0109059Y0120476D01*
X0118427Y0128468D02*
X0128051Y0128468D01*
X0183404Y0190810D02*
X0190294Y0190810D01*
X0191496Y0192409D02*
X0184844Y0192409D01*
X0170494Y0194706D02*
X0170244Y0194156D01*
X0170494Y0194706D02*
X0170494Y0196006D01*
X0225744Y0197306D02*
X0225744Y0209006D01*
X0225244Y0209156D01*
X0229819Y0208394D02*
X0230669Y0208394D01*
X0230669Y0208246D02*
X0231366Y0206565D01*
X0232653Y0205278D01*
X0234334Y0204581D01*
X0236154Y0204581D01*
X0237836Y0205278D01*
X0239122Y0206565D01*
X0239819Y0208246D01*
X0239819Y0210066D01*
X0239122Y0211748D01*
X0237836Y0213034D01*
X0236154Y0213731D01*
X0234334Y0213731D01*
X0232653Y0213034D01*
X0231366Y0211748D01*
X0230669Y0210066D01*
X0230669Y0208246D01*
X0231270Y0206795D02*
X0229819Y0206795D01*
X0229263Y0205197D02*
X0232848Y0205197D01*
X0235494Y0208356D02*
X0235494Y0209006D01*
X0235244Y0209156D01*
X0239218Y0206795D02*
X0241270Y0206795D01*
X0240669Y0208394D02*
X0239819Y0208394D01*
X0239819Y0209992D02*
X0240669Y0209992D01*
X0241301Y0211591D02*
X0239187Y0211591D01*
X0237461Y0213189D02*
X0243027Y0213189D01*
X0245244Y0209156D02*
X0245244Y0208356D01*
X0242848Y0205197D02*
X0237640Y0205197D01*
X0230669Y0209992D02*
X0229819Y0209992D01*
X0229819Y0211591D02*
X0231301Y0211591D01*
X0233027Y0213189D02*
X0229189Y0213189D01*
X0238701Y0197204D02*
X0241787Y0197204D01*
X0240644Y0195606D02*
X0239844Y0195606D01*
X0263381Y0157242D02*
X0270299Y0157242D01*
X0271897Y0155643D02*
X0264644Y0155643D01*
X0264644Y0154045D02*
X0273496Y0154045D01*
X0275094Y0152446D02*
X0264644Y0152446D01*
X0366844Y0152446D02*
X0370624Y0152446D01*
X0372223Y0154045D02*
X0368442Y0154045D01*
X0370041Y0155643D02*
X0373821Y0155643D01*
X0375420Y0157242D02*
X0371639Y0157242D01*
X0373238Y0158840D02*
X0377018Y0158840D01*
X0378617Y0160439D02*
X0374836Y0160439D01*
X0375985Y0162037D02*
X0380215Y0162037D01*
X0381814Y0163636D02*
X0376094Y0163636D01*
X0390894Y0152446D02*
X0416144Y0152446D01*
X0416144Y0154045D02*
X0392492Y0154045D01*
X0394091Y0155643D02*
X0416144Y0155643D01*
X0416144Y0157242D02*
X0395689Y0157242D01*
X0397288Y0158840D02*
X0416144Y0158840D01*
X0416144Y0160439D02*
X0398886Y0160439D01*
X0399494Y0162037D02*
X0416144Y0162037D01*
X0416144Y0163636D02*
X0399494Y0163636D01*
X0389295Y0150847D02*
X0416144Y0150847D01*
X0416144Y0149249D02*
X0387697Y0149249D01*
X0386098Y0147650D02*
X0416144Y0147650D01*
X0416144Y0146052D02*
X0384500Y0146052D01*
X0382901Y0144453D02*
X0416144Y0144453D01*
X0416144Y0142855D02*
X0381303Y0142855D01*
X0414590Y0181219D02*
X0416144Y0181219D01*
X0416144Y0182818D02*
X0415394Y0182818D01*
X0415394Y0184416D02*
X0416144Y0184416D01*
X0415394Y0186015D02*
X0442145Y0186015D01*
X0442145Y0187613D02*
X0415435Y0187613D01*
X0417034Y0189212D02*
X0442145Y0189212D01*
X0442145Y0190810D02*
X0417982Y0190810D01*
X0417994Y0192409D02*
X0442145Y0192409D01*
X0442145Y0194007D02*
X0417377Y0194007D01*
X0415778Y0195606D02*
X0442145Y0195606D01*
X0442145Y0197204D02*
X0415394Y0197204D01*
X0415394Y0198803D02*
X0442145Y0198803D01*
X0442145Y0200401D02*
X0415394Y0200401D01*
X0414684Y0202000D02*
X0442145Y0202000D01*
X0316540Y0217985D02*
X0313948Y0217985D01*
X0308666Y0217985D02*
X0307582Y0217985D01*
X0415586Y0037353D02*
X0078603Y0037353D01*
D27*
X0183494Y0059506D03*
X0218594Y0138156D03*
X0245894Y0136206D03*
X0251744Y0136206D03*
X0182194Y0173906D03*
X0116544Y0173256D03*
X0352494Y0071206D03*
X0390194Y0105656D03*
X0402544Y0105656D03*
X0399944Y0175206D03*
X0408394Y0175206D03*
X0377844Y0176506D03*
D28*
X0410344Y0181706D02*
X0410344Y0183656D01*
X0410244Y0184156D01*
X0410344Y0184956D01*
X0410344Y0186906D01*
X0414894Y0191456D01*
X0414894Y0192106D01*
X0410344Y0196656D01*
X0410344Y0198606D01*
X0410244Y0199156D01*
X0410994Y0199906D01*
X0410994Y0201206D01*
X0405794Y0206406D01*
X0405794Y0207706D01*
X0384994Y0207706D01*
X0383694Y0206406D01*
X0375244Y0206406D01*
X0373944Y0207706D01*
X0366794Y0207706D01*
X0360944Y0201856D01*
X0360944Y0199906D01*
X0360244Y0199156D01*
X0359644Y0198606D01*
X0357694Y0198606D01*
X0352494Y0203806D01*
X0325844Y0203806D01*
X0325194Y0203156D01*
X0325194Y0171306D01*
X0316094Y0162206D01*
X0316094Y0161556D01*
X0314144Y0159606D01*
X0315244Y0159156D01*
X0314794Y0158956D01*
X0313494Y0158956D01*
X0312194Y0157656D01*
X0308294Y0157656D01*
X0306994Y0158956D01*
X0305694Y0158956D01*
X0305244Y0159156D01*
X0325844Y0203806D02*
X0319994Y0209656D01*
X0319994Y0210306D01*
X0319344Y0210956D01*
X0319344Y0213556D01*
X0319181Y0214156D01*
X0405794Y0207706D02*
X0410344Y0212256D01*
X0410344Y0213556D01*
X0410244Y0214156D01*
X0410344Y0181706D02*
X0410994Y0181056D01*
X0410994Y0180406D01*
X0415544Y0175856D01*
X0415544Y0173256D01*
X0414244Y0171956D01*
X0414244Y0169356D01*
X0414535Y0169166D01*
X0280244Y0074156D02*
X0279694Y0073806D01*
X0278394Y0073806D01*
X0277094Y0072506D01*
X0259544Y0072506D01*
X0249794Y0062756D01*
X0199094Y0062756D01*
X0196494Y0060156D01*
X0184794Y0071856D01*
X0184794Y0073806D01*
X0185244Y0074156D01*
X0184144Y0073806D01*
X0182844Y0073806D01*
X0180894Y0071856D01*
X0163994Y0071856D01*
X0160744Y0075106D01*
X0160744Y0076406D01*
X0157494Y0079656D01*
X0151644Y0079656D01*
X0151268Y0083054D01*
X0150994Y0082906D01*
X0150994Y0075106D01*
X0147744Y0071856D01*
X0146444Y0071856D01*
X0143844Y0069256D01*
X0143844Y0055606D01*
X0134744Y0046506D01*
X0134744Y0044556D01*
X0135244Y0044156D01*
X0185244Y0044825D02*
X0185444Y0045206D01*
X0192594Y0045206D01*
X0196494Y0049106D01*
X0196494Y0060156D01*
X0169220Y0083054D02*
X0169194Y0083556D01*
X0165294Y0083556D01*
X0160094Y0088756D01*
X0160094Y0090706D01*
X0156194Y0094606D01*
X0146444Y0094606D01*
X0146444Y0173906D01*
X0148394Y0175856D01*
X0150994Y0178456D01*
X0210794Y0178456D01*
X0219894Y0169356D01*
X0220244Y0169156D01*
X0155244Y0169156D02*
X0154894Y0169356D01*
X0148394Y0175856D01*
X0146444Y0177806D01*
X0098994Y0177806D01*
X0090544Y0169356D01*
X0090244Y0169156D01*
X0128894Y0095256D02*
X0127594Y0093956D01*
X0112644Y0093956D01*
X0106794Y0088106D01*
X0100294Y0088106D01*
X0100244Y0088093D01*
X0128894Y0095256D02*
X0131494Y0095256D01*
X0132794Y0093956D01*
X0134744Y0093956D01*
X0135244Y0094156D01*
X0135394Y0094606D01*
X0137344Y0094606D01*
X0137994Y0095256D01*
X0141894Y0095256D01*
X0142544Y0094606D01*
X0146444Y0094606D01*
M02*
