%
M48
M72
T01C0.0240
T02C0.0315
T03C0.0320
T04C0.0400
T05C0.0433
T06C0.1180
T07C0.1260
%
T01
X18349Y5951
X21859Y13816
X24589Y13621
X25174Y13621
X18219Y17391
X11654Y17326
X35249Y7121
X39019Y10566
X40254Y10566
X39994Y17521
X40839Y17521
X37784Y17651
T02
X32706Y21416
X31918Y21416
X31131Y21416
X30343Y21416
X25524Y20916
X24524Y20916
X23524Y20916
X22524Y20916
X22024Y18916
X19024Y20916
X18024Y20916
X17024Y20916
X16024Y20916
X15524Y18916
X12524Y20916
X11524Y20916
X10524Y20916
X9524Y20916
X9024Y18916
X9024Y16916
X15524Y16916
X22024Y16916
T03
X23524Y16416
X24524Y16416
X26024Y16916
X26024Y15416
X24524Y14916
X24024Y14166
X23524Y14916
X22024Y15416
X19524Y15416
X18024Y14916
X17524Y14166
X17024Y14916
X15524Y15416
X17024Y16416
X18024Y16416
X19524Y16916
X19524Y18916
X18024Y19416
X17024Y19416
X13024Y18916
X11524Y19416
X10524Y19416
X13024Y16916
X11524Y16416
X10524Y16416
X9024Y15416
X10524Y14916
X11024Y14166
X11524Y14916
X13024Y15416
X13024Y12416
X11524Y12416
X10524Y12416
X9024Y12416
X13524Y9416
X13524Y7416
X13524Y6416
X13524Y4416
X18524Y7416
X18524Y9416
X18024Y12416
X17024Y12416
X15524Y12416
X19524Y12416
X22024Y12416
X23524Y12416
X24524Y12416
X26024Y12416
X25524Y9916
X27524Y9916
X28024Y7416
X25024Y7416
X31524Y11916
X31524Y13416
X34524Y13416
X34524Y11916
X31524Y15916
X30524Y15916
X35024Y18416
X36024Y19916
X37024Y19916
X39024Y19916
X41024Y19916
X41024Y21416
X38024Y21416
X38024Y18416
X39024Y18416
X41024Y18416
X31524Y18916
X30524Y18916
X26024Y18916
X24524Y19416
X23524Y19416
X37024Y6916
X37024Y5916
X40024Y5916
X40024Y6916
T04
X33524Y8916
X32524Y8916
X31524Y8916
X30524Y8916
T05
X28804Y5416
X26245Y5416
X24804Y5416
X22245Y5416
T06
X11875Y7628
X10024Y8809
X10024Y6447
T07
X6599Y4990
X6599Y21526
X42820Y21526
X42820Y4990
M30
