G75*
%MOIN*%
%OFA0B0*%
%FSLAX25Y25*%
%IPPOS*%
%LPD*%
%AMOC8*
5,1,8,0,0,1.08239X$1,22.5*
%
%ADD10C,0.00400*%
%ADD11OC8,0.06300*%
%ADD12R,0.05150X0.05150*%
%ADD13C,0.05150*%
%ADD14C,0.07400*%
%ADD15C,0.17000*%
%ADD16C,0.06000*%
%ADD17OC8,0.05200*%
%ADD18C,0.06496*%
%ADD19OC8,0.06600*%
%ADD20C,0.01600*%
%ADD21C,0.03600*%
%ADD22C,0.02200*%
D10*
X0060444Y0067525D02*
X0060444Y0070594D01*
X0060444Y0072129D02*
X0060444Y0074431D01*
X0061211Y0075198D01*
X0064281Y0075198D01*
X0065048Y0074431D01*
X0065048Y0072129D01*
X0060444Y0072129D01*
X0060444Y0076733D02*
X0060444Y0079802D01*
X0060444Y0081336D02*
X0061211Y0081336D01*
X0064281Y0084406D01*
X0065048Y0084406D01*
X0065048Y0081336D01*
X0064281Y0085940D02*
X0061211Y0085940D01*
X0064281Y0089010D01*
X0061211Y0089010D01*
X0060444Y0088242D01*
X0060444Y0086708D01*
X0061211Y0085940D01*
X0064281Y0085940D02*
X0065048Y0086708D01*
X0065048Y0088242D01*
X0064281Y0089010D01*
X0063513Y0090544D02*
X0065048Y0092079D01*
X0060444Y0092079D01*
X0060444Y0090544D02*
X0060444Y0093614D01*
X0060444Y0095148D02*
X0060444Y0098218D01*
X0060444Y0099752D02*
X0060444Y0102054D01*
X0061211Y0102821D01*
X0061979Y0102821D01*
X0062746Y0102054D01*
X0062746Y0099752D01*
X0060444Y0099752D02*
X0065048Y0099752D01*
X0065048Y0102054D01*
X0064281Y0102821D01*
X0063513Y0102821D01*
X0062746Y0102054D01*
X0065048Y0096683D02*
X0060444Y0096683D01*
X0063513Y0095148D02*
X0065048Y0096683D01*
X0065048Y0078267D02*
X0060444Y0078267D01*
X0063513Y0076733D02*
X0065048Y0078267D01*
X0065048Y0067525D02*
X0060444Y0067525D01*
D11*
X0135244Y0064156D03*
X0135244Y0074156D03*
X0135244Y0094156D03*
X0185244Y0094156D03*
X0185244Y0074156D03*
X0135244Y0044156D03*
X0255244Y0099156D03*
X0275244Y0099156D03*
X0260244Y0169156D03*
X0260244Y0189156D03*
X0195244Y0189156D03*
X0195244Y0169156D03*
X0130244Y0169156D03*
X0130244Y0189156D03*
X0390244Y0184156D03*
X0410244Y0184156D03*
X0410244Y0199156D03*
X0390244Y0199156D03*
D12*
X0303433Y0214156D03*
X0225244Y0209156D03*
X0160244Y0209156D03*
X0095244Y0209156D03*
D13*
X0105244Y0209156D03*
X0115244Y0209156D03*
X0125244Y0209156D03*
X0170244Y0209156D03*
X0180244Y0209156D03*
X0190244Y0209156D03*
X0235244Y0209156D03*
X0245244Y0209156D03*
X0255244Y0209156D03*
X0311307Y0214156D03*
X0319181Y0214156D03*
X0327055Y0214156D03*
D14*
X0220244Y0189156D03*
X0220244Y0169156D03*
X0155244Y0169156D03*
X0155244Y0189156D03*
X0090244Y0189156D03*
X0090244Y0169156D03*
D15*
X0100244Y0088093D03*
X0118748Y0076282D03*
X0100244Y0064471D03*
D16*
X0305244Y0086156D02*
X0305244Y0092156D01*
X0315244Y0092156D02*
X0315244Y0086156D01*
X0325244Y0086156D02*
X0325244Y0092156D01*
X0335244Y0092156D02*
X0335244Y0086156D01*
D17*
X0370244Y0069156D03*
X0370244Y0059156D03*
X0400244Y0059156D03*
X0400244Y0069156D03*
X0345244Y0119156D03*
X0345244Y0134156D03*
X0315244Y0134156D03*
X0315244Y0119156D03*
X0260244Y0124156D03*
X0240244Y0141656D03*
X0235244Y0149156D03*
X0245244Y0149156D03*
X0260244Y0154156D03*
X0245244Y0164156D03*
X0235244Y0164156D03*
X0220244Y0154156D03*
X0195244Y0154156D03*
X0180244Y0149156D03*
X0175244Y0141656D03*
X0170244Y0149156D03*
X0155244Y0154156D03*
X0170244Y0164156D03*
X0180244Y0164156D03*
X0130244Y0154156D03*
X0115244Y0149156D03*
X0110244Y0141656D03*
X0105244Y0149156D03*
X0090244Y0154156D03*
X0105244Y0164156D03*
X0115244Y0164156D03*
X0115244Y0194156D03*
X0105244Y0194156D03*
X0170244Y0194156D03*
X0180244Y0194156D03*
X0235244Y0194156D03*
X0245244Y0194156D03*
X0305244Y0189156D03*
X0315244Y0189156D03*
X0350244Y0184156D03*
X0380244Y0184156D03*
X0380244Y0214156D03*
X0410244Y0214156D03*
X0315244Y0159156D03*
X0305244Y0159156D03*
X0220244Y0124156D03*
X0195244Y0124156D03*
X0155244Y0124156D03*
X0130244Y0124156D03*
X0090244Y0124156D03*
X0250244Y0074156D03*
X0280244Y0074156D03*
D18*
X0288039Y0054156D03*
X0262449Y0054156D03*
X0248039Y0054156D03*
X0222449Y0054156D03*
D19*
X0235244Y0124156D03*
X0245244Y0124156D03*
X0180244Y0124156D03*
X0170244Y0124156D03*
X0115244Y0124156D03*
X0105244Y0124156D03*
X0360244Y0199156D03*
X0370244Y0199156D03*
D20*
X0078603Y0049606D02*
X0078603Y0035956D01*
X0415586Y0035956D01*
X0415586Y0049606D01*
X0415564Y0049631D01*
X0415586Y0049933D01*
X0415586Y0050236D01*
X0415609Y0050259D01*
X0415689Y0051377D01*
X0415654Y0051431D01*
X0415712Y0051699D01*
X0415732Y0051973D01*
X0415781Y0052015D01*
X0416026Y0053142D01*
X0415999Y0053201D01*
X0416095Y0053458D01*
X0416153Y0053726D01*
X0416208Y0053761D01*
X0416611Y0054841D01*
X0416592Y0054903D01*
X0416724Y0055144D01*
X0416819Y0055401D01*
X0416879Y0055428D01*
X0417431Y0056439D01*
X0417422Y0056504D01*
X0417586Y0056723D01*
X0417717Y0056964D01*
X0417780Y0056982D01*
X0418471Y0057905D01*
X0418471Y0057970D01*
X0418665Y0058164D01*
X0418829Y0058383D01*
X0418893Y0058393D01*
X0419708Y0059208D01*
X0419718Y0059272D01*
X0419937Y0059437D01*
X0420131Y0059630D01*
X0420196Y0059630D01*
X0421119Y0060321D01*
X0421137Y0060384D01*
X0421378Y0060515D01*
X0421597Y0060679D01*
X0421662Y0060670D01*
X0422673Y0061222D01*
X0422700Y0061282D01*
X0422957Y0061377D01*
X0423198Y0061509D01*
X0423260Y0061490D01*
X0424340Y0061893D01*
X0424375Y0061948D01*
X0424643Y0062006D01*
X0424900Y0062102D01*
X0424959Y0062075D01*
X0426086Y0062320D01*
X0426128Y0062369D01*
X0426402Y0062389D01*
X0426670Y0062447D01*
X0426724Y0062412D01*
X0427842Y0062492D01*
X0427865Y0062515D01*
X0428168Y0062515D01*
X0428470Y0062537D01*
X0428495Y0062515D01*
X0442145Y0062515D01*
X0442145Y0082556D01*
X0417081Y0082556D01*
X0416144Y0083493D01*
X0416144Y0184819D01*
X0417081Y0185756D01*
X0418407Y0185756D01*
X0439581Y0185756D01*
X0442145Y0185756D01*
X0442145Y0202648D01*
X0428495Y0202648D01*
X0428470Y0202626D01*
X0428168Y0202648D01*
X0427865Y0202648D01*
X0427842Y0202671D01*
X0426724Y0202751D01*
X0426670Y0202716D01*
X0426402Y0202774D01*
X0426128Y0202793D01*
X0426086Y0202843D01*
X0424959Y0203088D01*
X0424900Y0203061D01*
X0424643Y0203156D01*
X0424375Y0203215D01*
X0424340Y0203269D01*
X0423260Y0203672D01*
X0423198Y0203654D01*
X0422957Y0203785D01*
X0422700Y0203881D01*
X0422673Y0203940D01*
X0421662Y0204493D01*
X0421597Y0204483D01*
X0421378Y0204648D01*
X0421137Y0204779D01*
X0421119Y0204842D01*
X0420196Y0205532D01*
X0420131Y0205532D01*
X0419937Y0205726D01*
X0419718Y0205890D01*
X0419708Y0205955D01*
X0418893Y0206770D01*
X0418829Y0206779D01*
X0418665Y0206999D01*
X0418471Y0207193D01*
X0418471Y0207258D01*
X0417780Y0208180D01*
X0417717Y0208199D01*
X0417586Y0208439D01*
X0417422Y0208659D01*
X0417431Y0208723D01*
X0416879Y0209735D01*
X0416819Y0209762D01*
X0416724Y0210019D01*
X0416592Y0210259D01*
X0416611Y0210322D01*
X0416208Y0211402D01*
X0416153Y0211437D01*
X0416095Y0211705D01*
X0415999Y0211962D01*
X0416026Y0212021D01*
X0415781Y0213147D01*
X0415732Y0213190D01*
X0415712Y0213464D01*
X0415654Y0213731D01*
X0415689Y0213786D01*
X0415609Y0214904D01*
X0415586Y0214927D01*
X0415586Y0215230D01*
X0415564Y0215532D01*
X0415586Y0215557D01*
X0415586Y0229156D01*
X0078603Y0229156D01*
X0078603Y0215557D01*
X0078625Y0215532D01*
X0078603Y0215230D01*
X0078603Y0214927D01*
X0078580Y0214904D01*
X0078500Y0213786D01*
X0078535Y0213731D01*
X0078477Y0213464D01*
X0078457Y0213190D01*
X0078408Y0213147D01*
X0078163Y0212021D01*
X0078190Y0211962D01*
X0078094Y0211705D01*
X0078036Y0211437D01*
X0077981Y0211402D01*
X0077578Y0210322D01*
X0077597Y0210259D01*
X0077465Y0210019D01*
X0077370Y0209762D01*
X0077310Y0209735D01*
X0076758Y0208723D01*
X0076767Y0208659D01*
X0076603Y0208439D01*
X0076472Y0208199D01*
X0076409Y0208180D01*
X0075718Y0207258D01*
X0075718Y0207193D01*
X0075524Y0206999D01*
X0075360Y0206779D01*
X0075296Y0206770D01*
X0074481Y0205955D01*
X0074471Y0205890D01*
X0074252Y0205726D01*
X0074058Y0205532D01*
X0073993Y0205532D01*
X0073070Y0204842D01*
X0073052Y0204779D01*
X0072811Y0204648D01*
X0072592Y0204483D01*
X0072527Y0204493D01*
X0071516Y0203940D01*
X0071489Y0203881D01*
X0071232Y0203785D01*
X0070991Y0203654D01*
X0070929Y0203672D01*
X0069849Y0203269D01*
X0069814Y0203215D01*
X0069546Y0203156D01*
X0069289Y0203061D01*
X0069230Y0203088D01*
X0068103Y0202843D01*
X0068061Y0202793D01*
X0067787Y0202774D01*
X0067519Y0202716D01*
X0067464Y0202751D01*
X0066347Y0202671D01*
X0066323Y0202648D01*
X0066021Y0202648D01*
X0065719Y0202626D01*
X0065694Y0202648D01*
X0052044Y0202648D01*
X0052044Y0062515D01*
X0065694Y0062515D01*
X0065719Y0062537D01*
X0066021Y0062515D01*
X0066323Y0062515D01*
X0066347Y0062492D01*
X0067464Y0062412D01*
X0067519Y0062447D01*
X0067787Y0062389D01*
X0068061Y0062369D01*
X0068103Y0062320D01*
X0069230Y0062075D01*
X0069289Y0062102D01*
X0069546Y0062006D01*
X0069814Y0061948D01*
X0069849Y0061893D01*
X0070929Y0061490D01*
X0070991Y0061509D01*
X0071232Y0061377D01*
X0071489Y0061282D01*
X0071516Y0061222D01*
X0072527Y0060670D01*
X0072592Y0060679D01*
X0072811Y0060515D01*
X0073052Y0060384D01*
X0073070Y0060321D01*
X0073993Y0059630D01*
X0074058Y0059630D01*
X0074252Y0059437D01*
X0074471Y0059272D01*
X0074481Y0059208D01*
X0075296Y0058393D01*
X0075360Y0058383D01*
X0075524Y0058164D01*
X0075718Y0057970D01*
X0075718Y0057905D01*
X0076409Y0056982D01*
X0076472Y0056964D01*
X0076603Y0056723D01*
X0076767Y0056504D01*
X0076758Y0056439D01*
X0077310Y0055428D01*
X0077370Y0055401D01*
X0077465Y0055144D01*
X0077597Y0054903D01*
X0077578Y0054841D01*
X0077981Y0053761D01*
X0078036Y0053726D01*
X0078094Y0053458D01*
X0078190Y0053201D01*
X0078163Y0053142D01*
X0078408Y0052015D01*
X0078457Y0051973D01*
X0078477Y0051699D01*
X0078535Y0051431D01*
X0078500Y0051377D01*
X0078580Y0050259D01*
X0078603Y0050236D01*
X0078603Y0049933D01*
X0078625Y0049631D01*
X0078603Y0049606D01*
X0078603Y0050141D02*
X0219042Y0050141D01*
X0219476Y0049707D02*
X0218000Y0051183D01*
X0217866Y0051506D01*
X0216087Y0051506D01*
X0215058Y0051932D01*
X0213534Y0053456D01*
X0187254Y0053456D01*
X0187030Y0053232D01*
X0186001Y0052806D01*
X0180987Y0052806D01*
X0179958Y0053232D01*
X0178008Y0055182D01*
X0177220Y0055970D01*
X0176794Y0056999D01*
X0176794Y0062013D01*
X0177220Y0063042D01*
X0181770Y0067592D01*
X0182558Y0068380D01*
X0183587Y0068806D01*
X0193384Y0068806D01*
X0243434Y0118856D01*
X0243049Y0118856D01*
X0240244Y0121661D01*
X0237439Y0118856D01*
X0233049Y0118856D01*
X0229944Y0121961D01*
X0229944Y0126351D01*
X0232449Y0128856D01*
X0192204Y0128856D01*
X0192821Y0128239D01*
X0193339Y0128756D01*
X0197149Y0128756D01*
X0199844Y0126062D01*
X0199844Y0122251D01*
X0197149Y0119556D01*
X0193339Y0119556D01*
X0190644Y0122251D01*
X0190644Y0122496D01*
X0187719Y0125421D01*
X0185544Y0123246D01*
X0185544Y0121961D01*
X0182439Y0118856D01*
X0178049Y0118856D01*
X0175244Y0121661D01*
X0172439Y0118856D01*
X0168049Y0118856D01*
X0164944Y0121961D01*
X0164944Y0126351D01*
X0168049Y0129456D01*
X0172439Y0129456D01*
X0175244Y0126651D01*
X0178049Y0129456D01*
X0181084Y0129456D01*
X0179084Y0131456D01*
X0118587Y0131456D01*
X0117558Y0131882D01*
X0116869Y0132571D01*
X0116180Y0131882D01*
X0115151Y0131456D01*
X0114454Y0131456D01*
X0109947Y0126949D01*
X0110244Y0126651D01*
X0113049Y0129456D01*
X0117439Y0129456D01*
X0120544Y0126351D01*
X0120544Y0121961D01*
X0117439Y0118856D01*
X0113049Y0118856D01*
X0110244Y0121661D01*
X0107439Y0118856D01*
X0103049Y0118856D01*
X0099944Y0121961D01*
X0099944Y0126351D01*
X0103049Y0129456D01*
X0104534Y0129456D01*
X0110920Y0135842D01*
X0111708Y0136630D01*
X0112488Y0136953D01*
X0112267Y0137174D01*
X0112149Y0137056D01*
X0108339Y0137056D01*
X0105644Y0139751D01*
X0105644Y0143562D01*
X0106839Y0144756D01*
X0105244Y0144756D01*
X0105244Y0149156D01*
X0105244Y0149156D01*
X0100844Y0149156D01*
X0100844Y0147334D01*
X0103422Y0144756D01*
X0105244Y0144756D01*
X0105244Y0149156D01*
X0105244Y0149156D01*
X0100844Y0149156D01*
X0100844Y0150979D01*
X0103422Y0153556D01*
X0105244Y0153556D01*
X0105244Y0149156D01*
X0105244Y0149156D01*
X0109644Y0149156D01*
X0109644Y0147334D01*
X0108567Y0146256D01*
X0111639Y0146256D01*
X0110644Y0147251D01*
X0110644Y0151062D01*
X0113339Y0153756D01*
X0117149Y0153756D01*
X0119844Y0151062D01*
X0119844Y0147251D01*
X0117149Y0144556D01*
X0113849Y0144556D01*
X0114844Y0143562D01*
X0114844Y0142516D01*
X0118455Y0138905D01*
X0118455Y0138905D01*
X0119243Y0138117D01*
X0119243Y0138117D01*
X0120304Y0137056D01*
X0177384Y0137056D01*
X0177267Y0137174D01*
X0177149Y0137056D01*
X0173339Y0137056D01*
X0170644Y0139751D01*
X0170644Y0143562D01*
X0171839Y0144756D01*
X0170244Y0144756D01*
X0170244Y0149156D01*
X0170244Y0149156D01*
X0165844Y0149156D01*
X0165844Y0147334D01*
X0168422Y0144756D01*
X0170244Y0144756D01*
X0170244Y0149156D01*
X0170244Y0149156D01*
X0165844Y0149156D01*
X0165844Y0150979D01*
X0168422Y0153556D01*
X0170244Y0153556D01*
X0170244Y0149156D01*
X0170244Y0149156D01*
X0174644Y0149156D01*
X0174644Y0147334D01*
X0173567Y0146256D01*
X0176639Y0146256D01*
X0175644Y0147251D01*
X0175644Y0151062D01*
X0178339Y0153756D01*
X0182149Y0153756D01*
X0184844Y0151062D01*
X0184844Y0147251D01*
X0182149Y0144556D01*
X0178849Y0144556D01*
X0179844Y0143562D01*
X0179844Y0142516D01*
X0185304Y0137056D01*
X0214937Y0137056D01*
X0214794Y0137400D01*
X0214794Y0138912D01*
X0215373Y0140309D01*
X0216442Y0141378D01*
X0217838Y0141956D01*
X0219350Y0141956D01*
X0220747Y0141378D01*
X0221168Y0140956D01*
X0233684Y0140956D01*
X0235644Y0142916D01*
X0235644Y0143562D01*
X0236839Y0144756D01*
X0235244Y0144756D01*
X0235244Y0149156D01*
X0235244Y0149156D01*
X0230844Y0149156D01*
X0230844Y0147334D01*
X0233422Y0144756D01*
X0235244Y0144756D01*
X0235244Y0149156D01*
X0235244Y0149156D01*
X0230844Y0149156D01*
X0230844Y0150979D01*
X0233422Y0153556D01*
X0235244Y0153556D01*
X0235244Y0149156D01*
X0235244Y0149156D01*
X0239644Y0149156D01*
X0239644Y0147334D01*
X0238567Y0146256D01*
X0241639Y0146256D01*
X0240644Y0147251D01*
X0240644Y0151062D01*
X0243339Y0153756D01*
X0247149Y0153756D01*
X0249844Y0151062D01*
X0249844Y0147251D01*
X0247149Y0144556D01*
X0243849Y0144556D01*
X0244844Y0143562D01*
X0244844Y0139884D01*
X0245138Y0140006D01*
X0246650Y0140006D01*
X0248047Y0139428D01*
X0248819Y0138655D01*
X0249592Y0139428D01*
X0250988Y0140006D01*
X0252500Y0140006D01*
X0252844Y0139864D01*
X0252844Y0147396D01*
X0251458Y0148782D01*
X0250670Y0149570D01*
X0250244Y0150599D01*
X0250244Y0159513D01*
X0250670Y0160542D01*
X0256123Y0165994D01*
X0255094Y0167023D01*
X0255094Y0171289D01*
X0258111Y0174306D01*
X0262377Y0174306D01*
X0265394Y0171289D01*
X0265394Y0167023D01*
X0262377Y0164006D01*
X0262054Y0164006D01*
X0255844Y0157796D01*
X0255844Y0152316D01*
X0258018Y0150142D01*
X0258444Y0149113D01*
X0258444Y0129799D01*
X0258018Y0128770D01*
X0257230Y0127982D01*
X0253244Y0123996D01*
X0253244Y0121349D01*
X0252818Y0120320D01*
X0252030Y0119532D01*
X0196130Y0063632D01*
X0195101Y0063206D01*
X0185304Y0063206D01*
X0185066Y0062968D01*
X0185647Y0062728D01*
X0186068Y0062306D01*
X0214834Y0062306D01*
X0224020Y0071492D01*
X0224808Y0072280D01*
X0225837Y0072706D01*
X0243434Y0072706D01*
X0245644Y0074916D01*
X0245644Y0076062D01*
X0248339Y0078756D01*
X0252149Y0078756D01*
X0254844Y0076062D01*
X0254844Y0072251D01*
X0252149Y0069556D01*
X0248339Y0069556D01*
X0248271Y0069624D01*
X0248229Y0069581D01*
X0252254Y0065556D01*
X0265951Y0065556D01*
X0266980Y0065130D01*
X0269580Y0062530D01*
X0269804Y0062306D01*
X0275284Y0062306D01*
X0285634Y0072656D01*
X0284878Y0072656D01*
X0284844Y0072622D01*
X0284844Y0072251D01*
X0282149Y0069556D01*
X0278339Y0069556D01*
X0275644Y0072251D01*
X0275644Y0076062D01*
X0278339Y0078756D01*
X0282149Y0078756D01*
X0282321Y0078584D01*
X0282977Y0078856D01*
X0293494Y0078856D01*
X0293494Y0162823D01*
X0293966Y0163962D01*
X0294160Y0164156D01*
X0283610Y0174706D01*
X0258228Y0174706D01*
X0252422Y0168900D01*
X0252422Y0168900D01*
X0251550Y0168028D01*
X0249714Y0166192D01*
X0249844Y0166062D01*
X0249844Y0162251D01*
X0247149Y0159556D01*
X0243339Y0159556D01*
X0240644Y0162251D01*
X0240644Y0166062D01*
X0243339Y0168756D01*
X0243510Y0168756D01*
X0245410Y0170656D01*
X0240710Y0175356D01*
X0193878Y0175356D01*
X0184714Y0166192D01*
X0184844Y0166062D01*
X0184844Y0162251D01*
X0182149Y0159556D01*
X0178339Y0159556D01*
X0175644Y0162251D01*
X0175644Y0166062D01*
X0175774Y0166192D01*
X0166610Y0175356D01*
X0128878Y0175356D01*
X0119714Y0166192D01*
X0119844Y0166062D01*
X0119844Y0162251D01*
X0117149Y0159556D01*
X0113339Y0159556D01*
X0110644Y0162251D01*
X0110644Y0166062D01*
X0113339Y0168756D01*
X0113510Y0168756D01*
X0114672Y0169918D01*
X0114392Y0170035D01*
X0113323Y0171104D01*
X0112744Y0172500D01*
X0112744Y0174012D01*
X0113323Y0175409D01*
X0113744Y0175830D01*
X0113744Y0189556D01*
X0113339Y0189556D01*
X0110644Y0192251D01*
X0110644Y0196062D01*
X0113339Y0198756D01*
X0117149Y0198756D01*
X0117217Y0198689D01*
X0118294Y0199766D01*
X0118294Y0201346D01*
X0115059Y0204581D01*
X0114334Y0204581D01*
X0112653Y0205278D01*
X0111366Y0206565D01*
X0110669Y0208246D01*
X0110669Y0210066D01*
X0111366Y0211748D01*
X0112653Y0213034D01*
X0114334Y0213731D01*
X0116154Y0213731D01*
X0117836Y0213034D01*
X0119122Y0211748D01*
X0119819Y0210066D01*
X0119819Y0208246D01*
X0119671Y0207889D01*
X0123468Y0204092D01*
X0123894Y0203063D01*
X0123894Y0201466D01*
X0141608Y0219180D01*
X0142637Y0219606D01*
X0258801Y0219606D01*
X0259830Y0219180D01*
X0260618Y0218392D01*
X0294504Y0184506D01*
X0305434Y0184506D01*
X0305384Y0184556D01*
X0303339Y0184556D01*
X0300644Y0187251D01*
X0300644Y0191062D01*
X0303339Y0193756D01*
X0307149Y0193756D01*
X0309844Y0191062D01*
X0309844Y0188016D01*
X0322454Y0175406D01*
X0326884Y0175406D01*
X0317442Y0184849D01*
X0317149Y0184556D01*
X0313339Y0184556D01*
X0310644Y0187251D01*
X0310644Y0191062D01*
X0313339Y0193756D01*
X0317149Y0193756D01*
X0319844Y0191062D01*
X0319844Y0190366D01*
X0330904Y0179306D01*
X0375270Y0179306D01*
X0375692Y0179728D01*
X0377088Y0180306D01*
X0377872Y0180306D01*
X0375844Y0182334D01*
X0375844Y0184156D01*
X0380244Y0184156D01*
X0380244Y0184156D01*
X0380244Y0179756D01*
X0379928Y0179756D01*
X0379997Y0179728D01*
X0381066Y0178659D01*
X0381644Y0177262D01*
X0381644Y0175750D01*
X0381502Y0175406D01*
X0396144Y0175406D01*
X0396144Y0175962D01*
X0396723Y0177359D01*
X0397792Y0178428D01*
X0399188Y0179006D01*
X0399984Y0179006D01*
X0396408Y0182582D01*
X0395620Y0183370D01*
X0395194Y0184399D01*
X0395194Y0201346D01*
X0389034Y0207506D01*
X0385737Y0207506D01*
X0384708Y0207932D01*
X0382617Y0210024D01*
X0382149Y0209556D01*
X0378339Y0209556D01*
X0375644Y0212251D01*
X0375644Y0216062D01*
X0378339Y0218756D01*
X0382149Y0218756D01*
X0384844Y0216062D01*
X0384844Y0215716D01*
X0387454Y0213106D01*
X0390751Y0213106D01*
X0391780Y0212680D01*
X0392568Y0211892D01*
X0400368Y0204092D01*
X0400794Y0203063D01*
X0400794Y0186116D01*
X0407904Y0179006D01*
X0409150Y0179006D01*
X0410547Y0178428D01*
X0411616Y0177359D01*
X0412194Y0175962D01*
X0412194Y0174450D01*
X0411616Y0173054D01*
X0410547Y0171985D01*
X0409150Y0171406D01*
X0407638Y0171406D01*
X0406242Y0171985D01*
X0405173Y0173054D01*
X0404632Y0174358D01*
X0403744Y0175246D01*
X0403744Y0174450D01*
X0403166Y0173054D01*
X0402097Y0171985D01*
X0400700Y0171406D01*
X0400104Y0171406D01*
X0399718Y0171020D01*
X0398930Y0170232D01*
X0397901Y0169806D01*
X0324154Y0169806D01*
X0385504Y0108456D01*
X0387620Y0108456D01*
X0388042Y0108878D01*
X0389438Y0109456D01*
X0390950Y0109456D01*
X0392347Y0108878D01*
X0393416Y0107809D01*
X0393994Y0106412D01*
X0393994Y0104900D01*
X0393416Y0103504D01*
X0392347Y0102435D01*
X0390950Y0101856D01*
X0389438Y0101856D01*
X0388042Y0102435D01*
X0387620Y0102856D01*
X0383787Y0102856D01*
X0382758Y0103282D01*
X0307134Y0178906D01*
X0292787Y0178906D01*
X0291758Y0179332D01*
X0257084Y0214006D01*
X0144354Y0214006D01*
X0127368Y0197020D01*
X0126580Y0196232D01*
X0125551Y0195806D01*
X0122254Y0195806D01*
X0119844Y0193396D01*
X0119844Y0192251D01*
X0119231Y0191637D01*
X0119344Y0191363D01*
X0119344Y0175830D01*
X0119766Y0175409D01*
X0119882Y0175128D01*
X0124966Y0180212D01*
X0125838Y0181084D01*
X0126977Y0181556D01*
X0168511Y0181556D01*
X0169650Y0181084D01*
X0178967Y0171767D01*
X0178394Y0173150D01*
X0178394Y0174662D01*
X0178973Y0176059D01*
X0180042Y0177128D01*
X0181438Y0177706D01*
X0181994Y0177706D01*
X0181994Y0187046D01*
X0179484Y0189556D01*
X0178339Y0189556D01*
X0175644Y0192251D01*
X0175644Y0196062D01*
X0177444Y0197862D01*
X0177444Y0205486D01*
X0176366Y0206565D01*
X0175669Y0208246D01*
X0175669Y0210066D01*
X0176366Y0211748D01*
X0177653Y0213034D01*
X0179334Y0213731D01*
X0181154Y0213731D01*
X0182836Y0213034D01*
X0184122Y0211748D01*
X0184819Y0210066D01*
X0184819Y0208246D01*
X0184122Y0206565D01*
X0183044Y0205486D01*
X0183044Y0197862D01*
X0184844Y0196062D01*
X0184844Y0192251D01*
X0184777Y0192183D01*
X0186380Y0190580D01*
X0187168Y0189792D01*
X0187594Y0188763D01*
X0187594Y0177840D01*
X0189966Y0180212D01*
X0190838Y0181084D01*
X0191977Y0181556D01*
X0242611Y0181556D01*
X0243750Y0181084D01*
X0249794Y0175040D01*
X0254316Y0179562D01*
X0255188Y0180434D01*
X0256327Y0180906D01*
X0285511Y0180906D01*
X0286650Y0180434D01*
X0301172Y0165912D01*
X0303333Y0163751D01*
X0303339Y0163756D01*
X0307149Y0163756D01*
X0309844Y0161062D01*
X0309844Y0157251D01*
X0307149Y0154556D01*
X0303339Y0154556D01*
X0300644Y0157251D01*
X0300644Y0157672D01*
X0300466Y0157850D01*
X0299694Y0158622D01*
X0299694Y0078856D01*
X0362211Y0078856D01*
X0363350Y0078384D01*
X0364222Y0077512D01*
X0368158Y0073576D01*
X0368339Y0073756D01*
X0372149Y0073756D01*
X0374844Y0071062D01*
X0374844Y0067251D01*
X0372149Y0064556D01*
X0368339Y0064556D01*
X0365644Y0067251D01*
X0365644Y0067322D01*
X0360310Y0072656D01*
X0356007Y0072656D01*
X0356294Y0071962D01*
X0356294Y0070450D01*
X0355716Y0069054D01*
X0354647Y0067985D01*
X0353250Y0067406D01*
X0351738Y0067406D01*
X0350342Y0067985D01*
X0349920Y0068406D01*
X0289304Y0068406D01*
X0278818Y0057920D01*
X0278030Y0057132D01*
X0277001Y0056706D01*
X0269154Y0056706D01*
X0267682Y0055235D01*
X0267697Y0055200D01*
X0267697Y0053112D01*
X0266898Y0051183D01*
X0265422Y0049707D01*
X0263493Y0048908D01*
X0261405Y0048908D01*
X0259476Y0049707D01*
X0258000Y0051183D01*
X0257201Y0053112D01*
X0257201Y0055200D01*
X0258000Y0057129D01*
X0259476Y0058605D01*
X0261405Y0059404D01*
X0263493Y0059404D01*
X0263804Y0059275D01*
X0264359Y0059831D01*
X0264234Y0059956D01*
X0250537Y0059956D01*
X0249508Y0060382D01*
X0248720Y0061170D01*
X0243008Y0066882D01*
X0242784Y0067106D01*
X0227554Y0067106D01*
X0217679Y0057231D01*
X0217804Y0057106D01*
X0217990Y0057106D01*
X0218000Y0057129D01*
X0219476Y0058605D01*
X0221405Y0059404D01*
X0223493Y0059404D01*
X0225422Y0058605D01*
X0226898Y0057129D01*
X0227697Y0055200D01*
X0227697Y0053112D01*
X0226898Y0051183D01*
X0225422Y0049707D01*
X0223493Y0048908D01*
X0221405Y0048908D01*
X0219476Y0049707D01*
X0215523Y0051740D02*
X0078474Y0051740D01*
X0078139Y0053338D02*
X0179852Y0053338D01*
X0178254Y0054937D02*
X0104182Y0054937D01*
X0104192Y0054940D02*
X0105234Y0055442D01*
X0106214Y0056058D01*
X0107118Y0056779D01*
X0107936Y0057597D01*
X0108658Y0058501D01*
X0109273Y0059481D01*
X0109775Y0060523D01*
X0110157Y0061615D01*
X0110415Y0062743D01*
X0110519Y0063671D01*
X0101044Y0063671D01*
X0101044Y0054196D01*
X0101972Y0054301D01*
X0103100Y0054558D01*
X0104192Y0054940D01*
X0106813Y0056535D02*
X0176986Y0056535D01*
X0176794Y0058134D02*
X0108364Y0058134D01*
X0109394Y0059732D02*
X0132668Y0059732D01*
X0133194Y0059206D02*
X0130294Y0062106D01*
X0130294Y0064156D01*
X0135244Y0064156D01*
X0135244Y0064156D01*
X0135244Y0059206D01*
X0133194Y0059206D01*
X0135244Y0059206D02*
X0137294Y0059206D01*
X0140194Y0062106D01*
X0140194Y0064156D01*
X0135244Y0064156D01*
X0135244Y0064156D01*
X0135244Y0059206D01*
X0135244Y0059732D02*
X0135244Y0059732D01*
X0135244Y0061331D02*
X0135244Y0061331D01*
X0135244Y0062929D02*
X0135244Y0062929D01*
X0135244Y0064156D02*
X0135244Y0064156D01*
X0130294Y0064156D01*
X0130294Y0066207D01*
X0133194Y0069106D01*
X0135244Y0069106D01*
X0135244Y0064156D01*
X0135244Y0064156D01*
X0140194Y0064156D01*
X0140194Y0066207D01*
X0137294Y0069106D01*
X0135244Y0069106D01*
X0135244Y0064156D01*
X0135244Y0064528D02*
X0135244Y0064528D01*
X0135244Y0066126D02*
X0135244Y0066126D01*
X0135244Y0067725D02*
X0135244Y0067725D01*
X0135244Y0069206D02*
X0137294Y0069206D01*
X0140194Y0072106D01*
X0140194Y0074156D01*
X0135244Y0074156D01*
X0135244Y0074156D01*
X0135244Y0069206D01*
X0133194Y0069206D01*
X0130294Y0072106D01*
X0130294Y0074156D01*
X0135244Y0074156D01*
X0135244Y0074156D01*
X0135244Y0069206D01*
X0135244Y0069323D02*
X0135244Y0069323D01*
X0135244Y0070922D02*
X0135244Y0070922D01*
X0135244Y0072520D02*
X0135244Y0072520D01*
X0135244Y0074119D02*
X0135244Y0074119D01*
X0135244Y0074156D02*
X0135244Y0074156D01*
X0130294Y0074156D01*
X0130294Y0076207D01*
X0133194Y0079106D01*
X0135244Y0079106D01*
X0135244Y0074156D01*
X0135244Y0074156D01*
X0140194Y0074156D01*
X0140194Y0076207D01*
X0137294Y0079106D01*
X0135244Y0079106D01*
X0135244Y0074156D01*
X0135244Y0075717D02*
X0135244Y0075717D01*
X0135244Y0077316D02*
X0135244Y0077316D01*
X0135244Y0078914D02*
X0135244Y0078914D01*
X0133002Y0078914D02*
X0128913Y0078914D01*
X0129248Y0077664D02*
X0128532Y0080335D01*
X0127150Y0082729D01*
X0125195Y0084684D01*
X0122801Y0086067D01*
X0120130Y0086782D01*
X0117366Y0086782D01*
X0114695Y0086067D01*
X0112301Y0084684D01*
X0110346Y0082729D01*
X0108964Y0080335D01*
X0108248Y0077664D01*
X0108248Y0074900D01*
X0108964Y0072229D01*
X0110346Y0069835D01*
X0112301Y0067880D01*
X0114695Y0066498D01*
X0117366Y0065782D01*
X0120130Y0065782D01*
X0122801Y0066498D01*
X0125195Y0067880D01*
X0127150Y0069835D01*
X0128532Y0072229D01*
X0129248Y0074900D01*
X0129248Y0077664D01*
X0129248Y0077316D02*
X0131404Y0077316D01*
X0130294Y0075717D02*
X0129248Y0075717D01*
X0129039Y0074119D02*
X0130294Y0074119D01*
X0130294Y0072520D02*
X0128610Y0072520D01*
X0127778Y0070922D02*
X0131478Y0070922D01*
X0133076Y0069323D02*
X0126639Y0069323D01*
X0124926Y0067725D02*
X0131812Y0067725D01*
X0130294Y0066126D02*
X0121415Y0066126D01*
X0116081Y0066126D02*
X0110423Y0066126D01*
X0110415Y0066199D02*
X0110157Y0067327D01*
X0109775Y0068419D01*
X0109273Y0069461D01*
X0108658Y0070441D01*
X0107936Y0071345D01*
X0107118Y0072163D01*
X0106214Y0072885D01*
X0105234Y0073500D01*
X0104192Y0074002D01*
X0103100Y0074384D01*
X0101972Y0074642D01*
X0101044Y0074746D01*
X0101044Y0065271D01*
X0110519Y0065271D01*
X0110415Y0066199D01*
X0110018Y0067725D02*
X0112570Y0067725D01*
X0110858Y0069323D02*
X0109339Y0069323D01*
X0109718Y0070922D02*
X0108274Y0070922D01*
X0108886Y0072520D02*
X0106670Y0072520D01*
X0108457Y0074119D02*
X0103858Y0074119D01*
X0101044Y0074119D02*
X0099444Y0074119D01*
X0099444Y0074746D02*
X0098516Y0074642D01*
X0097388Y0074384D01*
X0096296Y0074002D01*
X0095254Y0073500D01*
X0094274Y0072885D01*
X0093370Y0072163D01*
X0092552Y0071345D01*
X0091831Y0070441D01*
X0091215Y0069461D01*
X0090713Y0068419D01*
X0090331Y0067327D01*
X0090074Y0066199D01*
X0089969Y0065271D01*
X0099444Y0065271D01*
X0099444Y0063671D01*
X0101044Y0063671D01*
X0101044Y0065271D01*
X0099444Y0065271D01*
X0099444Y0074746D01*
X0099444Y0072520D02*
X0101044Y0072520D01*
X0101044Y0070922D02*
X0099444Y0070922D01*
X0099444Y0069323D02*
X0101044Y0069323D01*
X0101044Y0067725D02*
X0099444Y0067725D01*
X0099444Y0066126D02*
X0101044Y0066126D01*
X0101044Y0064528D02*
X0130294Y0064528D01*
X0130294Y0062929D02*
X0110436Y0062929D01*
X0110058Y0061331D02*
X0131069Y0061331D01*
X0137821Y0059732D02*
X0176794Y0059732D01*
X0176794Y0061331D02*
X0139419Y0061331D01*
X0140194Y0062929D02*
X0177174Y0062929D01*
X0178706Y0064528D02*
X0140194Y0064528D01*
X0140194Y0066126D02*
X0180305Y0066126D01*
X0181903Y0067725D02*
X0138676Y0067725D01*
X0137412Y0069323D02*
X0182794Y0069323D01*
X0183111Y0069006D02*
X0187377Y0069006D01*
X0190394Y0072023D01*
X0190394Y0076289D01*
X0187377Y0079306D01*
X0183111Y0079306D01*
X0180094Y0076289D01*
X0180094Y0072023D01*
X0183111Y0069006D01*
X0181195Y0070922D02*
X0139010Y0070922D01*
X0140194Y0072520D02*
X0180094Y0072520D01*
X0180094Y0074119D02*
X0140194Y0074119D01*
X0140194Y0075717D02*
X0180094Y0075717D01*
X0181121Y0077316D02*
X0139085Y0077316D01*
X0137486Y0078914D02*
X0182719Y0078914D01*
X0187769Y0078914D02*
X0203493Y0078914D01*
X0201894Y0077316D02*
X0189367Y0077316D01*
X0190394Y0075717D02*
X0200296Y0075717D01*
X0198697Y0074119D02*
X0190394Y0074119D01*
X0190394Y0072520D02*
X0197099Y0072520D01*
X0195500Y0070922D02*
X0189293Y0070922D01*
X0187695Y0069323D02*
X0193902Y0069323D01*
X0194544Y0066006D02*
X0250444Y0121906D01*
X0250444Y0125156D01*
X0255644Y0130356D01*
X0255644Y0148556D01*
X0253044Y0151156D01*
X0253044Y0158956D01*
X0260844Y0166756D01*
X0260844Y0168706D01*
X0260244Y0169156D01*
X0263605Y0165234D02*
X0293082Y0165234D01*
X0293831Y0163636D02*
X0261683Y0163636D01*
X0260085Y0162037D02*
X0293494Y0162037D01*
X0293494Y0160439D02*
X0258486Y0160439D01*
X0258422Y0158556D02*
X0255844Y0155979D01*
X0255844Y0154156D01*
X0255844Y0152334D01*
X0258422Y0149756D01*
X0260244Y0149756D01*
X0260244Y0154156D01*
X0260244Y0154156D01*
X0255844Y0154156D01*
X0260244Y0154156D01*
X0260244Y0154156D01*
X0260244Y0149756D01*
X0262067Y0149756D01*
X0264644Y0152334D01*
X0264644Y0154156D01*
X0260244Y0154156D01*
X0260244Y0154156D01*
X0260244Y0158556D01*
X0258422Y0158556D01*
X0256888Y0158840D02*
X0293494Y0158840D01*
X0293494Y0157242D02*
X0263381Y0157242D01*
X0264644Y0155979D02*
X0262067Y0158556D01*
X0260244Y0158556D01*
X0260244Y0154156D01*
X0260244Y0154156D01*
X0264644Y0154156D01*
X0264644Y0155979D01*
X0264644Y0155643D02*
X0293494Y0155643D01*
X0293494Y0154045D02*
X0264644Y0154045D01*
X0264644Y0152446D02*
X0293494Y0152446D01*
X0293494Y0150847D02*
X0263158Y0150847D01*
X0260244Y0150847D02*
X0260244Y0150847D01*
X0260244Y0152446D02*
X0260244Y0152446D01*
X0260244Y0154045D02*
X0260244Y0154045D01*
X0260244Y0155643D02*
X0260244Y0155643D01*
X0260244Y0157242D02*
X0260244Y0157242D01*
X0257107Y0157242D02*
X0255844Y0157242D01*
X0255844Y0155643D02*
X0255844Y0155643D01*
X0255844Y0154045D02*
X0255844Y0154045D01*
X0255844Y0152446D02*
X0255844Y0152446D01*
X0257313Y0150847D02*
X0257330Y0150847D01*
X0258388Y0149249D02*
X0293494Y0149249D01*
X0293494Y0147650D02*
X0258444Y0147650D01*
X0258444Y0146052D02*
X0293494Y0146052D01*
X0293494Y0144453D02*
X0258444Y0144453D01*
X0258444Y0142855D02*
X0293494Y0142855D01*
X0293494Y0141256D02*
X0258444Y0141256D01*
X0258444Y0139658D02*
X0293494Y0139658D01*
X0293494Y0138059D02*
X0258444Y0138059D01*
X0258444Y0136461D02*
X0293494Y0136461D01*
X0293494Y0134862D02*
X0258444Y0134862D01*
X0258444Y0133264D02*
X0293494Y0133264D01*
X0293494Y0131665D02*
X0258444Y0131665D01*
X0258444Y0130067D02*
X0293494Y0130067D01*
X0293494Y0128468D02*
X0262437Y0128468D01*
X0262149Y0128756D02*
X0258339Y0128756D01*
X0255644Y0126062D01*
X0255644Y0122251D01*
X0258339Y0119556D01*
X0262149Y0119556D01*
X0264844Y0122251D01*
X0264844Y0126062D01*
X0262149Y0128756D01*
X0264036Y0126870D02*
X0293494Y0126870D01*
X0293494Y0125271D02*
X0264844Y0125271D01*
X0264844Y0123673D02*
X0293494Y0123673D01*
X0293494Y0122074D02*
X0264668Y0122074D01*
X0263069Y0120476D02*
X0293494Y0120476D01*
X0293494Y0118877D02*
X0251375Y0118877D01*
X0252882Y0120476D02*
X0257419Y0120476D01*
X0255821Y0122074D02*
X0253244Y0122074D01*
X0253244Y0123673D02*
X0255644Y0123673D01*
X0255644Y0125271D02*
X0254519Y0125271D01*
X0256118Y0126870D02*
X0256452Y0126870D01*
X0257716Y0128468D02*
X0258051Y0128468D01*
X0251744Y0136206D02*
X0247844Y0132306D01*
X0245894Y0132306D01*
X0245244Y0131656D01*
X0182844Y0131656D01*
X0180244Y0134256D01*
X0119144Y0134256D01*
X0116869Y0136531D01*
X0114594Y0134256D01*
X0113294Y0134256D01*
X0105494Y0126456D01*
X0105494Y0124506D01*
X0105244Y0124156D01*
X0099944Y0123673D02*
X0094844Y0123673D01*
X0094844Y0122251D02*
X0092149Y0119556D01*
X0088339Y0119556D01*
X0085644Y0122251D01*
X0085644Y0126062D01*
X0088339Y0128756D01*
X0092149Y0128756D01*
X0094844Y0126062D01*
X0094844Y0122251D01*
X0094668Y0122074D02*
X0099944Y0122074D01*
X0101429Y0120476D02*
X0093069Y0120476D01*
X0087419Y0120476D02*
X0052044Y0120476D01*
X0052044Y0122074D02*
X0085821Y0122074D01*
X0085644Y0123673D02*
X0052044Y0123673D01*
X0052044Y0125271D02*
X0085644Y0125271D01*
X0086452Y0126870D02*
X0052044Y0126870D01*
X0052044Y0128468D02*
X0088051Y0128468D01*
X0092437Y0128468D02*
X0102061Y0128468D01*
X0100462Y0126870D02*
X0094036Y0126870D01*
X0094844Y0125271D02*
X0099944Y0125271D01*
X0105145Y0130067D02*
X0052044Y0130067D01*
X0052044Y0131665D02*
X0106743Y0131665D01*
X0108342Y0133264D02*
X0052044Y0133264D01*
X0052044Y0134862D02*
X0109941Y0134862D01*
X0111539Y0136461D02*
X0052044Y0136461D01*
X0052044Y0138059D02*
X0107335Y0138059D01*
X0105737Y0139658D02*
X0052044Y0139658D01*
X0052044Y0141256D02*
X0105644Y0141256D01*
X0105644Y0142855D02*
X0052044Y0142855D01*
X0052044Y0144453D02*
X0106536Y0144453D01*
X0105244Y0146052D02*
X0105244Y0146052D01*
X0105244Y0147650D02*
X0105244Y0147650D01*
X0105244Y0149156D02*
X0109644Y0149156D01*
X0109644Y0150979D01*
X0107067Y0153556D01*
X0105244Y0153556D01*
X0105244Y0149156D01*
X0105244Y0149156D01*
X0105244Y0149249D02*
X0105244Y0149249D01*
X0105244Y0150847D02*
X0105244Y0150847D01*
X0105244Y0152446D02*
X0105244Y0152446D01*
X0102311Y0152446D02*
X0094644Y0152446D01*
X0094644Y0152334D02*
X0094644Y0154156D01*
X0090244Y0154156D01*
X0090244Y0154156D01*
X0090244Y0149756D01*
X0088422Y0149756D01*
X0085844Y0152334D01*
X0085844Y0154156D01*
X0090244Y0154156D01*
X0090244Y0154156D01*
X0090244Y0149756D01*
X0092067Y0149756D01*
X0094644Y0152334D01*
X0094644Y0154045D02*
X0125844Y0154045D01*
X0125844Y0154156D02*
X0125844Y0152334D01*
X0128422Y0149756D01*
X0130244Y0149756D01*
X0130244Y0154156D01*
X0130244Y0154156D01*
X0125844Y0154156D01*
X0130244Y0154156D01*
X0130244Y0154156D01*
X0130244Y0149756D01*
X0132067Y0149756D01*
X0134644Y0152334D01*
X0134644Y0154156D01*
X0130244Y0154156D01*
X0130244Y0154156D01*
X0130244Y0158556D01*
X0128422Y0158556D01*
X0125844Y0155979D01*
X0125844Y0154156D01*
X0125844Y0155643D02*
X0094644Y0155643D01*
X0094644Y0155979D02*
X0092067Y0158556D01*
X0090244Y0158556D01*
X0088422Y0158556D01*
X0085844Y0155979D01*
X0085844Y0154156D01*
X0090244Y0154156D01*
X0090244Y0154156D01*
X0090244Y0158556D01*
X0090244Y0154156D01*
X0090244Y0154156D01*
X0094644Y0154156D01*
X0094644Y0155979D01*
X0093381Y0157242D02*
X0127107Y0157242D01*
X0130244Y0157242D02*
X0130244Y0157242D01*
X0130244Y0158556D02*
X0130244Y0154156D01*
X0130244Y0154156D01*
X0134644Y0154156D01*
X0134644Y0155979D01*
X0132067Y0158556D01*
X0130244Y0158556D01*
X0130244Y0155643D02*
X0130244Y0155643D01*
X0130244Y0154045D02*
X0130244Y0154045D01*
X0130244Y0152446D02*
X0130244Y0152446D01*
X0130244Y0150847D02*
X0130244Y0150847D01*
X0127330Y0150847D02*
X0119844Y0150847D01*
X0119844Y0149249D02*
X0165844Y0149249D01*
X0165844Y0150847D02*
X0158158Y0150847D01*
X0157067Y0149756D02*
X0159644Y0152334D01*
X0159644Y0154156D01*
X0155244Y0154156D01*
X0155244Y0154156D01*
X0155244Y0149756D01*
X0153422Y0149756D01*
X0150844Y0152334D01*
X0150844Y0154156D01*
X0155244Y0154156D01*
X0155244Y0154156D01*
X0155244Y0149756D01*
X0157067Y0149756D01*
X0155244Y0150847D02*
X0155244Y0150847D01*
X0155244Y0152446D02*
X0155244Y0152446D01*
X0155244Y0154045D02*
X0155244Y0154045D01*
X0155244Y0154156D02*
X0155244Y0154156D01*
X0150844Y0154156D01*
X0150844Y0155979D01*
X0153422Y0158556D01*
X0155244Y0158556D01*
X0155244Y0154156D01*
X0155244Y0154156D01*
X0159644Y0154156D01*
X0159644Y0155979D01*
X0157067Y0158556D01*
X0155244Y0158556D01*
X0155244Y0154156D01*
X0155244Y0155643D02*
X0155244Y0155643D01*
X0155244Y0157242D02*
X0155244Y0157242D01*
X0152107Y0157242D02*
X0133381Y0157242D01*
X0134644Y0155643D02*
X0150844Y0155643D01*
X0150844Y0154045D02*
X0134644Y0154045D01*
X0134644Y0152446D02*
X0150844Y0152446D01*
X0152330Y0150847D02*
X0133158Y0150847D01*
X0125844Y0152446D02*
X0118460Y0152446D01*
X0119844Y0147650D02*
X0165844Y0147650D01*
X0167126Y0146052D02*
X0118645Y0146052D01*
X0113952Y0144453D02*
X0171536Y0144453D01*
X0170644Y0142855D02*
X0114844Y0142855D01*
X0116104Y0141256D02*
X0170644Y0141256D01*
X0170737Y0139658D02*
X0117702Y0139658D01*
X0119301Y0138059D02*
X0172335Y0138059D01*
X0175244Y0141656D02*
X0175694Y0141406D01*
X0176994Y0141406D01*
X0184144Y0134256D01*
X0243944Y0134256D01*
X0245894Y0136206D01*
X0247491Y0139658D02*
X0250148Y0139658D01*
X0252844Y0141256D02*
X0244844Y0141256D01*
X0244844Y0142855D02*
X0252844Y0142855D01*
X0252844Y0144453D02*
X0243952Y0144453D01*
X0240644Y0147650D02*
X0239644Y0147650D01*
X0239644Y0149156D02*
X0239644Y0150979D01*
X0237067Y0153556D01*
X0235244Y0153556D01*
X0235244Y0149156D01*
X0235244Y0149156D01*
X0239644Y0149156D01*
X0239644Y0149249D02*
X0240644Y0149249D01*
X0240644Y0150847D02*
X0239644Y0150847D01*
X0238177Y0152446D02*
X0242029Y0152446D01*
X0248460Y0152446D02*
X0250244Y0152446D01*
X0250244Y0154045D02*
X0224644Y0154045D01*
X0224644Y0154156D02*
X0220244Y0154156D01*
X0220244Y0154156D01*
X0220244Y0149756D01*
X0218422Y0149756D01*
X0215844Y0152334D01*
X0215844Y0154156D01*
X0220244Y0154156D01*
X0220244Y0154156D01*
X0220244Y0149756D01*
X0222067Y0149756D01*
X0224644Y0152334D01*
X0224644Y0154156D01*
X0224644Y0155979D01*
X0222067Y0158556D01*
X0220244Y0158556D01*
X0218422Y0158556D01*
X0215844Y0155979D01*
X0215844Y0154156D01*
X0220244Y0154156D01*
X0220244Y0154156D01*
X0220244Y0158556D01*
X0220244Y0154156D01*
X0220244Y0154156D01*
X0224644Y0154156D01*
X0224644Y0155643D02*
X0250244Y0155643D01*
X0250244Y0157242D02*
X0223381Y0157242D01*
X0220244Y0157242D02*
X0220244Y0157242D01*
X0220244Y0155643D02*
X0220244Y0155643D01*
X0220244Y0154045D02*
X0220244Y0154045D01*
X0220244Y0152446D02*
X0220244Y0152446D01*
X0220244Y0150847D02*
X0220244Y0150847D01*
X0217330Y0150847D02*
X0198158Y0150847D01*
X0197067Y0149756D02*
X0199644Y0152334D01*
X0199644Y0154156D01*
X0195244Y0154156D01*
X0195244Y0154156D01*
X0195244Y0149756D01*
X0193422Y0149756D01*
X0190844Y0152334D01*
X0190844Y0154156D01*
X0195244Y0154156D01*
X0195244Y0154156D01*
X0195244Y0149756D01*
X0197067Y0149756D01*
X0195244Y0150847D02*
X0195244Y0150847D01*
X0195244Y0152446D02*
X0195244Y0152446D01*
X0195244Y0154045D02*
X0195244Y0154045D01*
X0195244Y0154156D02*
X0195244Y0154156D01*
X0190844Y0154156D01*
X0190844Y0155979D01*
X0193422Y0158556D01*
X0195244Y0158556D01*
X0195244Y0154156D01*
X0195244Y0154156D01*
X0199644Y0154156D01*
X0199644Y0155979D01*
X0197067Y0158556D01*
X0195244Y0158556D01*
X0195244Y0154156D01*
X0195244Y0155643D02*
X0195244Y0155643D01*
X0195244Y0157242D02*
X0195244Y0157242D01*
X0192107Y0157242D02*
X0158381Y0157242D01*
X0159644Y0155643D02*
X0190844Y0155643D01*
X0190844Y0154045D02*
X0159644Y0154045D01*
X0159644Y0152446D02*
X0167311Y0152446D01*
X0170244Y0152446D02*
X0170244Y0152446D01*
X0170244Y0153556D02*
X0170244Y0149156D01*
X0170244Y0149156D01*
X0174644Y0149156D01*
X0174644Y0150979D01*
X0172067Y0153556D01*
X0170244Y0153556D01*
X0170244Y0150847D02*
X0170244Y0150847D01*
X0170244Y0149249D02*
X0170244Y0149249D01*
X0170244Y0147650D02*
X0170244Y0147650D01*
X0170244Y0146052D02*
X0170244Y0146052D01*
X0174644Y0147650D02*
X0175644Y0147650D01*
X0175644Y0149249D02*
X0174644Y0149249D01*
X0174644Y0150847D02*
X0175644Y0150847D01*
X0177029Y0152446D02*
X0173177Y0152446D01*
X0172149Y0159556D02*
X0174844Y0162251D01*
X0174844Y0166062D01*
X0172149Y0168756D01*
X0168339Y0168756D01*
X0165644Y0166062D01*
X0165644Y0162251D01*
X0168339Y0159556D01*
X0172149Y0159556D01*
X0173032Y0160439D02*
X0177456Y0160439D01*
X0175858Y0162037D02*
X0174630Y0162037D01*
X0174844Y0163636D02*
X0175644Y0163636D01*
X0175644Y0165234D02*
X0174844Y0165234D01*
X0175134Y0166833D02*
X0174073Y0166833D01*
X0173535Y0168431D02*
X0172475Y0168431D01*
X0171937Y0170030D02*
X0160944Y0170030D01*
X0160944Y0170290D02*
X0160944Y0168022D01*
X0160076Y0165927D01*
X0158473Y0164324D01*
X0156378Y0163456D01*
X0154110Y0163456D01*
X0152015Y0164324D01*
X0150412Y0165927D01*
X0149544Y0168022D01*
X0149544Y0170290D01*
X0150412Y0172385D01*
X0152015Y0173988D01*
X0154110Y0174856D01*
X0156378Y0174856D01*
X0158473Y0173988D01*
X0160076Y0172385D01*
X0160944Y0170290D01*
X0160390Y0171628D02*
X0170338Y0171628D01*
X0168740Y0173227D02*
X0159235Y0173227D01*
X0156453Y0174825D02*
X0167141Y0174825D01*
X0171114Y0179621D02*
X0181994Y0179621D01*
X0181994Y0181219D02*
X0169324Y0181219D01*
X0172712Y0178022D02*
X0181994Y0178022D01*
X0179338Y0176424D02*
X0174311Y0176424D01*
X0175909Y0174825D02*
X0178462Y0174825D01*
X0178394Y0173227D02*
X0177508Y0173227D01*
X0182194Y0173906D02*
X0184794Y0176506D01*
X0184794Y0188206D01*
X0180244Y0192756D01*
X0180244Y0194156D01*
X0180244Y0209156D01*
X0176270Y0206795D02*
X0174218Y0206795D01*
X0174122Y0206565D02*
X0174819Y0208246D01*
X0174819Y0210066D01*
X0174122Y0211748D01*
X0172836Y0213034D01*
X0171154Y0213731D01*
X0169334Y0213731D01*
X0167653Y0213034D01*
X0166366Y0211748D01*
X0165669Y0210066D01*
X0165669Y0208246D01*
X0166366Y0206565D01*
X0167444Y0205486D01*
X0167444Y0197862D01*
X0165644Y0196062D01*
X0165644Y0192251D01*
X0168339Y0189556D01*
X0172149Y0189556D01*
X0174844Y0192251D01*
X0174844Y0196062D01*
X0173044Y0197862D01*
X0173044Y0205486D01*
X0174122Y0206565D01*
X0173044Y0205197D02*
X0177444Y0205197D01*
X0177444Y0203598D02*
X0173044Y0203598D01*
X0173044Y0202000D02*
X0177444Y0202000D01*
X0177444Y0200401D02*
X0173044Y0200401D01*
X0173044Y0198803D02*
X0177444Y0198803D01*
X0176787Y0197204D02*
X0173701Y0197204D01*
X0174844Y0195606D02*
X0175644Y0195606D01*
X0175644Y0194007D02*
X0174844Y0194007D01*
X0174844Y0192409D02*
X0175644Y0192409D01*
X0177085Y0190810D02*
X0173404Y0190810D01*
X0179829Y0189212D02*
X0160944Y0189212D01*
X0160944Y0190290D02*
X0160076Y0192385D01*
X0158473Y0193988D01*
X0156378Y0194856D01*
X0154110Y0194856D01*
X0152015Y0193988D01*
X0150412Y0192385D01*
X0149544Y0190290D01*
X0149544Y0188022D01*
X0150412Y0185927D01*
X0152015Y0184324D01*
X0154110Y0183456D01*
X0156378Y0183456D01*
X0158473Y0184324D01*
X0160076Y0185927D01*
X0160944Y0188022D01*
X0160944Y0190290D01*
X0160729Y0190810D02*
X0167085Y0190810D01*
X0165644Y0192409D02*
X0160052Y0192409D01*
X0158427Y0194007D02*
X0165644Y0194007D01*
X0165644Y0195606D02*
X0122054Y0195606D01*
X0120455Y0194007D02*
X0128095Y0194007D01*
X0128194Y0194106D02*
X0125294Y0191207D01*
X0125294Y0189156D01*
X0125294Y0187106D01*
X0128194Y0184206D01*
X0130244Y0184206D01*
X0130244Y0189156D01*
X0130244Y0189156D01*
X0125294Y0189156D01*
X0130244Y0189156D01*
X0130244Y0189156D01*
X0130244Y0184206D01*
X0132294Y0184206D01*
X0135194Y0187106D01*
X0135194Y0189156D01*
X0130244Y0189156D01*
X0130244Y0189156D01*
X0130244Y0194106D01*
X0128194Y0194106D01*
X0130244Y0194106D02*
X0130244Y0189156D01*
X0130244Y0189156D01*
X0135194Y0189156D01*
X0135194Y0191207D01*
X0132294Y0194106D01*
X0130244Y0194106D01*
X0130244Y0194007D02*
X0130244Y0194007D01*
X0130244Y0192409D02*
X0130244Y0192409D01*
X0130244Y0190810D02*
X0130244Y0190810D01*
X0130244Y0189212D02*
X0130244Y0189212D01*
X0130244Y0187613D02*
X0130244Y0187613D01*
X0130244Y0186015D02*
X0130244Y0186015D01*
X0130244Y0184416D02*
X0130244Y0184416D01*
X0127984Y0184416D02*
X0119344Y0184416D01*
X0119344Y0182818D02*
X0181994Y0182818D01*
X0181994Y0184416D02*
X0158565Y0184416D01*
X0160113Y0186015D02*
X0181994Y0186015D01*
X0181427Y0187613D02*
X0160775Y0187613D01*
X0151923Y0184416D02*
X0132505Y0184416D01*
X0134103Y0186015D02*
X0150376Y0186015D01*
X0149714Y0187613D02*
X0135194Y0187613D01*
X0135194Y0189212D02*
X0149544Y0189212D01*
X0149760Y0190810D02*
X0135194Y0190810D01*
X0133992Y0192409D02*
X0150436Y0192409D01*
X0152061Y0194007D02*
X0132393Y0194007D01*
X0129151Y0198803D02*
X0167444Y0198803D01*
X0167444Y0200401D02*
X0130749Y0200401D01*
X0132348Y0202000D02*
X0167444Y0202000D01*
X0167444Y0203598D02*
X0133946Y0203598D01*
X0135545Y0205197D02*
X0156225Y0205197D01*
X0155669Y0205753D02*
X0156841Y0204581D01*
X0163647Y0204581D01*
X0164819Y0205753D01*
X0164819Y0212559D01*
X0163647Y0213731D01*
X0156841Y0213731D01*
X0155669Y0212559D01*
X0155669Y0205753D01*
X0155669Y0206795D02*
X0137143Y0206795D01*
X0138742Y0208394D02*
X0155669Y0208394D01*
X0155669Y0209992D02*
X0140340Y0209992D01*
X0141939Y0211591D02*
X0155669Y0211591D01*
X0156299Y0213189D02*
X0143537Y0213189D01*
X0143194Y0216806D02*
X0124994Y0198606D01*
X0121094Y0198606D01*
X0121094Y0202506D01*
X0115244Y0208356D01*
X0115244Y0209156D01*
X0111270Y0206795D02*
X0109218Y0206795D01*
X0109122Y0206565D02*
X0109819Y0208246D01*
X0109819Y0210066D01*
X0109122Y0211748D01*
X0107836Y0213034D01*
X0106154Y0213731D01*
X0104334Y0213731D01*
X0102653Y0213034D01*
X0101366Y0211748D01*
X0100669Y0210066D01*
X0100669Y0208246D01*
X0101366Y0206565D01*
X0102444Y0205486D01*
X0102444Y0197862D01*
X0100644Y0196062D01*
X0100644Y0192251D01*
X0103339Y0189556D01*
X0107149Y0189556D01*
X0109844Y0192251D01*
X0109844Y0196062D01*
X0108044Y0197862D01*
X0108044Y0205486D01*
X0109122Y0206565D01*
X0108044Y0205197D02*
X0112848Y0205197D01*
X0116042Y0203598D02*
X0108044Y0203598D01*
X0108044Y0202000D02*
X0117641Y0202000D01*
X0118294Y0200401D02*
X0108044Y0200401D01*
X0108044Y0198803D02*
X0117331Y0198803D01*
X0121094Y0198606D02*
X0117194Y0194706D01*
X0115244Y0194706D01*
X0115244Y0194156D01*
X0115244Y0192106D01*
X0116544Y0190806D01*
X0116544Y0173256D01*
X0112744Y0173227D02*
X0094235Y0173227D01*
X0093473Y0173988D02*
X0095076Y0172385D01*
X0095944Y0170290D01*
X0095944Y0168022D01*
X0095076Y0165927D01*
X0093473Y0164324D01*
X0091378Y0163456D01*
X0089110Y0163456D01*
X0087015Y0164324D01*
X0085412Y0165927D01*
X0084544Y0168022D01*
X0084544Y0170290D01*
X0085412Y0172385D01*
X0087015Y0173988D01*
X0089110Y0174856D01*
X0091378Y0174856D01*
X0093473Y0173988D01*
X0091453Y0174825D02*
X0113081Y0174825D01*
X0113744Y0176424D02*
X0052044Y0176424D01*
X0052044Y0178022D02*
X0113744Y0178022D01*
X0113744Y0179621D02*
X0052044Y0179621D01*
X0052044Y0181219D02*
X0113744Y0181219D01*
X0113744Y0182818D02*
X0052044Y0182818D01*
X0052044Y0184416D02*
X0086923Y0184416D01*
X0087015Y0184324D02*
X0089110Y0183456D01*
X0091378Y0183456D01*
X0093473Y0184324D01*
X0095076Y0185927D01*
X0095944Y0188022D01*
X0095944Y0190290D01*
X0095076Y0192385D01*
X0093473Y0193988D01*
X0091378Y0194856D01*
X0089110Y0194856D01*
X0087015Y0193988D01*
X0085412Y0192385D01*
X0084544Y0190290D01*
X0084544Y0188022D01*
X0085412Y0185927D01*
X0087015Y0184324D01*
X0085376Y0186015D02*
X0052044Y0186015D01*
X0052044Y0187613D02*
X0084714Y0187613D01*
X0084544Y0189212D02*
X0052044Y0189212D01*
X0052044Y0190810D02*
X0084760Y0190810D01*
X0085436Y0192409D02*
X0052044Y0192409D01*
X0052044Y0194007D02*
X0087061Y0194007D01*
X0093427Y0194007D02*
X0100644Y0194007D01*
X0100644Y0192409D02*
X0095052Y0192409D01*
X0095729Y0190810D02*
X0102085Y0190810D01*
X0095944Y0189212D02*
X0113744Y0189212D01*
X0113744Y0187613D02*
X0095775Y0187613D01*
X0095112Y0186015D02*
X0113744Y0186015D01*
X0113744Y0184416D02*
X0093565Y0184416D01*
X0108404Y0190810D02*
X0112085Y0190810D01*
X0110644Y0192409D02*
X0109844Y0192409D01*
X0109844Y0194007D02*
X0110644Y0194007D01*
X0110644Y0195606D02*
X0109844Y0195606D01*
X0108701Y0197204D02*
X0111787Y0197204D01*
X0105244Y0194156D02*
X0105244Y0209156D01*
X0101270Y0206795D02*
X0099819Y0206795D01*
X0099819Y0205753D02*
X0098647Y0204581D01*
X0091841Y0204581D01*
X0090669Y0205753D01*
X0090669Y0212559D01*
X0091841Y0213731D01*
X0098647Y0213731D01*
X0099819Y0212559D01*
X0099819Y0205753D01*
X0099263Y0205197D02*
X0102444Y0205197D01*
X0102444Y0203598D02*
X0070731Y0203598D01*
X0073545Y0205197D02*
X0091225Y0205197D01*
X0090669Y0206795D02*
X0075372Y0206795D01*
X0076578Y0208394D02*
X0090669Y0208394D01*
X0090669Y0209992D02*
X0077455Y0209992D01*
X0078069Y0211591D02*
X0090669Y0211591D01*
X0091299Y0213189D02*
X0078457Y0213189D01*
X0078572Y0214788D02*
X0137216Y0214788D01*
X0135618Y0213189D02*
X0126965Y0213189D01*
X0126923Y0213210D02*
X0126269Y0213423D01*
X0125588Y0213531D01*
X0125244Y0213531D01*
X0124900Y0213531D01*
X0124220Y0213423D01*
X0123565Y0213210D01*
X0122951Y0212898D01*
X0122394Y0212493D01*
X0121907Y0212006D01*
X0121502Y0211449D01*
X0121190Y0210835D01*
X0120977Y0210181D01*
X0120869Y0209500D01*
X0120869Y0209156D01*
X0120869Y0208812D01*
X0120977Y0208132D01*
X0121190Y0207477D01*
X0121502Y0206863D01*
X0121907Y0206306D01*
X0122394Y0205819D01*
X0122951Y0205414D01*
X0123565Y0205102D01*
X0124220Y0204889D01*
X0124900Y0204781D01*
X0125244Y0204781D01*
X0125244Y0209156D01*
X0125244Y0209156D01*
X0120869Y0209156D01*
X0125244Y0209156D01*
X0125244Y0209156D01*
X0125244Y0204781D01*
X0125588Y0204781D01*
X0126269Y0204889D01*
X0126923Y0205102D01*
X0127537Y0205414D01*
X0128094Y0205819D01*
X0128581Y0206306D01*
X0128986Y0206863D01*
X0129298Y0207477D01*
X0129511Y0208132D01*
X0129619Y0208812D01*
X0129619Y0209156D01*
X0125244Y0209156D01*
X0125244Y0209156D01*
X0125244Y0213531D01*
X0125244Y0209156D01*
X0125244Y0209156D01*
X0129619Y0209156D01*
X0129619Y0209500D01*
X0129511Y0210181D01*
X0129298Y0210835D01*
X0128986Y0211449D01*
X0128581Y0212006D01*
X0128094Y0212493D01*
X0127537Y0212898D01*
X0126923Y0213210D01*
X0125244Y0213189D02*
X0125244Y0213189D01*
X0125244Y0211591D02*
X0125244Y0211591D01*
X0125244Y0209992D02*
X0125244Y0209992D01*
X0125244Y0208394D02*
X0125244Y0208394D01*
X0125244Y0206795D02*
X0125244Y0206795D01*
X0125244Y0205197D02*
X0125244Y0205197D01*
X0126027Y0203598D02*
X0123672Y0203598D01*
X0123894Y0202000D02*
X0124428Y0202000D01*
X0123378Y0205197D02*
X0122363Y0205197D01*
X0121552Y0206795D02*
X0120765Y0206795D01*
X0120935Y0208394D02*
X0119819Y0208394D01*
X0119819Y0209992D02*
X0120947Y0209992D01*
X0121605Y0211591D02*
X0119187Y0211591D01*
X0117461Y0213189D02*
X0123524Y0213189D01*
X0128883Y0211591D02*
X0134019Y0211591D01*
X0132421Y0209992D02*
X0129541Y0209992D01*
X0129553Y0208394D02*
X0130822Y0208394D01*
X0129224Y0206795D02*
X0128936Y0206795D01*
X0127625Y0205197D02*
X0127110Y0205197D01*
X0127552Y0197204D02*
X0166787Y0197204D01*
X0170244Y0194156D02*
X0170244Y0209156D01*
X0166270Y0206795D02*
X0164819Y0206795D01*
X0164819Y0208394D02*
X0165669Y0208394D01*
X0165669Y0209992D02*
X0164819Y0209992D01*
X0164819Y0211591D02*
X0166301Y0211591D01*
X0168027Y0213189D02*
X0164189Y0213189D01*
X0172461Y0213189D02*
X0178027Y0213189D01*
X0176301Y0211591D02*
X0174187Y0211591D01*
X0174819Y0209992D02*
X0175669Y0209992D01*
X0175669Y0208394D02*
X0174819Y0208394D01*
X0167444Y0205197D02*
X0164263Y0205197D01*
X0183044Y0205197D02*
X0188378Y0205197D01*
X0188565Y0205102D02*
X0189220Y0204889D01*
X0189900Y0204781D01*
X0190244Y0204781D01*
X0190244Y0209156D01*
X0190244Y0209156D01*
X0185869Y0209156D01*
X0185869Y0208812D01*
X0185977Y0208132D01*
X0186190Y0207477D01*
X0186502Y0206863D01*
X0186907Y0206306D01*
X0187394Y0205819D01*
X0187951Y0205414D01*
X0188565Y0205102D01*
X0190244Y0205197D02*
X0190244Y0205197D01*
X0190244Y0204781D02*
X0190588Y0204781D01*
X0191269Y0204889D01*
X0191923Y0205102D01*
X0192537Y0205414D01*
X0193094Y0205819D01*
X0193581Y0206306D01*
X0193986Y0206863D01*
X0194298Y0207477D01*
X0194511Y0208132D01*
X0194619Y0208812D01*
X0194619Y0209156D01*
X0190244Y0209156D01*
X0190244Y0209156D01*
X0190244Y0204781D01*
X0192110Y0205197D02*
X0221225Y0205197D01*
X0220669Y0205753D02*
X0221841Y0204581D01*
X0228647Y0204581D01*
X0229819Y0205753D01*
X0229819Y0212559D01*
X0228647Y0213731D01*
X0221841Y0213731D01*
X0220669Y0212559D01*
X0220669Y0205753D01*
X0220669Y0206795D02*
X0193936Y0206795D01*
X0194553Y0208394D02*
X0220669Y0208394D01*
X0220669Y0209992D02*
X0194541Y0209992D01*
X0194511Y0210181D02*
X0194298Y0210835D01*
X0193986Y0211449D01*
X0193581Y0212006D01*
X0193094Y0212493D01*
X0192537Y0212898D01*
X0191923Y0213210D01*
X0191269Y0213423D01*
X0190588Y0213531D01*
X0190244Y0213531D01*
X0189900Y0213531D01*
X0189220Y0213423D01*
X0188565Y0213210D01*
X0187951Y0212898D01*
X0187394Y0212493D01*
X0186907Y0212006D01*
X0186502Y0211449D01*
X0186190Y0210835D01*
X0185977Y0210181D01*
X0185869Y0209500D01*
X0185869Y0209156D01*
X0190244Y0209156D01*
X0190244Y0209156D01*
X0190244Y0213531D01*
X0190244Y0209156D01*
X0190244Y0209156D01*
X0194619Y0209156D01*
X0194619Y0209500D01*
X0194511Y0210181D01*
X0193883Y0211591D02*
X0220669Y0211591D01*
X0221299Y0213189D02*
X0191965Y0213189D01*
X0190244Y0213189D02*
X0190244Y0213189D01*
X0190244Y0211591D02*
X0190244Y0211591D01*
X0190244Y0209992D02*
X0190244Y0209992D01*
X0190244Y0208394D02*
X0190244Y0208394D01*
X0190244Y0206795D02*
X0190244Y0206795D01*
X0186552Y0206795D02*
X0184218Y0206795D01*
X0184819Y0208394D02*
X0185935Y0208394D01*
X0185947Y0209992D02*
X0184819Y0209992D01*
X0184187Y0211591D02*
X0186605Y0211591D01*
X0188524Y0213189D02*
X0182461Y0213189D01*
X0183044Y0203598D02*
X0232444Y0203598D01*
X0232444Y0202000D02*
X0183044Y0202000D01*
X0183044Y0200401D02*
X0232444Y0200401D01*
X0232444Y0198803D02*
X0183044Y0198803D01*
X0183701Y0197204D02*
X0231787Y0197204D01*
X0232444Y0197862D02*
X0230644Y0196062D01*
X0230644Y0192251D01*
X0233339Y0189556D01*
X0237149Y0189556D01*
X0239844Y0192251D01*
X0239844Y0196062D01*
X0238044Y0197862D01*
X0238044Y0205486D01*
X0239122Y0206565D01*
X0239819Y0208246D01*
X0239819Y0210066D01*
X0239122Y0211748D01*
X0237836Y0213034D01*
X0236154Y0213731D01*
X0234334Y0213731D01*
X0232653Y0213034D01*
X0231366Y0211748D01*
X0230669Y0210066D01*
X0230669Y0208246D01*
X0231366Y0206565D01*
X0232444Y0205486D01*
X0232444Y0197862D01*
X0230644Y0195606D02*
X0184844Y0195606D01*
X0184844Y0194007D02*
X0193095Y0194007D01*
X0193194Y0194106D02*
X0190294Y0191207D01*
X0190294Y0189156D01*
X0190294Y0187106D01*
X0193194Y0184206D01*
X0195244Y0184206D01*
X0195244Y0189156D01*
X0195244Y0189156D01*
X0190294Y0189156D01*
X0195244Y0189156D01*
X0195244Y0189156D01*
X0195244Y0184206D01*
X0197294Y0184206D01*
X0200194Y0187106D01*
X0200194Y0189156D01*
X0195244Y0189156D01*
X0195244Y0189156D01*
X0195244Y0194106D01*
X0193194Y0194106D01*
X0195244Y0194106D02*
X0195244Y0189156D01*
X0195244Y0189156D01*
X0200194Y0189156D01*
X0200194Y0191207D01*
X0197294Y0194106D01*
X0195244Y0194106D01*
X0195244Y0194007D02*
X0195244Y0194007D01*
X0195244Y0192409D02*
X0195244Y0192409D01*
X0195244Y0190810D02*
X0195244Y0190810D01*
X0195244Y0189212D02*
X0195244Y0189212D01*
X0195244Y0187613D02*
X0195244Y0187613D01*
X0195244Y0186015D02*
X0195244Y0186015D01*
X0195244Y0184416D02*
X0195244Y0184416D01*
X0192984Y0184416D02*
X0187594Y0184416D01*
X0187594Y0182818D02*
X0288273Y0182818D01*
X0286674Y0184416D02*
X0262505Y0184416D01*
X0262294Y0184206D02*
X0265194Y0187106D01*
X0265194Y0189156D01*
X0260244Y0189156D01*
X0260244Y0189156D01*
X0260244Y0184206D01*
X0258194Y0184206D01*
X0255294Y0187106D01*
X0255294Y0189156D01*
X0260244Y0189156D01*
X0260244Y0189156D01*
X0260244Y0184206D01*
X0262294Y0184206D01*
X0260244Y0184416D02*
X0260244Y0184416D01*
X0260244Y0186015D02*
X0260244Y0186015D01*
X0260244Y0187613D02*
X0260244Y0187613D01*
X0260244Y0189156D02*
X0260244Y0189156D01*
X0255294Y0189156D01*
X0255294Y0191207D01*
X0258194Y0194106D01*
X0260244Y0194106D01*
X0260244Y0189156D01*
X0260244Y0189156D01*
X0265194Y0189156D01*
X0265194Y0191207D01*
X0262294Y0194106D01*
X0260244Y0194106D01*
X0260244Y0189156D01*
X0260244Y0189212D02*
X0260244Y0189212D01*
X0260244Y0190810D02*
X0260244Y0190810D01*
X0260244Y0192409D02*
X0260244Y0192409D01*
X0260244Y0194007D02*
X0260244Y0194007D01*
X0258095Y0194007D02*
X0249844Y0194007D01*
X0249844Y0192409D02*
X0256496Y0192409D01*
X0255294Y0190810D02*
X0248404Y0190810D01*
X0247149Y0189556D02*
X0249844Y0192251D01*
X0249844Y0196062D01*
X0248044Y0197862D01*
X0248044Y0205486D01*
X0249122Y0206565D01*
X0249819Y0208246D01*
X0249819Y0210066D01*
X0249122Y0211748D01*
X0247836Y0213034D01*
X0246154Y0213731D01*
X0244334Y0213731D01*
X0242653Y0213034D01*
X0241366Y0211748D01*
X0240669Y0210066D01*
X0240669Y0208246D01*
X0241366Y0206565D01*
X0242444Y0205486D01*
X0242444Y0197862D01*
X0240644Y0196062D01*
X0240644Y0192251D01*
X0243339Y0189556D01*
X0247149Y0189556D01*
X0242085Y0190810D02*
X0238404Y0190810D01*
X0239844Y0192409D02*
X0240644Y0192409D01*
X0240644Y0194007D02*
X0239844Y0194007D01*
X0239844Y0195606D02*
X0240644Y0195606D01*
X0241787Y0197204D02*
X0238701Y0197204D01*
X0238044Y0198803D02*
X0242444Y0198803D01*
X0242444Y0200401D02*
X0238044Y0200401D01*
X0238044Y0202000D02*
X0242444Y0202000D01*
X0242444Y0203598D02*
X0238044Y0203598D01*
X0238044Y0205197D02*
X0242444Y0205197D01*
X0241270Y0206795D02*
X0239218Y0206795D01*
X0239819Y0208394D02*
X0240669Y0208394D01*
X0240669Y0209992D02*
X0239819Y0209992D01*
X0239187Y0211591D02*
X0241301Y0211591D01*
X0243027Y0213189D02*
X0237461Y0213189D01*
X0233027Y0213189D02*
X0229189Y0213189D01*
X0229819Y0211591D02*
X0231301Y0211591D01*
X0230669Y0209992D02*
X0229819Y0209992D01*
X0229819Y0208394D02*
X0230669Y0208394D01*
X0231270Y0206795D02*
X0229819Y0206795D01*
X0229263Y0205197D02*
X0232444Y0205197D01*
X0235244Y0209156D02*
X0235244Y0194156D01*
X0230644Y0194007D02*
X0223427Y0194007D01*
X0223473Y0193988D02*
X0221378Y0194856D01*
X0219110Y0194856D01*
X0217015Y0193988D01*
X0215412Y0192385D01*
X0214544Y0190290D01*
X0214544Y0188022D01*
X0215412Y0185927D01*
X0217015Y0184324D01*
X0219110Y0183456D01*
X0221378Y0183456D01*
X0223473Y0184324D01*
X0225076Y0185927D01*
X0225944Y0188022D01*
X0225944Y0190290D01*
X0225076Y0192385D01*
X0223473Y0193988D01*
X0225052Y0192409D02*
X0230644Y0192409D01*
X0232085Y0190810D02*
X0225729Y0190810D01*
X0225944Y0189212D02*
X0255294Y0189212D01*
X0255294Y0187613D02*
X0225775Y0187613D01*
X0225112Y0186015D02*
X0256385Y0186015D01*
X0257984Y0184416D02*
X0223565Y0184416D01*
X0216923Y0184416D02*
X0197505Y0184416D01*
X0199103Y0186015D02*
X0215376Y0186015D01*
X0214714Y0187613D02*
X0200194Y0187613D01*
X0200194Y0189212D02*
X0214544Y0189212D01*
X0214760Y0190810D02*
X0200194Y0190810D01*
X0198992Y0192409D02*
X0215436Y0192409D01*
X0217061Y0194007D02*
X0197393Y0194007D01*
X0191496Y0192409D02*
X0184844Y0192409D01*
X0186150Y0190810D02*
X0190294Y0190810D01*
X0190294Y0189212D02*
X0187408Y0189212D01*
X0187594Y0187613D02*
X0190294Y0187613D01*
X0191385Y0186015D02*
X0187594Y0186015D01*
X0187594Y0181219D02*
X0191164Y0181219D01*
X0189375Y0179621D02*
X0187594Y0179621D01*
X0187594Y0178022D02*
X0187776Y0178022D01*
X0191749Y0173227D02*
X0192031Y0173227D01*
X0193111Y0174306D02*
X0190094Y0171289D01*
X0190094Y0167023D01*
X0193111Y0164006D01*
X0197377Y0164006D01*
X0200394Y0167023D01*
X0200394Y0171289D01*
X0197377Y0174306D01*
X0193111Y0174306D01*
X0193347Y0174825D02*
X0219035Y0174825D01*
X0219110Y0174856D02*
X0217015Y0173988D01*
X0215412Y0172385D01*
X0214544Y0170290D01*
X0214544Y0168022D01*
X0215412Y0165927D01*
X0217015Y0164324D01*
X0219110Y0163456D01*
X0221378Y0163456D01*
X0223473Y0164324D01*
X0225076Y0165927D01*
X0225944Y0168022D01*
X0225944Y0170290D01*
X0225076Y0172385D01*
X0223473Y0173988D01*
X0221378Y0174856D01*
X0219110Y0174856D01*
X0221453Y0174825D02*
X0241241Y0174825D01*
X0242840Y0173227D02*
X0224235Y0173227D01*
X0225390Y0171628D02*
X0244438Y0171628D01*
X0244784Y0170030D02*
X0225944Y0170030D01*
X0225944Y0168431D02*
X0233014Y0168431D01*
X0233339Y0168756D02*
X0230644Y0166062D01*
X0230644Y0162251D01*
X0233339Y0159556D01*
X0237149Y0159556D01*
X0239844Y0162251D01*
X0239844Y0166062D01*
X0237149Y0168756D01*
X0233339Y0168756D01*
X0231415Y0166833D02*
X0225451Y0166833D01*
X0224383Y0165234D02*
X0230644Y0165234D01*
X0230644Y0163636D02*
X0221811Y0163636D01*
X0218677Y0163636D02*
X0184844Y0163636D01*
X0184844Y0165234D02*
X0191883Y0165234D01*
X0190284Y0166833D02*
X0185355Y0166833D01*
X0186953Y0168431D02*
X0190094Y0168431D01*
X0190094Y0170030D02*
X0188552Y0170030D01*
X0190150Y0171628D02*
X0190433Y0171628D01*
X0198457Y0173227D02*
X0216254Y0173227D01*
X0215098Y0171628D02*
X0200055Y0171628D01*
X0200394Y0170030D02*
X0214544Y0170030D01*
X0214544Y0168431D02*
X0200394Y0168431D01*
X0200204Y0166833D02*
X0215037Y0166833D01*
X0216105Y0165234D02*
X0198605Y0165234D01*
X0198381Y0157242D02*
X0217107Y0157242D01*
X0215844Y0155643D02*
X0199644Y0155643D01*
X0199644Y0154045D02*
X0215844Y0154045D01*
X0215844Y0152446D02*
X0199644Y0152446D01*
X0192330Y0150847D02*
X0184844Y0150847D01*
X0184844Y0149249D02*
X0230844Y0149249D01*
X0230844Y0150847D02*
X0223158Y0150847D01*
X0224644Y0152446D02*
X0232311Y0152446D01*
X0235244Y0152446D02*
X0235244Y0152446D01*
X0235244Y0150847D02*
X0235244Y0150847D01*
X0235244Y0149249D02*
X0235244Y0149249D01*
X0235244Y0147650D02*
X0235244Y0147650D01*
X0235244Y0146052D02*
X0235244Y0146052D01*
X0236536Y0144453D02*
X0178952Y0144453D01*
X0179844Y0142855D02*
X0235583Y0142855D01*
X0233985Y0141256D02*
X0220868Y0141256D01*
X0218594Y0138156D02*
X0234844Y0138156D01*
X0238094Y0141406D01*
X0240044Y0141406D01*
X0240244Y0141656D01*
X0232126Y0146052D02*
X0183645Y0146052D01*
X0184844Y0147650D02*
X0230844Y0147650D01*
X0216320Y0141256D02*
X0181104Y0141256D01*
X0182702Y0139658D02*
X0215103Y0139658D01*
X0214794Y0138059D02*
X0184301Y0138059D01*
X0180474Y0130067D02*
X0113065Y0130067D01*
X0112061Y0128468D02*
X0111466Y0128468D01*
X0110462Y0126870D02*
X0110026Y0126870D01*
X0115656Y0131665D02*
X0118082Y0131665D01*
X0118427Y0128468D02*
X0128051Y0128468D01*
X0128339Y0128756D02*
X0125644Y0126062D01*
X0125644Y0122251D01*
X0128339Y0119556D01*
X0132149Y0119556D01*
X0134844Y0122251D01*
X0134844Y0126062D01*
X0132149Y0128756D01*
X0128339Y0128756D01*
X0126452Y0126870D02*
X0120026Y0126870D01*
X0120544Y0125271D02*
X0125644Y0125271D01*
X0125644Y0123673D02*
X0120544Y0123673D01*
X0120544Y0122074D02*
X0125821Y0122074D01*
X0127419Y0120476D02*
X0119059Y0120476D01*
X0117461Y0118877D02*
X0168028Y0118877D01*
X0166429Y0120476D02*
X0158069Y0120476D01*
X0157149Y0119556D02*
X0159844Y0122251D01*
X0159844Y0126062D01*
X0157149Y0128756D01*
X0153339Y0128756D01*
X0150644Y0126062D01*
X0150644Y0122251D01*
X0153339Y0119556D01*
X0157149Y0119556D01*
X0159668Y0122074D02*
X0164944Y0122074D01*
X0164944Y0123673D02*
X0159844Y0123673D01*
X0159844Y0125271D02*
X0164944Y0125271D01*
X0165462Y0126870D02*
X0159036Y0126870D01*
X0157437Y0128468D02*
X0167061Y0128468D01*
X0173427Y0128468D02*
X0177061Y0128468D01*
X0175462Y0126870D02*
X0175026Y0126870D01*
X0180244Y0124506D02*
X0180244Y0124156D01*
X0180244Y0124506D02*
X0182844Y0124506D01*
X0187394Y0129056D01*
X0188044Y0129056D01*
X0192594Y0124506D01*
X0195194Y0124506D01*
X0195244Y0124156D01*
X0199844Y0123673D02*
X0215644Y0123673D01*
X0215644Y0122251D02*
X0218339Y0119556D01*
X0222149Y0119556D01*
X0224844Y0122251D01*
X0224844Y0126062D01*
X0222149Y0128756D01*
X0218339Y0128756D01*
X0215644Y0126062D01*
X0215644Y0122251D01*
X0215821Y0122074D02*
X0199668Y0122074D01*
X0198069Y0120476D02*
X0217419Y0120476D01*
X0223069Y0120476D02*
X0231429Y0120476D01*
X0229944Y0122074D02*
X0224668Y0122074D01*
X0224844Y0123673D02*
X0229944Y0123673D01*
X0229944Y0125271D02*
X0224844Y0125271D01*
X0224036Y0126870D02*
X0230462Y0126870D01*
X0232061Y0128468D02*
X0222437Y0128468D01*
X0218051Y0128468D02*
X0197437Y0128468D01*
X0199036Y0126870D02*
X0216452Y0126870D01*
X0215644Y0125271D02*
X0199844Y0125271D01*
X0193051Y0128468D02*
X0192592Y0128468D01*
X0187869Y0125271D02*
X0187569Y0125271D01*
X0185971Y0123673D02*
X0189468Y0123673D01*
X0190821Y0122074D02*
X0185544Y0122074D01*
X0184059Y0120476D02*
X0192419Y0120476D01*
X0182461Y0118877D02*
X0233028Y0118877D01*
X0237461Y0118877D02*
X0243028Y0118877D01*
X0241857Y0117279D02*
X0052044Y0117279D01*
X0052044Y0118877D02*
X0103028Y0118877D01*
X0107461Y0118877D02*
X0113028Y0118877D01*
X0111429Y0120476D02*
X0109059Y0120476D01*
X0132437Y0128468D02*
X0153051Y0128468D01*
X0151452Y0126870D02*
X0134036Y0126870D01*
X0134844Y0125271D02*
X0150644Y0125271D01*
X0150644Y0123673D02*
X0134844Y0123673D01*
X0134668Y0122074D02*
X0150821Y0122074D01*
X0152419Y0120476D02*
X0133069Y0120476D01*
X0116869Y0136531D02*
X0111994Y0141406D01*
X0110694Y0141406D01*
X0110244Y0141656D01*
X0110644Y0147650D02*
X0109644Y0147650D01*
X0109644Y0149249D02*
X0110644Y0149249D01*
X0110644Y0150847D02*
X0109644Y0150847D01*
X0108177Y0152446D02*
X0112029Y0152446D01*
X0107149Y0159556D02*
X0103339Y0159556D01*
X0100644Y0162251D01*
X0100644Y0166062D01*
X0103339Y0168756D01*
X0107149Y0168756D01*
X0109844Y0166062D01*
X0109844Y0162251D01*
X0107149Y0159556D01*
X0108032Y0160439D02*
X0112456Y0160439D01*
X0110858Y0162037D02*
X0109630Y0162037D01*
X0109844Y0163636D02*
X0110644Y0163636D01*
X0110644Y0165234D02*
X0109844Y0165234D01*
X0109073Y0166833D02*
X0111415Y0166833D01*
X0113014Y0168431D02*
X0107475Y0168431D01*
X0103014Y0168431D02*
X0095944Y0168431D01*
X0095944Y0170030D02*
X0114404Y0170030D01*
X0113105Y0171628D02*
X0095390Y0171628D01*
X0089035Y0174825D02*
X0052044Y0174825D01*
X0052044Y0173227D02*
X0086254Y0173227D01*
X0085098Y0171628D02*
X0052044Y0171628D01*
X0052044Y0170030D02*
X0084544Y0170030D01*
X0084544Y0168431D02*
X0052044Y0168431D01*
X0052044Y0166833D02*
X0085037Y0166833D01*
X0086105Y0165234D02*
X0052044Y0165234D01*
X0052044Y0163636D02*
X0088677Y0163636D01*
X0091811Y0163636D02*
X0100644Y0163636D01*
X0100644Y0165234D02*
X0094383Y0165234D01*
X0095451Y0166833D02*
X0101415Y0166833D01*
X0100858Y0162037D02*
X0052044Y0162037D01*
X0052044Y0160439D02*
X0102456Y0160439D01*
X0090244Y0157242D02*
X0090244Y0157242D01*
X0090244Y0155643D02*
X0090244Y0155643D01*
X0090244Y0154045D02*
X0090244Y0154045D01*
X0090244Y0152446D02*
X0090244Y0152446D01*
X0090244Y0150847D02*
X0090244Y0150847D01*
X0087330Y0150847D02*
X0052044Y0150847D01*
X0052044Y0149249D02*
X0100844Y0149249D01*
X0100844Y0150847D02*
X0093158Y0150847D01*
X0085844Y0152446D02*
X0052044Y0152446D01*
X0052044Y0154045D02*
X0085844Y0154045D01*
X0085844Y0155643D02*
X0052044Y0155643D01*
X0052044Y0157242D02*
X0087107Y0157242D01*
X0100844Y0147650D02*
X0052044Y0147650D01*
X0052044Y0146052D02*
X0102126Y0146052D01*
X0118032Y0160439D02*
X0167456Y0160439D01*
X0165858Y0162037D02*
X0119630Y0162037D01*
X0119844Y0163636D02*
X0153677Y0163636D01*
X0151105Y0165234D02*
X0133605Y0165234D01*
X0132377Y0164006D02*
X0135394Y0167023D01*
X0135394Y0171289D01*
X0132377Y0174306D01*
X0128111Y0174306D01*
X0125094Y0171289D01*
X0125094Y0167023D01*
X0128111Y0164006D01*
X0132377Y0164006D01*
X0135204Y0166833D02*
X0150037Y0166833D01*
X0149544Y0168431D02*
X0135394Y0168431D01*
X0135394Y0170030D02*
X0149544Y0170030D01*
X0150098Y0171628D02*
X0135055Y0171628D01*
X0133457Y0173227D02*
X0151254Y0173227D01*
X0154035Y0174825D02*
X0128347Y0174825D01*
X0127031Y0173227D02*
X0126749Y0173227D01*
X0125433Y0171628D02*
X0125150Y0171628D01*
X0125094Y0170030D02*
X0123552Y0170030D01*
X0125094Y0168431D02*
X0121953Y0168431D01*
X0120355Y0166833D02*
X0125284Y0166833D01*
X0126883Y0165234D02*
X0119844Y0165234D01*
X0119344Y0176424D02*
X0121178Y0176424D01*
X0122776Y0178022D02*
X0119344Y0178022D01*
X0119344Y0179621D02*
X0124375Y0179621D01*
X0126164Y0181219D02*
X0119344Y0181219D01*
X0119344Y0186015D02*
X0126385Y0186015D01*
X0125294Y0187613D02*
X0119344Y0187613D01*
X0119344Y0189212D02*
X0125294Y0189212D01*
X0125294Y0190810D02*
X0119344Y0190810D01*
X0119844Y0192409D02*
X0126496Y0192409D01*
X0102444Y0198803D02*
X0052044Y0198803D01*
X0052044Y0200401D02*
X0102444Y0200401D01*
X0102444Y0202000D02*
X0052044Y0202000D01*
X0052044Y0197204D02*
X0101787Y0197204D01*
X0100644Y0195606D02*
X0052044Y0195606D01*
X0078603Y0216386D02*
X0138815Y0216386D01*
X0140413Y0217985D02*
X0078603Y0217985D01*
X0078603Y0219583D02*
X0142582Y0219583D01*
X0143194Y0216806D02*
X0258244Y0216806D01*
X0293344Y0181706D01*
X0308294Y0181706D01*
X0384344Y0105656D01*
X0390194Y0105656D01*
X0392804Y0102892D02*
X0399744Y0102892D01*
X0399744Y0103082D02*
X0399744Y0074316D01*
X0399184Y0073756D01*
X0398339Y0073756D01*
X0395644Y0071062D01*
X0395644Y0067251D01*
X0398339Y0064556D01*
X0402149Y0064556D01*
X0404844Y0067251D01*
X0404844Y0071062D01*
X0404627Y0071279D01*
X0404918Y0071570D01*
X0405344Y0072599D01*
X0405344Y0103082D01*
X0405766Y0103504D01*
X0406344Y0104900D01*
X0406344Y0106412D01*
X0405766Y0107809D01*
X0404697Y0108878D01*
X0403300Y0109456D01*
X0401788Y0109456D01*
X0400392Y0108878D01*
X0399323Y0107809D01*
X0398744Y0106412D01*
X0398744Y0104900D01*
X0399323Y0103504D01*
X0399744Y0103082D01*
X0398914Y0104491D02*
X0393824Y0104491D01*
X0393994Y0106089D02*
X0398744Y0106089D01*
X0399273Y0107688D02*
X0393466Y0107688D01*
X0391360Y0109286D02*
X0401378Y0109286D01*
X0403710Y0109286D02*
X0416144Y0109286D01*
X0416144Y0107688D02*
X0405816Y0107688D01*
X0406344Y0106089D02*
X0416144Y0106089D01*
X0416144Y0104491D02*
X0406174Y0104491D01*
X0405344Y0102892D02*
X0416144Y0102892D01*
X0416144Y0101294D02*
X0405344Y0101294D01*
X0405344Y0099695D02*
X0416144Y0099695D01*
X0416144Y0098097D02*
X0405344Y0098097D01*
X0405344Y0096498D02*
X0416144Y0096498D01*
X0416144Y0094900D02*
X0405344Y0094900D01*
X0405344Y0093301D02*
X0416144Y0093301D01*
X0416144Y0091703D02*
X0405344Y0091703D01*
X0405344Y0090104D02*
X0416144Y0090104D01*
X0416144Y0088506D02*
X0405344Y0088506D01*
X0405344Y0086907D02*
X0416144Y0086907D01*
X0416144Y0085309D02*
X0405344Y0085309D01*
X0405344Y0083710D02*
X0416144Y0083710D01*
X0405344Y0082112D02*
X0442145Y0082112D01*
X0442145Y0080513D02*
X0405344Y0080513D01*
X0405344Y0078914D02*
X0442145Y0078914D01*
X0442145Y0077316D02*
X0405344Y0077316D01*
X0405344Y0075717D02*
X0442145Y0075717D01*
X0442145Y0074119D02*
X0405344Y0074119D01*
X0405311Y0072520D02*
X0442145Y0072520D01*
X0442145Y0070922D02*
X0404844Y0070922D01*
X0404844Y0069323D02*
X0442145Y0069323D01*
X0442145Y0067725D02*
X0404844Y0067725D01*
X0403720Y0066126D02*
X0442145Y0066126D01*
X0442145Y0064528D02*
X0285426Y0064528D01*
X0287024Y0066126D02*
X0366768Y0066126D01*
X0365241Y0067725D02*
X0354019Y0067725D01*
X0355827Y0069323D02*
X0363643Y0069323D01*
X0362044Y0070922D02*
X0356294Y0070922D01*
X0356063Y0072520D02*
X0360446Y0072520D01*
X0366017Y0075717D02*
X0399744Y0075717D01*
X0399744Y0077316D02*
X0364418Y0077316D01*
X0367615Y0074119D02*
X0399547Y0074119D01*
X0397103Y0072520D02*
X0373385Y0072520D01*
X0374844Y0070922D02*
X0395644Y0070922D01*
X0395644Y0069323D02*
X0374844Y0069323D01*
X0374844Y0067725D02*
X0395644Y0067725D01*
X0396768Y0066126D02*
X0373720Y0066126D01*
X0372067Y0063556D02*
X0370244Y0063556D01*
X0368422Y0063556D01*
X0365844Y0060979D01*
X0365844Y0059156D01*
X0365844Y0057334D01*
X0368422Y0054756D01*
X0370244Y0054756D01*
X0370244Y0059156D01*
X0370244Y0059156D01*
X0365844Y0059156D01*
X0370244Y0059156D01*
X0370244Y0059156D01*
X0370244Y0054756D01*
X0372067Y0054756D01*
X0374644Y0057334D01*
X0374644Y0059156D01*
X0370244Y0059156D01*
X0370244Y0059156D01*
X0370244Y0063556D01*
X0370244Y0059156D01*
X0370244Y0059156D01*
X0374644Y0059156D01*
X0374644Y0060979D01*
X0372067Y0063556D01*
X0372693Y0062929D02*
X0397512Y0062929D01*
X0398339Y0063756D02*
X0395644Y0061062D01*
X0395644Y0057251D01*
X0398339Y0054556D01*
X0402149Y0054556D01*
X0404844Y0057251D01*
X0404844Y0061062D01*
X0402149Y0063756D01*
X0398339Y0063756D01*
X0395913Y0061331D02*
X0374292Y0061331D01*
X0374644Y0059732D02*
X0395644Y0059732D01*
X0395644Y0058134D02*
X0374644Y0058134D01*
X0373846Y0056535D02*
X0396360Y0056535D01*
X0397958Y0054937D02*
X0372247Y0054937D01*
X0370244Y0054937D02*
X0370244Y0054937D01*
X0370244Y0056535D02*
X0370244Y0056535D01*
X0370244Y0058134D02*
X0370244Y0058134D01*
X0370244Y0059732D02*
X0370244Y0059732D01*
X0370244Y0061331D02*
X0370244Y0061331D01*
X0370244Y0062929D02*
X0370244Y0062929D01*
X0367795Y0062929D02*
X0283827Y0062929D01*
X0282229Y0061331D02*
X0366196Y0061331D01*
X0365844Y0059732D02*
X0280630Y0059732D01*
X0279032Y0058134D02*
X0284926Y0058134D01*
X0284751Y0058007D02*
X0284189Y0057445D01*
X0283722Y0056802D01*
X0283361Y0056094D01*
X0283116Y0055338D01*
X0282991Y0054553D01*
X0282991Y0054439D01*
X0287757Y0054439D01*
X0287757Y0059204D01*
X0287642Y0059204D01*
X0286857Y0059080D01*
X0286102Y0058834D01*
X0285394Y0058474D01*
X0284751Y0058007D01*
X0283586Y0056535D02*
X0268983Y0056535D01*
X0267697Y0054937D02*
X0283052Y0054937D01*
X0282991Y0053873D02*
X0282991Y0053759D01*
X0283116Y0052974D01*
X0283361Y0052218D01*
X0283722Y0051510D01*
X0284189Y0050868D01*
X0284751Y0050306D01*
X0285394Y0049839D01*
X0286102Y0049478D01*
X0286857Y0049232D01*
X0287642Y0049108D01*
X0287757Y0049108D01*
X0287757Y0053873D01*
X0288322Y0053873D01*
X0288322Y0049108D01*
X0288437Y0049108D01*
X0289221Y0049232D01*
X0289977Y0049478D01*
X0290685Y0049839D01*
X0291328Y0050306D01*
X0291890Y0050868D01*
X0292357Y0051510D01*
X0292718Y0052218D01*
X0292963Y0052974D01*
X0293087Y0053759D01*
X0293087Y0053873D01*
X0288322Y0053873D01*
X0288322Y0054439D01*
X0287757Y0054439D01*
X0287757Y0053873D01*
X0282991Y0053873D01*
X0283058Y0053338D02*
X0267697Y0053338D01*
X0267128Y0051740D02*
X0283605Y0051740D01*
X0284977Y0050141D02*
X0265856Y0050141D01*
X0262794Y0054306D02*
X0262449Y0054156D01*
X0262794Y0054306D02*
X0267994Y0059506D01*
X0267994Y0060156D01*
X0265394Y0062756D01*
X0251094Y0062756D01*
X0244594Y0069256D01*
X0244594Y0069906D01*
X0248494Y0073806D01*
X0249794Y0073806D01*
X0250244Y0074156D01*
X0253515Y0070922D02*
X0276973Y0070922D01*
X0275644Y0072520D02*
X0254844Y0072520D01*
X0254844Y0074119D02*
X0275644Y0074119D01*
X0275644Y0075717D02*
X0254844Y0075717D01*
X0253590Y0077316D02*
X0276899Y0077316D01*
X0283515Y0070922D02*
X0283900Y0070922D01*
X0284844Y0072520D02*
X0285499Y0072520D01*
X0288144Y0071206D02*
X0276444Y0059506D01*
X0267994Y0059506D01*
X0264260Y0059732D02*
X0220180Y0059732D01*
X0219005Y0058134D02*
X0218582Y0058134D01*
X0215994Y0059506D02*
X0226394Y0069906D01*
X0244594Y0069906D01*
X0243764Y0066126D02*
X0226574Y0066126D01*
X0224976Y0064528D02*
X0245363Y0064528D01*
X0246961Y0062929D02*
X0223377Y0062929D01*
X0221779Y0061331D02*
X0248560Y0061331D01*
X0248437Y0059204D02*
X0248322Y0059204D01*
X0248322Y0054439D01*
X0247757Y0054439D01*
X0247757Y0059204D01*
X0247642Y0059204D01*
X0246857Y0059080D01*
X0246102Y0058834D01*
X0245394Y0058474D01*
X0244751Y0058007D01*
X0244189Y0057445D01*
X0243722Y0056802D01*
X0243361Y0056094D01*
X0243116Y0055338D01*
X0242991Y0054553D01*
X0242991Y0054439D01*
X0247757Y0054439D01*
X0247757Y0053873D01*
X0248322Y0053873D01*
X0248322Y0049108D01*
X0248437Y0049108D01*
X0249221Y0049232D01*
X0249977Y0049478D01*
X0250685Y0049839D01*
X0251328Y0050306D01*
X0251890Y0050868D01*
X0252357Y0051510D01*
X0252718Y0052218D01*
X0252963Y0052974D01*
X0253087Y0053759D01*
X0253087Y0053873D01*
X0248322Y0053873D01*
X0248322Y0054439D01*
X0253087Y0054439D01*
X0253087Y0054553D01*
X0252963Y0055338D01*
X0252718Y0056094D01*
X0252357Y0056802D01*
X0251890Y0057445D01*
X0251328Y0058007D01*
X0250685Y0058474D01*
X0249977Y0058834D01*
X0249221Y0059080D01*
X0248437Y0059204D01*
X0248322Y0058134D02*
X0247757Y0058134D01*
X0247757Y0056535D02*
X0248322Y0056535D01*
X0248322Y0054937D02*
X0247757Y0054937D01*
X0247757Y0053873D02*
X0242991Y0053873D01*
X0242991Y0053759D01*
X0243116Y0052974D01*
X0243361Y0052218D01*
X0243722Y0051510D01*
X0244189Y0050868D01*
X0244751Y0050306D01*
X0245394Y0049839D01*
X0246102Y0049478D01*
X0246857Y0049232D01*
X0247642Y0049108D01*
X0247757Y0049108D01*
X0247757Y0053873D01*
X0247757Y0053338D02*
X0248322Y0053338D01*
X0248322Y0051740D02*
X0247757Y0051740D01*
X0247757Y0050141D02*
X0248322Y0050141D01*
X0251102Y0050141D02*
X0259042Y0050141D01*
X0257769Y0051740D02*
X0252474Y0051740D01*
X0253021Y0053338D02*
X0257201Y0053338D01*
X0257201Y0054937D02*
X0253027Y0054937D01*
X0252493Y0056535D02*
X0257754Y0056535D01*
X0259005Y0058134D02*
X0251153Y0058134D01*
X0244926Y0058134D02*
X0225893Y0058134D01*
X0227144Y0056535D02*
X0243586Y0056535D01*
X0243052Y0054937D02*
X0227697Y0054937D01*
X0227697Y0053338D02*
X0243058Y0053338D01*
X0243605Y0051740D02*
X0227128Y0051740D01*
X0225856Y0050141D02*
X0244977Y0050141D01*
X0222449Y0054156D02*
X0221844Y0054306D01*
X0216644Y0054306D01*
X0214694Y0056256D01*
X0186094Y0056256D01*
X0185444Y0055606D01*
X0181544Y0055606D01*
X0179594Y0057556D01*
X0179594Y0061456D01*
X0184144Y0066006D01*
X0194544Y0066006D01*
X0197026Y0064528D02*
X0217056Y0064528D01*
X0218655Y0066126D02*
X0198624Y0066126D01*
X0200223Y0067725D02*
X0220253Y0067725D01*
X0221852Y0069323D02*
X0201821Y0069323D01*
X0203420Y0070922D02*
X0223450Y0070922D01*
X0225389Y0072520D02*
X0205018Y0072520D01*
X0206617Y0074119D02*
X0244847Y0074119D01*
X0245644Y0075717D02*
X0208215Y0075717D01*
X0209814Y0077316D02*
X0246899Y0077316D01*
X0248487Y0069323D02*
X0282302Y0069323D01*
X0280703Y0067725D02*
X0250085Y0067725D01*
X0251684Y0066126D02*
X0279105Y0066126D01*
X0277506Y0064528D02*
X0267582Y0064528D01*
X0269181Y0062929D02*
X0275908Y0062929D01*
X0287757Y0058134D02*
X0288322Y0058134D01*
X0288322Y0059204D02*
X0288437Y0059204D01*
X0289221Y0059080D01*
X0289977Y0058834D01*
X0290685Y0058474D01*
X0291328Y0058007D01*
X0291890Y0057445D01*
X0292357Y0056802D01*
X0292718Y0056094D01*
X0292963Y0055338D01*
X0293087Y0054553D01*
X0293087Y0054439D01*
X0288322Y0054439D01*
X0288322Y0059204D01*
X0288322Y0056535D02*
X0287757Y0056535D01*
X0287757Y0054937D02*
X0288322Y0054937D01*
X0288322Y0053338D02*
X0287757Y0053338D01*
X0287757Y0051740D02*
X0288322Y0051740D01*
X0288322Y0050141D02*
X0287757Y0050141D01*
X0291102Y0050141D02*
X0415586Y0050141D01*
X0415586Y0048543D02*
X0138141Y0048543D01*
X0137377Y0049306D02*
X0140394Y0046289D01*
X0140394Y0042023D01*
X0137377Y0039006D01*
X0133111Y0039006D01*
X0130094Y0042023D01*
X0130094Y0046289D01*
X0133111Y0049306D01*
X0137377Y0049306D01*
X0139739Y0046944D02*
X0415586Y0046944D01*
X0415586Y0045346D02*
X0140394Y0045346D01*
X0140394Y0043747D02*
X0415586Y0043747D01*
X0415586Y0042149D02*
X0140394Y0042149D01*
X0138921Y0040550D02*
X0415586Y0040550D01*
X0415586Y0038952D02*
X0078603Y0038952D01*
X0078603Y0040550D02*
X0131567Y0040550D01*
X0130094Y0042149D02*
X0078603Y0042149D01*
X0078603Y0043747D02*
X0130094Y0043747D01*
X0130094Y0045346D02*
X0078603Y0045346D01*
X0078603Y0046944D02*
X0130749Y0046944D01*
X0132348Y0048543D02*
X0078603Y0048543D01*
X0077578Y0054937D02*
X0096306Y0054937D01*
X0096296Y0054940D02*
X0097388Y0054558D01*
X0098516Y0054301D01*
X0099444Y0054196D01*
X0099444Y0063671D01*
X0089969Y0063671D01*
X0090074Y0062743D01*
X0090331Y0061615D01*
X0090713Y0060523D01*
X0091215Y0059481D01*
X0091831Y0058501D01*
X0092552Y0057597D01*
X0093370Y0056779D01*
X0094274Y0056058D01*
X0095254Y0055442D01*
X0096296Y0054940D01*
X0093675Y0056535D02*
X0076744Y0056535D01*
X0075555Y0058134D02*
X0092124Y0058134D01*
X0091094Y0059732D02*
X0073857Y0059732D01*
X0071357Y0061331D02*
X0090431Y0061331D01*
X0090053Y0062929D02*
X0052044Y0062929D01*
X0052044Y0064528D02*
X0099444Y0064528D01*
X0099444Y0062929D02*
X0101044Y0062929D01*
X0101044Y0061331D02*
X0099444Y0061331D01*
X0099444Y0059732D02*
X0101044Y0059732D01*
X0101044Y0058134D02*
X0099444Y0058134D01*
X0099444Y0056535D02*
X0101044Y0056535D01*
X0101044Y0054937D02*
X0099444Y0054937D01*
X0090065Y0066126D02*
X0066761Y0066126D01*
X0067248Y0066613D02*
X0067248Y0068436D01*
X0065959Y0069725D01*
X0062644Y0069725D01*
X0062644Y0069929D01*
X0065959Y0069929D01*
X0067248Y0071217D01*
X0067248Y0075342D01*
X0066241Y0076349D01*
X0067248Y0077356D01*
X0067248Y0079178D01*
X0066625Y0079802D01*
X0067248Y0080425D01*
X0067248Y0085317D01*
X0067008Y0085557D01*
X0067248Y0085796D01*
X0067248Y0086717D01*
X0067248Y0087619D01*
X0067248Y0089154D01*
X0066481Y0089921D01*
X0066241Y0090161D01*
X0067248Y0091168D01*
X0067248Y0092990D01*
X0065959Y0094279D01*
X0065755Y0094279D01*
X0065959Y0094483D01*
X0065959Y0094483D01*
X0067248Y0095772D01*
X0067248Y0097594D01*
X0066625Y0098218D01*
X0067248Y0098841D01*
X0067248Y0102965D01*
X0066481Y0103733D01*
X0065192Y0105021D01*
X0062123Y0105021D01*
X0062123Y0105021D01*
X0061202Y0105021D01*
X0060300Y0105021D01*
X0060285Y0105006D01*
X0059011Y0103733D01*
X0058244Y0102965D01*
X0058244Y0102063D01*
X0058244Y0089633D01*
X0058484Y0089393D01*
X0058244Y0089154D01*
X0058244Y0089154D01*
X0058244Y0089154D01*
X0058244Y0088252D01*
X0058244Y0085796D01*
X0060281Y0083759D01*
X0060300Y0083740D01*
X0060504Y0083740D01*
X0060300Y0083536D01*
X0059533Y0083536D01*
X0058244Y0082248D01*
X0058244Y0075821D01*
X0058484Y0075582D01*
X0058244Y0075342D01*
X0058244Y0075342D01*
X0058244Y0074421D01*
X0058244Y0066613D01*
X0059533Y0065325D01*
X0061355Y0065325D01*
X0065959Y0065325D01*
X0067248Y0066613D01*
X0067248Y0067725D02*
X0090470Y0067725D01*
X0091149Y0069323D02*
X0066361Y0069323D01*
X0066953Y0070922D02*
X0092214Y0070922D01*
X0093818Y0072520D02*
X0067248Y0072520D01*
X0067248Y0074119D02*
X0096630Y0074119D01*
X0098862Y0077593D02*
X0096191Y0078309D01*
X0093797Y0079691D01*
X0091842Y0081646D01*
X0090460Y0084040D01*
X0089744Y0086711D01*
X0089744Y0089476D01*
X0090460Y0092146D01*
X0091842Y0094540D01*
X0093797Y0096495D01*
X0096191Y0097878D01*
X0098862Y0098593D01*
X0101626Y0098593D01*
X0104297Y0097878D01*
X0106691Y0096495D01*
X0108646Y0094540D01*
X0110029Y0092146D01*
X0110744Y0089476D01*
X0110744Y0086711D01*
X0110029Y0084040D01*
X0108646Y0081646D01*
X0106691Y0079691D01*
X0104297Y0078309D01*
X0101626Y0077593D01*
X0098862Y0077593D01*
X0095142Y0078914D02*
X0067248Y0078914D01*
X0067208Y0077316D02*
X0108248Y0077316D01*
X0108248Y0075717D02*
X0066872Y0075717D01*
X0067248Y0080513D02*
X0092975Y0080513D01*
X0091573Y0082112D02*
X0067248Y0082112D01*
X0067248Y0083710D02*
X0090650Y0083710D01*
X0090120Y0085309D02*
X0067248Y0085309D01*
X0067248Y0086907D02*
X0089744Y0086907D01*
X0089744Y0088506D02*
X0067248Y0088506D01*
X0067248Y0087619D02*
X0067248Y0087619D01*
X0066298Y0090104D02*
X0089913Y0090104D01*
X0090341Y0091703D02*
X0067248Y0091703D01*
X0066937Y0093301D02*
X0091127Y0093301D01*
X0092201Y0094900D02*
X0066376Y0094900D01*
X0067248Y0096498D02*
X0093802Y0096498D01*
X0097009Y0098097D02*
X0066746Y0098097D01*
X0067248Y0099695D02*
X0224273Y0099695D01*
X0222675Y0098097D02*
X0188304Y0098097D01*
X0187294Y0099106D02*
X0185244Y0099106D01*
X0183194Y0099106D01*
X0180294Y0096207D01*
X0180294Y0094156D01*
X0180294Y0092106D01*
X0183194Y0089206D01*
X0185244Y0089206D01*
X0185244Y0094156D01*
X0185244Y0094156D01*
X0180294Y0094156D01*
X0185244Y0094156D01*
X0185244Y0094156D01*
X0185244Y0089206D01*
X0187294Y0089206D01*
X0190194Y0092106D01*
X0190194Y0094156D01*
X0185244Y0094156D01*
X0185244Y0094156D01*
X0185244Y0099106D01*
X0185244Y0094156D01*
X0185244Y0094156D01*
X0190194Y0094156D01*
X0190194Y0096207D01*
X0187294Y0099106D01*
X0185244Y0098097D02*
X0185244Y0098097D01*
X0185244Y0096498D02*
X0185244Y0096498D01*
X0185244Y0094900D02*
X0185244Y0094900D01*
X0185244Y0093301D02*
X0185244Y0093301D01*
X0185244Y0091703D02*
X0185244Y0091703D01*
X0185244Y0090104D02*
X0185244Y0090104D01*
X0182296Y0090104D02*
X0138475Y0090104D01*
X0137377Y0089006D02*
X0140394Y0092023D01*
X0140394Y0096289D01*
X0137377Y0099306D01*
X0133111Y0099306D01*
X0130094Y0096289D01*
X0130094Y0092023D01*
X0133111Y0089006D01*
X0137377Y0089006D01*
X0132013Y0090104D02*
X0110576Y0090104D01*
X0110744Y0088506D02*
X0213084Y0088506D01*
X0214682Y0090104D02*
X0188192Y0090104D01*
X0189791Y0091703D02*
X0216281Y0091703D01*
X0217879Y0093301D02*
X0190194Y0093301D01*
X0190194Y0094900D02*
X0219478Y0094900D01*
X0221076Y0096498D02*
X0189902Y0096498D01*
X0182184Y0098097D02*
X0138587Y0098097D01*
X0140185Y0096498D02*
X0180586Y0096498D01*
X0180294Y0094900D02*
X0140394Y0094900D01*
X0140394Y0093301D02*
X0180294Y0093301D01*
X0180697Y0091703D02*
X0140074Y0091703D01*
X0130414Y0091703D02*
X0110147Y0091703D01*
X0109362Y0093301D02*
X0130094Y0093301D01*
X0130094Y0094900D02*
X0108287Y0094900D01*
X0106686Y0096498D02*
X0130303Y0096498D01*
X0131901Y0098097D02*
X0103480Y0098097D01*
X0110744Y0086907D02*
X0211485Y0086907D01*
X0209887Y0085309D02*
X0124114Y0085309D01*
X0126169Y0083710D02*
X0208288Y0083710D01*
X0206690Y0082112D02*
X0127507Y0082112D01*
X0128430Y0080513D02*
X0205091Y0080513D01*
X0211412Y0078914D02*
X0293494Y0078914D01*
X0293494Y0080513D02*
X0213011Y0080513D01*
X0214609Y0082112D02*
X0293494Y0082112D01*
X0293494Y0083710D02*
X0216208Y0083710D01*
X0217806Y0085309D02*
X0293494Y0085309D01*
X0293494Y0086907D02*
X0219405Y0086907D01*
X0221003Y0088506D02*
X0293494Y0088506D01*
X0293494Y0090104D02*
X0222602Y0090104D01*
X0224200Y0091703D02*
X0293494Y0091703D01*
X0293494Y0093301D02*
X0225799Y0093301D01*
X0227397Y0094900D02*
X0252217Y0094900D01*
X0253111Y0094006D02*
X0250094Y0097023D01*
X0250094Y0101289D01*
X0253111Y0104306D01*
X0257377Y0104306D01*
X0260394Y0101289D01*
X0260394Y0097023D01*
X0257377Y0094006D01*
X0253111Y0094006D01*
X0250619Y0096498D02*
X0228996Y0096498D01*
X0230594Y0098097D02*
X0250094Y0098097D01*
X0250094Y0099695D02*
X0232193Y0099695D01*
X0233791Y0101294D02*
X0250098Y0101294D01*
X0251697Y0102892D02*
X0235390Y0102892D01*
X0236988Y0104491D02*
X0293494Y0104491D01*
X0293494Y0106089D02*
X0238587Y0106089D01*
X0240185Y0107688D02*
X0293494Y0107688D01*
X0293494Y0109286D02*
X0241784Y0109286D01*
X0243382Y0110885D02*
X0293494Y0110885D01*
X0293494Y0112483D02*
X0244981Y0112483D01*
X0246579Y0114082D02*
X0293494Y0114082D01*
X0293494Y0115680D02*
X0248178Y0115680D01*
X0249776Y0117279D02*
X0293494Y0117279D01*
X0299694Y0117279D02*
X0304844Y0117279D01*
X0304844Y0118877D02*
X0299694Y0118877D01*
X0299694Y0120476D02*
X0304844Y0120476D01*
X0304844Y0122074D02*
X0299694Y0122074D01*
X0299694Y0123673D02*
X0304844Y0123673D01*
X0304844Y0125063D02*
X0304844Y0097716D01*
X0304284Y0097156D01*
X0304250Y0097156D01*
X0302412Y0096395D01*
X0301005Y0094988D01*
X0300244Y0093151D01*
X0300244Y0085162D01*
X0301005Y0083324D01*
X0302412Y0081917D01*
X0304250Y0081156D01*
X0306239Y0081156D01*
X0308076Y0081917D01*
X0309483Y0083324D01*
X0310244Y0085162D01*
X0311005Y0083324D01*
X0312412Y0081917D01*
X0314250Y0081156D01*
X0316239Y0081156D01*
X0318076Y0081917D01*
X0319483Y0083324D01*
X0320244Y0085162D01*
X0320244Y0093151D01*
X0319483Y0094988D01*
X0318076Y0096395D01*
X0316744Y0096947D01*
X0316518Y0097492D01*
X0315730Y0098280D01*
X0313694Y0100316D01*
X0313694Y0111646D01*
X0316604Y0114556D01*
X0317149Y0114556D01*
X0319844Y0117251D01*
X0319844Y0121062D01*
X0317149Y0123756D01*
X0313339Y0123756D01*
X0310644Y0121062D01*
X0310644Y0117251D01*
X0311012Y0116883D01*
X0310444Y0116316D01*
X0310444Y0123346D01*
X0316380Y0129282D01*
X0316654Y0129556D01*
X0317149Y0129556D01*
X0319844Y0132251D01*
X0319844Y0136062D01*
X0317149Y0138756D01*
X0313339Y0138756D01*
X0310644Y0136062D01*
X0310644Y0132251D01*
X0311037Y0131858D01*
X0306058Y0126880D01*
X0305270Y0126092D01*
X0304844Y0125063D01*
X0304930Y0125271D02*
X0299694Y0125271D01*
X0299694Y0126870D02*
X0306048Y0126870D01*
X0306058Y0126880D02*
X0306058Y0126880D01*
X0307646Y0128468D02*
X0299694Y0128468D01*
X0299694Y0130067D02*
X0309245Y0130067D01*
X0310844Y0131665D02*
X0299694Y0131665D01*
X0299694Y0133264D02*
X0310644Y0133264D01*
X0310644Y0134862D02*
X0299694Y0134862D01*
X0299694Y0136461D02*
X0311043Y0136461D01*
X0312642Y0138059D02*
X0299694Y0138059D01*
X0299694Y0139658D02*
X0346383Y0139658D01*
X0347149Y0138756D02*
X0343339Y0138756D01*
X0340644Y0136062D01*
X0340644Y0132251D01*
X0343339Y0129556D01*
X0347149Y0129556D01*
X0349844Y0132251D01*
X0349844Y0136062D01*
X0347149Y0138756D01*
X0347846Y0138059D02*
X0347981Y0138059D01*
X0349445Y0136461D02*
X0349580Y0136461D01*
X0349844Y0134862D02*
X0351178Y0134862D01*
X0349844Y0133264D02*
X0352777Y0133264D01*
X0354375Y0131665D02*
X0349259Y0131665D01*
X0347660Y0130067D02*
X0355974Y0130067D01*
X0357572Y0128468D02*
X0315566Y0128468D01*
X0316380Y0129282D02*
X0316380Y0129282D01*
X0317660Y0130067D02*
X0342828Y0130067D01*
X0341230Y0131665D02*
X0319259Y0131665D01*
X0319844Y0133264D02*
X0340644Y0133264D01*
X0340644Y0134862D02*
X0319844Y0134862D01*
X0319445Y0136461D02*
X0341043Y0136461D01*
X0342642Y0138059D02*
X0317846Y0138059D01*
X0315244Y0134156D02*
X0314794Y0133606D01*
X0314794Y0131656D01*
X0307644Y0124506D01*
X0307644Y0096556D01*
X0305694Y0094606D01*
X0305694Y0089406D01*
X0305244Y0089156D01*
X0300244Y0088506D02*
X0299694Y0088506D01*
X0299694Y0090104D02*
X0300244Y0090104D01*
X0300244Y0091703D02*
X0299694Y0091703D01*
X0299694Y0093301D02*
X0300306Y0093301D01*
X0299694Y0094900D02*
X0300969Y0094900D01*
X0299694Y0096498D02*
X0302661Y0096498D01*
X0304844Y0098097D02*
X0299694Y0098097D01*
X0299694Y0099695D02*
X0304844Y0099695D01*
X0304844Y0101294D02*
X0299694Y0101294D01*
X0299694Y0102892D02*
X0304844Y0102892D01*
X0304844Y0104491D02*
X0299694Y0104491D01*
X0299694Y0106089D02*
X0304844Y0106089D01*
X0304844Y0107688D02*
X0299694Y0107688D01*
X0299694Y0109286D02*
X0304844Y0109286D01*
X0304844Y0110885D02*
X0299694Y0110885D01*
X0299694Y0112483D02*
X0304844Y0112483D01*
X0304844Y0114082D02*
X0299694Y0114082D01*
X0299694Y0115680D02*
X0304844Y0115680D01*
X0310444Y0117279D02*
X0310644Y0117279D01*
X0310644Y0118877D02*
X0310444Y0118877D01*
X0310444Y0120476D02*
X0310644Y0120476D01*
X0310444Y0122074D02*
X0311657Y0122074D01*
X0310771Y0123673D02*
X0313255Y0123673D01*
X0312369Y0125271D02*
X0360769Y0125271D01*
X0362368Y0123673D02*
X0347233Y0123673D01*
X0347149Y0123756D02*
X0343339Y0123756D01*
X0340644Y0121062D01*
X0340644Y0117251D01*
X0343339Y0114556D01*
X0347149Y0114556D01*
X0349844Y0117251D01*
X0349844Y0121062D01*
X0347149Y0123756D01*
X0348831Y0122074D02*
X0363966Y0122074D01*
X0365565Y0120476D02*
X0349844Y0120476D01*
X0349844Y0118877D02*
X0367163Y0118877D01*
X0368762Y0117279D02*
X0349844Y0117279D01*
X0348274Y0115680D02*
X0370360Y0115680D01*
X0371959Y0114082D02*
X0316129Y0114082D01*
X0314531Y0112483D02*
X0373557Y0112483D01*
X0375156Y0110885D02*
X0313694Y0110885D01*
X0313694Y0109286D02*
X0376754Y0109286D01*
X0378353Y0107688D02*
X0313694Y0107688D01*
X0313694Y0106089D02*
X0379951Y0106089D01*
X0381550Y0104491D02*
X0313694Y0104491D01*
X0313694Y0102892D02*
X0383700Y0102892D01*
X0384674Y0109286D02*
X0389028Y0109286D01*
X0383075Y0110885D02*
X0416144Y0110885D01*
X0416144Y0112483D02*
X0381477Y0112483D01*
X0379878Y0114082D02*
X0416144Y0114082D01*
X0416144Y0115680D02*
X0378280Y0115680D01*
X0376681Y0117279D02*
X0416144Y0117279D01*
X0416144Y0118877D02*
X0375083Y0118877D01*
X0373484Y0120476D02*
X0416144Y0120476D01*
X0416144Y0122074D02*
X0371886Y0122074D01*
X0370287Y0123673D02*
X0416144Y0123673D01*
X0416144Y0125271D02*
X0368689Y0125271D01*
X0367090Y0126870D02*
X0416144Y0126870D01*
X0416144Y0128468D02*
X0365492Y0128468D01*
X0363893Y0130067D02*
X0416144Y0130067D01*
X0416144Y0131665D02*
X0362295Y0131665D01*
X0360696Y0133264D02*
X0416144Y0133264D01*
X0416144Y0134862D02*
X0359098Y0134862D01*
X0357499Y0136461D02*
X0416144Y0136461D01*
X0416144Y0138059D02*
X0355901Y0138059D01*
X0354302Y0139658D02*
X0416144Y0139658D01*
X0416144Y0141256D02*
X0352704Y0141256D01*
X0351105Y0142855D02*
X0416144Y0142855D01*
X0416144Y0144453D02*
X0349507Y0144453D01*
X0347908Y0146052D02*
X0416144Y0146052D01*
X0416144Y0147650D02*
X0346310Y0147650D01*
X0344711Y0149249D02*
X0416144Y0149249D01*
X0416144Y0150847D02*
X0343113Y0150847D01*
X0341514Y0152446D02*
X0416144Y0152446D01*
X0416144Y0154045D02*
X0339916Y0154045D01*
X0338317Y0155643D02*
X0416144Y0155643D01*
X0416144Y0157242D02*
X0336719Y0157242D01*
X0335120Y0158840D02*
X0416144Y0158840D01*
X0416144Y0160439D02*
X0333521Y0160439D01*
X0331923Y0162037D02*
X0416144Y0162037D01*
X0416144Y0163636D02*
X0330324Y0163636D01*
X0328726Y0165234D02*
X0416144Y0165234D01*
X0416144Y0166833D02*
X0327127Y0166833D01*
X0325529Y0168431D02*
X0416144Y0168431D01*
X0416144Y0170030D02*
X0398441Y0170030D01*
X0397344Y0172606D02*
X0321294Y0172606D01*
X0305044Y0188856D01*
X0305244Y0189156D01*
X0301991Y0192409D02*
X0286601Y0192409D01*
X0285003Y0194007D02*
X0357898Y0194007D01*
X0358049Y0193856D02*
X0362439Y0193856D01*
X0365244Y0196661D01*
X0368049Y0193856D01*
X0372439Y0193856D01*
X0375544Y0196961D01*
X0375544Y0201351D01*
X0372439Y0204456D01*
X0368049Y0204456D01*
X0365244Y0201651D01*
X0362439Y0204456D01*
X0358049Y0204456D01*
X0354944Y0201351D01*
X0354944Y0196961D01*
X0358049Y0193856D01*
X0356299Y0195606D02*
X0283404Y0195606D01*
X0281806Y0197204D02*
X0354944Y0197204D01*
X0354944Y0198803D02*
X0280207Y0198803D01*
X0278609Y0200401D02*
X0354944Y0200401D01*
X0355592Y0202000D02*
X0277010Y0202000D01*
X0275412Y0203598D02*
X0357191Y0203598D01*
X0363297Y0203598D02*
X0367191Y0203598D01*
X0365592Y0202000D02*
X0364896Y0202000D01*
X0373297Y0203598D02*
X0387686Y0203598D01*
X0388194Y0204106D02*
X0385294Y0201207D01*
X0385294Y0199156D01*
X0385294Y0197106D01*
X0388194Y0194206D01*
X0390244Y0194206D01*
X0390244Y0199156D01*
X0390244Y0199156D01*
X0385294Y0199156D01*
X0390244Y0199156D01*
X0390244Y0199156D01*
X0390244Y0194206D01*
X0392294Y0194206D01*
X0395194Y0197106D01*
X0395194Y0199156D01*
X0390244Y0199156D01*
X0390244Y0199156D01*
X0390244Y0204106D01*
X0388194Y0204106D01*
X0390244Y0204106D02*
X0390244Y0199156D01*
X0390244Y0199156D01*
X0395194Y0199156D01*
X0395194Y0201207D01*
X0392294Y0204106D01*
X0390244Y0204106D01*
X0390244Y0203598D02*
X0390244Y0203598D01*
X0390244Y0202000D02*
X0390244Y0202000D01*
X0390244Y0200401D02*
X0390244Y0200401D01*
X0390244Y0198803D02*
X0390244Y0198803D01*
X0390244Y0197204D02*
X0390244Y0197204D01*
X0390244Y0195606D02*
X0390244Y0195606D01*
X0386794Y0195606D02*
X0374189Y0195606D01*
X0375544Y0197204D02*
X0385294Y0197204D01*
X0385294Y0198803D02*
X0375544Y0198803D01*
X0375544Y0200401D02*
X0385294Y0200401D01*
X0386087Y0202000D02*
X0374896Y0202000D01*
X0384247Y0208394D02*
X0270616Y0208394D01*
X0269018Y0209992D02*
X0299619Y0209992D01*
X0300030Y0209581D02*
X0306836Y0209581D01*
X0308008Y0210753D01*
X0308008Y0210986D01*
X0308716Y0210278D01*
X0310397Y0209581D01*
X0312217Y0209581D01*
X0313898Y0210278D01*
X0315185Y0211565D01*
X0315244Y0211706D01*
X0315303Y0211565D01*
X0316590Y0210278D01*
X0318271Y0209581D01*
X0320091Y0209581D01*
X0321773Y0210278D01*
X0323059Y0211565D01*
X0323242Y0212004D01*
X0323313Y0211863D01*
X0323718Y0211306D01*
X0324205Y0210819D01*
X0324762Y0210414D01*
X0325376Y0210102D01*
X0326031Y0209889D01*
X0326711Y0209781D01*
X0327055Y0209781D01*
X0327055Y0214156D01*
X0327055Y0214156D01*
X0327055Y0209781D01*
X0327399Y0209781D01*
X0328080Y0209889D01*
X0328734Y0210102D01*
X0329348Y0210414D01*
X0329905Y0210819D01*
X0330392Y0211306D01*
X0330797Y0211863D01*
X0331109Y0212477D01*
X0331322Y0213132D01*
X0331430Y0213812D01*
X0331430Y0214156D01*
X0327055Y0214156D01*
X0327055Y0214156D01*
X0327055Y0218531D01*
X0326711Y0218531D01*
X0326031Y0218423D01*
X0325376Y0218210D01*
X0324762Y0217898D01*
X0324205Y0217493D01*
X0323718Y0217006D01*
X0323313Y0216449D01*
X0323242Y0216308D01*
X0323059Y0216748D01*
X0321773Y0218034D01*
X0320091Y0218731D01*
X0318271Y0218731D01*
X0316590Y0218034D01*
X0315303Y0216748D01*
X0315244Y0216606D01*
X0315185Y0216748D01*
X0313898Y0218034D01*
X0312217Y0218731D01*
X0310397Y0218731D01*
X0308716Y0218034D01*
X0308008Y0217327D01*
X0308008Y0217559D01*
X0306836Y0218731D01*
X0300030Y0218731D01*
X0298858Y0217559D01*
X0298858Y0210753D01*
X0300030Y0209581D01*
X0298858Y0211591D02*
X0267419Y0211591D01*
X0265821Y0213189D02*
X0298858Y0213189D01*
X0298858Y0214788D02*
X0264222Y0214788D01*
X0262624Y0216386D02*
X0298858Y0216386D01*
X0299284Y0217985D02*
X0261025Y0217985D01*
X0258856Y0219583D02*
X0415586Y0219583D01*
X0415586Y0217985D02*
X0412921Y0217985D01*
X0412149Y0218756D02*
X0408339Y0218756D01*
X0405644Y0216062D01*
X0405644Y0212251D01*
X0408339Y0209556D01*
X0412149Y0209556D01*
X0414844Y0212251D01*
X0414844Y0216062D01*
X0412149Y0218756D01*
X0414519Y0216386D02*
X0415586Y0216386D01*
X0415617Y0214788D02*
X0414844Y0214788D01*
X0414844Y0213189D02*
X0415732Y0213189D01*
X0416120Y0211591D02*
X0414184Y0211591D01*
X0412586Y0209992D02*
X0416733Y0209992D01*
X0417611Y0208394D02*
X0396066Y0208394D01*
X0394468Y0209992D02*
X0407902Y0209992D01*
X0406304Y0211591D02*
X0392869Y0211591D01*
X0390194Y0210306D02*
X0386294Y0210306D01*
X0382394Y0214206D01*
X0380444Y0214206D01*
X0380244Y0214156D01*
X0375644Y0214788D02*
X0331384Y0214788D01*
X0331430Y0214500D02*
X0331322Y0215181D01*
X0331109Y0215835D01*
X0330797Y0216449D01*
X0330392Y0217006D01*
X0329905Y0217493D01*
X0329348Y0217898D01*
X0328734Y0218210D01*
X0328080Y0218423D01*
X0327399Y0218531D01*
X0327055Y0218531D01*
X0327055Y0214156D01*
X0327055Y0214156D01*
X0331430Y0214156D01*
X0331430Y0214500D01*
X0331331Y0213189D02*
X0375644Y0213189D01*
X0376304Y0211591D02*
X0330599Y0211591D01*
X0328398Y0209992D02*
X0377902Y0209992D01*
X0382586Y0209992D02*
X0382648Y0209992D01*
X0387371Y0213189D02*
X0405644Y0213189D01*
X0405644Y0214788D02*
X0385772Y0214788D01*
X0384519Y0216386D02*
X0405969Y0216386D01*
X0407568Y0217985D02*
X0382921Y0217985D01*
X0377568Y0217985D02*
X0329177Y0217985D01*
X0327055Y0217985D02*
X0327055Y0217985D01*
X0327055Y0216386D02*
X0327055Y0216386D01*
X0327055Y0214788D02*
X0327055Y0214788D01*
X0327055Y0213189D02*
X0327055Y0213189D01*
X0327055Y0211591D02*
X0327055Y0211591D01*
X0327055Y0209992D02*
X0327055Y0209992D01*
X0325713Y0209992D02*
X0321083Y0209992D01*
X0323070Y0211591D02*
X0323511Y0211591D01*
X0317279Y0209992D02*
X0313209Y0209992D01*
X0315196Y0211591D02*
X0315292Y0211591D01*
X0309405Y0209992D02*
X0307247Y0209992D01*
X0307582Y0217985D02*
X0308666Y0217985D01*
X0313948Y0217985D02*
X0316540Y0217985D01*
X0321822Y0217985D02*
X0324933Y0217985D01*
X0323282Y0216386D02*
X0323209Y0216386D01*
X0330829Y0216386D02*
X0375969Y0216386D01*
X0390194Y0210306D02*
X0397994Y0202506D01*
X0397994Y0184956D01*
X0407744Y0175206D01*
X0408394Y0175206D01*
X0407102Y0171628D02*
X0401236Y0171628D01*
X0403237Y0173227D02*
X0405101Y0173227D01*
X0404165Y0174825D02*
X0403744Y0174825D01*
X0399944Y0175206D02*
X0397344Y0172606D01*
X0396335Y0176424D02*
X0381644Y0176424D01*
X0381329Y0178022D02*
X0397386Y0178022D01*
X0399370Y0179621D02*
X0392709Y0179621D01*
X0392294Y0179206D02*
X0395194Y0182106D01*
X0395194Y0184156D01*
X0390244Y0184156D01*
X0390244Y0184156D01*
X0390244Y0179206D01*
X0388194Y0179206D01*
X0385294Y0182106D01*
X0385294Y0184156D01*
X0390244Y0184156D01*
X0390244Y0184156D01*
X0390244Y0179206D01*
X0392294Y0179206D01*
X0390244Y0179621D02*
X0390244Y0179621D01*
X0390244Y0181219D02*
X0390244Y0181219D01*
X0390244Y0182818D02*
X0390244Y0182818D01*
X0390244Y0184156D02*
X0390244Y0184156D01*
X0385294Y0184156D01*
X0385294Y0186207D01*
X0388194Y0189106D01*
X0390244Y0189106D01*
X0390244Y0184156D01*
X0390244Y0184156D01*
X0395194Y0184156D01*
X0395194Y0186207D01*
X0392294Y0189106D01*
X0390244Y0189106D01*
X0390244Y0184156D01*
X0390244Y0184416D02*
X0390244Y0184416D01*
X0390244Y0186015D02*
X0390244Y0186015D01*
X0390244Y0187613D02*
X0390244Y0187613D01*
X0386701Y0187613D02*
X0383010Y0187613D01*
X0382067Y0188556D02*
X0380244Y0188556D01*
X0378422Y0188556D01*
X0375844Y0185979D01*
X0375844Y0184156D01*
X0380244Y0184156D01*
X0380244Y0184156D01*
X0380244Y0179756D01*
X0382067Y0179756D01*
X0384644Y0182334D01*
X0384644Y0184156D01*
X0380244Y0184156D01*
X0380244Y0184156D01*
X0380244Y0188556D01*
X0380244Y0184156D01*
X0380244Y0184156D01*
X0384644Y0184156D01*
X0384644Y0185979D01*
X0382067Y0188556D01*
X0380244Y0187613D02*
X0380244Y0187613D01*
X0380244Y0186015D02*
X0380244Y0186015D01*
X0380244Y0184416D02*
X0380244Y0184416D01*
X0380244Y0182818D02*
X0380244Y0182818D01*
X0380244Y0181219D02*
X0380244Y0181219D01*
X0380104Y0179621D02*
X0387779Y0179621D01*
X0386181Y0181219D02*
X0383530Y0181219D01*
X0384644Y0182818D02*
X0385294Y0182818D01*
X0385294Y0184416D02*
X0384644Y0184416D01*
X0384608Y0186015D02*
X0385294Y0186015D01*
X0377479Y0187613D02*
X0353292Y0187613D01*
X0352149Y0188756D02*
X0348339Y0188756D01*
X0345644Y0186062D01*
X0345644Y0182251D01*
X0348339Y0179556D01*
X0352149Y0179556D01*
X0354844Y0182251D01*
X0354844Y0186062D01*
X0352149Y0188756D01*
X0354844Y0186015D02*
X0375880Y0186015D01*
X0375844Y0184416D02*
X0354844Y0184416D01*
X0354844Y0182818D02*
X0375844Y0182818D01*
X0376959Y0181219D02*
X0353813Y0181219D01*
X0352214Y0179621D02*
X0375585Y0179621D01*
X0377844Y0176506D02*
X0329744Y0176506D01*
X0317394Y0188856D01*
X0315444Y0188856D01*
X0315244Y0189156D01*
X0311991Y0192409D02*
X0308497Y0192409D01*
X0309844Y0190810D02*
X0310644Y0190810D01*
X0310644Y0189212D02*
X0309844Y0189212D01*
X0310247Y0187613D02*
X0310644Y0187613D01*
X0311845Y0186015D02*
X0311880Y0186015D01*
X0313444Y0184416D02*
X0317874Y0184416D01*
X0319473Y0182818D02*
X0315042Y0182818D01*
X0316641Y0181219D02*
X0321071Y0181219D01*
X0322670Y0179621D02*
X0318239Y0179621D01*
X0319838Y0178022D02*
X0324268Y0178022D01*
X0325867Y0176424D02*
X0321436Y0176424D01*
X0314412Y0171628D02*
X0295456Y0171628D01*
X0293858Y0173227D02*
X0312814Y0173227D01*
X0311215Y0174825D02*
X0292259Y0174825D01*
X0290661Y0176424D02*
X0309617Y0176424D01*
X0308018Y0178022D02*
X0289062Y0178022D01*
X0287464Y0179621D02*
X0291470Y0179621D01*
X0289871Y0181219D02*
X0243424Y0181219D01*
X0245214Y0179621D02*
X0254375Y0179621D01*
X0252776Y0178022D02*
X0246812Y0178022D01*
X0248411Y0176424D02*
X0251178Y0176424D01*
X0256749Y0173227D02*
X0257031Y0173227D01*
X0255433Y0171628D02*
X0255150Y0171628D01*
X0255094Y0170030D02*
X0253552Y0170030D01*
X0255094Y0168431D02*
X0251953Y0168431D01*
X0250355Y0166833D02*
X0255284Y0166833D01*
X0255362Y0165234D02*
X0249844Y0165234D01*
X0249844Y0163636D02*
X0253764Y0163636D01*
X0252165Y0162037D02*
X0249630Y0162037D01*
X0250627Y0160439D02*
X0248032Y0160439D01*
X0250244Y0158840D02*
X0052044Y0158840D01*
X0052044Y0115680D02*
X0240258Y0115680D01*
X0238660Y0114082D02*
X0052044Y0114082D01*
X0052044Y0112483D02*
X0237061Y0112483D01*
X0235463Y0110885D02*
X0052044Y0110885D01*
X0052044Y0109286D02*
X0233864Y0109286D01*
X0232266Y0107688D02*
X0052044Y0107688D01*
X0052044Y0106089D02*
X0230667Y0106089D01*
X0229069Y0104491D02*
X0065723Y0104491D01*
X0066481Y0103733D02*
X0066481Y0103733D01*
X0067248Y0102892D02*
X0227470Y0102892D01*
X0225872Y0101294D02*
X0067248Y0101294D01*
X0059769Y0104491D02*
X0052044Y0104491D01*
X0052044Y0102892D02*
X0058244Y0102892D01*
X0058244Y0102965D02*
X0058244Y0102965D01*
X0058244Y0102965D01*
X0059011Y0103733D02*
X0059011Y0103733D01*
X0060300Y0105021D02*
X0060300Y0105021D01*
X0058244Y0101294D02*
X0052044Y0101294D01*
X0052044Y0099695D02*
X0058244Y0099695D01*
X0058244Y0098097D02*
X0052044Y0098097D01*
X0052044Y0096498D02*
X0058244Y0096498D01*
X0058244Y0094900D02*
X0052044Y0094900D01*
X0052044Y0093301D02*
X0058244Y0093301D01*
X0058244Y0091703D02*
X0052044Y0091703D01*
X0052044Y0090104D02*
X0058244Y0090104D01*
X0058244Y0088506D02*
X0052044Y0088506D01*
X0052044Y0086907D02*
X0058244Y0086907D01*
X0058732Y0085309D02*
X0052044Y0085309D01*
X0052044Y0083710D02*
X0060474Y0083710D01*
X0058244Y0082112D02*
X0052044Y0082112D01*
X0052044Y0080513D02*
X0058244Y0080513D01*
X0058244Y0078914D02*
X0052044Y0078914D01*
X0052044Y0077316D02*
X0058244Y0077316D01*
X0058348Y0075717D02*
X0052044Y0075717D01*
X0052044Y0074119D02*
X0058244Y0074119D01*
X0058244Y0075342D02*
X0058244Y0075342D01*
X0058244Y0072520D02*
X0052044Y0072520D01*
X0052044Y0070922D02*
X0058244Y0070922D01*
X0058244Y0069323D02*
X0052044Y0069323D01*
X0052044Y0067725D02*
X0058244Y0067725D01*
X0058731Y0066126D02*
X0052044Y0066126D01*
X0078603Y0037353D02*
X0415586Y0037353D01*
X0415715Y0051740D02*
X0292474Y0051740D01*
X0293021Y0053338D02*
X0416050Y0053338D01*
X0416611Y0054937D02*
X0402530Y0054937D01*
X0404129Y0056535D02*
X0417445Y0056535D01*
X0418634Y0058134D02*
X0404844Y0058134D01*
X0404844Y0059732D02*
X0420332Y0059732D01*
X0422832Y0061331D02*
X0404575Y0061331D01*
X0402976Y0062929D02*
X0442145Y0062929D01*
X0402544Y0073156D02*
X0400594Y0071206D01*
X0400594Y0069256D01*
X0400244Y0069156D01*
X0402544Y0073156D02*
X0402544Y0105656D01*
X0399744Y0101294D02*
X0313694Y0101294D01*
X0314315Y0099695D02*
X0399744Y0099695D01*
X0399744Y0098097D02*
X0315913Y0098097D01*
X0317827Y0096498D02*
X0323193Y0096498D01*
X0323402Y0096604D02*
X0322728Y0096261D01*
X0322117Y0095817D01*
X0321583Y0095283D01*
X0321139Y0094672D01*
X0320796Y0093999D01*
X0320562Y0093280D01*
X0320444Y0092534D01*
X0320444Y0089356D01*
X0325044Y0089356D01*
X0325044Y0088956D01*
X0325444Y0088956D01*
X0325444Y0081356D01*
X0325622Y0081356D01*
X0326368Y0081474D01*
X0327087Y0081708D01*
X0327760Y0082051D01*
X0328371Y0082495D01*
X0328905Y0083029D01*
X0329349Y0083640D01*
X0329692Y0084314D01*
X0329926Y0085032D01*
X0330044Y0085778D01*
X0330044Y0088956D01*
X0325444Y0088956D01*
X0325444Y0089356D01*
X0330044Y0089356D01*
X0330044Y0092534D01*
X0329926Y0093280D01*
X0329692Y0093999D01*
X0329349Y0094672D01*
X0328905Y0095283D01*
X0328371Y0095817D01*
X0327760Y0096261D01*
X0327087Y0096604D01*
X0326368Y0096838D01*
X0325622Y0096956D01*
X0325444Y0096956D01*
X0325444Y0089356D01*
X0325044Y0089356D01*
X0325044Y0096956D01*
X0324866Y0096956D01*
X0324120Y0096838D01*
X0323402Y0096604D01*
X0325044Y0096498D02*
X0325444Y0096498D01*
X0325444Y0094900D02*
X0325044Y0094900D01*
X0325044Y0093301D02*
X0325444Y0093301D01*
X0325444Y0091703D02*
X0325044Y0091703D01*
X0325044Y0090104D02*
X0325444Y0090104D01*
X0325044Y0088956D02*
X0320444Y0088956D01*
X0320444Y0085778D01*
X0320562Y0085032D01*
X0320796Y0084314D01*
X0321139Y0083640D01*
X0321583Y0083029D01*
X0322117Y0082495D01*
X0322728Y0082051D01*
X0323402Y0081708D01*
X0324120Y0081474D01*
X0324866Y0081356D01*
X0325044Y0081356D01*
X0325044Y0088956D01*
X0325044Y0088506D02*
X0325444Y0088506D01*
X0325444Y0086907D02*
X0325044Y0086907D01*
X0325044Y0085309D02*
X0325444Y0085309D01*
X0325444Y0083710D02*
X0325044Y0083710D01*
X0325044Y0082112D02*
X0325444Y0082112D01*
X0327843Y0082112D02*
X0332218Y0082112D01*
X0332412Y0081917D02*
X0334250Y0081156D01*
X0336239Y0081156D01*
X0338076Y0081917D01*
X0339483Y0083324D01*
X0340244Y0085162D01*
X0340244Y0093151D01*
X0339483Y0094988D01*
X0338076Y0096395D01*
X0336239Y0097156D01*
X0334250Y0097156D01*
X0332412Y0096395D01*
X0331005Y0094988D01*
X0330244Y0093151D01*
X0330244Y0085162D01*
X0331005Y0083324D01*
X0332412Y0081917D01*
X0330845Y0083710D02*
X0329385Y0083710D01*
X0329970Y0085309D02*
X0330244Y0085309D01*
X0330244Y0086907D02*
X0330044Y0086907D01*
X0330044Y0088506D02*
X0330244Y0088506D01*
X0330244Y0090104D02*
X0330044Y0090104D01*
X0330044Y0091703D02*
X0330244Y0091703D01*
X0330306Y0093301D02*
X0329919Y0093301D01*
X0329184Y0094900D02*
X0330969Y0094900D01*
X0332661Y0096498D02*
X0327295Y0096498D01*
X0321304Y0094900D02*
X0319520Y0094900D01*
X0320182Y0093301D02*
X0320569Y0093301D01*
X0320444Y0091703D02*
X0320244Y0091703D01*
X0320244Y0090104D02*
X0320444Y0090104D01*
X0320444Y0088506D02*
X0320244Y0088506D01*
X0320244Y0086907D02*
X0320444Y0086907D01*
X0320519Y0085309D02*
X0320244Y0085309D01*
X0319643Y0083710D02*
X0321103Y0083710D01*
X0322645Y0082112D02*
X0318270Y0082112D01*
X0312218Y0082112D02*
X0308270Y0082112D01*
X0309643Y0083710D02*
X0310845Y0083710D01*
X0310244Y0085162D02*
X0310244Y0093151D01*
X0311005Y0094988D01*
X0311054Y0095037D01*
X0310341Y0095750D01*
X0310018Y0094970D01*
X0309645Y0094597D01*
X0310244Y0093151D01*
X0310244Y0085162D01*
X0310244Y0085309D02*
X0310244Y0085309D01*
X0310244Y0086907D02*
X0310244Y0086907D01*
X0310244Y0088506D02*
X0310244Y0088506D01*
X0310244Y0090104D02*
X0310244Y0090104D01*
X0310244Y0091703D02*
X0310244Y0091703D01*
X0310182Y0093301D02*
X0310306Y0093301D01*
X0309947Y0094900D02*
X0310969Y0094900D01*
X0314144Y0095256D02*
X0314794Y0094606D01*
X0314794Y0089406D01*
X0315244Y0089156D01*
X0314144Y0095256D02*
X0314144Y0095906D01*
X0310894Y0099156D01*
X0310894Y0112806D01*
X0314794Y0116706D01*
X0314794Y0118656D01*
X0315244Y0119156D01*
X0319844Y0118877D02*
X0340644Y0118877D01*
X0340644Y0117279D02*
X0319844Y0117279D01*
X0318274Y0115680D02*
X0342215Y0115680D01*
X0340644Y0120476D02*
X0319844Y0120476D01*
X0318831Y0122074D02*
X0341657Y0122074D01*
X0343255Y0123673D02*
X0317233Y0123673D01*
X0313968Y0126870D02*
X0359171Y0126870D01*
X0344784Y0141256D02*
X0299694Y0141256D01*
X0299694Y0142855D02*
X0343186Y0142855D01*
X0341587Y0144453D02*
X0299694Y0144453D01*
X0299694Y0146052D02*
X0339988Y0146052D01*
X0338390Y0147650D02*
X0299694Y0147650D01*
X0299694Y0149249D02*
X0336791Y0149249D01*
X0335193Y0150847D02*
X0299694Y0150847D01*
X0299694Y0152446D02*
X0333594Y0152446D01*
X0331996Y0154045D02*
X0299694Y0154045D01*
X0299694Y0155643D02*
X0302252Y0155643D01*
X0300653Y0157242D02*
X0299694Y0157242D01*
X0308236Y0155643D02*
X0312252Y0155643D01*
X0313339Y0154556D02*
X0317149Y0154556D01*
X0319844Y0157251D01*
X0319844Y0161062D01*
X0317149Y0163756D01*
X0313339Y0163756D01*
X0310644Y0161062D01*
X0310644Y0157251D01*
X0313339Y0154556D01*
X0310653Y0157242D02*
X0309835Y0157242D01*
X0309844Y0158840D02*
X0310644Y0158840D01*
X0310644Y0160439D02*
X0309844Y0160439D01*
X0308869Y0162037D02*
X0311620Y0162037D01*
X0313218Y0163636D02*
X0307270Y0163636D01*
X0301850Y0165234D02*
X0320806Y0165234D01*
X0319208Y0166833D02*
X0300252Y0166833D01*
X0298653Y0168431D02*
X0317609Y0168431D01*
X0316011Y0170030D02*
X0297055Y0170030D01*
X0291484Y0166833D02*
X0265204Y0166833D01*
X0265394Y0168431D02*
X0289885Y0168431D01*
X0288287Y0170030D02*
X0265394Y0170030D01*
X0265055Y0171628D02*
X0286688Y0171628D01*
X0285090Y0173227D02*
X0263457Y0173227D01*
X0243014Y0168431D02*
X0237475Y0168431D01*
X0239073Y0166833D02*
X0241415Y0166833D01*
X0240644Y0165234D02*
X0239844Y0165234D01*
X0239844Y0163636D02*
X0240644Y0163636D01*
X0240858Y0162037D02*
X0239630Y0162037D01*
X0238032Y0160439D02*
X0242456Y0160439D01*
X0232456Y0160439D02*
X0183032Y0160439D01*
X0184630Y0162037D02*
X0230858Y0162037D01*
X0249844Y0150847D02*
X0250244Y0150847D01*
X0249844Y0149249D02*
X0250991Y0149249D01*
X0249844Y0147650D02*
X0252590Y0147650D01*
X0252844Y0146052D02*
X0248645Y0146052D01*
X0241429Y0120476D02*
X0239059Y0120476D01*
X0258791Y0102892D02*
X0271980Y0102892D01*
X0273194Y0104106D02*
X0270294Y0101207D01*
X0270294Y0099156D01*
X0270294Y0097106D01*
X0273194Y0094206D01*
X0275244Y0094206D01*
X0275244Y0099156D01*
X0275244Y0099156D01*
X0270294Y0099156D01*
X0275244Y0099156D01*
X0275244Y0099156D01*
X0275244Y0094206D01*
X0277294Y0094206D01*
X0280194Y0097106D01*
X0280194Y0099156D01*
X0275244Y0099156D01*
X0275244Y0099156D01*
X0275244Y0104106D01*
X0273194Y0104106D01*
X0275244Y0104106D02*
X0277294Y0104106D01*
X0280194Y0101207D01*
X0280194Y0099156D01*
X0275244Y0099156D01*
X0275244Y0099156D01*
X0275244Y0104106D01*
X0275244Y0102892D02*
X0275244Y0102892D01*
X0275244Y0101294D02*
X0275244Y0101294D01*
X0275244Y0099695D02*
X0275244Y0099695D01*
X0275244Y0098097D02*
X0275244Y0098097D01*
X0275244Y0096498D02*
X0275244Y0096498D01*
X0275244Y0094900D02*
X0275244Y0094900D01*
X0272500Y0094900D02*
X0258271Y0094900D01*
X0259869Y0096498D02*
X0270902Y0096498D01*
X0270294Y0098097D02*
X0260394Y0098097D01*
X0260394Y0099695D02*
X0270294Y0099695D01*
X0270381Y0101294D02*
X0260390Y0101294D01*
X0278508Y0102892D02*
X0293494Y0102892D01*
X0293494Y0101294D02*
X0280107Y0101294D01*
X0280194Y0099695D02*
X0293494Y0099695D01*
X0293494Y0098097D02*
X0280194Y0098097D01*
X0279586Y0096498D02*
X0293494Y0096498D01*
X0293494Y0094900D02*
X0277988Y0094900D01*
X0299694Y0086907D02*
X0300244Y0086907D01*
X0300244Y0085309D02*
X0299694Y0085309D01*
X0299694Y0083710D02*
X0300845Y0083710D01*
X0299694Y0082112D02*
X0302218Y0082112D01*
X0299694Y0080513D02*
X0399744Y0080513D01*
X0399744Y0082112D02*
X0338270Y0082112D01*
X0339643Y0083710D02*
X0399744Y0083710D01*
X0399744Y0085309D02*
X0340244Y0085309D01*
X0340244Y0086907D02*
X0399744Y0086907D01*
X0399744Y0088506D02*
X0340244Y0088506D01*
X0340244Y0090104D02*
X0399744Y0090104D01*
X0399744Y0091703D02*
X0340244Y0091703D01*
X0340182Y0093301D02*
X0399744Y0093301D01*
X0399744Y0094900D02*
X0339520Y0094900D01*
X0337827Y0096498D02*
X0399744Y0096498D01*
X0399744Y0078914D02*
X0299694Y0078914D01*
X0288144Y0071206D02*
X0352494Y0071206D01*
X0350969Y0067725D02*
X0288623Y0067725D01*
X0291153Y0058134D02*
X0365844Y0058134D01*
X0366642Y0056535D02*
X0292493Y0056535D01*
X0293027Y0054937D02*
X0368241Y0054937D01*
X0215994Y0059506D02*
X0183494Y0059506D01*
X0185160Y0062929D02*
X0215458Y0062929D01*
X0213652Y0053338D02*
X0187136Y0053338D01*
X0113382Y0085309D02*
X0110368Y0085309D01*
X0109838Y0083710D02*
X0111327Y0083710D01*
X0109989Y0082112D02*
X0108915Y0082112D01*
X0109066Y0080513D02*
X0107513Y0080513D01*
X0108583Y0078914D02*
X0105346Y0078914D01*
X0172461Y0118877D02*
X0178028Y0118877D01*
X0176429Y0120476D02*
X0174059Y0120476D01*
X0183460Y0152446D02*
X0190844Y0152446D01*
X0165644Y0163636D02*
X0156811Y0163636D01*
X0159383Y0165234D02*
X0165644Y0165234D01*
X0166415Y0166833D02*
X0160451Y0166833D01*
X0160944Y0168431D02*
X0168014Y0168431D01*
X0110669Y0208394D02*
X0109819Y0208394D01*
X0109819Y0209992D02*
X0110669Y0209992D01*
X0111301Y0211591D02*
X0109187Y0211591D01*
X0107461Y0213189D02*
X0113027Y0213189D01*
X0103027Y0213189D02*
X0099189Y0213189D01*
X0099819Y0211591D02*
X0101301Y0211591D01*
X0100669Y0209992D02*
X0099819Y0209992D01*
X0099819Y0208394D02*
X0100669Y0208394D01*
X0078603Y0221182D02*
X0415586Y0221182D01*
X0415586Y0222780D02*
X0078603Y0222780D01*
X0078603Y0224379D02*
X0415586Y0224379D01*
X0415586Y0225978D02*
X0078603Y0225978D01*
X0078603Y0227576D02*
X0415586Y0227576D01*
X0418817Y0206795D02*
X0397665Y0206795D01*
X0399263Y0205197D02*
X0420644Y0205197D01*
X0423458Y0203598D02*
X0413085Y0203598D01*
X0412377Y0204306D02*
X0408111Y0204306D01*
X0405094Y0201289D01*
X0405094Y0197023D01*
X0408111Y0194006D01*
X0412377Y0194006D01*
X0415394Y0197023D01*
X0415394Y0201289D01*
X0412377Y0204306D01*
X0414684Y0202000D02*
X0442145Y0202000D01*
X0442145Y0200401D02*
X0415394Y0200401D01*
X0415394Y0198803D02*
X0442145Y0198803D01*
X0442145Y0197204D02*
X0415394Y0197204D01*
X0413977Y0195606D02*
X0442145Y0195606D01*
X0442145Y0194007D02*
X0412378Y0194007D01*
X0408110Y0194007D02*
X0400794Y0194007D01*
X0400794Y0192409D02*
X0442145Y0192409D01*
X0442145Y0190810D02*
X0400794Y0190810D01*
X0400794Y0189212D02*
X0408016Y0189212D01*
X0408111Y0189306D02*
X0405094Y0186289D01*
X0405094Y0182023D01*
X0408111Y0179006D01*
X0412377Y0179006D01*
X0415394Y0182023D01*
X0415394Y0186289D01*
X0412377Y0189306D01*
X0408111Y0189306D01*
X0406418Y0187613D02*
X0400794Y0187613D01*
X0400895Y0186015D02*
X0405094Y0186015D01*
X0405094Y0184416D02*
X0402494Y0184416D01*
X0404092Y0182818D02*
X0405094Y0182818D01*
X0405691Y0181219D02*
X0405898Y0181219D01*
X0407289Y0179621D02*
X0407496Y0179621D01*
X0410952Y0178022D02*
X0416144Y0178022D01*
X0416144Y0176424D02*
X0412003Y0176424D01*
X0412194Y0174825D02*
X0416144Y0174825D01*
X0416144Y0173227D02*
X0411687Y0173227D01*
X0409686Y0171628D02*
X0416144Y0171628D01*
X0416144Y0179621D02*
X0412992Y0179621D01*
X0414590Y0181219D02*
X0416144Y0181219D01*
X0416144Y0182818D02*
X0415394Y0182818D01*
X0415394Y0184416D02*
X0416144Y0184416D01*
X0415394Y0186015D02*
X0442145Y0186015D01*
X0442145Y0187613D02*
X0414070Y0187613D01*
X0412472Y0189212D02*
X0442145Y0189212D01*
X0406511Y0195606D02*
X0400794Y0195606D01*
X0400794Y0197204D02*
X0405094Y0197204D01*
X0405094Y0198803D02*
X0400794Y0198803D01*
X0400794Y0200401D02*
X0405094Y0200401D01*
X0405805Y0202000D02*
X0400794Y0202000D01*
X0400572Y0203598D02*
X0407403Y0203598D01*
X0395194Y0200401D02*
X0395194Y0200401D01*
X0395194Y0198803D02*
X0395194Y0198803D01*
X0395194Y0197204D02*
X0395194Y0197204D01*
X0395194Y0195606D02*
X0393694Y0195606D01*
X0395194Y0194007D02*
X0372591Y0194007D01*
X0367898Y0194007D02*
X0362591Y0194007D01*
X0364189Y0195606D02*
X0366299Y0195606D01*
X0347196Y0187613D02*
X0322597Y0187613D01*
X0324195Y0186015D02*
X0345644Y0186015D01*
X0345644Y0184416D02*
X0325794Y0184416D01*
X0327392Y0182818D02*
X0345644Y0182818D01*
X0346676Y0181219D02*
X0328991Y0181219D01*
X0330589Y0179621D02*
X0348274Y0179621D01*
X0320998Y0189212D02*
X0395194Y0189212D01*
X0395194Y0190810D02*
X0319844Y0190810D01*
X0318497Y0192409D02*
X0395194Y0192409D01*
X0395194Y0187613D02*
X0393787Y0187613D01*
X0395194Y0186015D02*
X0395194Y0186015D01*
X0395194Y0184416D02*
X0395194Y0184416D01*
X0395194Y0182818D02*
X0396173Y0182818D01*
X0397771Y0181219D02*
X0394307Y0181219D01*
X0394401Y0202000D02*
X0394541Y0202000D01*
X0392942Y0203598D02*
X0392802Y0203598D01*
X0391344Y0205197D02*
X0273813Y0205197D01*
X0272215Y0206795D02*
X0389745Y0206795D01*
X0322405Y0163636D02*
X0317270Y0163636D01*
X0318869Y0162037D02*
X0324003Y0162037D01*
X0325602Y0160439D02*
X0319844Y0160439D01*
X0319844Y0158840D02*
X0327200Y0158840D01*
X0328799Y0157242D02*
X0319835Y0157242D01*
X0318236Y0155643D02*
X0330397Y0155643D01*
X0301880Y0186015D02*
X0292995Y0186015D01*
X0291397Y0187613D02*
X0300644Y0187613D01*
X0300644Y0189212D02*
X0289798Y0189212D01*
X0288200Y0190810D02*
X0300644Y0190810D01*
X0285076Y0186015D02*
X0264103Y0186015D01*
X0265194Y0187613D02*
X0283477Y0187613D01*
X0281879Y0189212D02*
X0265194Y0189212D01*
X0265194Y0190810D02*
X0280280Y0190810D01*
X0278682Y0192409D02*
X0263992Y0192409D01*
X0262393Y0194007D02*
X0277083Y0194007D01*
X0275485Y0195606D02*
X0249844Y0195606D01*
X0248701Y0197204D02*
X0273886Y0197204D01*
X0272288Y0198803D02*
X0248044Y0198803D01*
X0248044Y0200401D02*
X0270689Y0200401D01*
X0269091Y0202000D02*
X0248044Y0202000D01*
X0248044Y0203598D02*
X0267492Y0203598D01*
X0265894Y0205197D02*
X0257110Y0205197D01*
X0256923Y0205102D02*
X0257537Y0205414D01*
X0258094Y0205819D01*
X0258581Y0206306D01*
X0258986Y0206863D01*
X0259298Y0207477D01*
X0259511Y0208132D01*
X0259619Y0208812D01*
X0259619Y0209156D01*
X0255244Y0209156D01*
X0255244Y0209156D01*
X0255244Y0204781D01*
X0254900Y0204781D01*
X0254220Y0204889D01*
X0253565Y0205102D01*
X0252951Y0205414D01*
X0252394Y0205819D01*
X0251907Y0206306D01*
X0251502Y0206863D01*
X0251190Y0207477D01*
X0250977Y0208132D01*
X0250869Y0208812D01*
X0250869Y0209156D01*
X0255244Y0209156D01*
X0255244Y0209156D01*
X0255244Y0204781D01*
X0255588Y0204781D01*
X0256269Y0204889D01*
X0256923Y0205102D01*
X0255244Y0205197D02*
X0255244Y0205197D01*
X0255244Y0206795D02*
X0255244Y0206795D01*
X0255244Y0208394D02*
X0255244Y0208394D01*
X0255244Y0209156D02*
X0255244Y0209156D01*
X0250869Y0209156D01*
X0250869Y0209500D01*
X0250977Y0210181D01*
X0251190Y0210835D01*
X0251502Y0211449D01*
X0251907Y0212006D01*
X0252394Y0212493D01*
X0252951Y0212898D01*
X0253565Y0213210D01*
X0254220Y0213423D01*
X0254900Y0213531D01*
X0255244Y0213531D01*
X0255244Y0209156D01*
X0255244Y0209156D01*
X0259619Y0209156D01*
X0259619Y0209500D01*
X0259511Y0210181D01*
X0259298Y0210835D01*
X0258986Y0211449D01*
X0258581Y0212006D01*
X0258094Y0212493D01*
X0257537Y0212898D01*
X0256923Y0213210D01*
X0256269Y0213423D01*
X0255588Y0213531D01*
X0255244Y0213531D01*
X0255244Y0209156D01*
X0255244Y0209992D02*
X0255244Y0209992D01*
X0255244Y0211591D02*
X0255244Y0211591D01*
X0255244Y0213189D02*
X0255244Y0213189D01*
X0253524Y0213189D02*
X0247461Y0213189D01*
X0249187Y0211591D02*
X0251605Y0211591D01*
X0250947Y0209992D02*
X0249819Y0209992D01*
X0249819Y0208394D02*
X0250935Y0208394D01*
X0251552Y0206795D02*
X0249218Y0206795D01*
X0248044Y0205197D02*
X0253378Y0205197D01*
X0258936Y0206795D02*
X0264295Y0206795D01*
X0262697Y0208394D02*
X0259553Y0208394D01*
X0259541Y0209992D02*
X0261098Y0209992D01*
X0259500Y0211591D02*
X0258883Y0211591D01*
X0257901Y0213189D02*
X0256965Y0213189D01*
X0245244Y0209156D02*
X0245244Y0194156D01*
D21*
X0182194Y0173906D03*
X0218594Y0138156D03*
X0245894Y0136206D03*
X0251744Y0136206D03*
X0352494Y0071206D03*
X0390194Y0105656D03*
X0402544Y0105656D03*
X0399944Y0175206D03*
X0408394Y0175206D03*
X0377844Y0176506D03*
X0183494Y0059506D03*
X0116544Y0173256D03*
D22*
X0115244Y0166106D02*
X0127594Y0178456D01*
X0167894Y0178456D01*
X0180244Y0166106D01*
X0192594Y0178456D01*
X0241994Y0178456D01*
X0249794Y0170656D01*
X0245244Y0166106D01*
X0245244Y0164156D01*
X0249794Y0170656D02*
X0256944Y0177806D01*
X0284894Y0177806D01*
X0298544Y0164156D01*
X0296594Y0162206D01*
X0296594Y0075756D01*
X0361594Y0075756D01*
X0368094Y0069256D01*
X0370044Y0069256D01*
X0370244Y0069156D01*
X0296594Y0075756D02*
X0283594Y0075756D01*
X0282294Y0074456D01*
X0280344Y0074456D01*
X0280244Y0074156D01*
X0303094Y0159606D02*
X0305044Y0159606D01*
X0305244Y0159156D01*
X0303094Y0159606D02*
X0298544Y0164156D01*
X0180244Y0164156D02*
X0180244Y0166106D01*
X0115244Y0166106D02*
X0115244Y0164156D01*
M02*
