G75*
%MOIN*%
%OFA0B0*%
%FSLAX25Y25*%
%IPPOS*%
%LPD*%
%AMOC8*
5,1,8,0,0,1.08239X$1,22.5*
%
%ADD10C,0.01200*%
%ADD11C,0.00600*%
%ADD12C,0.00500*%
%ADD13C,0.00060*%
%ADD14C,0.00100*%
%ADD15C,0.00650*%
%ADD16C,0.00000*%
%ADD17C,0.00300*%
%ADD18C,0.00800*%
%ADD19C,0.00700*%
D10*
X0172566Y0046656D02*
X0172566Y0049156D01*
X0172566Y0051656D01*
X0175066Y0051656D02*
X0175066Y0049156D01*
X0175066Y0046656D01*
X0232666Y0056656D02*
X0232666Y0059156D01*
X0232666Y0061656D01*
X0235166Y0061656D02*
X0235166Y0059156D01*
X0235166Y0056656D01*
X0145166Y0116656D02*
X0145166Y0119156D01*
X0145166Y0121656D01*
X0142666Y0121656D02*
X0142666Y0119156D01*
X0142666Y0116656D01*
X0115166Y0116656D02*
X0115166Y0119156D01*
X0115166Y0121656D01*
X0112666Y0121656D02*
X0112666Y0119156D01*
X0112666Y0116656D01*
X0186366Y0157956D02*
X0188866Y0157956D01*
X0191366Y0157956D01*
X0191366Y0160456D02*
X0188866Y0160456D01*
X0186366Y0160456D01*
X0196366Y0160456D02*
X0198866Y0160456D01*
X0201366Y0160456D01*
X0201366Y0157956D02*
X0198866Y0157956D01*
X0196366Y0157956D01*
X0236366Y0157956D02*
X0238866Y0157956D01*
X0241366Y0157956D01*
X0241366Y0160456D02*
X0238866Y0160456D01*
X0236366Y0160456D01*
D11*
X0238866Y0160456D02*
X0238866Y0165156D01*
X0244116Y0165156D02*
X0244116Y0164156D01*
X0244616Y0163656D01*
X0244616Y0154656D01*
X0244116Y0154156D01*
X0244116Y0153156D01*
X0244118Y0153096D01*
X0244123Y0153035D01*
X0244132Y0152976D01*
X0244145Y0152917D01*
X0244161Y0152858D01*
X0244181Y0152801D01*
X0244204Y0152746D01*
X0244231Y0152691D01*
X0244260Y0152639D01*
X0244293Y0152588D01*
X0244329Y0152539D01*
X0244367Y0152493D01*
X0244409Y0152449D01*
X0244453Y0152407D01*
X0244499Y0152369D01*
X0244548Y0152333D01*
X0244599Y0152300D01*
X0244651Y0152271D01*
X0244706Y0152244D01*
X0244761Y0152221D01*
X0244818Y0152201D01*
X0244877Y0152185D01*
X0244936Y0152172D01*
X0244995Y0152163D01*
X0245056Y0152158D01*
X0245116Y0152156D01*
X0250116Y0152156D02*
X0250176Y0152158D01*
X0250237Y0152163D01*
X0250296Y0152172D01*
X0250355Y0152185D01*
X0250414Y0152201D01*
X0250471Y0152221D01*
X0250526Y0152244D01*
X0250581Y0152271D01*
X0250633Y0152300D01*
X0250684Y0152333D01*
X0250733Y0152369D01*
X0250779Y0152407D01*
X0250823Y0152449D01*
X0250865Y0152493D01*
X0250903Y0152539D01*
X0250939Y0152588D01*
X0250972Y0152639D01*
X0251001Y0152691D01*
X0251028Y0152746D01*
X0251051Y0152801D01*
X0251071Y0152858D01*
X0251087Y0152917D01*
X0251100Y0152976D01*
X0251109Y0153035D01*
X0251114Y0153096D01*
X0251116Y0153156D01*
X0251116Y0154156D01*
X0250616Y0154656D01*
X0250616Y0163656D01*
X0251116Y0164156D01*
X0251116Y0165156D01*
X0251114Y0165216D01*
X0251109Y0165277D01*
X0251100Y0165336D01*
X0251087Y0165395D01*
X0251071Y0165454D01*
X0251051Y0165511D01*
X0251028Y0165566D01*
X0251001Y0165621D01*
X0250972Y0165673D01*
X0250939Y0165724D01*
X0250903Y0165773D01*
X0250865Y0165819D01*
X0250823Y0165863D01*
X0250779Y0165905D01*
X0250733Y0165943D01*
X0250684Y0165979D01*
X0250633Y0166012D01*
X0250581Y0166041D01*
X0250526Y0166068D01*
X0250471Y0166091D01*
X0250414Y0166111D01*
X0250355Y0166127D01*
X0250296Y0166140D01*
X0250237Y0166149D01*
X0250176Y0166154D01*
X0250116Y0166156D01*
X0245116Y0166156D02*
X0245056Y0166154D01*
X0244995Y0166149D01*
X0244936Y0166140D01*
X0244877Y0166127D01*
X0244818Y0166111D01*
X0244761Y0166091D01*
X0244706Y0166068D01*
X0244651Y0166041D01*
X0244599Y0166012D01*
X0244548Y0165979D01*
X0244499Y0165943D01*
X0244453Y0165905D01*
X0244409Y0165863D01*
X0244367Y0165819D01*
X0244329Y0165773D01*
X0244293Y0165724D01*
X0244260Y0165673D01*
X0244231Y0165621D01*
X0244204Y0165566D01*
X0244181Y0165511D01*
X0244161Y0165454D01*
X0244145Y0165395D01*
X0244132Y0165336D01*
X0244123Y0165277D01*
X0244118Y0165216D01*
X0244116Y0165156D01*
X0238866Y0157956D02*
X0238866Y0153156D01*
X0233866Y0145656D02*
X0233868Y0145596D01*
X0233873Y0145535D01*
X0233882Y0145476D01*
X0233895Y0145417D01*
X0233911Y0145358D01*
X0233931Y0145301D01*
X0233954Y0145246D01*
X0233981Y0145191D01*
X0234010Y0145139D01*
X0234043Y0145088D01*
X0234079Y0145039D01*
X0234117Y0144993D01*
X0234159Y0144949D01*
X0234203Y0144907D01*
X0234249Y0144869D01*
X0234298Y0144833D01*
X0234349Y0144800D01*
X0234401Y0144771D01*
X0234456Y0144744D01*
X0234511Y0144721D01*
X0234568Y0144701D01*
X0234627Y0144685D01*
X0234686Y0144672D01*
X0234745Y0144663D01*
X0234806Y0144658D01*
X0234866Y0144656D01*
X0242866Y0144656D01*
X0242926Y0144658D01*
X0242987Y0144663D01*
X0243046Y0144672D01*
X0243105Y0144685D01*
X0243164Y0144701D01*
X0243221Y0144721D01*
X0243276Y0144744D01*
X0243331Y0144771D01*
X0243383Y0144800D01*
X0243434Y0144833D01*
X0243483Y0144869D01*
X0243529Y0144907D01*
X0243573Y0144949D01*
X0243615Y0144993D01*
X0243653Y0145039D01*
X0243689Y0145088D01*
X0243722Y0145139D01*
X0243751Y0145191D01*
X0243778Y0145246D01*
X0243801Y0145301D01*
X0243821Y0145358D01*
X0243837Y0145417D01*
X0243850Y0145476D01*
X0243859Y0145535D01*
X0243864Y0145596D01*
X0243866Y0145656D01*
X0243866Y0172656D01*
X0243864Y0172716D01*
X0243859Y0172777D01*
X0243850Y0172836D01*
X0243837Y0172895D01*
X0243821Y0172954D01*
X0243801Y0173011D01*
X0243778Y0173066D01*
X0243751Y0173121D01*
X0243722Y0173173D01*
X0243689Y0173224D01*
X0243653Y0173273D01*
X0243615Y0173319D01*
X0243573Y0173363D01*
X0243529Y0173405D01*
X0243483Y0173443D01*
X0243434Y0173479D01*
X0243383Y0173512D01*
X0243331Y0173541D01*
X0243276Y0173568D01*
X0243221Y0173591D01*
X0243164Y0173611D01*
X0243105Y0173627D01*
X0243046Y0173640D01*
X0242987Y0173649D01*
X0242926Y0173654D01*
X0242866Y0173656D01*
X0234866Y0173656D01*
X0234806Y0173654D01*
X0234745Y0173649D01*
X0234686Y0173640D01*
X0234627Y0173627D01*
X0234568Y0173611D01*
X0234511Y0173591D01*
X0234456Y0173568D01*
X0234401Y0173541D01*
X0234349Y0173512D01*
X0234298Y0173479D01*
X0234249Y0173443D01*
X0234203Y0173405D01*
X0234159Y0173363D01*
X0234117Y0173319D01*
X0234079Y0173273D01*
X0234043Y0173224D01*
X0234010Y0173173D01*
X0233981Y0173121D01*
X0233954Y0173066D01*
X0233931Y0173011D01*
X0233911Y0172954D01*
X0233895Y0172895D01*
X0233882Y0172836D01*
X0233873Y0172777D01*
X0233868Y0172716D01*
X0233866Y0172656D01*
X0233866Y0145656D01*
X0203866Y0145656D02*
X0203866Y0172656D01*
X0203864Y0172716D01*
X0203859Y0172777D01*
X0203850Y0172836D01*
X0203837Y0172895D01*
X0203821Y0172954D01*
X0203801Y0173011D01*
X0203778Y0173066D01*
X0203751Y0173121D01*
X0203722Y0173173D01*
X0203689Y0173224D01*
X0203653Y0173273D01*
X0203615Y0173319D01*
X0203573Y0173363D01*
X0203529Y0173405D01*
X0203483Y0173443D01*
X0203434Y0173479D01*
X0203383Y0173512D01*
X0203331Y0173541D01*
X0203276Y0173568D01*
X0203221Y0173591D01*
X0203164Y0173611D01*
X0203105Y0173627D01*
X0203046Y0173640D01*
X0202987Y0173649D01*
X0202926Y0173654D01*
X0202866Y0173656D01*
X0194866Y0173656D01*
X0194806Y0173654D01*
X0194745Y0173649D01*
X0194686Y0173640D01*
X0194627Y0173627D01*
X0194568Y0173611D01*
X0194511Y0173591D01*
X0194456Y0173568D01*
X0194401Y0173541D01*
X0194349Y0173512D01*
X0194298Y0173479D01*
X0194249Y0173443D01*
X0194203Y0173405D01*
X0194159Y0173363D01*
X0194117Y0173319D01*
X0194079Y0173273D01*
X0194043Y0173224D01*
X0194010Y0173173D01*
X0193981Y0173121D01*
X0193954Y0173066D01*
X0193931Y0173011D01*
X0193911Y0172954D01*
X0193895Y0172895D01*
X0193882Y0172836D01*
X0193873Y0172777D01*
X0193868Y0172716D01*
X0193866Y0172656D01*
X0193866Y0145656D01*
X0193866Y0172656D01*
X0193864Y0172716D01*
X0193859Y0172777D01*
X0193850Y0172836D01*
X0193837Y0172895D01*
X0193821Y0172954D01*
X0193801Y0173011D01*
X0193778Y0173066D01*
X0193751Y0173121D01*
X0193722Y0173173D01*
X0193689Y0173224D01*
X0193653Y0173273D01*
X0193615Y0173319D01*
X0193573Y0173363D01*
X0193529Y0173405D01*
X0193483Y0173443D01*
X0193434Y0173479D01*
X0193383Y0173512D01*
X0193331Y0173541D01*
X0193276Y0173568D01*
X0193221Y0173591D01*
X0193164Y0173611D01*
X0193105Y0173627D01*
X0193046Y0173640D01*
X0192987Y0173649D01*
X0192926Y0173654D01*
X0192866Y0173656D01*
X0184866Y0173656D01*
X0184806Y0173654D01*
X0184745Y0173649D01*
X0184686Y0173640D01*
X0184627Y0173627D01*
X0184568Y0173611D01*
X0184511Y0173591D01*
X0184456Y0173568D01*
X0184401Y0173541D01*
X0184349Y0173512D01*
X0184298Y0173479D01*
X0184249Y0173443D01*
X0184203Y0173405D01*
X0184159Y0173363D01*
X0184117Y0173319D01*
X0184079Y0173273D01*
X0184043Y0173224D01*
X0184010Y0173173D01*
X0183981Y0173121D01*
X0183954Y0173066D01*
X0183931Y0173011D01*
X0183911Y0172954D01*
X0183895Y0172895D01*
X0183882Y0172836D01*
X0183873Y0172777D01*
X0183868Y0172716D01*
X0183866Y0172656D01*
X0183866Y0145656D01*
X0183868Y0145596D01*
X0183873Y0145535D01*
X0183882Y0145476D01*
X0183895Y0145417D01*
X0183911Y0145358D01*
X0183931Y0145301D01*
X0183954Y0145246D01*
X0183981Y0145191D01*
X0184010Y0145139D01*
X0184043Y0145088D01*
X0184079Y0145039D01*
X0184117Y0144993D01*
X0184159Y0144949D01*
X0184203Y0144907D01*
X0184249Y0144869D01*
X0184298Y0144833D01*
X0184349Y0144800D01*
X0184401Y0144771D01*
X0184456Y0144744D01*
X0184511Y0144721D01*
X0184568Y0144701D01*
X0184627Y0144685D01*
X0184686Y0144672D01*
X0184745Y0144663D01*
X0184806Y0144658D01*
X0184866Y0144656D01*
X0192866Y0144656D01*
X0192926Y0144658D01*
X0192987Y0144663D01*
X0193046Y0144672D01*
X0193105Y0144685D01*
X0193164Y0144701D01*
X0193221Y0144721D01*
X0193276Y0144744D01*
X0193331Y0144771D01*
X0193383Y0144800D01*
X0193434Y0144833D01*
X0193483Y0144869D01*
X0193529Y0144907D01*
X0193573Y0144949D01*
X0193615Y0144993D01*
X0193653Y0145039D01*
X0193689Y0145088D01*
X0193722Y0145139D01*
X0193751Y0145191D01*
X0193778Y0145246D01*
X0193801Y0145301D01*
X0193821Y0145358D01*
X0193837Y0145417D01*
X0193850Y0145476D01*
X0193859Y0145535D01*
X0193864Y0145596D01*
X0193866Y0145656D01*
X0193868Y0145596D01*
X0193873Y0145535D01*
X0193882Y0145476D01*
X0193895Y0145417D01*
X0193911Y0145358D01*
X0193931Y0145301D01*
X0193954Y0145246D01*
X0193981Y0145191D01*
X0194010Y0145139D01*
X0194043Y0145088D01*
X0194079Y0145039D01*
X0194117Y0144993D01*
X0194159Y0144949D01*
X0194203Y0144907D01*
X0194249Y0144869D01*
X0194298Y0144833D01*
X0194349Y0144800D01*
X0194401Y0144771D01*
X0194456Y0144744D01*
X0194511Y0144721D01*
X0194568Y0144701D01*
X0194627Y0144685D01*
X0194686Y0144672D01*
X0194745Y0144663D01*
X0194806Y0144658D01*
X0194866Y0144656D01*
X0202866Y0144656D01*
X0202926Y0144658D01*
X0202987Y0144663D01*
X0203046Y0144672D01*
X0203105Y0144685D01*
X0203164Y0144701D01*
X0203221Y0144721D01*
X0203276Y0144744D01*
X0203331Y0144771D01*
X0203383Y0144800D01*
X0203434Y0144833D01*
X0203483Y0144869D01*
X0203529Y0144907D01*
X0203573Y0144949D01*
X0203615Y0144993D01*
X0203653Y0145039D01*
X0203689Y0145088D01*
X0203722Y0145139D01*
X0203751Y0145191D01*
X0203778Y0145246D01*
X0203801Y0145301D01*
X0203821Y0145358D01*
X0203837Y0145417D01*
X0203850Y0145476D01*
X0203859Y0145535D01*
X0203864Y0145596D01*
X0203866Y0145656D01*
X0198866Y0153156D02*
X0198866Y0157956D01*
X0198866Y0160456D02*
X0198866Y0165156D01*
X0188866Y0165156D02*
X0188866Y0160456D01*
X0188866Y0157956D02*
X0188866Y0153156D01*
X0165866Y0141156D02*
X0161866Y0141156D01*
X0160866Y0141156D02*
X0160868Y0141265D01*
X0160874Y0141374D01*
X0160884Y0141482D01*
X0160898Y0141590D01*
X0160915Y0141698D01*
X0160937Y0141805D01*
X0160962Y0141911D01*
X0160992Y0142015D01*
X0161025Y0142119D01*
X0161062Y0142222D01*
X0161102Y0142323D01*
X0161146Y0142422D01*
X0161194Y0142520D01*
X0161246Y0142617D01*
X0161300Y0142711D01*
X0161358Y0142803D01*
X0161420Y0142893D01*
X0161485Y0142980D01*
X0161552Y0143066D01*
X0161623Y0143149D01*
X0161697Y0143229D01*
X0161774Y0143306D01*
X0161853Y0143381D01*
X0161935Y0143452D01*
X0162020Y0143521D01*
X0162107Y0143586D01*
X0162196Y0143649D01*
X0162288Y0143707D01*
X0162382Y0143763D01*
X0162477Y0143815D01*
X0162575Y0143864D01*
X0162674Y0143909D01*
X0162775Y0143951D01*
X0162877Y0143988D01*
X0162980Y0144022D01*
X0163085Y0144053D01*
X0163191Y0144079D01*
X0163297Y0144102D01*
X0163405Y0144120D01*
X0163513Y0144135D01*
X0163621Y0144146D01*
X0163730Y0144153D01*
X0163839Y0144156D01*
X0163948Y0144155D01*
X0164057Y0144150D01*
X0164165Y0144141D01*
X0164273Y0144128D01*
X0164381Y0144111D01*
X0164488Y0144091D01*
X0164594Y0144066D01*
X0164699Y0144038D01*
X0164803Y0144006D01*
X0164906Y0143970D01*
X0165008Y0143930D01*
X0165108Y0143887D01*
X0165206Y0143840D01*
X0165303Y0143790D01*
X0165397Y0143736D01*
X0165490Y0143678D01*
X0165581Y0143618D01*
X0165669Y0143554D01*
X0165755Y0143487D01*
X0165838Y0143417D01*
X0165919Y0143344D01*
X0165997Y0143268D01*
X0166072Y0143189D01*
X0166145Y0143107D01*
X0166214Y0143023D01*
X0166280Y0142937D01*
X0166343Y0142848D01*
X0166403Y0142757D01*
X0166460Y0142664D01*
X0166513Y0142569D01*
X0166562Y0142472D01*
X0166608Y0142373D01*
X0166650Y0142273D01*
X0166689Y0142171D01*
X0166724Y0142067D01*
X0166755Y0141963D01*
X0166783Y0141858D01*
X0166806Y0141751D01*
X0166826Y0141644D01*
X0166842Y0141536D01*
X0166854Y0141428D01*
X0166862Y0141319D01*
X0166866Y0141210D01*
X0166866Y0141102D01*
X0166862Y0140993D01*
X0166854Y0140884D01*
X0166842Y0140776D01*
X0166826Y0140668D01*
X0166806Y0140561D01*
X0166783Y0140454D01*
X0166755Y0140349D01*
X0166724Y0140245D01*
X0166689Y0140141D01*
X0166650Y0140039D01*
X0166608Y0139939D01*
X0166562Y0139840D01*
X0166513Y0139743D01*
X0166460Y0139648D01*
X0166403Y0139555D01*
X0166343Y0139464D01*
X0166280Y0139375D01*
X0166214Y0139289D01*
X0166145Y0139205D01*
X0166072Y0139123D01*
X0165997Y0139044D01*
X0165919Y0138968D01*
X0165838Y0138895D01*
X0165755Y0138825D01*
X0165669Y0138758D01*
X0165581Y0138694D01*
X0165490Y0138634D01*
X0165397Y0138576D01*
X0165303Y0138522D01*
X0165206Y0138472D01*
X0165108Y0138425D01*
X0165008Y0138382D01*
X0164906Y0138342D01*
X0164803Y0138306D01*
X0164699Y0138274D01*
X0164594Y0138246D01*
X0164488Y0138221D01*
X0164381Y0138201D01*
X0164273Y0138184D01*
X0164165Y0138171D01*
X0164057Y0138162D01*
X0163948Y0138157D01*
X0163839Y0138156D01*
X0163730Y0138159D01*
X0163621Y0138166D01*
X0163513Y0138177D01*
X0163405Y0138192D01*
X0163297Y0138210D01*
X0163191Y0138233D01*
X0163085Y0138259D01*
X0162980Y0138290D01*
X0162877Y0138324D01*
X0162775Y0138361D01*
X0162674Y0138403D01*
X0162575Y0138448D01*
X0162477Y0138497D01*
X0162382Y0138549D01*
X0162288Y0138605D01*
X0162196Y0138663D01*
X0162107Y0138726D01*
X0162020Y0138791D01*
X0161935Y0138860D01*
X0161853Y0138931D01*
X0161774Y0139006D01*
X0161697Y0139083D01*
X0161623Y0139163D01*
X0161552Y0139246D01*
X0161485Y0139332D01*
X0161420Y0139419D01*
X0161358Y0139509D01*
X0161300Y0139601D01*
X0161246Y0139695D01*
X0161194Y0139792D01*
X0161146Y0139890D01*
X0161102Y0139989D01*
X0161062Y0140090D01*
X0161025Y0140193D01*
X0160992Y0140297D01*
X0160962Y0140401D01*
X0160937Y0140507D01*
X0160915Y0140614D01*
X0160898Y0140722D01*
X0160884Y0140830D01*
X0160874Y0140938D01*
X0160868Y0141047D01*
X0160866Y0141156D01*
X0163866Y0143156D02*
X0163866Y0139156D01*
X0157366Y0124156D02*
X0130366Y0124156D01*
X0130306Y0124154D01*
X0130245Y0124149D01*
X0130186Y0124140D01*
X0130127Y0124127D01*
X0130068Y0124111D01*
X0130011Y0124091D01*
X0129956Y0124068D01*
X0129901Y0124041D01*
X0129849Y0124012D01*
X0129798Y0123979D01*
X0129749Y0123943D01*
X0129703Y0123905D01*
X0129659Y0123863D01*
X0129617Y0123819D01*
X0129579Y0123773D01*
X0129543Y0123724D01*
X0129510Y0123673D01*
X0129481Y0123621D01*
X0129454Y0123566D01*
X0129431Y0123511D01*
X0129411Y0123454D01*
X0129395Y0123395D01*
X0129382Y0123336D01*
X0129373Y0123277D01*
X0129368Y0123216D01*
X0129366Y0123156D01*
X0129366Y0115156D01*
X0128366Y0115156D02*
X0128366Y0123156D01*
X0128364Y0123216D01*
X0128359Y0123277D01*
X0128350Y0123336D01*
X0128337Y0123395D01*
X0128321Y0123454D01*
X0128301Y0123511D01*
X0128278Y0123566D01*
X0128251Y0123621D01*
X0128222Y0123673D01*
X0128189Y0123724D01*
X0128153Y0123773D01*
X0128115Y0123819D01*
X0128073Y0123863D01*
X0128029Y0123905D01*
X0127983Y0123943D01*
X0127934Y0123979D01*
X0127883Y0124012D01*
X0127831Y0124041D01*
X0127776Y0124068D01*
X0127721Y0124091D01*
X0127664Y0124111D01*
X0127605Y0124127D01*
X0127546Y0124140D01*
X0127487Y0124149D01*
X0127426Y0124154D01*
X0127366Y0124156D01*
X0100366Y0124156D01*
X0100306Y0124154D01*
X0100245Y0124149D01*
X0100186Y0124140D01*
X0100127Y0124127D01*
X0100068Y0124111D01*
X0100011Y0124091D01*
X0099956Y0124068D01*
X0099901Y0124041D01*
X0099849Y0124012D01*
X0099798Y0123979D01*
X0099749Y0123943D01*
X0099703Y0123905D01*
X0099659Y0123863D01*
X0099617Y0123819D01*
X0099579Y0123773D01*
X0099543Y0123724D01*
X0099510Y0123673D01*
X0099481Y0123621D01*
X0099454Y0123566D01*
X0099431Y0123511D01*
X0099411Y0123454D01*
X0099395Y0123395D01*
X0099382Y0123336D01*
X0099373Y0123277D01*
X0099368Y0123216D01*
X0099366Y0123156D01*
X0099366Y0115156D01*
X0099368Y0115096D01*
X0099373Y0115035D01*
X0099382Y0114976D01*
X0099395Y0114917D01*
X0099411Y0114858D01*
X0099431Y0114801D01*
X0099454Y0114746D01*
X0099481Y0114691D01*
X0099510Y0114639D01*
X0099543Y0114588D01*
X0099579Y0114539D01*
X0099617Y0114493D01*
X0099659Y0114449D01*
X0099703Y0114407D01*
X0099749Y0114369D01*
X0099798Y0114333D01*
X0099849Y0114300D01*
X0099901Y0114271D01*
X0099956Y0114244D01*
X0100011Y0114221D01*
X0100068Y0114201D01*
X0100127Y0114185D01*
X0100186Y0114172D01*
X0100245Y0114163D01*
X0100306Y0114158D01*
X0100366Y0114156D01*
X0127366Y0114156D01*
X0100366Y0114156D01*
X0100306Y0114154D01*
X0100245Y0114149D01*
X0100186Y0114140D01*
X0100127Y0114127D01*
X0100068Y0114111D01*
X0100011Y0114091D01*
X0099956Y0114068D01*
X0099901Y0114041D01*
X0099849Y0114012D01*
X0099798Y0113979D01*
X0099749Y0113943D01*
X0099703Y0113905D01*
X0099659Y0113863D01*
X0099617Y0113819D01*
X0099579Y0113773D01*
X0099543Y0113724D01*
X0099510Y0113673D01*
X0099481Y0113621D01*
X0099454Y0113566D01*
X0099431Y0113511D01*
X0099411Y0113454D01*
X0099395Y0113395D01*
X0099382Y0113336D01*
X0099373Y0113277D01*
X0099368Y0113216D01*
X0099366Y0113156D01*
X0099366Y0105156D01*
X0099368Y0105096D01*
X0099373Y0105035D01*
X0099382Y0104976D01*
X0099395Y0104917D01*
X0099411Y0104858D01*
X0099431Y0104801D01*
X0099454Y0104746D01*
X0099481Y0104691D01*
X0099510Y0104639D01*
X0099543Y0104588D01*
X0099579Y0104539D01*
X0099617Y0104493D01*
X0099659Y0104449D01*
X0099703Y0104407D01*
X0099749Y0104369D01*
X0099798Y0104333D01*
X0099849Y0104300D01*
X0099901Y0104271D01*
X0099956Y0104244D01*
X0100011Y0104221D01*
X0100068Y0104201D01*
X0100127Y0104185D01*
X0100186Y0104172D01*
X0100245Y0104163D01*
X0100306Y0104158D01*
X0100366Y0104156D01*
X0113866Y0104156D01*
X0127366Y0104156D01*
X0100366Y0104156D01*
X0100306Y0104154D01*
X0100245Y0104149D01*
X0100186Y0104140D01*
X0100127Y0104127D01*
X0100068Y0104111D01*
X0100011Y0104091D01*
X0099956Y0104068D01*
X0099901Y0104041D01*
X0099849Y0104012D01*
X0099798Y0103979D01*
X0099749Y0103943D01*
X0099703Y0103905D01*
X0099659Y0103863D01*
X0099617Y0103819D01*
X0099579Y0103773D01*
X0099543Y0103724D01*
X0099510Y0103673D01*
X0099481Y0103621D01*
X0099454Y0103566D01*
X0099431Y0103511D01*
X0099411Y0103454D01*
X0099395Y0103395D01*
X0099382Y0103336D01*
X0099373Y0103277D01*
X0099368Y0103216D01*
X0099366Y0103156D01*
X0099366Y0095156D01*
X0099368Y0095096D01*
X0099373Y0095035D01*
X0099382Y0094976D01*
X0099395Y0094917D01*
X0099411Y0094858D01*
X0099431Y0094801D01*
X0099454Y0094746D01*
X0099481Y0094691D01*
X0099510Y0094639D01*
X0099543Y0094588D01*
X0099579Y0094539D01*
X0099617Y0094493D01*
X0099659Y0094449D01*
X0099703Y0094407D01*
X0099749Y0094369D01*
X0099798Y0094333D01*
X0099849Y0094300D01*
X0099901Y0094271D01*
X0099956Y0094244D01*
X0100011Y0094221D01*
X0100068Y0094201D01*
X0100127Y0094185D01*
X0100186Y0094172D01*
X0100245Y0094163D01*
X0100306Y0094158D01*
X0100366Y0094156D01*
X0127366Y0094156D01*
X0127426Y0094158D01*
X0127487Y0094163D01*
X0127546Y0094172D01*
X0127605Y0094185D01*
X0127664Y0094201D01*
X0127721Y0094221D01*
X0127776Y0094244D01*
X0127831Y0094271D01*
X0127883Y0094300D01*
X0127934Y0094333D01*
X0127983Y0094369D01*
X0128029Y0094407D01*
X0128073Y0094449D01*
X0128115Y0094493D01*
X0128153Y0094539D01*
X0128189Y0094588D01*
X0128222Y0094639D01*
X0128251Y0094691D01*
X0128278Y0094746D01*
X0128301Y0094801D01*
X0128321Y0094858D01*
X0128337Y0094917D01*
X0128350Y0094976D01*
X0128359Y0095035D01*
X0128364Y0095096D01*
X0128366Y0095156D01*
X0128366Y0103156D01*
X0128364Y0103216D01*
X0128359Y0103277D01*
X0128350Y0103336D01*
X0128337Y0103395D01*
X0128321Y0103454D01*
X0128301Y0103511D01*
X0128278Y0103566D01*
X0128251Y0103621D01*
X0128222Y0103673D01*
X0128189Y0103724D01*
X0128153Y0103773D01*
X0128115Y0103819D01*
X0128073Y0103863D01*
X0128029Y0103905D01*
X0127983Y0103943D01*
X0127934Y0103979D01*
X0127883Y0104012D01*
X0127831Y0104041D01*
X0127776Y0104068D01*
X0127721Y0104091D01*
X0127664Y0104111D01*
X0127605Y0104127D01*
X0127546Y0104140D01*
X0127487Y0104149D01*
X0127426Y0104154D01*
X0127366Y0104156D01*
X0127426Y0104158D01*
X0127487Y0104163D01*
X0127546Y0104172D01*
X0127605Y0104185D01*
X0127664Y0104201D01*
X0127721Y0104221D01*
X0127776Y0104244D01*
X0127831Y0104271D01*
X0127883Y0104300D01*
X0127934Y0104333D01*
X0127983Y0104369D01*
X0128029Y0104407D01*
X0128073Y0104449D01*
X0128115Y0104493D01*
X0128153Y0104539D01*
X0128189Y0104588D01*
X0128222Y0104639D01*
X0128251Y0104691D01*
X0128278Y0104746D01*
X0128301Y0104801D01*
X0128321Y0104858D01*
X0128337Y0104917D01*
X0128350Y0104976D01*
X0128359Y0105035D01*
X0128364Y0105096D01*
X0128366Y0105156D01*
X0128366Y0113156D01*
X0128364Y0113216D01*
X0128359Y0113277D01*
X0128350Y0113336D01*
X0128337Y0113395D01*
X0128321Y0113454D01*
X0128301Y0113511D01*
X0128278Y0113566D01*
X0128251Y0113621D01*
X0128222Y0113673D01*
X0128189Y0113724D01*
X0128153Y0113773D01*
X0128115Y0113819D01*
X0128073Y0113863D01*
X0128029Y0113905D01*
X0127983Y0113943D01*
X0127934Y0113979D01*
X0127883Y0114012D01*
X0127831Y0114041D01*
X0127776Y0114068D01*
X0127721Y0114091D01*
X0127664Y0114111D01*
X0127605Y0114127D01*
X0127546Y0114140D01*
X0127487Y0114149D01*
X0127426Y0114154D01*
X0127366Y0114156D01*
X0127426Y0114158D01*
X0127487Y0114163D01*
X0127546Y0114172D01*
X0127605Y0114185D01*
X0127664Y0114201D01*
X0127721Y0114221D01*
X0127776Y0114244D01*
X0127831Y0114271D01*
X0127883Y0114300D01*
X0127934Y0114333D01*
X0127983Y0114369D01*
X0128029Y0114407D01*
X0128073Y0114449D01*
X0128115Y0114493D01*
X0128153Y0114539D01*
X0128189Y0114588D01*
X0128222Y0114639D01*
X0128251Y0114691D01*
X0128278Y0114746D01*
X0128301Y0114801D01*
X0128321Y0114858D01*
X0128337Y0114917D01*
X0128350Y0114976D01*
X0128359Y0115035D01*
X0128364Y0115096D01*
X0128366Y0115156D01*
X0129366Y0115156D02*
X0129368Y0115096D01*
X0129373Y0115035D01*
X0129382Y0114976D01*
X0129395Y0114917D01*
X0129411Y0114858D01*
X0129431Y0114801D01*
X0129454Y0114746D01*
X0129481Y0114691D01*
X0129510Y0114639D01*
X0129543Y0114588D01*
X0129579Y0114539D01*
X0129617Y0114493D01*
X0129659Y0114449D01*
X0129703Y0114407D01*
X0129749Y0114369D01*
X0129798Y0114333D01*
X0129849Y0114300D01*
X0129901Y0114271D01*
X0129956Y0114244D01*
X0130011Y0114221D01*
X0130068Y0114201D01*
X0130127Y0114185D01*
X0130186Y0114172D01*
X0130245Y0114163D01*
X0130306Y0114158D01*
X0130366Y0114156D01*
X0157366Y0114156D01*
X0157426Y0114158D01*
X0157487Y0114163D01*
X0157546Y0114172D01*
X0157605Y0114185D01*
X0157664Y0114201D01*
X0157721Y0114221D01*
X0157776Y0114244D01*
X0157831Y0114271D01*
X0157883Y0114300D01*
X0157934Y0114333D01*
X0157983Y0114369D01*
X0158029Y0114407D01*
X0158073Y0114449D01*
X0158115Y0114493D01*
X0158153Y0114539D01*
X0158189Y0114588D01*
X0158222Y0114639D01*
X0158251Y0114691D01*
X0158278Y0114746D01*
X0158301Y0114801D01*
X0158321Y0114858D01*
X0158337Y0114917D01*
X0158350Y0114976D01*
X0158359Y0115035D01*
X0158364Y0115096D01*
X0158366Y0115156D01*
X0158366Y0123156D01*
X0158364Y0123216D01*
X0158359Y0123277D01*
X0158350Y0123336D01*
X0158337Y0123395D01*
X0158321Y0123454D01*
X0158301Y0123511D01*
X0158278Y0123566D01*
X0158251Y0123621D01*
X0158222Y0123673D01*
X0158189Y0123724D01*
X0158153Y0123773D01*
X0158115Y0123819D01*
X0158073Y0123863D01*
X0158029Y0123905D01*
X0157983Y0123943D01*
X0157934Y0123979D01*
X0157883Y0124012D01*
X0157831Y0124041D01*
X0157776Y0124068D01*
X0157721Y0124091D01*
X0157664Y0124111D01*
X0157605Y0124127D01*
X0157546Y0124140D01*
X0157487Y0124149D01*
X0157426Y0124154D01*
X0157366Y0124156D01*
X0149866Y0119156D02*
X0145166Y0119156D01*
X0142666Y0119156D02*
X0137866Y0119156D01*
X0137866Y0112656D02*
X0138866Y0112656D01*
X0139366Y0112156D01*
X0148366Y0112156D01*
X0148866Y0112656D01*
X0149866Y0112656D01*
X0149926Y0112654D01*
X0149987Y0112649D01*
X0150046Y0112640D01*
X0150105Y0112627D01*
X0150164Y0112611D01*
X0150221Y0112591D01*
X0150276Y0112568D01*
X0150331Y0112541D01*
X0150383Y0112512D01*
X0150434Y0112479D01*
X0150483Y0112443D01*
X0150529Y0112405D01*
X0150573Y0112363D01*
X0150615Y0112319D01*
X0150653Y0112273D01*
X0150689Y0112224D01*
X0150722Y0112173D01*
X0150751Y0112121D01*
X0150778Y0112066D01*
X0150801Y0112011D01*
X0150821Y0111954D01*
X0150837Y0111895D01*
X0150850Y0111836D01*
X0150859Y0111777D01*
X0150864Y0111716D01*
X0150866Y0111656D01*
X0150866Y0106656D02*
X0150864Y0106596D01*
X0150859Y0106535D01*
X0150850Y0106476D01*
X0150837Y0106417D01*
X0150821Y0106358D01*
X0150801Y0106301D01*
X0150778Y0106246D01*
X0150751Y0106191D01*
X0150722Y0106139D01*
X0150689Y0106088D01*
X0150653Y0106039D01*
X0150615Y0105993D01*
X0150573Y0105949D01*
X0150529Y0105907D01*
X0150483Y0105869D01*
X0150434Y0105833D01*
X0150383Y0105800D01*
X0150331Y0105771D01*
X0150276Y0105744D01*
X0150221Y0105721D01*
X0150164Y0105701D01*
X0150105Y0105685D01*
X0150046Y0105672D01*
X0149987Y0105663D01*
X0149926Y0105658D01*
X0149866Y0105656D01*
X0148866Y0105656D01*
X0148366Y0106156D01*
X0139366Y0106156D01*
X0138866Y0105656D01*
X0137866Y0105656D01*
X0137806Y0105658D01*
X0137745Y0105663D01*
X0137686Y0105672D01*
X0137627Y0105685D01*
X0137568Y0105701D01*
X0137511Y0105721D01*
X0137456Y0105744D01*
X0137401Y0105771D01*
X0137349Y0105800D01*
X0137298Y0105833D01*
X0137249Y0105869D01*
X0137203Y0105907D01*
X0137159Y0105949D01*
X0137117Y0105993D01*
X0137079Y0106039D01*
X0137043Y0106088D01*
X0137010Y0106139D01*
X0136981Y0106191D01*
X0136954Y0106246D01*
X0136931Y0106301D01*
X0136911Y0106358D01*
X0136895Y0106417D01*
X0136882Y0106476D01*
X0136873Y0106535D01*
X0136868Y0106596D01*
X0136866Y0106656D01*
X0137866Y0102656D02*
X0138866Y0102656D01*
X0139366Y0102156D01*
X0148366Y0102156D01*
X0148866Y0102656D01*
X0149866Y0102656D01*
X0149926Y0102654D01*
X0149987Y0102649D01*
X0150046Y0102640D01*
X0150105Y0102627D01*
X0150164Y0102611D01*
X0150221Y0102591D01*
X0150276Y0102568D01*
X0150331Y0102541D01*
X0150383Y0102512D01*
X0150434Y0102479D01*
X0150483Y0102443D01*
X0150529Y0102405D01*
X0150573Y0102363D01*
X0150615Y0102319D01*
X0150653Y0102273D01*
X0150689Y0102224D01*
X0150722Y0102173D01*
X0150751Y0102121D01*
X0150778Y0102066D01*
X0150801Y0102011D01*
X0150821Y0101954D01*
X0150837Y0101895D01*
X0150850Y0101836D01*
X0150859Y0101777D01*
X0150864Y0101716D01*
X0150866Y0101656D01*
X0150866Y0096656D02*
X0150864Y0096596D01*
X0150859Y0096535D01*
X0150850Y0096476D01*
X0150837Y0096417D01*
X0150821Y0096358D01*
X0150801Y0096301D01*
X0150778Y0096246D01*
X0150751Y0096191D01*
X0150722Y0096139D01*
X0150689Y0096088D01*
X0150653Y0096039D01*
X0150615Y0095993D01*
X0150573Y0095949D01*
X0150529Y0095907D01*
X0150483Y0095869D01*
X0150434Y0095833D01*
X0150383Y0095800D01*
X0150331Y0095771D01*
X0150276Y0095744D01*
X0150221Y0095721D01*
X0150164Y0095701D01*
X0150105Y0095685D01*
X0150046Y0095672D01*
X0149987Y0095663D01*
X0149926Y0095658D01*
X0149866Y0095656D01*
X0148866Y0095656D01*
X0148366Y0096156D01*
X0139366Y0096156D01*
X0138866Y0095656D01*
X0137866Y0095656D01*
X0137806Y0095658D01*
X0137745Y0095663D01*
X0137686Y0095672D01*
X0137627Y0095685D01*
X0137568Y0095701D01*
X0137511Y0095721D01*
X0137456Y0095744D01*
X0137401Y0095771D01*
X0137349Y0095800D01*
X0137298Y0095833D01*
X0137249Y0095869D01*
X0137203Y0095907D01*
X0137159Y0095949D01*
X0137117Y0095993D01*
X0137079Y0096039D01*
X0137043Y0096088D01*
X0137010Y0096139D01*
X0136981Y0096191D01*
X0136954Y0096246D01*
X0136931Y0096301D01*
X0136911Y0096358D01*
X0136895Y0096417D01*
X0136882Y0096476D01*
X0136873Y0096535D01*
X0136868Y0096596D01*
X0136866Y0096656D01*
X0137866Y0092656D02*
X0138866Y0092656D01*
X0139366Y0092156D01*
X0148366Y0092156D01*
X0148866Y0092656D01*
X0149866Y0092656D01*
X0149926Y0092654D01*
X0149987Y0092649D01*
X0150046Y0092640D01*
X0150105Y0092627D01*
X0150164Y0092611D01*
X0150221Y0092591D01*
X0150276Y0092568D01*
X0150331Y0092541D01*
X0150383Y0092512D01*
X0150434Y0092479D01*
X0150483Y0092443D01*
X0150529Y0092405D01*
X0150573Y0092363D01*
X0150615Y0092319D01*
X0150653Y0092273D01*
X0150689Y0092224D01*
X0150722Y0092173D01*
X0150751Y0092121D01*
X0150778Y0092066D01*
X0150801Y0092011D01*
X0150821Y0091954D01*
X0150837Y0091895D01*
X0150850Y0091836D01*
X0150859Y0091777D01*
X0150864Y0091716D01*
X0150866Y0091656D01*
X0150866Y0086656D02*
X0150864Y0086596D01*
X0150859Y0086535D01*
X0150850Y0086476D01*
X0150837Y0086417D01*
X0150821Y0086358D01*
X0150801Y0086301D01*
X0150778Y0086246D01*
X0150751Y0086191D01*
X0150722Y0086139D01*
X0150689Y0086088D01*
X0150653Y0086039D01*
X0150615Y0085993D01*
X0150573Y0085949D01*
X0150529Y0085907D01*
X0150483Y0085869D01*
X0150434Y0085833D01*
X0150383Y0085800D01*
X0150331Y0085771D01*
X0150276Y0085744D01*
X0150221Y0085721D01*
X0150164Y0085701D01*
X0150105Y0085685D01*
X0150046Y0085672D01*
X0149987Y0085663D01*
X0149926Y0085658D01*
X0149866Y0085656D01*
X0148866Y0085656D01*
X0148366Y0086156D01*
X0139366Y0086156D01*
X0138866Y0085656D01*
X0137866Y0085656D01*
X0137806Y0085658D01*
X0137745Y0085663D01*
X0137686Y0085672D01*
X0137627Y0085685D01*
X0137568Y0085701D01*
X0137511Y0085721D01*
X0137456Y0085744D01*
X0137401Y0085771D01*
X0137349Y0085800D01*
X0137298Y0085833D01*
X0137249Y0085869D01*
X0137203Y0085907D01*
X0137159Y0085949D01*
X0137117Y0085993D01*
X0137079Y0086039D01*
X0137043Y0086088D01*
X0137010Y0086139D01*
X0136981Y0086191D01*
X0136954Y0086246D01*
X0136931Y0086301D01*
X0136911Y0086358D01*
X0136895Y0086417D01*
X0136882Y0086476D01*
X0136873Y0086535D01*
X0136868Y0086596D01*
X0136866Y0086656D01*
X0136866Y0091656D02*
X0136868Y0091716D01*
X0136873Y0091777D01*
X0136882Y0091836D01*
X0136895Y0091895D01*
X0136911Y0091954D01*
X0136931Y0092011D01*
X0136954Y0092066D01*
X0136981Y0092121D01*
X0137010Y0092173D01*
X0137043Y0092224D01*
X0137079Y0092273D01*
X0137117Y0092319D01*
X0137159Y0092363D01*
X0137203Y0092405D01*
X0137249Y0092443D01*
X0137298Y0092479D01*
X0137349Y0092512D01*
X0137401Y0092541D01*
X0137456Y0092568D01*
X0137511Y0092591D01*
X0137568Y0092611D01*
X0137627Y0092627D01*
X0137686Y0092640D01*
X0137745Y0092649D01*
X0137806Y0092654D01*
X0137866Y0092656D01*
X0136866Y0101656D02*
X0136868Y0101716D01*
X0136873Y0101777D01*
X0136882Y0101836D01*
X0136895Y0101895D01*
X0136911Y0101954D01*
X0136931Y0102011D01*
X0136954Y0102066D01*
X0136981Y0102121D01*
X0137010Y0102173D01*
X0137043Y0102224D01*
X0137079Y0102273D01*
X0137117Y0102319D01*
X0137159Y0102363D01*
X0137203Y0102405D01*
X0137249Y0102443D01*
X0137298Y0102479D01*
X0137349Y0102512D01*
X0137401Y0102541D01*
X0137456Y0102568D01*
X0137511Y0102591D01*
X0137568Y0102611D01*
X0137627Y0102627D01*
X0137686Y0102640D01*
X0137745Y0102649D01*
X0137806Y0102654D01*
X0137866Y0102656D01*
X0136866Y0111656D02*
X0136868Y0111716D01*
X0136873Y0111777D01*
X0136882Y0111836D01*
X0136895Y0111895D01*
X0136911Y0111954D01*
X0136931Y0112011D01*
X0136954Y0112066D01*
X0136981Y0112121D01*
X0137010Y0112173D01*
X0137043Y0112224D01*
X0137079Y0112273D01*
X0137117Y0112319D01*
X0137159Y0112363D01*
X0137203Y0112405D01*
X0137249Y0112443D01*
X0137298Y0112479D01*
X0137349Y0112512D01*
X0137401Y0112541D01*
X0137456Y0112568D01*
X0137511Y0112591D01*
X0137568Y0112611D01*
X0137627Y0112627D01*
X0137686Y0112640D01*
X0137745Y0112649D01*
X0137806Y0112654D01*
X0137866Y0112656D01*
X0119866Y0109156D02*
X0115166Y0109156D01*
X0112666Y0109156D02*
X0111366Y0109156D01*
X0107866Y0109156D01*
X0107866Y0119156D02*
X0112666Y0119156D01*
X0115166Y0119156D02*
X0119866Y0119156D01*
X0112866Y0124656D02*
X0104866Y0124656D01*
X0104806Y0124658D01*
X0104745Y0124663D01*
X0104686Y0124672D01*
X0104627Y0124685D01*
X0104568Y0124701D01*
X0104511Y0124721D01*
X0104456Y0124744D01*
X0104401Y0124771D01*
X0104349Y0124800D01*
X0104298Y0124833D01*
X0104249Y0124869D01*
X0104203Y0124907D01*
X0104159Y0124949D01*
X0104117Y0124993D01*
X0104079Y0125039D01*
X0104043Y0125088D01*
X0104010Y0125139D01*
X0103981Y0125191D01*
X0103954Y0125246D01*
X0103931Y0125301D01*
X0103911Y0125358D01*
X0103895Y0125417D01*
X0103882Y0125476D01*
X0103873Y0125535D01*
X0103868Y0125596D01*
X0103866Y0125656D01*
X0103866Y0139156D01*
X0103866Y0152656D01*
X0103868Y0152716D01*
X0103873Y0152777D01*
X0103882Y0152836D01*
X0103895Y0152895D01*
X0103911Y0152954D01*
X0103931Y0153011D01*
X0103954Y0153066D01*
X0103981Y0153121D01*
X0104010Y0153173D01*
X0104043Y0153224D01*
X0104079Y0153273D01*
X0104117Y0153319D01*
X0104159Y0153363D01*
X0104203Y0153405D01*
X0104249Y0153443D01*
X0104298Y0153479D01*
X0104349Y0153512D01*
X0104401Y0153541D01*
X0104456Y0153568D01*
X0104511Y0153591D01*
X0104568Y0153611D01*
X0104627Y0153627D01*
X0104686Y0153640D01*
X0104745Y0153649D01*
X0104806Y0153654D01*
X0104866Y0153656D01*
X0112866Y0153656D01*
X0112926Y0153654D01*
X0112987Y0153649D01*
X0113046Y0153640D01*
X0113105Y0153627D01*
X0113164Y0153611D01*
X0113221Y0153591D01*
X0113276Y0153568D01*
X0113331Y0153541D01*
X0113383Y0153512D01*
X0113434Y0153479D01*
X0113483Y0153443D01*
X0113529Y0153405D01*
X0113573Y0153363D01*
X0113615Y0153319D01*
X0113653Y0153273D01*
X0113689Y0153224D01*
X0113722Y0153173D01*
X0113751Y0153121D01*
X0113778Y0153066D01*
X0113801Y0153011D01*
X0113821Y0152954D01*
X0113837Y0152895D01*
X0113850Y0152836D01*
X0113859Y0152777D01*
X0113864Y0152716D01*
X0113866Y0152656D01*
X0113866Y0125656D01*
X0113864Y0125596D01*
X0113859Y0125535D01*
X0113850Y0125476D01*
X0113837Y0125417D01*
X0113821Y0125358D01*
X0113801Y0125301D01*
X0113778Y0125246D01*
X0113751Y0125191D01*
X0113722Y0125139D01*
X0113689Y0125088D01*
X0113653Y0125039D01*
X0113615Y0124993D01*
X0113573Y0124949D01*
X0113529Y0124907D01*
X0113483Y0124869D01*
X0113434Y0124833D01*
X0113383Y0124800D01*
X0113331Y0124771D01*
X0113276Y0124744D01*
X0113221Y0124721D01*
X0113164Y0124701D01*
X0113105Y0124685D01*
X0113046Y0124672D01*
X0112987Y0124663D01*
X0112926Y0124658D01*
X0112866Y0124656D01*
X0108866Y0133156D02*
X0108866Y0137856D01*
X0108866Y0140356D02*
X0108866Y0141656D01*
X0108866Y0145156D01*
X0102366Y0145156D02*
X0102366Y0144156D01*
X0101866Y0143656D01*
X0101866Y0134656D01*
X0102366Y0134156D01*
X0102366Y0133156D01*
X0102364Y0133096D01*
X0102359Y0133035D01*
X0102350Y0132976D01*
X0102337Y0132917D01*
X0102321Y0132858D01*
X0102301Y0132801D01*
X0102278Y0132746D01*
X0102251Y0132691D01*
X0102222Y0132639D01*
X0102189Y0132588D01*
X0102153Y0132539D01*
X0102115Y0132493D01*
X0102073Y0132449D01*
X0102029Y0132407D01*
X0101983Y0132369D01*
X0101934Y0132333D01*
X0101883Y0132300D01*
X0101831Y0132271D01*
X0101776Y0132244D01*
X0101721Y0132221D01*
X0101664Y0132201D01*
X0101605Y0132185D01*
X0101546Y0132172D01*
X0101487Y0132163D01*
X0101426Y0132158D01*
X0101366Y0132156D01*
X0096366Y0132156D02*
X0096306Y0132158D01*
X0096245Y0132163D01*
X0096186Y0132172D01*
X0096127Y0132185D01*
X0096068Y0132201D01*
X0096011Y0132221D01*
X0095956Y0132244D01*
X0095901Y0132271D01*
X0095849Y0132300D01*
X0095798Y0132333D01*
X0095749Y0132369D01*
X0095703Y0132407D01*
X0095659Y0132449D01*
X0095617Y0132493D01*
X0095579Y0132539D01*
X0095543Y0132588D01*
X0095510Y0132639D01*
X0095481Y0132691D01*
X0095454Y0132746D01*
X0095431Y0132801D01*
X0095411Y0132858D01*
X0095395Y0132917D01*
X0095382Y0132976D01*
X0095373Y0133035D01*
X0095368Y0133096D01*
X0095366Y0133156D01*
X0095366Y0134156D01*
X0095866Y0134656D01*
X0095866Y0143656D01*
X0095366Y0144156D01*
X0095366Y0145156D01*
X0095368Y0145216D01*
X0095373Y0145277D01*
X0095382Y0145336D01*
X0095395Y0145395D01*
X0095411Y0145454D01*
X0095431Y0145511D01*
X0095454Y0145566D01*
X0095481Y0145621D01*
X0095510Y0145673D01*
X0095543Y0145724D01*
X0095579Y0145773D01*
X0095617Y0145819D01*
X0095659Y0145863D01*
X0095703Y0145905D01*
X0095749Y0145943D01*
X0095798Y0145979D01*
X0095849Y0146012D01*
X0095901Y0146041D01*
X0095956Y0146068D01*
X0096011Y0146091D01*
X0096068Y0146111D01*
X0096127Y0146127D01*
X0096186Y0146140D01*
X0096245Y0146149D01*
X0096306Y0146154D01*
X0096366Y0146156D01*
X0101366Y0146156D02*
X0101426Y0146154D01*
X0101487Y0146149D01*
X0101546Y0146140D01*
X0101605Y0146127D01*
X0101664Y0146111D01*
X0101721Y0146091D01*
X0101776Y0146068D01*
X0101831Y0146041D01*
X0101883Y0146012D01*
X0101934Y0145979D01*
X0101983Y0145943D01*
X0102029Y0145905D01*
X0102073Y0145863D01*
X0102115Y0145819D01*
X0102153Y0145773D01*
X0102189Y0145724D01*
X0102222Y0145673D01*
X0102251Y0145621D01*
X0102278Y0145566D01*
X0102301Y0145511D01*
X0102321Y0145454D01*
X0102337Y0145395D01*
X0102350Y0145336D01*
X0102359Y0145277D01*
X0102364Y0145216D01*
X0102366Y0145156D01*
X0088866Y0152656D02*
X0088866Y0125656D01*
X0088864Y0125596D01*
X0088859Y0125535D01*
X0088850Y0125476D01*
X0088837Y0125417D01*
X0088821Y0125358D01*
X0088801Y0125301D01*
X0088778Y0125246D01*
X0088751Y0125191D01*
X0088722Y0125139D01*
X0088689Y0125088D01*
X0088653Y0125039D01*
X0088615Y0124993D01*
X0088573Y0124949D01*
X0088529Y0124907D01*
X0088483Y0124869D01*
X0088434Y0124833D01*
X0088383Y0124800D01*
X0088331Y0124771D01*
X0088276Y0124744D01*
X0088221Y0124721D01*
X0088164Y0124701D01*
X0088105Y0124685D01*
X0088046Y0124672D01*
X0087987Y0124663D01*
X0087926Y0124658D01*
X0087866Y0124656D01*
X0079866Y0124656D01*
X0079806Y0124658D01*
X0079745Y0124663D01*
X0079686Y0124672D01*
X0079627Y0124685D01*
X0079568Y0124701D01*
X0079511Y0124721D01*
X0079456Y0124744D01*
X0079401Y0124771D01*
X0079349Y0124800D01*
X0079298Y0124833D01*
X0079249Y0124869D01*
X0079203Y0124907D01*
X0079159Y0124949D01*
X0079117Y0124993D01*
X0079079Y0125039D01*
X0079043Y0125088D01*
X0079010Y0125139D01*
X0078981Y0125191D01*
X0078954Y0125246D01*
X0078931Y0125301D01*
X0078911Y0125358D01*
X0078895Y0125417D01*
X0078882Y0125476D01*
X0078873Y0125535D01*
X0078868Y0125596D01*
X0078866Y0125656D01*
X0078866Y0152656D01*
X0078868Y0152716D01*
X0078873Y0152777D01*
X0078882Y0152836D01*
X0078895Y0152895D01*
X0078911Y0152954D01*
X0078931Y0153011D01*
X0078954Y0153066D01*
X0078981Y0153121D01*
X0079010Y0153173D01*
X0079043Y0153224D01*
X0079079Y0153273D01*
X0079117Y0153319D01*
X0079159Y0153363D01*
X0079203Y0153405D01*
X0079249Y0153443D01*
X0079298Y0153479D01*
X0079349Y0153512D01*
X0079401Y0153541D01*
X0079456Y0153568D01*
X0079511Y0153591D01*
X0079568Y0153611D01*
X0079627Y0153627D01*
X0079686Y0153640D01*
X0079745Y0153649D01*
X0079806Y0153654D01*
X0079866Y0153656D01*
X0087866Y0153656D01*
X0087926Y0153654D01*
X0087987Y0153649D01*
X0088046Y0153640D01*
X0088105Y0153627D01*
X0088164Y0153611D01*
X0088221Y0153591D01*
X0088276Y0153568D01*
X0088331Y0153541D01*
X0088383Y0153512D01*
X0088434Y0153479D01*
X0088483Y0153443D01*
X0088529Y0153405D01*
X0088573Y0153363D01*
X0088615Y0153319D01*
X0088653Y0153273D01*
X0088689Y0153224D01*
X0088722Y0153173D01*
X0088751Y0153121D01*
X0088778Y0153066D01*
X0088801Y0153011D01*
X0088821Y0152954D01*
X0088837Y0152895D01*
X0088850Y0152836D01*
X0088859Y0152777D01*
X0088864Y0152716D01*
X0088866Y0152656D01*
X0128275Y0154156D02*
X0128283Y0154784D01*
X0128306Y0155412D01*
X0128344Y0156039D01*
X0128398Y0156664D01*
X0128467Y0157289D01*
X0128552Y0157911D01*
X0128652Y0158531D01*
X0128767Y0159149D01*
X0128897Y0159763D01*
X0129042Y0160374D01*
X0129202Y0160981D01*
X0129377Y0161585D01*
X0129567Y0162183D01*
X0129771Y0162777D01*
X0129990Y0163366D01*
X0130223Y0163949D01*
X0130470Y0164527D01*
X0130732Y0165098D01*
X0131007Y0165662D01*
X0131297Y0166220D01*
X0131600Y0166770D01*
X0131916Y0167312D01*
X0132245Y0167847D01*
X0132588Y0168374D01*
X0132943Y0168892D01*
X0133311Y0169401D01*
X0133691Y0169900D01*
X0134084Y0170391D01*
X0134488Y0170871D01*
X0134904Y0171342D01*
X0135332Y0171802D01*
X0135770Y0172252D01*
X0136220Y0172690D01*
X0136680Y0173118D01*
X0137151Y0173534D01*
X0137631Y0173938D01*
X0138122Y0174331D01*
X0138621Y0174711D01*
X0139130Y0175079D01*
X0139648Y0175434D01*
X0140175Y0175777D01*
X0140710Y0176106D01*
X0141252Y0176422D01*
X0141802Y0176725D01*
X0142360Y0177015D01*
X0142924Y0177290D01*
X0143495Y0177552D01*
X0144073Y0177799D01*
X0144656Y0178032D01*
X0145245Y0178251D01*
X0145839Y0178455D01*
X0146437Y0178645D01*
X0147041Y0178820D01*
X0147648Y0178980D01*
X0148259Y0179125D01*
X0148873Y0179255D01*
X0149491Y0179370D01*
X0150111Y0179470D01*
X0150733Y0179555D01*
X0151358Y0179624D01*
X0151983Y0179678D01*
X0152610Y0179716D01*
X0153238Y0179739D01*
X0153866Y0179747D01*
X0154494Y0179739D01*
X0155122Y0179716D01*
X0155749Y0179678D01*
X0156374Y0179624D01*
X0156999Y0179555D01*
X0157621Y0179470D01*
X0158241Y0179370D01*
X0158859Y0179255D01*
X0159473Y0179125D01*
X0160084Y0178980D01*
X0160691Y0178820D01*
X0161295Y0178645D01*
X0161893Y0178455D01*
X0162487Y0178251D01*
X0163076Y0178032D01*
X0163659Y0177799D01*
X0164237Y0177552D01*
X0164808Y0177290D01*
X0165372Y0177015D01*
X0165930Y0176725D01*
X0166480Y0176422D01*
X0167022Y0176106D01*
X0167557Y0175777D01*
X0168084Y0175434D01*
X0168602Y0175079D01*
X0169111Y0174711D01*
X0169610Y0174331D01*
X0170101Y0173938D01*
X0170581Y0173534D01*
X0171052Y0173118D01*
X0171512Y0172690D01*
X0171962Y0172252D01*
X0172400Y0171802D01*
X0172828Y0171342D01*
X0173244Y0170871D01*
X0173648Y0170391D01*
X0174041Y0169900D01*
X0174421Y0169401D01*
X0174789Y0168892D01*
X0175144Y0168374D01*
X0175487Y0167847D01*
X0175816Y0167312D01*
X0176132Y0166770D01*
X0176435Y0166220D01*
X0176725Y0165662D01*
X0177000Y0165098D01*
X0177262Y0164527D01*
X0177509Y0163949D01*
X0177742Y0163366D01*
X0177961Y0162777D01*
X0178165Y0162183D01*
X0178355Y0161585D01*
X0178530Y0160981D01*
X0178690Y0160374D01*
X0178835Y0159763D01*
X0178965Y0159149D01*
X0179080Y0158531D01*
X0179180Y0157911D01*
X0179265Y0157289D01*
X0179334Y0156664D01*
X0179388Y0156039D01*
X0179426Y0155412D01*
X0179449Y0154784D01*
X0179457Y0154156D01*
X0179449Y0153528D01*
X0179426Y0152900D01*
X0179388Y0152273D01*
X0179334Y0151648D01*
X0179265Y0151023D01*
X0179180Y0150401D01*
X0179080Y0149781D01*
X0178965Y0149163D01*
X0178835Y0148549D01*
X0178690Y0147938D01*
X0178530Y0147331D01*
X0178355Y0146727D01*
X0178165Y0146129D01*
X0177961Y0145535D01*
X0177742Y0144946D01*
X0177509Y0144363D01*
X0177262Y0143785D01*
X0177000Y0143214D01*
X0176725Y0142650D01*
X0176435Y0142092D01*
X0176132Y0141542D01*
X0175816Y0141000D01*
X0175487Y0140465D01*
X0175144Y0139938D01*
X0174789Y0139420D01*
X0174421Y0138911D01*
X0174041Y0138412D01*
X0173648Y0137921D01*
X0173244Y0137441D01*
X0172828Y0136970D01*
X0172400Y0136510D01*
X0171962Y0136060D01*
X0171512Y0135622D01*
X0171052Y0135194D01*
X0170581Y0134778D01*
X0170101Y0134374D01*
X0169610Y0133981D01*
X0169111Y0133601D01*
X0168602Y0133233D01*
X0168084Y0132878D01*
X0167557Y0132535D01*
X0167022Y0132206D01*
X0166480Y0131890D01*
X0165930Y0131587D01*
X0165372Y0131297D01*
X0164808Y0131022D01*
X0164237Y0130760D01*
X0163659Y0130513D01*
X0163076Y0130280D01*
X0162487Y0130061D01*
X0161893Y0129857D01*
X0161295Y0129667D01*
X0160691Y0129492D01*
X0160084Y0129332D01*
X0159473Y0129187D01*
X0158859Y0129057D01*
X0158241Y0128942D01*
X0157621Y0128842D01*
X0156999Y0128757D01*
X0156374Y0128688D01*
X0155749Y0128634D01*
X0155122Y0128596D01*
X0154494Y0128573D01*
X0153866Y0128565D01*
X0153238Y0128573D01*
X0152610Y0128596D01*
X0151983Y0128634D01*
X0151358Y0128688D01*
X0150733Y0128757D01*
X0150111Y0128842D01*
X0149491Y0128942D01*
X0148873Y0129057D01*
X0148259Y0129187D01*
X0147648Y0129332D01*
X0147041Y0129492D01*
X0146437Y0129667D01*
X0145839Y0129857D01*
X0145245Y0130061D01*
X0144656Y0130280D01*
X0144073Y0130513D01*
X0143495Y0130760D01*
X0142924Y0131022D01*
X0142360Y0131297D01*
X0141802Y0131587D01*
X0141252Y0131890D01*
X0140710Y0132206D01*
X0140175Y0132535D01*
X0139648Y0132878D01*
X0139130Y0133233D01*
X0138621Y0133601D01*
X0138122Y0133981D01*
X0137631Y0134374D01*
X0137151Y0134778D01*
X0136680Y0135194D01*
X0136220Y0135622D01*
X0135770Y0136060D01*
X0135332Y0136510D01*
X0134904Y0136970D01*
X0134488Y0137441D01*
X0134084Y0137921D01*
X0133691Y0138412D01*
X0133311Y0138911D01*
X0132943Y0139420D01*
X0132588Y0139938D01*
X0132245Y0140465D01*
X0131916Y0141000D01*
X0131600Y0141542D01*
X0131297Y0142092D01*
X0131007Y0142650D01*
X0130732Y0143214D01*
X0130470Y0143785D01*
X0130223Y0144363D01*
X0129990Y0144946D01*
X0129771Y0145535D01*
X0129567Y0146129D01*
X0129377Y0146727D01*
X0129202Y0147331D01*
X0129042Y0147938D01*
X0128897Y0148549D01*
X0128767Y0149163D01*
X0128652Y0149781D01*
X0128552Y0150401D01*
X0128467Y0151023D01*
X0128398Y0151648D01*
X0128344Y0152273D01*
X0128306Y0152900D01*
X0128283Y0153528D01*
X0128275Y0154156D01*
X0175266Y0122606D02*
X0175266Y0118206D01*
X0187466Y0118206D02*
X0187466Y0119206D01*
X0187466Y0121606D01*
X0187466Y0122606D01*
X0179866Y0102656D02*
X0178866Y0102656D01*
X0178366Y0102156D01*
X0169366Y0102156D01*
X0168866Y0102656D01*
X0167866Y0102656D01*
X0167806Y0102654D01*
X0167745Y0102649D01*
X0167686Y0102640D01*
X0167627Y0102627D01*
X0167568Y0102611D01*
X0167511Y0102591D01*
X0167456Y0102568D01*
X0167401Y0102541D01*
X0167349Y0102512D01*
X0167298Y0102479D01*
X0167249Y0102443D01*
X0167203Y0102405D01*
X0167159Y0102363D01*
X0167117Y0102319D01*
X0167079Y0102273D01*
X0167043Y0102224D01*
X0167010Y0102173D01*
X0166981Y0102121D01*
X0166954Y0102066D01*
X0166931Y0102011D01*
X0166911Y0101954D01*
X0166895Y0101895D01*
X0166882Y0101836D01*
X0166873Y0101777D01*
X0166868Y0101716D01*
X0166866Y0101656D01*
X0166866Y0096656D02*
X0166868Y0096596D01*
X0166873Y0096535D01*
X0166882Y0096476D01*
X0166895Y0096417D01*
X0166911Y0096358D01*
X0166931Y0096301D01*
X0166954Y0096246D01*
X0166981Y0096191D01*
X0167010Y0096139D01*
X0167043Y0096088D01*
X0167079Y0096039D01*
X0167117Y0095993D01*
X0167159Y0095949D01*
X0167203Y0095907D01*
X0167249Y0095869D01*
X0167298Y0095833D01*
X0167349Y0095800D01*
X0167401Y0095771D01*
X0167456Y0095744D01*
X0167511Y0095721D01*
X0167568Y0095701D01*
X0167627Y0095685D01*
X0167686Y0095672D01*
X0167745Y0095663D01*
X0167806Y0095658D01*
X0167866Y0095656D01*
X0168866Y0095656D01*
X0169366Y0096156D01*
X0178366Y0096156D01*
X0178866Y0095656D01*
X0179866Y0095656D01*
X0179926Y0095658D01*
X0179987Y0095663D01*
X0180046Y0095672D01*
X0180105Y0095685D01*
X0180164Y0095701D01*
X0180221Y0095721D01*
X0180276Y0095744D01*
X0180331Y0095771D01*
X0180383Y0095800D01*
X0180434Y0095833D01*
X0180483Y0095869D01*
X0180529Y0095907D01*
X0180573Y0095949D01*
X0180615Y0095993D01*
X0180653Y0096039D01*
X0180689Y0096088D01*
X0180722Y0096139D01*
X0180751Y0096191D01*
X0180778Y0096246D01*
X0180801Y0096301D01*
X0180821Y0096358D01*
X0180837Y0096417D01*
X0180850Y0096476D01*
X0180859Y0096535D01*
X0180864Y0096596D01*
X0180866Y0096656D01*
X0179866Y0092656D02*
X0178866Y0092656D01*
X0178366Y0092156D01*
X0169366Y0092156D01*
X0168866Y0092656D01*
X0167866Y0092656D01*
X0167806Y0092654D01*
X0167745Y0092649D01*
X0167686Y0092640D01*
X0167627Y0092627D01*
X0167568Y0092611D01*
X0167511Y0092591D01*
X0167456Y0092568D01*
X0167401Y0092541D01*
X0167349Y0092512D01*
X0167298Y0092479D01*
X0167249Y0092443D01*
X0167203Y0092405D01*
X0167159Y0092363D01*
X0167117Y0092319D01*
X0167079Y0092273D01*
X0167043Y0092224D01*
X0167010Y0092173D01*
X0166981Y0092121D01*
X0166954Y0092066D01*
X0166931Y0092011D01*
X0166911Y0091954D01*
X0166895Y0091895D01*
X0166882Y0091836D01*
X0166873Y0091777D01*
X0166868Y0091716D01*
X0166866Y0091656D01*
X0166866Y0086656D02*
X0166868Y0086596D01*
X0166873Y0086535D01*
X0166882Y0086476D01*
X0166895Y0086417D01*
X0166911Y0086358D01*
X0166931Y0086301D01*
X0166954Y0086246D01*
X0166981Y0086191D01*
X0167010Y0086139D01*
X0167043Y0086088D01*
X0167079Y0086039D01*
X0167117Y0085993D01*
X0167159Y0085949D01*
X0167203Y0085907D01*
X0167249Y0085869D01*
X0167298Y0085833D01*
X0167349Y0085800D01*
X0167401Y0085771D01*
X0167456Y0085744D01*
X0167511Y0085721D01*
X0167568Y0085701D01*
X0167627Y0085685D01*
X0167686Y0085672D01*
X0167745Y0085663D01*
X0167806Y0085658D01*
X0167866Y0085656D01*
X0168866Y0085656D01*
X0169366Y0086156D01*
X0178366Y0086156D01*
X0178866Y0085656D01*
X0179866Y0085656D01*
X0179926Y0085658D01*
X0179987Y0085663D01*
X0180046Y0085672D01*
X0180105Y0085685D01*
X0180164Y0085701D01*
X0180221Y0085721D01*
X0180276Y0085744D01*
X0180331Y0085771D01*
X0180383Y0085800D01*
X0180434Y0085833D01*
X0180483Y0085869D01*
X0180529Y0085907D01*
X0180573Y0085949D01*
X0180615Y0085993D01*
X0180653Y0086039D01*
X0180689Y0086088D01*
X0180722Y0086139D01*
X0180751Y0086191D01*
X0180778Y0086246D01*
X0180801Y0086301D01*
X0180821Y0086358D01*
X0180837Y0086417D01*
X0180850Y0086476D01*
X0180859Y0086535D01*
X0180864Y0086596D01*
X0180866Y0086656D01*
X0180866Y0091656D02*
X0180864Y0091716D01*
X0180859Y0091777D01*
X0180850Y0091836D01*
X0180837Y0091895D01*
X0180821Y0091954D01*
X0180801Y0092011D01*
X0180778Y0092066D01*
X0180751Y0092121D01*
X0180722Y0092173D01*
X0180689Y0092224D01*
X0180653Y0092273D01*
X0180615Y0092319D01*
X0180573Y0092363D01*
X0180529Y0092405D01*
X0180483Y0092443D01*
X0180434Y0092479D01*
X0180383Y0092512D01*
X0180331Y0092541D01*
X0180276Y0092568D01*
X0180221Y0092591D01*
X0180164Y0092611D01*
X0180105Y0092627D01*
X0180046Y0092640D01*
X0179987Y0092649D01*
X0179926Y0092654D01*
X0179866Y0092656D01*
X0180866Y0101656D02*
X0180864Y0101716D01*
X0180859Y0101777D01*
X0180850Y0101836D01*
X0180837Y0101895D01*
X0180821Y0101954D01*
X0180801Y0102011D01*
X0180778Y0102066D01*
X0180751Y0102121D01*
X0180722Y0102173D01*
X0180689Y0102224D01*
X0180653Y0102273D01*
X0180615Y0102319D01*
X0180573Y0102363D01*
X0180529Y0102405D01*
X0180483Y0102443D01*
X0180434Y0102479D01*
X0180383Y0102512D01*
X0180331Y0102541D01*
X0180276Y0102568D01*
X0180221Y0102591D01*
X0180164Y0102611D01*
X0180105Y0102627D01*
X0180046Y0102640D01*
X0179987Y0102649D01*
X0179926Y0102654D01*
X0179866Y0102656D01*
X0197866Y0062656D02*
X0198866Y0062656D01*
X0199366Y0062156D01*
X0208366Y0062156D01*
X0208866Y0062656D01*
X0209866Y0062656D01*
X0209926Y0062654D01*
X0209987Y0062649D01*
X0210046Y0062640D01*
X0210105Y0062627D01*
X0210164Y0062611D01*
X0210221Y0062591D01*
X0210276Y0062568D01*
X0210331Y0062541D01*
X0210383Y0062512D01*
X0210434Y0062479D01*
X0210483Y0062443D01*
X0210529Y0062405D01*
X0210573Y0062363D01*
X0210615Y0062319D01*
X0210653Y0062273D01*
X0210689Y0062224D01*
X0210722Y0062173D01*
X0210751Y0062121D01*
X0210778Y0062066D01*
X0210801Y0062011D01*
X0210821Y0061954D01*
X0210837Y0061895D01*
X0210850Y0061836D01*
X0210859Y0061777D01*
X0210864Y0061716D01*
X0210866Y0061656D01*
X0210866Y0056656D02*
X0210864Y0056596D01*
X0210859Y0056535D01*
X0210850Y0056476D01*
X0210837Y0056417D01*
X0210821Y0056358D01*
X0210801Y0056301D01*
X0210778Y0056246D01*
X0210751Y0056191D01*
X0210722Y0056139D01*
X0210689Y0056088D01*
X0210653Y0056039D01*
X0210615Y0055993D01*
X0210573Y0055949D01*
X0210529Y0055907D01*
X0210483Y0055869D01*
X0210434Y0055833D01*
X0210383Y0055800D01*
X0210331Y0055771D01*
X0210276Y0055744D01*
X0210221Y0055721D01*
X0210164Y0055701D01*
X0210105Y0055685D01*
X0210046Y0055672D01*
X0209987Y0055663D01*
X0209926Y0055658D01*
X0209866Y0055656D01*
X0208866Y0055656D01*
X0208366Y0056156D01*
X0199366Y0056156D01*
X0198866Y0055656D01*
X0197866Y0055656D01*
X0197806Y0055658D01*
X0197745Y0055663D01*
X0197686Y0055672D01*
X0197627Y0055685D01*
X0197568Y0055701D01*
X0197511Y0055721D01*
X0197456Y0055744D01*
X0197401Y0055771D01*
X0197349Y0055800D01*
X0197298Y0055833D01*
X0197249Y0055869D01*
X0197203Y0055907D01*
X0197159Y0055949D01*
X0197117Y0055993D01*
X0197079Y0056039D01*
X0197043Y0056088D01*
X0197010Y0056139D01*
X0196981Y0056191D01*
X0196954Y0056246D01*
X0196931Y0056301D01*
X0196911Y0056358D01*
X0196895Y0056417D01*
X0196882Y0056476D01*
X0196873Y0056535D01*
X0196868Y0056596D01*
X0196866Y0056656D01*
X0196866Y0061656D02*
X0196868Y0061716D01*
X0196873Y0061777D01*
X0196882Y0061836D01*
X0196895Y0061895D01*
X0196911Y0061954D01*
X0196931Y0062011D01*
X0196954Y0062066D01*
X0196981Y0062121D01*
X0197010Y0062173D01*
X0197043Y0062224D01*
X0197079Y0062273D01*
X0197117Y0062319D01*
X0197159Y0062363D01*
X0197203Y0062405D01*
X0197249Y0062443D01*
X0197298Y0062479D01*
X0197349Y0062512D01*
X0197401Y0062541D01*
X0197456Y0062568D01*
X0197511Y0062591D01*
X0197568Y0062611D01*
X0197627Y0062627D01*
X0197686Y0062640D01*
X0197745Y0062649D01*
X0197806Y0062654D01*
X0197866Y0062656D01*
X0188366Y0053156D02*
X0188366Y0045156D01*
X0188364Y0045096D01*
X0188359Y0045035D01*
X0188350Y0044976D01*
X0188337Y0044917D01*
X0188321Y0044858D01*
X0188301Y0044801D01*
X0188278Y0044746D01*
X0188251Y0044691D01*
X0188222Y0044639D01*
X0188189Y0044588D01*
X0188153Y0044539D01*
X0188115Y0044493D01*
X0188073Y0044449D01*
X0188029Y0044407D01*
X0187983Y0044369D01*
X0187934Y0044333D01*
X0187883Y0044300D01*
X0187831Y0044271D01*
X0187776Y0044244D01*
X0187721Y0044221D01*
X0187664Y0044201D01*
X0187605Y0044185D01*
X0187546Y0044172D01*
X0187487Y0044163D01*
X0187426Y0044158D01*
X0187366Y0044156D01*
X0160366Y0044156D01*
X0160306Y0044158D01*
X0160245Y0044163D01*
X0160186Y0044172D01*
X0160127Y0044185D01*
X0160068Y0044201D01*
X0160011Y0044221D01*
X0159956Y0044244D01*
X0159901Y0044271D01*
X0159849Y0044300D01*
X0159798Y0044333D01*
X0159749Y0044369D01*
X0159703Y0044407D01*
X0159659Y0044449D01*
X0159617Y0044493D01*
X0159579Y0044539D01*
X0159543Y0044588D01*
X0159510Y0044639D01*
X0159481Y0044691D01*
X0159454Y0044746D01*
X0159431Y0044801D01*
X0159411Y0044858D01*
X0159395Y0044917D01*
X0159382Y0044976D01*
X0159373Y0045035D01*
X0159368Y0045096D01*
X0159366Y0045156D01*
X0159366Y0053156D01*
X0159368Y0053216D01*
X0159373Y0053277D01*
X0159382Y0053336D01*
X0159395Y0053395D01*
X0159411Y0053454D01*
X0159431Y0053511D01*
X0159454Y0053566D01*
X0159481Y0053621D01*
X0159510Y0053673D01*
X0159543Y0053724D01*
X0159579Y0053773D01*
X0159617Y0053819D01*
X0159659Y0053863D01*
X0159703Y0053905D01*
X0159749Y0053943D01*
X0159798Y0053979D01*
X0159849Y0054012D01*
X0159901Y0054041D01*
X0159956Y0054068D01*
X0160011Y0054091D01*
X0160068Y0054111D01*
X0160127Y0054127D01*
X0160186Y0054140D01*
X0160245Y0054149D01*
X0160306Y0054154D01*
X0160366Y0054156D01*
X0187366Y0054156D01*
X0187426Y0054154D01*
X0187487Y0054149D01*
X0187546Y0054140D01*
X0187605Y0054127D01*
X0187664Y0054111D01*
X0187721Y0054091D01*
X0187776Y0054068D01*
X0187831Y0054041D01*
X0187883Y0054012D01*
X0187934Y0053979D01*
X0187983Y0053943D01*
X0188029Y0053905D01*
X0188073Y0053863D01*
X0188115Y0053819D01*
X0188153Y0053773D01*
X0188189Y0053724D01*
X0188222Y0053673D01*
X0188251Y0053621D01*
X0188278Y0053566D01*
X0188301Y0053511D01*
X0188321Y0053454D01*
X0188337Y0053395D01*
X0188350Y0053336D01*
X0188359Y0053277D01*
X0188364Y0053216D01*
X0188366Y0053156D01*
X0179866Y0049156D02*
X0175066Y0049156D01*
X0172566Y0049156D02*
X0167866Y0049156D01*
X0150866Y0046656D02*
X0150864Y0046596D01*
X0150859Y0046535D01*
X0150850Y0046476D01*
X0150837Y0046417D01*
X0150821Y0046358D01*
X0150801Y0046301D01*
X0150778Y0046246D01*
X0150751Y0046191D01*
X0150722Y0046139D01*
X0150689Y0046088D01*
X0150653Y0046039D01*
X0150615Y0045993D01*
X0150573Y0045949D01*
X0150529Y0045907D01*
X0150483Y0045869D01*
X0150434Y0045833D01*
X0150383Y0045800D01*
X0150331Y0045771D01*
X0150276Y0045744D01*
X0150221Y0045721D01*
X0150164Y0045701D01*
X0150105Y0045685D01*
X0150046Y0045672D01*
X0149987Y0045663D01*
X0149926Y0045658D01*
X0149866Y0045656D01*
X0148866Y0045656D01*
X0148366Y0046156D01*
X0139366Y0046156D01*
X0138866Y0045656D01*
X0137866Y0045656D01*
X0137806Y0045658D01*
X0137745Y0045663D01*
X0137686Y0045672D01*
X0137627Y0045685D01*
X0137568Y0045701D01*
X0137511Y0045721D01*
X0137456Y0045744D01*
X0137401Y0045771D01*
X0137349Y0045800D01*
X0137298Y0045833D01*
X0137249Y0045869D01*
X0137203Y0045907D01*
X0137159Y0045949D01*
X0137117Y0045993D01*
X0137079Y0046039D01*
X0137043Y0046088D01*
X0137010Y0046139D01*
X0136981Y0046191D01*
X0136954Y0046246D01*
X0136931Y0046301D01*
X0136911Y0046358D01*
X0136895Y0046417D01*
X0136882Y0046476D01*
X0136873Y0046535D01*
X0136868Y0046596D01*
X0136866Y0046656D01*
X0136866Y0051656D02*
X0136868Y0051716D01*
X0136873Y0051777D01*
X0136882Y0051836D01*
X0136895Y0051895D01*
X0136911Y0051954D01*
X0136931Y0052011D01*
X0136954Y0052066D01*
X0136981Y0052121D01*
X0137010Y0052173D01*
X0137043Y0052224D01*
X0137079Y0052273D01*
X0137117Y0052319D01*
X0137159Y0052363D01*
X0137203Y0052405D01*
X0137249Y0052443D01*
X0137298Y0052479D01*
X0137349Y0052512D01*
X0137401Y0052541D01*
X0137456Y0052568D01*
X0137511Y0052591D01*
X0137568Y0052611D01*
X0137627Y0052627D01*
X0137686Y0052640D01*
X0137745Y0052649D01*
X0137806Y0052654D01*
X0137866Y0052656D01*
X0138866Y0052656D01*
X0139366Y0052156D01*
X0148366Y0052156D01*
X0148866Y0052656D01*
X0149866Y0052656D01*
X0149926Y0052654D01*
X0149987Y0052649D01*
X0150046Y0052640D01*
X0150105Y0052627D01*
X0150164Y0052611D01*
X0150221Y0052591D01*
X0150276Y0052568D01*
X0150331Y0052541D01*
X0150383Y0052512D01*
X0150434Y0052479D01*
X0150483Y0052443D01*
X0150529Y0052405D01*
X0150573Y0052363D01*
X0150615Y0052319D01*
X0150653Y0052273D01*
X0150689Y0052224D01*
X0150722Y0052173D01*
X0150751Y0052121D01*
X0150778Y0052066D01*
X0150801Y0052011D01*
X0150821Y0051954D01*
X0150837Y0051895D01*
X0150850Y0051836D01*
X0150859Y0051777D01*
X0150864Y0051716D01*
X0150866Y0051656D01*
X0149866Y0055656D02*
X0148866Y0055656D01*
X0148366Y0056156D01*
X0139366Y0056156D01*
X0138866Y0055656D01*
X0137866Y0055656D01*
X0137806Y0055658D01*
X0137745Y0055663D01*
X0137686Y0055672D01*
X0137627Y0055685D01*
X0137568Y0055701D01*
X0137511Y0055721D01*
X0137456Y0055744D01*
X0137401Y0055771D01*
X0137349Y0055800D01*
X0137298Y0055833D01*
X0137249Y0055869D01*
X0137203Y0055907D01*
X0137159Y0055949D01*
X0137117Y0055993D01*
X0137079Y0056039D01*
X0137043Y0056088D01*
X0137010Y0056139D01*
X0136981Y0056191D01*
X0136954Y0056246D01*
X0136931Y0056301D01*
X0136911Y0056358D01*
X0136895Y0056417D01*
X0136882Y0056476D01*
X0136873Y0056535D01*
X0136868Y0056596D01*
X0136866Y0056656D01*
X0136866Y0061656D02*
X0136868Y0061716D01*
X0136873Y0061777D01*
X0136882Y0061836D01*
X0136895Y0061895D01*
X0136911Y0061954D01*
X0136931Y0062011D01*
X0136954Y0062066D01*
X0136981Y0062121D01*
X0137010Y0062173D01*
X0137043Y0062224D01*
X0137079Y0062273D01*
X0137117Y0062319D01*
X0137159Y0062363D01*
X0137203Y0062405D01*
X0137249Y0062443D01*
X0137298Y0062479D01*
X0137349Y0062512D01*
X0137401Y0062541D01*
X0137456Y0062568D01*
X0137511Y0062591D01*
X0137568Y0062611D01*
X0137627Y0062627D01*
X0137686Y0062640D01*
X0137745Y0062649D01*
X0137806Y0062654D01*
X0137866Y0062656D01*
X0138866Y0062656D01*
X0139366Y0062156D01*
X0148366Y0062156D01*
X0148866Y0062656D01*
X0149866Y0062656D01*
X0149926Y0062654D01*
X0149987Y0062649D01*
X0150046Y0062640D01*
X0150105Y0062627D01*
X0150164Y0062611D01*
X0150221Y0062591D01*
X0150276Y0062568D01*
X0150331Y0062541D01*
X0150383Y0062512D01*
X0150434Y0062479D01*
X0150483Y0062443D01*
X0150529Y0062405D01*
X0150573Y0062363D01*
X0150615Y0062319D01*
X0150653Y0062273D01*
X0150689Y0062224D01*
X0150722Y0062173D01*
X0150751Y0062121D01*
X0150778Y0062066D01*
X0150801Y0062011D01*
X0150821Y0061954D01*
X0150837Y0061895D01*
X0150850Y0061836D01*
X0150859Y0061777D01*
X0150864Y0061716D01*
X0150866Y0061656D01*
X0150866Y0056656D02*
X0150864Y0056596D01*
X0150859Y0056535D01*
X0150850Y0056476D01*
X0150837Y0056417D01*
X0150821Y0056358D01*
X0150801Y0056301D01*
X0150778Y0056246D01*
X0150751Y0056191D01*
X0150722Y0056139D01*
X0150689Y0056088D01*
X0150653Y0056039D01*
X0150615Y0055993D01*
X0150573Y0055949D01*
X0150529Y0055907D01*
X0150483Y0055869D01*
X0150434Y0055833D01*
X0150383Y0055800D01*
X0150331Y0055771D01*
X0150276Y0055744D01*
X0150221Y0055721D01*
X0150164Y0055701D01*
X0150105Y0055685D01*
X0150046Y0055672D01*
X0149987Y0055663D01*
X0149926Y0055658D01*
X0149866Y0055656D01*
X0118866Y0056656D02*
X0118866Y0051656D01*
X0116366Y0049156D01*
X0118866Y0046656D01*
X0118866Y0041656D01*
X0116366Y0039156D01*
X0111366Y0039156D01*
X0108866Y0041656D01*
X0108866Y0046656D01*
X0111366Y0049156D01*
X0108866Y0051656D01*
X0108866Y0056656D01*
X0111366Y0059156D01*
X0108866Y0061656D01*
X0108866Y0066656D01*
X0111366Y0069156D01*
X0108866Y0071656D01*
X0108866Y0076656D01*
X0111366Y0079156D01*
X0116366Y0079156D01*
X0118866Y0076656D01*
X0118866Y0071656D01*
X0116366Y0069156D01*
X0118866Y0066656D01*
X0118866Y0061656D01*
X0116366Y0059156D01*
X0111366Y0059156D01*
X0116366Y0059156D02*
X0118866Y0056656D01*
X0116366Y0049156D02*
X0111366Y0049156D01*
X0111366Y0069156D02*
X0116366Y0069156D01*
X0219366Y0063156D02*
X0219366Y0055156D01*
X0219368Y0055096D01*
X0219373Y0055035D01*
X0219382Y0054976D01*
X0219395Y0054917D01*
X0219411Y0054858D01*
X0219431Y0054801D01*
X0219454Y0054746D01*
X0219481Y0054691D01*
X0219510Y0054639D01*
X0219543Y0054588D01*
X0219579Y0054539D01*
X0219617Y0054493D01*
X0219659Y0054449D01*
X0219703Y0054407D01*
X0219749Y0054369D01*
X0219798Y0054333D01*
X0219849Y0054300D01*
X0219901Y0054271D01*
X0219956Y0054244D01*
X0220011Y0054221D01*
X0220068Y0054201D01*
X0220127Y0054185D01*
X0220186Y0054172D01*
X0220245Y0054163D01*
X0220306Y0054158D01*
X0220366Y0054156D01*
X0247366Y0054156D01*
X0247426Y0054158D01*
X0247487Y0054163D01*
X0247546Y0054172D01*
X0247605Y0054185D01*
X0247664Y0054201D01*
X0247721Y0054221D01*
X0247776Y0054244D01*
X0247831Y0054271D01*
X0247883Y0054300D01*
X0247934Y0054333D01*
X0247983Y0054369D01*
X0248029Y0054407D01*
X0248073Y0054449D01*
X0248115Y0054493D01*
X0248153Y0054539D01*
X0248189Y0054588D01*
X0248222Y0054639D01*
X0248251Y0054691D01*
X0248278Y0054746D01*
X0248301Y0054801D01*
X0248321Y0054858D01*
X0248337Y0054917D01*
X0248350Y0054976D01*
X0248359Y0055035D01*
X0248364Y0055096D01*
X0248366Y0055156D01*
X0248366Y0063156D01*
X0248364Y0063216D01*
X0248359Y0063277D01*
X0248350Y0063336D01*
X0248337Y0063395D01*
X0248321Y0063454D01*
X0248301Y0063511D01*
X0248278Y0063566D01*
X0248251Y0063621D01*
X0248222Y0063673D01*
X0248189Y0063724D01*
X0248153Y0063773D01*
X0248115Y0063819D01*
X0248073Y0063863D01*
X0248029Y0063905D01*
X0247983Y0063943D01*
X0247934Y0063979D01*
X0247883Y0064012D01*
X0247831Y0064041D01*
X0247776Y0064068D01*
X0247721Y0064091D01*
X0247664Y0064111D01*
X0247605Y0064127D01*
X0247546Y0064140D01*
X0247487Y0064149D01*
X0247426Y0064154D01*
X0247366Y0064156D01*
X0220366Y0064156D01*
X0220306Y0064154D01*
X0220245Y0064149D01*
X0220186Y0064140D01*
X0220127Y0064127D01*
X0220068Y0064111D01*
X0220011Y0064091D01*
X0219956Y0064068D01*
X0219901Y0064041D01*
X0219849Y0064012D01*
X0219798Y0063979D01*
X0219749Y0063943D01*
X0219703Y0063905D01*
X0219659Y0063863D01*
X0219617Y0063819D01*
X0219579Y0063773D01*
X0219543Y0063724D01*
X0219510Y0063673D01*
X0219481Y0063621D01*
X0219454Y0063566D01*
X0219431Y0063511D01*
X0219411Y0063454D01*
X0219395Y0063395D01*
X0219382Y0063336D01*
X0219373Y0063277D01*
X0219368Y0063216D01*
X0219366Y0063156D01*
X0227866Y0059156D02*
X0232666Y0059156D01*
X0235166Y0059156D02*
X0239866Y0059156D01*
D12*
X0245677Y0051046D02*
X0245677Y0037266D01*
X0222055Y0037266D01*
X0222055Y0051046D01*
X0245677Y0051046D01*
X0184066Y0062356D02*
X0181166Y0062356D01*
X0182666Y0060856D02*
X0182666Y0063956D01*
X0121366Y0097907D02*
X0121322Y0097792D01*
X0121273Y0097679D01*
X0121222Y0097567D01*
X0121167Y0097458D01*
X0121108Y0097350D01*
X0121046Y0097244D01*
X0120980Y0097139D01*
X0120912Y0097038D01*
X0120840Y0096938D01*
X0120765Y0096840D01*
X0120687Y0096746D01*
X0120606Y0096653D01*
X0120522Y0096563D01*
X0120435Y0096476D01*
X0120346Y0096392D01*
X0120254Y0096310D01*
X0120159Y0096232D01*
X0120062Y0096157D01*
X0119962Y0096084D01*
X0119861Y0096015D01*
X0119757Y0095949D01*
X0119651Y0095887D01*
X0119543Y0095828D01*
X0119434Y0095772D01*
X0119323Y0095720D01*
X0119210Y0095671D01*
X0119095Y0095626D01*
X0118979Y0095585D01*
X0118862Y0095548D01*
X0118744Y0095514D01*
X0118625Y0095484D01*
X0118505Y0095457D01*
X0118384Y0095435D01*
X0118263Y0095416D01*
X0118141Y0095401D01*
X0118018Y0095390D01*
X0117896Y0095383D01*
X0117773Y0095380D01*
X0117650Y0095381D01*
X0117527Y0095386D01*
X0117404Y0095394D01*
X0117282Y0095407D01*
X0117160Y0095423D01*
X0117039Y0095443D01*
X0116919Y0095467D01*
X0116799Y0095495D01*
X0116680Y0095527D01*
X0116562Y0095562D01*
X0116446Y0095601D01*
X0116331Y0095644D01*
X0116217Y0095691D01*
X0116105Y0095741D01*
X0115994Y0095794D01*
X0115885Y0095851D01*
X0115778Y0095912D01*
X0115673Y0095976D01*
X0115570Y0096043D01*
X0115469Y0096113D01*
X0115371Y0096187D01*
X0115275Y0096263D01*
X0115181Y0096343D01*
X0115090Y0096425D01*
X0115002Y0096511D01*
X0114916Y0096599D01*
X0114833Y0096690D01*
X0114753Y0096783D01*
X0114677Y0096879D01*
X0114603Y0096978D01*
X0114532Y0097078D01*
X0114465Y0097181D01*
X0114401Y0097286D01*
X0114340Y0097393D01*
X0114283Y0097502D01*
X0114229Y0097612D01*
X0114179Y0097724D01*
X0114132Y0097838D01*
X0114089Y0097953D01*
X0114050Y0098070D01*
X0114014Y0098187D01*
X0113982Y0098306D01*
X0113954Y0098425D01*
X0113930Y0098546D01*
X0113909Y0098667D01*
X0113893Y0098789D01*
X0113880Y0098911D01*
X0113871Y0099034D01*
X0113866Y0099157D01*
X0113866Y0099156D02*
X0113861Y0099276D01*
X0113852Y0099396D01*
X0113839Y0099516D01*
X0113823Y0099635D01*
X0113802Y0099754D01*
X0113778Y0099871D01*
X0113749Y0099988D01*
X0113717Y0100104D01*
X0113681Y0100219D01*
X0113641Y0100332D01*
X0113598Y0100445D01*
X0113551Y0100555D01*
X0113500Y0100664D01*
X0113446Y0100772D01*
X0113388Y0100877D01*
X0113327Y0100981D01*
X0113263Y0101082D01*
X0113195Y0101181D01*
X0113124Y0101278D01*
X0113050Y0101373D01*
X0112972Y0101465D01*
X0112892Y0101555D01*
X0112809Y0101642D01*
X0112723Y0101726D01*
X0112634Y0101807D01*
X0112543Y0101885D01*
X0112449Y0101961D01*
X0112353Y0102033D01*
X0112254Y0102102D01*
X0112154Y0102167D01*
X0112051Y0102230D01*
X0111946Y0102289D01*
X0111839Y0102344D01*
X0111731Y0102396D01*
X0111621Y0102444D01*
X0111509Y0102489D01*
X0111396Y0102530D01*
X0111282Y0102567D01*
X0111166Y0102601D01*
X0111050Y0102630D01*
X0110932Y0102656D01*
X0110814Y0102678D01*
X0110695Y0102696D01*
X0110575Y0102710D01*
X0110456Y0102720D01*
X0110336Y0102727D01*
X0110215Y0102729D01*
X0110095Y0102727D01*
X0109975Y0102722D01*
X0109855Y0102712D01*
X0109736Y0102699D01*
X0109617Y0102681D01*
X0109498Y0102660D01*
X0109381Y0102635D01*
X0109264Y0102606D01*
X0109148Y0102573D01*
X0109034Y0102537D01*
X0108920Y0102496D01*
X0108808Y0102452D01*
X0108698Y0102405D01*
X0108589Y0102353D01*
X0108482Y0102298D01*
X0108377Y0102240D01*
X0108274Y0102178D01*
X0108173Y0102113D01*
X0108074Y0102045D01*
X0107977Y0101973D01*
X0107883Y0101899D01*
X0107791Y0101821D01*
X0107702Y0101740D01*
X0107616Y0101656D01*
X0106366Y0100406D01*
X0108866Y0106656D02*
X0111366Y0106656D01*
X0111366Y0109156D01*
X0116366Y0106656D01*
X0116366Y0111656D01*
X0111366Y0109156D01*
X0111366Y0111656D01*
X0113866Y0111656D01*
X0113911Y0110428D02*
X0116366Y0110428D01*
X0116366Y0109930D02*
X0112914Y0109930D01*
X0111917Y0109431D02*
X0116366Y0109431D01*
X0116366Y0108933D02*
X0111813Y0108933D01*
X0112810Y0108434D02*
X0116366Y0108434D01*
X0116366Y0107936D02*
X0113807Y0107936D01*
X0114804Y0107437D02*
X0116366Y0107437D01*
X0116366Y0106939D02*
X0115801Y0106939D01*
X0116366Y0110927D02*
X0114908Y0110927D01*
X0115905Y0111425D02*
X0116366Y0111425D01*
X0120366Y0123704D02*
X0120366Y0125283D01*
X0114866Y0125910D02*
X0114866Y0142402D01*
X0111366Y0141656D02*
X0111366Y0139156D01*
X0110272Y0138844D02*
X0107460Y0138844D01*
X0107709Y0139342D02*
X0110023Y0139342D01*
X0109774Y0139841D02*
X0107958Y0139841D01*
X0108208Y0140339D02*
X0109525Y0140339D01*
X0109275Y0140838D02*
X0108457Y0140838D01*
X0108706Y0141336D02*
X0109026Y0141336D01*
X0108866Y0141656D02*
X0106366Y0141656D01*
X0106366Y0144156D01*
X0108866Y0141656D02*
X0106366Y0136656D01*
X0111366Y0136656D01*
X0108866Y0141656D01*
X0111366Y0141656D01*
X0110522Y0138345D02*
X0107211Y0138345D01*
X0106961Y0137847D02*
X0110771Y0137847D01*
X0111020Y0137348D02*
X0106712Y0137348D01*
X0106463Y0136849D02*
X0111269Y0136849D01*
X0120366Y0135283D02*
X0120366Y0133029D01*
X0114866Y0142402D02*
X0115065Y0142555D01*
X0115267Y0142703D01*
X0115472Y0142846D01*
X0115681Y0142984D01*
X0115893Y0143117D01*
X0116108Y0143245D01*
X0116326Y0143367D01*
X0116547Y0143485D01*
X0116771Y0143597D01*
X0116997Y0143704D01*
X0117226Y0143805D01*
X0117457Y0143901D01*
X0117691Y0143992D01*
X0117926Y0144077D01*
X0118164Y0144156D01*
X0118403Y0144229D01*
X0118644Y0144297D01*
X0118886Y0144359D01*
X0119130Y0144415D01*
X0119376Y0144466D01*
X0119622Y0144510D01*
X0119869Y0144549D01*
X0120117Y0144581D01*
X0120366Y0144608D01*
X0120366Y0144609D02*
X0120366Y0143029D01*
X0120366Y0144608D02*
X0120621Y0144630D01*
X0120877Y0144645D01*
X0121133Y0144653D01*
X0121390Y0144656D01*
X0121646Y0144652D01*
X0121902Y0144642D01*
X0122158Y0144626D01*
X0122413Y0144604D01*
X0122668Y0144575D01*
X0122922Y0144540D01*
X0123175Y0144499D01*
X0123427Y0144452D01*
X0123677Y0144398D01*
X0123926Y0144339D01*
X0124174Y0144273D01*
X0124420Y0144202D01*
X0124665Y0144124D01*
X0124907Y0144041D01*
X0125147Y0143952D01*
X0125385Y0143856D01*
X0125621Y0143755D01*
X0125854Y0143649D01*
X0126084Y0143536D01*
X0126312Y0143418D01*
X0126536Y0143295D01*
X0126758Y0143166D01*
X0126976Y0143032D01*
X0127191Y0142892D01*
X0127402Y0142747D01*
X0127610Y0142597D01*
X0127814Y0142443D01*
X0128015Y0142283D01*
X0128211Y0142118D01*
X0128403Y0141949D01*
X0128592Y0141774D01*
X0128775Y0141596D01*
X0128955Y0141413D01*
X0129130Y0141225D01*
X0129300Y0141034D01*
X0129465Y0140838D01*
X0129626Y0140638D01*
X0129782Y0140435D01*
X0129932Y0140228D01*
X0130078Y0140017D01*
X0130219Y0139802D01*
X0130354Y0139585D01*
X0130484Y0139364D01*
X0130608Y0139140D01*
X0130727Y0138913D01*
X0130840Y0138683D01*
X0130948Y0138450D01*
X0131050Y0138215D01*
X0131146Y0137977D01*
X0131236Y0137738D01*
X0131321Y0137496D01*
X0131399Y0137252D01*
X0131399Y0131060D02*
X0131321Y0130818D01*
X0131237Y0130578D01*
X0131148Y0130340D01*
X0131053Y0130104D01*
X0130951Y0129870D01*
X0130845Y0129639D01*
X0130732Y0129411D01*
X0130615Y0129185D01*
X0130492Y0128962D01*
X0130363Y0128743D01*
X0130229Y0128526D01*
X0130090Y0128313D01*
X0129946Y0128103D01*
X0129797Y0127897D01*
X0129643Y0127695D01*
X0129484Y0127496D01*
X0129320Y0127301D01*
X0129151Y0127110D01*
X0128978Y0126924D01*
X0128801Y0126741D01*
X0128619Y0126563D01*
X0128433Y0126390D01*
X0128242Y0126221D01*
X0128048Y0126057D01*
X0127850Y0125897D01*
X0127648Y0125742D01*
X0127442Y0125593D01*
X0127233Y0125448D01*
X0127020Y0125308D01*
X0126804Y0125174D01*
X0126584Y0125045D01*
X0126362Y0124921D01*
X0126137Y0124802D01*
X0125909Y0124690D01*
X0125678Y0124582D01*
X0125445Y0124481D01*
X0125209Y0124385D01*
X0124971Y0124294D01*
X0124731Y0124210D01*
X0124489Y0124131D01*
X0124245Y0124058D01*
X0123999Y0123992D01*
X0123752Y0123931D01*
X0123504Y0123876D01*
X0123254Y0123827D01*
X0123003Y0123784D01*
X0122751Y0123748D01*
X0122499Y0123717D01*
X0122245Y0123693D01*
X0121992Y0123675D01*
X0121737Y0123663D01*
X0121483Y0123657D01*
X0121228Y0123657D01*
X0120974Y0123663D01*
X0120720Y0123676D01*
X0120466Y0123695D01*
X0120213Y0123720D01*
X0119960Y0123751D01*
X0119708Y0123788D01*
X0119458Y0123831D01*
X0119208Y0123880D01*
X0118959Y0123936D01*
X0118712Y0123997D01*
X0118467Y0124064D01*
X0118223Y0124137D01*
X0117981Y0124216D01*
X0117742Y0124301D01*
X0117504Y0124392D01*
X0117268Y0124489D01*
X0117035Y0124591D01*
X0116805Y0124699D01*
X0116577Y0124812D01*
X0116352Y0124931D01*
X0116130Y0125055D01*
X0115911Y0125185D01*
X0115695Y0125319D01*
X0115482Y0125459D01*
X0115273Y0125605D01*
X0115068Y0125755D01*
X0114866Y0125910D01*
X0082617Y0131656D02*
X0082502Y0131700D01*
X0082389Y0131749D01*
X0082277Y0131800D01*
X0082168Y0131855D01*
X0082060Y0131914D01*
X0081954Y0131976D01*
X0081849Y0132042D01*
X0081748Y0132110D01*
X0081648Y0132182D01*
X0081550Y0132257D01*
X0081456Y0132335D01*
X0081363Y0132416D01*
X0081273Y0132500D01*
X0081186Y0132587D01*
X0081102Y0132676D01*
X0081020Y0132768D01*
X0080942Y0132863D01*
X0080867Y0132960D01*
X0080794Y0133060D01*
X0080725Y0133161D01*
X0080659Y0133265D01*
X0080597Y0133371D01*
X0080538Y0133479D01*
X0080482Y0133588D01*
X0080430Y0133699D01*
X0080381Y0133812D01*
X0080336Y0133927D01*
X0080295Y0134043D01*
X0080258Y0134160D01*
X0080224Y0134278D01*
X0080194Y0134397D01*
X0080167Y0134517D01*
X0080145Y0134638D01*
X0080126Y0134759D01*
X0080111Y0134881D01*
X0080100Y0135004D01*
X0080093Y0135126D01*
X0080090Y0135249D01*
X0080091Y0135372D01*
X0080096Y0135495D01*
X0080104Y0135618D01*
X0080117Y0135740D01*
X0080133Y0135862D01*
X0080153Y0135983D01*
X0080177Y0136103D01*
X0080205Y0136223D01*
X0080237Y0136342D01*
X0080272Y0136460D01*
X0080311Y0136576D01*
X0080354Y0136691D01*
X0080401Y0136805D01*
X0080451Y0136917D01*
X0080504Y0137028D01*
X0080561Y0137137D01*
X0080622Y0137244D01*
X0080686Y0137349D01*
X0080753Y0137452D01*
X0080823Y0137553D01*
X0080897Y0137651D01*
X0080973Y0137747D01*
X0081053Y0137841D01*
X0081135Y0137932D01*
X0081221Y0138020D01*
X0081309Y0138106D01*
X0081400Y0138189D01*
X0081493Y0138269D01*
X0081589Y0138345D01*
X0081688Y0138419D01*
X0081788Y0138490D01*
X0081891Y0138557D01*
X0081996Y0138621D01*
X0082103Y0138682D01*
X0082212Y0138739D01*
X0082322Y0138793D01*
X0082434Y0138843D01*
X0082548Y0138890D01*
X0082663Y0138933D01*
X0082780Y0138972D01*
X0082897Y0139008D01*
X0083016Y0139040D01*
X0083135Y0139068D01*
X0083256Y0139092D01*
X0083377Y0139113D01*
X0083499Y0139129D01*
X0083621Y0139142D01*
X0083744Y0139151D01*
X0083867Y0139156D01*
X0083866Y0139156D02*
X0083986Y0139161D01*
X0084106Y0139170D01*
X0084226Y0139183D01*
X0084345Y0139199D01*
X0084464Y0139220D01*
X0084581Y0139244D01*
X0084698Y0139273D01*
X0084814Y0139305D01*
X0084929Y0139341D01*
X0085042Y0139381D01*
X0085155Y0139424D01*
X0085265Y0139471D01*
X0085374Y0139522D01*
X0085482Y0139576D01*
X0085587Y0139634D01*
X0085691Y0139695D01*
X0085792Y0139759D01*
X0085891Y0139827D01*
X0085988Y0139898D01*
X0086083Y0139972D01*
X0086175Y0140050D01*
X0086265Y0140130D01*
X0086352Y0140213D01*
X0086436Y0140299D01*
X0086517Y0140388D01*
X0086595Y0140479D01*
X0086671Y0140573D01*
X0086743Y0140669D01*
X0086812Y0140768D01*
X0086877Y0140868D01*
X0086940Y0140971D01*
X0086999Y0141076D01*
X0087054Y0141183D01*
X0087106Y0141291D01*
X0087154Y0141401D01*
X0087199Y0141513D01*
X0087240Y0141626D01*
X0087277Y0141740D01*
X0087311Y0141856D01*
X0087340Y0141972D01*
X0087366Y0142090D01*
X0087388Y0142208D01*
X0087406Y0142327D01*
X0087420Y0142447D01*
X0087430Y0142566D01*
X0087437Y0142686D01*
X0087439Y0142807D01*
X0087437Y0142927D01*
X0087432Y0143047D01*
X0087422Y0143167D01*
X0087409Y0143286D01*
X0087391Y0143405D01*
X0087370Y0143524D01*
X0087345Y0143641D01*
X0087316Y0143758D01*
X0087283Y0143874D01*
X0087247Y0143988D01*
X0087206Y0144102D01*
X0087162Y0144214D01*
X0087115Y0144324D01*
X0087063Y0144433D01*
X0087008Y0144540D01*
X0086950Y0144645D01*
X0086888Y0144748D01*
X0086823Y0144849D01*
X0086755Y0144948D01*
X0086683Y0145045D01*
X0086609Y0145139D01*
X0086531Y0145231D01*
X0086450Y0145320D01*
X0086366Y0145406D01*
X0085116Y0146656D01*
X0074220Y0154904D02*
X0074220Y0177542D01*
X0123512Y0177542D01*
X0123512Y0154904D01*
X0074220Y0154904D01*
X0076976Y0157660D02*
X0076976Y0169156D01*
X0120756Y0169156D01*
X0120756Y0157660D01*
X0076976Y0157660D01*
X0076976Y0169156D02*
X0076976Y0174786D01*
X0120756Y0174786D01*
X0120756Y0169156D01*
X0078866Y0119156D02*
X0048866Y0119156D01*
X0048866Y0109156D01*
X0048866Y0106656D01*
X0078866Y0106656D01*
X0078866Y0109156D01*
X0048866Y0109156D01*
X0078866Y0109156D02*
X0078866Y0119156D01*
X0207616Y0146906D02*
X0209885Y0146906D01*
X0208750Y0146906D02*
X0208750Y0150309D01*
X0207616Y0149175D01*
X0228366Y0149742D02*
X0228933Y0150309D01*
X0230068Y0150309D01*
X0230635Y0149742D01*
X0230635Y0149175D01*
X0230068Y0148608D01*
X0230635Y0148040D01*
X0230635Y0147473D01*
X0230068Y0146906D01*
X0228933Y0146906D01*
X0228366Y0147473D01*
X0229500Y0148608D02*
X0230068Y0148608D01*
D13*
X0168782Y0065488D02*
X0169221Y0065802D01*
X0169221Y0065801D02*
X0169310Y0065681D01*
X0169402Y0065563D01*
X0169498Y0065448D01*
X0169596Y0065335D01*
X0169697Y0065225D01*
X0169801Y0065117D01*
X0169908Y0065013D01*
X0170018Y0064911D01*
X0170130Y0064812D01*
X0170244Y0064716D01*
X0170362Y0064623D01*
X0170481Y0064533D01*
X0170603Y0064446D01*
X0170727Y0064362D01*
X0170853Y0064282D01*
X0170982Y0064205D01*
X0171112Y0064131D01*
X0171244Y0064061D01*
X0171378Y0063994D01*
X0171514Y0063931D01*
X0171651Y0063872D01*
X0171789Y0063815D01*
X0171930Y0063763D01*
X0172071Y0063714D01*
X0172214Y0063669D01*
X0172358Y0063628D01*
X0172502Y0063591D01*
X0172648Y0063557D01*
X0172795Y0063527D01*
X0172942Y0063501D01*
X0173090Y0063479D01*
X0173239Y0063460D01*
X0173388Y0063446D01*
X0173537Y0063435D01*
X0173686Y0063429D01*
X0173836Y0063426D01*
X0173836Y0062887D01*
X0173836Y0062886D01*
X0173681Y0062889D01*
X0173526Y0062895D01*
X0173371Y0062906D01*
X0173216Y0062920D01*
X0173062Y0062938D01*
X0172908Y0062960D01*
X0172755Y0062985D01*
X0172603Y0063015D01*
X0172451Y0063048D01*
X0172300Y0063085D01*
X0172150Y0063125D01*
X0172001Y0063170D01*
X0171854Y0063218D01*
X0171707Y0063269D01*
X0171562Y0063325D01*
X0171419Y0063383D01*
X0171276Y0063446D01*
X0171136Y0063512D01*
X0170997Y0063581D01*
X0170860Y0063654D01*
X0170724Y0063730D01*
X0170591Y0063809D01*
X0170460Y0063892D01*
X0170330Y0063978D01*
X0170203Y0064067D01*
X0170078Y0064159D01*
X0169956Y0064255D01*
X0169836Y0064353D01*
X0169718Y0064454D01*
X0169603Y0064558D01*
X0169490Y0064665D01*
X0169380Y0064775D01*
X0169273Y0064887D01*
X0169169Y0065002D01*
X0169068Y0065120D01*
X0168969Y0065240D01*
X0168874Y0065363D01*
X0168781Y0065487D01*
X0168827Y0065520D01*
X0168919Y0065396D01*
X0169013Y0065275D01*
X0169111Y0065156D01*
X0169211Y0065039D01*
X0169315Y0064925D01*
X0169421Y0064814D01*
X0169529Y0064705D01*
X0169641Y0064599D01*
X0169755Y0064496D01*
X0169872Y0064396D01*
X0169991Y0064298D01*
X0170112Y0064204D01*
X0170236Y0064112D01*
X0170362Y0064024D01*
X0170490Y0063939D01*
X0170620Y0063857D01*
X0170752Y0063778D01*
X0170887Y0063703D01*
X0171023Y0063631D01*
X0171160Y0063562D01*
X0171299Y0063497D01*
X0171440Y0063435D01*
X0171583Y0063377D01*
X0171727Y0063322D01*
X0171872Y0063271D01*
X0172018Y0063223D01*
X0172165Y0063179D01*
X0172314Y0063139D01*
X0172463Y0063102D01*
X0172614Y0063070D01*
X0172765Y0063040D01*
X0172916Y0063015D01*
X0173069Y0062993D01*
X0173222Y0062976D01*
X0173375Y0062961D01*
X0173528Y0062951D01*
X0173682Y0062945D01*
X0173836Y0062942D01*
X0173836Y0062998D01*
X0173679Y0063001D01*
X0173523Y0063008D01*
X0173367Y0063018D01*
X0173211Y0063033D01*
X0173055Y0063052D01*
X0172900Y0063074D01*
X0172746Y0063101D01*
X0172592Y0063131D01*
X0172440Y0063165D01*
X0172288Y0063204D01*
X0172137Y0063246D01*
X0171987Y0063292D01*
X0171839Y0063341D01*
X0171692Y0063395D01*
X0171546Y0063452D01*
X0171402Y0063513D01*
X0171259Y0063577D01*
X0171118Y0063645D01*
X0170979Y0063717D01*
X0170841Y0063792D01*
X0170706Y0063871D01*
X0170573Y0063953D01*
X0170441Y0064038D01*
X0170312Y0064127D01*
X0170186Y0064219D01*
X0170061Y0064314D01*
X0169939Y0064412D01*
X0169820Y0064514D01*
X0169703Y0064618D01*
X0169589Y0064725D01*
X0169478Y0064835D01*
X0169370Y0064948D01*
X0169264Y0065064D01*
X0169162Y0065182D01*
X0169062Y0065303D01*
X0168966Y0065427D01*
X0168873Y0065552D01*
X0168918Y0065585D01*
X0169010Y0065460D01*
X0169106Y0065338D01*
X0169205Y0065218D01*
X0169306Y0065101D01*
X0169411Y0064986D01*
X0169518Y0064875D01*
X0169628Y0064765D01*
X0169741Y0064659D01*
X0169857Y0064556D01*
X0169975Y0064455D01*
X0170096Y0064358D01*
X0170219Y0064264D01*
X0170345Y0064172D01*
X0170473Y0064085D01*
X0170603Y0064000D01*
X0170735Y0063919D01*
X0170869Y0063841D01*
X0171005Y0063766D01*
X0171143Y0063695D01*
X0171283Y0063628D01*
X0171424Y0063564D01*
X0171567Y0063504D01*
X0171711Y0063447D01*
X0171857Y0063394D01*
X0172004Y0063345D01*
X0172153Y0063299D01*
X0172302Y0063258D01*
X0172453Y0063220D01*
X0172604Y0063186D01*
X0172756Y0063156D01*
X0172909Y0063130D01*
X0173063Y0063107D01*
X0173217Y0063089D01*
X0173371Y0063074D01*
X0173526Y0063063D01*
X0173681Y0063057D01*
X0173836Y0063054D01*
X0173836Y0063110D01*
X0173682Y0063113D01*
X0173529Y0063119D01*
X0173375Y0063130D01*
X0173222Y0063144D01*
X0173070Y0063163D01*
X0172918Y0063185D01*
X0172766Y0063211D01*
X0172615Y0063241D01*
X0172465Y0063274D01*
X0172316Y0063312D01*
X0172168Y0063353D01*
X0172021Y0063398D01*
X0171876Y0063447D01*
X0171731Y0063499D01*
X0171588Y0063556D01*
X0171446Y0063615D01*
X0171306Y0063679D01*
X0171168Y0063745D01*
X0171031Y0063816D01*
X0170896Y0063890D01*
X0170764Y0063967D01*
X0170633Y0064047D01*
X0170504Y0064131D01*
X0170377Y0064218D01*
X0170253Y0064308D01*
X0170131Y0064402D01*
X0170011Y0064498D01*
X0169894Y0064598D01*
X0169779Y0064700D01*
X0169667Y0064806D01*
X0169558Y0064914D01*
X0169452Y0065025D01*
X0169348Y0065138D01*
X0169247Y0065254D01*
X0169150Y0065373D01*
X0169055Y0065494D01*
X0168964Y0065617D01*
X0169009Y0065650D01*
X0169100Y0065528D01*
X0169194Y0065408D01*
X0169290Y0065290D01*
X0169390Y0065175D01*
X0169493Y0065063D01*
X0169598Y0064953D01*
X0169706Y0064846D01*
X0169817Y0064741D01*
X0169931Y0064640D01*
X0170047Y0064541D01*
X0170165Y0064446D01*
X0170286Y0064353D01*
X0170410Y0064264D01*
X0170535Y0064178D01*
X0170663Y0064095D01*
X0170792Y0064015D01*
X0170924Y0063938D01*
X0171058Y0063865D01*
X0171193Y0063796D01*
X0171330Y0063729D01*
X0171469Y0063667D01*
X0171609Y0063607D01*
X0171751Y0063552D01*
X0171894Y0063500D01*
X0172038Y0063452D01*
X0172184Y0063407D01*
X0172331Y0063366D01*
X0172478Y0063329D01*
X0172627Y0063296D01*
X0172776Y0063266D01*
X0172926Y0063240D01*
X0173077Y0063218D01*
X0173228Y0063200D01*
X0173380Y0063186D01*
X0173532Y0063175D01*
X0173684Y0063169D01*
X0173836Y0063166D01*
X0173836Y0063222D01*
X0173685Y0063225D01*
X0173534Y0063231D01*
X0173384Y0063242D01*
X0173234Y0063256D01*
X0173084Y0063274D01*
X0172935Y0063296D01*
X0172786Y0063321D01*
X0172638Y0063350D01*
X0172491Y0063383D01*
X0172345Y0063420D01*
X0172200Y0063461D01*
X0172055Y0063505D01*
X0171912Y0063553D01*
X0171771Y0063604D01*
X0171630Y0063659D01*
X0171491Y0063718D01*
X0171354Y0063780D01*
X0171218Y0063846D01*
X0171084Y0063915D01*
X0170951Y0063987D01*
X0170821Y0064063D01*
X0170693Y0064142D01*
X0170566Y0064224D01*
X0170442Y0064310D01*
X0170320Y0064398D01*
X0170200Y0064490D01*
X0170083Y0064584D01*
X0169968Y0064682D01*
X0169855Y0064783D01*
X0169745Y0064886D01*
X0169638Y0064992D01*
X0169534Y0065101D01*
X0169432Y0065212D01*
X0169333Y0065326D01*
X0169237Y0065443D01*
X0169145Y0065561D01*
X0169055Y0065683D01*
X0169100Y0065715D01*
X0169189Y0065595D01*
X0169281Y0065477D01*
X0169376Y0065362D01*
X0169474Y0065249D01*
X0169575Y0065139D01*
X0169678Y0065031D01*
X0169784Y0064926D01*
X0169893Y0064824D01*
X0170005Y0064724D01*
X0170119Y0064628D01*
X0170235Y0064534D01*
X0170353Y0064443D01*
X0170474Y0064355D01*
X0170597Y0064271D01*
X0170723Y0064189D01*
X0170850Y0064111D01*
X0170979Y0064036D01*
X0171110Y0063964D01*
X0171243Y0063896D01*
X0171377Y0063831D01*
X0171514Y0063769D01*
X0171651Y0063711D01*
X0171790Y0063657D01*
X0171931Y0063606D01*
X0172072Y0063558D01*
X0172215Y0063515D01*
X0172359Y0063474D01*
X0172504Y0063438D01*
X0172650Y0063405D01*
X0172796Y0063376D01*
X0172943Y0063351D01*
X0173091Y0063329D01*
X0173240Y0063311D01*
X0173388Y0063297D01*
X0173537Y0063287D01*
X0173687Y0063281D01*
X0173836Y0063278D01*
X0173836Y0063334D01*
X0173684Y0063337D01*
X0173532Y0063344D01*
X0173380Y0063354D01*
X0173229Y0063369D01*
X0173078Y0063388D01*
X0172928Y0063410D01*
X0172778Y0063437D01*
X0172629Y0063467D01*
X0172481Y0063501D01*
X0172334Y0063539D01*
X0172187Y0063581D01*
X0172042Y0063627D01*
X0171899Y0063676D01*
X0171756Y0063730D01*
X0171615Y0063787D01*
X0171476Y0063847D01*
X0171338Y0063911D01*
X0171202Y0063979D01*
X0171068Y0064051D01*
X0170935Y0064125D01*
X0170805Y0064204D01*
X0170677Y0064285D01*
X0170550Y0064370D01*
X0170427Y0064459D01*
X0170305Y0064550D01*
X0170186Y0064644D01*
X0170070Y0064742D01*
X0169956Y0064843D01*
X0169844Y0064946D01*
X0169736Y0065053D01*
X0169630Y0065162D01*
X0169527Y0065274D01*
X0169427Y0065389D01*
X0169330Y0065506D01*
X0169237Y0065626D01*
X0169146Y0065748D01*
X0169191Y0065780D01*
X0169281Y0065659D01*
X0169374Y0065541D01*
X0169470Y0065425D01*
X0169569Y0065311D01*
X0169671Y0065200D01*
X0169776Y0065092D01*
X0169883Y0064987D01*
X0169993Y0064884D01*
X0170106Y0064784D01*
X0170222Y0064688D01*
X0170339Y0064594D01*
X0170460Y0064504D01*
X0170582Y0064416D01*
X0170707Y0064332D01*
X0170834Y0064251D01*
X0170963Y0064174D01*
X0171095Y0064100D01*
X0171228Y0064029D01*
X0171362Y0063962D01*
X0171499Y0063898D01*
X0171637Y0063838D01*
X0171776Y0063782D01*
X0171918Y0063729D01*
X0172060Y0063680D01*
X0172203Y0063635D01*
X0172348Y0063593D01*
X0172494Y0063556D01*
X0172641Y0063522D01*
X0172788Y0063492D01*
X0172936Y0063465D01*
X0173085Y0063443D01*
X0173235Y0063425D01*
X0173385Y0063410D01*
X0173535Y0063400D01*
X0173685Y0063393D01*
X0173836Y0063390D01*
X0178796Y0073028D02*
X0178370Y0072697D01*
X0178371Y0072697D02*
X0178278Y0072812D01*
X0178183Y0072924D01*
X0178085Y0073034D01*
X0177984Y0073141D01*
X0177880Y0073245D01*
X0177773Y0073347D01*
X0177664Y0073446D01*
X0177553Y0073542D01*
X0177439Y0073636D01*
X0177323Y0073726D01*
X0177204Y0073813D01*
X0177083Y0073897D01*
X0176961Y0073978D01*
X0176836Y0074056D01*
X0176709Y0074131D01*
X0176580Y0074202D01*
X0176450Y0074271D01*
X0176317Y0074335D01*
X0176183Y0074396D01*
X0176048Y0074454D01*
X0175911Y0074509D01*
X0175773Y0074559D01*
X0175633Y0074607D01*
X0175493Y0074650D01*
X0175351Y0074690D01*
X0175209Y0074727D01*
X0175065Y0074759D01*
X0174921Y0074788D01*
X0174776Y0074813D01*
X0174630Y0074835D01*
X0174484Y0074853D01*
X0174337Y0074867D01*
X0174190Y0074877D01*
X0174043Y0074883D01*
X0173896Y0074886D01*
X0173896Y0075425D01*
X0173896Y0075426D01*
X0174053Y0075423D01*
X0174209Y0075417D01*
X0174366Y0075406D01*
X0174522Y0075392D01*
X0174678Y0075373D01*
X0174833Y0075351D01*
X0174987Y0075325D01*
X0175141Y0075295D01*
X0175294Y0075261D01*
X0175447Y0075223D01*
X0175598Y0075182D01*
X0175748Y0075137D01*
X0175897Y0075088D01*
X0176045Y0075035D01*
X0176191Y0074979D01*
X0176336Y0074919D01*
X0176479Y0074855D01*
X0176621Y0074788D01*
X0176761Y0074718D01*
X0176899Y0074644D01*
X0177035Y0074566D01*
X0177170Y0074485D01*
X0177302Y0074401D01*
X0177432Y0074313D01*
X0177560Y0074223D01*
X0177685Y0074129D01*
X0177808Y0074032D01*
X0177929Y0073931D01*
X0178047Y0073828D01*
X0178163Y0073722D01*
X0178275Y0073614D01*
X0178386Y0073502D01*
X0178493Y0073388D01*
X0178597Y0073271D01*
X0178699Y0073151D01*
X0178797Y0073029D01*
X0178753Y0072994D01*
X0178655Y0073115D01*
X0178555Y0073234D01*
X0178451Y0073350D01*
X0178345Y0073463D01*
X0178236Y0073574D01*
X0178124Y0073682D01*
X0178010Y0073787D01*
X0177893Y0073889D01*
X0177773Y0073988D01*
X0177651Y0074084D01*
X0177527Y0074177D01*
X0177400Y0074267D01*
X0177271Y0074354D01*
X0177140Y0074438D01*
X0177007Y0074518D01*
X0176872Y0074595D01*
X0176735Y0074668D01*
X0176596Y0074738D01*
X0176456Y0074805D01*
X0176314Y0074868D01*
X0176170Y0074927D01*
X0176025Y0074983D01*
X0175879Y0075035D01*
X0175731Y0075083D01*
X0175583Y0075128D01*
X0175433Y0075169D01*
X0175282Y0075207D01*
X0175130Y0075240D01*
X0174978Y0075270D01*
X0174824Y0075296D01*
X0174671Y0075318D01*
X0174516Y0075336D01*
X0174362Y0075350D01*
X0174207Y0075361D01*
X0174051Y0075367D01*
X0173896Y0075370D01*
X0173896Y0075314D01*
X0174050Y0075311D01*
X0174204Y0075305D01*
X0174357Y0075294D01*
X0174511Y0075280D01*
X0174664Y0075262D01*
X0174816Y0075240D01*
X0174968Y0075215D01*
X0175119Y0075185D01*
X0175269Y0075152D01*
X0175419Y0075115D01*
X0175567Y0075074D01*
X0175715Y0075030D01*
X0175861Y0074982D01*
X0176006Y0074930D01*
X0176150Y0074875D01*
X0176292Y0074816D01*
X0176433Y0074754D01*
X0176572Y0074688D01*
X0176709Y0074618D01*
X0176845Y0074546D01*
X0176979Y0074469D01*
X0177110Y0074390D01*
X0177240Y0074307D01*
X0177368Y0074221D01*
X0177493Y0074132D01*
X0177617Y0074040D01*
X0177738Y0073945D01*
X0177856Y0073846D01*
X0177972Y0073745D01*
X0178086Y0073641D01*
X0178196Y0073534D01*
X0178305Y0073425D01*
X0178410Y0073312D01*
X0178512Y0073197D01*
X0178612Y0073080D01*
X0178708Y0072960D01*
X0178664Y0072926D01*
X0178569Y0073044D01*
X0178470Y0073161D01*
X0178368Y0073275D01*
X0178264Y0073386D01*
X0178157Y0073495D01*
X0178047Y0073600D01*
X0177935Y0073704D01*
X0177820Y0073804D01*
X0177702Y0073901D01*
X0177583Y0073996D01*
X0177460Y0074087D01*
X0177336Y0074175D01*
X0177209Y0074260D01*
X0177081Y0074342D01*
X0176950Y0074421D01*
X0176818Y0074497D01*
X0176683Y0074569D01*
X0176547Y0074637D01*
X0176409Y0074703D01*
X0176270Y0074765D01*
X0176129Y0074823D01*
X0175986Y0074878D01*
X0175843Y0074929D01*
X0175698Y0074977D01*
X0175552Y0075021D01*
X0175405Y0075061D01*
X0175257Y0075097D01*
X0175108Y0075130D01*
X0174958Y0075160D01*
X0174808Y0075185D01*
X0174657Y0075207D01*
X0174505Y0075224D01*
X0174353Y0075239D01*
X0174201Y0075249D01*
X0174049Y0075255D01*
X0173896Y0075258D01*
X0173896Y0075202D01*
X0174047Y0075199D01*
X0174198Y0075193D01*
X0174349Y0075183D01*
X0174499Y0075169D01*
X0174649Y0075151D01*
X0174799Y0075130D01*
X0174948Y0075104D01*
X0175096Y0075075D01*
X0175244Y0075043D01*
X0175391Y0075007D01*
X0175536Y0074967D01*
X0175681Y0074923D01*
X0175825Y0074876D01*
X0175967Y0074825D01*
X0176108Y0074771D01*
X0176248Y0074713D01*
X0176386Y0074652D01*
X0176522Y0074587D01*
X0176657Y0074519D01*
X0176791Y0074448D01*
X0176922Y0074373D01*
X0177051Y0074295D01*
X0177179Y0074214D01*
X0177304Y0074129D01*
X0177427Y0074042D01*
X0177548Y0073951D01*
X0177667Y0073858D01*
X0177783Y0073761D01*
X0177897Y0073662D01*
X0178009Y0073560D01*
X0178117Y0073455D01*
X0178223Y0073347D01*
X0178327Y0073237D01*
X0178427Y0073124D01*
X0178525Y0073009D01*
X0178620Y0072891D01*
X0178576Y0072857D01*
X0178479Y0072977D01*
X0178379Y0073094D01*
X0178277Y0073209D01*
X0178171Y0073321D01*
X0178063Y0073430D01*
X0177951Y0073537D01*
X0177837Y0073640D01*
X0177721Y0073741D01*
X0177602Y0073838D01*
X0177480Y0073933D01*
X0177356Y0074024D01*
X0177230Y0074112D01*
X0177101Y0074197D01*
X0176971Y0074279D01*
X0176838Y0074357D01*
X0176703Y0074431D01*
X0176567Y0074503D01*
X0176428Y0074570D01*
X0176288Y0074634D01*
X0176147Y0074695D01*
X0176004Y0074752D01*
X0175859Y0074805D01*
X0175713Y0074854D01*
X0175566Y0074900D01*
X0175418Y0074941D01*
X0175269Y0074979D01*
X0175119Y0075014D01*
X0174968Y0075044D01*
X0174816Y0075070D01*
X0174664Y0075093D01*
X0174511Y0075111D01*
X0174357Y0075126D01*
X0174204Y0075136D01*
X0174050Y0075143D01*
X0173896Y0075146D01*
X0173896Y0075090D01*
X0174049Y0075087D01*
X0174201Y0075081D01*
X0174353Y0075070D01*
X0174505Y0075056D01*
X0174656Y0075037D01*
X0174807Y0075015D01*
X0174958Y0074989D01*
X0175107Y0074959D01*
X0175256Y0074925D01*
X0175404Y0074887D01*
X0175550Y0074846D01*
X0175696Y0074801D01*
X0175841Y0074752D01*
X0175984Y0074699D01*
X0176126Y0074643D01*
X0176266Y0074583D01*
X0176405Y0074520D01*
X0176542Y0074453D01*
X0176677Y0074382D01*
X0176810Y0074308D01*
X0176942Y0074231D01*
X0177071Y0074150D01*
X0177198Y0074066D01*
X0177323Y0073979D01*
X0177446Y0073888D01*
X0177567Y0073795D01*
X0177685Y0073698D01*
X0177800Y0073598D01*
X0177913Y0073496D01*
X0178023Y0073390D01*
X0178131Y0073282D01*
X0178235Y0073171D01*
X0178337Y0073057D01*
X0178436Y0072941D01*
X0178532Y0072823D01*
X0178487Y0072788D01*
X0178393Y0072906D01*
X0178295Y0073021D01*
X0178194Y0073133D01*
X0178090Y0073243D01*
X0177984Y0073351D01*
X0177875Y0073455D01*
X0177763Y0073557D01*
X0177649Y0073655D01*
X0177532Y0073751D01*
X0177412Y0073844D01*
X0177291Y0073933D01*
X0177167Y0074020D01*
X0177041Y0074103D01*
X0176913Y0074183D01*
X0176782Y0074260D01*
X0176650Y0074333D01*
X0176516Y0074403D01*
X0176381Y0074469D01*
X0176243Y0074532D01*
X0176104Y0074591D01*
X0175964Y0074647D01*
X0175822Y0074699D01*
X0175679Y0074747D01*
X0175535Y0074792D01*
X0175389Y0074833D01*
X0175243Y0074870D01*
X0175096Y0074904D01*
X0174947Y0074934D01*
X0174799Y0074960D01*
X0174649Y0074982D01*
X0174499Y0075000D01*
X0174349Y0075014D01*
X0174198Y0075025D01*
X0174047Y0075031D01*
X0173896Y0075034D01*
X0173896Y0074978D01*
X0174046Y0074975D01*
X0174195Y0074969D01*
X0174344Y0074958D01*
X0174493Y0074944D01*
X0174642Y0074926D01*
X0174790Y0074904D01*
X0174937Y0074879D01*
X0175084Y0074849D01*
X0175230Y0074816D01*
X0175375Y0074779D01*
X0175519Y0074738D01*
X0175662Y0074694D01*
X0175803Y0074646D01*
X0175944Y0074595D01*
X0176083Y0074539D01*
X0176221Y0074481D01*
X0176357Y0074418D01*
X0176491Y0074353D01*
X0176624Y0074283D01*
X0176755Y0074211D01*
X0176883Y0074135D01*
X0177010Y0074056D01*
X0177135Y0073973D01*
X0177258Y0073888D01*
X0177378Y0073799D01*
X0177497Y0073707D01*
X0177612Y0073612D01*
X0177726Y0073515D01*
X0177836Y0073414D01*
X0177944Y0073311D01*
X0178050Y0073205D01*
X0178153Y0073096D01*
X0178252Y0072984D01*
X0178349Y0072870D01*
X0178443Y0072754D01*
X0178399Y0072719D01*
X0178306Y0072835D01*
X0178210Y0072948D01*
X0178111Y0073058D01*
X0178010Y0073166D01*
X0177905Y0073271D01*
X0177798Y0073373D01*
X0177688Y0073473D01*
X0177576Y0073570D01*
X0177462Y0073664D01*
X0177345Y0073755D01*
X0177225Y0073842D01*
X0177104Y0073927D01*
X0176980Y0074009D01*
X0176854Y0074087D01*
X0176727Y0074162D01*
X0176597Y0074234D01*
X0176466Y0074303D01*
X0176333Y0074368D01*
X0176198Y0074429D01*
X0176062Y0074488D01*
X0175924Y0074542D01*
X0175785Y0074593D01*
X0175645Y0074641D01*
X0175503Y0074685D01*
X0175360Y0074725D01*
X0175217Y0074762D01*
X0175072Y0074794D01*
X0174927Y0074824D01*
X0174781Y0074849D01*
X0174635Y0074871D01*
X0174487Y0074888D01*
X0174340Y0074902D01*
X0174192Y0074913D01*
X0174044Y0074919D01*
X0173896Y0074922D01*
X0173895Y0062887D02*
X0173895Y0063427D01*
X0173896Y0063426D02*
X0174046Y0063429D01*
X0174196Y0063436D01*
X0174346Y0063446D01*
X0174495Y0063461D01*
X0174644Y0063479D01*
X0174792Y0063501D01*
X0174940Y0063528D01*
X0175087Y0063558D01*
X0175234Y0063592D01*
X0175379Y0063629D01*
X0175523Y0063671D01*
X0175666Y0063716D01*
X0175808Y0063765D01*
X0175949Y0063818D01*
X0176088Y0063874D01*
X0176225Y0063934D01*
X0176361Y0063998D01*
X0176495Y0064065D01*
X0176628Y0064136D01*
X0176758Y0064210D01*
X0176887Y0064287D01*
X0177013Y0064368D01*
X0177138Y0064452D01*
X0177260Y0064539D01*
X0177380Y0064630D01*
X0177497Y0064723D01*
X0177612Y0064820D01*
X0177724Y0064920D01*
X0177834Y0065022D01*
X0177941Y0065127D01*
X0178045Y0065235D01*
X0178146Y0065346D01*
X0178244Y0065460D01*
X0178340Y0065576D01*
X0178432Y0065694D01*
X0178863Y0065371D01*
X0178864Y0065370D01*
X0178769Y0065247D01*
X0178670Y0065127D01*
X0178569Y0065009D01*
X0178464Y0064894D01*
X0178357Y0064781D01*
X0178247Y0064671D01*
X0178135Y0064564D01*
X0178020Y0064459D01*
X0177902Y0064358D01*
X0177782Y0064259D01*
X0177659Y0064163D01*
X0177534Y0064071D01*
X0177407Y0063981D01*
X0177277Y0063895D01*
X0177146Y0063812D01*
X0177012Y0063732D01*
X0176877Y0063656D01*
X0176739Y0063583D01*
X0176600Y0063514D01*
X0176459Y0063448D01*
X0176317Y0063385D01*
X0176173Y0063326D01*
X0176028Y0063271D01*
X0175881Y0063219D01*
X0175733Y0063171D01*
X0175584Y0063126D01*
X0175434Y0063085D01*
X0175283Y0063048D01*
X0175131Y0063015D01*
X0174979Y0062986D01*
X0174825Y0062960D01*
X0174671Y0062938D01*
X0174517Y0062920D01*
X0174362Y0062906D01*
X0174207Y0062895D01*
X0174051Y0062889D01*
X0173896Y0062886D01*
X0173896Y0062942D01*
X0174050Y0062945D01*
X0174204Y0062951D01*
X0174358Y0062961D01*
X0174511Y0062976D01*
X0174664Y0062993D01*
X0174817Y0063015D01*
X0174969Y0063041D01*
X0175120Y0063070D01*
X0175271Y0063103D01*
X0175420Y0063140D01*
X0175569Y0063180D01*
X0175717Y0063224D01*
X0175863Y0063272D01*
X0176009Y0063323D01*
X0176153Y0063378D01*
X0176295Y0063437D01*
X0176436Y0063499D01*
X0176576Y0063564D01*
X0176714Y0063633D01*
X0176850Y0063705D01*
X0176984Y0063781D01*
X0177116Y0063860D01*
X0177247Y0063942D01*
X0177375Y0064028D01*
X0177501Y0064116D01*
X0177625Y0064208D01*
X0177746Y0064303D01*
X0177866Y0064400D01*
X0177982Y0064501D01*
X0178097Y0064604D01*
X0178208Y0064711D01*
X0178317Y0064820D01*
X0178423Y0064932D01*
X0178527Y0065046D01*
X0178627Y0065163D01*
X0178725Y0065282D01*
X0178819Y0065404D01*
X0178774Y0065437D01*
X0178681Y0065317D01*
X0178584Y0065198D01*
X0178484Y0065083D01*
X0178382Y0064969D01*
X0178277Y0064859D01*
X0178169Y0064751D01*
X0178058Y0064645D01*
X0177945Y0064543D01*
X0177829Y0064443D01*
X0177711Y0064346D01*
X0177591Y0064252D01*
X0177468Y0064162D01*
X0177343Y0064074D01*
X0177216Y0063989D01*
X0177087Y0063908D01*
X0176956Y0063829D01*
X0176823Y0063754D01*
X0176688Y0063683D01*
X0176551Y0063614D01*
X0176413Y0063550D01*
X0176273Y0063488D01*
X0176132Y0063430D01*
X0175989Y0063376D01*
X0175845Y0063325D01*
X0175700Y0063278D01*
X0175554Y0063234D01*
X0175407Y0063194D01*
X0175258Y0063157D01*
X0175109Y0063125D01*
X0174959Y0063096D01*
X0174809Y0063071D01*
X0174657Y0063049D01*
X0174506Y0063031D01*
X0174354Y0063017D01*
X0174201Y0063007D01*
X0174049Y0063001D01*
X0173896Y0062998D01*
X0173896Y0063054D01*
X0174051Y0063057D01*
X0174207Y0063064D01*
X0174362Y0063074D01*
X0174517Y0063089D01*
X0174671Y0063107D01*
X0174825Y0063130D01*
X0174978Y0063156D01*
X0175131Y0063187D01*
X0175283Y0063221D01*
X0175433Y0063259D01*
X0175583Y0063301D01*
X0175732Y0063346D01*
X0175879Y0063396D01*
X0176025Y0063449D01*
X0176170Y0063506D01*
X0176313Y0063566D01*
X0176455Y0063630D01*
X0176595Y0063698D01*
X0176733Y0063770D01*
X0176869Y0063844D01*
X0177004Y0063923D01*
X0177136Y0064004D01*
X0177266Y0064089D01*
X0177394Y0064178D01*
X0177520Y0064269D01*
X0177643Y0064364D01*
X0177764Y0064462D01*
X0177883Y0064562D01*
X0177998Y0064666D01*
X0178111Y0064773D01*
X0178222Y0064883D01*
X0178329Y0064995D01*
X0178434Y0065110D01*
X0178535Y0065228D01*
X0178634Y0065348D01*
X0178730Y0065471D01*
X0178685Y0065504D01*
X0178590Y0065383D01*
X0178492Y0065264D01*
X0178392Y0065147D01*
X0178288Y0065033D01*
X0178182Y0064922D01*
X0178072Y0064813D01*
X0177960Y0064707D01*
X0177846Y0064605D01*
X0177728Y0064505D01*
X0177609Y0064408D01*
X0177486Y0064314D01*
X0177362Y0064223D01*
X0177235Y0064136D01*
X0177106Y0064051D01*
X0176975Y0063971D01*
X0176842Y0063893D01*
X0176707Y0063819D01*
X0176570Y0063748D01*
X0176431Y0063681D01*
X0176291Y0063618D01*
X0176149Y0063558D01*
X0176006Y0063501D01*
X0175861Y0063449D01*
X0175715Y0063400D01*
X0175567Y0063354D01*
X0175419Y0063313D01*
X0175270Y0063275D01*
X0175119Y0063241D01*
X0174968Y0063211D01*
X0174816Y0063185D01*
X0174664Y0063163D01*
X0174511Y0063145D01*
X0174358Y0063130D01*
X0174204Y0063119D01*
X0174050Y0063113D01*
X0173896Y0063110D01*
X0173896Y0063166D01*
X0174049Y0063169D01*
X0174201Y0063175D01*
X0174353Y0063186D01*
X0174505Y0063200D01*
X0174657Y0063218D01*
X0174808Y0063241D01*
X0174958Y0063266D01*
X0175108Y0063296D01*
X0175257Y0063330D01*
X0175405Y0063367D01*
X0175552Y0063408D01*
X0175698Y0063453D01*
X0175842Y0063501D01*
X0175986Y0063554D01*
X0176128Y0063609D01*
X0176268Y0063669D01*
X0176407Y0063732D01*
X0176545Y0063798D01*
X0176680Y0063868D01*
X0176814Y0063942D01*
X0176946Y0064019D01*
X0177076Y0064099D01*
X0177204Y0064182D01*
X0177329Y0064269D01*
X0177453Y0064359D01*
X0177574Y0064452D01*
X0177693Y0064548D01*
X0177809Y0064647D01*
X0177922Y0064748D01*
X0178033Y0064853D01*
X0178142Y0064961D01*
X0178247Y0065071D01*
X0178350Y0065184D01*
X0178449Y0065300D01*
X0178546Y0065418D01*
X0178640Y0065538D01*
X0178595Y0065572D01*
X0178502Y0065452D01*
X0178406Y0065335D01*
X0178308Y0065221D01*
X0178206Y0065109D01*
X0178101Y0065000D01*
X0177994Y0064893D01*
X0177884Y0064790D01*
X0177772Y0064689D01*
X0177657Y0064591D01*
X0177539Y0064495D01*
X0177419Y0064403D01*
X0177297Y0064314D01*
X0177173Y0064229D01*
X0177046Y0064146D01*
X0176917Y0064067D01*
X0176787Y0063991D01*
X0176654Y0063918D01*
X0176520Y0063848D01*
X0176384Y0063783D01*
X0176246Y0063720D01*
X0176107Y0063661D01*
X0175966Y0063606D01*
X0175824Y0063554D01*
X0175681Y0063506D01*
X0175536Y0063462D01*
X0175391Y0063421D01*
X0175244Y0063384D01*
X0175096Y0063351D01*
X0174948Y0063322D01*
X0174799Y0063296D01*
X0174650Y0063274D01*
X0174500Y0063256D01*
X0174349Y0063242D01*
X0174198Y0063231D01*
X0174047Y0063225D01*
X0173896Y0063222D01*
X0173896Y0063278D01*
X0174046Y0063281D01*
X0174195Y0063287D01*
X0174345Y0063298D01*
X0174494Y0063312D01*
X0174642Y0063330D01*
X0174791Y0063351D01*
X0174938Y0063377D01*
X0175085Y0063406D01*
X0175231Y0063439D01*
X0175376Y0063475D01*
X0175520Y0063516D01*
X0175664Y0063560D01*
X0175806Y0063607D01*
X0175946Y0063658D01*
X0176086Y0063713D01*
X0176224Y0063772D01*
X0176360Y0063833D01*
X0176495Y0063899D01*
X0176628Y0063967D01*
X0176759Y0064039D01*
X0176888Y0064115D01*
X0177016Y0064193D01*
X0177141Y0064275D01*
X0177265Y0064360D01*
X0177386Y0064448D01*
X0177504Y0064539D01*
X0177621Y0064634D01*
X0177735Y0064731D01*
X0177846Y0064831D01*
X0177955Y0064933D01*
X0178061Y0065039D01*
X0178165Y0065147D01*
X0178266Y0065258D01*
X0178363Y0065371D01*
X0178458Y0065487D01*
X0178550Y0065605D01*
X0178506Y0065639D01*
X0178414Y0065522D01*
X0178320Y0065407D01*
X0178223Y0065295D01*
X0178124Y0065185D01*
X0178021Y0065078D01*
X0177916Y0064974D01*
X0177808Y0064872D01*
X0177698Y0064773D01*
X0177585Y0064677D01*
X0177470Y0064583D01*
X0177352Y0064493D01*
X0177232Y0064406D01*
X0177110Y0064322D01*
X0176986Y0064240D01*
X0176860Y0064163D01*
X0176731Y0064088D01*
X0176601Y0064017D01*
X0176470Y0063949D01*
X0176336Y0063884D01*
X0176201Y0063823D01*
X0176065Y0063765D01*
X0175927Y0063711D01*
X0175787Y0063660D01*
X0175647Y0063613D01*
X0175505Y0063569D01*
X0175362Y0063529D01*
X0175218Y0063493D01*
X0175074Y0063461D01*
X0174928Y0063432D01*
X0174782Y0063407D01*
X0174635Y0063385D01*
X0174488Y0063367D01*
X0174340Y0063353D01*
X0174192Y0063343D01*
X0174044Y0063337D01*
X0173896Y0063334D01*
X0173896Y0063390D01*
X0174047Y0063393D01*
X0174198Y0063400D01*
X0174349Y0063410D01*
X0174499Y0063425D01*
X0174649Y0063443D01*
X0174798Y0063466D01*
X0174947Y0063492D01*
X0175095Y0063522D01*
X0175242Y0063557D01*
X0175388Y0063595D01*
X0175533Y0063636D01*
X0175677Y0063682D01*
X0175820Y0063731D01*
X0175962Y0063784D01*
X0176102Y0063841D01*
X0176240Y0063901D01*
X0176377Y0063965D01*
X0176512Y0064033D01*
X0176645Y0064104D01*
X0176777Y0064179D01*
X0176906Y0064256D01*
X0177033Y0064338D01*
X0177158Y0064422D01*
X0177281Y0064510D01*
X0177402Y0064601D01*
X0177520Y0064696D01*
X0177635Y0064793D01*
X0177748Y0064893D01*
X0177859Y0064996D01*
X0177966Y0065102D01*
X0178071Y0065211D01*
X0178173Y0065322D01*
X0178272Y0065437D01*
X0178368Y0065553D01*
X0178461Y0065672D01*
X0173836Y0075425D02*
X0173836Y0074885D01*
X0173836Y0074886D02*
X0173689Y0074883D01*
X0173542Y0074877D01*
X0173395Y0074867D01*
X0173248Y0074853D01*
X0173102Y0074835D01*
X0172956Y0074813D01*
X0172811Y0074788D01*
X0172667Y0074759D01*
X0172523Y0074727D01*
X0172381Y0074690D01*
X0172239Y0074650D01*
X0172099Y0074607D01*
X0171959Y0074559D01*
X0171821Y0074509D01*
X0171684Y0074454D01*
X0171549Y0074396D01*
X0171415Y0074335D01*
X0171282Y0074271D01*
X0171152Y0074202D01*
X0171023Y0074131D01*
X0170896Y0074056D01*
X0170771Y0073978D01*
X0170649Y0073897D01*
X0170528Y0073813D01*
X0170409Y0073726D01*
X0170293Y0073636D01*
X0170179Y0073542D01*
X0170068Y0073446D01*
X0169959Y0073347D01*
X0169852Y0073245D01*
X0169748Y0073141D01*
X0169647Y0073034D01*
X0169549Y0072924D01*
X0169454Y0072812D01*
X0169361Y0072697D01*
X0168936Y0073028D01*
X0168935Y0073029D01*
X0169033Y0073151D01*
X0169135Y0073271D01*
X0169239Y0073388D01*
X0169346Y0073502D01*
X0169457Y0073614D01*
X0169569Y0073722D01*
X0169685Y0073828D01*
X0169803Y0073931D01*
X0169924Y0074032D01*
X0170047Y0074129D01*
X0170172Y0074223D01*
X0170300Y0074313D01*
X0170430Y0074401D01*
X0170562Y0074485D01*
X0170697Y0074566D01*
X0170833Y0074644D01*
X0170971Y0074718D01*
X0171111Y0074788D01*
X0171253Y0074855D01*
X0171396Y0074919D01*
X0171541Y0074979D01*
X0171687Y0075035D01*
X0171835Y0075088D01*
X0171984Y0075137D01*
X0172134Y0075182D01*
X0172285Y0075223D01*
X0172438Y0075261D01*
X0172591Y0075295D01*
X0172745Y0075325D01*
X0172899Y0075351D01*
X0173054Y0075373D01*
X0173210Y0075392D01*
X0173366Y0075406D01*
X0173523Y0075417D01*
X0173679Y0075423D01*
X0173836Y0075426D01*
X0173836Y0075370D01*
X0173681Y0075367D01*
X0173525Y0075361D01*
X0173370Y0075350D01*
X0173216Y0075336D01*
X0173061Y0075318D01*
X0172908Y0075296D01*
X0172754Y0075270D01*
X0172602Y0075240D01*
X0172450Y0075207D01*
X0172299Y0075169D01*
X0172149Y0075128D01*
X0172001Y0075083D01*
X0171853Y0075035D01*
X0171707Y0074983D01*
X0171562Y0074927D01*
X0171418Y0074868D01*
X0171276Y0074805D01*
X0171136Y0074738D01*
X0170997Y0074668D01*
X0170860Y0074595D01*
X0170725Y0074518D01*
X0170592Y0074438D01*
X0170461Y0074354D01*
X0170332Y0074267D01*
X0170205Y0074177D01*
X0170081Y0074084D01*
X0169959Y0073988D01*
X0169839Y0073889D01*
X0169722Y0073787D01*
X0169608Y0073682D01*
X0169496Y0073574D01*
X0169387Y0073463D01*
X0169281Y0073350D01*
X0169177Y0073234D01*
X0169077Y0073115D01*
X0168979Y0072994D01*
X0169024Y0072960D01*
X0169120Y0073080D01*
X0169220Y0073197D01*
X0169322Y0073312D01*
X0169427Y0073425D01*
X0169536Y0073534D01*
X0169646Y0073641D01*
X0169760Y0073745D01*
X0169876Y0073846D01*
X0169994Y0073945D01*
X0170115Y0074040D01*
X0170239Y0074132D01*
X0170364Y0074221D01*
X0170492Y0074307D01*
X0170622Y0074390D01*
X0170753Y0074469D01*
X0170887Y0074546D01*
X0171023Y0074618D01*
X0171160Y0074688D01*
X0171299Y0074754D01*
X0171440Y0074816D01*
X0171582Y0074875D01*
X0171726Y0074930D01*
X0171871Y0074982D01*
X0172017Y0075030D01*
X0172165Y0075074D01*
X0172313Y0075115D01*
X0172463Y0075152D01*
X0172613Y0075185D01*
X0172764Y0075215D01*
X0172916Y0075240D01*
X0173068Y0075262D01*
X0173221Y0075280D01*
X0173375Y0075294D01*
X0173528Y0075305D01*
X0173682Y0075311D01*
X0173836Y0075314D01*
X0173836Y0075258D01*
X0173683Y0075255D01*
X0173531Y0075249D01*
X0173379Y0075239D01*
X0173227Y0075224D01*
X0173075Y0075207D01*
X0172924Y0075185D01*
X0172774Y0075160D01*
X0172624Y0075130D01*
X0172475Y0075097D01*
X0172327Y0075061D01*
X0172180Y0075021D01*
X0172034Y0074977D01*
X0171889Y0074929D01*
X0171746Y0074878D01*
X0171603Y0074823D01*
X0171462Y0074765D01*
X0171323Y0074703D01*
X0171185Y0074637D01*
X0171049Y0074569D01*
X0170914Y0074497D01*
X0170782Y0074421D01*
X0170651Y0074342D01*
X0170523Y0074260D01*
X0170396Y0074175D01*
X0170272Y0074087D01*
X0170149Y0073996D01*
X0170030Y0073901D01*
X0169912Y0073804D01*
X0169797Y0073704D01*
X0169685Y0073600D01*
X0169575Y0073495D01*
X0169468Y0073386D01*
X0169364Y0073275D01*
X0169262Y0073161D01*
X0169163Y0073044D01*
X0169068Y0072926D01*
X0169112Y0072891D01*
X0169207Y0073009D01*
X0169305Y0073124D01*
X0169405Y0073237D01*
X0169509Y0073347D01*
X0169615Y0073455D01*
X0169723Y0073560D01*
X0169835Y0073662D01*
X0169949Y0073761D01*
X0170065Y0073858D01*
X0170184Y0073951D01*
X0170305Y0074042D01*
X0170428Y0074129D01*
X0170553Y0074214D01*
X0170681Y0074295D01*
X0170810Y0074373D01*
X0170941Y0074448D01*
X0171075Y0074519D01*
X0171210Y0074587D01*
X0171346Y0074652D01*
X0171484Y0074713D01*
X0171624Y0074771D01*
X0171765Y0074825D01*
X0171907Y0074876D01*
X0172051Y0074923D01*
X0172196Y0074967D01*
X0172341Y0075007D01*
X0172488Y0075043D01*
X0172636Y0075075D01*
X0172784Y0075104D01*
X0172933Y0075130D01*
X0173083Y0075151D01*
X0173233Y0075169D01*
X0173383Y0075183D01*
X0173534Y0075193D01*
X0173685Y0075199D01*
X0173836Y0075202D01*
X0173836Y0075146D01*
X0173682Y0075143D01*
X0173528Y0075136D01*
X0173375Y0075126D01*
X0173221Y0075111D01*
X0173068Y0075093D01*
X0172916Y0075070D01*
X0172764Y0075044D01*
X0172613Y0075014D01*
X0172463Y0074979D01*
X0172314Y0074941D01*
X0172166Y0074900D01*
X0172019Y0074854D01*
X0171873Y0074805D01*
X0171728Y0074752D01*
X0171585Y0074695D01*
X0171444Y0074634D01*
X0171304Y0074570D01*
X0171165Y0074503D01*
X0171029Y0074431D01*
X0170894Y0074357D01*
X0170761Y0074279D01*
X0170631Y0074197D01*
X0170502Y0074112D01*
X0170376Y0074024D01*
X0170252Y0073933D01*
X0170130Y0073838D01*
X0170011Y0073741D01*
X0169895Y0073640D01*
X0169781Y0073537D01*
X0169669Y0073430D01*
X0169561Y0073321D01*
X0169455Y0073209D01*
X0169353Y0073094D01*
X0169253Y0072977D01*
X0169156Y0072857D01*
X0169200Y0072823D01*
X0169296Y0072941D01*
X0169395Y0073057D01*
X0169497Y0073171D01*
X0169601Y0073282D01*
X0169709Y0073390D01*
X0169819Y0073496D01*
X0169932Y0073598D01*
X0170047Y0073698D01*
X0170165Y0073795D01*
X0170286Y0073888D01*
X0170409Y0073979D01*
X0170534Y0074066D01*
X0170661Y0074150D01*
X0170790Y0074231D01*
X0170922Y0074308D01*
X0171055Y0074382D01*
X0171190Y0074453D01*
X0171327Y0074520D01*
X0171466Y0074583D01*
X0171606Y0074643D01*
X0171748Y0074699D01*
X0171891Y0074752D01*
X0172036Y0074801D01*
X0172182Y0074846D01*
X0172328Y0074887D01*
X0172476Y0074925D01*
X0172625Y0074959D01*
X0172774Y0074989D01*
X0172925Y0075015D01*
X0173076Y0075037D01*
X0173227Y0075056D01*
X0173379Y0075070D01*
X0173531Y0075081D01*
X0173683Y0075087D01*
X0173836Y0075090D01*
X0173836Y0075034D01*
X0173685Y0075031D01*
X0173534Y0075025D01*
X0173383Y0075014D01*
X0173233Y0075000D01*
X0173083Y0074982D01*
X0172933Y0074960D01*
X0172785Y0074934D01*
X0172636Y0074904D01*
X0172489Y0074870D01*
X0172343Y0074833D01*
X0172197Y0074792D01*
X0172053Y0074747D01*
X0171910Y0074699D01*
X0171768Y0074647D01*
X0171628Y0074591D01*
X0171489Y0074532D01*
X0171351Y0074469D01*
X0171216Y0074403D01*
X0171082Y0074333D01*
X0170950Y0074260D01*
X0170819Y0074183D01*
X0170691Y0074103D01*
X0170565Y0074020D01*
X0170441Y0073933D01*
X0170320Y0073844D01*
X0170200Y0073751D01*
X0170083Y0073655D01*
X0169969Y0073557D01*
X0169857Y0073455D01*
X0169748Y0073351D01*
X0169642Y0073243D01*
X0169538Y0073133D01*
X0169437Y0073021D01*
X0169339Y0072906D01*
X0169245Y0072788D01*
X0169289Y0072754D01*
X0169383Y0072870D01*
X0169480Y0072984D01*
X0169579Y0073096D01*
X0169682Y0073205D01*
X0169788Y0073311D01*
X0169896Y0073414D01*
X0170006Y0073515D01*
X0170120Y0073612D01*
X0170235Y0073707D01*
X0170354Y0073799D01*
X0170474Y0073888D01*
X0170597Y0073973D01*
X0170722Y0074056D01*
X0170849Y0074135D01*
X0170977Y0074211D01*
X0171108Y0074283D01*
X0171241Y0074353D01*
X0171375Y0074418D01*
X0171511Y0074481D01*
X0171649Y0074539D01*
X0171788Y0074595D01*
X0171929Y0074646D01*
X0172070Y0074694D01*
X0172213Y0074738D01*
X0172357Y0074779D01*
X0172502Y0074816D01*
X0172648Y0074849D01*
X0172795Y0074879D01*
X0172942Y0074904D01*
X0173090Y0074926D01*
X0173239Y0074944D01*
X0173388Y0074958D01*
X0173537Y0074969D01*
X0173686Y0074975D01*
X0173836Y0074978D01*
X0173836Y0074922D01*
X0173688Y0074919D01*
X0173540Y0074913D01*
X0173392Y0074902D01*
X0173245Y0074888D01*
X0173097Y0074871D01*
X0172951Y0074849D01*
X0172805Y0074824D01*
X0172660Y0074794D01*
X0172515Y0074762D01*
X0172372Y0074725D01*
X0172229Y0074685D01*
X0172087Y0074641D01*
X0171947Y0074593D01*
X0171808Y0074542D01*
X0171670Y0074488D01*
X0171534Y0074429D01*
X0171399Y0074368D01*
X0171266Y0074303D01*
X0171135Y0074234D01*
X0171005Y0074162D01*
X0170878Y0074087D01*
X0170752Y0074009D01*
X0170628Y0073927D01*
X0170507Y0073842D01*
X0170387Y0073755D01*
X0170270Y0073664D01*
X0170156Y0073570D01*
X0170044Y0073473D01*
X0169934Y0073373D01*
X0169827Y0073271D01*
X0169722Y0073166D01*
X0169621Y0073058D01*
X0169522Y0072948D01*
X0169426Y0072835D01*
X0169333Y0072719D01*
D14*
X0173916Y0060707D02*
X0173916Y0061607D01*
X0173916Y0061606D02*
X0174099Y0061610D01*
X0174282Y0061617D01*
X0174465Y0061630D01*
X0174648Y0061647D01*
X0174830Y0061668D01*
X0175011Y0061693D01*
X0175192Y0061723D01*
X0175372Y0061758D01*
X0175551Y0061796D01*
X0175729Y0061839D01*
X0175906Y0061887D01*
X0176081Y0061938D01*
X0176256Y0061994D01*
X0176429Y0062054D01*
X0176600Y0062119D01*
X0176770Y0062187D01*
X0176939Y0062259D01*
X0177105Y0062336D01*
X0177269Y0062417D01*
X0177432Y0062501D01*
X0177592Y0062590D01*
X0177751Y0062682D01*
X0177907Y0062778D01*
X0178060Y0062878D01*
X0178211Y0062982D01*
X0178360Y0063089D01*
X0178506Y0063200D01*
X0178649Y0063314D01*
X0178789Y0063432D01*
X0178926Y0063553D01*
X0179061Y0063677D01*
X0179192Y0063805D01*
X0179321Y0063936D01*
X0179446Y0064070D01*
X0179567Y0064206D01*
X0179686Y0064346D01*
X0179801Y0064489D01*
X0179912Y0064634D01*
X0180020Y0064782D01*
X0180124Y0064933D01*
X0180225Y0065086D01*
X0180322Y0065241D01*
X0180415Y0065399D01*
X0180504Y0065559D01*
X0181298Y0065136D01*
X0181198Y0064956D01*
X0181094Y0064779D01*
X0180986Y0064605D01*
X0180873Y0064433D01*
X0180756Y0064265D01*
X0180635Y0064099D01*
X0180511Y0063936D01*
X0180382Y0063776D01*
X0180249Y0063619D01*
X0180113Y0063466D01*
X0179973Y0063316D01*
X0179829Y0063169D01*
X0179682Y0063026D01*
X0179531Y0062886D01*
X0179377Y0062751D01*
X0179220Y0062619D01*
X0179060Y0062491D01*
X0178896Y0062366D01*
X0178730Y0062246D01*
X0178560Y0062130D01*
X0178388Y0062018D01*
X0178214Y0061910D01*
X0178036Y0061807D01*
X0177857Y0061708D01*
X0177674Y0061613D01*
X0177490Y0061523D01*
X0177304Y0061437D01*
X0177115Y0061356D01*
X0176925Y0061279D01*
X0176732Y0061207D01*
X0176538Y0061140D01*
X0176343Y0061077D01*
X0176146Y0061019D01*
X0175948Y0060966D01*
X0175748Y0060918D01*
X0175547Y0060875D01*
X0175346Y0060837D01*
X0175143Y0060803D01*
X0174940Y0060775D01*
X0174736Y0060751D01*
X0174531Y0060732D01*
X0174327Y0060719D01*
X0174122Y0060710D01*
X0173916Y0060706D01*
X0173916Y0060800D01*
X0174119Y0060804D01*
X0174322Y0060812D01*
X0174525Y0060826D01*
X0174727Y0060844D01*
X0174928Y0060868D01*
X0175129Y0060896D01*
X0175330Y0060929D01*
X0175529Y0060967D01*
X0175727Y0061010D01*
X0175925Y0061058D01*
X0176121Y0061110D01*
X0176316Y0061167D01*
X0176509Y0061229D01*
X0176701Y0061296D01*
X0176891Y0061367D01*
X0177079Y0061442D01*
X0177265Y0061523D01*
X0177450Y0061608D01*
X0177632Y0061697D01*
X0177812Y0061791D01*
X0177990Y0061889D01*
X0178165Y0061991D01*
X0178338Y0062097D01*
X0178508Y0062208D01*
X0178676Y0062323D01*
X0178840Y0062442D01*
X0179002Y0062565D01*
X0179160Y0062691D01*
X0179316Y0062822D01*
X0179468Y0062956D01*
X0179617Y0063094D01*
X0179763Y0063235D01*
X0179905Y0063380D01*
X0180043Y0063529D01*
X0180178Y0063680D01*
X0180309Y0063835D01*
X0180436Y0063993D01*
X0180560Y0064155D01*
X0180679Y0064319D01*
X0180795Y0064486D01*
X0180906Y0064655D01*
X0181014Y0064828D01*
X0181117Y0065003D01*
X0181215Y0065180D01*
X0181132Y0065224D01*
X0181035Y0065049D01*
X0180933Y0064876D01*
X0180827Y0064706D01*
X0180717Y0064538D01*
X0180603Y0064373D01*
X0180484Y0064211D01*
X0180362Y0064051D01*
X0180236Y0063895D01*
X0180107Y0063742D01*
X0179973Y0063592D01*
X0179837Y0063445D01*
X0179696Y0063302D01*
X0179552Y0063162D01*
X0179405Y0063026D01*
X0179254Y0062893D01*
X0179101Y0062764D01*
X0178944Y0062639D01*
X0178784Y0062517D01*
X0178621Y0062400D01*
X0178456Y0062286D01*
X0178288Y0062177D01*
X0178117Y0062071D01*
X0177944Y0061970D01*
X0177768Y0061873D01*
X0177590Y0061781D01*
X0177410Y0061693D01*
X0177227Y0061609D01*
X0177043Y0061529D01*
X0176857Y0061454D01*
X0176669Y0061384D01*
X0176479Y0061318D01*
X0176288Y0061257D01*
X0176096Y0061201D01*
X0175902Y0061149D01*
X0175707Y0061102D01*
X0175511Y0061059D01*
X0175313Y0061022D01*
X0175115Y0060989D01*
X0174917Y0060961D01*
X0174717Y0060938D01*
X0174518Y0060920D01*
X0174317Y0060906D01*
X0174117Y0060898D01*
X0173916Y0060894D01*
X0173916Y0060988D01*
X0174115Y0060992D01*
X0174313Y0061000D01*
X0174511Y0061013D01*
X0174708Y0061032D01*
X0174905Y0061054D01*
X0175102Y0061082D01*
X0175297Y0061114D01*
X0175492Y0061152D01*
X0175686Y0061193D01*
X0175879Y0061240D01*
X0176071Y0061291D01*
X0176261Y0061347D01*
X0176450Y0061407D01*
X0176637Y0061472D01*
X0176823Y0061542D01*
X0177007Y0061616D01*
X0177189Y0061695D01*
X0177369Y0061778D01*
X0177548Y0061865D01*
X0177724Y0061956D01*
X0177897Y0062052D01*
X0178069Y0062152D01*
X0178237Y0062256D01*
X0178404Y0062364D01*
X0178567Y0062477D01*
X0178728Y0062593D01*
X0178886Y0062713D01*
X0179041Y0062837D01*
X0179193Y0062964D01*
X0179342Y0063095D01*
X0179487Y0063230D01*
X0179630Y0063368D01*
X0179768Y0063510D01*
X0179904Y0063655D01*
X0180036Y0063803D01*
X0180164Y0063955D01*
X0180288Y0064109D01*
X0180409Y0064266D01*
X0180526Y0064427D01*
X0180639Y0064590D01*
X0180747Y0064756D01*
X0180852Y0064924D01*
X0180953Y0065095D01*
X0181049Y0065268D01*
X0180967Y0065313D01*
X0180871Y0065141D01*
X0180772Y0064972D01*
X0180668Y0064806D01*
X0180560Y0064642D01*
X0180449Y0064481D01*
X0180333Y0064322D01*
X0180214Y0064167D01*
X0180091Y0064014D01*
X0179964Y0063865D01*
X0179834Y0063718D01*
X0179700Y0063575D01*
X0179563Y0063435D01*
X0179422Y0063298D01*
X0179279Y0063165D01*
X0179132Y0063035D01*
X0178981Y0062909D01*
X0178828Y0062787D01*
X0178672Y0062668D01*
X0178513Y0062553D01*
X0178351Y0062443D01*
X0178187Y0062336D01*
X0178020Y0062233D01*
X0177851Y0062134D01*
X0177679Y0062039D01*
X0177505Y0061949D01*
X0177329Y0061862D01*
X0177151Y0061781D01*
X0176971Y0061703D01*
X0176789Y0061630D01*
X0176606Y0061561D01*
X0176420Y0061497D01*
X0176234Y0061437D01*
X0176046Y0061382D01*
X0175856Y0061331D01*
X0175666Y0061285D01*
X0175474Y0061244D01*
X0175281Y0061207D01*
X0175088Y0061175D01*
X0174894Y0061148D01*
X0174699Y0061125D01*
X0174504Y0061107D01*
X0174308Y0061094D01*
X0174112Y0061086D01*
X0173916Y0061082D01*
X0173916Y0061176D01*
X0174110Y0061180D01*
X0174304Y0061188D01*
X0174497Y0061201D01*
X0174690Y0061219D01*
X0174882Y0061241D01*
X0175074Y0061268D01*
X0175265Y0061300D01*
X0175456Y0061336D01*
X0175645Y0061377D01*
X0175833Y0061422D01*
X0176020Y0061472D01*
X0176206Y0061527D01*
X0176391Y0061586D01*
X0176574Y0061649D01*
X0176755Y0061717D01*
X0176935Y0061790D01*
X0177113Y0061866D01*
X0177289Y0061947D01*
X0177463Y0062033D01*
X0177635Y0062122D01*
X0177805Y0062216D01*
X0177972Y0062313D01*
X0178137Y0062415D01*
X0178299Y0062521D01*
X0178459Y0062630D01*
X0178616Y0062744D01*
X0178770Y0062861D01*
X0178922Y0062982D01*
X0179070Y0063106D01*
X0179215Y0063234D01*
X0179358Y0063366D01*
X0179497Y0063501D01*
X0179632Y0063639D01*
X0179764Y0063781D01*
X0179893Y0063926D01*
X0180018Y0064074D01*
X0180140Y0064225D01*
X0180258Y0064378D01*
X0180372Y0064535D01*
X0180482Y0064694D01*
X0180588Y0064856D01*
X0180691Y0065021D01*
X0180789Y0065188D01*
X0180884Y0065357D01*
X0180801Y0065401D01*
X0180707Y0065234D01*
X0180610Y0065069D01*
X0180509Y0064906D01*
X0180404Y0064746D01*
X0180295Y0064589D01*
X0180182Y0064434D01*
X0180066Y0064282D01*
X0179946Y0064133D01*
X0179822Y0063987D01*
X0179695Y0063844D01*
X0179564Y0063704D01*
X0179430Y0063568D01*
X0179293Y0063434D01*
X0179152Y0063304D01*
X0179009Y0063177D01*
X0178862Y0063054D01*
X0178712Y0062935D01*
X0178560Y0062819D01*
X0178405Y0062707D01*
X0178247Y0062599D01*
X0178086Y0062494D01*
X0177923Y0062394D01*
X0177758Y0062297D01*
X0177591Y0062205D01*
X0177421Y0062117D01*
X0177249Y0062032D01*
X0177075Y0061952D01*
X0176899Y0061877D01*
X0176721Y0061805D01*
X0176542Y0061738D01*
X0176361Y0061675D01*
X0176179Y0061617D01*
X0175995Y0061563D01*
X0175810Y0061513D01*
X0175624Y0061469D01*
X0175437Y0061428D01*
X0175249Y0061392D01*
X0175060Y0061361D01*
X0174871Y0061334D01*
X0174681Y0061312D01*
X0174490Y0061295D01*
X0174299Y0061282D01*
X0174108Y0061274D01*
X0173916Y0061270D01*
X0173916Y0061364D01*
X0174105Y0061368D01*
X0174294Y0061376D01*
X0174483Y0061388D01*
X0174671Y0061406D01*
X0174859Y0061428D01*
X0175046Y0061454D01*
X0175233Y0061485D01*
X0175419Y0061520D01*
X0175604Y0061560D01*
X0175788Y0061605D01*
X0175970Y0061654D01*
X0176152Y0061707D01*
X0176332Y0061764D01*
X0176510Y0061826D01*
X0176688Y0061893D01*
X0176863Y0061963D01*
X0177037Y0062038D01*
X0177209Y0062117D01*
X0177378Y0062201D01*
X0177546Y0062288D01*
X0177712Y0062379D01*
X0177875Y0062475D01*
X0178036Y0062574D01*
X0178195Y0062677D01*
X0178351Y0062784D01*
X0178504Y0062895D01*
X0178655Y0063009D01*
X0178802Y0063127D01*
X0178947Y0063249D01*
X0179089Y0063374D01*
X0179228Y0063502D01*
X0179363Y0063634D01*
X0179496Y0063769D01*
X0179625Y0063907D01*
X0179751Y0064049D01*
X0179873Y0064193D01*
X0179992Y0064340D01*
X0180107Y0064490D01*
X0180218Y0064643D01*
X0180326Y0064799D01*
X0180430Y0064957D01*
X0180530Y0065117D01*
X0180626Y0065280D01*
X0180718Y0065445D01*
X0180635Y0065490D01*
X0180544Y0065326D01*
X0180449Y0065165D01*
X0180350Y0065007D01*
X0180248Y0064851D01*
X0180141Y0064697D01*
X0180031Y0064546D01*
X0179917Y0064398D01*
X0179800Y0064252D01*
X0179679Y0064110D01*
X0179555Y0063970D01*
X0179428Y0063834D01*
X0179297Y0063700D01*
X0179163Y0063570D01*
X0179026Y0063443D01*
X0178886Y0063320D01*
X0178743Y0063200D01*
X0178597Y0063083D01*
X0178448Y0062970D01*
X0178296Y0062861D01*
X0178142Y0062755D01*
X0177986Y0062653D01*
X0177827Y0062555D01*
X0177665Y0062461D01*
X0177502Y0062371D01*
X0177336Y0062284D01*
X0177168Y0062202D01*
X0176999Y0062124D01*
X0176827Y0062050D01*
X0176654Y0061981D01*
X0176479Y0061915D01*
X0176302Y0061854D01*
X0176124Y0061797D01*
X0175945Y0061744D01*
X0175765Y0061696D01*
X0175583Y0061652D01*
X0175400Y0061612D01*
X0175217Y0061577D01*
X0175033Y0061547D01*
X0174848Y0061521D01*
X0174662Y0061499D01*
X0174476Y0061482D01*
X0174290Y0061470D01*
X0174103Y0061462D01*
X0173916Y0061458D01*
X0173916Y0061552D01*
X0174101Y0061556D01*
X0174285Y0061564D01*
X0174469Y0061576D01*
X0174653Y0061593D01*
X0174836Y0061614D01*
X0175019Y0061640D01*
X0175201Y0061670D01*
X0175382Y0061705D01*
X0175562Y0061744D01*
X0175742Y0061787D01*
X0175920Y0061835D01*
X0176097Y0061887D01*
X0176273Y0061943D01*
X0176447Y0062003D01*
X0176620Y0062068D01*
X0176791Y0062137D01*
X0176960Y0062210D01*
X0177128Y0062287D01*
X0177294Y0062368D01*
X0177457Y0062454D01*
X0177619Y0062543D01*
X0177778Y0062636D01*
X0177935Y0062733D01*
X0178090Y0062833D01*
X0178242Y0062938D01*
X0178392Y0063046D01*
X0178539Y0063157D01*
X0178683Y0063272D01*
X0178824Y0063391D01*
X0178963Y0063513D01*
X0179098Y0063638D01*
X0179230Y0063767D01*
X0179360Y0063899D01*
X0179486Y0064033D01*
X0179608Y0064171D01*
X0179727Y0064312D01*
X0179843Y0064456D01*
X0179956Y0064602D01*
X0180064Y0064751D01*
X0180169Y0064903D01*
X0180271Y0065057D01*
X0180368Y0065214D01*
X0180462Y0065373D01*
X0180552Y0065534D01*
X0181177Y0073391D02*
X0180396Y0072945D01*
X0180303Y0073102D01*
X0180206Y0073256D01*
X0180105Y0073408D01*
X0180000Y0073557D01*
X0179892Y0073704D01*
X0179781Y0073849D01*
X0179666Y0073990D01*
X0179547Y0074129D01*
X0179425Y0074264D01*
X0179300Y0074397D01*
X0179172Y0074527D01*
X0179041Y0074653D01*
X0178907Y0074777D01*
X0178770Y0074897D01*
X0178630Y0075014D01*
X0178487Y0075127D01*
X0178341Y0075237D01*
X0178193Y0075343D01*
X0178042Y0075446D01*
X0177889Y0075545D01*
X0177734Y0075640D01*
X0177576Y0075731D01*
X0177416Y0075819D01*
X0177254Y0075903D01*
X0177091Y0075983D01*
X0176925Y0076059D01*
X0176757Y0076130D01*
X0176588Y0076198D01*
X0176417Y0076262D01*
X0176245Y0076321D01*
X0176071Y0076377D01*
X0175896Y0076428D01*
X0175720Y0076475D01*
X0175543Y0076517D01*
X0175364Y0076556D01*
X0175185Y0076590D01*
X0175005Y0076620D01*
X0174825Y0076645D01*
X0174644Y0076666D01*
X0174462Y0076682D01*
X0174280Y0076695D01*
X0174098Y0076702D01*
X0173916Y0076706D01*
X0173915Y0077605D01*
X0173916Y0077606D01*
X0174120Y0077602D01*
X0174324Y0077594D01*
X0174528Y0077580D01*
X0174732Y0077562D01*
X0174935Y0077538D01*
X0175137Y0077510D01*
X0175339Y0077477D01*
X0175539Y0077439D01*
X0175739Y0077396D01*
X0175938Y0077348D01*
X0176135Y0077296D01*
X0176331Y0077238D01*
X0176526Y0077176D01*
X0176719Y0077110D01*
X0176911Y0077038D01*
X0177100Y0076962D01*
X0177288Y0076882D01*
X0177474Y0076797D01*
X0177658Y0076707D01*
X0177839Y0076614D01*
X0178018Y0076515D01*
X0178195Y0076413D01*
X0178369Y0076306D01*
X0178541Y0076195D01*
X0178710Y0076080D01*
X0178876Y0075961D01*
X0179039Y0075838D01*
X0179199Y0075711D01*
X0179356Y0075580D01*
X0179510Y0075445D01*
X0179660Y0075307D01*
X0179807Y0075165D01*
X0179951Y0075020D01*
X0180091Y0074871D01*
X0180227Y0074719D01*
X0180360Y0074563D01*
X0180488Y0074405D01*
X0180613Y0074243D01*
X0180734Y0074078D01*
X0180851Y0073911D01*
X0180964Y0073740D01*
X0181073Y0073567D01*
X0181178Y0073392D01*
X0181096Y0073345D01*
X0180993Y0073519D01*
X0180885Y0073690D01*
X0180773Y0073858D01*
X0180658Y0074024D01*
X0180538Y0074187D01*
X0180414Y0074346D01*
X0180287Y0074503D01*
X0180156Y0074657D01*
X0180021Y0074807D01*
X0179883Y0074955D01*
X0179741Y0075098D01*
X0179595Y0075239D01*
X0179447Y0075375D01*
X0179295Y0075508D01*
X0179139Y0075638D01*
X0178981Y0075763D01*
X0178820Y0075885D01*
X0178656Y0076003D01*
X0178489Y0076117D01*
X0178319Y0076226D01*
X0178147Y0076332D01*
X0177972Y0076433D01*
X0177795Y0076531D01*
X0177616Y0076623D01*
X0177434Y0076712D01*
X0177250Y0076796D01*
X0177065Y0076876D01*
X0176877Y0076951D01*
X0176688Y0077021D01*
X0176497Y0077087D01*
X0176304Y0077148D01*
X0176110Y0077205D01*
X0175915Y0077257D01*
X0175719Y0077304D01*
X0175521Y0077346D01*
X0175323Y0077384D01*
X0175123Y0077417D01*
X0174923Y0077445D01*
X0174722Y0077468D01*
X0174521Y0077486D01*
X0174320Y0077500D01*
X0174118Y0077508D01*
X0173916Y0077512D01*
X0173916Y0077418D01*
X0174115Y0077414D01*
X0174315Y0077406D01*
X0174514Y0077393D01*
X0174713Y0077374D01*
X0174912Y0077352D01*
X0175109Y0077324D01*
X0175307Y0077291D01*
X0175503Y0077254D01*
X0175698Y0077212D01*
X0175892Y0077166D01*
X0176085Y0077114D01*
X0176277Y0077058D01*
X0176467Y0076998D01*
X0176656Y0076933D01*
X0176843Y0076863D01*
X0177029Y0076789D01*
X0177212Y0076710D01*
X0177394Y0076627D01*
X0177574Y0076539D01*
X0177751Y0076448D01*
X0177926Y0076352D01*
X0178099Y0076251D01*
X0178269Y0076147D01*
X0178437Y0076038D01*
X0178602Y0075926D01*
X0178764Y0075810D01*
X0178923Y0075689D01*
X0179080Y0075565D01*
X0179233Y0075437D01*
X0179384Y0075306D01*
X0179531Y0075170D01*
X0179674Y0075032D01*
X0179815Y0074890D01*
X0179952Y0074744D01*
X0180085Y0074595D01*
X0180215Y0074443D01*
X0180341Y0074288D01*
X0180463Y0074130D01*
X0180581Y0073969D01*
X0180695Y0073806D01*
X0180806Y0073639D01*
X0180912Y0073470D01*
X0181014Y0073299D01*
X0180933Y0073252D01*
X0180832Y0073422D01*
X0180727Y0073589D01*
X0180617Y0073753D01*
X0180504Y0073915D01*
X0180387Y0074074D01*
X0180267Y0074230D01*
X0180142Y0074384D01*
X0180014Y0074534D01*
X0179882Y0074681D01*
X0179747Y0074825D01*
X0179608Y0074965D01*
X0179466Y0075102D01*
X0179321Y0075236D01*
X0179172Y0075366D01*
X0179020Y0075492D01*
X0178866Y0075615D01*
X0178708Y0075734D01*
X0178548Y0075849D01*
X0178385Y0075960D01*
X0178219Y0076067D01*
X0178051Y0076171D01*
X0177880Y0076270D01*
X0177707Y0076365D01*
X0177531Y0076455D01*
X0177354Y0076542D01*
X0177174Y0076624D01*
X0176993Y0076702D01*
X0176810Y0076775D01*
X0176625Y0076844D01*
X0176438Y0076908D01*
X0176250Y0076968D01*
X0176060Y0077024D01*
X0175870Y0077074D01*
X0175678Y0077121D01*
X0175485Y0077162D01*
X0175291Y0077199D01*
X0175096Y0077231D01*
X0174900Y0077258D01*
X0174704Y0077281D01*
X0174507Y0077299D01*
X0174310Y0077312D01*
X0174113Y0077320D01*
X0173916Y0077324D01*
X0173916Y0077230D01*
X0174111Y0077226D01*
X0174306Y0077218D01*
X0174501Y0077205D01*
X0174695Y0077187D01*
X0174889Y0077165D01*
X0175082Y0077138D01*
X0175275Y0077106D01*
X0175466Y0077070D01*
X0175657Y0077029D01*
X0175847Y0076983D01*
X0176035Y0076933D01*
X0176223Y0076878D01*
X0176409Y0076819D01*
X0176593Y0076756D01*
X0176776Y0076687D01*
X0176957Y0076615D01*
X0177136Y0076538D01*
X0177314Y0076457D01*
X0177489Y0076371D01*
X0177663Y0076282D01*
X0177834Y0076188D01*
X0178002Y0076090D01*
X0178169Y0075988D01*
X0178333Y0075882D01*
X0178494Y0075772D01*
X0178652Y0075658D01*
X0178808Y0075541D01*
X0178961Y0075419D01*
X0179111Y0075294D01*
X0179258Y0075166D01*
X0179401Y0075034D01*
X0179542Y0074898D01*
X0179679Y0074759D01*
X0179813Y0074617D01*
X0179943Y0074472D01*
X0180070Y0074324D01*
X0180193Y0074172D01*
X0180312Y0074018D01*
X0180428Y0073861D01*
X0180539Y0073701D01*
X0180647Y0073538D01*
X0180751Y0073373D01*
X0180851Y0073205D01*
X0180770Y0073159D01*
X0180671Y0073324D01*
X0180568Y0073488D01*
X0180461Y0073648D01*
X0180351Y0073806D01*
X0180237Y0073962D01*
X0180119Y0074114D01*
X0179997Y0074264D01*
X0179872Y0074410D01*
X0179743Y0074554D01*
X0179611Y0074694D01*
X0179476Y0074832D01*
X0179337Y0074966D01*
X0179195Y0075096D01*
X0179050Y0075223D01*
X0178902Y0075347D01*
X0178751Y0075466D01*
X0178597Y0075583D01*
X0178440Y0075695D01*
X0178281Y0075804D01*
X0178119Y0075908D01*
X0177954Y0076009D01*
X0177788Y0076106D01*
X0177618Y0076199D01*
X0177447Y0076287D01*
X0177274Y0076372D01*
X0177098Y0076452D01*
X0176921Y0076528D01*
X0176742Y0076600D01*
X0176561Y0076667D01*
X0176379Y0076730D01*
X0176195Y0076788D01*
X0176010Y0076842D01*
X0175824Y0076892D01*
X0175636Y0076937D01*
X0175448Y0076978D01*
X0175259Y0077014D01*
X0175068Y0077045D01*
X0174877Y0077072D01*
X0174686Y0077094D01*
X0174494Y0077111D01*
X0174301Y0077124D01*
X0174109Y0077132D01*
X0173916Y0077136D01*
X0173916Y0077042D01*
X0174106Y0077038D01*
X0174297Y0077030D01*
X0174487Y0077018D01*
X0174677Y0077000D01*
X0174866Y0076978D01*
X0175054Y0076952D01*
X0175242Y0076921D01*
X0175430Y0076885D01*
X0175616Y0076845D01*
X0175801Y0076801D01*
X0175985Y0076752D01*
X0176168Y0076698D01*
X0176350Y0076641D01*
X0176530Y0076578D01*
X0176708Y0076512D01*
X0176885Y0076441D01*
X0177060Y0076366D01*
X0177234Y0076287D01*
X0177405Y0076203D01*
X0177574Y0076116D01*
X0177741Y0076024D01*
X0177906Y0075928D01*
X0178069Y0075829D01*
X0178229Y0075725D01*
X0178386Y0075618D01*
X0178541Y0075507D01*
X0178693Y0075392D01*
X0178842Y0075274D01*
X0178988Y0075152D01*
X0179132Y0075026D01*
X0179272Y0074897D01*
X0179409Y0074765D01*
X0179543Y0074629D01*
X0179674Y0074491D01*
X0179801Y0074349D01*
X0179925Y0074204D01*
X0180045Y0074056D01*
X0180161Y0073905D01*
X0180274Y0073752D01*
X0180383Y0073596D01*
X0180489Y0073437D01*
X0180590Y0073276D01*
X0180688Y0073112D01*
X0180606Y0073065D01*
X0180510Y0073227D01*
X0180410Y0073386D01*
X0180306Y0073543D01*
X0180198Y0073698D01*
X0180086Y0073849D01*
X0179971Y0073998D01*
X0179852Y0074144D01*
X0179730Y0074287D01*
X0179604Y0074427D01*
X0179475Y0074564D01*
X0179343Y0074698D01*
X0179207Y0074829D01*
X0179069Y0074956D01*
X0178927Y0075080D01*
X0178783Y0075201D01*
X0178635Y0075318D01*
X0178485Y0075431D01*
X0178332Y0075541D01*
X0178176Y0075647D01*
X0178018Y0075749D01*
X0177858Y0075848D01*
X0177695Y0075942D01*
X0177530Y0076033D01*
X0177363Y0076119D01*
X0177194Y0076202D01*
X0177023Y0076280D01*
X0176850Y0076354D01*
X0176675Y0076424D01*
X0176498Y0076490D01*
X0176320Y0076551D01*
X0176141Y0076608D01*
X0175960Y0076661D01*
X0175778Y0076710D01*
X0175595Y0076754D01*
X0175411Y0076793D01*
X0175226Y0076828D01*
X0175041Y0076859D01*
X0174854Y0076885D01*
X0174667Y0076907D01*
X0174480Y0076924D01*
X0174292Y0076936D01*
X0174104Y0076944D01*
X0173916Y0076948D01*
X0173916Y0076854D01*
X0174102Y0076850D01*
X0174287Y0076842D01*
X0174473Y0076830D01*
X0174658Y0076813D01*
X0174843Y0076792D01*
X0175027Y0076766D01*
X0175210Y0076736D01*
X0175393Y0076701D01*
X0175575Y0076662D01*
X0175756Y0076618D01*
X0175935Y0076571D01*
X0176114Y0076518D01*
X0176291Y0076462D01*
X0176467Y0076401D01*
X0176641Y0076336D01*
X0176814Y0076267D01*
X0176985Y0076194D01*
X0177154Y0076117D01*
X0177321Y0076035D01*
X0177486Y0075950D01*
X0177649Y0075860D01*
X0177810Y0075767D01*
X0177968Y0075670D01*
X0178124Y0075569D01*
X0178278Y0075464D01*
X0178429Y0075356D01*
X0178578Y0075244D01*
X0178723Y0075128D01*
X0178866Y0075009D01*
X0179006Y0074887D01*
X0179143Y0074761D01*
X0179277Y0074632D01*
X0179407Y0074499D01*
X0179535Y0074364D01*
X0179659Y0074226D01*
X0179780Y0074084D01*
X0179897Y0073940D01*
X0180011Y0073793D01*
X0180121Y0073643D01*
X0180228Y0073491D01*
X0180330Y0073336D01*
X0180429Y0073178D01*
X0180525Y0073019D01*
X0180443Y0072972D01*
X0180349Y0073130D01*
X0180251Y0073285D01*
X0180150Y0073438D01*
X0180044Y0073589D01*
X0179935Y0073737D01*
X0179823Y0073882D01*
X0179707Y0074024D01*
X0179588Y0074164D01*
X0179465Y0074301D01*
X0179339Y0074434D01*
X0179210Y0074565D01*
X0179078Y0074693D01*
X0178943Y0074817D01*
X0178805Y0074938D01*
X0178664Y0075055D01*
X0178520Y0075169D01*
X0178373Y0075280D01*
X0178224Y0075387D01*
X0178072Y0075491D01*
X0177918Y0075590D01*
X0177762Y0075686D01*
X0177603Y0075778D01*
X0177442Y0075867D01*
X0177279Y0075951D01*
X0177114Y0076032D01*
X0176947Y0076108D01*
X0176778Y0076180D01*
X0176607Y0076249D01*
X0176435Y0076313D01*
X0176262Y0076373D01*
X0176087Y0076429D01*
X0175910Y0076480D01*
X0175733Y0076527D01*
X0175554Y0076570D01*
X0175375Y0076609D01*
X0175194Y0076643D01*
X0175013Y0076673D01*
X0174831Y0076698D01*
X0174649Y0076720D01*
X0174466Y0076736D01*
X0174283Y0076749D01*
X0174099Y0076756D01*
X0173916Y0076760D01*
X0173817Y0077605D02*
X0173817Y0076705D01*
X0173816Y0076706D02*
X0173632Y0076702D01*
X0173447Y0076694D01*
X0173263Y0076682D01*
X0173080Y0076665D01*
X0172896Y0076643D01*
X0172714Y0076618D01*
X0172532Y0076587D01*
X0172351Y0076552D01*
X0172170Y0076513D01*
X0171991Y0076469D01*
X0171813Y0076421D01*
X0171636Y0076369D01*
X0171460Y0076312D01*
X0171286Y0076252D01*
X0171114Y0076186D01*
X0170943Y0076117D01*
X0170773Y0076044D01*
X0170606Y0075966D01*
X0170441Y0075884D01*
X0170277Y0075799D01*
X0170116Y0075709D01*
X0169957Y0075615D01*
X0169800Y0075518D01*
X0169646Y0075417D01*
X0169494Y0075312D01*
X0169345Y0075203D01*
X0169199Y0075091D01*
X0169055Y0074975D01*
X0168915Y0074856D01*
X0168777Y0074733D01*
X0168642Y0074607D01*
X0168510Y0074478D01*
X0168382Y0074345D01*
X0168257Y0074210D01*
X0168135Y0074071D01*
X0167448Y0074652D01*
X0167584Y0074808D01*
X0167725Y0074960D01*
X0167869Y0075109D01*
X0168016Y0075254D01*
X0168167Y0075395D01*
X0168321Y0075532D01*
X0168479Y0075666D01*
X0168640Y0075796D01*
X0168804Y0075922D01*
X0168971Y0076044D01*
X0169141Y0076162D01*
X0169314Y0076275D01*
X0169490Y0076384D01*
X0169668Y0076489D01*
X0169849Y0076590D01*
X0170032Y0076686D01*
X0170217Y0076778D01*
X0170405Y0076865D01*
X0170595Y0076947D01*
X0170786Y0077025D01*
X0170980Y0077098D01*
X0171175Y0077166D01*
X0171372Y0077230D01*
X0171570Y0077288D01*
X0171770Y0077342D01*
X0171971Y0077391D01*
X0172173Y0077435D01*
X0172376Y0077474D01*
X0172580Y0077508D01*
X0172785Y0077537D01*
X0172990Y0077561D01*
X0173196Y0077579D01*
X0173403Y0077593D01*
X0173609Y0077602D01*
X0173816Y0077606D01*
X0173816Y0077512D01*
X0173612Y0077508D01*
X0173407Y0077499D01*
X0173203Y0077486D01*
X0173000Y0077467D01*
X0172797Y0077443D01*
X0172594Y0077415D01*
X0172392Y0077381D01*
X0172192Y0077343D01*
X0171992Y0077299D01*
X0171793Y0077251D01*
X0171596Y0077198D01*
X0171399Y0077140D01*
X0171205Y0077077D01*
X0171012Y0077009D01*
X0170820Y0076937D01*
X0170631Y0076860D01*
X0170443Y0076779D01*
X0170258Y0076693D01*
X0170075Y0076602D01*
X0169893Y0076507D01*
X0169715Y0076408D01*
X0169539Y0076304D01*
X0169365Y0076196D01*
X0169194Y0076084D01*
X0169026Y0075967D01*
X0168861Y0075847D01*
X0168698Y0075722D01*
X0168539Y0075594D01*
X0168383Y0075462D01*
X0168231Y0075326D01*
X0168081Y0075186D01*
X0167936Y0075043D01*
X0167793Y0074896D01*
X0167655Y0074745D01*
X0167520Y0074592D01*
X0167591Y0074531D01*
X0167725Y0074683D01*
X0167862Y0074832D01*
X0168003Y0074977D01*
X0168147Y0075118D01*
X0168294Y0075257D01*
X0168445Y0075391D01*
X0168599Y0075522D01*
X0168757Y0075649D01*
X0168917Y0075772D01*
X0169081Y0075891D01*
X0169247Y0076006D01*
X0169416Y0076117D01*
X0169587Y0076224D01*
X0169762Y0076326D01*
X0169938Y0076425D01*
X0170117Y0076519D01*
X0170299Y0076608D01*
X0170482Y0076693D01*
X0170667Y0076774D01*
X0170855Y0076850D01*
X0171044Y0076921D01*
X0171235Y0076988D01*
X0171427Y0077050D01*
X0171621Y0077107D01*
X0171816Y0077160D01*
X0172013Y0077207D01*
X0172210Y0077250D01*
X0172409Y0077288D01*
X0172608Y0077322D01*
X0172808Y0077350D01*
X0173009Y0077373D01*
X0173210Y0077392D01*
X0173412Y0077406D01*
X0173614Y0077414D01*
X0173816Y0077418D01*
X0173816Y0077324D01*
X0173616Y0077320D01*
X0173417Y0077312D01*
X0173217Y0077298D01*
X0173018Y0077280D01*
X0172820Y0077257D01*
X0172622Y0077229D01*
X0172425Y0077196D01*
X0172229Y0077158D01*
X0172033Y0077116D01*
X0171839Y0077069D01*
X0171646Y0077017D01*
X0171455Y0076960D01*
X0171264Y0076899D01*
X0171076Y0076833D01*
X0170889Y0076762D01*
X0170704Y0076687D01*
X0170520Y0076607D01*
X0170339Y0076523D01*
X0170160Y0076435D01*
X0169983Y0076342D01*
X0169808Y0076245D01*
X0169636Y0076143D01*
X0169467Y0076038D01*
X0169299Y0075928D01*
X0169135Y0075814D01*
X0168974Y0075697D01*
X0168815Y0075575D01*
X0168660Y0075450D01*
X0168507Y0075320D01*
X0168358Y0075187D01*
X0168212Y0075051D01*
X0168070Y0074911D01*
X0167931Y0074767D01*
X0167795Y0074620D01*
X0167663Y0074470D01*
X0167735Y0074410D01*
X0167865Y0074558D01*
X0167999Y0074703D01*
X0168137Y0074845D01*
X0168278Y0074983D01*
X0168422Y0075118D01*
X0168569Y0075250D01*
X0168720Y0075377D01*
X0168874Y0075501D01*
X0169030Y0075622D01*
X0169190Y0075738D01*
X0169352Y0075850D01*
X0169517Y0075959D01*
X0169685Y0076063D01*
X0169855Y0076163D01*
X0170028Y0076259D01*
X0170203Y0076351D01*
X0170380Y0076439D01*
X0170559Y0076522D01*
X0170740Y0076600D01*
X0170923Y0076675D01*
X0171108Y0076744D01*
X0171294Y0076809D01*
X0171482Y0076870D01*
X0171672Y0076926D01*
X0171862Y0076977D01*
X0172054Y0077024D01*
X0172247Y0077066D01*
X0172441Y0077103D01*
X0172636Y0077136D01*
X0172832Y0077163D01*
X0173028Y0077186D01*
X0173224Y0077204D01*
X0173421Y0077218D01*
X0173619Y0077226D01*
X0173816Y0077230D01*
X0173816Y0077136D01*
X0173621Y0077132D01*
X0173426Y0077124D01*
X0173231Y0077111D01*
X0173037Y0077093D01*
X0172843Y0077070D01*
X0172650Y0077043D01*
X0172457Y0077011D01*
X0172266Y0076974D01*
X0172075Y0076932D01*
X0171885Y0076886D01*
X0171697Y0076836D01*
X0171510Y0076780D01*
X0171324Y0076720D01*
X0171140Y0076656D01*
X0170957Y0076587D01*
X0170776Y0076514D01*
X0170597Y0076436D01*
X0170420Y0076354D01*
X0170245Y0076267D01*
X0170073Y0076177D01*
X0169902Y0076082D01*
X0169734Y0075983D01*
X0169568Y0075880D01*
X0169405Y0075773D01*
X0169244Y0075662D01*
X0169087Y0075547D01*
X0168932Y0075428D01*
X0168780Y0075305D01*
X0168631Y0075179D01*
X0168485Y0075049D01*
X0168343Y0074916D01*
X0168204Y0074779D01*
X0168068Y0074639D01*
X0167936Y0074495D01*
X0167807Y0074349D01*
X0167879Y0074288D01*
X0168006Y0074433D01*
X0168137Y0074575D01*
X0168271Y0074713D01*
X0168408Y0074848D01*
X0168549Y0074980D01*
X0168693Y0075108D01*
X0168840Y0075233D01*
X0168990Y0075354D01*
X0169143Y0075471D01*
X0169299Y0075585D01*
X0169458Y0075695D01*
X0169619Y0075801D01*
X0169783Y0075902D01*
X0169949Y0076000D01*
X0170117Y0076094D01*
X0170288Y0076184D01*
X0170461Y0076269D01*
X0170636Y0076350D01*
X0170813Y0076427D01*
X0170991Y0076499D01*
X0171172Y0076568D01*
X0171354Y0076631D01*
X0171537Y0076690D01*
X0171722Y0076745D01*
X0171908Y0076795D01*
X0172096Y0076841D01*
X0172284Y0076882D01*
X0172474Y0076918D01*
X0172664Y0076950D01*
X0172855Y0076977D01*
X0173046Y0076999D01*
X0173238Y0077017D01*
X0173431Y0077030D01*
X0173623Y0077038D01*
X0173816Y0077042D01*
X0173816Y0076948D01*
X0173626Y0076944D01*
X0173435Y0076936D01*
X0173245Y0076923D01*
X0173056Y0076906D01*
X0172866Y0076884D01*
X0172678Y0076857D01*
X0172490Y0076826D01*
X0172303Y0076790D01*
X0172117Y0076749D01*
X0171932Y0076704D01*
X0171748Y0076655D01*
X0171565Y0076600D01*
X0171384Y0076542D01*
X0171204Y0076479D01*
X0171026Y0076412D01*
X0170849Y0076340D01*
X0170674Y0076264D01*
X0170502Y0076184D01*
X0170331Y0076100D01*
X0170162Y0076011D01*
X0169996Y0075919D01*
X0169831Y0075822D01*
X0169670Y0075722D01*
X0169510Y0075617D01*
X0169354Y0075509D01*
X0169200Y0075396D01*
X0169049Y0075280D01*
X0168900Y0075161D01*
X0168755Y0075038D01*
X0168613Y0074911D01*
X0168474Y0074781D01*
X0168338Y0074647D01*
X0168205Y0074511D01*
X0168076Y0074371D01*
X0167950Y0074227D01*
X0168022Y0074167D01*
X0168146Y0074308D01*
X0168274Y0074446D01*
X0168405Y0074581D01*
X0168539Y0074713D01*
X0168676Y0074842D01*
X0168817Y0074967D01*
X0168961Y0075089D01*
X0169107Y0075207D01*
X0169256Y0075321D01*
X0169408Y0075432D01*
X0169563Y0075539D01*
X0169720Y0075642D01*
X0169880Y0075742D01*
X0170042Y0075837D01*
X0170207Y0075929D01*
X0170373Y0076016D01*
X0170542Y0076099D01*
X0170713Y0076179D01*
X0170885Y0076254D01*
X0171060Y0076324D01*
X0171236Y0076391D01*
X0171413Y0076453D01*
X0171593Y0076511D01*
X0171773Y0076564D01*
X0171955Y0076613D01*
X0172137Y0076657D01*
X0172321Y0076697D01*
X0172506Y0076733D01*
X0172692Y0076764D01*
X0172878Y0076790D01*
X0173065Y0076812D01*
X0173252Y0076829D01*
X0173440Y0076842D01*
X0173628Y0076850D01*
X0173816Y0076854D01*
X0173816Y0076760D01*
X0173630Y0076756D01*
X0173445Y0076748D01*
X0173259Y0076736D01*
X0173074Y0076719D01*
X0172890Y0076697D01*
X0172706Y0076671D01*
X0172522Y0076640D01*
X0172340Y0076605D01*
X0172158Y0076566D01*
X0171978Y0076522D01*
X0171798Y0076473D01*
X0171620Y0076421D01*
X0171443Y0076364D01*
X0171268Y0076302D01*
X0171094Y0076237D01*
X0170922Y0076167D01*
X0170751Y0076093D01*
X0170583Y0076015D01*
X0170416Y0075932D01*
X0170252Y0075846D01*
X0170089Y0075756D01*
X0169929Y0075661D01*
X0169771Y0075563D01*
X0169616Y0075461D01*
X0169463Y0075356D01*
X0169313Y0075246D01*
X0169165Y0075133D01*
X0169021Y0075016D01*
X0168879Y0074896D01*
X0168740Y0074773D01*
X0168604Y0074646D01*
X0168472Y0074516D01*
X0168343Y0074382D01*
X0168216Y0074246D01*
X0168094Y0074106D01*
X0167407Y0063708D02*
X0168099Y0064285D01*
X0168098Y0064284D02*
X0168217Y0064147D01*
X0168338Y0064013D01*
X0168463Y0063882D01*
X0168591Y0063754D01*
X0168722Y0063630D01*
X0168856Y0063508D01*
X0168993Y0063389D01*
X0169132Y0063274D01*
X0169275Y0063163D01*
X0169420Y0063054D01*
X0169567Y0062949D01*
X0169717Y0062848D01*
X0169869Y0062751D01*
X0170024Y0062657D01*
X0170181Y0062566D01*
X0170340Y0062480D01*
X0170501Y0062397D01*
X0170664Y0062319D01*
X0170829Y0062244D01*
X0170995Y0062173D01*
X0171163Y0062106D01*
X0171333Y0062044D01*
X0171504Y0061985D01*
X0171677Y0061930D01*
X0171850Y0061880D01*
X0172025Y0061834D01*
X0172201Y0061792D01*
X0172378Y0061754D01*
X0172556Y0061721D01*
X0172735Y0061691D01*
X0172914Y0061666D01*
X0173094Y0061646D01*
X0173274Y0061629D01*
X0173454Y0061617D01*
X0173635Y0061610D01*
X0173816Y0061606D01*
X0173817Y0060707D01*
X0173816Y0060706D01*
X0173613Y0060710D01*
X0173411Y0060718D01*
X0173208Y0060732D01*
X0173006Y0060750D01*
X0172805Y0060773D01*
X0172604Y0060801D01*
X0172404Y0060834D01*
X0172204Y0060871D01*
X0172006Y0060913D01*
X0171808Y0060960D01*
X0171612Y0061012D01*
X0171418Y0061069D01*
X0171224Y0061130D01*
X0171032Y0061195D01*
X0170842Y0061266D01*
X0170653Y0061341D01*
X0170467Y0061420D01*
X0170282Y0061504D01*
X0170099Y0061592D01*
X0169919Y0061685D01*
X0169741Y0061781D01*
X0169565Y0061883D01*
X0169392Y0061988D01*
X0169221Y0062097D01*
X0169053Y0062211D01*
X0168887Y0062328D01*
X0168725Y0062450D01*
X0168565Y0062575D01*
X0168409Y0062704D01*
X0168256Y0062837D01*
X0168106Y0062974D01*
X0167959Y0063114D01*
X0167816Y0063257D01*
X0167676Y0063404D01*
X0167539Y0063554D01*
X0167407Y0063708D01*
X0167479Y0063768D01*
X0167610Y0063616D01*
X0167745Y0063468D01*
X0167883Y0063323D01*
X0168025Y0063181D01*
X0168170Y0063042D01*
X0168318Y0062907D01*
X0168470Y0062776D01*
X0168625Y0062648D01*
X0168782Y0062524D01*
X0168943Y0062404D01*
X0169106Y0062288D01*
X0169273Y0062176D01*
X0169441Y0062068D01*
X0169613Y0061963D01*
X0169787Y0061863D01*
X0169963Y0061768D01*
X0170141Y0061676D01*
X0170322Y0061589D01*
X0170505Y0061506D01*
X0170689Y0061427D01*
X0170875Y0061353D01*
X0171064Y0061284D01*
X0171253Y0061219D01*
X0171445Y0061159D01*
X0171637Y0061103D01*
X0171831Y0061052D01*
X0172026Y0061005D01*
X0172222Y0060963D01*
X0172419Y0060926D01*
X0172617Y0060894D01*
X0172816Y0060866D01*
X0173015Y0060843D01*
X0173215Y0060825D01*
X0173415Y0060812D01*
X0173616Y0060804D01*
X0173816Y0060800D01*
X0173816Y0060894D01*
X0173618Y0060898D01*
X0173420Y0060906D01*
X0173222Y0060919D01*
X0173024Y0060937D01*
X0172827Y0060960D01*
X0172631Y0060987D01*
X0172435Y0061019D01*
X0172241Y0061055D01*
X0172047Y0061097D01*
X0171854Y0061143D01*
X0171662Y0061193D01*
X0171472Y0061249D01*
X0171283Y0061308D01*
X0171095Y0061373D01*
X0170909Y0061441D01*
X0170725Y0061514D01*
X0170542Y0061592D01*
X0170362Y0061674D01*
X0170183Y0061760D01*
X0170007Y0061851D01*
X0169833Y0061945D01*
X0169661Y0062044D01*
X0169491Y0062147D01*
X0169324Y0062254D01*
X0169160Y0062365D01*
X0168999Y0062480D01*
X0168840Y0062599D01*
X0168684Y0062721D01*
X0168531Y0062847D01*
X0168381Y0062977D01*
X0168234Y0063111D01*
X0168091Y0063248D01*
X0167951Y0063388D01*
X0167814Y0063531D01*
X0167681Y0063678D01*
X0167551Y0063828D01*
X0167623Y0063888D01*
X0167752Y0063740D01*
X0167883Y0063595D01*
X0168018Y0063453D01*
X0168157Y0063315D01*
X0168299Y0063179D01*
X0168444Y0063047D01*
X0168592Y0062919D01*
X0168743Y0062794D01*
X0168897Y0062673D01*
X0169054Y0062556D01*
X0169214Y0062442D01*
X0169376Y0062333D01*
X0169541Y0062227D01*
X0169709Y0062125D01*
X0169879Y0062027D01*
X0170051Y0061934D01*
X0170225Y0061844D01*
X0170402Y0061759D01*
X0170580Y0061678D01*
X0170760Y0061601D01*
X0170943Y0061529D01*
X0171126Y0061461D01*
X0171312Y0061398D01*
X0171499Y0061339D01*
X0171687Y0061284D01*
X0171876Y0061234D01*
X0172067Y0061189D01*
X0172259Y0061148D01*
X0172451Y0061111D01*
X0172645Y0061080D01*
X0172839Y0061053D01*
X0173034Y0061031D01*
X0173229Y0061013D01*
X0173424Y0061000D01*
X0173620Y0060992D01*
X0173816Y0060988D01*
X0173816Y0061082D01*
X0173622Y0061086D01*
X0173429Y0061094D01*
X0173236Y0061107D01*
X0173043Y0061124D01*
X0172850Y0061146D01*
X0172658Y0061173D01*
X0172467Y0061204D01*
X0172277Y0061240D01*
X0172087Y0061280D01*
X0171899Y0061325D01*
X0171712Y0061375D01*
X0171526Y0061429D01*
X0171341Y0061487D01*
X0171158Y0061550D01*
X0170976Y0061617D01*
X0170796Y0061688D01*
X0170618Y0061764D01*
X0170441Y0061844D01*
X0170267Y0061928D01*
X0170095Y0062017D01*
X0169925Y0062109D01*
X0169757Y0062206D01*
X0169591Y0062307D01*
X0169428Y0062411D01*
X0169268Y0062519D01*
X0169110Y0062632D01*
X0168955Y0062748D01*
X0168802Y0062867D01*
X0168653Y0062991D01*
X0168506Y0063117D01*
X0168363Y0063248D01*
X0168223Y0063381D01*
X0168086Y0063518D01*
X0167953Y0063659D01*
X0167822Y0063802D01*
X0167696Y0063949D01*
X0167768Y0064009D01*
X0167893Y0063864D01*
X0168022Y0063722D01*
X0168154Y0063584D01*
X0168289Y0063448D01*
X0168428Y0063316D01*
X0168569Y0063187D01*
X0168714Y0063062D01*
X0168861Y0062940D01*
X0169012Y0062822D01*
X0169165Y0062707D01*
X0169321Y0062597D01*
X0169480Y0062489D01*
X0169641Y0062386D01*
X0169805Y0062287D01*
X0169971Y0062191D01*
X0170139Y0062100D01*
X0170309Y0062013D01*
X0170481Y0061929D01*
X0170656Y0061850D01*
X0170832Y0061775D01*
X0171010Y0061705D01*
X0171189Y0061638D01*
X0171370Y0061576D01*
X0171553Y0061519D01*
X0171737Y0061465D01*
X0171922Y0061416D01*
X0172108Y0061372D01*
X0172295Y0061332D01*
X0172483Y0061297D01*
X0172672Y0061266D01*
X0172862Y0061239D01*
X0173052Y0061218D01*
X0173242Y0061200D01*
X0173433Y0061188D01*
X0173625Y0061180D01*
X0173816Y0061176D01*
X0173816Y0061270D01*
X0173627Y0061274D01*
X0173438Y0061282D01*
X0173249Y0061294D01*
X0173061Y0061311D01*
X0172873Y0061333D01*
X0172686Y0061359D01*
X0172499Y0061389D01*
X0172313Y0061424D01*
X0172128Y0061464D01*
X0171944Y0061508D01*
X0171762Y0061556D01*
X0171580Y0061609D01*
X0171400Y0061666D01*
X0171221Y0061727D01*
X0171043Y0061793D01*
X0170867Y0061862D01*
X0170693Y0061936D01*
X0170521Y0062014D01*
X0170351Y0062097D01*
X0170183Y0062183D01*
X0170017Y0062273D01*
X0169853Y0062368D01*
X0169691Y0062466D01*
X0169532Y0062568D01*
X0169375Y0062674D01*
X0169221Y0062783D01*
X0169069Y0062897D01*
X0168921Y0063013D01*
X0168775Y0063134D01*
X0168632Y0063257D01*
X0168492Y0063385D01*
X0168355Y0063515D01*
X0168221Y0063649D01*
X0168091Y0063786D01*
X0167964Y0063926D01*
X0167840Y0064069D01*
X0167912Y0064129D01*
X0168035Y0063988D01*
X0168160Y0063850D01*
X0168289Y0063714D01*
X0168421Y0063582D01*
X0168556Y0063453D01*
X0168695Y0063328D01*
X0168836Y0063205D01*
X0168980Y0063086D01*
X0169127Y0062971D01*
X0169276Y0062859D01*
X0169429Y0062751D01*
X0169584Y0062646D01*
X0169741Y0062546D01*
X0169901Y0062449D01*
X0170062Y0062355D01*
X0170227Y0062266D01*
X0170393Y0062181D01*
X0170561Y0062100D01*
X0170731Y0062022D01*
X0170903Y0061949D01*
X0171077Y0061880D01*
X0171252Y0061816D01*
X0171429Y0061755D01*
X0171607Y0061699D01*
X0171786Y0061647D01*
X0171967Y0061599D01*
X0172149Y0061556D01*
X0172331Y0061517D01*
X0172515Y0061482D01*
X0172699Y0061452D01*
X0172884Y0061426D01*
X0173070Y0061405D01*
X0173256Y0061388D01*
X0173443Y0061376D01*
X0173629Y0061368D01*
X0173816Y0061364D01*
X0173816Y0061458D01*
X0173632Y0061462D01*
X0173447Y0061469D01*
X0173263Y0061482D01*
X0173079Y0061498D01*
X0172896Y0061519D01*
X0172713Y0061545D01*
X0172531Y0061575D01*
X0172350Y0061609D01*
X0172169Y0061647D01*
X0171990Y0061690D01*
X0171811Y0061737D01*
X0171634Y0061789D01*
X0171458Y0061844D01*
X0171283Y0061904D01*
X0171110Y0061968D01*
X0170939Y0062036D01*
X0170769Y0062108D01*
X0170601Y0062185D01*
X0170435Y0062265D01*
X0170271Y0062349D01*
X0170108Y0062437D01*
X0169948Y0062529D01*
X0169791Y0062625D01*
X0169635Y0062725D01*
X0169482Y0062828D01*
X0169332Y0062935D01*
X0169184Y0063045D01*
X0169039Y0063159D01*
X0168897Y0063277D01*
X0168757Y0063398D01*
X0168621Y0063522D01*
X0168487Y0063649D01*
X0168357Y0063780D01*
X0168229Y0063913D01*
X0168105Y0064050D01*
X0167985Y0064189D01*
X0168057Y0064250D01*
X0168176Y0064112D01*
X0168299Y0063977D01*
X0168424Y0063845D01*
X0168553Y0063716D01*
X0168685Y0063590D01*
X0168820Y0063468D01*
X0168958Y0063348D01*
X0169098Y0063232D01*
X0169242Y0063120D01*
X0169388Y0063011D01*
X0169536Y0062905D01*
X0169687Y0062803D01*
X0169841Y0062705D01*
X0169996Y0062610D01*
X0170154Y0062519D01*
X0170315Y0062432D01*
X0170477Y0062349D01*
X0170641Y0062270D01*
X0170807Y0062195D01*
X0170975Y0062123D01*
X0171144Y0062056D01*
X0171315Y0061993D01*
X0171487Y0061934D01*
X0171661Y0061879D01*
X0171836Y0061828D01*
X0172012Y0061781D01*
X0172190Y0061739D01*
X0172368Y0061701D01*
X0172547Y0061667D01*
X0172727Y0061638D01*
X0172907Y0061613D01*
X0173088Y0061592D01*
X0173270Y0061575D01*
X0173452Y0061563D01*
X0173634Y0061556D01*
X0173816Y0061552D01*
D15*
X0148866Y0154156D02*
X0148868Y0154297D01*
X0148874Y0154438D01*
X0148884Y0154578D01*
X0148898Y0154718D01*
X0148916Y0154858D01*
X0148937Y0154997D01*
X0148963Y0155136D01*
X0148992Y0155274D01*
X0149026Y0155410D01*
X0149063Y0155546D01*
X0149104Y0155681D01*
X0149149Y0155815D01*
X0149198Y0155947D01*
X0149250Y0156078D01*
X0149306Y0156207D01*
X0149366Y0156334D01*
X0149429Y0156460D01*
X0149495Y0156584D01*
X0149566Y0156707D01*
X0149639Y0156827D01*
X0149716Y0156945D01*
X0149796Y0157061D01*
X0149880Y0157174D01*
X0149966Y0157285D01*
X0150056Y0157394D01*
X0150149Y0157500D01*
X0150244Y0157603D01*
X0150343Y0157704D01*
X0150444Y0157802D01*
X0150548Y0157897D01*
X0150655Y0157989D01*
X0150764Y0158078D01*
X0150876Y0158163D01*
X0150990Y0158246D01*
X0151106Y0158326D01*
X0151225Y0158402D01*
X0151346Y0158474D01*
X0151468Y0158544D01*
X0151593Y0158609D01*
X0151719Y0158672D01*
X0151847Y0158730D01*
X0151977Y0158785D01*
X0152108Y0158837D01*
X0152241Y0158884D01*
X0152375Y0158928D01*
X0152510Y0158969D01*
X0152646Y0159005D01*
X0152783Y0159037D01*
X0152921Y0159066D01*
X0153059Y0159091D01*
X0153199Y0159111D01*
X0153339Y0159128D01*
X0153479Y0159141D01*
X0153620Y0159150D01*
X0153760Y0159155D01*
X0153901Y0159156D01*
X0154042Y0159153D01*
X0154183Y0159146D01*
X0154323Y0159135D01*
X0154463Y0159120D01*
X0154603Y0159101D01*
X0154742Y0159079D01*
X0154880Y0159052D01*
X0155018Y0159022D01*
X0155154Y0158987D01*
X0155290Y0158949D01*
X0155424Y0158907D01*
X0155558Y0158861D01*
X0155690Y0158812D01*
X0155820Y0158758D01*
X0155949Y0158701D01*
X0156076Y0158641D01*
X0156202Y0158577D01*
X0156325Y0158509D01*
X0156447Y0158438D01*
X0156567Y0158364D01*
X0156684Y0158286D01*
X0156799Y0158205D01*
X0156912Y0158121D01*
X0157023Y0158034D01*
X0157131Y0157943D01*
X0157236Y0157850D01*
X0157339Y0157753D01*
X0157439Y0157654D01*
X0157536Y0157552D01*
X0157630Y0157447D01*
X0157721Y0157340D01*
X0157809Y0157230D01*
X0157894Y0157118D01*
X0157976Y0157003D01*
X0158055Y0156886D01*
X0158130Y0156767D01*
X0158202Y0156646D01*
X0158270Y0156523D01*
X0158335Y0156398D01*
X0158397Y0156271D01*
X0158454Y0156142D01*
X0158509Y0156012D01*
X0158559Y0155881D01*
X0158606Y0155748D01*
X0158649Y0155614D01*
X0158688Y0155478D01*
X0158723Y0155342D01*
X0158755Y0155205D01*
X0158782Y0155067D01*
X0158806Y0154928D01*
X0158826Y0154788D01*
X0158842Y0154648D01*
X0158854Y0154508D01*
X0158862Y0154367D01*
X0158866Y0154226D01*
X0158866Y0154086D01*
X0158862Y0153945D01*
X0158854Y0153804D01*
X0158842Y0153664D01*
X0158826Y0153524D01*
X0158806Y0153384D01*
X0158782Y0153245D01*
X0158755Y0153107D01*
X0158723Y0152970D01*
X0158688Y0152834D01*
X0158649Y0152698D01*
X0158606Y0152564D01*
X0158559Y0152431D01*
X0158509Y0152300D01*
X0158454Y0152170D01*
X0158397Y0152041D01*
X0158335Y0151914D01*
X0158270Y0151789D01*
X0158202Y0151666D01*
X0158130Y0151545D01*
X0158055Y0151426D01*
X0157976Y0151309D01*
X0157894Y0151194D01*
X0157809Y0151082D01*
X0157721Y0150972D01*
X0157630Y0150865D01*
X0157536Y0150760D01*
X0157439Y0150658D01*
X0157339Y0150559D01*
X0157236Y0150462D01*
X0157131Y0150369D01*
X0157023Y0150278D01*
X0156912Y0150191D01*
X0156799Y0150107D01*
X0156684Y0150026D01*
X0156567Y0149948D01*
X0156447Y0149874D01*
X0156325Y0149803D01*
X0156202Y0149735D01*
X0156076Y0149671D01*
X0155949Y0149611D01*
X0155820Y0149554D01*
X0155690Y0149500D01*
X0155558Y0149451D01*
X0155424Y0149405D01*
X0155290Y0149363D01*
X0155154Y0149325D01*
X0155018Y0149290D01*
X0154880Y0149260D01*
X0154742Y0149233D01*
X0154603Y0149211D01*
X0154463Y0149192D01*
X0154323Y0149177D01*
X0154183Y0149166D01*
X0154042Y0149159D01*
X0153901Y0149156D01*
X0153760Y0149157D01*
X0153620Y0149162D01*
X0153479Y0149171D01*
X0153339Y0149184D01*
X0153199Y0149201D01*
X0153059Y0149221D01*
X0152921Y0149246D01*
X0152783Y0149275D01*
X0152646Y0149307D01*
X0152510Y0149343D01*
X0152375Y0149384D01*
X0152241Y0149428D01*
X0152108Y0149475D01*
X0151977Y0149527D01*
X0151847Y0149582D01*
X0151719Y0149640D01*
X0151593Y0149703D01*
X0151468Y0149768D01*
X0151346Y0149838D01*
X0151225Y0149910D01*
X0151106Y0149986D01*
X0150990Y0150066D01*
X0150876Y0150149D01*
X0150764Y0150234D01*
X0150655Y0150323D01*
X0150548Y0150415D01*
X0150444Y0150510D01*
X0150343Y0150608D01*
X0150244Y0150709D01*
X0150149Y0150812D01*
X0150056Y0150918D01*
X0149966Y0151027D01*
X0149880Y0151138D01*
X0149796Y0151251D01*
X0149716Y0151367D01*
X0149639Y0151485D01*
X0149566Y0151605D01*
X0149495Y0151728D01*
X0149429Y0151852D01*
X0149366Y0151978D01*
X0149306Y0152105D01*
X0149250Y0152234D01*
X0149198Y0152365D01*
X0149149Y0152497D01*
X0149104Y0152631D01*
X0149063Y0152766D01*
X0149026Y0152902D01*
X0148992Y0153038D01*
X0148963Y0153176D01*
X0148937Y0153315D01*
X0148916Y0153454D01*
X0148898Y0153594D01*
X0148884Y0153734D01*
X0148874Y0153874D01*
X0148868Y0154015D01*
X0148866Y0154156D01*
D16*
X0187466Y0121606D02*
X0187397Y0121604D01*
X0187329Y0121598D01*
X0187261Y0121588D01*
X0187194Y0121575D01*
X0187128Y0121557D01*
X0187063Y0121536D01*
X0186999Y0121511D01*
X0186937Y0121483D01*
X0186876Y0121451D01*
X0186817Y0121416D01*
X0186761Y0121377D01*
X0186706Y0121335D01*
X0186655Y0121290D01*
X0186605Y0121242D01*
X0186559Y0121192D01*
X0186516Y0121139D01*
X0186475Y0121083D01*
X0186438Y0121026D01*
X0186405Y0120966D01*
X0186374Y0120904D01*
X0186348Y0120841D01*
X0186325Y0120777D01*
X0186305Y0120711D01*
X0186290Y0120644D01*
X0186278Y0120577D01*
X0186270Y0120509D01*
X0186266Y0120440D01*
X0186266Y0120372D01*
X0186270Y0120303D01*
X0186278Y0120235D01*
X0186290Y0120168D01*
X0186305Y0120101D01*
X0186325Y0120035D01*
X0186348Y0119971D01*
X0186374Y0119908D01*
X0186405Y0119846D01*
X0186438Y0119786D01*
X0186475Y0119729D01*
X0186516Y0119673D01*
X0186559Y0119620D01*
X0186605Y0119570D01*
X0186655Y0119522D01*
X0186706Y0119477D01*
X0186761Y0119435D01*
X0186817Y0119396D01*
X0186876Y0119361D01*
X0186937Y0119329D01*
X0186999Y0119301D01*
X0187063Y0119276D01*
X0187128Y0119255D01*
X0187194Y0119237D01*
X0187261Y0119224D01*
X0187329Y0119214D01*
X0187397Y0119208D01*
X0187466Y0119206D01*
D17*
X0187700Y0125520D02*
X0190836Y0128656D01*
X0190836Y0127088D02*
X0187700Y0127088D01*
X0187700Y0128656D02*
X0190836Y0125520D01*
X0189268Y0125520D02*
X0189268Y0128656D01*
X0128716Y0164923D02*
X0128716Y0166158D01*
X0128099Y0166775D01*
X0128716Y0167989D02*
X0125013Y0167989D01*
X0128716Y0170458D01*
X0125013Y0170458D01*
X0126247Y0171672D02*
X0125013Y0172907D01*
X0128716Y0172907D01*
X0128716Y0174141D02*
X0128716Y0171672D01*
X0125630Y0166775D02*
X0125013Y0166158D01*
X0125013Y0164923D01*
X0125630Y0164306D01*
X0128099Y0164306D01*
X0128716Y0164923D01*
X0055168Y0123642D02*
X0055168Y0123025D01*
X0052699Y0120556D01*
X0055168Y0120556D01*
X0051485Y0121173D02*
X0051485Y0124259D01*
X0052699Y0123642D02*
X0053316Y0124259D01*
X0054551Y0124259D01*
X0055168Y0123642D01*
X0051485Y0121173D02*
X0050868Y0120556D01*
X0049633Y0120556D01*
X0049016Y0121173D01*
X0049016Y0124259D01*
D18*
X0055677Y0096873D02*
X0055677Y0061440D01*
X0076543Y0061440D01*
X0095047Y0061440D02*
X0097803Y0061440D01*
X0097803Y0069707D01*
X0097803Y0088605D02*
X0097803Y0096873D01*
X0055677Y0096873D01*
X0197370Y0068723D02*
X0276110Y0068723D01*
X0276110Y0139589D01*
X0197370Y0139589D01*
X0197370Y0068723D01*
D19*
X0205116Y0145406D02*
X0205116Y0172906D01*
X0232616Y0172906D01*
X0232616Y0145406D01*
X0205116Y0145406D01*
X0048186Y0139156D02*
X0048189Y0139418D01*
X0048199Y0139680D01*
X0048215Y0139942D01*
X0048237Y0140203D01*
X0048266Y0140463D01*
X0048302Y0140723D01*
X0048343Y0140982D01*
X0048391Y0141240D01*
X0048446Y0141496D01*
X0048506Y0141751D01*
X0048573Y0142004D01*
X0048646Y0142256D01*
X0048725Y0142506D01*
X0048810Y0142754D01*
X0048902Y0143000D01*
X0048999Y0143243D01*
X0049102Y0143484D01*
X0049211Y0143722D01*
X0049326Y0143958D01*
X0049447Y0144191D01*
X0049573Y0144420D01*
X0049705Y0144647D01*
X0049843Y0144870D01*
X0049986Y0145089D01*
X0050134Y0145306D01*
X0050288Y0145518D01*
X0050446Y0145727D01*
X0050610Y0145931D01*
X0050779Y0146132D01*
X0050953Y0146328D01*
X0051131Y0146520D01*
X0051314Y0146708D01*
X0051502Y0146891D01*
X0051694Y0147069D01*
X0051890Y0147243D01*
X0052091Y0147412D01*
X0052295Y0147576D01*
X0052504Y0147734D01*
X0052716Y0147888D01*
X0052933Y0148036D01*
X0053152Y0148179D01*
X0053375Y0148317D01*
X0053602Y0148449D01*
X0053831Y0148575D01*
X0054064Y0148696D01*
X0054300Y0148811D01*
X0054538Y0148920D01*
X0054779Y0149023D01*
X0055022Y0149120D01*
X0055268Y0149212D01*
X0055516Y0149297D01*
X0055766Y0149376D01*
X0056018Y0149449D01*
X0056271Y0149516D01*
X0056526Y0149576D01*
X0056782Y0149631D01*
X0057040Y0149679D01*
X0057299Y0149720D01*
X0057559Y0149756D01*
X0057819Y0149785D01*
X0058080Y0149807D01*
X0058342Y0149823D01*
X0058604Y0149833D01*
X0058866Y0149836D01*
X0059128Y0149833D01*
X0059390Y0149823D01*
X0059652Y0149807D01*
X0059913Y0149785D01*
X0060173Y0149756D01*
X0060433Y0149720D01*
X0060692Y0149679D01*
X0060950Y0149631D01*
X0061206Y0149576D01*
X0061461Y0149516D01*
X0061714Y0149449D01*
X0061966Y0149376D01*
X0062216Y0149297D01*
X0062464Y0149212D01*
X0062710Y0149120D01*
X0062953Y0149023D01*
X0063194Y0148920D01*
X0063432Y0148811D01*
X0063668Y0148696D01*
X0063901Y0148575D01*
X0064130Y0148449D01*
X0064357Y0148317D01*
X0064580Y0148179D01*
X0064799Y0148036D01*
X0065016Y0147888D01*
X0065228Y0147734D01*
X0065437Y0147576D01*
X0065641Y0147412D01*
X0065842Y0147243D01*
X0066038Y0147069D01*
X0066230Y0146891D01*
X0066418Y0146708D01*
X0066601Y0146520D01*
X0066779Y0146328D01*
X0066953Y0146132D01*
X0067122Y0145931D01*
X0067286Y0145727D01*
X0067444Y0145518D01*
X0067598Y0145306D01*
X0067746Y0145089D01*
X0067889Y0144870D01*
X0068027Y0144647D01*
X0068159Y0144420D01*
X0068285Y0144191D01*
X0068406Y0143958D01*
X0068521Y0143722D01*
X0068630Y0143484D01*
X0068733Y0143243D01*
X0068830Y0143000D01*
X0068922Y0142754D01*
X0069007Y0142506D01*
X0069086Y0142256D01*
X0069159Y0142004D01*
X0069226Y0141751D01*
X0069286Y0141496D01*
X0069341Y0141240D01*
X0069389Y0140982D01*
X0069430Y0140723D01*
X0069466Y0140463D01*
X0069495Y0140203D01*
X0069517Y0139942D01*
X0069533Y0139680D01*
X0069543Y0139418D01*
X0069546Y0139156D01*
X0069543Y0138894D01*
X0069533Y0138632D01*
X0069517Y0138370D01*
X0069495Y0138109D01*
X0069466Y0137849D01*
X0069430Y0137589D01*
X0069389Y0137330D01*
X0069341Y0137072D01*
X0069286Y0136816D01*
X0069226Y0136561D01*
X0069159Y0136308D01*
X0069086Y0136056D01*
X0069007Y0135806D01*
X0068922Y0135558D01*
X0068830Y0135312D01*
X0068733Y0135069D01*
X0068630Y0134828D01*
X0068521Y0134590D01*
X0068406Y0134354D01*
X0068285Y0134121D01*
X0068159Y0133892D01*
X0068027Y0133665D01*
X0067889Y0133442D01*
X0067746Y0133223D01*
X0067598Y0133006D01*
X0067444Y0132794D01*
X0067286Y0132585D01*
X0067122Y0132381D01*
X0066953Y0132180D01*
X0066779Y0131984D01*
X0066601Y0131792D01*
X0066418Y0131604D01*
X0066230Y0131421D01*
X0066038Y0131243D01*
X0065842Y0131069D01*
X0065641Y0130900D01*
X0065437Y0130736D01*
X0065228Y0130578D01*
X0065016Y0130424D01*
X0064799Y0130276D01*
X0064580Y0130133D01*
X0064357Y0129995D01*
X0064130Y0129863D01*
X0063901Y0129737D01*
X0063668Y0129616D01*
X0063432Y0129501D01*
X0063194Y0129392D01*
X0062953Y0129289D01*
X0062710Y0129192D01*
X0062464Y0129100D01*
X0062216Y0129015D01*
X0061966Y0128936D01*
X0061714Y0128863D01*
X0061461Y0128796D01*
X0061206Y0128736D01*
X0060950Y0128681D01*
X0060692Y0128633D01*
X0060433Y0128592D01*
X0060173Y0128556D01*
X0059913Y0128527D01*
X0059652Y0128505D01*
X0059390Y0128489D01*
X0059128Y0128479D01*
X0058866Y0128476D01*
X0058604Y0128479D01*
X0058342Y0128489D01*
X0058080Y0128505D01*
X0057819Y0128527D01*
X0057559Y0128556D01*
X0057299Y0128592D01*
X0057040Y0128633D01*
X0056782Y0128681D01*
X0056526Y0128736D01*
X0056271Y0128796D01*
X0056018Y0128863D01*
X0055766Y0128936D01*
X0055516Y0129015D01*
X0055268Y0129100D01*
X0055022Y0129192D01*
X0054779Y0129289D01*
X0054538Y0129392D01*
X0054300Y0129501D01*
X0054064Y0129616D01*
X0053831Y0129737D01*
X0053602Y0129863D01*
X0053375Y0129995D01*
X0053152Y0130133D01*
X0052933Y0130276D01*
X0052716Y0130424D01*
X0052504Y0130578D01*
X0052295Y0130736D01*
X0052091Y0130900D01*
X0051890Y0131069D01*
X0051694Y0131243D01*
X0051502Y0131421D01*
X0051314Y0131604D01*
X0051131Y0131792D01*
X0050953Y0131984D01*
X0050779Y0132180D01*
X0050610Y0132381D01*
X0050446Y0132585D01*
X0050288Y0132794D01*
X0050134Y0133006D01*
X0049986Y0133223D01*
X0049843Y0133442D01*
X0049705Y0133665D01*
X0049573Y0133892D01*
X0049447Y0134121D01*
X0049326Y0134354D01*
X0049211Y0134590D01*
X0049102Y0134828D01*
X0048999Y0135069D01*
X0048902Y0135312D01*
X0048810Y0135558D01*
X0048725Y0135806D01*
X0048646Y0136056D01*
X0048573Y0136308D01*
X0048506Y0136561D01*
X0048446Y0136816D01*
X0048391Y0137072D01*
X0048343Y0137330D01*
X0048302Y0137589D01*
X0048266Y0137849D01*
X0048237Y0138109D01*
X0048215Y0138370D01*
X0048199Y0138632D01*
X0048189Y0138894D01*
X0048186Y0139156D01*
X0055116Y0145406D02*
X0055116Y0147906D01*
X0053866Y0146656D02*
X0056366Y0146656D01*
M02*
