G75*
%MOIN*%
%OFA0B0*%
%FSLAX25Y25*%
%IPPOS*%
%LPD*%
%AMOC8*
5,1,8,0,0,1.08239X$1,22.5*
%
%ADD10C,0.00600*%
%ADD11OC8,0.06300*%
%ADD12R,0.05512X0.03937*%
%ADD13OC8,0.06600*%
%ADD14OC8,0.05200*%
%ADD15OC8,0.08500*%
%ADD16R,0.02200X0.05200*%
%ADD17R,0.03543X0.05846*%
%ADD18R,0.05150X0.05150*%
%ADD19C,0.05150*%
%ADD20C,0.05150*%
%ADD21C,0.05200*%
%ADD22C,0.06496*%
%ADD23C,0.17000*%
%ADD24C,0.06000*%
%ADD25C,0.01600*%
%ADD26C,0.02400*%
%ADD27R,0.03900X0.03900*%
%ADD28C,0.02200*%
%ADD29C,0.03400*%
%ADD30C,0.02400*%
D10*
X0074166Y0169456D02*
X0078436Y0169456D01*
X0080612Y0169456D02*
X0083814Y0169456D01*
X0084882Y0170524D01*
X0084882Y0174794D01*
X0083814Y0175862D01*
X0080612Y0175862D01*
X0080612Y0169456D01*
X0087057Y0169456D02*
X0091327Y0169456D01*
X0089192Y0169456D02*
X0089192Y0175862D01*
X0087057Y0173726D01*
X0093503Y0175862D02*
X0097773Y0175862D01*
X0097773Y0174794D01*
X0093503Y0170524D01*
X0093503Y0169456D01*
X0099948Y0170524D02*
X0101016Y0169456D01*
X0103151Y0169456D01*
X0104218Y0170524D01*
X0104218Y0174794D01*
X0099948Y0170524D01*
X0099948Y0174794D01*
X0101016Y0175862D01*
X0103151Y0175862D01*
X0104218Y0174794D01*
X0106394Y0173726D02*
X0108529Y0175862D01*
X0108529Y0169456D01*
X0106394Y0169456D02*
X0110664Y0169456D01*
X0112839Y0169456D02*
X0117109Y0173726D01*
X0117109Y0174794D01*
X0116042Y0175862D01*
X0113907Y0175862D01*
X0112839Y0174794D01*
X0119285Y0173726D02*
X0121420Y0175862D01*
X0123555Y0173726D01*
X0123555Y0169456D01*
X0123555Y0172659D02*
X0119285Y0172659D01*
X0119285Y0173726D02*
X0119285Y0169456D01*
X0117109Y0169456D02*
X0112839Y0169456D01*
X0074166Y0169456D02*
X0074166Y0175862D01*
D11*
X0083866Y0149156D03*
X0108866Y0149156D03*
X0108866Y0129156D03*
X0103866Y0119156D03*
X0103866Y0109156D03*
X0103866Y0099156D03*
X0123866Y0099156D03*
X0123866Y0109156D03*
X0123866Y0119156D03*
X0133866Y0119156D03*
X0153866Y0119156D03*
X0188866Y0149156D03*
X0198866Y0149156D03*
X0198866Y0169156D03*
X0188866Y0169156D03*
X0238866Y0169156D03*
X0238866Y0149156D03*
X0243866Y0059156D03*
X0223866Y0059156D03*
X0183866Y0049156D03*
X0163866Y0049156D03*
X0083866Y0129156D03*
D12*
X0208197Y0050396D03*
X0199535Y0046656D03*
X0208197Y0042916D03*
D13*
X0178866Y0069156D03*
X0168866Y0069156D03*
X0208866Y0159156D03*
X0218866Y0169156D03*
X0228866Y0159156D03*
D14*
X0247616Y0149156D03*
X0247616Y0169156D03*
X0153866Y0109156D03*
X0153866Y0099156D03*
X0163866Y0099156D03*
X0163866Y0089156D03*
X0153866Y0089156D03*
X0133866Y0089156D03*
X0133866Y0099156D03*
X0133866Y0109156D03*
X0121366Y0129156D03*
X0128866Y0134156D03*
X0121366Y0139156D03*
X0098866Y0129156D03*
X0098866Y0149156D03*
X0183866Y0099156D03*
X0183866Y0089156D03*
X0193866Y0059156D03*
X0213866Y0059156D03*
X0153866Y0059156D03*
X0153866Y0049156D03*
X0133866Y0049156D03*
X0133866Y0059156D03*
D15*
X0153866Y0141356D03*
X0153866Y0166956D03*
D16*
X0177666Y0125506D03*
X0181366Y0125506D03*
X0185066Y0125506D03*
X0185066Y0115306D03*
X0181366Y0115306D03*
X0177666Y0115306D03*
D17*
X0200913Y0139166D03*
X0206819Y0139166D03*
X0212724Y0139166D03*
X0218630Y0139166D03*
X0224535Y0139166D03*
X0230441Y0139166D03*
X0236346Y0139166D03*
X0242252Y0139166D03*
X0248157Y0139166D03*
X0248157Y0069146D03*
X0242252Y0069146D03*
X0236346Y0069146D03*
X0230441Y0069146D03*
X0224535Y0069146D03*
X0218630Y0069146D03*
X0212724Y0069146D03*
X0206819Y0069146D03*
X0200913Y0069146D03*
D18*
X0083866Y0164156D03*
D19*
X0093866Y0164156D03*
X0103866Y0164156D03*
X0113866Y0164156D03*
D20*
X0073866Y0116731D02*
X0073866Y0111581D01*
X0063866Y0111581D02*
X0063866Y0116731D01*
X0053866Y0116731D02*
X0053866Y0111581D01*
D21*
X0055116Y0136556D02*
X0055116Y0141756D01*
X0062616Y0141756D02*
X0062616Y0136556D01*
D22*
X0221071Y0044156D03*
X0246661Y0044156D03*
D23*
X0097803Y0079156D03*
X0074181Y0079156D03*
X0085992Y0060652D03*
D24*
X0110866Y0064156D02*
X0116866Y0064156D01*
X0116866Y0054156D02*
X0110866Y0054156D01*
X0110866Y0044156D02*
X0116866Y0044156D01*
X0116866Y0074156D02*
X0110866Y0074156D01*
D25*
X0072225Y0049606D02*
X0072225Y0035956D01*
X0251728Y0035956D01*
X0251728Y0049606D01*
X0251706Y0049631D01*
X0251728Y0049933D01*
X0251728Y0050236D01*
X0251751Y0050259D01*
X0251831Y0051377D01*
X0251796Y0051431D01*
X0251854Y0051699D01*
X0251873Y0051973D01*
X0251923Y0052015D01*
X0252168Y0053142D01*
X0252141Y0053201D01*
X0252236Y0053458D01*
X0252295Y0053726D01*
X0252349Y0053761D01*
X0252752Y0054841D01*
X0252734Y0054903D01*
X0252865Y0055144D01*
X0252961Y0055401D01*
X0253020Y0055428D01*
X0253573Y0056439D01*
X0253564Y0056504D01*
X0253728Y0056723D01*
X0253859Y0056964D01*
X0253922Y0056982D01*
X0254612Y0057905D01*
X0254612Y0057970D01*
X0254806Y0058164D01*
X0254971Y0058383D01*
X0255035Y0058393D01*
X0255850Y0059208D01*
X0255859Y0059272D01*
X0256079Y0059437D01*
X0256273Y0059630D01*
X0256338Y0059630D01*
X0256907Y0060056D01*
X0255703Y0060056D01*
X0254766Y0060993D01*
X0252266Y0063493D01*
X0250998Y0064762D01*
X0250624Y0064546D01*
X0250166Y0064423D01*
X0248243Y0064423D01*
X0248243Y0069060D01*
X0248072Y0069060D01*
X0248072Y0064423D01*
X0246149Y0064423D01*
X0245691Y0064546D01*
X0245364Y0064735D01*
X0244852Y0064223D01*
X0239652Y0064223D01*
X0239299Y0064576D01*
X0238947Y0064223D01*
X0233746Y0064223D01*
X0233394Y0064576D01*
X0233041Y0064223D01*
X0232593Y0064223D01*
X0229016Y0060646D01*
X0229016Y0057023D01*
X0225999Y0054006D01*
X0224116Y0054006D01*
X0224116Y0048533D01*
X0225520Y0047129D01*
X0226319Y0045200D01*
X0226319Y0043112D01*
X0225520Y0041183D01*
X0224044Y0039707D01*
X0222115Y0038908D01*
X0220027Y0038908D01*
X0218098Y0039707D01*
X0216622Y0041183D01*
X0215823Y0043112D01*
X0215823Y0045200D01*
X0216622Y0047129D01*
X0218098Y0048605D01*
X0218516Y0048778D01*
X0218516Y0056706D01*
X0217922Y0056706D01*
X0215772Y0054556D01*
X0213176Y0054556D01*
X0212383Y0053763D01*
X0212953Y0053193D01*
X0212953Y0047599D01*
X0211817Y0046464D01*
X0212058Y0046325D01*
X0212393Y0045990D01*
X0212630Y0045579D01*
X0212753Y0045121D01*
X0212753Y0043100D01*
X0208381Y0043100D01*
X0208381Y0042732D01*
X0212753Y0042732D01*
X0212753Y0040711D01*
X0212630Y0040253D01*
X0212393Y0039842D01*
X0212058Y0039507D01*
X0211648Y0039270D01*
X0211190Y0039148D01*
X0208381Y0039148D01*
X0208381Y0042732D01*
X0208013Y0042732D01*
X0208013Y0039148D01*
X0205204Y0039148D01*
X0204746Y0039270D01*
X0204336Y0039507D01*
X0204001Y0039842D01*
X0203764Y0040253D01*
X0203641Y0040711D01*
X0203641Y0042732D01*
X0208013Y0042732D01*
X0208013Y0043100D01*
X0203641Y0043100D01*
X0203641Y0043209D01*
X0203120Y0042688D01*
X0195951Y0042688D01*
X0194780Y0043859D01*
X0194780Y0044056D01*
X0186049Y0044056D01*
X0185999Y0044006D01*
X0181733Y0044006D01*
X0178716Y0047023D01*
X0178716Y0051289D01*
X0178933Y0051506D01*
X0168516Y0051506D01*
X0168816Y0051207D01*
X0168816Y0049156D01*
X0163866Y0049156D01*
X0163866Y0049156D01*
X0163866Y0044206D01*
X0161816Y0044206D01*
X0158916Y0047106D01*
X0158916Y0049156D01*
X0163866Y0049156D01*
X0163866Y0049156D01*
X0163866Y0044206D01*
X0165916Y0044206D01*
X0168816Y0047106D01*
X0168816Y0049156D01*
X0163866Y0049156D01*
X0158916Y0049156D01*
X0158916Y0050346D01*
X0158466Y0049896D01*
X0158466Y0047251D01*
X0155772Y0044556D01*
X0151961Y0044556D01*
X0149266Y0047251D01*
X0149266Y0051062D01*
X0151961Y0053756D01*
X0154406Y0053756D01*
X0155206Y0054556D01*
X0151961Y0054556D01*
X0149266Y0057251D01*
X0149266Y0061062D01*
X0151961Y0063756D01*
X0155772Y0063756D01*
X0158466Y0061062D01*
X0158466Y0057251D01*
X0158295Y0057080D01*
X0158359Y0057106D01*
X0186182Y0057106D01*
X0179688Y0063600D01*
X0179432Y0063856D01*
X0176671Y0063856D01*
X0173866Y0066661D01*
X0171061Y0063856D01*
X0166671Y0063856D01*
X0163566Y0066961D01*
X0163566Y0070396D01*
X0151992Y0081970D01*
X0151566Y0082999D01*
X0151566Y0084951D01*
X0149266Y0087251D01*
X0149266Y0091062D01*
X0149361Y0091156D01*
X0138859Y0091156D01*
X0137830Y0091582D01*
X0134856Y0094556D01*
X0131961Y0094556D01*
X0129266Y0097251D01*
X0129266Y0101062D01*
X0131961Y0103756D01*
X0134206Y0103756D01*
X0135006Y0104556D01*
X0131961Y0104556D01*
X0129266Y0107251D01*
X0129266Y0111062D01*
X0131416Y0113212D01*
X0131416Y0114323D01*
X0128725Y0117014D01*
X0125916Y0114206D01*
X0123866Y0114206D01*
X0123866Y0119156D01*
X0123866Y0119156D01*
X0118916Y0119156D01*
X0118916Y0117106D01*
X0121816Y0114206D01*
X0123866Y0114206D01*
X0123866Y0119156D01*
X0123866Y0119156D01*
X0118916Y0119156D01*
X0118916Y0121207D01*
X0121816Y0124106D01*
X0123866Y0124106D01*
X0123866Y0119156D01*
X0123866Y0119156D01*
X0123866Y0124106D01*
X0125916Y0124106D01*
X0128725Y0121298D01*
X0131733Y0124306D01*
X0132406Y0124306D01*
X0127156Y0129556D01*
X0126961Y0129556D01*
X0125766Y0130751D01*
X0125766Y0129156D01*
X0121366Y0129156D01*
X0121366Y0129156D01*
X0121366Y0124756D01*
X0119544Y0124756D01*
X0116966Y0127334D01*
X0116966Y0129156D01*
X0121366Y0129156D01*
X0121366Y0129156D01*
X0121366Y0124756D01*
X0123189Y0124756D01*
X0125766Y0127334D01*
X0125766Y0129156D01*
X0121366Y0129156D01*
X0116966Y0129156D01*
X0116966Y0130979D01*
X0119544Y0133556D01*
X0121366Y0133556D01*
X0121366Y0129156D01*
X0121366Y0129156D01*
X0121366Y0129156D01*
X0121366Y0133556D01*
X0123189Y0133556D01*
X0124266Y0132479D01*
X0124266Y0135551D01*
X0123272Y0134556D01*
X0119461Y0134556D01*
X0118011Y0136006D01*
X0111976Y0136006D01*
X0110076Y0134106D01*
X0110916Y0134106D01*
X0113816Y0131207D01*
X0113816Y0129156D01*
X0108866Y0129156D01*
X0108866Y0129156D01*
X0108866Y0124206D01*
X0106816Y0124206D01*
X0103916Y0127106D01*
X0103916Y0127946D01*
X0103466Y0127496D01*
X0103466Y0127251D01*
X0100811Y0124595D01*
X0101417Y0123990D01*
X0101733Y0124306D01*
X0105999Y0124306D01*
X0109016Y0121289D01*
X0109016Y0117023D01*
X0107416Y0115423D01*
X0107416Y0112889D01*
X0109016Y0111289D01*
X0109016Y0109240D01*
X0116000Y0102256D01*
X0119683Y0102256D01*
X0121724Y0104298D01*
X0118916Y0107106D01*
X0118916Y0109156D01*
X0123866Y0109156D01*
X0123866Y0109156D01*
X0118916Y0109156D01*
X0118916Y0111207D01*
X0121816Y0114106D01*
X0123866Y0114106D01*
X0123866Y0109156D01*
X0123866Y0109156D01*
X0123866Y0109156D01*
X0128816Y0109156D01*
X0128816Y0107106D01*
X0126008Y0104298D01*
X0129016Y0101289D01*
X0129016Y0097023D01*
X0125999Y0094006D01*
X0121733Y0094006D01*
X0119683Y0096056D01*
X0114100Y0096056D01*
X0112960Y0096528D01*
X0109016Y0100472D01*
X0109016Y0097023D01*
X0106766Y0094773D01*
X0106766Y0084632D01*
X0107588Y0083209D01*
X0108303Y0080539D01*
X0108303Y0078506D01*
X0109872Y0079156D01*
X0117861Y0079156D01*
X0119698Y0078395D01*
X0121105Y0076988D01*
X0121866Y0075151D01*
X0121866Y0073162D01*
X0121105Y0071324D01*
X0119698Y0069917D01*
X0117861Y0069156D01*
X0109872Y0069156D01*
X0108034Y0068395D01*
X0106895Y0067256D01*
X0094237Y0067256D01*
X0092439Y0069054D01*
X0090045Y0070437D01*
X0087374Y0071152D01*
X0084610Y0071152D01*
X0081939Y0070437D01*
X0079545Y0069054D01*
X0077590Y0067099D01*
X0076208Y0064705D01*
X0075492Y0062035D01*
X0075492Y0059270D01*
X0076208Y0056599D01*
X0077590Y0054205D01*
X0079545Y0052250D01*
X0081939Y0050868D01*
X0084610Y0050152D01*
X0087374Y0050152D01*
X0090045Y0050868D01*
X0092439Y0052250D01*
X0094394Y0054205D01*
X0095777Y0056599D01*
X0096492Y0059270D01*
X0096492Y0060856D01*
X0107095Y0060856D01*
X0108034Y0059917D01*
X0109872Y0059156D01*
X0108034Y0058395D01*
X0106627Y0056988D01*
X0105866Y0055151D01*
X0105866Y0053162D01*
X0106627Y0051324D01*
X0108034Y0049917D01*
X0109872Y0049156D01*
X0114706Y0049156D01*
X0114706Y0049156D01*
X0109872Y0049156D01*
X0108034Y0048395D01*
X0106627Y0046988D01*
X0105866Y0045151D01*
X0105866Y0043162D01*
X0106627Y0041324D01*
X0108034Y0039917D01*
X0109872Y0039156D01*
X0117861Y0039156D01*
X0119698Y0039917D01*
X0121105Y0041324D01*
X0121866Y0043162D01*
X0121866Y0045151D01*
X0121388Y0046306D01*
X0130211Y0046306D01*
X0131961Y0044556D01*
X0135772Y0044556D01*
X0138466Y0047251D01*
X0138466Y0051062D01*
X0135772Y0053756D01*
X0131961Y0053756D01*
X0130111Y0051906D01*
X0121346Y0051906D01*
X0121866Y0053162D01*
X0121866Y0055151D01*
X0121491Y0056056D01*
X0130461Y0056056D01*
X0131961Y0054556D01*
X0135772Y0054556D01*
X0138466Y0057251D01*
X0138466Y0061062D01*
X0135772Y0063756D01*
X0131961Y0063756D01*
X0129861Y0061656D01*
X0121243Y0061656D01*
X0121866Y0063162D01*
X0121866Y0065151D01*
X0121105Y0066988D01*
X0119698Y0068395D01*
X0117861Y0069156D01*
X0109872Y0069156D01*
X0108034Y0069917D01*
X0106627Y0071324D01*
X0106614Y0071356D01*
X0104852Y0071356D01*
X0104250Y0070754D01*
X0101856Y0069372D01*
X0099185Y0068656D01*
X0096421Y0068656D01*
X0093750Y0069372D01*
X0091356Y0070754D01*
X0089401Y0072709D01*
X0088019Y0075103D01*
X0087303Y0077774D01*
X0087303Y0080539D01*
X0088019Y0083209D01*
X0089401Y0085603D01*
X0091356Y0087558D01*
X0093750Y0088941D01*
X0096421Y0089656D01*
X0099185Y0089656D01*
X0100566Y0089286D01*
X0100566Y0095173D01*
X0098716Y0097023D01*
X0098716Y0101289D01*
X0101583Y0104156D01*
X0098716Y0107023D01*
X0098716Y0111289D01*
X0101216Y0113789D01*
X0101216Y0114523D01*
X0098716Y0117023D01*
X0098716Y0117922D01*
X0090682Y0125956D01*
X0087949Y0125956D01*
X0085999Y0124006D01*
X0082850Y0124006D01*
X0077868Y0119024D01*
X0078441Y0117641D01*
X0078441Y0110671D01*
X0077744Y0108990D01*
X0076458Y0107703D01*
X0074776Y0107007D01*
X0072956Y0107007D01*
X0071275Y0107703D01*
X0069988Y0108990D01*
X0069291Y0110671D01*
X0069291Y0117641D01*
X0069988Y0119322D01*
X0071275Y0120609D01*
X0071343Y0120638D01*
X0071788Y0121712D01*
X0078632Y0128556D01*
X0057366Y0128556D01*
X0057366Y0119701D01*
X0057744Y0119322D01*
X0058441Y0117641D01*
X0058441Y0110671D01*
X0057744Y0108990D01*
X0056458Y0107703D01*
X0054776Y0107007D01*
X0052956Y0107007D01*
X0051275Y0107703D01*
X0049988Y0108990D01*
X0049291Y0110671D01*
X0049291Y0117641D01*
X0049988Y0119322D01*
X0051166Y0120501D01*
X0051166Y0134072D01*
X0050516Y0135641D01*
X0050516Y0142671D01*
X0051216Y0144362D01*
X0052510Y0145656D01*
X0054201Y0146356D01*
X0056031Y0146356D01*
X0057722Y0145656D01*
X0059016Y0144362D01*
X0059036Y0144314D01*
X0059260Y0144623D01*
X0059750Y0145112D01*
X0060310Y0145519D01*
X0060927Y0145834D01*
X0061586Y0146048D01*
X0062270Y0146156D01*
X0062616Y0146156D01*
X0062616Y0139156D01*
X0062616Y0139156D01*
X0062616Y0139156D01*
X0067016Y0139156D01*
X0067016Y0136210D01*
X0066908Y0135526D01*
X0066694Y0134867D01*
X0066637Y0134756D01*
X0077032Y0134756D01*
X0087388Y0145112D01*
X0087388Y0145112D01*
X0088260Y0145984D01*
X0089400Y0146456D01*
X0095061Y0146456D01*
X0094266Y0147251D01*
X0094266Y0149446D01*
X0091542Y0152170D01*
X0091116Y0153199D01*
X0091116Y0160436D01*
X0089988Y0161565D01*
X0089291Y0163246D01*
X0089291Y0165066D01*
X0089988Y0166748D01*
X0090396Y0167156D01*
X0088441Y0167156D01*
X0088441Y0160753D01*
X0087269Y0159581D01*
X0087266Y0159581D01*
X0087266Y0153039D01*
X0089016Y0151289D01*
X0089016Y0147023D01*
X0085999Y0144006D01*
X0081733Y0144006D01*
X0078716Y0147023D01*
X0078716Y0151289D01*
X0081066Y0153639D01*
X0081066Y0159581D01*
X0080463Y0159581D01*
X0079291Y0160753D01*
X0079291Y0167156D01*
X0073213Y0167156D01*
X0072225Y0168144D01*
X0072225Y0164376D01*
X0072247Y0164351D01*
X0072225Y0164049D01*
X0072225Y0163746D01*
X0072202Y0163723D01*
X0072122Y0162605D01*
X0072157Y0162550D01*
X0072099Y0162282D01*
X0072079Y0162009D01*
X0072030Y0161966D01*
X0071785Y0160840D01*
X0071812Y0160781D01*
X0071716Y0160524D01*
X0071658Y0160256D01*
X0071603Y0160221D01*
X0071200Y0159141D01*
X0071219Y0159078D01*
X0071087Y0158838D01*
X0070992Y0158581D01*
X0070932Y0158554D01*
X0070380Y0157542D01*
X0070389Y0157478D01*
X0070225Y0157258D01*
X0070094Y0157018D01*
X0070031Y0156999D01*
X0069340Y0156077D01*
X0069340Y0156011D01*
X0069146Y0155818D01*
X0068982Y0155598D01*
X0068918Y0155589D01*
X0068103Y0154774D01*
X0068093Y0154709D01*
X0067874Y0154545D01*
X0067680Y0154351D01*
X0067615Y0154351D01*
X0066692Y0153660D01*
X0066674Y0153598D01*
X0066433Y0153467D01*
X0066214Y0153302D01*
X0066149Y0153312D01*
X0065138Y0152759D01*
X0065111Y0152700D01*
X0064854Y0152604D01*
X0064613Y0152473D01*
X0064551Y0152491D01*
X0063471Y0152088D01*
X0063436Y0152034D01*
X0063168Y0151975D01*
X0062911Y0151879D01*
X0062852Y0151907D01*
X0061725Y0151662D01*
X0061683Y0151612D01*
X0061409Y0151593D01*
X0061141Y0151534D01*
X0061087Y0151570D01*
X0059969Y0151490D01*
X0059946Y0151466D01*
X0059643Y0151466D01*
X0059341Y0151445D01*
X0059316Y0151466D01*
X0045666Y0151466D01*
X0045666Y0062515D01*
X0059316Y0062515D01*
X0059341Y0062537D01*
X0059643Y0062515D01*
X0059946Y0062515D01*
X0059969Y0062492D01*
X0061087Y0062412D01*
X0061141Y0062447D01*
X0061409Y0062389D01*
X0061683Y0062369D01*
X0061725Y0062320D01*
X0062852Y0062075D01*
X0062911Y0062102D01*
X0063168Y0062006D01*
X0063436Y0061948D01*
X0063471Y0061893D01*
X0064551Y0061490D01*
X0064613Y0061509D01*
X0064854Y0061377D01*
X0065111Y0061282D01*
X0065138Y0061222D01*
X0066149Y0060670D01*
X0066214Y0060679D01*
X0066433Y0060515D01*
X0066674Y0060384D01*
X0066692Y0060321D01*
X0067615Y0059630D01*
X0067680Y0059630D01*
X0067874Y0059437D01*
X0068093Y0059272D01*
X0068103Y0059208D01*
X0068918Y0058393D01*
X0068982Y0058383D01*
X0069146Y0058164D01*
X0069340Y0057970D01*
X0069340Y0057905D01*
X0070031Y0056982D01*
X0070094Y0056964D01*
X0070225Y0056723D01*
X0070389Y0056504D01*
X0070380Y0056439D01*
X0070932Y0055428D01*
X0070992Y0055401D01*
X0071087Y0055144D01*
X0071219Y0054903D01*
X0071200Y0054841D01*
X0071603Y0053761D01*
X0071658Y0053726D01*
X0071716Y0053458D01*
X0071812Y0053201D01*
X0071785Y0053142D01*
X0072030Y0052015D01*
X0072079Y0051973D01*
X0072099Y0051699D01*
X0072157Y0051431D01*
X0072122Y0051377D01*
X0072202Y0050259D01*
X0072225Y0050236D01*
X0072225Y0049933D01*
X0072247Y0049631D01*
X0072225Y0049606D01*
X0072225Y0050141D02*
X0107810Y0050141D01*
X0108391Y0048543D02*
X0072225Y0048543D01*
X0072225Y0046944D02*
X0106609Y0046944D01*
X0105947Y0045346D02*
X0072225Y0045346D01*
X0072225Y0043747D02*
X0105866Y0043747D01*
X0106286Y0042149D02*
X0072225Y0042149D01*
X0072225Y0040550D02*
X0107401Y0040550D01*
X0113866Y0044156D02*
X0114066Y0044556D01*
X0118616Y0049106D01*
X0133566Y0049106D01*
X0133866Y0049156D01*
X0138466Y0048543D02*
X0149266Y0048543D01*
X0149266Y0050141D02*
X0138466Y0050141D01*
X0137788Y0051740D02*
X0149944Y0051740D01*
X0151543Y0053338D02*
X0136189Y0053338D01*
X0136152Y0054937D02*
X0151580Y0054937D01*
X0149982Y0056535D02*
X0137751Y0056535D01*
X0138466Y0058134D02*
X0149266Y0058134D01*
X0149266Y0059732D02*
X0138466Y0059732D01*
X0138197Y0061331D02*
X0149535Y0061331D01*
X0151134Y0062929D02*
X0136598Y0062929D01*
X0133866Y0059156D02*
X0133566Y0058856D01*
X0118616Y0058856D01*
X0114066Y0054306D01*
X0113866Y0054156D01*
X0107773Y0058134D02*
X0096188Y0058134D01*
X0096492Y0059732D02*
X0108481Y0059732D01*
X0109872Y0059156D02*
X0114956Y0059156D01*
X0114956Y0059156D01*
X0109872Y0059156D01*
X0106440Y0056535D02*
X0095740Y0056535D01*
X0094817Y0054937D02*
X0105866Y0054937D01*
X0105866Y0053338D02*
X0093527Y0053338D01*
X0091555Y0051740D02*
X0106455Y0051740D01*
X0121866Y0053338D02*
X0131543Y0053338D01*
X0131580Y0054937D02*
X0121866Y0054937D01*
X0121770Y0062929D02*
X0131134Y0062929D01*
X0121866Y0064528D02*
X0165999Y0064528D01*
X0164401Y0066126D02*
X0121462Y0066126D01*
X0120368Y0067725D02*
X0163566Y0067725D01*
X0163566Y0069323D02*
X0118264Y0069323D01*
X0120703Y0070922D02*
X0163041Y0070922D01*
X0161442Y0072520D02*
X0121601Y0072520D01*
X0121866Y0074119D02*
X0159844Y0074119D01*
X0158245Y0075717D02*
X0121631Y0075717D01*
X0120777Y0077316D02*
X0156647Y0077316D01*
X0155048Y0078914D02*
X0118444Y0078914D01*
X0109288Y0078914D02*
X0108303Y0078914D01*
X0108303Y0080513D02*
X0153450Y0080513D01*
X0151934Y0082112D02*
X0107882Y0082112D01*
X0107298Y0083710D02*
X0151566Y0083710D01*
X0151208Y0085309D02*
X0136241Y0085309D01*
X0135689Y0084756D02*
X0138266Y0087334D01*
X0138266Y0089156D01*
X0133866Y0089156D01*
X0133866Y0089156D01*
X0133866Y0084756D01*
X0132044Y0084756D01*
X0129466Y0087334D01*
X0129466Y0089156D01*
X0133866Y0089156D01*
X0133866Y0089156D01*
X0133866Y0084756D01*
X0135689Y0084756D01*
X0133866Y0085309D02*
X0133866Y0085309D01*
X0133866Y0086907D02*
X0133866Y0086907D01*
X0133866Y0088506D02*
X0133866Y0088506D01*
X0133866Y0089156D02*
X0133866Y0089156D01*
X0129466Y0089156D01*
X0129466Y0090979D01*
X0132044Y0093556D01*
X0133866Y0093556D01*
X0133866Y0089156D01*
X0133866Y0089156D01*
X0138266Y0089156D01*
X0138266Y0090979D01*
X0135689Y0093556D01*
X0133866Y0093556D01*
X0133866Y0089156D01*
X0133866Y0090104D02*
X0133866Y0090104D01*
X0133866Y0091703D02*
X0133866Y0091703D01*
X0133866Y0093301D02*
X0133866Y0093301D01*
X0131789Y0093301D02*
X0106766Y0093301D01*
X0106766Y0091703D02*
X0130190Y0091703D01*
X0129466Y0090104D02*
X0106766Y0090104D01*
X0106766Y0088506D02*
X0129466Y0088506D01*
X0129893Y0086907D02*
X0106766Y0086907D01*
X0106766Y0085309D02*
X0131491Y0085309D01*
X0137840Y0086907D02*
X0149610Y0086907D01*
X0149266Y0088506D02*
X0138266Y0088506D01*
X0138266Y0090104D02*
X0149266Y0090104D01*
X0153866Y0089156D02*
X0154366Y0088756D01*
X0154366Y0083556D01*
X0168666Y0069256D01*
X0168866Y0069156D01*
X0173332Y0066126D02*
X0174401Y0066126D01*
X0175999Y0064528D02*
X0171733Y0064528D01*
X0180359Y0062929D02*
X0156598Y0062929D01*
X0158197Y0061331D02*
X0181957Y0061331D01*
X0183556Y0059732D02*
X0158466Y0059732D01*
X0158466Y0058134D02*
X0185154Y0058134D01*
X0188816Y0064056D02*
X0187516Y0065356D01*
X0188816Y0064056D02*
X0203766Y0064056D01*
X0206366Y0066656D01*
X0206366Y0068606D01*
X0206819Y0069146D01*
X0212216Y0068606D02*
X0212724Y0069146D01*
X0212216Y0068606D02*
X0212216Y0066656D01*
X0199866Y0054306D01*
X0158916Y0054306D01*
X0154366Y0049756D01*
X0153866Y0049156D01*
X0149573Y0046944D02*
X0138160Y0046944D01*
X0136561Y0045346D02*
X0151171Y0045346D01*
X0156561Y0045346D02*
X0160676Y0045346D01*
X0159078Y0046944D02*
X0158160Y0046944D01*
X0158466Y0048543D02*
X0158916Y0048543D01*
X0158916Y0050141D02*
X0158711Y0050141D01*
X0163866Y0049156D02*
X0163866Y0049156D01*
X0163866Y0048543D02*
X0163866Y0048543D01*
X0163866Y0046944D02*
X0163866Y0046944D01*
X0163866Y0045346D02*
X0163866Y0045346D01*
X0167056Y0045346D02*
X0180393Y0045346D01*
X0178795Y0046944D02*
X0168655Y0046944D01*
X0168816Y0048543D02*
X0178716Y0048543D01*
X0178716Y0050141D02*
X0168816Y0050141D01*
X0194892Y0043747D02*
X0121866Y0043747D01*
X0121785Y0045346D02*
X0131171Y0045346D01*
X0121447Y0042149D02*
X0203641Y0042149D01*
X0203684Y0040550D02*
X0120331Y0040550D01*
X0107364Y0067725D02*
X0093769Y0067725D01*
X0093931Y0069323D02*
X0091973Y0069323D01*
X0091188Y0070922D02*
X0088234Y0070922D01*
X0089590Y0072520D02*
X0082063Y0072520D01*
X0081873Y0072282D02*
X0082595Y0073186D01*
X0083210Y0074166D01*
X0083712Y0075208D01*
X0084094Y0076300D01*
X0084352Y0077428D01*
X0084456Y0078356D01*
X0074981Y0078356D01*
X0074981Y0068881D01*
X0075909Y0068986D01*
X0077037Y0069243D01*
X0078129Y0069625D01*
X0079171Y0070127D01*
X0080151Y0070743D01*
X0081055Y0071464D01*
X0081873Y0072282D01*
X0080376Y0070922D02*
X0083750Y0070922D01*
X0083181Y0074119D02*
X0088587Y0074119D01*
X0087854Y0075717D02*
X0083890Y0075717D01*
X0084326Y0077316D02*
X0087426Y0077316D01*
X0087303Y0078914D02*
X0074981Y0078914D01*
X0074981Y0078356D02*
X0074981Y0079956D01*
X0084456Y0079956D01*
X0084352Y0080884D01*
X0084094Y0082012D01*
X0083712Y0083104D01*
X0083210Y0084146D01*
X0082595Y0085126D01*
X0081873Y0086030D01*
X0081055Y0086848D01*
X0080151Y0087570D01*
X0079171Y0088185D01*
X0078129Y0088687D01*
X0077037Y0089069D01*
X0075909Y0089327D01*
X0074981Y0089431D01*
X0074981Y0079956D01*
X0073381Y0079956D01*
X0073381Y0078356D01*
X0074981Y0078356D01*
X0074981Y0077316D02*
X0073381Y0077316D01*
X0073381Y0078356D02*
X0073381Y0068881D01*
X0072453Y0068986D01*
X0071325Y0069243D01*
X0070233Y0069625D01*
X0069191Y0070127D01*
X0068211Y0070743D01*
X0067307Y0071464D01*
X0066489Y0072282D01*
X0065768Y0073186D01*
X0065152Y0074166D01*
X0064650Y0075208D01*
X0064268Y0076300D01*
X0064011Y0077428D01*
X0063906Y0078356D01*
X0073381Y0078356D01*
X0073381Y0078914D02*
X0045666Y0078914D01*
X0045666Y0077316D02*
X0064036Y0077316D01*
X0064472Y0075717D02*
X0045666Y0075717D01*
X0045666Y0074119D02*
X0065182Y0074119D01*
X0066299Y0072520D02*
X0045666Y0072520D01*
X0045666Y0070922D02*
X0067987Y0070922D01*
X0071096Y0069323D02*
X0045666Y0069323D01*
X0045666Y0067725D02*
X0078216Y0067725D01*
X0077266Y0069323D02*
X0080011Y0069323D01*
X0077028Y0066126D02*
X0045666Y0066126D01*
X0045666Y0064528D02*
X0076160Y0064528D01*
X0075732Y0062929D02*
X0045666Y0062929D01*
X0064979Y0061331D02*
X0075492Y0061331D01*
X0075492Y0059732D02*
X0067479Y0059732D01*
X0069177Y0058134D02*
X0075797Y0058134D01*
X0076245Y0056535D02*
X0070366Y0056535D01*
X0071200Y0054937D02*
X0077168Y0054937D01*
X0078457Y0053338D02*
X0071761Y0053338D01*
X0072096Y0051740D02*
X0080429Y0051740D01*
X0072225Y0038952D02*
X0219922Y0038952D01*
X0222220Y0038952D02*
X0251728Y0038952D01*
X0251728Y0040550D02*
X0250194Y0040550D01*
X0249950Y0040306D02*
X0250512Y0040868D01*
X0250979Y0041510D01*
X0251340Y0042218D01*
X0251585Y0042974D01*
X0251709Y0043759D01*
X0251709Y0043873D01*
X0246944Y0043873D01*
X0246944Y0039108D01*
X0247059Y0039108D01*
X0247844Y0039232D01*
X0248599Y0039478D01*
X0249307Y0039839D01*
X0249950Y0040306D01*
X0251304Y0042149D02*
X0251728Y0042149D01*
X0251708Y0043747D02*
X0251728Y0043747D01*
X0251709Y0044439D02*
X0246944Y0044439D01*
X0246379Y0044439D01*
X0246379Y0049204D01*
X0246264Y0049204D01*
X0245479Y0049080D01*
X0244724Y0048834D01*
X0244016Y0048474D01*
X0243373Y0048007D01*
X0242811Y0047445D01*
X0242344Y0046802D01*
X0241983Y0046094D01*
X0241738Y0045338D01*
X0241613Y0044553D01*
X0241613Y0044439D01*
X0246379Y0044439D01*
X0246379Y0043873D01*
X0246944Y0043873D01*
X0246944Y0044439D01*
X0246944Y0049204D01*
X0247059Y0049204D01*
X0247844Y0049080D01*
X0248599Y0048834D01*
X0249307Y0048474D01*
X0249950Y0048007D01*
X0250512Y0047445D01*
X0250979Y0046802D01*
X0251340Y0046094D01*
X0251585Y0045338D01*
X0251709Y0044553D01*
X0251709Y0044439D01*
X0251728Y0045346D02*
X0251583Y0045346D01*
X0251728Y0046944D02*
X0250875Y0046944D01*
X0251728Y0048543D02*
X0249171Y0048543D01*
X0246944Y0048543D02*
X0246379Y0048543D01*
X0246379Y0046944D02*
X0246944Y0046944D01*
X0246944Y0045346D02*
X0246379Y0045346D01*
X0246379Y0043873D02*
X0241613Y0043873D01*
X0241613Y0043759D01*
X0241738Y0042974D01*
X0241983Y0042218D01*
X0242344Y0041510D01*
X0242811Y0040868D01*
X0243373Y0040306D01*
X0244016Y0039839D01*
X0244724Y0039478D01*
X0245479Y0039232D01*
X0246264Y0039108D01*
X0246379Y0039108D01*
X0246379Y0043873D01*
X0246379Y0043747D02*
X0246944Y0043747D01*
X0246944Y0042149D02*
X0246379Y0042149D01*
X0246379Y0040550D02*
X0246944Y0040550D01*
X0243128Y0040550D02*
X0224887Y0040550D01*
X0225920Y0042149D02*
X0242019Y0042149D01*
X0241615Y0043747D02*
X0226319Y0043747D01*
X0226259Y0045346D02*
X0241740Y0045346D01*
X0242447Y0046944D02*
X0225596Y0046944D01*
X0224116Y0048543D02*
X0244151Y0048543D01*
X0243866Y0054206D02*
X0245916Y0054206D01*
X0248816Y0057106D01*
X0248816Y0059156D01*
X0243866Y0059156D01*
X0243866Y0059156D01*
X0243866Y0054206D01*
X0241816Y0054206D01*
X0238916Y0057106D01*
X0238916Y0059156D01*
X0243866Y0059156D01*
X0243866Y0059156D01*
X0243866Y0054206D01*
X0243866Y0054937D02*
X0243866Y0054937D01*
X0243866Y0056535D02*
X0243866Y0056535D01*
X0243866Y0058134D02*
X0243866Y0058134D01*
X0243866Y0059156D02*
X0243866Y0059156D01*
X0238916Y0059156D01*
X0238916Y0061207D01*
X0241816Y0064106D01*
X0243866Y0064106D01*
X0243866Y0059156D01*
X0243866Y0059156D01*
X0248816Y0059156D01*
X0248816Y0061207D01*
X0245916Y0064106D01*
X0243866Y0064106D01*
X0243866Y0059156D01*
X0243866Y0059732D02*
X0243866Y0059732D01*
X0243866Y0061331D02*
X0243866Y0061331D01*
X0243866Y0062929D02*
X0243866Y0062929D01*
X0245157Y0064528D02*
X0245758Y0064528D01*
X0247093Y0062929D02*
X0252830Y0062929D01*
X0254429Y0061331D02*
X0248692Y0061331D01*
X0248816Y0059732D02*
X0256474Y0059732D01*
X0254776Y0058134D02*
X0248816Y0058134D01*
X0248246Y0056535D02*
X0253587Y0056535D01*
X0252752Y0054937D02*
X0246647Y0054937D01*
X0241085Y0054937D02*
X0226930Y0054937D01*
X0228528Y0056535D02*
X0239487Y0056535D01*
X0238916Y0058134D02*
X0229016Y0058134D01*
X0229016Y0059732D02*
X0238916Y0059732D01*
X0239040Y0061331D02*
X0229701Y0061331D01*
X0231299Y0062929D02*
X0240639Y0062929D01*
X0239347Y0064528D02*
X0239251Y0064528D01*
X0233442Y0064528D02*
X0233346Y0064528D01*
X0230416Y0066006D02*
X0223916Y0059506D01*
X0223866Y0059156D01*
X0221316Y0058856D01*
X0221316Y0044556D01*
X0221071Y0044156D01*
X0216222Y0042149D02*
X0212753Y0042149D01*
X0212753Y0043747D02*
X0215823Y0043747D01*
X0215883Y0045346D02*
X0212693Y0045346D01*
X0212298Y0046944D02*
X0216545Y0046944D01*
X0218036Y0048543D02*
X0212953Y0048543D01*
X0212953Y0050141D02*
X0218516Y0050141D01*
X0218516Y0051740D02*
X0212953Y0051740D01*
X0212808Y0053338D02*
X0218516Y0053338D01*
X0218516Y0054937D02*
X0216152Y0054937D01*
X0217751Y0056535D02*
X0218516Y0056535D01*
X0224116Y0053338D02*
X0252192Y0053338D01*
X0251857Y0051740D02*
X0224116Y0051740D01*
X0224116Y0050141D02*
X0251728Y0050141D01*
X0251728Y0037353D02*
X0072225Y0037353D01*
X0073381Y0069323D02*
X0074981Y0069323D01*
X0074981Y0070922D02*
X0073381Y0070922D01*
X0073381Y0072520D02*
X0074981Y0072520D01*
X0074981Y0074119D02*
X0073381Y0074119D01*
X0073381Y0075717D02*
X0074981Y0075717D01*
X0073381Y0079956D02*
X0063906Y0079956D01*
X0064011Y0080884D01*
X0064268Y0082012D01*
X0064650Y0083104D01*
X0065152Y0084146D01*
X0065768Y0085126D01*
X0066489Y0086030D01*
X0067307Y0086848D01*
X0068211Y0087570D01*
X0069191Y0088185D01*
X0070233Y0088687D01*
X0071325Y0089069D01*
X0072453Y0089327D01*
X0073381Y0089431D01*
X0073381Y0079956D01*
X0073381Y0080513D02*
X0074981Y0080513D01*
X0074981Y0082112D02*
X0073381Y0082112D01*
X0073381Y0083710D02*
X0074981Y0083710D01*
X0074981Y0085309D02*
X0073381Y0085309D01*
X0073381Y0086907D02*
X0074981Y0086907D01*
X0074981Y0088506D02*
X0073381Y0088506D01*
X0069856Y0088506D02*
X0045666Y0088506D01*
X0045666Y0090104D02*
X0100566Y0090104D01*
X0100566Y0091703D02*
X0045666Y0091703D01*
X0045666Y0093301D02*
X0100566Y0093301D01*
X0100566Y0094900D02*
X0045666Y0094900D01*
X0045666Y0096498D02*
X0099241Y0096498D01*
X0098716Y0098097D02*
X0045666Y0098097D01*
X0045666Y0099695D02*
X0098716Y0099695D01*
X0098720Y0101294D02*
X0045666Y0101294D01*
X0045666Y0102892D02*
X0100319Y0102892D01*
X0101248Y0104491D02*
X0045666Y0104491D01*
X0045666Y0106089D02*
X0099650Y0106089D01*
X0098716Y0107688D02*
X0076421Y0107688D01*
X0077867Y0109286D02*
X0098716Y0109286D01*
X0098716Y0110885D02*
X0078441Y0110885D01*
X0078441Y0112483D02*
X0099910Y0112483D01*
X0101216Y0114082D02*
X0078441Y0114082D01*
X0078441Y0115680D02*
X0100059Y0115680D01*
X0098716Y0117279D02*
X0078441Y0117279D01*
X0077929Y0118877D02*
X0097761Y0118877D01*
X0096162Y0120476D02*
X0079320Y0120476D01*
X0080918Y0122074D02*
X0094564Y0122074D01*
X0092965Y0123673D02*
X0082517Y0123673D01*
X0087264Y0125271D02*
X0091367Y0125271D01*
X0098866Y0129156D02*
X0099116Y0129706D01*
X0101716Y0129706D01*
X0110816Y0138806D01*
X0121216Y0138806D01*
X0121366Y0139156D01*
X0119155Y0134862D02*
X0110832Y0134862D01*
X0111759Y0133264D02*
X0119251Y0133264D01*
X0121366Y0133264D02*
X0121366Y0133264D01*
X0121366Y0131665D02*
X0121366Y0131665D01*
X0121366Y0130067D02*
X0121366Y0130067D01*
X0121366Y0128468D02*
X0121366Y0128468D01*
X0121366Y0126870D02*
X0121366Y0126870D01*
X0121366Y0125271D02*
X0121366Y0125271D01*
X0121382Y0123673D02*
X0106633Y0123673D01*
X0105751Y0125271D02*
X0101487Y0125271D01*
X0103085Y0126870D02*
X0104152Y0126870D01*
X0108866Y0126870D02*
X0108866Y0126870D01*
X0108866Y0128468D02*
X0108866Y0128468D01*
X0108866Y0129156D02*
X0108866Y0124206D01*
X0110916Y0124206D01*
X0113816Y0127106D01*
X0113816Y0129156D01*
X0108866Y0129156D01*
X0108866Y0129156D01*
X0108866Y0125271D02*
X0108866Y0125271D01*
X0111982Y0125271D02*
X0119028Y0125271D01*
X0117430Y0126870D02*
X0113580Y0126870D01*
X0113816Y0128468D02*
X0116966Y0128468D01*
X0116966Y0130067D02*
X0113816Y0130067D01*
X0113357Y0131665D02*
X0117653Y0131665D01*
X0123481Y0133264D02*
X0124266Y0133264D01*
X0124266Y0134862D02*
X0123578Y0134862D01*
X0128866Y0134156D02*
X0129016Y0133606D01*
X0129016Y0131656D01*
X0139416Y0121256D01*
X0139416Y0105006D01*
X0134216Y0099806D01*
X0133866Y0099156D01*
X0134216Y0099156D01*
X0139416Y0093956D01*
X0166066Y0093956D01*
X0175816Y0084206D01*
X0185566Y0084206D01*
X0188816Y0087456D01*
X0188816Y0101556D01*
X0218066Y0130806D01*
X0218066Y0138806D01*
X0218630Y0139166D01*
X0212724Y0139166D02*
X0212216Y0138806D01*
X0212216Y0132306D01*
X0181341Y0101431D01*
X0177766Y0105006D01*
X0177766Y0114756D01*
X0177666Y0115306D01*
X0181016Y0115406D02*
X0181016Y0118656D01*
X0179716Y0119956D01*
X0175816Y0119956D01*
X0174516Y0118656D01*
X0174516Y0098506D01*
X0183866Y0089156D01*
X0187940Y0082620D02*
X0191190Y0085870D01*
X0191616Y0086899D01*
X0191616Y0092056D01*
X0192703Y0092056D01*
X0193879Y0092543D01*
X0194779Y0093444D01*
X0195266Y0094620D01*
X0195266Y0095893D01*
X0195060Y0096390D01*
X0220026Y0121356D01*
X0224423Y0121356D01*
X0225452Y0121782D01*
X0226240Y0122570D01*
X0237913Y0134243D01*
X0238947Y0134243D01*
X0239299Y0134595D01*
X0239652Y0134243D01*
X0244852Y0134243D01*
X0244866Y0134257D01*
X0244866Y0096090D01*
X0226332Y0077556D01*
X0190800Y0077556D01*
X0189660Y0077084D01*
X0184047Y0071471D01*
X0181061Y0074456D01*
X0178250Y0074456D01*
X0167216Y0085490D01*
X0167216Y0086001D01*
X0168466Y0087251D01*
X0168466Y0087596D01*
X0174230Y0081832D01*
X0175259Y0081406D01*
X0186123Y0081406D01*
X0187152Y0081832D01*
X0187940Y0082620D01*
X0187431Y0082112D02*
X0230887Y0082112D01*
X0232486Y0083710D02*
X0189030Y0083710D01*
X0190628Y0085309D02*
X0234084Y0085309D01*
X0233416Y0086325D02*
X0233416Y0109488D01*
X0232948Y0109956D01*
X0209785Y0109956D01*
X0209316Y0109488D01*
X0209316Y0086325D01*
X0209785Y0085856D01*
X0232948Y0085856D01*
X0233416Y0086325D01*
X0233416Y0086907D02*
X0235683Y0086907D01*
X0237281Y0088506D02*
X0233416Y0088506D01*
X0233416Y0090104D02*
X0238880Y0090104D01*
X0240479Y0091703D02*
X0233416Y0091703D01*
X0233416Y0093301D02*
X0242077Y0093301D01*
X0243676Y0094900D02*
X0233416Y0094900D01*
X0233416Y0096498D02*
X0244866Y0096498D01*
X0244866Y0098097D02*
X0233416Y0098097D01*
X0233416Y0099695D02*
X0244866Y0099695D01*
X0244866Y0101294D02*
X0233416Y0101294D01*
X0233416Y0102892D02*
X0244866Y0102892D01*
X0244866Y0104491D02*
X0233416Y0104491D01*
X0233416Y0106089D02*
X0244866Y0106089D01*
X0244866Y0107688D02*
X0233416Y0107688D01*
X0233416Y0109286D02*
X0244866Y0109286D01*
X0244866Y0110885D02*
X0209554Y0110885D01*
X0209316Y0109286D02*
X0207956Y0109286D01*
X0209316Y0107688D02*
X0206357Y0107688D01*
X0204759Y0106089D02*
X0209316Y0106089D01*
X0209316Y0104491D02*
X0203160Y0104491D01*
X0201562Y0102892D02*
X0209316Y0102892D01*
X0209316Y0101294D02*
X0199963Y0101294D01*
X0198365Y0099695D02*
X0209316Y0099695D01*
X0209316Y0098097D02*
X0196766Y0098097D01*
X0195168Y0096498D02*
X0209316Y0096498D01*
X0209316Y0094900D02*
X0195266Y0094900D01*
X0194637Y0093301D02*
X0209316Y0093301D01*
X0209316Y0091703D02*
X0191616Y0091703D01*
X0191616Y0090104D02*
X0209316Y0090104D01*
X0209316Y0088506D02*
X0191616Y0088506D01*
X0191616Y0086907D02*
X0209316Y0086907D01*
X0227690Y0078914D02*
X0173792Y0078914D01*
X0175390Y0077316D02*
X0190220Y0077316D01*
X0188293Y0075717D02*
X0176989Y0075717D01*
X0181399Y0074119D02*
X0186695Y0074119D01*
X0185096Y0072520D02*
X0182997Y0072520D01*
X0189371Y0068027D02*
X0192700Y0071356D01*
X0197342Y0071356D01*
X0197342Y0069232D01*
X0200827Y0069232D01*
X0200827Y0069060D01*
X0197342Y0069060D01*
X0197342Y0066856D01*
X0190358Y0066856D01*
X0190229Y0067169D01*
X0189371Y0068027D01*
X0189673Y0067725D02*
X0197342Y0067725D01*
X0197342Y0069323D02*
X0190667Y0069323D01*
X0192266Y0070922D02*
X0197342Y0070922D01*
X0213276Y0063756D02*
X0213743Y0064223D01*
X0215324Y0064223D01*
X0215836Y0064735D01*
X0216163Y0064546D01*
X0216621Y0064423D01*
X0218544Y0064423D01*
X0218544Y0069060D01*
X0218716Y0069060D01*
X0218716Y0064423D01*
X0220639Y0064423D01*
X0221096Y0064546D01*
X0221507Y0064783D01*
X0221583Y0064859D01*
X0221659Y0064783D01*
X0222069Y0064546D01*
X0222527Y0064423D01*
X0224450Y0064423D01*
X0224450Y0069060D01*
X0224621Y0069060D01*
X0224621Y0064423D01*
X0224873Y0064423D01*
X0224756Y0064306D01*
X0221733Y0064306D01*
X0219733Y0062306D01*
X0217222Y0062306D01*
X0215772Y0063756D01*
X0213276Y0063756D01*
X0215629Y0064528D02*
X0216230Y0064528D01*
X0216598Y0062929D02*
X0220356Y0062929D01*
X0221030Y0064528D02*
X0222136Y0064528D01*
X0224450Y0064528D02*
X0224621Y0064528D01*
X0224621Y0066126D02*
X0224450Y0066126D01*
X0224450Y0067725D02*
X0224621Y0067725D01*
X0224450Y0069060D02*
X0220964Y0069060D01*
X0218716Y0069060D01*
X0218716Y0069232D01*
X0224450Y0069232D01*
X0224450Y0069060D01*
X0218716Y0067725D02*
X0218544Y0067725D01*
X0218544Y0066126D02*
X0218716Y0066126D01*
X0218716Y0064528D02*
X0218544Y0064528D01*
X0214166Y0059506D02*
X0213866Y0059156D01*
X0213516Y0058856D01*
X0208316Y0053656D01*
X0208316Y0050406D01*
X0208197Y0050396D01*
X0208013Y0042149D02*
X0208381Y0042149D01*
X0208381Y0040550D02*
X0208013Y0040550D01*
X0212710Y0040550D02*
X0217255Y0040550D01*
X0214166Y0059506D02*
X0223266Y0059506D01*
X0223866Y0059156D01*
X0230416Y0066006D02*
X0230416Y0068606D01*
X0230441Y0069146D01*
X0231614Y0074070D02*
X0249766Y0092222D01*
X0249766Y0073870D01*
X0248243Y0073870D01*
X0248243Y0069232D01*
X0248072Y0069232D01*
X0248072Y0073870D01*
X0246149Y0073870D01*
X0245691Y0073747D01*
X0245364Y0073558D01*
X0244852Y0074070D01*
X0239652Y0074070D01*
X0239299Y0073717D01*
X0238947Y0074070D01*
X0233746Y0074070D01*
X0233394Y0073717D01*
X0233041Y0074070D01*
X0231614Y0074070D01*
X0231663Y0074119D02*
X0249766Y0074119D01*
X0249766Y0075717D02*
X0233261Y0075717D01*
X0234860Y0077316D02*
X0249766Y0077316D01*
X0249766Y0078914D02*
X0236459Y0078914D01*
X0238057Y0080513D02*
X0249766Y0080513D01*
X0249766Y0082112D02*
X0239656Y0082112D01*
X0241254Y0083710D02*
X0249766Y0083710D01*
X0249766Y0085309D02*
X0242853Y0085309D01*
X0244451Y0086907D02*
X0249766Y0086907D01*
X0249766Y0088506D02*
X0246050Y0088506D01*
X0247648Y0090104D02*
X0249766Y0090104D01*
X0249766Y0091703D02*
X0249247Y0091703D01*
X0229289Y0080513D02*
X0172193Y0080513D01*
X0170595Y0082112D02*
X0173951Y0082112D01*
X0172352Y0083710D02*
X0168996Y0083710D01*
X0167398Y0085309D02*
X0170754Y0085309D01*
X0169155Y0086907D02*
X0168122Y0086907D01*
X0159761Y0096756D02*
X0157689Y0096756D01*
X0158266Y0097334D01*
X0158266Y0099156D01*
X0153866Y0099156D01*
X0149466Y0099156D01*
X0149466Y0097334D01*
X0150044Y0096756D01*
X0140576Y0096756D01*
X0138466Y0098866D01*
X0138466Y0100096D01*
X0141790Y0103420D01*
X0142216Y0104449D01*
X0142216Y0121813D01*
X0141790Y0122842D01*
X0141002Y0123630D01*
X0132924Y0131708D01*
X0133466Y0132251D01*
X0133466Y0132572D01*
X0144766Y0121272D01*
X0144766Y0115440D01*
X0145238Y0114300D01*
X0149266Y0110272D01*
X0149266Y0107251D01*
X0151961Y0104556D01*
X0154332Y0104556D01*
X0155210Y0103678D01*
X0155332Y0103556D01*
X0153866Y0103556D01*
X0152044Y0103556D01*
X0149466Y0100979D01*
X0149466Y0099156D01*
X0153866Y0099156D01*
X0153866Y0099156D01*
X0153866Y0099156D01*
X0153866Y0103556D01*
X0153866Y0099156D01*
X0153866Y0099156D01*
X0158266Y0099156D01*
X0158266Y0100622D01*
X0159266Y0099622D01*
X0159266Y0097251D01*
X0159761Y0096756D01*
X0159266Y0098097D02*
X0158266Y0098097D01*
X0158266Y0099695D02*
X0159193Y0099695D01*
X0153866Y0099695D02*
X0153866Y0099695D01*
X0153866Y0101294D02*
X0153866Y0101294D01*
X0153866Y0102892D02*
X0153866Y0102892D01*
X0154398Y0104491D02*
X0142216Y0104491D01*
X0142216Y0106089D02*
X0150428Y0106089D01*
X0149266Y0107688D02*
X0142216Y0107688D01*
X0142216Y0109286D02*
X0149266Y0109286D01*
X0148654Y0110885D02*
X0142216Y0110885D01*
X0142216Y0112483D02*
X0147055Y0112483D01*
X0145457Y0114082D02*
X0142216Y0114082D01*
X0142216Y0115680D02*
X0144766Y0115680D01*
X0144766Y0117279D02*
X0142216Y0117279D01*
X0142216Y0118877D02*
X0144766Y0118877D01*
X0144766Y0120476D02*
X0142216Y0120476D01*
X0142108Y0122074D02*
X0143964Y0122074D01*
X0142365Y0123673D02*
X0140959Y0123673D01*
X0140767Y0125271D02*
X0139361Y0125271D01*
X0139168Y0126870D02*
X0137762Y0126870D01*
X0137570Y0128468D02*
X0136164Y0128468D01*
X0135971Y0130067D02*
X0134565Y0130067D01*
X0134373Y0131665D02*
X0132967Y0131665D01*
X0128244Y0128468D02*
X0125766Y0128468D01*
X0125766Y0130067D02*
X0126450Y0130067D01*
X0125302Y0126870D02*
X0129843Y0126870D01*
X0131441Y0125271D02*
X0123704Y0125271D01*
X0123866Y0123673D02*
X0123866Y0123673D01*
X0123866Y0122074D02*
X0123866Y0122074D01*
X0123866Y0120476D02*
X0123866Y0120476D01*
X0123866Y0118877D02*
X0123866Y0118877D01*
X0123866Y0117279D02*
X0123866Y0117279D01*
X0123866Y0115680D02*
X0123866Y0115680D01*
X0123866Y0114106D02*
X0123866Y0109156D01*
X0128816Y0109156D01*
X0128816Y0111207D01*
X0125916Y0114106D01*
X0123866Y0114106D01*
X0123866Y0114082D02*
X0123866Y0114082D01*
X0123866Y0112483D02*
X0123866Y0112483D01*
X0123866Y0110885D02*
X0123866Y0110885D01*
X0123866Y0109286D02*
X0123866Y0109286D01*
X0127539Y0112483D02*
X0130688Y0112483D01*
X0131416Y0114082D02*
X0125941Y0114082D01*
X0127391Y0115680D02*
X0130059Y0115680D01*
X0134216Y0118656D02*
X0133866Y0119156D01*
X0134216Y0118656D02*
X0134216Y0109556D01*
X0133866Y0109156D01*
X0129266Y0109286D02*
X0128816Y0109286D01*
X0128816Y0107688D02*
X0129266Y0107688D01*
X0130428Y0106089D02*
X0127799Y0106089D01*
X0126201Y0104491D02*
X0134941Y0104491D01*
X0131097Y0102892D02*
X0127413Y0102892D01*
X0129012Y0101294D02*
X0129498Y0101294D01*
X0129266Y0099695D02*
X0129016Y0099695D01*
X0129016Y0098097D02*
X0129266Y0098097D01*
X0130019Y0096498D02*
X0128491Y0096498D01*
X0126893Y0094900D02*
X0131617Y0094900D01*
X0135944Y0093301D02*
X0136111Y0093301D01*
X0137542Y0091703D02*
X0137710Y0091703D01*
X0139235Y0098097D02*
X0149466Y0098097D01*
X0149466Y0099695D02*
X0138466Y0099695D01*
X0139663Y0101294D02*
X0149781Y0101294D01*
X0151380Y0102892D02*
X0141262Y0102892D01*
X0129266Y0110885D02*
X0128816Y0110885D01*
X0121791Y0114082D02*
X0107416Y0114082D01*
X0107673Y0115680D02*
X0120342Y0115680D01*
X0118916Y0117279D02*
X0109016Y0117279D01*
X0109016Y0118877D02*
X0118916Y0118877D01*
X0118916Y0120476D02*
X0109016Y0120476D01*
X0108231Y0122074D02*
X0119784Y0122074D01*
X0126350Y0123673D02*
X0131100Y0123673D01*
X0129501Y0122074D02*
X0127948Y0122074D01*
X0120193Y0112483D02*
X0107822Y0112483D01*
X0109016Y0110885D02*
X0118916Y0110885D01*
X0118916Y0109286D02*
X0109016Y0109286D01*
X0110569Y0107688D02*
X0118916Y0107688D01*
X0119933Y0106089D02*
X0112167Y0106089D01*
X0113766Y0104491D02*
X0121531Y0104491D01*
X0120319Y0102892D02*
X0115364Y0102892D01*
X0111392Y0098097D02*
X0109016Y0098097D01*
X0109016Y0099695D02*
X0109793Y0099695D01*
X0108491Y0096498D02*
X0113033Y0096498D01*
X0106893Y0094900D02*
X0120840Y0094900D01*
X0092997Y0088506D02*
X0078506Y0088506D01*
X0080982Y0086907D02*
X0090705Y0086907D01*
X0089231Y0085309D02*
X0082449Y0085309D01*
X0083420Y0083710D02*
X0088308Y0083710D01*
X0087725Y0082112D02*
X0084059Y0082112D01*
X0084393Y0080513D02*
X0087303Y0080513D01*
X0101676Y0069323D02*
X0109468Y0069323D01*
X0107029Y0070922D02*
X0104418Y0070922D01*
X0067380Y0086907D02*
X0045666Y0086907D01*
X0045666Y0085309D02*
X0065913Y0085309D01*
X0064942Y0083710D02*
X0045666Y0083710D01*
X0045666Y0082112D02*
X0064303Y0082112D01*
X0063969Y0080513D02*
X0045666Y0080513D01*
X0045666Y0107688D02*
X0051312Y0107688D01*
X0049865Y0109286D02*
X0045666Y0109286D01*
X0045666Y0110885D02*
X0049291Y0110885D01*
X0049291Y0112483D02*
X0045666Y0112483D01*
X0045666Y0114082D02*
X0049291Y0114082D01*
X0049291Y0115680D02*
X0045666Y0115680D01*
X0045666Y0117279D02*
X0049291Y0117279D01*
X0049803Y0118877D02*
X0045666Y0118877D01*
X0045666Y0120476D02*
X0051141Y0120476D01*
X0051166Y0122074D02*
X0045666Y0122074D01*
X0045666Y0123673D02*
X0051166Y0123673D01*
X0051166Y0125271D02*
X0045666Y0125271D01*
X0045666Y0126870D02*
X0051166Y0126870D01*
X0051166Y0128468D02*
X0045666Y0128468D01*
X0045666Y0130067D02*
X0051166Y0130067D01*
X0051166Y0131665D02*
X0045666Y0131665D01*
X0045666Y0133264D02*
X0051166Y0133264D01*
X0050839Y0134862D02*
X0045666Y0134862D01*
X0045666Y0136461D02*
X0050516Y0136461D01*
X0050516Y0138059D02*
X0045666Y0138059D01*
X0045666Y0139658D02*
X0050516Y0139658D01*
X0050516Y0141256D02*
X0045666Y0141256D01*
X0045666Y0142855D02*
X0050592Y0142855D01*
X0051308Y0144453D02*
X0045666Y0144453D01*
X0045666Y0146052D02*
X0053467Y0146052D01*
X0056766Y0146052D02*
X0061612Y0146052D01*
X0062616Y0146052D02*
X0062616Y0146052D01*
X0062616Y0146156D02*
X0062616Y0139156D01*
X0067016Y0139156D01*
X0067016Y0142102D01*
X0066908Y0142786D01*
X0066694Y0143445D01*
X0066379Y0144062D01*
X0065972Y0144623D01*
X0065483Y0145112D01*
X0064922Y0145519D01*
X0064305Y0145834D01*
X0063646Y0146048D01*
X0062962Y0146156D01*
X0062616Y0146156D01*
X0063620Y0146052D02*
X0079687Y0146052D01*
X0078716Y0147650D02*
X0045666Y0147650D01*
X0045666Y0149249D02*
X0078716Y0149249D01*
X0078716Y0150847D02*
X0045666Y0150847D01*
X0058924Y0144453D02*
X0059137Y0144453D01*
X0062616Y0144453D02*
X0062616Y0144453D01*
X0062616Y0142855D02*
X0062616Y0142855D01*
X0062616Y0141256D02*
X0062616Y0141256D01*
X0062616Y0139658D02*
X0062616Y0139658D01*
X0067016Y0139658D02*
X0081934Y0139658D01*
X0083532Y0141256D02*
X0067016Y0141256D01*
X0066886Y0142855D02*
X0085131Y0142855D01*
X0086447Y0144453D02*
X0086729Y0144453D01*
X0088045Y0146052D02*
X0088424Y0146052D01*
X0089016Y0147650D02*
X0094266Y0147650D01*
X0094266Y0149249D02*
X0089016Y0149249D01*
X0089016Y0150847D02*
X0092865Y0150847D01*
X0091428Y0152446D02*
X0087859Y0152446D01*
X0087266Y0154045D02*
X0091116Y0154045D01*
X0091116Y0155643D02*
X0087266Y0155643D01*
X0087266Y0157242D02*
X0091116Y0157242D01*
X0091116Y0158840D02*
X0087266Y0158840D01*
X0088127Y0160439D02*
X0091114Y0160439D01*
X0089792Y0162037D02*
X0088441Y0162037D01*
X0088441Y0163636D02*
X0089291Y0163636D01*
X0089361Y0165234D02*
X0088441Y0165234D01*
X0088441Y0166833D02*
X0090073Y0166833D01*
X0093866Y0164156D02*
X0093916Y0164156D01*
X0093916Y0153756D01*
X0098466Y0149206D01*
X0098866Y0149156D01*
X0104316Y0154406D02*
X0108866Y0149856D01*
X0108866Y0149156D01*
X0108866Y0149206D01*
X0112766Y0149206D01*
X0138116Y0174556D01*
X0221316Y0174556D01*
X0234316Y0161556D01*
X0234316Y0157006D01*
X0231066Y0153756D01*
X0220016Y0153756D01*
X0207016Y0140756D01*
X0207016Y0139456D01*
X0206819Y0139166D01*
X0203047Y0139252D02*
X0200999Y0139252D01*
X0200828Y0139252D01*
X0200828Y0143889D01*
X0198905Y0143889D01*
X0198447Y0143767D01*
X0198037Y0143530D01*
X0197701Y0143194D01*
X0197464Y0142784D01*
X0197342Y0142326D01*
X0197342Y0139252D01*
X0200827Y0139252D01*
X0200827Y0139080D01*
X0197342Y0139080D01*
X0197342Y0136006D01*
X0197464Y0135548D01*
X0197701Y0135138D01*
X0198037Y0134802D01*
X0198447Y0134565D01*
X0198905Y0134443D01*
X0200828Y0134443D01*
X0200828Y0139080D01*
X0200999Y0139080D01*
X0200999Y0134443D01*
X0202922Y0134443D01*
X0203380Y0134565D01*
X0203707Y0134754D01*
X0204219Y0134243D01*
X0209416Y0134243D01*
X0209416Y0133466D01*
X0188166Y0112216D01*
X0188166Y0114891D01*
X0188219Y0115085D01*
X0188166Y0115502D01*
X0188166Y0118735D01*
X0186995Y0119906D01*
X0183529Y0119906D01*
X0183390Y0120242D01*
X0182602Y0121030D01*
X0182526Y0121106D01*
X0182703Y0121106D01*
X0182888Y0121156D01*
X0183138Y0120906D01*
X0186995Y0120906D01*
X0188166Y0122078D01*
X0188166Y0124661D01*
X0188232Y0124926D01*
X0188366Y0125249D01*
X0188366Y0125461D01*
X0188418Y0125667D01*
X0188366Y0126013D01*
X0188366Y0132445D01*
X0189329Y0132843D01*
X0190229Y0133744D01*
X0190716Y0134920D01*
X0190716Y0136193D01*
X0190229Y0137369D01*
X0189329Y0138269D01*
X0188153Y0138756D01*
X0186880Y0138756D01*
X0185703Y0138269D01*
X0184803Y0137369D01*
X0184403Y0136403D01*
X0183192Y0135192D01*
X0182766Y0134163D01*
X0182766Y0129889D01*
X0182703Y0129906D01*
X0181366Y0129906D01*
X0180866Y0129906D01*
X0180866Y0136872D01*
X0188000Y0144006D01*
X0190999Y0144006D01*
X0193866Y0146873D01*
X0196733Y0144006D01*
X0200999Y0144006D01*
X0203399Y0146406D01*
X0206923Y0146406D01*
X0207952Y0146832D01*
X0208740Y0147620D01*
X0217276Y0156156D01*
X0218494Y0156156D01*
X0218430Y0156130D01*
X0217642Y0155342D01*
X0206389Y0144089D01*
X0204219Y0144089D01*
X0203707Y0143578D01*
X0203380Y0143767D01*
X0202922Y0143889D01*
X0200999Y0143889D01*
X0200999Y0139252D01*
X0200999Y0139080D01*
X0203047Y0139080D01*
X0203047Y0139252D01*
X0200999Y0139658D02*
X0200828Y0139658D01*
X0200828Y0141256D02*
X0200999Y0141256D01*
X0200999Y0142855D02*
X0200828Y0142855D01*
X0201447Y0144453D02*
X0206754Y0144453D01*
X0208352Y0146052D02*
X0203045Y0146052D01*
X0206366Y0149206D02*
X0199216Y0149206D01*
X0198866Y0149156D01*
X0194687Y0146052D02*
X0193045Y0146052D01*
X0191447Y0144453D02*
X0196286Y0144453D01*
X0197505Y0142855D02*
X0186849Y0142855D01*
X0185250Y0141256D02*
X0197342Y0141256D01*
X0197342Y0139658D02*
X0183652Y0139658D01*
X0182053Y0138059D02*
X0185494Y0138059D01*
X0184427Y0136461D02*
X0180866Y0136461D01*
X0180866Y0134862D02*
X0183056Y0134862D01*
X0182766Y0133264D02*
X0180866Y0133264D01*
X0180866Y0131665D02*
X0182766Y0131665D01*
X0182766Y0130067D02*
X0180866Y0130067D01*
X0181366Y0129906D02*
X0181366Y0125506D01*
X0181366Y0125506D01*
X0181366Y0129906D01*
X0181366Y0128468D02*
X0181366Y0128468D01*
X0181366Y0126870D02*
X0181366Y0126870D01*
X0185066Y0125506D02*
X0185566Y0125806D01*
X0185566Y0133606D01*
X0187516Y0135556D01*
X0189749Y0133264D02*
X0209214Y0133264D01*
X0207616Y0131665D02*
X0188366Y0131665D01*
X0188366Y0130067D02*
X0206017Y0130067D01*
X0204419Y0128468D02*
X0188366Y0128468D01*
X0188366Y0126870D02*
X0202820Y0126870D01*
X0201222Y0125271D02*
X0188366Y0125271D01*
X0188166Y0123673D02*
X0199623Y0123673D01*
X0198024Y0122074D02*
X0188163Y0122074D01*
X0188023Y0118877D02*
X0194827Y0118877D01*
X0193229Y0117279D02*
X0188166Y0117279D01*
X0188166Y0115680D02*
X0191630Y0115680D01*
X0190032Y0114082D02*
X0188166Y0114082D01*
X0188166Y0112483D02*
X0188433Y0112483D01*
X0181366Y0115306D02*
X0181016Y0115406D01*
X0183156Y0120476D02*
X0196426Y0120476D01*
X0211153Y0112483D02*
X0244866Y0112483D01*
X0244866Y0114082D02*
X0212751Y0114082D01*
X0214350Y0115680D02*
X0244866Y0115680D01*
X0244866Y0117279D02*
X0215949Y0117279D01*
X0217547Y0118877D02*
X0244866Y0118877D01*
X0244866Y0120476D02*
X0219146Y0120476D01*
X0218866Y0124156D02*
X0221366Y0124156D01*
X0222616Y0124156D01*
X0223866Y0124156D01*
X0236366Y0136656D01*
X0236366Y0139156D01*
X0236346Y0139166D01*
X0242116Y0139456D02*
X0242252Y0139166D01*
X0242116Y0139456D02*
X0242616Y0139456D01*
X0242616Y0144156D01*
X0247616Y0149156D01*
X0242310Y0157034D02*
X0239582Y0154306D01*
X0236733Y0154306D01*
X0233716Y0151289D01*
X0233716Y0147023D01*
X0236650Y0144089D01*
X0233746Y0144089D01*
X0233394Y0143737D01*
X0233041Y0144089D01*
X0227841Y0144089D01*
X0227488Y0143737D01*
X0227136Y0144089D01*
X0221935Y0144089D01*
X0221583Y0143737D01*
X0221230Y0144089D01*
X0216030Y0144089D01*
X0215677Y0143737D01*
X0215324Y0144089D01*
X0214309Y0144089D01*
X0221176Y0150956D01*
X0231623Y0150956D01*
X0232652Y0151382D01*
X0235902Y0154632D01*
X0236690Y0155420D01*
X0237116Y0156449D01*
X0237116Y0162113D01*
X0236690Y0163142D01*
X0223690Y0176142D01*
X0222902Y0176930D01*
X0221873Y0177356D01*
X0137559Y0177356D01*
X0136530Y0176930D01*
X0112453Y0152853D01*
X0110999Y0154306D01*
X0108376Y0154306D01*
X0107116Y0155566D01*
X0107116Y0160936D01*
X0107744Y0161565D01*
X0108441Y0163246D01*
X0108441Y0165066D01*
X0107744Y0166748D01*
X0107336Y0167156D01*
X0110679Y0167156D01*
X0110529Y0167006D01*
X0110124Y0166449D01*
X0109812Y0165835D01*
X0109599Y0165181D01*
X0109491Y0164500D01*
X0109491Y0164156D01*
X0109491Y0163812D01*
X0109599Y0163132D01*
X0109812Y0162477D01*
X0110124Y0161863D01*
X0110529Y0161306D01*
X0111016Y0160819D01*
X0111573Y0160414D01*
X0112187Y0160102D01*
X0112842Y0159889D01*
X0113522Y0159781D01*
X0113866Y0159781D01*
X0113866Y0164156D01*
X0113866Y0164156D01*
X0109491Y0164156D01*
X0113866Y0164156D01*
X0113866Y0164156D01*
X0113866Y0159781D01*
X0114210Y0159781D01*
X0114891Y0159889D01*
X0115545Y0160102D01*
X0116159Y0160414D01*
X0116716Y0160819D01*
X0117203Y0161306D01*
X0117608Y0161863D01*
X0117920Y0162477D01*
X0118133Y0163132D01*
X0118241Y0163812D01*
X0118241Y0164156D01*
X0113866Y0164156D01*
X0113866Y0164156D01*
X0118241Y0164156D01*
X0118241Y0164500D01*
X0118133Y0165181D01*
X0117920Y0165835D01*
X0117608Y0166449D01*
X0117203Y0167006D01*
X0117053Y0167156D01*
X0118062Y0167156D01*
X0118197Y0167291D01*
X0118332Y0167156D01*
X0120237Y0167156D01*
X0121420Y0168339D01*
X0122602Y0167156D01*
X0124508Y0167156D01*
X0125855Y0168503D01*
X0125855Y0174679D01*
X0122509Y0178025D01*
X0251728Y0178025D01*
X0251728Y0171550D01*
X0249522Y0173756D01*
X0245711Y0173756D01*
X0243489Y0171534D01*
X0240916Y0174106D01*
X0238866Y0174106D01*
X0236816Y0174106D01*
X0233916Y0171207D01*
X0233916Y0169156D01*
X0233916Y0167106D01*
X0236816Y0164206D01*
X0238866Y0164206D01*
X0238866Y0169156D01*
X0238866Y0169156D01*
X0233916Y0169156D01*
X0238866Y0169156D01*
X0238866Y0169156D01*
X0238866Y0164206D01*
X0240916Y0164206D01*
X0243489Y0166778D01*
X0244866Y0165401D01*
X0244866Y0157506D01*
X0243450Y0157506D01*
X0242310Y0157034D01*
X0242811Y0157242D02*
X0237116Y0157242D01*
X0237116Y0158840D02*
X0244866Y0158840D01*
X0244866Y0160439D02*
X0237116Y0160439D01*
X0237116Y0162037D02*
X0244866Y0162037D01*
X0244866Y0163636D02*
X0236197Y0163636D01*
X0235788Y0165234D02*
X0234598Y0165234D01*
X0234189Y0166833D02*
X0232999Y0166833D01*
X0233916Y0168431D02*
X0231401Y0168431D01*
X0229802Y0170030D02*
X0233916Y0170030D01*
X0234338Y0171628D02*
X0228204Y0171628D01*
X0226605Y0173227D02*
X0235936Y0173227D01*
X0238866Y0173227D02*
X0238866Y0173227D01*
X0238866Y0174106D02*
X0238866Y0169156D01*
X0238866Y0169156D01*
X0238866Y0174106D01*
X0238866Y0171628D02*
X0238866Y0171628D01*
X0238866Y0170030D02*
X0238866Y0170030D01*
X0238866Y0168431D02*
X0238866Y0168431D01*
X0238866Y0166833D02*
X0238866Y0166833D01*
X0238866Y0165234D02*
X0238866Y0165234D01*
X0241944Y0165234D02*
X0244866Y0165234D01*
X0243583Y0171628D02*
X0243395Y0171628D01*
X0241796Y0173227D02*
X0245181Y0173227D01*
X0250051Y0173227D02*
X0251728Y0173227D01*
X0251728Y0174825D02*
X0225007Y0174825D01*
X0223408Y0176424D02*
X0251728Y0176424D01*
X0251728Y0178022D02*
X0122512Y0178022D01*
X0124110Y0176424D02*
X0136024Y0176424D01*
X0134425Y0174825D02*
X0125709Y0174825D01*
X0125855Y0173227D02*
X0132827Y0173227D01*
X0131228Y0171628D02*
X0125855Y0171628D01*
X0125855Y0170030D02*
X0129630Y0170030D01*
X0128031Y0168431D02*
X0125783Y0168431D01*
X0126433Y0166833D02*
X0117329Y0166833D01*
X0118116Y0165234D02*
X0124834Y0165234D01*
X0123236Y0163636D02*
X0118213Y0163636D01*
X0117696Y0162037D02*
X0121637Y0162037D01*
X0120039Y0160439D02*
X0116192Y0160439D01*
X0113866Y0160439D02*
X0113866Y0160439D01*
X0113866Y0162037D02*
X0113866Y0162037D01*
X0113866Y0163636D02*
X0113866Y0163636D01*
X0110036Y0162037D02*
X0107940Y0162037D01*
X0108441Y0163636D02*
X0109519Y0163636D01*
X0109616Y0165234D02*
X0108371Y0165234D01*
X0107659Y0166833D02*
X0110403Y0166833D01*
X0104316Y0164156D02*
X0103866Y0164156D01*
X0104316Y0164156D02*
X0104316Y0154406D01*
X0107116Y0155643D02*
X0115243Y0155643D01*
X0113645Y0154045D02*
X0111261Y0154045D01*
X0107116Y0157242D02*
X0116842Y0157242D01*
X0118440Y0158840D02*
X0107116Y0158840D01*
X0107116Y0160439D02*
X0111540Y0160439D01*
X0121564Y0154045D02*
X0181895Y0154045D01*
X0183493Y0155643D02*
X0123163Y0155643D01*
X0124761Y0157242D02*
X0185092Y0157242D01*
X0186690Y0158840D02*
X0126360Y0158840D01*
X0127958Y0160439D02*
X0188289Y0160439D01*
X0188392Y0160542D02*
X0172056Y0144206D01*
X0159855Y0144206D01*
X0156455Y0147606D01*
X0151277Y0147606D01*
X0147616Y0143945D01*
X0147616Y0138767D01*
X0151277Y0135106D01*
X0156455Y0135106D01*
X0159955Y0138606D01*
X0173773Y0138606D01*
X0174768Y0139018D01*
X0174666Y0138773D01*
X0174666Y0129035D01*
X0174566Y0128935D01*
X0174566Y0127994D01*
X0174060Y0127784D01*
X0157902Y0111626D01*
X0155772Y0113756D01*
X0154550Y0113756D01*
X0154100Y0114206D01*
X0155916Y0114206D01*
X0158816Y0117106D01*
X0158816Y0119156D01*
X0153866Y0119156D01*
X0153866Y0124106D01*
X0151816Y0124106D01*
X0150942Y0123232D01*
X0150494Y0124312D01*
X0149622Y0125184D01*
X0127522Y0147284D01*
X0126383Y0147756D01*
X0119300Y0147756D01*
X0118160Y0147284D01*
X0117332Y0146456D01*
X0113449Y0146456D01*
X0113453Y0146460D01*
X0114352Y0146832D01*
X0115140Y0147620D01*
X0139276Y0171756D01*
X0150110Y0171756D01*
X0147816Y0169462D01*
X0147816Y0167056D01*
X0153766Y0167056D01*
X0153766Y0166856D01*
X0153966Y0166856D01*
X0153966Y0160906D01*
X0156372Y0160906D01*
X0159916Y0164450D01*
X0159916Y0166856D01*
X0153966Y0166856D01*
X0153966Y0167056D01*
X0159916Y0167056D01*
X0159916Y0169462D01*
X0157622Y0171756D01*
X0184466Y0171756D01*
X0183916Y0171207D01*
X0183916Y0169156D01*
X0183916Y0167106D01*
X0186816Y0164206D01*
X0188866Y0164206D01*
X0188866Y0169156D01*
X0188866Y0169156D01*
X0183916Y0169156D01*
X0188866Y0169156D01*
X0188866Y0169156D01*
X0188866Y0164206D01*
X0190916Y0164206D01*
X0193816Y0167106D01*
X0193816Y0169156D01*
X0188866Y0169156D01*
X0188866Y0169156D01*
X0193816Y0169156D01*
X0193816Y0171207D01*
X0193266Y0171756D01*
X0194466Y0171756D01*
X0193916Y0171207D01*
X0193916Y0169156D01*
X0193916Y0167106D01*
X0196816Y0164206D01*
X0198866Y0164206D01*
X0198866Y0169156D01*
X0198866Y0169156D01*
X0193916Y0169156D01*
X0198866Y0169156D01*
X0198866Y0169156D01*
X0198866Y0164206D01*
X0200916Y0164206D01*
X0203816Y0167106D01*
X0203816Y0169156D01*
X0198866Y0169156D01*
X0198866Y0169156D01*
X0203816Y0169156D01*
X0203816Y0171207D01*
X0203266Y0171756D01*
X0213971Y0171756D01*
X0213566Y0171351D01*
X0213566Y0168166D01*
X0209856Y0164456D01*
X0206671Y0164456D01*
X0203971Y0161756D01*
X0190209Y0161756D01*
X0189180Y0161330D01*
X0188392Y0160542D01*
X0190766Y0158956D02*
X0208316Y0158956D01*
X0208866Y0159156D01*
X0208966Y0159606D01*
X0218716Y0169356D01*
X0218866Y0169156D01*
X0213566Y0168431D02*
X0203816Y0168431D01*
X0203816Y0170030D02*
X0213566Y0170030D01*
X0213843Y0171628D02*
X0203395Y0171628D01*
X0198866Y0168431D02*
X0198866Y0168431D01*
X0198866Y0166833D02*
X0198866Y0166833D01*
X0198866Y0165234D02*
X0198866Y0165234D01*
X0195788Y0165234D02*
X0191944Y0165234D01*
X0193543Y0166833D02*
X0194189Y0166833D01*
X0193916Y0168431D02*
X0193816Y0168431D01*
X0193816Y0170030D02*
X0193916Y0170030D01*
X0194338Y0171628D02*
X0193395Y0171628D01*
X0188866Y0168431D02*
X0188866Y0168431D01*
X0188866Y0166833D02*
X0188866Y0166833D01*
X0188866Y0165234D02*
X0188866Y0165234D01*
X0185788Y0165234D02*
X0159916Y0165234D01*
X0159916Y0166833D02*
X0184189Y0166833D01*
X0183916Y0168431D02*
X0159916Y0168431D01*
X0159349Y0170030D02*
X0183916Y0170030D01*
X0184338Y0171628D02*
X0157750Y0171628D01*
X0149982Y0171628D02*
X0139148Y0171628D01*
X0137549Y0170030D02*
X0148384Y0170030D01*
X0147816Y0168431D02*
X0135951Y0168431D01*
X0134352Y0166833D02*
X0147816Y0166833D01*
X0147816Y0166856D02*
X0147816Y0164450D01*
X0151360Y0160906D01*
X0153766Y0160906D01*
X0153766Y0166856D01*
X0147816Y0166856D01*
X0147816Y0165234D02*
X0132754Y0165234D01*
X0131155Y0163636D02*
X0148631Y0163636D01*
X0150229Y0162037D02*
X0129557Y0162037D01*
X0119966Y0152446D02*
X0180296Y0152446D01*
X0178698Y0150847D02*
X0118367Y0150847D01*
X0116769Y0149249D02*
X0177099Y0149249D01*
X0175501Y0147650D02*
X0126638Y0147650D01*
X0128754Y0146052D02*
X0149723Y0146052D01*
X0148125Y0144453D02*
X0130353Y0144453D01*
X0131951Y0142855D02*
X0147616Y0142855D01*
X0147616Y0141256D02*
X0133550Y0141256D01*
X0135148Y0139658D02*
X0147616Y0139658D01*
X0148324Y0138059D02*
X0136747Y0138059D01*
X0138345Y0136461D02*
X0149923Y0136461D01*
X0157810Y0136461D02*
X0174666Y0136461D01*
X0174666Y0138059D02*
X0159408Y0138059D01*
X0154366Y0141406D02*
X0153866Y0141356D01*
X0154366Y0141406D02*
X0173216Y0141406D01*
X0190766Y0158956D01*
X0201944Y0165234D02*
X0210634Y0165234D01*
X0212233Y0166833D02*
X0203543Y0166833D01*
X0205850Y0163636D02*
X0159102Y0163636D01*
X0157503Y0162037D02*
X0204252Y0162037D01*
X0216116Y0158956D02*
X0206366Y0149206D01*
X0208770Y0147650D02*
X0209951Y0147650D01*
X0210369Y0149249D02*
X0211549Y0149249D01*
X0211967Y0150847D02*
X0213148Y0150847D01*
X0213566Y0152446D02*
X0214746Y0152446D01*
X0215164Y0154045D02*
X0216345Y0154045D01*
X0216763Y0155643D02*
X0217943Y0155643D01*
X0216116Y0158956D02*
X0228466Y0158956D01*
X0228866Y0159156D01*
X0235314Y0154045D02*
X0236471Y0154045D01*
X0236782Y0155643D02*
X0240919Y0155643D01*
X0234873Y0152446D02*
X0233716Y0152446D01*
X0233716Y0150847D02*
X0221067Y0150847D01*
X0219469Y0149249D02*
X0233716Y0149249D01*
X0233716Y0147650D02*
X0217870Y0147650D01*
X0216272Y0146052D02*
X0234687Y0146052D01*
X0236286Y0144453D02*
X0214673Y0144453D01*
X0200999Y0138059D02*
X0200828Y0138059D01*
X0200828Y0136461D02*
X0200999Y0136461D01*
X0200999Y0134862D02*
X0200828Y0134862D01*
X0197977Y0134862D02*
X0190692Y0134862D01*
X0190605Y0136461D02*
X0197342Y0136461D01*
X0197342Y0138059D02*
X0189538Y0138059D01*
X0174666Y0134862D02*
X0139944Y0134862D01*
X0141542Y0133264D02*
X0174666Y0133264D01*
X0174666Y0131665D02*
X0143141Y0131665D01*
X0144740Y0130067D02*
X0174666Y0130067D01*
X0174566Y0128468D02*
X0146338Y0128468D01*
X0147937Y0126870D02*
X0173146Y0126870D01*
X0171547Y0125271D02*
X0149535Y0125271D01*
X0150759Y0123673D02*
X0151382Y0123673D01*
X0153866Y0123673D02*
X0153866Y0123673D01*
X0153866Y0124106D02*
X0153866Y0119156D01*
X0153866Y0119156D01*
X0153866Y0119156D01*
X0158816Y0119156D01*
X0158816Y0121207D01*
X0155916Y0124106D01*
X0153866Y0124106D01*
X0153866Y0122074D02*
X0153866Y0122074D01*
X0153866Y0120476D02*
X0153866Y0120476D01*
X0157948Y0122074D02*
X0168350Y0122074D01*
X0166752Y0120476D02*
X0158816Y0120476D01*
X0158816Y0118877D02*
X0165153Y0118877D01*
X0163555Y0117279D02*
X0158816Y0117279D01*
X0157391Y0115680D02*
X0161956Y0115680D01*
X0160358Y0114082D02*
X0154225Y0114082D01*
X0157044Y0112483D02*
X0158759Y0112483D01*
X0156350Y0123673D02*
X0169949Y0123673D01*
X0182602Y0121030D02*
X0182602Y0121030D01*
X0181341Y0101431D02*
X0183616Y0099156D01*
X0183866Y0099156D01*
X0192066Y0097356D02*
X0192066Y0095256D01*
X0192066Y0097356D02*
X0218866Y0124156D01*
X0225744Y0122074D02*
X0244866Y0122074D01*
X0244866Y0123673D02*
X0227343Y0123673D01*
X0228941Y0125271D02*
X0244866Y0125271D01*
X0244866Y0126870D02*
X0230540Y0126870D01*
X0232138Y0128468D02*
X0244866Y0128468D01*
X0244866Y0130067D02*
X0233737Y0130067D01*
X0235335Y0131665D02*
X0244866Y0131665D01*
X0244866Y0133264D02*
X0236934Y0133264D01*
X0242616Y0139156D02*
X0242616Y0139456D01*
X0251650Y0171628D02*
X0251728Y0171628D01*
X0173902Y0146052D02*
X0158009Y0146052D01*
X0159608Y0144453D02*
X0172304Y0144453D01*
X0153966Y0162037D02*
X0153766Y0162037D01*
X0153766Y0163636D02*
X0153966Y0163636D01*
X0153966Y0165234D02*
X0153766Y0165234D01*
X0153766Y0166833D02*
X0153966Y0166833D01*
X0119044Y0147650D02*
X0115170Y0147650D01*
X0081286Y0144453D02*
X0066095Y0144453D01*
X0067016Y0138059D02*
X0080335Y0138059D01*
X0078737Y0136461D02*
X0067016Y0136461D01*
X0066691Y0134862D02*
X0077138Y0134862D01*
X0078544Y0128468D02*
X0057366Y0128468D01*
X0057366Y0126870D02*
X0076946Y0126870D01*
X0075347Y0125271D02*
X0057366Y0125271D01*
X0057366Y0123673D02*
X0073749Y0123673D01*
X0072150Y0122074D02*
X0057366Y0122074D01*
X0057366Y0120476D02*
X0061579Y0120476D01*
X0061573Y0120473D02*
X0061016Y0120068D01*
X0060529Y0119581D01*
X0060124Y0119024D01*
X0059812Y0118410D01*
X0059599Y0117755D01*
X0059491Y0117075D01*
X0059491Y0114156D01*
X0059491Y0111237D01*
X0059599Y0110557D01*
X0059812Y0109902D01*
X0060124Y0109288D01*
X0060529Y0108731D01*
X0061016Y0108244D01*
X0061573Y0107840D01*
X0062187Y0107527D01*
X0062842Y0107314D01*
X0063522Y0107207D01*
X0063866Y0107207D01*
X0063866Y0114156D01*
X0063866Y0114156D01*
X0059491Y0114156D01*
X0063866Y0114156D01*
X0063866Y0114156D01*
X0063866Y0107207D01*
X0064210Y0107207D01*
X0064891Y0107314D01*
X0065545Y0107527D01*
X0066159Y0107840D01*
X0066716Y0108244D01*
X0067203Y0108731D01*
X0067608Y0109288D01*
X0067920Y0109902D01*
X0068133Y0110557D01*
X0068241Y0111237D01*
X0068241Y0114156D01*
X0063866Y0114156D01*
X0063866Y0121106D01*
X0063522Y0121106D01*
X0062842Y0120998D01*
X0062187Y0120785D01*
X0061573Y0120473D01*
X0060050Y0118877D02*
X0057929Y0118877D01*
X0058441Y0117279D02*
X0059524Y0117279D01*
X0059491Y0115680D02*
X0058441Y0115680D01*
X0058441Y0114082D02*
X0059491Y0114082D01*
X0059491Y0112483D02*
X0058441Y0112483D01*
X0058441Y0110885D02*
X0059547Y0110885D01*
X0060126Y0109286D02*
X0057867Y0109286D01*
X0056421Y0107688D02*
X0061872Y0107688D01*
X0063866Y0107688D02*
X0063866Y0107688D01*
X0063866Y0109286D02*
X0063866Y0109286D01*
X0063866Y0110885D02*
X0063866Y0110885D01*
X0063866Y0112483D02*
X0063866Y0112483D01*
X0063866Y0114082D02*
X0063866Y0114082D01*
X0063866Y0114156D02*
X0063866Y0114156D01*
X0063866Y0114156D01*
X0068241Y0114156D01*
X0068241Y0117075D01*
X0068133Y0117755D01*
X0067920Y0118410D01*
X0067608Y0119024D01*
X0067203Y0119581D01*
X0066716Y0120068D01*
X0066159Y0120473D01*
X0065545Y0120785D01*
X0064891Y0120998D01*
X0064210Y0121106D01*
X0063866Y0121106D01*
X0063866Y0114156D01*
X0063866Y0115680D02*
X0063866Y0115680D01*
X0063866Y0117279D02*
X0063866Y0117279D01*
X0063866Y0118877D02*
X0063866Y0118877D01*
X0063866Y0120476D02*
X0063866Y0120476D01*
X0066153Y0120476D02*
X0071141Y0120476D01*
X0069803Y0118877D02*
X0067682Y0118877D01*
X0068209Y0117279D02*
X0069291Y0117279D01*
X0069291Y0115680D02*
X0068241Y0115680D01*
X0068241Y0114082D02*
X0069291Y0114082D01*
X0069291Y0112483D02*
X0068241Y0112483D01*
X0068185Y0110885D02*
X0069291Y0110885D01*
X0069865Y0109286D02*
X0067606Y0109286D01*
X0065861Y0107688D02*
X0071312Y0107688D01*
X0064430Y0152446D02*
X0079873Y0152446D01*
X0081066Y0154045D02*
X0067205Y0154045D01*
X0069016Y0155643D02*
X0081066Y0155643D01*
X0081066Y0157242D02*
X0070216Y0157242D01*
X0071089Y0158840D02*
X0081066Y0158840D01*
X0079606Y0160439D02*
X0071698Y0160439D01*
X0072081Y0162037D02*
X0079291Y0162037D01*
X0079291Y0163636D02*
X0072196Y0163636D01*
X0072225Y0165234D02*
X0079291Y0165234D01*
X0079291Y0166833D02*
X0072225Y0166833D01*
X0248072Y0072520D02*
X0248243Y0072520D01*
X0248243Y0070922D02*
X0248072Y0070922D01*
X0248072Y0069323D02*
X0248243Y0069323D01*
X0248243Y0067725D02*
X0248072Y0067725D01*
X0248072Y0066126D02*
X0248243Y0066126D01*
X0248243Y0064528D02*
X0248072Y0064528D01*
X0250557Y0064528D02*
X0251232Y0064528D01*
D26*
X0181366Y0126656D02*
X0181366Y0136656D01*
X0183866Y0139156D01*
X0201366Y0139156D01*
X0200913Y0139166D01*
X0113866Y0064156D02*
X0113416Y0064056D01*
X0089366Y0064056D01*
X0086116Y0060806D01*
X0085992Y0060652D01*
D27*
X0193866Y0079156D03*
X0193866Y0129156D03*
D28*
X0177766Y0125806D02*
X0177766Y0138156D01*
X0188816Y0149206D01*
X0188866Y0149156D01*
X0177766Y0125806D02*
X0177666Y0125506D01*
X0177116Y0125156D01*
X0175816Y0125156D01*
X0156966Y0106306D01*
X0154366Y0108906D01*
X0153866Y0109156D01*
X0153716Y0110206D01*
X0147866Y0116056D01*
X0147866Y0122556D01*
X0125766Y0144656D01*
X0119916Y0144656D01*
X0118616Y0143356D01*
X0090016Y0143356D01*
X0078316Y0131656D01*
X0054266Y0131656D01*
X0054266Y0114756D01*
X0053866Y0114156D01*
X0073866Y0114156D02*
X0074416Y0114756D01*
X0074416Y0119956D01*
X0083516Y0129056D01*
X0083866Y0129156D01*
X0084816Y0129056D01*
X0091966Y0129056D01*
X0101716Y0119306D01*
X0103016Y0119306D01*
X0103866Y0119156D01*
X0104316Y0118656D01*
X0104316Y0109556D01*
X0103866Y0109156D01*
X0104966Y0108906D01*
X0114716Y0099156D01*
X0123866Y0099156D01*
X0103866Y0099156D02*
X0103666Y0099156D01*
X0103666Y0084856D01*
X0098466Y0079656D01*
X0097803Y0079156D01*
X0097816Y0079006D01*
X0102366Y0074456D01*
X0113416Y0074456D01*
X0113866Y0074156D01*
X0164116Y0084206D02*
X0178416Y0069906D01*
X0178866Y0069156D01*
X0179066Y0068606D01*
X0182316Y0065356D01*
X0191416Y0074456D01*
X0227616Y0074456D01*
X0247966Y0094806D01*
X0247966Y0138156D01*
X0248157Y0139166D01*
X0248616Y0139456D01*
X0248616Y0142706D01*
X0252516Y0146606D01*
X0252516Y0151806D01*
X0249916Y0154406D01*
X0247966Y0154406D01*
X0247966Y0168706D01*
X0247616Y0169156D01*
X0247966Y0154406D02*
X0244066Y0154406D01*
X0238866Y0149206D01*
X0238866Y0149156D01*
X0185066Y0115306D02*
X0184916Y0114756D01*
X0184916Y0111506D01*
X0181666Y0108256D01*
X0164116Y0099156D02*
X0163866Y0099156D01*
X0164116Y0099156D02*
X0156966Y0106306D01*
X0163866Y0089156D02*
X0164116Y0088756D01*
X0164116Y0084206D01*
X0182316Y0065356D02*
X0188166Y0059506D01*
X0193366Y0059506D01*
X0193866Y0059156D01*
X0184266Y0049106D02*
X0183866Y0049156D01*
X0184266Y0049106D02*
X0186216Y0047156D01*
X0199216Y0047156D01*
X0199535Y0046656D01*
X0054266Y0131656D02*
X0054266Y0138156D01*
X0054916Y0138806D01*
X0055116Y0139156D01*
X0083866Y0149156D02*
X0084166Y0149206D01*
X0084166Y0164156D01*
X0083866Y0164156D01*
D29*
X0181666Y0108256D03*
D30*
X0192066Y0095256D03*
X0187516Y0065356D03*
X0187516Y0135556D03*
M02*
