%
M48
M72
T01C0.0120
T02C0.0220
T03C0.0260
T04C0.0315
T05C0.0320
T06C0.0360
T07C0.0400
T08C0.0433
T09C0.1180
T10C0.1260
%
T01
X18752Y6536
X19207Y9526
X18752Y13556
T02
X18167Y10826
T03
X19387Y12916
X19387Y7916
T04
X7387Y11416
X6387Y11416
X5387Y11416
X8387Y16416
X9387Y16416
X10387Y16416
X11387Y16416
T05
X10887Y14916
X9887Y14916
X8387Y14916
X6262Y13916
X5512Y13916
X8387Y12916
X9887Y12916
X10887Y12916
X10387Y11916
X10387Y10916
X10387Y9916
X12387Y9916
X13387Y9916
X13387Y10916
X12387Y10916
X12387Y11916
X13387Y11916
X12137Y12916
X12887Y13416
X12137Y13916
X15387Y11916
X15387Y10916
X15387Y9916
X16387Y9916
X16387Y8916
X15387Y8916
X13387Y8916
X16887Y6916
X17887Y6916
X19387Y5916
X18387Y4916
X16387Y4916
X15387Y4916
X15387Y5916
X13387Y5916
X13387Y4916
X18387Y8916
X18387Y9916
X21387Y5916
X22387Y5916
X24387Y5916
X24762Y14916
X23887Y14916
X22887Y15916
X23887Y16916
X24762Y16916
X21887Y16916
X20887Y15916
X19887Y16916
X18887Y16916
X18887Y14916
X19887Y14916
T06
X15387Y14136
X15387Y16696
T07
X11387Y7416
X11387Y6416
X11387Y5416
X11387Y4416
T08
X22107Y4416
X24666Y4416
T09
X9780Y7916
X7418Y7916
X8599Y6065
T10
X5961Y4990
X5961Y16408
X26434Y16408
X26434Y4990
M30
