G75*
%MOIN*%
%OFA0B0*%
%FSLAX25Y25*%
%IPPOS*%
%LPD*%
%AMOC8*
5,1,8,0,0,1.08239X$1,22.5*
%
%ADD10C,0.00600*%
%ADD11OC8,0.06300*%
%ADD12OC8,0.06600*%
%ADD13OC8,0.05200*%
%ADD14OC8,0.08500*%
%ADD15R,0.05150X0.05150*%
%ADD16C,0.05150*%
%ADD17C,0.05150*%
%ADD18C,0.05200*%
%ADD19C,0.06496*%
%ADD20C,0.17000*%
%ADD21C,0.06000*%
%ADD22C,0.01600*%
%ADD23R,0.03900X0.03900*%
%ADD24C,0.02200*%
%ADD25C,0.03400*%
%ADD26C,0.02400*%
D10*
X0075245Y0169456D02*
X0078448Y0169456D01*
X0078448Y0175862D01*
X0075245Y0175862D01*
X0074177Y0174794D01*
X0074177Y0173726D01*
X0075245Y0172659D01*
X0078448Y0172659D01*
X0080623Y0173726D02*
X0080623Y0174794D01*
X0081690Y0175862D01*
X0083826Y0175862D01*
X0084893Y0174794D01*
X0080623Y0173726D02*
X0084893Y0169456D01*
X0080623Y0169456D01*
X0075245Y0169456D02*
X0074177Y0170524D01*
X0074177Y0171591D01*
X0075245Y0172659D01*
X0087068Y0169456D02*
X0091339Y0169456D01*
X0089204Y0169456D02*
X0089204Y0175862D01*
X0091339Y0173726D01*
X0093514Y0174794D02*
X0094581Y0175862D01*
X0096717Y0175862D01*
X0097784Y0174794D01*
X0097784Y0170524D01*
X0093514Y0174794D01*
X0093514Y0170524D01*
X0094581Y0169456D01*
X0096717Y0169456D01*
X0097784Y0170524D01*
X0099959Y0174794D02*
X0104230Y0170524D01*
X0104230Y0169456D01*
X0106405Y0169456D02*
X0110675Y0169456D01*
X0108540Y0169456D02*
X0108540Y0175862D01*
X0110675Y0173726D01*
X0112850Y0174794D02*
X0113918Y0175862D01*
X0117121Y0175862D01*
X0117121Y0169456D01*
X0113918Y0169456D01*
X0112850Y0170524D01*
X0112850Y0174794D01*
X0119296Y0169456D02*
X0123566Y0169456D01*
X0123566Y0175862D01*
X0104230Y0175862D02*
X0099959Y0175862D01*
X0099959Y0174794D01*
D11*
X0108866Y0149156D03*
X0083866Y0149156D03*
X0083866Y0129156D03*
X0103866Y0119156D03*
X0108866Y0129156D03*
X0123866Y0119156D03*
X0133866Y0119156D03*
X0123866Y0109156D03*
X0123866Y0099156D03*
X0103866Y0099156D03*
X0103866Y0109156D03*
X0153866Y0119156D03*
X0188866Y0149156D03*
X0198866Y0149156D03*
X0198866Y0169156D03*
X0188866Y0169156D03*
X0238866Y0169156D03*
X0238866Y0149156D03*
X0243866Y0059156D03*
X0223866Y0059156D03*
X0183866Y0049156D03*
X0163866Y0049156D03*
D12*
X0168866Y0069156D03*
X0178866Y0069156D03*
X0208866Y0159156D03*
X0218866Y0169156D03*
X0228866Y0159156D03*
D13*
X0247616Y0149156D03*
X0247616Y0169156D03*
X0153866Y0109156D03*
X0153866Y0099156D03*
X0163866Y0099156D03*
X0163866Y0089156D03*
X0153866Y0089156D03*
X0133866Y0089156D03*
X0133866Y0099156D03*
X0133866Y0109156D03*
X0121366Y0129156D03*
X0128866Y0134156D03*
X0121366Y0139156D03*
X0098866Y0129156D03*
X0098866Y0149156D03*
X0183866Y0099156D03*
X0183866Y0089156D03*
X0193866Y0059156D03*
X0213866Y0059156D03*
X0153866Y0059156D03*
X0153866Y0049156D03*
X0133866Y0049156D03*
X0133866Y0059156D03*
D14*
X0153866Y0141356D03*
X0153866Y0166956D03*
D15*
X0083866Y0164156D03*
D16*
X0093866Y0164156D03*
X0103866Y0164156D03*
X0113866Y0164156D03*
D17*
X0073866Y0116731D02*
X0073866Y0111581D01*
X0063866Y0111581D02*
X0063866Y0116731D01*
X0053866Y0116731D02*
X0053866Y0111581D01*
D18*
X0055116Y0136556D02*
X0055116Y0141756D01*
X0062616Y0141756D02*
X0062616Y0136556D01*
D19*
X0221071Y0044156D03*
X0246661Y0044156D03*
D20*
X0097803Y0079156D03*
X0074181Y0079156D03*
X0085992Y0060652D03*
D21*
X0110866Y0064156D02*
X0116866Y0064156D01*
X0116866Y0054156D02*
X0110866Y0054156D01*
X0110866Y0044156D02*
X0116866Y0044156D01*
X0116866Y0074156D02*
X0110866Y0074156D01*
D22*
X0072225Y0049606D02*
X0072225Y0035956D01*
X0251728Y0035956D01*
X0251728Y0049606D01*
X0251706Y0049631D01*
X0251728Y0049933D01*
X0251728Y0050236D01*
X0251751Y0050259D01*
X0251831Y0051377D01*
X0251796Y0051431D01*
X0251854Y0051699D01*
X0251873Y0051973D01*
X0251923Y0052015D01*
X0252168Y0053142D01*
X0252141Y0053201D01*
X0252236Y0053458D01*
X0252295Y0053726D01*
X0252349Y0053761D01*
X0252752Y0054841D01*
X0252734Y0054903D01*
X0252865Y0055144D01*
X0252961Y0055401D01*
X0253020Y0055428D01*
X0253573Y0056439D01*
X0253564Y0056504D01*
X0253728Y0056723D01*
X0253859Y0056964D01*
X0253922Y0056982D01*
X0254612Y0057905D01*
X0254612Y0057970D01*
X0254806Y0058164D01*
X0254971Y0058383D01*
X0255035Y0058393D01*
X0255850Y0059208D01*
X0255859Y0059272D01*
X0256079Y0059437D01*
X0256273Y0059630D01*
X0256338Y0059630D01*
X0256907Y0060056D01*
X0255703Y0060056D01*
X0250703Y0065056D01*
X0249766Y0065993D01*
X0249766Y0139819D01*
X0254766Y0144819D01*
X0254766Y0152319D01*
X0255703Y0153256D01*
X0257905Y0153256D01*
X0257803Y0153312D01*
X0257739Y0153302D01*
X0257519Y0153467D01*
X0257279Y0153598D01*
X0257260Y0153660D01*
X0256338Y0154351D01*
X0256273Y0154351D01*
X0256079Y0154545D01*
X0255859Y0154709D01*
X0255850Y0154774D01*
X0255035Y0155589D01*
X0254971Y0155598D01*
X0254806Y0155818D01*
X0254612Y0156011D01*
X0254612Y0156077D01*
X0253922Y0156999D01*
X0253859Y0157018D01*
X0253728Y0157258D01*
X0253564Y0157478D01*
X0253573Y0157542D01*
X0253020Y0158554D01*
X0252961Y0158581D01*
X0252865Y0158838D01*
X0252734Y0159078D01*
X0252752Y0159141D01*
X0252349Y0160221D01*
X0252295Y0160256D01*
X0252236Y0160524D01*
X0252141Y0160781D01*
X0252168Y0160840D01*
X0251923Y0161966D01*
X0251873Y0162009D01*
X0251854Y0162282D01*
X0251796Y0162550D01*
X0251831Y0162605D01*
X0251751Y0163723D01*
X0251728Y0163746D01*
X0251728Y0164049D01*
X0251706Y0164351D01*
X0251728Y0164376D01*
X0251728Y0166762D01*
X0249522Y0164556D01*
X0245711Y0164556D01*
X0243489Y0166778D01*
X0240916Y0164206D01*
X0238866Y0164206D01*
X0238866Y0169156D01*
X0238866Y0169156D01*
X0233916Y0169156D01*
X0233916Y0167106D01*
X0236816Y0164206D01*
X0238866Y0164206D01*
X0238866Y0169156D01*
X0238866Y0169156D01*
X0233916Y0169156D01*
X0233916Y0171207D01*
X0236816Y0174106D01*
X0238866Y0174106D01*
X0238866Y0169156D01*
X0238866Y0169156D01*
X0238866Y0174106D01*
X0240916Y0174106D01*
X0243489Y0171534D01*
X0245711Y0173756D01*
X0249522Y0173756D01*
X0251728Y0171550D01*
X0251728Y0178025D01*
X0124655Y0178025D01*
X0125866Y0176814D01*
X0125866Y0168503D01*
X0124519Y0167156D01*
X0118343Y0167156D01*
X0118208Y0167291D01*
X0118073Y0167156D01*
X0117053Y0167156D01*
X0117203Y0167006D01*
X0117608Y0166449D01*
X0117920Y0165835D01*
X0118133Y0165181D01*
X0118241Y0164500D01*
X0118241Y0164156D01*
X0113866Y0164156D01*
X0113866Y0164156D01*
X0113866Y0159781D01*
X0113522Y0159781D01*
X0112842Y0159889D01*
X0112187Y0160102D01*
X0111573Y0160414D01*
X0111016Y0160819D01*
X0110529Y0161306D01*
X0110124Y0161863D01*
X0109812Y0162477D01*
X0109599Y0163132D01*
X0109491Y0163812D01*
X0109491Y0164156D01*
X0113866Y0164156D01*
X0113866Y0164156D01*
X0113866Y0159781D01*
X0114210Y0159781D01*
X0114891Y0159889D01*
X0115545Y0160102D01*
X0116159Y0160414D01*
X0116716Y0160819D01*
X0117203Y0161306D01*
X0117608Y0161863D01*
X0117920Y0162477D01*
X0118133Y0163132D01*
X0118241Y0163812D01*
X0118241Y0164156D01*
X0113866Y0164156D01*
X0109491Y0164156D01*
X0109491Y0164500D01*
X0109599Y0165181D01*
X0109812Y0165835D01*
X0110124Y0166449D01*
X0110529Y0167006D01*
X0110679Y0167156D01*
X0107336Y0167156D01*
X0107744Y0166748D01*
X0108441Y0165066D01*
X0108441Y0163246D01*
X0107744Y0161565D01*
X0106458Y0160278D01*
X0104776Y0159581D01*
X0102956Y0159581D01*
X0101275Y0160278D01*
X0099988Y0161565D01*
X0099291Y0163246D01*
X0099291Y0165066D01*
X0099988Y0166748D01*
X0101275Y0168034D01*
X0102069Y0168364D01*
X0101930Y0168503D01*
X0101930Y0169571D01*
X0100084Y0171417D01*
X0100084Y0169571D01*
X0098737Y0168224D01*
X0097669Y0167156D01*
X0097336Y0167156D01*
X0097744Y0166748D01*
X0098441Y0165066D01*
X0098441Y0163246D01*
X0097744Y0161565D01*
X0096458Y0160278D01*
X0094776Y0159581D01*
X0092956Y0159581D01*
X0091275Y0160278D01*
X0089988Y0161565D01*
X0089291Y0163246D01*
X0089291Y0165066D01*
X0089988Y0166748D01*
X0090396Y0167156D01*
X0088441Y0167156D01*
X0088441Y0160753D01*
X0087269Y0159581D01*
X0080463Y0159581D01*
X0079291Y0160753D01*
X0079291Y0167156D01*
X0074292Y0167156D01*
X0073476Y0167973D01*
X0073225Y0168224D01*
X0073225Y0168224D01*
X0072694Y0168754D01*
X0072225Y0169223D01*
X0072225Y0164376D01*
X0072247Y0164351D01*
X0072225Y0164049D01*
X0072225Y0163746D01*
X0072202Y0163723D01*
X0072122Y0162605D01*
X0072157Y0162550D01*
X0072099Y0162282D01*
X0072079Y0162009D01*
X0072030Y0161966D01*
X0071785Y0160840D01*
X0071812Y0160781D01*
X0071716Y0160524D01*
X0071658Y0160256D01*
X0071603Y0160221D01*
X0071200Y0159141D01*
X0071219Y0159078D01*
X0071087Y0158838D01*
X0070992Y0158581D01*
X0070932Y0158554D01*
X0070380Y0157542D01*
X0070389Y0157478D01*
X0070225Y0157258D01*
X0070094Y0157018D01*
X0070031Y0156999D01*
X0069340Y0156077D01*
X0069340Y0156011D01*
X0069146Y0155818D01*
X0068982Y0155598D01*
X0068918Y0155589D01*
X0068103Y0154774D01*
X0068093Y0154709D01*
X0067874Y0154545D01*
X0067680Y0154351D01*
X0067615Y0154351D01*
X0066692Y0153660D01*
X0066674Y0153598D01*
X0066433Y0153467D01*
X0066214Y0153302D01*
X0066149Y0153312D01*
X0065138Y0152759D01*
X0065111Y0152700D01*
X0064854Y0152604D01*
X0064613Y0152473D01*
X0064551Y0152491D01*
X0063471Y0152088D01*
X0063436Y0152034D01*
X0063168Y0151975D01*
X0062911Y0151879D01*
X0062852Y0151907D01*
X0061725Y0151662D01*
X0061683Y0151612D01*
X0061409Y0151593D01*
X0061141Y0151534D01*
X0061087Y0151570D01*
X0059969Y0151490D01*
X0059946Y0151466D01*
X0059643Y0151466D01*
X0059341Y0151445D01*
X0059316Y0151466D01*
X0045666Y0151466D01*
X0045666Y0062515D01*
X0059316Y0062515D01*
X0059341Y0062537D01*
X0059643Y0062515D01*
X0059946Y0062515D01*
X0059969Y0062492D01*
X0061087Y0062412D01*
X0061141Y0062447D01*
X0061409Y0062389D01*
X0061683Y0062369D01*
X0061725Y0062320D01*
X0062852Y0062075D01*
X0062911Y0062102D01*
X0063168Y0062006D01*
X0063436Y0061948D01*
X0063471Y0061893D01*
X0064551Y0061490D01*
X0064613Y0061509D01*
X0064854Y0061377D01*
X0065111Y0061282D01*
X0065138Y0061222D01*
X0066149Y0060670D01*
X0066214Y0060679D01*
X0066433Y0060515D01*
X0066674Y0060384D01*
X0066692Y0060321D01*
X0067615Y0059630D01*
X0067680Y0059630D01*
X0067874Y0059437D01*
X0068093Y0059272D01*
X0068103Y0059208D01*
X0068918Y0058393D01*
X0068982Y0058383D01*
X0069146Y0058164D01*
X0069340Y0057970D01*
X0069340Y0057905D01*
X0070031Y0056982D01*
X0070094Y0056964D01*
X0070225Y0056723D01*
X0070389Y0056504D01*
X0070380Y0056439D01*
X0070932Y0055428D01*
X0070992Y0055401D01*
X0071087Y0055144D01*
X0071219Y0054903D01*
X0071200Y0054841D01*
X0071603Y0053761D01*
X0071658Y0053726D01*
X0071716Y0053458D01*
X0071812Y0053201D01*
X0071785Y0053142D01*
X0072030Y0052015D01*
X0072079Y0051973D01*
X0072099Y0051699D01*
X0072157Y0051431D01*
X0072122Y0051377D01*
X0072202Y0050259D01*
X0072225Y0050236D01*
X0072225Y0049933D01*
X0072247Y0049631D01*
X0072225Y0049606D01*
X0072225Y0050141D02*
X0107810Y0050141D01*
X0108034Y0049917D02*
X0109872Y0049156D01*
X0117861Y0049156D01*
X0119698Y0048395D01*
X0121105Y0046988D01*
X0121866Y0045151D01*
X0121866Y0043162D01*
X0121105Y0041324D01*
X0119698Y0039917D01*
X0117861Y0039156D01*
X0109872Y0039156D01*
X0108034Y0039917D01*
X0106627Y0041324D01*
X0105866Y0043162D01*
X0105866Y0045151D01*
X0106627Y0046988D01*
X0108034Y0048395D01*
X0109872Y0049156D01*
X0117861Y0049156D01*
X0119698Y0049917D01*
X0121105Y0051324D01*
X0121866Y0053162D01*
X0121866Y0055151D01*
X0121105Y0056988D01*
X0119698Y0058395D01*
X0117861Y0059156D01*
X0109872Y0059156D01*
X0117861Y0059156D01*
X0119698Y0059917D01*
X0121105Y0061324D01*
X0121866Y0063162D01*
X0121866Y0065151D01*
X0121105Y0066988D01*
X0119698Y0068395D01*
X0117861Y0069156D01*
X0109872Y0069156D01*
X0117861Y0069156D01*
X0119698Y0069917D01*
X0121105Y0071324D01*
X0121866Y0073162D01*
X0121866Y0075151D01*
X0121105Y0076988D01*
X0119698Y0078395D01*
X0117861Y0079156D01*
X0109872Y0079156D01*
X0108303Y0078506D01*
X0108303Y0080539D01*
X0107588Y0083209D01*
X0106205Y0085603D01*
X0104250Y0087558D01*
X0101856Y0088941D01*
X0099185Y0089656D01*
X0096421Y0089656D01*
X0093750Y0088941D01*
X0091356Y0087558D01*
X0089401Y0085603D01*
X0088019Y0083209D01*
X0087303Y0080539D01*
X0087303Y0077774D01*
X0088019Y0075103D01*
X0089401Y0072709D01*
X0091356Y0070754D01*
X0093750Y0069372D01*
X0096421Y0068656D01*
X0099185Y0068656D01*
X0101856Y0069372D01*
X0104250Y0070754D01*
X0106098Y0072602D01*
X0106627Y0071324D01*
X0108034Y0069917D01*
X0109872Y0069156D01*
X0108034Y0068395D01*
X0106627Y0066988D01*
X0105866Y0065151D01*
X0105866Y0063162D01*
X0106627Y0061324D01*
X0108034Y0059917D01*
X0109872Y0059156D01*
X0108034Y0058395D01*
X0106627Y0056988D01*
X0105866Y0055151D01*
X0105866Y0053162D01*
X0106627Y0051324D01*
X0108034Y0049917D01*
X0108391Y0048543D02*
X0072225Y0048543D01*
X0072225Y0046944D02*
X0106609Y0046944D01*
X0105947Y0045346D02*
X0072225Y0045346D01*
X0072225Y0043747D02*
X0105866Y0043747D01*
X0106286Y0042149D02*
X0072225Y0042149D01*
X0072225Y0040550D02*
X0107401Y0040550D01*
X0119342Y0048543D02*
X0129266Y0048543D01*
X0129266Y0047251D02*
X0131961Y0044556D01*
X0135772Y0044556D01*
X0138466Y0047251D01*
X0138466Y0051062D01*
X0135772Y0053756D01*
X0131961Y0053756D01*
X0129266Y0051062D01*
X0129266Y0047251D01*
X0129573Y0046944D02*
X0121123Y0046944D01*
X0121785Y0045346D02*
X0131171Y0045346D01*
X0129266Y0050141D02*
X0119922Y0050141D01*
X0121277Y0051740D02*
X0129944Y0051740D01*
X0131543Y0053338D02*
X0121866Y0053338D01*
X0121866Y0054937D02*
X0131580Y0054937D01*
X0131961Y0054556D02*
X0135772Y0054556D01*
X0138466Y0057251D01*
X0138466Y0061062D01*
X0135772Y0063756D01*
X0131961Y0063756D01*
X0129266Y0061062D01*
X0129266Y0057251D01*
X0131961Y0054556D01*
X0129982Y0056535D02*
X0121293Y0056535D01*
X0119960Y0058134D02*
X0129266Y0058134D01*
X0129266Y0059732D02*
X0119252Y0059732D01*
X0121108Y0061331D02*
X0129535Y0061331D01*
X0131134Y0062929D02*
X0121770Y0062929D01*
X0121866Y0064528D02*
X0165999Y0064528D01*
X0166671Y0063856D02*
X0171061Y0063856D01*
X0173866Y0066661D01*
X0176671Y0063856D01*
X0181061Y0063856D01*
X0184166Y0066961D01*
X0184166Y0071351D01*
X0181061Y0074456D01*
X0176671Y0074456D01*
X0173866Y0071651D01*
X0171061Y0074456D01*
X0166671Y0074456D01*
X0163566Y0071351D01*
X0163566Y0066961D01*
X0166671Y0063856D01*
X0164401Y0066126D02*
X0121462Y0066126D01*
X0120368Y0067725D02*
X0163566Y0067725D01*
X0163566Y0069323D02*
X0118264Y0069323D01*
X0120703Y0070922D02*
X0163566Y0070922D01*
X0164735Y0072520D02*
X0121601Y0072520D01*
X0121866Y0074119D02*
X0166334Y0074119D01*
X0171399Y0074119D02*
X0176334Y0074119D01*
X0174735Y0072520D02*
X0172997Y0072520D01*
X0173332Y0066126D02*
X0174401Y0066126D01*
X0175999Y0064528D02*
X0171733Y0064528D01*
X0181733Y0064528D02*
X0182728Y0064528D01*
X0181806Y0063606D02*
X0184403Y0066203D01*
X0184803Y0067169D01*
X0185703Y0068069D01*
X0186880Y0068556D01*
X0188153Y0068556D01*
X0189329Y0068069D01*
X0190229Y0067169D01*
X0190716Y0065993D01*
X0190716Y0064720D01*
X0190229Y0063544D01*
X0189329Y0062643D01*
X0188363Y0062243D01*
X0185340Y0059220D01*
X0184552Y0058432D01*
X0183523Y0058006D01*
X0158466Y0058006D01*
X0158466Y0057251D01*
X0155772Y0054556D01*
X0151961Y0054556D01*
X0149266Y0057251D01*
X0149266Y0061062D01*
X0151961Y0063756D01*
X0155772Y0063756D01*
X0156064Y0063463D01*
X0156409Y0063606D01*
X0181806Y0063606D01*
X0183332Y0066126D02*
X0184327Y0066126D01*
X0184166Y0067725D02*
X0185359Y0067725D01*
X0184166Y0069323D02*
X0249766Y0069323D01*
X0249766Y0067725D02*
X0189673Y0067725D01*
X0190661Y0066126D02*
X0249766Y0066126D01*
X0251232Y0064528D02*
X0190637Y0064528D01*
X0191961Y0063756D02*
X0189266Y0061062D01*
X0189266Y0060440D01*
X0183132Y0054306D01*
X0181733Y0054306D01*
X0178716Y0051289D01*
X0178716Y0047023D01*
X0181733Y0044006D01*
X0185999Y0044006D01*
X0189016Y0047023D01*
X0189016Y0051289D01*
X0188950Y0051356D01*
X0192150Y0054556D01*
X0195772Y0054556D01*
X0198466Y0057251D01*
X0198466Y0061062D01*
X0195772Y0063756D01*
X0191961Y0063756D01*
X0191134Y0062929D02*
X0189615Y0062929D01*
X0189535Y0061331D02*
X0187451Y0061331D01*
X0188558Y0059732D02*
X0185852Y0059732D01*
X0186960Y0058134D02*
X0183831Y0058134D01*
X0185361Y0056535D02*
X0157751Y0056535D01*
X0156152Y0054937D02*
X0183763Y0054937D01*
X0180765Y0053338D02*
X0166684Y0053338D01*
X0165916Y0054106D02*
X0163866Y0054106D01*
X0161816Y0054106D01*
X0158916Y0051207D01*
X0158916Y0049156D01*
X0158916Y0047106D01*
X0161816Y0044206D01*
X0163866Y0044206D01*
X0163866Y0049156D01*
X0163866Y0049156D01*
X0158916Y0049156D01*
X0163866Y0049156D01*
X0163866Y0049156D01*
X0163866Y0044206D01*
X0165916Y0044206D01*
X0168816Y0047106D01*
X0168816Y0049156D01*
X0163866Y0049156D01*
X0163866Y0049156D01*
X0163866Y0054106D01*
X0163866Y0049156D01*
X0163866Y0049156D01*
X0168816Y0049156D01*
X0168816Y0051207D01*
X0165916Y0054106D01*
X0163866Y0053338D02*
X0163866Y0053338D01*
X0163866Y0051740D02*
X0163866Y0051740D01*
X0163866Y0050141D02*
X0163866Y0050141D01*
X0163866Y0048543D02*
X0163866Y0048543D01*
X0163866Y0046944D02*
X0163866Y0046944D01*
X0163866Y0045346D02*
X0163866Y0045346D01*
X0160676Y0045346D02*
X0156561Y0045346D01*
X0155772Y0044556D02*
X0158466Y0047251D01*
X0158466Y0051062D01*
X0155772Y0053756D01*
X0151961Y0053756D01*
X0149266Y0051062D01*
X0149266Y0047251D01*
X0151961Y0044556D01*
X0155772Y0044556D01*
X0158160Y0046944D02*
X0159078Y0046944D01*
X0158916Y0048543D02*
X0158466Y0048543D01*
X0158466Y0050141D02*
X0158916Y0050141D01*
X0159449Y0051740D02*
X0157788Y0051740D01*
X0156189Y0053338D02*
X0161048Y0053338D01*
X0168283Y0051740D02*
X0179167Y0051740D01*
X0178716Y0050141D02*
X0168816Y0050141D01*
X0168816Y0048543D02*
X0178716Y0048543D01*
X0178795Y0046944D02*
X0168655Y0046944D01*
X0167056Y0045346D02*
X0180393Y0045346D01*
X0187339Y0045346D02*
X0215883Y0045346D01*
X0215823Y0045200D02*
X0215823Y0043112D01*
X0216622Y0041183D01*
X0218098Y0039707D01*
X0220027Y0038908D01*
X0222115Y0038908D01*
X0224044Y0039707D01*
X0225520Y0041183D01*
X0226319Y0043112D01*
X0226319Y0045200D01*
X0225520Y0047129D01*
X0224044Y0048605D01*
X0222115Y0049404D01*
X0220027Y0049404D01*
X0218098Y0048605D01*
X0216622Y0047129D01*
X0215823Y0045200D01*
X0215823Y0043747D02*
X0121866Y0043747D01*
X0121447Y0042149D02*
X0216222Y0042149D01*
X0217255Y0040550D02*
X0120331Y0040550D01*
X0136561Y0045346D02*
X0151171Y0045346D01*
X0149573Y0046944D02*
X0138160Y0046944D01*
X0138466Y0048543D02*
X0149266Y0048543D01*
X0149266Y0050141D02*
X0138466Y0050141D01*
X0137788Y0051740D02*
X0149944Y0051740D01*
X0151543Y0053338D02*
X0136189Y0053338D01*
X0136152Y0054937D02*
X0151580Y0054937D01*
X0149982Y0056535D02*
X0137751Y0056535D01*
X0138466Y0058134D02*
X0149266Y0058134D01*
X0149266Y0059732D02*
X0138466Y0059732D01*
X0138197Y0061331D02*
X0149535Y0061331D01*
X0151134Y0062929D02*
X0136598Y0062929D01*
X0153866Y0059156D02*
X0154366Y0059506D01*
X0155666Y0059506D01*
X0156966Y0060806D01*
X0182966Y0060806D01*
X0187516Y0065356D01*
X0184166Y0070922D02*
X0249766Y0070922D01*
X0249766Y0072520D02*
X0182997Y0072520D01*
X0181399Y0074119D02*
X0249766Y0074119D01*
X0249766Y0075717D02*
X0121631Y0075717D01*
X0120777Y0077316D02*
X0249766Y0077316D01*
X0249766Y0078914D02*
X0118444Y0078914D01*
X0109288Y0078914D02*
X0108303Y0078914D01*
X0108303Y0080513D02*
X0249766Y0080513D01*
X0249766Y0082112D02*
X0107882Y0082112D01*
X0107298Y0083710D02*
X0249766Y0083710D01*
X0249766Y0085309D02*
X0186524Y0085309D01*
X0185772Y0084556D02*
X0181961Y0084556D01*
X0179266Y0087251D01*
X0179266Y0091062D01*
X0181961Y0093756D01*
X0185772Y0093756D01*
X0186189Y0093339D01*
X0188953Y0096103D01*
X0189353Y0097069D01*
X0190253Y0097969D01*
X0191430Y0098456D01*
X0192703Y0098456D01*
X0193879Y0097969D01*
X0194779Y0097069D01*
X0195266Y0095893D01*
X0195266Y0094620D01*
X0194779Y0093444D01*
X0193879Y0092543D01*
X0192913Y0092143D01*
X0188590Y0087820D01*
X0188466Y0087696D01*
X0188466Y0087251D01*
X0185772Y0084556D01*
X0181208Y0085309D02*
X0166524Y0085309D01*
X0165772Y0084556D02*
X0161961Y0084556D01*
X0159266Y0087251D01*
X0159266Y0091062D01*
X0161961Y0093756D01*
X0165772Y0093756D01*
X0165902Y0093626D01*
X0168816Y0096540D01*
X0168816Y0097701D01*
X0168466Y0097556D01*
X0168466Y0097251D01*
X0165772Y0094556D01*
X0161961Y0094556D01*
X0159266Y0097251D01*
X0159266Y0101062D01*
X0161961Y0103756D01*
X0165772Y0103756D01*
X0166009Y0103519D01*
X0166070Y0103544D01*
X0168860Y0106334D01*
X0170000Y0106806D01*
X0175832Y0106806D01*
X0177966Y0108940D01*
X0177966Y0108992D01*
X0178529Y0110352D01*
X0179570Y0111393D01*
X0180930Y0111956D01*
X0182402Y0111956D01*
X0183762Y0111393D01*
X0184803Y0110352D01*
X0185366Y0108992D01*
X0185366Y0107520D01*
X0184803Y0106160D01*
X0183762Y0105119D01*
X0182402Y0104556D01*
X0182350Y0104556D01*
X0179744Y0101950D01*
X0178872Y0101078D01*
X0177733Y0100606D01*
X0175016Y0100606D01*
X0175016Y0094640D01*
X0174544Y0093500D01*
X0168466Y0087422D01*
X0168466Y0087251D01*
X0165772Y0084556D01*
X0168122Y0086907D02*
X0179610Y0086907D01*
X0179266Y0088506D02*
X0169550Y0088506D01*
X0171148Y0090104D02*
X0179266Y0090104D01*
X0179907Y0091703D02*
X0172747Y0091703D01*
X0174345Y0093301D02*
X0181506Y0093301D01*
X0181961Y0094556D02*
X0185772Y0094556D01*
X0188466Y0097251D01*
X0188466Y0101062D01*
X0185772Y0103756D01*
X0181961Y0103756D01*
X0179266Y0101062D01*
X0179266Y0097251D01*
X0181961Y0094556D01*
X0181617Y0094900D02*
X0175016Y0094900D01*
X0175016Y0096498D02*
X0180019Y0096498D01*
X0179266Y0098097D02*
X0175016Y0098097D01*
X0175016Y0099695D02*
X0179266Y0099695D01*
X0179088Y0101294D02*
X0179498Y0101294D01*
X0180686Y0102892D02*
X0181097Y0102892D01*
X0182285Y0104491D02*
X0249766Y0104491D01*
X0249766Y0106089D02*
X0184732Y0106089D01*
X0185366Y0107688D02*
X0249766Y0107688D01*
X0249766Y0109286D02*
X0185244Y0109286D01*
X0184270Y0110885D02*
X0249766Y0110885D01*
X0249766Y0112483D02*
X0157044Y0112483D01*
X0155772Y0113756D02*
X0151961Y0113756D01*
X0149266Y0111062D01*
X0149266Y0107251D01*
X0151961Y0104556D01*
X0155772Y0104556D01*
X0158466Y0107251D01*
X0158466Y0111062D01*
X0155772Y0113756D01*
X0155916Y0114206D02*
X0158816Y0117106D01*
X0158816Y0119156D01*
X0153866Y0119156D01*
X0153866Y0119156D01*
X0153866Y0114206D01*
X0151816Y0114206D01*
X0148916Y0117106D01*
X0148916Y0119156D01*
X0153866Y0119156D01*
X0153866Y0119156D01*
X0153866Y0114206D01*
X0155916Y0114206D01*
X0157391Y0115680D02*
X0249766Y0115680D01*
X0249766Y0114082D02*
X0136075Y0114082D01*
X0135999Y0114006D02*
X0139016Y0117023D01*
X0139016Y0121289D01*
X0138938Y0121368D01*
X0140352Y0122782D01*
X0141140Y0123570D01*
X0141566Y0124599D01*
X0141566Y0135463D01*
X0141140Y0136492D01*
X0128790Y0148842D01*
X0128002Y0149630D01*
X0126973Y0150056D01*
X0115226Y0150056D01*
X0114016Y0151266D01*
X0114016Y0151289D01*
X0110999Y0154306D01*
X0106733Y0154306D01*
X0103716Y0151289D01*
X0103716Y0147023D01*
X0106733Y0144006D01*
X0110999Y0144006D01*
X0112178Y0145185D01*
X0112480Y0144882D01*
X0113509Y0144456D01*
X0125256Y0144456D01*
X0135966Y0133746D01*
X0135966Y0126316D01*
X0133956Y0124306D01*
X0131733Y0124306D01*
X0128725Y0121298D01*
X0125916Y0124106D01*
X0123866Y0124106D01*
X0121816Y0124106D01*
X0118916Y0121207D01*
X0118916Y0119156D01*
X0118916Y0117106D01*
X0121816Y0114206D01*
X0123866Y0114206D01*
X0123866Y0119156D01*
X0123866Y0119156D01*
X0118916Y0119156D01*
X0123866Y0119156D01*
X0123866Y0119156D01*
X0123866Y0114206D01*
X0125916Y0114206D01*
X0128725Y0117014D01*
X0131733Y0114006D01*
X0135999Y0114006D01*
X0135772Y0113756D02*
X0131961Y0113756D01*
X0129266Y0111062D01*
X0129266Y0107251D01*
X0131961Y0104556D01*
X0135772Y0104556D01*
X0138466Y0107251D01*
X0138466Y0111062D01*
X0135772Y0113756D01*
X0137044Y0112483D02*
X0150688Y0112483D01*
X0149266Y0110885D02*
X0138466Y0110885D01*
X0138466Y0109286D02*
X0149266Y0109286D01*
X0149266Y0107688D02*
X0138466Y0107688D01*
X0137305Y0106089D02*
X0150428Y0106089D01*
X0152044Y0103556D02*
X0149466Y0100979D01*
X0149466Y0099156D01*
X0149466Y0097334D01*
X0152044Y0094756D01*
X0153866Y0094756D01*
X0153866Y0099156D01*
X0153866Y0099156D01*
X0149466Y0099156D01*
X0153866Y0099156D01*
X0153866Y0099156D01*
X0153866Y0094756D01*
X0155689Y0094756D01*
X0158266Y0097334D01*
X0158266Y0099156D01*
X0153866Y0099156D01*
X0153866Y0099156D01*
X0153866Y0103556D01*
X0152044Y0103556D01*
X0151380Y0102892D02*
X0136636Y0102892D01*
X0135772Y0103756D02*
X0138466Y0101062D01*
X0138466Y0097251D01*
X0135772Y0094556D01*
X0131961Y0094556D01*
X0129266Y0097251D01*
X0129266Y0101062D01*
X0131961Y0103756D01*
X0135772Y0103756D01*
X0138234Y0101294D02*
X0149781Y0101294D01*
X0149466Y0099695D02*
X0138466Y0099695D01*
X0138466Y0098097D02*
X0149466Y0098097D01*
X0150302Y0096498D02*
X0137713Y0096498D01*
X0136115Y0094900D02*
X0151900Y0094900D01*
X0151961Y0093756D02*
X0149266Y0091062D01*
X0149266Y0087251D01*
X0151961Y0084556D01*
X0155772Y0084556D01*
X0158466Y0087251D01*
X0158466Y0091062D01*
X0155772Y0093756D01*
X0151961Y0093756D01*
X0151506Y0093301D02*
X0135944Y0093301D01*
X0135689Y0093556D02*
X0133866Y0093556D01*
X0132044Y0093556D01*
X0129466Y0090979D01*
X0129466Y0089156D01*
X0129466Y0087334D01*
X0132044Y0084756D01*
X0133866Y0084756D01*
X0133866Y0089156D01*
X0133866Y0089156D01*
X0129466Y0089156D01*
X0133866Y0089156D01*
X0133866Y0089156D01*
X0133866Y0084756D01*
X0135689Y0084756D01*
X0138266Y0087334D01*
X0138266Y0089156D01*
X0133866Y0089156D01*
X0133866Y0089156D01*
X0133866Y0093556D01*
X0133866Y0089156D01*
X0133866Y0089156D01*
X0138266Y0089156D01*
X0138266Y0090979D01*
X0135689Y0093556D01*
X0133866Y0093301D02*
X0133866Y0093301D01*
X0133866Y0091703D02*
X0133866Y0091703D01*
X0133866Y0090104D02*
X0133866Y0090104D01*
X0133866Y0088506D02*
X0133866Y0088506D01*
X0133866Y0086907D02*
X0133866Y0086907D01*
X0133866Y0085309D02*
X0133866Y0085309D01*
X0131491Y0085309D02*
X0106375Y0085309D01*
X0104902Y0086907D02*
X0129893Y0086907D01*
X0129466Y0088506D02*
X0102610Y0088506D01*
X0101733Y0094006D02*
X0105999Y0094006D01*
X0109016Y0097023D01*
X0109016Y0101289D01*
X0106149Y0104156D01*
X0109016Y0107023D01*
X0109016Y0111289D01*
X0106149Y0114156D01*
X0109016Y0117023D01*
X0109016Y0121289D01*
X0105999Y0124306D01*
X0101733Y0124306D01*
X0098716Y0121289D01*
X0098716Y0117023D01*
X0101583Y0114156D01*
X0098716Y0111289D01*
X0098716Y0107023D01*
X0101583Y0104156D01*
X0098716Y0101289D01*
X0098716Y0097023D01*
X0101733Y0094006D01*
X0100840Y0094900D02*
X0045666Y0094900D01*
X0045666Y0096498D02*
X0099241Y0096498D01*
X0098716Y0098097D02*
X0045666Y0098097D01*
X0045666Y0099695D02*
X0098716Y0099695D01*
X0098720Y0101294D02*
X0045666Y0101294D01*
X0045666Y0102892D02*
X0100319Y0102892D01*
X0101248Y0104491D02*
X0045666Y0104491D01*
X0045666Y0106089D02*
X0099650Y0106089D01*
X0098716Y0107688D02*
X0076421Y0107688D01*
X0076458Y0107703D02*
X0077744Y0108990D01*
X0078441Y0110671D01*
X0078441Y0117641D01*
X0077744Y0119322D01*
X0076458Y0120609D01*
X0074776Y0121306D01*
X0072956Y0121306D01*
X0071275Y0120609D01*
X0069988Y0119322D01*
X0069291Y0117641D01*
X0069291Y0110671D01*
X0069988Y0108990D01*
X0071275Y0107703D01*
X0072956Y0107007D01*
X0074776Y0107007D01*
X0076458Y0107703D01*
X0077867Y0109286D02*
X0098716Y0109286D01*
X0098716Y0110885D02*
X0078441Y0110885D01*
X0078441Y0112483D02*
X0099910Y0112483D01*
X0101509Y0114082D02*
X0078441Y0114082D01*
X0078441Y0115680D02*
X0100059Y0115680D01*
X0098716Y0117279D02*
X0078441Y0117279D01*
X0077929Y0118877D02*
X0098716Y0118877D01*
X0098716Y0120476D02*
X0076591Y0120476D01*
X0071141Y0120476D02*
X0066153Y0120476D01*
X0066159Y0120473D02*
X0065545Y0120785D01*
X0064891Y0120998D01*
X0064210Y0121106D01*
X0063866Y0121106D01*
X0063522Y0121106D01*
X0062842Y0120998D01*
X0062187Y0120785D01*
X0061573Y0120473D01*
X0061016Y0120068D01*
X0060529Y0119581D01*
X0060124Y0119024D01*
X0059812Y0118410D01*
X0059599Y0117755D01*
X0059491Y0117075D01*
X0059491Y0114156D01*
X0059491Y0111237D01*
X0059599Y0110557D01*
X0059812Y0109902D01*
X0060124Y0109288D01*
X0060529Y0108731D01*
X0061016Y0108244D01*
X0061573Y0107840D01*
X0062187Y0107527D01*
X0062842Y0107314D01*
X0063522Y0107207D01*
X0063866Y0107207D01*
X0063866Y0114156D01*
X0063866Y0114156D01*
X0059491Y0114156D01*
X0063866Y0114156D01*
X0063866Y0114156D01*
X0063866Y0107207D01*
X0064210Y0107207D01*
X0064891Y0107314D01*
X0065545Y0107527D01*
X0066159Y0107840D01*
X0066716Y0108244D01*
X0067203Y0108731D01*
X0067608Y0109288D01*
X0067920Y0109902D01*
X0068133Y0110557D01*
X0068241Y0111237D01*
X0068241Y0114156D01*
X0063866Y0114156D01*
X0063866Y0121106D01*
X0063866Y0114156D01*
X0063866Y0114156D01*
X0063866Y0114156D01*
X0068241Y0114156D01*
X0068241Y0117075D01*
X0068133Y0117755D01*
X0067920Y0118410D01*
X0067608Y0119024D01*
X0067203Y0119581D01*
X0066716Y0120068D01*
X0066159Y0120473D01*
X0067682Y0118877D02*
X0069803Y0118877D01*
X0069291Y0117279D02*
X0068209Y0117279D01*
X0068241Y0115680D02*
X0069291Y0115680D01*
X0069291Y0114082D02*
X0068241Y0114082D01*
X0068241Y0112483D02*
X0069291Y0112483D01*
X0069291Y0110885D02*
X0068185Y0110885D01*
X0067606Y0109286D02*
X0069865Y0109286D01*
X0071312Y0107688D02*
X0065861Y0107688D01*
X0063866Y0107688D02*
X0063866Y0107688D01*
X0063866Y0109286D02*
X0063866Y0109286D01*
X0063866Y0110885D02*
X0063866Y0110885D01*
X0063866Y0112483D02*
X0063866Y0112483D01*
X0063866Y0114082D02*
X0063866Y0114082D01*
X0063866Y0115680D02*
X0063866Y0115680D01*
X0063866Y0117279D02*
X0063866Y0117279D01*
X0063866Y0118877D02*
X0063866Y0118877D01*
X0063866Y0120476D02*
X0063866Y0120476D01*
X0061579Y0120476D02*
X0056591Y0120476D01*
X0056458Y0120609D02*
X0054776Y0121306D01*
X0052956Y0121306D01*
X0051275Y0120609D01*
X0049988Y0119322D01*
X0049291Y0117641D01*
X0049291Y0110671D01*
X0049988Y0108990D01*
X0051275Y0107703D01*
X0052956Y0107007D01*
X0054776Y0107007D01*
X0056458Y0107703D01*
X0057744Y0108990D01*
X0058441Y0110671D01*
X0058441Y0117641D01*
X0057744Y0119322D01*
X0056458Y0120609D01*
X0057929Y0118877D02*
X0060050Y0118877D01*
X0059524Y0117279D02*
X0058441Y0117279D01*
X0058441Y0115680D02*
X0059491Y0115680D01*
X0059491Y0114082D02*
X0058441Y0114082D01*
X0058441Y0112483D02*
X0059491Y0112483D01*
X0059547Y0110885D02*
X0058441Y0110885D01*
X0057867Y0109286D02*
X0060126Y0109286D01*
X0061872Y0107688D02*
X0056421Y0107688D01*
X0051312Y0107688D02*
X0045666Y0107688D01*
X0045666Y0109286D02*
X0049865Y0109286D01*
X0049291Y0110885D02*
X0045666Y0110885D01*
X0045666Y0112483D02*
X0049291Y0112483D01*
X0049291Y0114082D02*
X0045666Y0114082D01*
X0045666Y0115680D02*
X0049291Y0115680D01*
X0049291Y0117279D02*
X0045666Y0117279D01*
X0045666Y0118877D02*
X0049803Y0118877D01*
X0051141Y0120476D02*
X0045666Y0120476D01*
X0045666Y0122074D02*
X0099501Y0122074D01*
X0101100Y0123673D02*
X0045666Y0123673D01*
X0045666Y0125271D02*
X0080468Y0125271D01*
X0081733Y0124006D02*
X0085999Y0124006D01*
X0089016Y0127023D01*
X0089016Y0131289D01*
X0085999Y0134306D01*
X0081733Y0134306D01*
X0078716Y0131289D01*
X0078716Y0127023D01*
X0081733Y0124006D01*
X0078869Y0126870D02*
X0045666Y0126870D01*
X0045666Y0128468D02*
X0078716Y0128468D01*
X0078716Y0130067D02*
X0045666Y0130067D01*
X0045666Y0131665D02*
X0079092Y0131665D01*
X0080691Y0133264D02*
X0065546Y0133264D01*
X0065483Y0133200D02*
X0065972Y0133690D01*
X0066379Y0134250D01*
X0066694Y0134867D01*
X0066908Y0135526D01*
X0067016Y0136210D01*
X0067016Y0139156D01*
X0062616Y0139156D01*
X0062616Y0139156D01*
X0062616Y0132156D01*
X0062270Y0132156D01*
X0061586Y0132265D01*
X0060927Y0132479D01*
X0060310Y0132793D01*
X0059750Y0133200D01*
X0059260Y0133690D01*
X0059036Y0133998D01*
X0059016Y0133950D01*
X0057722Y0132656D01*
X0056031Y0131956D01*
X0054201Y0131956D01*
X0052510Y0132656D01*
X0051216Y0133950D01*
X0050516Y0135641D01*
X0050516Y0142671D01*
X0051216Y0144362D01*
X0052510Y0145656D01*
X0054201Y0146356D01*
X0056031Y0146356D01*
X0057722Y0145656D01*
X0059016Y0144362D01*
X0059036Y0144314D01*
X0059260Y0144623D01*
X0059750Y0145112D01*
X0060310Y0145519D01*
X0060927Y0145834D01*
X0061586Y0146048D01*
X0062270Y0146156D01*
X0062616Y0146156D01*
X0062616Y0139156D01*
X0062616Y0132156D01*
X0062962Y0132156D01*
X0063646Y0132265D01*
X0064305Y0132479D01*
X0064922Y0132793D01*
X0065483Y0133200D01*
X0066691Y0134862D02*
X0119155Y0134862D01*
X0119461Y0134556D02*
X0123272Y0134556D01*
X0124266Y0135551D01*
X0124266Y0132479D01*
X0123189Y0133556D01*
X0121366Y0133556D01*
X0119544Y0133556D01*
X0116966Y0130979D01*
X0116966Y0129156D01*
X0116966Y0127334D01*
X0119544Y0124756D01*
X0121366Y0124756D01*
X0121366Y0129156D01*
X0121366Y0129156D01*
X0116966Y0129156D01*
X0121366Y0129156D01*
X0121366Y0129156D01*
X0121366Y0124756D01*
X0123189Y0124756D01*
X0125766Y0127334D01*
X0125766Y0129156D01*
X0121366Y0129156D01*
X0121366Y0133556D01*
X0121366Y0129156D01*
X0121366Y0129156D01*
X0121366Y0129156D01*
X0125766Y0129156D01*
X0125766Y0130751D01*
X0126961Y0129556D01*
X0130772Y0129556D01*
X0133466Y0132251D01*
X0133466Y0136062D01*
X0130772Y0138756D01*
X0126961Y0138756D01*
X0125966Y0137762D01*
X0125966Y0141062D01*
X0123272Y0143756D01*
X0119461Y0143756D01*
X0116766Y0141062D01*
X0116766Y0137251D01*
X0119461Y0134556D01*
X0119251Y0133264D02*
X0111759Y0133264D01*
X0110916Y0134106D02*
X0108866Y0134106D01*
X0106816Y0134106D01*
X0103916Y0131207D01*
X0103916Y0129156D01*
X0103916Y0127106D01*
X0106816Y0124206D01*
X0108866Y0124206D01*
X0108866Y0129156D01*
X0108866Y0129156D01*
X0103916Y0129156D01*
X0108866Y0129156D01*
X0108866Y0129156D01*
X0108866Y0124206D01*
X0110916Y0124206D01*
X0113816Y0127106D01*
X0113816Y0129156D01*
X0108866Y0129156D01*
X0108866Y0134106D01*
X0108866Y0129156D01*
X0108866Y0129156D01*
X0108866Y0129156D01*
X0113816Y0129156D01*
X0113816Y0131207D01*
X0110916Y0134106D01*
X0108866Y0133264D02*
X0108866Y0133264D01*
X0108866Y0131665D02*
X0108866Y0131665D01*
X0108866Y0130067D02*
X0108866Y0130067D01*
X0108866Y0128468D02*
X0108866Y0128468D01*
X0108866Y0126870D02*
X0108866Y0126870D01*
X0108866Y0125271D02*
X0108866Y0125271D01*
X0106633Y0123673D02*
X0121382Y0123673D01*
X0121366Y0125271D02*
X0121366Y0125271D01*
X0121366Y0126870D02*
X0121366Y0126870D01*
X0121366Y0128468D02*
X0121366Y0128468D01*
X0121366Y0130067D02*
X0121366Y0130067D01*
X0121366Y0131665D02*
X0121366Y0131665D01*
X0121366Y0133264D02*
X0121366Y0133264D01*
X0123481Y0133264D02*
X0124266Y0133264D01*
X0124266Y0134862D02*
X0123578Y0134862D01*
X0125966Y0138059D02*
X0126264Y0138059D01*
X0125966Y0139658D02*
X0130055Y0139658D01*
X0131468Y0138059D02*
X0131653Y0138059D01*
X0133067Y0136461D02*
X0133252Y0136461D01*
X0133466Y0134862D02*
X0134850Y0134862D01*
X0135966Y0133264D02*
X0133466Y0133264D01*
X0132881Y0131665D02*
X0135966Y0131665D01*
X0135966Y0130067D02*
X0131282Y0130067D01*
X0135966Y0128468D02*
X0125766Y0128468D01*
X0125766Y0130067D02*
X0126450Y0130067D01*
X0125302Y0126870D02*
X0135966Y0126870D01*
X0134922Y0125271D02*
X0123704Y0125271D01*
X0123866Y0124106D02*
X0123866Y0119156D01*
X0123866Y0119156D01*
X0123866Y0124106D01*
X0123866Y0123673D02*
X0123866Y0123673D01*
X0123866Y0122074D02*
X0123866Y0122074D01*
X0123866Y0120476D02*
X0123866Y0120476D01*
X0123866Y0118877D02*
X0123866Y0118877D01*
X0123866Y0117279D02*
X0123866Y0117279D01*
X0123866Y0115680D02*
X0123866Y0115680D01*
X0123866Y0114106D02*
X0121816Y0114106D01*
X0118916Y0111207D01*
X0118916Y0109156D01*
X0118916Y0107106D01*
X0121724Y0104298D01*
X0118716Y0101289D01*
X0118716Y0097023D01*
X0121733Y0094006D01*
X0125999Y0094006D01*
X0129016Y0097023D01*
X0129016Y0101289D01*
X0126008Y0104298D01*
X0128816Y0107106D01*
X0128816Y0109156D01*
X0123866Y0109156D01*
X0118916Y0109156D01*
X0123866Y0109156D01*
X0123866Y0109156D01*
X0123866Y0109156D01*
X0123866Y0114106D01*
X0125916Y0114106D01*
X0128816Y0111207D01*
X0128816Y0109156D01*
X0123866Y0109156D01*
X0123866Y0109156D01*
X0123866Y0114106D01*
X0123866Y0114082D02*
X0123866Y0114082D01*
X0123866Y0112483D02*
X0123866Y0112483D01*
X0123866Y0110885D02*
X0123866Y0110885D01*
X0123866Y0109286D02*
X0123866Y0109286D01*
X0127539Y0112483D02*
X0130688Y0112483D01*
X0131657Y0114082D02*
X0125941Y0114082D01*
X0127391Y0115680D02*
X0130059Y0115680D01*
X0133866Y0119156D02*
X0134216Y0119306D01*
X0134216Y0120606D01*
X0138766Y0125156D01*
X0138766Y0134906D01*
X0126416Y0147256D01*
X0114066Y0147256D01*
X0111466Y0149856D01*
X0109516Y0149856D01*
X0108866Y0149206D01*
X0108866Y0149156D01*
X0104687Y0146052D02*
X0102267Y0146052D01*
X0103466Y0147251D02*
X0100772Y0144556D01*
X0096961Y0144556D01*
X0094266Y0147251D01*
X0094266Y0151062D01*
X0096961Y0153756D01*
X0100772Y0153756D01*
X0103466Y0151062D01*
X0103466Y0147251D01*
X0103466Y0147650D02*
X0103716Y0147650D01*
X0103716Y0149249D02*
X0103466Y0149249D01*
X0103466Y0150847D02*
X0103716Y0150847D01*
X0104873Y0152446D02*
X0102082Y0152446D01*
X0106471Y0154045D02*
X0086261Y0154045D01*
X0085999Y0154306D02*
X0081733Y0154306D01*
X0078716Y0151289D01*
X0078716Y0147023D01*
X0081733Y0144006D01*
X0085999Y0144006D01*
X0089016Y0147023D01*
X0089016Y0151289D01*
X0085999Y0154306D01*
X0087859Y0152446D02*
X0095651Y0152446D01*
X0094266Y0150847D02*
X0089016Y0150847D01*
X0089016Y0149249D02*
X0094266Y0149249D01*
X0094266Y0147650D02*
X0089016Y0147650D01*
X0088045Y0146052D02*
X0095465Y0146052D01*
X0086447Y0144453D02*
X0106286Y0144453D01*
X0111447Y0144453D02*
X0125259Y0144453D01*
X0124173Y0142855D02*
X0126858Y0142855D01*
X0125771Y0141256D02*
X0128456Y0141256D01*
X0133179Y0144453D02*
X0148125Y0144453D01*
X0147616Y0143945D02*
X0147616Y0138767D01*
X0151277Y0135106D01*
X0156455Y0135106D01*
X0160116Y0138767D01*
X0160116Y0143945D01*
X0156455Y0147606D01*
X0151277Y0147606D01*
X0147616Y0143945D01*
X0147616Y0142855D02*
X0134777Y0142855D01*
X0136376Y0141256D02*
X0147616Y0141256D01*
X0147616Y0139658D02*
X0137974Y0139658D01*
X0139573Y0138059D02*
X0148324Y0138059D01*
X0149923Y0136461D02*
X0141153Y0136461D01*
X0141566Y0134862D02*
X0184340Y0134862D01*
X0184316Y0134920D02*
X0184803Y0133744D01*
X0185703Y0132843D01*
X0186880Y0132356D01*
X0188153Y0132356D01*
X0189329Y0132843D01*
X0190229Y0133744D01*
X0190629Y0134709D01*
X0199926Y0144006D01*
X0200999Y0144006D01*
X0204016Y0147023D01*
X0204016Y0151289D01*
X0200999Y0154306D01*
X0196733Y0154306D01*
X0193866Y0151439D01*
X0190999Y0154306D01*
X0186733Y0154306D01*
X0183716Y0151289D01*
X0183716Y0147023D01*
X0186733Y0144006D01*
X0190999Y0144006D01*
X0193866Y0146873D01*
X0194370Y0146369D01*
X0186669Y0138669D01*
X0185703Y0138269D01*
X0184803Y0137369D01*
X0184316Y0136193D01*
X0184316Y0134920D01*
X0184427Y0136461D02*
X0157810Y0136461D01*
X0159408Y0138059D02*
X0185494Y0138059D01*
X0187658Y0139658D02*
X0160116Y0139658D01*
X0160116Y0141256D02*
X0189257Y0141256D01*
X0190855Y0142855D02*
X0160116Y0142855D01*
X0159608Y0144453D02*
X0186286Y0144453D01*
X0184687Y0146052D02*
X0158009Y0146052D01*
X0149723Y0146052D02*
X0131580Y0146052D01*
X0129982Y0147650D02*
X0183716Y0147650D01*
X0183716Y0149249D02*
X0128383Y0149249D01*
X0118560Y0142855D02*
X0066886Y0142855D01*
X0066908Y0142786D02*
X0066694Y0143445D01*
X0066379Y0144062D01*
X0065972Y0144623D01*
X0065483Y0145112D01*
X0064922Y0145519D01*
X0064305Y0145834D01*
X0063646Y0146048D01*
X0062962Y0146156D01*
X0062616Y0146156D01*
X0062616Y0139156D01*
X0062616Y0139156D01*
X0062616Y0139156D01*
X0067016Y0139156D01*
X0067016Y0142102D01*
X0066908Y0142786D01*
X0067016Y0141256D02*
X0116961Y0141256D01*
X0116766Y0139658D02*
X0067016Y0139658D01*
X0067016Y0138059D02*
X0116766Y0138059D01*
X0117556Y0136461D02*
X0067016Y0136461D01*
X0062616Y0136461D02*
X0062616Y0136461D01*
X0062616Y0138059D02*
X0062616Y0138059D01*
X0062616Y0139658D02*
X0062616Y0139658D01*
X0062616Y0141256D02*
X0062616Y0141256D01*
X0062616Y0142855D02*
X0062616Y0142855D01*
X0062616Y0144453D02*
X0062616Y0144453D01*
X0062616Y0146052D02*
X0062616Y0146052D01*
X0061612Y0146052D02*
X0056766Y0146052D01*
X0058924Y0144453D02*
X0059137Y0144453D01*
X0063620Y0146052D02*
X0079687Y0146052D01*
X0078716Y0147650D02*
X0045666Y0147650D01*
X0045666Y0146052D02*
X0053467Y0146052D01*
X0051308Y0144453D02*
X0045666Y0144453D01*
X0045666Y0142855D02*
X0050592Y0142855D01*
X0050516Y0141256D02*
X0045666Y0141256D01*
X0045666Y0139658D02*
X0050516Y0139658D01*
X0050516Y0138059D02*
X0045666Y0138059D01*
X0045666Y0136461D02*
X0050516Y0136461D01*
X0050839Y0134862D02*
X0045666Y0134862D01*
X0045666Y0133264D02*
X0051903Y0133264D01*
X0058329Y0133264D02*
X0059686Y0133264D01*
X0062616Y0133264D02*
X0062616Y0133264D01*
X0062616Y0134862D02*
X0062616Y0134862D01*
X0066095Y0144453D02*
X0081286Y0144453D01*
X0078716Y0149249D02*
X0045666Y0149249D01*
X0045666Y0150847D02*
X0078716Y0150847D01*
X0079873Y0152446D02*
X0064430Y0152446D01*
X0067205Y0154045D02*
X0081471Y0154045D01*
X0079606Y0160439D02*
X0071698Y0160439D01*
X0072081Y0162037D02*
X0079291Y0162037D01*
X0079291Y0163636D02*
X0072196Y0163636D01*
X0072225Y0165234D02*
X0079291Y0165234D01*
X0079291Y0166833D02*
X0072225Y0166833D01*
X0072225Y0168431D02*
X0073017Y0168431D01*
X0088441Y0166833D02*
X0090073Y0166833D01*
X0089361Y0165234D02*
X0088441Y0165234D01*
X0088441Y0163636D02*
X0089291Y0163636D01*
X0089792Y0162037D02*
X0088441Y0162037D01*
X0088127Y0160439D02*
X0091114Y0160439D01*
X0096618Y0160439D02*
X0101114Y0160439D01*
X0099792Y0162037D02*
X0097940Y0162037D01*
X0098441Y0163636D02*
X0099291Y0163636D01*
X0099361Y0165234D02*
X0098371Y0165234D01*
X0097659Y0166833D02*
X0100073Y0166833D01*
X0098944Y0168431D02*
X0102002Y0168431D01*
X0101471Y0170030D02*
X0100084Y0170030D01*
X0107659Y0166833D02*
X0110403Y0166833D01*
X0109616Y0165234D02*
X0108371Y0165234D01*
X0108441Y0163636D02*
X0109519Y0163636D01*
X0110036Y0162037D02*
X0107940Y0162037D01*
X0106618Y0160439D02*
X0111540Y0160439D01*
X0113866Y0160439D02*
X0113866Y0160439D01*
X0113866Y0162037D02*
X0113866Y0162037D01*
X0113866Y0163636D02*
X0113866Y0163636D01*
X0113866Y0164156D02*
X0113866Y0164156D01*
X0117329Y0166833D02*
X0147816Y0166833D01*
X0147816Y0166856D02*
X0147816Y0164450D01*
X0151360Y0160906D01*
X0153766Y0160906D01*
X0153766Y0166856D01*
X0153966Y0166856D01*
X0153966Y0160906D01*
X0156372Y0160906D01*
X0159916Y0164450D01*
X0159916Y0166856D01*
X0153966Y0166856D01*
X0153966Y0167056D01*
X0153766Y0167056D01*
X0153766Y0166856D01*
X0147816Y0166856D01*
X0147816Y0167056D02*
X0153766Y0167056D01*
X0153766Y0173006D01*
X0151360Y0173006D01*
X0147816Y0169462D01*
X0147816Y0167056D01*
X0147816Y0168431D02*
X0125794Y0168431D01*
X0125866Y0170030D02*
X0148384Y0170030D01*
X0149982Y0171628D02*
X0125866Y0171628D01*
X0125866Y0173227D02*
X0185936Y0173227D01*
X0186816Y0174106D02*
X0183916Y0171207D01*
X0183916Y0169156D01*
X0183916Y0167106D01*
X0186816Y0164206D01*
X0188866Y0164206D01*
X0188866Y0169156D01*
X0188866Y0169156D01*
X0183916Y0169156D01*
X0188866Y0169156D01*
X0188866Y0169156D01*
X0188866Y0164206D01*
X0190916Y0164206D01*
X0193816Y0167106D01*
X0193816Y0169156D01*
X0188866Y0169156D01*
X0188866Y0174106D01*
X0186816Y0174106D01*
X0188866Y0174106D02*
X0188866Y0169156D01*
X0188866Y0169156D01*
X0188866Y0169156D01*
X0193816Y0169156D01*
X0193816Y0171207D01*
X0190916Y0174106D01*
X0188866Y0174106D01*
X0188866Y0173227D02*
X0188866Y0173227D01*
X0188866Y0171628D02*
X0188866Y0171628D01*
X0188866Y0170030D02*
X0188866Y0170030D01*
X0188866Y0168431D02*
X0188866Y0168431D01*
X0188866Y0166833D02*
X0188866Y0166833D01*
X0188866Y0165234D02*
X0188866Y0165234D01*
X0185788Y0165234D02*
X0159916Y0165234D01*
X0159916Y0166833D02*
X0184189Y0166833D01*
X0183916Y0168431D02*
X0159916Y0168431D01*
X0159916Y0169462D02*
X0156372Y0173006D01*
X0153966Y0173006D01*
X0153966Y0167056D01*
X0159916Y0167056D01*
X0159916Y0169462D01*
X0159349Y0170030D02*
X0183916Y0170030D01*
X0184338Y0171628D02*
X0157750Y0171628D01*
X0153966Y0171628D02*
X0153766Y0171628D01*
X0153766Y0170030D02*
X0153966Y0170030D01*
X0153966Y0168431D02*
X0153766Y0168431D01*
X0153766Y0166833D02*
X0153966Y0166833D01*
X0153966Y0165234D02*
X0153766Y0165234D01*
X0153766Y0163636D02*
X0153966Y0163636D01*
X0153966Y0162037D02*
X0153766Y0162037D01*
X0150229Y0162037D02*
X0117696Y0162037D01*
X0118213Y0163636D02*
X0148631Y0163636D01*
X0147816Y0165234D02*
X0118116Y0165234D01*
X0116192Y0160439D02*
X0203566Y0160439D01*
X0203566Y0161351D02*
X0203566Y0156961D01*
X0206671Y0153856D01*
X0211061Y0153856D01*
X0214166Y0156961D01*
X0214166Y0161351D01*
X0211061Y0164456D01*
X0206671Y0164456D01*
X0203566Y0161351D01*
X0204252Y0162037D02*
X0157503Y0162037D01*
X0159102Y0163636D02*
X0205850Y0163636D01*
X0203543Y0166833D02*
X0213694Y0166833D01*
X0213566Y0166961D02*
X0216671Y0163856D01*
X0221061Y0163856D01*
X0224166Y0166961D01*
X0224166Y0171351D01*
X0221061Y0174456D01*
X0216671Y0174456D01*
X0213566Y0171351D01*
X0213566Y0166961D01*
X0213566Y0168431D02*
X0203816Y0168431D01*
X0203816Y0169156D02*
X0198866Y0169156D01*
X0198866Y0169156D01*
X0198866Y0164206D01*
X0196816Y0164206D01*
X0193916Y0167106D01*
X0193916Y0169156D01*
X0198866Y0169156D01*
X0198866Y0169156D01*
X0198866Y0164206D01*
X0200916Y0164206D01*
X0203816Y0167106D01*
X0203816Y0169156D01*
X0203816Y0171207D01*
X0200916Y0174106D01*
X0198866Y0174106D01*
X0196816Y0174106D01*
X0193916Y0171207D01*
X0193916Y0169156D01*
X0198866Y0169156D01*
X0198866Y0174106D01*
X0198866Y0169156D01*
X0198866Y0169156D01*
X0198866Y0169156D01*
X0203816Y0169156D01*
X0203816Y0170030D02*
X0213566Y0170030D01*
X0213843Y0171628D02*
X0203395Y0171628D01*
X0201796Y0173227D02*
X0215441Y0173227D01*
X0222291Y0173227D02*
X0235936Y0173227D01*
X0234338Y0171628D02*
X0223889Y0171628D01*
X0224166Y0170030D02*
X0233916Y0170030D01*
X0233916Y0168431D02*
X0224166Y0168431D01*
X0224038Y0166833D02*
X0234189Y0166833D01*
X0235788Y0165234D02*
X0222439Y0165234D01*
X0224252Y0162037D02*
X0213481Y0162037D01*
X0214166Y0160439D02*
X0223566Y0160439D01*
X0223566Y0161351D02*
X0223566Y0156961D01*
X0226671Y0153856D01*
X0231061Y0153856D01*
X0234166Y0156961D01*
X0234166Y0161351D01*
X0231061Y0164456D01*
X0226671Y0164456D01*
X0223566Y0161351D01*
X0223566Y0158840D02*
X0214166Y0158840D01*
X0214166Y0157242D02*
X0223566Y0157242D01*
X0224884Y0155643D02*
X0212848Y0155643D01*
X0211250Y0154045D02*
X0226482Y0154045D01*
X0231250Y0154045D02*
X0236471Y0154045D01*
X0236733Y0154306D02*
X0233716Y0151289D01*
X0233716Y0147023D01*
X0236733Y0144006D01*
X0240999Y0144006D01*
X0243630Y0146637D01*
X0245711Y0144556D01*
X0249522Y0144556D01*
X0252216Y0147251D01*
X0252216Y0151062D01*
X0249522Y0153756D01*
X0245711Y0153756D01*
X0243630Y0151675D01*
X0240999Y0154306D01*
X0236733Y0154306D01*
X0234873Y0152446D02*
X0202859Y0152446D01*
X0204016Y0150847D02*
X0233716Y0150847D01*
X0233716Y0149249D02*
X0204016Y0149249D01*
X0204016Y0147650D02*
X0233716Y0147650D01*
X0234687Y0146052D02*
X0203045Y0146052D01*
X0201447Y0144453D02*
X0236286Y0144453D01*
X0241447Y0144453D02*
X0254401Y0144453D01*
X0254766Y0146052D02*
X0251017Y0146052D01*
X0252216Y0147650D02*
X0254766Y0147650D01*
X0254766Y0149249D02*
X0252216Y0149249D01*
X0252216Y0150847D02*
X0254766Y0150847D01*
X0254893Y0152446D02*
X0250832Y0152446D01*
X0254937Y0155643D02*
X0232848Y0155643D01*
X0234166Y0157242D02*
X0253737Y0157242D01*
X0252864Y0158840D02*
X0234166Y0158840D01*
X0234166Y0160439D02*
X0252255Y0160439D01*
X0251871Y0162037D02*
X0233481Y0162037D01*
X0231882Y0163636D02*
X0251757Y0163636D01*
X0251728Y0165234D02*
X0250199Y0165234D01*
X0245033Y0165234D02*
X0241944Y0165234D01*
X0238866Y0165234D02*
X0238866Y0165234D01*
X0238866Y0166833D02*
X0238866Y0166833D01*
X0238866Y0168431D02*
X0238866Y0168431D01*
X0238866Y0170030D02*
X0238866Y0170030D01*
X0238866Y0171628D02*
X0238866Y0171628D01*
X0238866Y0173227D02*
X0238866Y0173227D01*
X0241796Y0173227D02*
X0245181Y0173227D01*
X0243583Y0171628D02*
X0243395Y0171628D01*
X0250051Y0173227D02*
X0251728Y0173227D01*
X0251728Y0174825D02*
X0125866Y0174825D01*
X0125866Y0176424D02*
X0251728Y0176424D01*
X0251728Y0178022D02*
X0124658Y0178022D01*
X0111261Y0154045D02*
X0186471Y0154045D01*
X0184873Y0152446D02*
X0112859Y0152446D01*
X0114435Y0150847D02*
X0183716Y0150847D01*
X0191261Y0154045D02*
X0196471Y0154045D01*
X0194873Y0152446D02*
X0192859Y0152446D01*
X0198866Y0149156D02*
X0198566Y0148556D01*
X0198566Y0146606D01*
X0187516Y0135556D01*
X0185283Y0133264D02*
X0141566Y0133264D01*
X0141566Y0131665D02*
X0249766Y0131665D01*
X0249766Y0130067D02*
X0141566Y0130067D01*
X0141566Y0128468D02*
X0249766Y0128468D01*
X0249766Y0126870D02*
X0141566Y0126870D01*
X0141566Y0125271D02*
X0249766Y0125271D01*
X0249766Y0123673D02*
X0156350Y0123673D01*
X0155916Y0124106D02*
X0153866Y0124106D01*
X0151816Y0124106D01*
X0148916Y0121207D01*
X0148916Y0119156D01*
X0153866Y0119156D01*
X0153866Y0119156D01*
X0153866Y0124106D01*
X0153866Y0119156D01*
X0153866Y0119156D01*
X0158816Y0119156D01*
X0158816Y0121207D01*
X0155916Y0124106D01*
X0153866Y0123673D02*
X0153866Y0123673D01*
X0153866Y0122074D02*
X0153866Y0122074D01*
X0153866Y0120476D02*
X0153866Y0120476D01*
X0153866Y0118877D02*
X0153866Y0118877D01*
X0153866Y0117279D02*
X0153866Y0117279D01*
X0153866Y0115680D02*
X0153866Y0115680D01*
X0150342Y0115680D02*
X0137673Y0115680D01*
X0139016Y0117279D02*
X0148916Y0117279D01*
X0148916Y0118877D02*
X0139016Y0118877D01*
X0139016Y0120476D02*
X0148916Y0120476D01*
X0149784Y0122074D02*
X0139644Y0122074D01*
X0140352Y0122782D02*
X0140352Y0122782D01*
X0141182Y0123673D02*
X0151382Y0123673D01*
X0157948Y0122074D02*
X0249766Y0122074D01*
X0249766Y0120476D02*
X0158816Y0120476D01*
X0158816Y0118877D02*
X0249766Y0118877D01*
X0249766Y0117279D02*
X0158816Y0117279D01*
X0158466Y0110885D02*
X0179062Y0110885D01*
X0178088Y0109286D02*
X0158466Y0109286D01*
X0158466Y0107688D02*
X0176714Y0107688D01*
X0168615Y0106089D02*
X0157305Y0106089D01*
X0155689Y0103556D02*
X0153866Y0103556D01*
X0153866Y0099156D01*
X0153866Y0099156D01*
X0158266Y0099156D01*
X0158266Y0100979D01*
X0155689Y0103556D01*
X0156353Y0102892D02*
X0161097Y0102892D01*
X0159498Y0101294D02*
X0157951Y0101294D01*
X0158266Y0099695D02*
X0159266Y0099695D01*
X0159266Y0098097D02*
X0158266Y0098097D01*
X0157431Y0096498D02*
X0160019Y0096498D01*
X0161617Y0094900D02*
X0155832Y0094900D01*
X0156227Y0093301D02*
X0161506Y0093301D01*
X0159907Y0091703D02*
X0157825Y0091703D01*
X0158466Y0090104D02*
X0159266Y0090104D01*
X0159266Y0088506D02*
X0158466Y0088506D01*
X0158122Y0086907D02*
X0159610Y0086907D01*
X0161208Y0085309D02*
X0156524Y0085309D01*
X0151208Y0085309D02*
X0136241Y0085309D01*
X0137840Y0086907D02*
X0149610Y0086907D01*
X0149266Y0088506D02*
X0138266Y0088506D01*
X0138266Y0090104D02*
X0149266Y0090104D01*
X0149907Y0091703D02*
X0137542Y0091703D01*
X0131789Y0093301D02*
X0045666Y0093301D01*
X0045666Y0091703D02*
X0130190Y0091703D01*
X0129466Y0090104D02*
X0045666Y0090104D01*
X0045666Y0088506D02*
X0069856Y0088506D01*
X0070233Y0088687D02*
X0069191Y0088185D01*
X0068211Y0087570D01*
X0067307Y0086848D01*
X0066489Y0086030D01*
X0065768Y0085126D01*
X0065152Y0084146D01*
X0064650Y0083104D01*
X0064268Y0082012D01*
X0064011Y0080884D01*
X0063906Y0079956D01*
X0073381Y0079956D01*
X0073381Y0078356D01*
X0074981Y0078356D01*
X0074981Y0068881D01*
X0075909Y0068986D01*
X0077037Y0069243D01*
X0078129Y0069625D01*
X0079171Y0070127D01*
X0080151Y0070743D01*
X0081055Y0071464D01*
X0081873Y0072282D01*
X0082595Y0073186D01*
X0083210Y0074166D01*
X0083712Y0075208D01*
X0084094Y0076300D01*
X0084352Y0077428D01*
X0084456Y0078356D01*
X0074981Y0078356D01*
X0074981Y0079956D01*
X0084456Y0079956D01*
X0084352Y0080884D01*
X0084094Y0082012D01*
X0083712Y0083104D01*
X0083210Y0084146D01*
X0082595Y0085126D01*
X0081873Y0086030D01*
X0081055Y0086848D01*
X0080151Y0087570D01*
X0079171Y0088185D01*
X0078129Y0088687D01*
X0077037Y0089069D01*
X0075909Y0089327D01*
X0074981Y0089431D01*
X0074981Y0079956D01*
X0073381Y0079956D01*
X0073381Y0089431D01*
X0072453Y0089327D01*
X0071325Y0089069D01*
X0070233Y0088687D01*
X0073381Y0088506D02*
X0074981Y0088506D01*
X0074981Y0086907D02*
X0073381Y0086907D01*
X0073381Y0085309D02*
X0074981Y0085309D01*
X0074981Y0083710D02*
X0073381Y0083710D01*
X0073381Y0082112D02*
X0074981Y0082112D01*
X0074981Y0080513D02*
X0073381Y0080513D01*
X0073381Y0078914D02*
X0045666Y0078914D01*
X0045666Y0077316D02*
X0064036Y0077316D01*
X0064011Y0077428D02*
X0064268Y0076300D01*
X0064650Y0075208D01*
X0065152Y0074166D01*
X0065768Y0073186D01*
X0066489Y0072282D01*
X0067307Y0071464D01*
X0068211Y0070743D01*
X0069191Y0070127D01*
X0070233Y0069625D01*
X0071325Y0069243D01*
X0072453Y0068986D01*
X0073381Y0068881D01*
X0073381Y0078356D01*
X0063906Y0078356D01*
X0064011Y0077428D01*
X0064472Y0075717D02*
X0045666Y0075717D01*
X0045666Y0074119D02*
X0065182Y0074119D01*
X0066299Y0072520D02*
X0045666Y0072520D01*
X0045666Y0070922D02*
X0067987Y0070922D01*
X0071096Y0069323D02*
X0045666Y0069323D01*
X0045666Y0067725D02*
X0078216Y0067725D01*
X0077590Y0067099D02*
X0076208Y0064705D01*
X0075492Y0062035D01*
X0075492Y0059270D01*
X0076208Y0056599D01*
X0077590Y0054205D01*
X0079545Y0052250D01*
X0081939Y0050868D01*
X0084610Y0050152D01*
X0087374Y0050152D01*
X0090045Y0050868D01*
X0092439Y0052250D01*
X0094394Y0054205D01*
X0095777Y0056599D01*
X0096492Y0059270D01*
X0096492Y0062035D01*
X0095777Y0064705D01*
X0094394Y0067099D01*
X0092439Y0069054D01*
X0090045Y0070437D01*
X0087374Y0071152D01*
X0084610Y0071152D01*
X0081939Y0070437D01*
X0079545Y0069054D01*
X0077590Y0067099D01*
X0077028Y0066126D02*
X0045666Y0066126D01*
X0045666Y0064528D02*
X0076160Y0064528D01*
X0075732Y0062929D02*
X0045666Y0062929D01*
X0064979Y0061331D02*
X0075492Y0061331D01*
X0075492Y0059732D02*
X0067479Y0059732D01*
X0069177Y0058134D02*
X0075797Y0058134D01*
X0076245Y0056535D02*
X0070366Y0056535D01*
X0071200Y0054937D02*
X0077168Y0054937D01*
X0078457Y0053338D02*
X0071761Y0053338D01*
X0072096Y0051740D02*
X0080429Y0051740D01*
X0091555Y0051740D02*
X0106455Y0051740D01*
X0105866Y0053338D02*
X0093527Y0053338D01*
X0094817Y0054937D02*
X0105866Y0054937D01*
X0106440Y0056535D02*
X0095740Y0056535D01*
X0096188Y0058134D02*
X0107773Y0058134D01*
X0108481Y0059732D02*
X0096492Y0059732D01*
X0096492Y0061331D02*
X0106624Y0061331D01*
X0105962Y0062929D02*
X0096252Y0062929D01*
X0095824Y0064528D02*
X0105866Y0064528D01*
X0106270Y0066126D02*
X0094956Y0066126D01*
X0093769Y0067725D02*
X0107364Y0067725D01*
X0109468Y0069323D02*
X0101676Y0069323D01*
X0104418Y0070922D02*
X0107029Y0070922D01*
X0106132Y0072520D02*
X0106017Y0072520D01*
X0093931Y0069323D02*
X0091973Y0069323D01*
X0091188Y0070922D02*
X0088234Y0070922D01*
X0089590Y0072520D02*
X0082063Y0072520D01*
X0083181Y0074119D02*
X0088587Y0074119D01*
X0087854Y0075717D02*
X0083890Y0075717D01*
X0084326Y0077316D02*
X0087426Y0077316D01*
X0087303Y0078914D02*
X0074981Y0078914D01*
X0074981Y0077316D02*
X0073381Y0077316D01*
X0073381Y0075717D02*
X0074981Y0075717D01*
X0074981Y0074119D02*
X0073381Y0074119D01*
X0073381Y0072520D02*
X0074981Y0072520D01*
X0074981Y0070922D02*
X0073381Y0070922D01*
X0073381Y0069323D02*
X0074981Y0069323D01*
X0077266Y0069323D02*
X0080011Y0069323D01*
X0080376Y0070922D02*
X0083750Y0070922D01*
X0084393Y0080513D02*
X0087303Y0080513D01*
X0087725Y0082112D02*
X0084059Y0082112D01*
X0083420Y0083710D02*
X0088308Y0083710D01*
X0089231Y0085309D02*
X0082449Y0085309D01*
X0080982Y0086907D02*
X0090705Y0086907D01*
X0092997Y0088506D02*
X0078506Y0088506D01*
X0067380Y0086907D02*
X0045666Y0086907D01*
X0045666Y0085309D02*
X0065913Y0085309D01*
X0064942Y0083710D02*
X0045666Y0083710D01*
X0045666Y0082112D02*
X0064303Y0082112D01*
X0063969Y0080513D02*
X0045666Y0080513D01*
X0106893Y0094900D02*
X0120840Y0094900D01*
X0119241Y0096498D02*
X0108491Y0096498D01*
X0109016Y0098097D02*
X0118716Y0098097D01*
X0118716Y0099695D02*
X0109016Y0099695D01*
X0109012Y0101294D02*
X0118720Y0101294D01*
X0120319Y0102892D02*
X0107413Y0102892D01*
X0106484Y0104491D02*
X0121531Y0104491D01*
X0119933Y0106089D02*
X0108082Y0106089D01*
X0109016Y0107688D02*
X0118916Y0107688D01*
X0118916Y0109286D02*
X0109016Y0109286D01*
X0109016Y0110885D02*
X0118916Y0110885D01*
X0120193Y0112483D02*
X0107822Y0112483D01*
X0106224Y0114082D02*
X0121791Y0114082D01*
X0120342Y0115680D02*
X0107673Y0115680D01*
X0109016Y0117279D02*
X0118916Y0117279D01*
X0118916Y0118877D02*
X0109016Y0118877D01*
X0109016Y0120476D02*
X0118916Y0120476D01*
X0119784Y0122074D02*
X0108231Y0122074D01*
X0105751Y0125271D02*
X0101487Y0125271D01*
X0100772Y0124556D02*
X0103466Y0127251D01*
X0103466Y0131062D01*
X0100772Y0133756D01*
X0096961Y0133756D01*
X0094266Y0131062D01*
X0094266Y0127251D01*
X0096961Y0124556D01*
X0100772Y0124556D01*
X0103085Y0126870D02*
X0104152Y0126870D01*
X0103916Y0128468D02*
X0103466Y0128468D01*
X0103466Y0130067D02*
X0103916Y0130067D01*
X0104375Y0131665D02*
X0102862Y0131665D01*
X0101264Y0133264D02*
X0105973Y0133264D01*
X0113357Y0131665D02*
X0117653Y0131665D01*
X0116966Y0130067D02*
X0113816Y0130067D01*
X0113816Y0128468D02*
X0116966Y0128468D01*
X0117430Y0126870D02*
X0113580Y0126870D01*
X0111982Y0125271D02*
X0119028Y0125271D01*
X0126350Y0123673D02*
X0131100Y0123673D01*
X0129501Y0122074D02*
X0127948Y0122074D01*
X0128816Y0110885D02*
X0129266Y0110885D01*
X0129266Y0109286D02*
X0128816Y0109286D01*
X0128816Y0107688D02*
X0129266Y0107688D01*
X0130428Y0106089D02*
X0127799Y0106089D01*
X0126201Y0104491D02*
X0167017Y0104491D01*
X0167713Y0096498D02*
X0168774Y0096498D01*
X0167176Y0094900D02*
X0166115Y0094900D01*
X0153866Y0094900D02*
X0153866Y0094900D01*
X0153866Y0096498D02*
X0153866Y0096498D01*
X0153866Y0098097D02*
X0153866Y0098097D01*
X0153866Y0099695D02*
X0153866Y0099695D01*
X0153866Y0101294D02*
X0153866Y0101294D01*
X0153866Y0102892D02*
X0153866Y0102892D01*
X0131097Y0102892D02*
X0127413Y0102892D01*
X0129012Y0101294D02*
X0129498Y0101294D01*
X0129266Y0099695D02*
X0129016Y0099695D01*
X0129016Y0098097D02*
X0129266Y0098097D01*
X0130019Y0096498D02*
X0128491Y0096498D01*
X0126893Y0094900D02*
X0131617Y0094900D01*
X0096246Y0125271D02*
X0087264Y0125271D01*
X0088863Y0126870D02*
X0094647Y0126870D01*
X0094266Y0128468D02*
X0089016Y0128468D01*
X0089016Y0130067D02*
X0094266Y0130067D01*
X0094870Y0131665D02*
X0088640Y0131665D01*
X0087042Y0133264D02*
X0096468Y0133264D01*
X0069016Y0155643D02*
X0204884Y0155643D01*
X0203566Y0157242D02*
X0070216Y0157242D01*
X0071089Y0158840D02*
X0203566Y0158840D01*
X0201261Y0154045D02*
X0206482Y0154045D01*
X0194052Y0146052D02*
X0193045Y0146052D01*
X0192454Y0144453D02*
X0191447Y0144453D01*
X0195578Y0139658D02*
X0249766Y0139658D01*
X0249766Y0138059D02*
X0193979Y0138059D01*
X0192381Y0136461D02*
X0249766Y0136461D01*
X0249766Y0134862D02*
X0190782Y0134862D01*
X0189749Y0133264D02*
X0249766Y0133264D01*
X0251204Y0141256D02*
X0197176Y0141256D01*
X0198775Y0142855D02*
X0252802Y0142855D01*
X0244215Y0146052D02*
X0243045Y0146052D01*
X0242859Y0152446D02*
X0244401Y0152446D01*
X0241261Y0154045D02*
X0256747Y0154045D01*
X0251728Y0171628D02*
X0251650Y0171628D01*
X0225850Y0163636D02*
X0211882Y0163636D01*
X0215293Y0165234D02*
X0201944Y0165234D01*
X0198866Y0165234D02*
X0198866Y0165234D01*
X0198866Y0166833D02*
X0198866Y0166833D01*
X0198866Y0168431D02*
X0198866Y0168431D01*
X0198866Y0170030D02*
X0198866Y0170030D01*
X0198866Y0171628D02*
X0198866Y0171628D01*
X0198866Y0173227D02*
X0198866Y0173227D01*
X0195936Y0173227D02*
X0191796Y0173227D01*
X0193395Y0171628D02*
X0194338Y0171628D01*
X0193916Y0170030D02*
X0193816Y0170030D01*
X0193816Y0168431D02*
X0193916Y0168431D01*
X0194189Y0166833D02*
X0193543Y0166833D01*
X0191944Y0165234D02*
X0195788Y0165234D01*
X0186636Y0102892D02*
X0249766Y0102892D01*
X0249766Y0101294D02*
X0188234Y0101294D01*
X0188466Y0099695D02*
X0249766Y0099695D01*
X0249766Y0098097D02*
X0193571Y0098097D01*
X0195015Y0096498D02*
X0249766Y0096498D01*
X0249766Y0094900D02*
X0195266Y0094900D01*
X0194637Y0093301D02*
X0249766Y0093301D01*
X0249766Y0091703D02*
X0192472Y0091703D01*
X0190874Y0090104D02*
X0249766Y0090104D01*
X0249766Y0088506D02*
X0189275Y0088506D01*
X0188122Y0086907D02*
X0249766Y0086907D01*
X0245916Y0064106D02*
X0243866Y0064106D01*
X0241816Y0064106D01*
X0238916Y0061207D01*
X0238916Y0059156D01*
X0238916Y0057106D01*
X0241816Y0054206D01*
X0243866Y0054206D01*
X0243866Y0059156D01*
X0243866Y0059156D01*
X0238916Y0059156D01*
X0243866Y0059156D01*
X0243866Y0059156D01*
X0243866Y0054206D01*
X0245916Y0054206D01*
X0248816Y0057106D01*
X0248816Y0059156D01*
X0243866Y0059156D01*
X0243866Y0059156D01*
X0243866Y0064106D01*
X0243866Y0059156D01*
X0243866Y0059156D01*
X0248816Y0059156D01*
X0248816Y0061207D01*
X0245916Y0064106D01*
X0247093Y0062929D02*
X0252830Y0062929D01*
X0254429Y0061331D02*
X0248692Y0061331D01*
X0248816Y0059732D02*
X0256474Y0059732D01*
X0254776Y0058134D02*
X0248816Y0058134D01*
X0248246Y0056535D02*
X0253587Y0056535D01*
X0252752Y0054937D02*
X0246647Y0054937D01*
X0243866Y0054937D02*
X0243866Y0054937D01*
X0243866Y0056535D02*
X0243866Y0056535D01*
X0243866Y0058134D02*
X0243866Y0058134D01*
X0243866Y0059732D02*
X0243866Y0059732D01*
X0243866Y0061331D02*
X0243866Y0061331D01*
X0243866Y0062929D02*
X0243866Y0062929D01*
X0240639Y0062929D02*
X0227376Y0062929D01*
X0225999Y0064306D02*
X0221733Y0064306D01*
X0218716Y0061289D01*
X0218716Y0057023D01*
X0221733Y0054006D01*
X0225999Y0054006D01*
X0229016Y0057023D01*
X0229016Y0061289D01*
X0225999Y0064306D01*
X0228975Y0061331D02*
X0239040Y0061331D01*
X0238916Y0059732D02*
X0229016Y0059732D01*
X0229016Y0058134D02*
X0238916Y0058134D01*
X0239487Y0056535D02*
X0228528Y0056535D01*
X0226930Y0054937D02*
X0241085Y0054937D01*
X0244151Y0048543D02*
X0224106Y0048543D01*
X0225596Y0046944D02*
X0242447Y0046944D01*
X0242344Y0046802D02*
X0241983Y0046094D01*
X0241738Y0045338D01*
X0241613Y0044553D01*
X0241613Y0044439D01*
X0246379Y0044439D01*
X0246379Y0049204D01*
X0246264Y0049204D01*
X0245479Y0049080D01*
X0244724Y0048834D01*
X0244016Y0048474D01*
X0243373Y0048007D01*
X0242811Y0047445D01*
X0242344Y0046802D01*
X0241740Y0045346D02*
X0226259Y0045346D01*
X0226319Y0043747D02*
X0241615Y0043747D01*
X0241613Y0043759D02*
X0241738Y0042974D01*
X0241983Y0042218D01*
X0242344Y0041510D01*
X0242811Y0040868D01*
X0243373Y0040306D01*
X0244016Y0039839D01*
X0244724Y0039478D01*
X0245479Y0039232D01*
X0246264Y0039108D01*
X0246379Y0039108D01*
X0246379Y0043873D01*
X0246944Y0043873D01*
X0246944Y0039108D01*
X0247059Y0039108D01*
X0247844Y0039232D01*
X0248599Y0039478D01*
X0249307Y0039839D01*
X0249950Y0040306D01*
X0250512Y0040868D01*
X0250979Y0041510D01*
X0251340Y0042218D01*
X0251585Y0042974D01*
X0251709Y0043759D01*
X0251709Y0043873D01*
X0246944Y0043873D01*
X0246944Y0044439D01*
X0246379Y0044439D01*
X0246379Y0043873D01*
X0241613Y0043873D01*
X0241613Y0043759D01*
X0242019Y0042149D02*
X0225920Y0042149D01*
X0224887Y0040550D02*
X0243128Y0040550D01*
X0246379Y0040550D02*
X0246944Y0040550D01*
X0246944Y0042149D02*
X0246379Y0042149D01*
X0246379Y0043747D02*
X0246944Y0043747D01*
X0246944Y0044439D02*
X0251709Y0044439D01*
X0251709Y0044553D01*
X0251585Y0045338D01*
X0251340Y0046094D01*
X0250979Y0046802D01*
X0250512Y0047445D01*
X0249950Y0048007D01*
X0249307Y0048474D01*
X0248599Y0048834D01*
X0247844Y0049080D01*
X0247059Y0049204D01*
X0246944Y0049204D01*
X0246944Y0044439D01*
X0246944Y0045346D02*
X0246379Y0045346D01*
X0246379Y0046944D02*
X0246944Y0046944D01*
X0246944Y0048543D02*
X0246379Y0048543D01*
X0249171Y0048543D02*
X0251728Y0048543D01*
X0251728Y0050141D02*
X0189016Y0050141D01*
X0189016Y0048543D02*
X0218036Y0048543D01*
X0216545Y0046944D02*
X0188937Y0046944D01*
X0189334Y0051740D02*
X0251857Y0051740D01*
X0252192Y0053338D02*
X0190932Y0053338D01*
X0196152Y0054937D02*
X0211580Y0054937D01*
X0211961Y0054556D02*
X0209266Y0057251D01*
X0209266Y0061062D01*
X0211961Y0063756D01*
X0215772Y0063756D01*
X0218466Y0061062D01*
X0218466Y0057251D01*
X0215772Y0054556D01*
X0211961Y0054556D01*
X0209982Y0056535D02*
X0197751Y0056535D01*
X0198466Y0058134D02*
X0209266Y0058134D01*
X0209266Y0059732D02*
X0198466Y0059732D01*
X0198197Y0061331D02*
X0209535Y0061331D01*
X0211134Y0062929D02*
X0196598Y0062929D01*
X0216598Y0062929D02*
X0220356Y0062929D01*
X0218758Y0061331D02*
X0218197Y0061331D01*
X0218466Y0059732D02*
X0218716Y0059732D01*
X0218716Y0058134D02*
X0218466Y0058134D01*
X0217751Y0056535D02*
X0219204Y0056535D01*
X0220802Y0054937D02*
X0216152Y0054937D01*
X0219922Y0038952D02*
X0072225Y0038952D01*
X0072225Y0037353D02*
X0251728Y0037353D01*
X0251728Y0038952D02*
X0222220Y0038952D01*
X0250194Y0040550D02*
X0251728Y0040550D01*
X0251728Y0042149D02*
X0251304Y0042149D01*
X0251708Y0043747D02*
X0251728Y0043747D01*
X0251728Y0045346D02*
X0251583Y0045346D01*
X0251728Y0046944D02*
X0250875Y0046944D01*
X0192066Y0095256D02*
X0186216Y0089406D01*
X0184266Y0089406D01*
X0183866Y0089156D01*
X0186115Y0094900D02*
X0187750Y0094900D01*
X0187713Y0096498D02*
X0189117Y0096498D01*
X0188466Y0098097D02*
X0190562Y0098097D01*
D23*
X0193866Y0079156D03*
X0193866Y0129156D03*
D24*
X0181666Y0108256D02*
X0177116Y0103706D01*
X0171916Y0103706D01*
X0171916Y0095256D01*
X0165416Y0088756D01*
X0164116Y0088756D01*
X0163866Y0089156D01*
X0163866Y0099156D02*
X0165416Y0099156D01*
X0166716Y0100456D01*
X0167366Y0100456D01*
X0170616Y0103706D01*
X0171916Y0103706D01*
X0192066Y0058856D02*
X0193366Y0058856D01*
X0193866Y0059156D01*
X0192066Y0058856D02*
X0184266Y0051056D01*
X0184266Y0049756D01*
X0183866Y0049156D01*
D25*
X0181666Y0108256D03*
D26*
X0192066Y0095256D03*
X0187516Y0065356D03*
X0187516Y0135556D03*
M02*
