G75*
%MOIN*%
%OFA0B0*%
%FSLAX25Y25*%
%IPPOS*%
%LPD*%
%AMOC8*
5,1,8,0,0,1.08239X$1,22.5*
%
%ADD10C,0.00000*%
D10*
X0059614Y0034156D02*
X0264339Y0034156D01*
X0258040Y0049904D02*
X0258042Y0050062D01*
X0258048Y0050220D01*
X0258058Y0050378D01*
X0258072Y0050536D01*
X0258090Y0050693D01*
X0258111Y0050850D01*
X0258137Y0051006D01*
X0258167Y0051162D01*
X0258200Y0051317D01*
X0258238Y0051470D01*
X0258279Y0051623D01*
X0258324Y0051775D01*
X0258373Y0051926D01*
X0258426Y0052075D01*
X0258482Y0052223D01*
X0258542Y0052369D01*
X0258606Y0052514D01*
X0258674Y0052657D01*
X0258745Y0052799D01*
X0258819Y0052939D01*
X0258897Y0053076D01*
X0258979Y0053212D01*
X0259063Y0053346D01*
X0259152Y0053477D01*
X0259243Y0053606D01*
X0259338Y0053733D01*
X0259435Y0053858D01*
X0259536Y0053980D01*
X0259640Y0054099D01*
X0259747Y0054216D01*
X0259857Y0054330D01*
X0259970Y0054441D01*
X0260085Y0054550D01*
X0260203Y0054655D01*
X0260324Y0054757D01*
X0260447Y0054857D01*
X0260573Y0054953D01*
X0260701Y0055046D01*
X0260831Y0055136D01*
X0260964Y0055222D01*
X0261099Y0055306D01*
X0261235Y0055385D01*
X0261374Y0055462D01*
X0261515Y0055534D01*
X0261657Y0055604D01*
X0261801Y0055669D01*
X0261947Y0055731D01*
X0262094Y0055789D01*
X0262243Y0055844D01*
X0262393Y0055895D01*
X0262544Y0055942D01*
X0262696Y0055985D01*
X0262849Y0056024D01*
X0263004Y0056060D01*
X0263159Y0056091D01*
X0263315Y0056119D01*
X0263471Y0056143D01*
X0263628Y0056163D01*
X0263786Y0056179D01*
X0263943Y0056191D01*
X0264102Y0056199D01*
X0264260Y0056203D01*
X0264418Y0056203D01*
X0264576Y0056199D01*
X0264735Y0056191D01*
X0264892Y0056179D01*
X0265050Y0056163D01*
X0265207Y0056143D01*
X0265363Y0056119D01*
X0265519Y0056091D01*
X0265674Y0056060D01*
X0265829Y0056024D01*
X0265982Y0055985D01*
X0266134Y0055942D01*
X0266285Y0055895D01*
X0266435Y0055844D01*
X0266584Y0055789D01*
X0266731Y0055731D01*
X0266877Y0055669D01*
X0267021Y0055604D01*
X0267163Y0055534D01*
X0267304Y0055462D01*
X0267443Y0055385D01*
X0267579Y0055306D01*
X0267714Y0055222D01*
X0267847Y0055136D01*
X0267977Y0055046D01*
X0268105Y0054953D01*
X0268231Y0054857D01*
X0268354Y0054757D01*
X0268475Y0054655D01*
X0268593Y0054550D01*
X0268708Y0054441D01*
X0268821Y0054330D01*
X0268931Y0054216D01*
X0269038Y0054099D01*
X0269142Y0053980D01*
X0269243Y0053858D01*
X0269340Y0053733D01*
X0269435Y0053606D01*
X0269526Y0053477D01*
X0269615Y0053346D01*
X0269699Y0053212D01*
X0269781Y0053076D01*
X0269859Y0052939D01*
X0269933Y0052799D01*
X0270004Y0052657D01*
X0270072Y0052514D01*
X0270136Y0052369D01*
X0270196Y0052223D01*
X0270252Y0052075D01*
X0270305Y0051926D01*
X0270354Y0051775D01*
X0270399Y0051623D01*
X0270440Y0051470D01*
X0270478Y0051317D01*
X0270511Y0051162D01*
X0270541Y0051006D01*
X0270567Y0050850D01*
X0270588Y0050693D01*
X0270606Y0050536D01*
X0270620Y0050378D01*
X0270630Y0050220D01*
X0270636Y0050062D01*
X0270638Y0049904D01*
X0270636Y0049746D01*
X0270630Y0049588D01*
X0270620Y0049430D01*
X0270606Y0049272D01*
X0270588Y0049115D01*
X0270567Y0048958D01*
X0270541Y0048802D01*
X0270511Y0048646D01*
X0270478Y0048491D01*
X0270440Y0048338D01*
X0270399Y0048185D01*
X0270354Y0048033D01*
X0270305Y0047882D01*
X0270252Y0047733D01*
X0270196Y0047585D01*
X0270136Y0047439D01*
X0270072Y0047294D01*
X0270004Y0047151D01*
X0269933Y0047009D01*
X0269859Y0046869D01*
X0269781Y0046732D01*
X0269699Y0046596D01*
X0269615Y0046462D01*
X0269526Y0046331D01*
X0269435Y0046202D01*
X0269340Y0046075D01*
X0269243Y0045950D01*
X0269142Y0045828D01*
X0269038Y0045709D01*
X0268931Y0045592D01*
X0268821Y0045478D01*
X0268708Y0045367D01*
X0268593Y0045258D01*
X0268475Y0045153D01*
X0268354Y0045051D01*
X0268231Y0044951D01*
X0268105Y0044855D01*
X0267977Y0044762D01*
X0267847Y0044672D01*
X0267714Y0044586D01*
X0267579Y0044502D01*
X0267443Y0044423D01*
X0267304Y0044346D01*
X0267163Y0044274D01*
X0267021Y0044204D01*
X0266877Y0044139D01*
X0266731Y0044077D01*
X0266584Y0044019D01*
X0266435Y0043964D01*
X0266285Y0043913D01*
X0266134Y0043866D01*
X0265982Y0043823D01*
X0265829Y0043784D01*
X0265674Y0043748D01*
X0265519Y0043717D01*
X0265363Y0043689D01*
X0265207Y0043665D01*
X0265050Y0043645D01*
X0264892Y0043629D01*
X0264735Y0043617D01*
X0264576Y0043609D01*
X0264418Y0043605D01*
X0264260Y0043605D01*
X0264102Y0043609D01*
X0263943Y0043617D01*
X0263786Y0043629D01*
X0263628Y0043645D01*
X0263471Y0043665D01*
X0263315Y0043689D01*
X0263159Y0043717D01*
X0263004Y0043748D01*
X0262849Y0043784D01*
X0262696Y0043823D01*
X0262544Y0043866D01*
X0262393Y0043913D01*
X0262243Y0043964D01*
X0262094Y0044019D01*
X0261947Y0044077D01*
X0261801Y0044139D01*
X0261657Y0044204D01*
X0261515Y0044274D01*
X0261374Y0044346D01*
X0261235Y0044423D01*
X0261099Y0044502D01*
X0260964Y0044586D01*
X0260831Y0044672D01*
X0260701Y0044762D01*
X0260573Y0044855D01*
X0260447Y0044951D01*
X0260324Y0045051D01*
X0260203Y0045153D01*
X0260085Y0045258D01*
X0259970Y0045367D01*
X0259857Y0045478D01*
X0259747Y0045592D01*
X0259640Y0045709D01*
X0259536Y0045828D01*
X0259435Y0045950D01*
X0259338Y0046075D01*
X0259243Y0046202D01*
X0259152Y0046331D01*
X0259063Y0046462D01*
X0258979Y0046596D01*
X0258897Y0046732D01*
X0258819Y0046869D01*
X0258745Y0047009D01*
X0258674Y0047151D01*
X0258606Y0047294D01*
X0258542Y0047439D01*
X0258482Y0047585D01*
X0258426Y0047733D01*
X0258373Y0047882D01*
X0258324Y0048033D01*
X0258279Y0048185D01*
X0258238Y0048338D01*
X0258200Y0048491D01*
X0258167Y0048646D01*
X0258137Y0048802D01*
X0258111Y0048958D01*
X0258090Y0049115D01*
X0258072Y0049272D01*
X0258058Y0049430D01*
X0258048Y0049588D01*
X0258042Y0049746D01*
X0258040Y0049904D01*
X0264339Y0034156D02*
X0264720Y0034161D01*
X0265100Y0034174D01*
X0265480Y0034197D01*
X0265859Y0034230D01*
X0266237Y0034271D01*
X0266614Y0034321D01*
X0266990Y0034381D01*
X0267365Y0034449D01*
X0267737Y0034527D01*
X0268108Y0034614D01*
X0268476Y0034709D01*
X0268842Y0034814D01*
X0269205Y0034927D01*
X0269566Y0035049D01*
X0269923Y0035179D01*
X0270277Y0035319D01*
X0270628Y0035466D01*
X0270975Y0035623D01*
X0271318Y0035787D01*
X0271657Y0035960D01*
X0271992Y0036141D01*
X0272323Y0036330D01*
X0272648Y0036527D01*
X0272969Y0036731D01*
X0273285Y0036944D01*
X0273595Y0037164D01*
X0273901Y0037391D01*
X0274200Y0037626D01*
X0274494Y0037868D01*
X0274782Y0038116D01*
X0275064Y0038372D01*
X0275339Y0038635D01*
X0275608Y0038904D01*
X0275871Y0039179D01*
X0276127Y0039461D01*
X0276375Y0039749D01*
X0276617Y0040043D01*
X0276852Y0040342D01*
X0277079Y0040648D01*
X0277299Y0040958D01*
X0277512Y0041274D01*
X0277716Y0041595D01*
X0277913Y0041920D01*
X0278102Y0042251D01*
X0278283Y0042586D01*
X0278456Y0042925D01*
X0278620Y0043268D01*
X0278777Y0043615D01*
X0278924Y0043966D01*
X0279064Y0044320D01*
X0279194Y0044677D01*
X0279316Y0045038D01*
X0279429Y0045401D01*
X0279534Y0045767D01*
X0279629Y0046135D01*
X0279716Y0046506D01*
X0279794Y0046878D01*
X0279862Y0047253D01*
X0279922Y0047629D01*
X0279972Y0048006D01*
X0280013Y0048384D01*
X0280046Y0048763D01*
X0280069Y0049143D01*
X0280082Y0049523D01*
X0280087Y0049904D01*
X0280087Y0164077D01*
X0258040Y0164077D02*
X0258042Y0164235D01*
X0258048Y0164393D01*
X0258058Y0164551D01*
X0258072Y0164709D01*
X0258090Y0164866D01*
X0258111Y0165023D01*
X0258137Y0165179D01*
X0258167Y0165335D01*
X0258200Y0165490D01*
X0258238Y0165643D01*
X0258279Y0165796D01*
X0258324Y0165948D01*
X0258373Y0166099D01*
X0258426Y0166248D01*
X0258482Y0166396D01*
X0258542Y0166542D01*
X0258606Y0166687D01*
X0258674Y0166830D01*
X0258745Y0166972D01*
X0258819Y0167112D01*
X0258897Y0167249D01*
X0258979Y0167385D01*
X0259063Y0167519D01*
X0259152Y0167650D01*
X0259243Y0167779D01*
X0259338Y0167906D01*
X0259435Y0168031D01*
X0259536Y0168153D01*
X0259640Y0168272D01*
X0259747Y0168389D01*
X0259857Y0168503D01*
X0259970Y0168614D01*
X0260085Y0168723D01*
X0260203Y0168828D01*
X0260324Y0168930D01*
X0260447Y0169030D01*
X0260573Y0169126D01*
X0260701Y0169219D01*
X0260831Y0169309D01*
X0260964Y0169395D01*
X0261099Y0169479D01*
X0261235Y0169558D01*
X0261374Y0169635D01*
X0261515Y0169707D01*
X0261657Y0169777D01*
X0261801Y0169842D01*
X0261947Y0169904D01*
X0262094Y0169962D01*
X0262243Y0170017D01*
X0262393Y0170068D01*
X0262544Y0170115D01*
X0262696Y0170158D01*
X0262849Y0170197D01*
X0263004Y0170233D01*
X0263159Y0170264D01*
X0263315Y0170292D01*
X0263471Y0170316D01*
X0263628Y0170336D01*
X0263786Y0170352D01*
X0263943Y0170364D01*
X0264102Y0170372D01*
X0264260Y0170376D01*
X0264418Y0170376D01*
X0264576Y0170372D01*
X0264735Y0170364D01*
X0264892Y0170352D01*
X0265050Y0170336D01*
X0265207Y0170316D01*
X0265363Y0170292D01*
X0265519Y0170264D01*
X0265674Y0170233D01*
X0265829Y0170197D01*
X0265982Y0170158D01*
X0266134Y0170115D01*
X0266285Y0170068D01*
X0266435Y0170017D01*
X0266584Y0169962D01*
X0266731Y0169904D01*
X0266877Y0169842D01*
X0267021Y0169777D01*
X0267163Y0169707D01*
X0267304Y0169635D01*
X0267443Y0169558D01*
X0267579Y0169479D01*
X0267714Y0169395D01*
X0267847Y0169309D01*
X0267977Y0169219D01*
X0268105Y0169126D01*
X0268231Y0169030D01*
X0268354Y0168930D01*
X0268475Y0168828D01*
X0268593Y0168723D01*
X0268708Y0168614D01*
X0268821Y0168503D01*
X0268931Y0168389D01*
X0269038Y0168272D01*
X0269142Y0168153D01*
X0269243Y0168031D01*
X0269340Y0167906D01*
X0269435Y0167779D01*
X0269526Y0167650D01*
X0269615Y0167519D01*
X0269699Y0167385D01*
X0269781Y0167249D01*
X0269859Y0167112D01*
X0269933Y0166972D01*
X0270004Y0166830D01*
X0270072Y0166687D01*
X0270136Y0166542D01*
X0270196Y0166396D01*
X0270252Y0166248D01*
X0270305Y0166099D01*
X0270354Y0165948D01*
X0270399Y0165796D01*
X0270440Y0165643D01*
X0270478Y0165490D01*
X0270511Y0165335D01*
X0270541Y0165179D01*
X0270567Y0165023D01*
X0270588Y0164866D01*
X0270606Y0164709D01*
X0270620Y0164551D01*
X0270630Y0164393D01*
X0270636Y0164235D01*
X0270638Y0164077D01*
X0270636Y0163919D01*
X0270630Y0163761D01*
X0270620Y0163603D01*
X0270606Y0163445D01*
X0270588Y0163288D01*
X0270567Y0163131D01*
X0270541Y0162975D01*
X0270511Y0162819D01*
X0270478Y0162664D01*
X0270440Y0162511D01*
X0270399Y0162358D01*
X0270354Y0162206D01*
X0270305Y0162055D01*
X0270252Y0161906D01*
X0270196Y0161758D01*
X0270136Y0161612D01*
X0270072Y0161467D01*
X0270004Y0161324D01*
X0269933Y0161182D01*
X0269859Y0161042D01*
X0269781Y0160905D01*
X0269699Y0160769D01*
X0269615Y0160635D01*
X0269526Y0160504D01*
X0269435Y0160375D01*
X0269340Y0160248D01*
X0269243Y0160123D01*
X0269142Y0160001D01*
X0269038Y0159882D01*
X0268931Y0159765D01*
X0268821Y0159651D01*
X0268708Y0159540D01*
X0268593Y0159431D01*
X0268475Y0159326D01*
X0268354Y0159224D01*
X0268231Y0159124D01*
X0268105Y0159028D01*
X0267977Y0158935D01*
X0267847Y0158845D01*
X0267714Y0158759D01*
X0267579Y0158675D01*
X0267443Y0158596D01*
X0267304Y0158519D01*
X0267163Y0158447D01*
X0267021Y0158377D01*
X0266877Y0158312D01*
X0266731Y0158250D01*
X0266584Y0158192D01*
X0266435Y0158137D01*
X0266285Y0158086D01*
X0266134Y0158039D01*
X0265982Y0157996D01*
X0265829Y0157957D01*
X0265674Y0157921D01*
X0265519Y0157890D01*
X0265363Y0157862D01*
X0265207Y0157838D01*
X0265050Y0157818D01*
X0264892Y0157802D01*
X0264735Y0157790D01*
X0264576Y0157782D01*
X0264418Y0157778D01*
X0264260Y0157778D01*
X0264102Y0157782D01*
X0263943Y0157790D01*
X0263786Y0157802D01*
X0263628Y0157818D01*
X0263471Y0157838D01*
X0263315Y0157862D01*
X0263159Y0157890D01*
X0263004Y0157921D01*
X0262849Y0157957D01*
X0262696Y0157996D01*
X0262544Y0158039D01*
X0262393Y0158086D01*
X0262243Y0158137D01*
X0262094Y0158192D01*
X0261947Y0158250D01*
X0261801Y0158312D01*
X0261657Y0158377D01*
X0261515Y0158447D01*
X0261374Y0158519D01*
X0261235Y0158596D01*
X0261099Y0158675D01*
X0260964Y0158759D01*
X0260831Y0158845D01*
X0260701Y0158935D01*
X0260573Y0159028D01*
X0260447Y0159124D01*
X0260324Y0159224D01*
X0260203Y0159326D01*
X0260085Y0159431D01*
X0259970Y0159540D01*
X0259857Y0159651D01*
X0259747Y0159765D01*
X0259640Y0159882D01*
X0259536Y0160001D01*
X0259435Y0160123D01*
X0259338Y0160248D01*
X0259243Y0160375D01*
X0259152Y0160504D01*
X0259063Y0160635D01*
X0258979Y0160769D01*
X0258897Y0160905D01*
X0258819Y0161042D01*
X0258745Y0161182D01*
X0258674Y0161324D01*
X0258606Y0161467D01*
X0258542Y0161612D01*
X0258482Y0161758D01*
X0258426Y0161906D01*
X0258373Y0162055D01*
X0258324Y0162206D01*
X0258279Y0162358D01*
X0258238Y0162511D01*
X0258200Y0162664D01*
X0258167Y0162819D01*
X0258137Y0162975D01*
X0258111Y0163131D01*
X0258090Y0163288D01*
X0258072Y0163445D01*
X0258058Y0163603D01*
X0258048Y0163761D01*
X0258042Y0163919D01*
X0258040Y0164077D01*
X0264339Y0179825D02*
X0264720Y0179820D01*
X0265100Y0179807D01*
X0265480Y0179784D01*
X0265859Y0179751D01*
X0266237Y0179710D01*
X0266614Y0179660D01*
X0266990Y0179600D01*
X0267365Y0179532D01*
X0267737Y0179454D01*
X0268108Y0179367D01*
X0268476Y0179272D01*
X0268842Y0179167D01*
X0269205Y0179054D01*
X0269566Y0178932D01*
X0269923Y0178802D01*
X0270277Y0178662D01*
X0270628Y0178515D01*
X0270975Y0178358D01*
X0271318Y0178194D01*
X0271657Y0178021D01*
X0271992Y0177840D01*
X0272323Y0177651D01*
X0272648Y0177454D01*
X0272969Y0177250D01*
X0273285Y0177037D01*
X0273595Y0176817D01*
X0273901Y0176590D01*
X0274200Y0176355D01*
X0274494Y0176113D01*
X0274782Y0175865D01*
X0275064Y0175609D01*
X0275339Y0175346D01*
X0275608Y0175077D01*
X0275871Y0174802D01*
X0276127Y0174520D01*
X0276375Y0174232D01*
X0276617Y0173938D01*
X0276852Y0173639D01*
X0277079Y0173333D01*
X0277299Y0173023D01*
X0277512Y0172707D01*
X0277716Y0172386D01*
X0277913Y0172061D01*
X0278102Y0171730D01*
X0278283Y0171395D01*
X0278456Y0171056D01*
X0278620Y0170713D01*
X0278777Y0170366D01*
X0278924Y0170015D01*
X0279064Y0169661D01*
X0279194Y0169304D01*
X0279316Y0168943D01*
X0279429Y0168580D01*
X0279534Y0168214D01*
X0279629Y0167846D01*
X0279716Y0167475D01*
X0279794Y0167103D01*
X0279862Y0166728D01*
X0279922Y0166352D01*
X0279972Y0165975D01*
X0280013Y0165597D01*
X0280046Y0165218D01*
X0280069Y0164838D01*
X0280082Y0164458D01*
X0280087Y0164077D01*
X0280082Y0164458D01*
X0280069Y0164838D01*
X0280046Y0165218D01*
X0280013Y0165597D01*
X0279972Y0165975D01*
X0279922Y0166352D01*
X0279862Y0166728D01*
X0279794Y0167103D01*
X0279716Y0167475D01*
X0279629Y0167846D01*
X0279534Y0168214D01*
X0279429Y0168580D01*
X0279316Y0168943D01*
X0279194Y0169304D01*
X0279064Y0169661D01*
X0278924Y0170015D01*
X0278777Y0170366D01*
X0278620Y0170713D01*
X0278456Y0171056D01*
X0278283Y0171395D01*
X0278102Y0171730D01*
X0277913Y0172061D01*
X0277716Y0172386D01*
X0277512Y0172707D01*
X0277299Y0173023D01*
X0277079Y0173333D01*
X0276852Y0173639D01*
X0276617Y0173938D01*
X0276375Y0174232D01*
X0276127Y0174520D01*
X0275871Y0174802D01*
X0275608Y0175077D01*
X0275339Y0175346D01*
X0275064Y0175609D01*
X0274782Y0175865D01*
X0274494Y0176113D01*
X0274200Y0176355D01*
X0273901Y0176590D01*
X0273595Y0176817D01*
X0273285Y0177037D01*
X0272969Y0177250D01*
X0272648Y0177454D01*
X0272323Y0177651D01*
X0271992Y0177840D01*
X0271657Y0178021D01*
X0271318Y0178194D01*
X0270975Y0178358D01*
X0270628Y0178515D01*
X0270277Y0178662D01*
X0269923Y0178802D01*
X0269566Y0178932D01*
X0269205Y0179054D01*
X0268842Y0179167D01*
X0268476Y0179272D01*
X0268108Y0179367D01*
X0267737Y0179454D01*
X0267365Y0179532D01*
X0266990Y0179600D01*
X0266614Y0179660D01*
X0266237Y0179710D01*
X0265859Y0179751D01*
X0265480Y0179784D01*
X0265100Y0179807D01*
X0264720Y0179820D01*
X0264339Y0179825D01*
X0059614Y0179825D01*
X0053315Y0164077D02*
X0053317Y0164235D01*
X0053323Y0164393D01*
X0053333Y0164551D01*
X0053347Y0164709D01*
X0053365Y0164866D01*
X0053386Y0165023D01*
X0053412Y0165179D01*
X0053442Y0165335D01*
X0053475Y0165490D01*
X0053513Y0165643D01*
X0053554Y0165796D01*
X0053599Y0165948D01*
X0053648Y0166099D01*
X0053701Y0166248D01*
X0053757Y0166396D01*
X0053817Y0166542D01*
X0053881Y0166687D01*
X0053949Y0166830D01*
X0054020Y0166972D01*
X0054094Y0167112D01*
X0054172Y0167249D01*
X0054254Y0167385D01*
X0054338Y0167519D01*
X0054427Y0167650D01*
X0054518Y0167779D01*
X0054613Y0167906D01*
X0054710Y0168031D01*
X0054811Y0168153D01*
X0054915Y0168272D01*
X0055022Y0168389D01*
X0055132Y0168503D01*
X0055245Y0168614D01*
X0055360Y0168723D01*
X0055478Y0168828D01*
X0055599Y0168930D01*
X0055722Y0169030D01*
X0055848Y0169126D01*
X0055976Y0169219D01*
X0056106Y0169309D01*
X0056239Y0169395D01*
X0056374Y0169479D01*
X0056510Y0169558D01*
X0056649Y0169635D01*
X0056790Y0169707D01*
X0056932Y0169777D01*
X0057076Y0169842D01*
X0057222Y0169904D01*
X0057369Y0169962D01*
X0057518Y0170017D01*
X0057668Y0170068D01*
X0057819Y0170115D01*
X0057971Y0170158D01*
X0058124Y0170197D01*
X0058279Y0170233D01*
X0058434Y0170264D01*
X0058590Y0170292D01*
X0058746Y0170316D01*
X0058903Y0170336D01*
X0059061Y0170352D01*
X0059218Y0170364D01*
X0059377Y0170372D01*
X0059535Y0170376D01*
X0059693Y0170376D01*
X0059851Y0170372D01*
X0060010Y0170364D01*
X0060167Y0170352D01*
X0060325Y0170336D01*
X0060482Y0170316D01*
X0060638Y0170292D01*
X0060794Y0170264D01*
X0060949Y0170233D01*
X0061104Y0170197D01*
X0061257Y0170158D01*
X0061409Y0170115D01*
X0061560Y0170068D01*
X0061710Y0170017D01*
X0061859Y0169962D01*
X0062006Y0169904D01*
X0062152Y0169842D01*
X0062296Y0169777D01*
X0062438Y0169707D01*
X0062579Y0169635D01*
X0062718Y0169558D01*
X0062854Y0169479D01*
X0062989Y0169395D01*
X0063122Y0169309D01*
X0063252Y0169219D01*
X0063380Y0169126D01*
X0063506Y0169030D01*
X0063629Y0168930D01*
X0063750Y0168828D01*
X0063868Y0168723D01*
X0063983Y0168614D01*
X0064096Y0168503D01*
X0064206Y0168389D01*
X0064313Y0168272D01*
X0064417Y0168153D01*
X0064518Y0168031D01*
X0064615Y0167906D01*
X0064710Y0167779D01*
X0064801Y0167650D01*
X0064890Y0167519D01*
X0064974Y0167385D01*
X0065056Y0167249D01*
X0065134Y0167112D01*
X0065208Y0166972D01*
X0065279Y0166830D01*
X0065347Y0166687D01*
X0065411Y0166542D01*
X0065471Y0166396D01*
X0065527Y0166248D01*
X0065580Y0166099D01*
X0065629Y0165948D01*
X0065674Y0165796D01*
X0065715Y0165643D01*
X0065753Y0165490D01*
X0065786Y0165335D01*
X0065816Y0165179D01*
X0065842Y0165023D01*
X0065863Y0164866D01*
X0065881Y0164709D01*
X0065895Y0164551D01*
X0065905Y0164393D01*
X0065911Y0164235D01*
X0065913Y0164077D01*
X0065911Y0163919D01*
X0065905Y0163761D01*
X0065895Y0163603D01*
X0065881Y0163445D01*
X0065863Y0163288D01*
X0065842Y0163131D01*
X0065816Y0162975D01*
X0065786Y0162819D01*
X0065753Y0162664D01*
X0065715Y0162511D01*
X0065674Y0162358D01*
X0065629Y0162206D01*
X0065580Y0162055D01*
X0065527Y0161906D01*
X0065471Y0161758D01*
X0065411Y0161612D01*
X0065347Y0161467D01*
X0065279Y0161324D01*
X0065208Y0161182D01*
X0065134Y0161042D01*
X0065056Y0160905D01*
X0064974Y0160769D01*
X0064890Y0160635D01*
X0064801Y0160504D01*
X0064710Y0160375D01*
X0064615Y0160248D01*
X0064518Y0160123D01*
X0064417Y0160001D01*
X0064313Y0159882D01*
X0064206Y0159765D01*
X0064096Y0159651D01*
X0063983Y0159540D01*
X0063868Y0159431D01*
X0063750Y0159326D01*
X0063629Y0159224D01*
X0063506Y0159124D01*
X0063380Y0159028D01*
X0063252Y0158935D01*
X0063122Y0158845D01*
X0062989Y0158759D01*
X0062854Y0158675D01*
X0062718Y0158596D01*
X0062579Y0158519D01*
X0062438Y0158447D01*
X0062296Y0158377D01*
X0062152Y0158312D01*
X0062006Y0158250D01*
X0061859Y0158192D01*
X0061710Y0158137D01*
X0061560Y0158086D01*
X0061409Y0158039D01*
X0061257Y0157996D01*
X0061104Y0157957D01*
X0060949Y0157921D01*
X0060794Y0157890D01*
X0060638Y0157862D01*
X0060482Y0157838D01*
X0060325Y0157818D01*
X0060167Y0157802D01*
X0060010Y0157790D01*
X0059851Y0157782D01*
X0059693Y0157778D01*
X0059535Y0157778D01*
X0059377Y0157782D01*
X0059218Y0157790D01*
X0059061Y0157802D01*
X0058903Y0157818D01*
X0058746Y0157838D01*
X0058590Y0157862D01*
X0058434Y0157890D01*
X0058279Y0157921D01*
X0058124Y0157957D01*
X0057971Y0157996D01*
X0057819Y0158039D01*
X0057668Y0158086D01*
X0057518Y0158137D01*
X0057369Y0158192D01*
X0057222Y0158250D01*
X0057076Y0158312D01*
X0056932Y0158377D01*
X0056790Y0158447D01*
X0056649Y0158519D01*
X0056510Y0158596D01*
X0056374Y0158675D01*
X0056239Y0158759D01*
X0056106Y0158845D01*
X0055976Y0158935D01*
X0055848Y0159028D01*
X0055722Y0159124D01*
X0055599Y0159224D01*
X0055478Y0159326D01*
X0055360Y0159431D01*
X0055245Y0159540D01*
X0055132Y0159651D01*
X0055022Y0159765D01*
X0054915Y0159882D01*
X0054811Y0160001D01*
X0054710Y0160123D01*
X0054613Y0160248D01*
X0054518Y0160375D01*
X0054427Y0160504D01*
X0054338Y0160635D01*
X0054254Y0160769D01*
X0054172Y0160905D01*
X0054094Y0161042D01*
X0054020Y0161182D01*
X0053949Y0161324D01*
X0053881Y0161467D01*
X0053817Y0161612D01*
X0053757Y0161758D01*
X0053701Y0161906D01*
X0053648Y0162055D01*
X0053599Y0162206D01*
X0053554Y0162358D01*
X0053513Y0162511D01*
X0053475Y0162664D01*
X0053442Y0162819D01*
X0053412Y0162975D01*
X0053386Y0163131D01*
X0053365Y0163288D01*
X0053347Y0163445D01*
X0053333Y0163603D01*
X0053323Y0163761D01*
X0053317Y0163919D01*
X0053315Y0164077D01*
X0043866Y0164077D02*
X0043871Y0164458D01*
X0043884Y0164838D01*
X0043907Y0165218D01*
X0043940Y0165597D01*
X0043981Y0165975D01*
X0044031Y0166352D01*
X0044091Y0166728D01*
X0044159Y0167103D01*
X0044237Y0167475D01*
X0044324Y0167846D01*
X0044419Y0168214D01*
X0044524Y0168580D01*
X0044637Y0168943D01*
X0044759Y0169304D01*
X0044889Y0169661D01*
X0045029Y0170015D01*
X0045176Y0170366D01*
X0045333Y0170713D01*
X0045497Y0171056D01*
X0045670Y0171395D01*
X0045851Y0171730D01*
X0046040Y0172061D01*
X0046237Y0172386D01*
X0046441Y0172707D01*
X0046654Y0173023D01*
X0046874Y0173333D01*
X0047101Y0173639D01*
X0047336Y0173938D01*
X0047578Y0174232D01*
X0047826Y0174520D01*
X0048082Y0174802D01*
X0048345Y0175077D01*
X0048614Y0175346D01*
X0048889Y0175609D01*
X0049171Y0175865D01*
X0049459Y0176113D01*
X0049753Y0176355D01*
X0050052Y0176590D01*
X0050358Y0176817D01*
X0050668Y0177037D01*
X0050984Y0177250D01*
X0051305Y0177454D01*
X0051630Y0177651D01*
X0051961Y0177840D01*
X0052296Y0178021D01*
X0052635Y0178194D01*
X0052978Y0178358D01*
X0053325Y0178515D01*
X0053676Y0178662D01*
X0054030Y0178802D01*
X0054387Y0178932D01*
X0054748Y0179054D01*
X0055111Y0179167D01*
X0055477Y0179272D01*
X0055845Y0179367D01*
X0056216Y0179454D01*
X0056588Y0179532D01*
X0056963Y0179600D01*
X0057339Y0179660D01*
X0057716Y0179710D01*
X0058094Y0179751D01*
X0058473Y0179784D01*
X0058853Y0179807D01*
X0059233Y0179820D01*
X0059614Y0179825D01*
X0059233Y0179820D01*
X0058853Y0179807D01*
X0058473Y0179784D01*
X0058094Y0179751D01*
X0057716Y0179710D01*
X0057339Y0179660D01*
X0056963Y0179600D01*
X0056588Y0179532D01*
X0056216Y0179454D01*
X0055845Y0179367D01*
X0055477Y0179272D01*
X0055111Y0179167D01*
X0054748Y0179054D01*
X0054387Y0178932D01*
X0054030Y0178802D01*
X0053676Y0178662D01*
X0053325Y0178515D01*
X0052978Y0178358D01*
X0052635Y0178194D01*
X0052296Y0178021D01*
X0051961Y0177840D01*
X0051630Y0177651D01*
X0051305Y0177454D01*
X0050984Y0177250D01*
X0050668Y0177037D01*
X0050358Y0176817D01*
X0050052Y0176590D01*
X0049753Y0176355D01*
X0049459Y0176113D01*
X0049171Y0175865D01*
X0048889Y0175609D01*
X0048614Y0175346D01*
X0048345Y0175077D01*
X0048082Y0174802D01*
X0047826Y0174520D01*
X0047578Y0174232D01*
X0047336Y0173938D01*
X0047101Y0173639D01*
X0046874Y0173333D01*
X0046654Y0173023D01*
X0046441Y0172707D01*
X0046237Y0172386D01*
X0046040Y0172061D01*
X0045851Y0171730D01*
X0045670Y0171395D01*
X0045497Y0171056D01*
X0045333Y0170713D01*
X0045176Y0170366D01*
X0045029Y0170015D01*
X0044889Y0169661D01*
X0044759Y0169304D01*
X0044637Y0168943D01*
X0044524Y0168580D01*
X0044419Y0168214D01*
X0044324Y0167846D01*
X0044237Y0167475D01*
X0044159Y0167103D01*
X0044091Y0166728D01*
X0044031Y0166352D01*
X0043981Y0165975D01*
X0043940Y0165597D01*
X0043907Y0165218D01*
X0043884Y0164838D01*
X0043871Y0164458D01*
X0043866Y0164077D01*
X0043866Y0049904D01*
X0053315Y0049904D02*
X0053317Y0050062D01*
X0053323Y0050220D01*
X0053333Y0050378D01*
X0053347Y0050536D01*
X0053365Y0050693D01*
X0053386Y0050850D01*
X0053412Y0051006D01*
X0053442Y0051162D01*
X0053475Y0051317D01*
X0053513Y0051470D01*
X0053554Y0051623D01*
X0053599Y0051775D01*
X0053648Y0051926D01*
X0053701Y0052075D01*
X0053757Y0052223D01*
X0053817Y0052369D01*
X0053881Y0052514D01*
X0053949Y0052657D01*
X0054020Y0052799D01*
X0054094Y0052939D01*
X0054172Y0053076D01*
X0054254Y0053212D01*
X0054338Y0053346D01*
X0054427Y0053477D01*
X0054518Y0053606D01*
X0054613Y0053733D01*
X0054710Y0053858D01*
X0054811Y0053980D01*
X0054915Y0054099D01*
X0055022Y0054216D01*
X0055132Y0054330D01*
X0055245Y0054441D01*
X0055360Y0054550D01*
X0055478Y0054655D01*
X0055599Y0054757D01*
X0055722Y0054857D01*
X0055848Y0054953D01*
X0055976Y0055046D01*
X0056106Y0055136D01*
X0056239Y0055222D01*
X0056374Y0055306D01*
X0056510Y0055385D01*
X0056649Y0055462D01*
X0056790Y0055534D01*
X0056932Y0055604D01*
X0057076Y0055669D01*
X0057222Y0055731D01*
X0057369Y0055789D01*
X0057518Y0055844D01*
X0057668Y0055895D01*
X0057819Y0055942D01*
X0057971Y0055985D01*
X0058124Y0056024D01*
X0058279Y0056060D01*
X0058434Y0056091D01*
X0058590Y0056119D01*
X0058746Y0056143D01*
X0058903Y0056163D01*
X0059061Y0056179D01*
X0059218Y0056191D01*
X0059377Y0056199D01*
X0059535Y0056203D01*
X0059693Y0056203D01*
X0059851Y0056199D01*
X0060010Y0056191D01*
X0060167Y0056179D01*
X0060325Y0056163D01*
X0060482Y0056143D01*
X0060638Y0056119D01*
X0060794Y0056091D01*
X0060949Y0056060D01*
X0061104Y0056024D01*
X0061257Y0055985D01*
X0061409Y0055942D01*
X0061560Y0055895D01*
X0061710Y0055844D01*
X0061859Y0055789D01*
X0062006Y0055731D01*
X0062152Y0055669D01*
X0062296Y0055604D01*
X0062438Y0055534D01*
X0062579Y0055462D01*
X0062718Y0055385D01*
X0062854Y0055306D01*
X0062989Y0055222D01*
X0063122Y0055136D01*
X0063252Y0055046D01*
X0063380Y0054953D01*
X0063506Y0054857D01*
X0063629Y0054757D01*
X0063750Y0054655D01*
X0063868Y0054550D01*
X0063983Y0054441D01*
X0064096Y0054330D01*
X0064206Y0054216D01*
X0064313Y0054099D01*
X0064417Y0053980D01*
X0064518Y0053858D01*
X0064615Y0053733D01*
X0064710Y0053606D01*
X0064801Y0053477D01*
X0064890Y0053346D01*
X0064974Y0053212D01*
X0065056Y0053076D01*
X0065134Y0052939D01*
X0065208Y0052799D01*
X0065279Y0052657D01*
X0065347Y0052514D01*
X0065411Y0052369D01*
X0065471Y0052223D01*
X0065527Y0052075D01*
X0065580Y0051926D01*
X0065629Y0051775D01*
X0065674Y0051623D01*
X0065715Y0051470D01*
X0065753Y0051317D01*
X0065786Y0051162D01*
X0065816Y0051006D01*
X0065842Y0050850D01*
X0065863Y0050693D01*
X0065881Y0050536D01*
X0065895Y0050378D01*
X0065905Y0050220D01*
X0065911Y0050062D01*
X0065913Y0049904D01*
X0065911Y0049746D01*
X0065905Y0049588D01*
X0065895Y0049430D01*
X0065881Y0049272D01*
X0065863Y0049115D01*
X0065842Y0048958D01*
X0065816Y0048802D01*
X0065786Y0048646D01*
X0065753Y0048491D01*
X0065715Y0048338D01*
X0065674Y0048185D01*
X0065629Y0048033D01*
X0065580Y0047882D01*
X0065527Y0047733D01*
X0065471Y0047585D01*
X0065411Y0047439D01*
X0065347Y0047294D01*
X0065279Y0047151D01*
X0065208Y0047009D01*
X0065134Y0046869D01*
X0065056Y0046732D01*
X0064974Y0046596D01*
X0064890Y0046462D01*
X0064801Y0046331D01*
X0064710Y0046202D01*
X0064615Y0046075D01*
X0064518Y0045950D01*
X0064417Y0045828D01*
X0064313Y0045709D01*
X0064206Y0045592D01*
X0064096Y0045478D01*
X0063983Y0045367D01*
X0063868Y0045258D01*
X0063750Y0045153D01*
X0063629Y0045051D01*
X0063506Y0044951D01*
X0063380Y0044855D01*
X0063252Y0044762D01*
X0063122Y0044672D01*
X0062989Y0044586D01*
X0062854Y0044502D01*
X0062718Y0044423D01*
X0062579Y0044346D01*
X0062438Y0044274D01*
X0062296Y0044204D01*
X0062152Y0044139D01*
X0062006Y0044077D01*
X0061859Y0044019D01*
X0061710Y0043964D01*
X0061560Y0043913D01*
X0061409Y0043866D01*
X0061257Y0043823D01*
X0061104Y0043784D01*
X0060949Y0043748D01*
X0060794Y0043717D01*
X0060638Y0043689D01*
X0060482Y0043665D01*
X0060325Y0043645D01*
X0060167Y0043629D01*
X0060010Y0043617D01*
X0059851Y0043609D01*
X0059693Y0043605D01*
X0059535Y0043605D01*
X0059377Y0043609D01*
X0059218Y0043617D01*
X0059061Y0043629D01*
X0058903Y0043645D01*
X0058746Y0043665D01*
X0058590Y0043689D01*
X0058434Y0043717D01*
X0058279Y0043748D01*
X0058124Y0043784D01*
X0057971Y0043823D01*
X0057819Y0043866D01*
X0057668Y0043913D01*
X0057518Y0043964D01*
X0057369Y0044019D01*
X0057222Y0044077D01*
X0057076Y0044139D01*
X0056932Y0044204D01*
X0056790Y0044274D01*
X0056649Y0044346D01*
X0056510Y0044423D01*
X0056374Y0044502D01*
X0056239Y0044586D01*
X0056106Y0044672D01*
X0055976Y0044762D01*
X0055848Y0044855D01*
X0055722Y0044951D01*
X0055599Y0045051D01*
X0055478Y0045153D01*
X0055360Y0045258D01*
X0055245Y0045367D01*
X0055132Y0045478D01*
X0055022Y0045592D01*
X0054915Y0045709D01*
X0054811Y0045828D01*
X0054710Y0045950D01*
X0054613Y0046075D01*
X0054518Y0046202D01*
X0054427Y0046331D01*
X0054338Y0046462D01*
X0054254Y0046596D01*
X0054172Y0046732D01*
X0054094Y0046869D01*
X0054020Y0047009D01*
X0053949Y0047151D01*
X0053881Y0047294D01*
X0053817Y0047439D01*
X0053757Y0047585D01*
X0053701Y0047733D01*
X0053648Y0047882D01*
X0053599Y0048033D01*
X0053554Y0048185D01*
X0053513Y0048338D01*
X0053475Y0048491D01*
X0053442Y0048646D01*
X0053412Y0048802D01*
X0053386Y0048958D01*
X0053365Y0049115D01*
X0053347Y0049272D01*
X0053333Y0049430D01*
X0053323Y0049588D01*
X0053317Y0049746D01*
X0053315Y0049904D01*
X0043866Y0049904D02*
X0043871Y0049523D01*
X0043884Y0049143D01*
X0043907Y0048763D01*
X0043940Y0048384D01*
X0043981Y0048006D01*
X0044031Y0047629D01*
X0044091Y0047253D01*
X0044159Y0046878D01*
X0044237Y0046506D01*
X0044324Y0046135D01*
X0044419Y0045767D01*
X0044524Y0045401D01*
X0044637Y0045038D01*
X0044759Y0044677D01*
X0044889Y0044320D01*
X0045029Y0043966D01*
X0045176Y0043615D01*
X0045333Y0043268D01*
X0045497Y0042925D01*
X0045670Y0042586D01*
X0045851Y0042251D01*
X0046040Y0041920D01*
X0046237Y0041595D01*
X0046441Y0041274D01*
X0046654Y0040958D01*
X0046874Y0040648D01*
X0047101Y0040342D01*
X0047336Y0040043D01*
X0047578Y0039749D01*
X0047826Y0039461D01*
X0048082Y0039179D01*
X0048345Y0038904D01*
X0048614Y0038635D01*
X0048889Y0038372D01*
X0049171Y0038116D01*
X0049459Y0037868D01*
X0049753Y0037626D01*
X0050052Y0037391D01*
X0050358Y0037164D01*
X0050668Y0036944D01*
X0050984Y0036731D01*
X0051305Y0036527D01*
X0051630Y0036330D01*
X0051961Y0036141D01*
X0052296Y0035960D01*
X0052635Y0035787D01*
X0052978Y0035623D01*
X0053325Y0035466D01*
X0053676Y0035319D01*
X0054030Y0035179D01*
X0054387Y0035049D01*
X0054748Y0034927D01*
X0055111Y0034814D01*
X0055477Y0034709D01*
X0055845Y0034614D01*
X0056216Y0034527D01*
X0056588Y0034449D01*
X0056963Y0034381D01*
X0057339Y0034321D01*
X0057716Y0034271D01*
X0058094Y0034230D01*
X0058473Y0034197D01*
X0058853Y0034174D01*
X0059233Y0034161D01*
X0059614Y0034156D01*
X0059233Y0034161D01*
X0058853Y0034174D01*
X0058473Y0034197D01*
X0058094Y0034230D01*
X0057716Y0034271D01*
X0057339Y0034321D01*
X0056963Y0034381D01*
X0056588Y0034449D01*
X0056216Y0034527D01*
X0055845Y0034614D01*
X0055477Y0034709D01*
X0055111Y0034814D01*
X0054748Y0034927D01*
X0054387Y0035049D01*
X0054030Y0035179D01*
X0053676Y0035319D01*
X0053325Y0035466D01*
X0052978Y0035623D01*
X0052635Y0035787D01*
X0052296Y0035960D01*
X0051961Y0036141D01*
X0051630Y0036330D01*
X0051305Y0036527D01*
X0050984Y0036731D01*
X0050668Y0036944D01*
X0050358Y0037164D01*
X0050052Y0037391D01*
X0049753Y0037626D01*
X0049459Y0037868D01*
X0049171Y0038116D01*
X0048889Y0038372D01*
X0048614Y0038635D01*
X0048345Y0038904D01*
X0048082Y0039179D01*
X0047826Y0039461D01*
X0047578Y0039749D01*
X0047336Y0040043D01*
X0047101Y0040342D01*
X0046874Y0040648D01*
X0046654Y0040958D01*
X0046441Y0041274D01*
X0046237Y0041595D01*
X0046040Y0041920D01*
X0045851Y0042251D01*
X0045670Y0042586D01*
X0045497Y0042925D01*
X0045333Y0043268D01*
X0045176Y0043615D01*
X0045029Y0043966D01*
X0044889Y0044320D01*
X0044759Y0044677D01*
X0044637Y0045038D01*
X0044524Y0045401D01*
X0044419Y0045767D01*
X0044324Y0046135D01*
X0044237Y0046506D01*
X0044159Y0046878D01*
X0044091Y0047253D01*
X0044031Y0047629D01*
X0043981Y0048006D01*
X0043940Y0048384D01*
X0043907Y0048763D01*
X0043884Y0049143D01*
X0043871Y0049523D01*
X0043866Y0049904D01*
X0264339Y0034156D02*
X0264720Y0034161D01*
X0265100Y0034174D01*
X0265480Y0034197D01*
X0265859Y0034230D01*
X0266237Y0034271D01*
X0266614Y0034321D01*
X0266990Y0034381D01*
X0267365Y0034449D01*
X0267737Y0034527D01*
X0268108Y0034614D01*
X0268476Y0034709D01*
X0268842Y0034814D01*
X0269205Y0034927D01*
X0269566Y0035049D01*
X0269923Y0035179D01*
X0270277Y0035319D01*
X0270628Y0035466D01*
X0270975Y0035623D01*
X0271318Y0035787D01*
X0271657Y0035960D01*
X0271992Y0036141D01*
X0272323Y0036330D01*
X0272648Y0036527D01*
X0272969Y0036731D01*
X0273285Y0036944D01*
X0273595Y0037164D01*
X0273901Y0037391D01*
X0274200Y0037626D01*
X0274494Y0037868D01*
X0274782Y0038116D01*
X0275064Y0038372D01*
X0275339Y0038635D01*
X0275608Y0038904D01*
X0275871Y0039179D01*
X0276127Y0039461D01*
X0276375Y0039749D01*
X0276617Y0040043D01*
X0276852Y0040342D01*
X0277079Y0040648D01*
X0277299Y0040958D01*
X0277512Y0041274D01*
X0277716Y0041595D01*
X0277913Y0041920D01*
X0278102Y0042251D01*
X0278283Y0042586D01*
X0278456Y0042925D01*
X0278620Y0043268D01*
X0278777Y0043615D01*
X0278924Y0043966D01*
X0279064Y0044320D01*
X0279194Y0044677D01*
X0279316Y0045038D01*
X0279429Y0045401D01*
X0279534Y0045767D01*
X0279629Y0046135D01*
X0279716Y0046506D01*
X0279794Y0046878D01*
X0279862Y0047253D01*
X0279922Y0047629D01*
X0279972Y0048006D01*
X0280013Y0048384D01*
X0280046Y0048763D01*
X0280069Y0049143D01*
X0280082Y0049523D01*
X0280087Y0049904D01*
M02*
